<?xml version="1.0" encoding="utf-8"?><svg viewBox="0 0 256 256" xmlns="http://www.w3.org/2000/svg" xmlns:xlink="http://www.w3.org/1999/xlink"><style>:root>svg{display:none}:root>svg:target{display:block}</style><svg viewBox="0 0 10 10" id="arrow" xmlns="http://www.w3.org/2000/svg"><g clip-path="url(#aclip0)"><path d="M7.46 9.84l.33-.327a.543.543 0 00.16-.387.543.543 0 00-.16-.387L4.052 5.002l3.74-3.74a.543.543 0 00.16-.387.543.543 0 00-.16-.387L7.466.16a.548.548 0 00-.774 0l-4.47 4.454a.56.56 0 00-.175.388v.002c0 .146.072.283.175.386L6.68 9.84a.552.552 0 00.78 0z"/></g><defs><clipPath id="aclip0"><path fill="#fff" transform="rotate(90 5 5)" d="M0 0h10v10H0z"/></clipPath></defs></svg><svg fill="none" viewBox="0 0 63 40" id="cash" xmlns="http://www.w3.org/2000/svg"><rect width="63" height="40" rx="4" fill="#fff"/><path d="M40.454 16.894v5.619L44 21.165l-4.913-12.34L19 16.895" fill="#6F9935"/><path d="M41.476 22.124v-6.252H21.544l-1.522.611v.41h20.433v5.62l1.021-.389z" fill="#658B30"/><path d="M19 16.893h21.454v13.281H19v-13.28z" fill="#79A73A"/><path d="M21.043 21.343a3.584 3.584 0 002.406-2.407h12.556a3.583 3.583 0 002.406 2.407v4.382a3.583 3.583 0 00-2.406 2.406H23.45a3.583 3.583 0 00-2.406-2.406v-4.383z" fill="#AAC16B"/><path d="M29.727 26.088a2.554 2.554 0 100-5.108 2.554 2.554 0 000 5.108z" fill="#79A73A"/><path d="M40.1 16.893l-1.21-3.116-.056-.137a3.583 3.583 0 01-3.125-1.344l-.137.055-10.953 4.542H40.1z" fill="#AAC16B"/><path d="M27.083 15.872l-2.464 1.021H40.1l-.397-1.021h-12.62z" fill="#89B140"/><path d="M24.108 24.045a.51.51 0 100-1.022.51.51 0 000 1.022zM35.346 24.045a.51.51 0 100-1.022.51.51 0 000 1.022z" fill="#79A73A"/></svg><svg viewBox="0 0 15 15" id="clock" xmlns="http://www.w3.org/2000/svg"><path d="M12.803 2.197A7.45 7.45 0 007.5 0C5.497 0 3.613.78 2.197 2.197A7.45 7.45 0 000 7.5a7.45 7.45 0 002.197 5.303A7.451 7.451 0 007.5 15a7.45 7.45 0 005.303-2.197A7.45 7.45 0 0015 7.5a7.45 7.45 0 00-2.197-5.303zM7.5 13.527A6.035 6.035 0 011.472 7.5v-.016-.004-.007a6.034 6.034 0 015.946-6H7.5A6.035 6.035 0 0113.528 7.5 6.035 6.035 0 017.5 13.528z"/><path d="M12.079 7.862a.444.444 0 110-.888h.535a5.149 5.149 0 00-4.732-4.6v.465a.444.444 0 11-.887 0v-.455A5.149 5.149 0 002.38 7.036h.479a.444.444 0 110 .887h-.483a5.148 5.148 0 004.68 4.698v-.563a.444.444 0 01.887 0v.563a5.148 5.148 0 004.683-4.759h-.548zM9.296 6.331L7.814 7.814a.444.444 0 01-.628 0l-2.58-2.581a.444.444 0 11.627-.628L7.5 6.872 8.67 5.703a.444.444 0 11.627.628z"/></svg><svg viewBox="0 0 10 10" id="close" xmlns="http://www.w3.org/2000/svg"><path d="M5.916 5.008L9.81 1.114a.647.647 0 10-.916-.916L5 4.092 1.106.198a.647.647 0 10-.916.916l3.894 3.894L.19 8.902a.647.647 0 10.916.916L5 5.924l3.894 3.894a.646.646 0 00.916 0 .647.647 0 000-.916L5.916 5.008z"/></svg><svg viewBox="0 0 50 50" id="delivery" xmlns="http://www.w3.org/2000/svg"><path d="M7.168 44.346a1.605 1.605 0 103.21 0 1.605 1.605 0 00-3.21 0zm2.038 0a.433.433 0 11-.865 0 .433.433 0 01.865 0z"/><path d="M44.123 2.96a.584.584 0 00-.525-.323H17.281a.584.584 0 00-.525.323l-3.424 6.915a.592.592 0 00-.148.391v20.76a3.805 3.805 0 00-1.83 2.978c-.327.25-.696.44-1.09.562l-.002-.014a.938.938 0 00-.891-.665H3.25a.937.937 0 00-.9 1.188l3.234 11.607a.934.934 0 00.9.681h6.475a.93.93 0 00.893-1.202l-.843-2.763 3.053-1.93a1.772 1.772 0 011.289-.165.597.597 0 00.053.01l5.39.834a6.442 6.442 0 004.452-.936l10.557-6.738h9.293a.559.559 0 00.56-.56V10.46a.584.584 0 00-.035-.434L44.124 2.96zm-13.068.849h12.18l2.903 5.859H31.055v-5.86zm-.616 7.063c.065 0 .129-.011.19-.032h3.941v4.2h-7.91v-4.2h3.59c.061.02.125.031.19.032zM6.665 46.192l-3.1-11.133H9.18l3.418 11.132H6.665zm19.952-5.95a5.266 5.266 0 01-3.643.757l-5.364-.835a2.94 2.94 0 00-2.132.291l-.027.015-2.799 1.769-2.04-6.565a4.717 4.717 0 001.707-.971.54.54 0 00.197-.416 2.651 2.651 0 012.668-2.646h.183a3.845 3.845 0 002.975-1.435l2.321-2.857a1.425 1.425 0 011.907-.288l.039.023a1.496 1.496 0 01.508 1.91l-2.308 4.59a.624.624 0 00.236.803.606.606 0 00.288.086h14.356l-9.072 5.77zm.336-6.941v-5.596l.388.405a.589.589 0 00.845.007l1.022-1.041 1.009 1.04a.587.587 0 00.84 0l1.01-1.04 1.021 1.041a.592.592 0 00.423.176.545.545 0 00.4-.182l.366-.406v5.596h-7.324zm19.531 0H35.45v-7.065a.565.565 0 00-.981-.403l-.973 1.03-1.014-1.02a.566.566 0 00-.416-.16h-.002a.57.57 0 00-.419.162l-1.006 1.029-1.006-1.025a.573.573 0 00-.419-.165h-.001a.57.57 0 00-.418.159l-1.017 1.028-.978-1.034a.589.589 0 00-1.018.4V33.3h-3.498a663.71 663.71 0 011.88-3.762 2.686 2.686 0 00-.9-3.42l-.04-.031a2.59 2.59 0 00-3.468.512l-2.321 2.867a2.677 2.677 0 01-2.067 1.002h-.183c-.278 0-.556.03-.829.09v-19.72h3.614a.586.586 0 100-1.171h-3.227l2.903-5.86h12.238v5.86h-8.008a.586.586 0 000 1.172h3.613v4.764a.602.602 0 00.584.607h9.13c.324 0 .54-.283.54-.607V10.84h10.742V33.3z"/><path d="M17.188 13.063a.586.586 0 00-.586.586v.615a.586.586 0 101.171 0v-.615a.586.586 0 00-.585-.586zM17.188 15.533a.586.586 0 00-.586.586v6.445a.586.586 0 101.171 0V16.12a.586.586 0 00-.585-.586z"/></svg><svg fill="none" viewBox="0 0 40 40" id="delivery-truck" xmlns="http://www.w3.org/2000/svg"><g clip-path="url(#fclip0)"><path d="M34.094 12.874h-8.26v14.97h13.533v-6.738l-1.578-5.455a3.846 3.846 0 00-3.695-2.777z" fill="#FF7058"/><path d="M37.391 21.037l-1.407-4.863a1.98 1.98 0 00-1.89-1.42h-6.38v6.283h9.677z" fill="#84DBFF"/><path d="M37.393 21.034H27.71v-6.283l9.682 6.283z" fill="#CDD6E0"/><path d="M37.391 21.037l-1.407-4.863a1.98 1.98 0 00-1.89-1.42h-6.38l9.677 6.283z" fill="#F2F2F2"/><path d="M2.5 5.359h20.835a2.5 2.5 0 012.5 2.5v19.984H0V7.859a2.5 2.5 0 012.5-2.5z" fill="#FFD15C"/><path d="M16.932 5.363v6.605l-.967-.966-1.013 1.013-1.012-1.013-1.013 1.013-1.014-1.013-1.026 1.013-1.011-1.013-.978.978V5.363h8.034z" fill="#F2F2F2"/><path d="M40 27.842v2.825H.003v-2.825h4.175a5.717 5.717 0 015-2.933 5.737 5.737 0 015 2.933h13.431a5.702 5.702 0 014.99-2.933 5.727 5.727 0 015 2.933H40z" fill="#334A5E"/><path d="M36.592 30.649a3.992 3.992 0 11-7.985 0 3.992 3.992 0 017.985 0z" fill="#40596B"/><path d="M34.205 30.65a1.603 1.603 0 11-3.207-.001 1.603 1.603 0 013.207 0z" fill="#ACB3BA"/><path d="M13.166 30.649a3.993 3.993 0 11-7.985-.001 3.993 3.993 0 017.985 0z" fill="#40596B"/><path d="M10.777 30.65a1.603 1.603 0 11-3.205 0 1.603 1.603 0 013.205 0z" fill="#ACB3BA"/></g><defs><clipPath id="fclip0"><path fill="#fff" d="M0 0h40v40H0z"/></clipPath></defs></svg><svg viewBox="0 0 45 45" id="dirty-clothes" xmlns="http://www.w3.org/2000/svg"><path d="M7.94 21.591a.703.703 0 00.995 0l3.018-3.018v20.802a.704.704 0 00.703.703h19.688a.703.703 0 00.703-.703V18.573l3.018 3.018a.703.703 0 00.995 0l6.328-6.328a.703.703 0 000-.995l-9.14-9.14a.703.703 0 00-.498-.206h-22.5a.703.703 0 00-.497.206l-9.14 9.14a.703.703 0 000 .995L7.94 21.59zm5.42 1.95a5.43 5.43 0 003.238 1.068h1.549a1.54 1.54 0 011.54 1.542 3.065 3.065 0 001.368 2.559 1.663 1.663 0 01.742 1.386v.994a3.994 3.994 0 01-1.178 2.843 1.763 1.763 0 01-1.255.52 3.177 3.177 0 00-3.018 2.175l-.68 2.044h-2.307v-15.13zm11.25 15.13v-.054a4.16 4.16 0 014.155-4.164 5.537 5.537 0 002.876-.803v5.022h-7.032zm7.03-9.14h-3.746a1.177 1.177 0 01-1.175-1.175 3.334 3.334 0 00-1.853-2.998 1.734 1.734 0 01-.187-2.997 2.995 2.995 0 001.337-2.497.88.88 0 01.88-.88h.785a1.663 1.663 0 011.617 1.262 2.044 2.044 0 001.986 1.55h.357v7.735zM25.946 6.328a3.516 3.516 0 01-6.89 0h6.89zm-14.404 0h6.088a4.92 4.92 0 009.742 0h6.088l8.437 8.438-5.334 5.333-3.721-3.721a.703.703 0 00-1.2.497v3.516h-.357a.64.64 0 01-.622-.486 3.068 3.068 0 00-2.98-2.327h-.787a2.288 2.288 0 00-2.286 2.286 1.59 1.59 0 01-.71 1.327 3.142 3.142 0 00.338 5.425 1.935 1.935 0 011.076 1.74 2.584 2.584 0 002.581 2.581h3.747v1.03l-.573.383a4.139 4.139 0 01-2.303.697 5.565 5.565 0 00-5.562 5.57v.055h-6.055l.532-1.6a1.773 1.773 0 011.684-1.213 3.16 3.16 0 002.25-.931 5.392 5.392 0 001.59-3.838v-.994a3.065 3.065 0 00-1.369-2.556 1.663 1.663 0 01-.741-1.387 2.95 2.95 0 00-2.947-2.95h-1.55a4.025 4.025 0 01-3.238-1.63v-4.698a.703.703 0 00-1.2-.497l-3.721 3.721-5.334-5.333 8.437-8.438z"/><path d="M15.671 18.487l2.11-2.11.994.995-2.11 2.11-.994-.995zM17.78 19.893l2.11-2.109.993.995-2.109 2.109-.994-.995zM22.116 13.95l.78-1.17 2.11 1.406-.78 1.17-2.11-1.407zM24.285 12.59l.628-1.257 1.406.703-.629 1.257-1.405-.703zM7.757 13.898l.704-2.812 1.364.342-.704 2.812-1.364-.342zM10.57 13.195l.705-2.812 1.364.342-.704 2.812-1.364-.342zM33.794 12.89l1.335-.444.702 2.11-1.334.444-.703-2.11zM36.607 12.891l1.335-.444.703 2.11L37.31 15l-.703-2.11z"/></svg><svg viewBox="0 0 256 256" id="down-chevron" xmlns="http://www.w3.org/2000/svg"><path fill="#8F8F8F" d="M225.813 48.907L128 146.72 30.187 48.907 0 79.093l128 128 128-128z"/></svg><svg viewBox="0 0 256 256" id="down-chevron-green" xmlns="http://www.w3.org/2000/svg"><path fill="#A3CD39" d="M225.813 48.907L128 146.72 30.187 48.907 0 79.093l128 128 128-128z"/></svg><svg fill="none" viewBox="0 0 40 40" id="guarantee" xmlns="http://www.w3.org/2000/svg"><g clip-path="url(#jclip0)"><path d="M7.702 23.243L.234 34.134l7.21-1.344L8.79 40l7.09-10.34-8.177-6.417z" fill="#F57F41"/><path d="M32.295 23.243L24.12 29.66 31.209 40l1.344-7.21 7.21 1.344-7.468-10.89z" fill="#EA623C"/><path d="M19.998 0C11.117 0 3.89 7.227 3.89 16.11c0 8.882 7.226 16.109 16.108 16.109 8.883 0 16.11-7.227 16.11-16.11C36.108 7.227 28.88 0 19.998 0z" fill="#FFE07F"/><path d="M19.998 0v32.219c8.883 0 16.11-7.227 16.11-16.11C36.108 7.227 28.88 0 19.998 0z" fill="#FFD23A"/><path d="M17.127 22.982l-5.5-5.5 1.667-1.667 3.833 3.833 9.576-9.577 1.667 1.667-11.243 11.244z" fill="#1D608B"/><path d="M19.998 20.117l8.372-8.38-1.667-1.666L20 16.776v3.341z" fill="#0D3954"/></g><defs><clipPath id="jclip0"><path fill="#fff" d="M0 0h40v40H0z"/></clipPath></defs></svg><svg fill="none" viewBox="0 0 50 50" id="logo-icon" xmlns="http://www.w3.org/2000/svg"><g clip-path="url(#kclip0)"><path d="M10.345 50H8.62a.862.862 0 01-.862-.862v-1.724h3.448v1.724a.862.862 0 01-.862.862zM41.38 50h-1.725a.862.862 0 01-.862-.862v-1.724h3.448v1.724a.862.862 0 01-.862.862z" fill="#AFB9D2"/><path d="M41.38 48.276H8.62a1.724 1.724 0 01-1.724-1.724V1.724C6.896.772 7.668 0 8.621 0h32.758c.952 0 1.724.772 1.724 1.724v44.828c0 .952-.772 1.724-1.724 1.724z" fill="#E4EAF6"/><path d="M6.896 1.724v8.62h36.207v-8.62C43.103.772 42.331 0 41.38 0H8.621c-.953 0-1.725.772-1.725 1.724z" fill="#D7DEED"/><path d="M21.552 0v5.172a3.448 3.448 0 106.896 0V0h-6.896z" fill="#AFB9D2"/><path d="M25 38.793c7.142 0 12.931-5.79 12.931-12.931 0-7.142-5.79-12.931-12.93-12.931-7.143 0-12.932 5.79-12.932 12.931 0 7.142 5.79 12.931 12.931 12.931z" fill="#C7CFE2"/><path d="M25 6.896a1.724 1.724 0 100-3.448 1.724 1.724 0 000 3.448z" fill="#707487"/><path d="M31.896 6.897a.862.862 0 01-.862-.863V4.31a.862.862 0 011.725 0v1.724a.862.862 0 01-.863.863z" fill="#fff"/><path d="M35.345 6.897a.862.862 0 01-.862-.863V4.31a.862.862 0 011.724 0v1.724a.862.862 0 01-.862.863z" fill="#FFF08C"/><path d="M38.793 6.897a.862.862 0 01-.862-.863V4.31a.862.862 0 011.724 0v1.724a.862.862 0 01-.862.863z" fill="#E4EAF6"/><path d="M25 34.483a8.62 8.62 0 100-17.242 8.62 8.62 0 000 17.242z" fill="#00C8F0"/><path d="M25 19.827c4.32 0 7.888 3.182 8.513 7.328a8.64 8.64 0 00.108-1.293 8.62 8.62 0 10-17.242 0c0 .44.044.87.107 1.293.626-4.146 4.193-7.328 8.514-7.328z" fill="#00AFE1"/><path d="M31.896 39.655h8.621c.476 0 .862.386.862.862v5.173a.862.862 0 01-.862.862h-8.62a.862.862 0 01-.863-.862v-5.173c0-.476.387-.862.863-.862z" fill="#D7DEED"/><path d="M18.103 8.62h-8.62a.862.862 0 01-.862-.861V2.586c0-.476.386-.862.862-.862h8.62c.476 0 .862.386.862.862V7.76a.862.862 0 01-.862.862z" fill="#C7CFE2"/><path d="M15.517 6.896H12.07a.862.862 0 00-.862.863v.862h5.172v-.862a.862.862 0 00-.862-.863z" fill="#AFB9D2"/><path d="M29.31 29.223a.862.862 0 01.616 1.465 6.874 6.874 0 01-1.97 1.406.862.862 0 01-.74-1.557 5.164 5.164 0 001.479-1.055.86.86 0 01.616-.26z" fill="#00EBFF"/><path d="M19.826 28.108c.292 0 .577.15.739.418a5.153 5.153 0 003.695 2.456.861.861 0 11-.244 1.707 6.868 6.868 0 01-4.928-3.273.862.862 0 01.738-1.308z" fill="#00DCFF"/><path d="M25 15.517c-5.713 0-10.345 4.632-10.345 10.345 0 5.713 4.632 10.345 10.345 10.345 5.713 0 10.345-4.632 10.345-10.345 0-5.713-4.632-10.345-10.345-10.345zm0 18.966a8.62 8.62 0 118.239-11.163A1.724 1.724 0 0031.896 25v1.724c0 .821.575 1.506 1.343 1.68a8.624 8.624 0 01-8.24 6.079z" fill="#959CB3"/></g><defs><clipPath id="kclip0"><path fill="#fff" d="M0 0h50v50H0z"/></clipPath></defs></svg><svg fill="none" viewBox="0 0 192 60" id="logo_inversed" xmlns="http://www.w3.org/2000/svg"><path d="M69.75 27H66v-9.125c-1.406.5-2.661.86-3.766 1.078a16.846 16.846 0 01-3.312.328c-2.156 0-3.823-.505-5-1.515-1.167-1.021-1.75-2.464-1.75-4.328V4.155h3.75v8.407c0 1.187.292 2.072.875 2.656.594.583 1.562.875 2.906.875.99 0 1.953-.089 2.89-.266.938-.187 2.074-.505 3.407-.953V4.156h3.75V27zm13.172.313c-2.688 0-4.792-.782-6.313-2.344-1.51-1.573-2.265-3.735-2.265-6.485 0-2.823.703-5.041 2.11-6.656 1.405-1.614 3.338-2.422 5.796-2.422 2.281 0 4.083.693 5.406 2.078 1.323 1.386 1.985 3.292 1.985 5.72v1.983H78.125c.052 1.678.505 2.97 1.36 3.875.853.896 2.057 1.344 3.609 1.344 1.02 0 1.969-.093 2.844-.281.885-.198 1.833-.52 2.843-.969v2.985c-.896.427-1.802.729-2.719.906-.916.177-1.963.265-3.14.265zm-.672-15.125c-1.167 0-2.104.37-2.813 1.109-.697.74-1.114 1.818-1.25 3.234h7.844c-.02-1.427-.364-2.505-1.031-3.234-.667-.74-1.583-1.11-2.75-1.11zm18.531 15.124c-2.614 0-4.604-.76-5.969-2.28-1.354-1.532-2.03-3.725-2.03-6.579 0-2.906.708-5.14 2.124-6.703 1.427-1.563 3.485-2.344 6.172-2.344 1.823 0 3.464.339 4.922 1.016l-1.109 2.953c-1.552-.604-2.834-.906-3.844-.906-2.99 0-4.484 1.984-4.484 5.953 0 1.937.37 3.396 1.109 4.375.75.969 1.844 1.453 3.281 1.453a9.392 9.392 0 004.641-1.219v3.203a7.243 7.243 0 01-2.11.828c-.739.167-1.64.25-2.703.25zm21.86-17.593v2.875h-5.625V27h-3.688V12.594h-5.625V9.719h14.938zm7 0v6.937h8.14V9.72h3.672V27h-3.672v-7.453h-8.14V27h-3.672V9.719h3.672zm20.75 6.906h3.5c2.416 0 4.203.417 5.359 1.25 1.156.833 1.734 2.083 1.734 3.75 0 1.781-.604 3.125-1.812 4.031-1.198.896-2.958 1.344-5.281 1.344h-7.172V9.719h3.672v6.906zm6.953 5.094c0-.865-.323-1.469-.969-1.813-.635-.343-1.552-.515-2.75-.515h-3.234v4.89h2.765c1.479 0 2.547-.208 3.203-.625.657-.416.985-1.062.985-1.937zM167.391 27h-3.688V9.719h3.688V27zm8.781-17.281v8.86c0 1.03-.083 2.546-.25 4.546l8.672-13.406h4.484V27h-3.531v-8.703c0-.48.026-1.255.078-2.328.063-1.073.115-1.854.156-2.344L177.141 27h-4.485V9.719h3.516zm4.578-2.11c-2.208 0-3.828-.395-4.859-1.187-1.021-.802-1.589-2.136-1.703-4h3.328c.062.75.203 1.333.422 1.75.229.417.552.719.968.906.427.177 1.073.266 1.938.266 1.021 0 1.797-.224 2.328-.672.531-.458.854-1.208.969-2.25h3.39c-.156 1.792-.786 3.104-1.89 3.937-1.105.834-2.735 1.25-4.891 1.25zM60.55 50.734l.438-1.317.61-1.67 4.205-10.238h2.987V53H66.71V40.185l-.283.821-.822 2.167L61.598 53H59.63l-4.007-9.855c-.5-1.265-.845-2.252-1.034-2.96V53h-2.096V37.509h2.875l4.064 9.841a35.556 35.556 0 011.118 3.384zM83.36 53l-.467-2.209h-.113c-.774.972-1.548 1.633-2.323 1.982-.764.34-1.722.51-2.874.51-1.539 0-2.747-.396-3.625-1.19-.868-.792-1.303-1.92-1.303-3.384 0-3.134 2.507-4.776 7.52-4.927l2.633-.085v-.963c0-1.218-.264-2.115-.793-2.69-.52-.586-1.355-.878-2.506-.878-1.294 0-2.757.396-4.39 1.189l-.722-1.798c.765-.416 1.6-.741 2.506-.977a10.969 10.969 0 012.747-.354c1.85 0 3.22.41 4.107 1.232.897.82 1.345 2.138 1.345 3.95V53h-1.742zm-5.31-1.657c1.463 0 2.61-.4 3.441-1.203.84-.803 1.26-1.926 1.26-3.37v-1.402l-2.35.099c-1.87.066-3.22.358-4.05.878-.821.51-1.232 1.307-1.232 2.393 0 .85.255 1.496.765 1.94.519.443 1.241.665 2.166.665zm18.111 1.94c-2.247 0-3.988-.689-5.225-2.067-1.227-1.388-1.84-3.347-1.84-5.877 0-2.596.622-4.602 1.868-6.018 1.256-1.416 3.04-2.124 5.353-2.124.746 0 1.491.08 2.237.241.746.16 1.331.35 1.756.566l-.722 1.997a10.557 10.557 0 00-1.7-.51c-.613-.141-1.156-.212-1.628-.212-3.153 0-4.73 2.01-4.73 6.032 0 1.907.383 3.37 1.148 4.39.774 1.02 1.916 1.529 3.427 1.529 1.293 0 2.62-.278 3.978-.835v2.081c-1.038.538-2.345.807-3.922.807zm18.083-13.792h-5.041V53h-2.351V39.491h-4.984v-2.01h12.376v2.01zm9.629 13.792c-2.294 0-4.107-.698-5.438-2.096-1.322-1.397-1.982-3.337-1.982-5.82 0-2.501.613-4.488 1.84-5.96 1.237-1.473 2.894-2.21 4.971-2.21 1.944 0 3.483.642 4.616 1.926 1.133 1.275 1.699 2.96 1.699 5.055v1.487h-10.691c.047 1.822.505 3.205 1.374 4.149.878.944 2.11 1.416 3.695 1.416 1.671 0 3.323-.35 4.957-1.048v2.096c-.831.359-1.619.613-2.365.764-.737.161-1.629.241-2.676.241zm-.638-14.117c-1.246 0-2.242.406-2.987 1.217-.737.812-1.171 1.935-1.303 3.37h8.114c0-1.482-.331-2.614-.992-3.398-.66-.793-1.604-1.19-2.832-1.19zm17.587 14.117c-1.01 0-1.935-.184-2.775-.552a5.278 5.278 0 01-2.096-1.728h-.17c.114.907.17 1.766.17 2.578v6.386h-2.35V37.48h1.911l.326 2.123h.113c.604-.85 1.308-1.463 2.11-1.84.802-.378 1.723-.567 2.761-.567 2.058 0 3.644.704 4.758 2.11 1.123 1.407 1.685 3.38 1.685 5.92 0 2.548-.571 4.53-1.713 5.946-1.133 1.407-2.71 2.11-4.73 2.11zm-.34-14.09c-1.586 0-2.733.44-3.441 1.318-.708.878-1.071 2.275-1.09 4.191v.524c0 2.18.364 3.743 1.09 4.687.727.935 1.893 1.402 3.498 1.402 1.341 0 2.388-.543 3.144-1.628.764-1.086 1.147-2.582 1.147-4.49 0-1.934-.383-3.417-1.147-4.446-.756-1.038-1.822-1.557-3.201-1.557z" fill="#fff"/><g clip-path="url(#lclip0)"><path d="M10.345 52H8.62a.862.862 0 01-.862-.862v-1.724h3.448v1.724a.862.862 0 01-.862.862zM41.38 52h-1.725a.862.862 0 01-.862-.862v-1.724h3.448v1.724a.862.862 0 01-.862.862z" fill="#AFB9D2"/><path d="M41.38 50.276H8.62a1.724 1.724 0 01-1.724-1.724V3.724C6.896 2.772 7.668 2 8.621 2h32.758c.952 0 1.724.772 1.724 1.724v44.828c0 .952-.772 1.724-1.724 1.724z" fill="#E4EAF6"/><path d="M6.896 3.724v8.62h36.207v-8.62c0-.952-.772-1.724-1.724-1.724H8.621c-.953 0-1.725.772-1.725 1.724z" fill="#D7DEED"/><path d="M21.552 2v5.172a3.448 3.448 0 106.896 0V2h-6.896z" fill="#AFB9D2"/><path d="M25 40.793c7.142 0 12.931-5.79 12.931-12.931 0-7.142-5.79-12.931-12.931-12.931-7.142 0-12.931 5.79-12.931 12.931 0 7.142 5.79 12.931 12.931 12.931z" fill="#C7CFE2"/><path d="M25 8.896a1.724 1.724 0 100-3.448 1.724 1.724 0 000 3.448z" fill="#707487"/><path d="M31.897 8.897a.862.862 0 01-.862-.863V6.31a.862.862 0 011.724 0v1.724a.862.862 0 01-.862.863z" fill="#fff"/><path d="M35.345 8.897a.862.862 0 01-.862-.863V6.31a.862.862 0 011.724 0v1.724a.862.862 0 01-.862.863z" fill="#FFF08C"/><path d="M38.793 8.897a.862.862 0 01-.862-.863V6.31a.862.862 0 011.724 0v1.724a.862.862 0 01-.862.863z" fill="#E4EAF6"/><path d="M25 36.483a8.62 8.62 0 100-17.242 8.62 8.62 0 000 17.242z" fill="#00C8F0"/><path d="M25 21.827c4.32 0 7.888 3.182 8.513 7.328a8.64 8.64 0 00.108-1.293 8.62 8.62 0 10-17.242 0c0 .44.044.87.107 1.293.626-4.146 4.193-7.328 8.514-7.328z" fill="#00AFE1"/><path d="M31.897 41.655h8.62c.476 0 .862.386.862.862v5.173a.862.862 0 01-.862.862h-8.62a.862.862 0 01-.862-.862v-5.173c0-.476.386-.862.862-.862z" fill="#D7DEED"/><path d="M18.104 10.62H9.482a.862.862 0 01-.862-.861V4.586c0-.476.386-.862.862-.862h8.62c.477 0 .863.386.863.862V9.76a.862.862 0 01-.863.862z" fill="#C7CFE2"/><path d="M15.517 8.896H12.07a.862.862 0 00-.862.863v.862h5.172v-.862a.862.862 0 00-.862-.863z" fill="#AFB9D2"/><path d="M29.31 31.223a.862.862 0 01.616 1.465 6.874 6.874 0 01-1.97 1.406.862.862 0 01-.74-1.557 5.164 5.164 0 001.479-1.055.86.86 0 01.616-.26z" fill="#00EBFF"/><path d="M19.826 30.109c.292 0 .577.148.739.417a5.153 5.153 0 003.695 2.456.861.861 0 11-.244 1.707 6.868 6.868 0 01-4.928-3.273.862.862 0 01.738-1.307z" fill="#00DCFF"/><path d="M25 17.517c-5.713 0-10.345 4.632-10.345 10.345 0 5.713 4.632 10.345 10.345 10.345 5.713 0 10.345-4.632 10.345-10.345 0-5.713-4.632-10.345-10.345-10.345zm0 18.966a8.62 8.62 0 118.24-11.163A1.724 1.724 0 0031.896 27v1.724c0 .821.574 1.506 1.342 1.68A8.624 8.624 0 0125 36.483z" fill="#959CB3"/></g><defs><clipPath id="lclip0"><path fill="#fff" transform="translate(0 2)" d="M0 0h50v50H0z"/></clipPath></defs></svg><svg fill="none" viewBox="0 0 40 40" id="magnifying-glass" xmlns="http://www.w3.org/2000/svg"><path d="M20 40c11.046 0 20-8.954 20-20S31.046 0 20 0 0 8.954 0 20s8.954 20 20 20z" fill="#FEDD55"/><path d="M40 20c0-2.23-.365-4.375-1.04-6.379l-6.275-6.276-25.37 25.37 6.233 6.22A19.974 19.974 0 0020 40c11.046 0 20-8.954 20-20z" fill="#FCC63D"/><path d="M24.974 23.182a8.126 8.126 0 100-16.252 8.126 8.126 0 000 16.252z" fill="#5EEFEE"/><path d="M30.72 20.802a8.126 8.126 0 01-11.492 0L30.72 9.31a8.126 8.126 0 010 11.492z" fill="#54C9FC"/><path d="M16.282 19.768l3.977 3.977-6.847 6.847-3.977-3.977 6.847-6.847z" fill="#FF807D"/><path d="M11.418 28.607l6.847-6.847 1.988 1.988-6.847 6.848-1.989-1.989z" fill="#FC3E53"/><path d="M17.263 22.767c-4.252-4.252-4.252-11.17 0-15.422 4.252-4.251 11.17-4.251 15.422 0 4.252 4.252 4.252 11.17 0 15.422-4.252 4.251-11.17 4.251-15.422 0zm12.66-12.66a7.006 7.006 0 00-9.898 0 7.006 7.006 0 000 9.898 7.006 7.006 0 009.898 0 7.006 7.006 0 000-9.898z" fill="#776D6B"/><path d="M32.684 7.345l-2.762 2.763c2.729 2.728 2.73 7.168 0 9.896a7.006 7.006 0 01-9.896 0l-2.763 2.762a10.882 10.882 0 002.25 1.729c4.169 2.412 9.607 1.836 13.172-1.729 4.251-4.251 4.25-11.17 0-15.42z" fill="#57555C"/><path d="M7.315 32.715a2.813 2.813 0 010-3.978l2.32-2.32 3.978 3.977-2.32 2.32a2.812 2.812 0 01-3.978 0z" fill="#776D6B"/><path d="M13.613 30.394l-2.32 2.32a2.813 2.813 0 01-3.978 0l4.31-4.308 1.988 1.988z" fill="#57555C"/></svg><svg fill="none" viewBox="0 0 63 40" id="mastercard" xmlns="http://www.w3.org/2000/svg"><g clip-path="url(#nclip0)" fill-rule="evenodd" clip-rule="evenodd"><path d="M-2.864-14.286h68.728v68.572H-2.864v-68.572z" fill="#fff"/><path d="M.169 39.78h62.663V.221H.169v39.557z" fill="#1B3771"/><path d="M31.55 32.639a17.08 17.08 0 0011.492 4.425c9.475 0 17.136-7.644 17.136-17.098 0-9.42-7.66-17.096-17.136-17.096a17.084 17.084 0 00-11.491 4.425c-3.461 3.15-5.645 7.643-5.645 12.671 0 5.03 2.184 9.555 5.645 12.672z" fill="#E9B040"/><path d="M57.893 29.487c0-.301.234-.536.57-.536a.53.53 0 01.538.536c0 .302-.235.57-.537.57a.566.566 0 01-.571-.57zm.57.436c.202 0 .404-.201.404-.436a.408.408 0 00-.403-.403c-.236 0-.437.168-.437.403 0 .235.201.436.437.436zm-.1-.168h-.101v-.503h.202c.033 0 .1 0 .134.034s.067.067.067.1c0 .068-.033.135-.1.135l.1.234h-.134l-.067-.201h-.101v.201zm0-.301h.134c.034 0 .034-.034.034-.067 0 0 0-.034-.034-.034h-.134v.1z" fill="#E9B040"/><path d="M37.094 18.156a16.97 16.97 0 00-.302-1.81H26.31c.137-.611.305-1.216.504-1.81h9.475a20.139 20.139 0 00-.705-1.81h-8.064c.31-.618.646-1.222 1.008-1.81h6.047a11.263 11.263 0 00-1.31-1.81h-3.427c.504-.638 1.109-1.241 1.713-1.81A17.02 17.02 0 0020.06 2.87c-9.476 0-17.137 7.677-17.137 17.097 0 9.453 7.661 17.097 17.136 17.097A17.02 17.02 0 0031.55 32.64c.605-.57 1.21-1.173 1.748-1.81h-3.462a17.85 17.85 0 01-1.31-1.81h6.048c.376-.58.713-1.186 1.009-1.81h-8.064a14.476 14.476 0 01-.706-1.81h9.475a18.35 18.35 0 00.504-1.812c.135-.602.235-1.207.302-1.81a16.31 16.31 0 000-3.62z" fill="#CC2131"/><path d="M57.893 23.923c0-.302.234-.537.57-.537a.53.53 0 01.538.537c0 .301-.235.57-.537.57a.566.566 0 01-.571-.57zm.57.436c.202 0 .404-.202.404-.436a.408.408 0 00-.403-.403c-.236 0-.437.168-.437.403 0 .234.201.436.437.436zm-.1-.168h-.101v-.503h.202c.033 0 .1 0 .134.033.034.035.067.068.067.101 0 .067-.033.134-.1.134l.1.235h-.134l-.067-.201h-.101v.2zm0-.301h.134c.034 0 .034-.035.034-.068 0 0 0-.033-.034-.033h-.134v.1z" fill="#fff"/><path d="M25.738 24.895c-.571.168-.975.235-1.411.235-.874 0-1.412-.537-1.412-1.543 0-.2.034-.402.067-.636l.101-.67.1-.571.807-4.827h1.781l-.201 1.072h1.108l-.268 1.777H25.3l-.504 2.883c0 .1-.034.2-.034.268 0 .37.202.537.639.537.235 0 .37-.034.571-.067l-.235 1.542zm5.745-.067a6.34 6.34 0 01-1.915.302c-1.983 0-3.158-1.073-3.158-3.152 0-2.413 1.377-4.223 3.259-4.223 1.512 0 2.486 1.005 2.486 2.58 0 .504-.067 1.007-.235 1.744h-3.696v.201c0 .838.538 1.24 1.613 1.24.672 0 1.276-.134 1.949-.435l-.303 1.742zm-1.109-4.19v-.336c0-.57-.335-.905-.873-.905-.605 0-1.008.436-1.176 1.24h2.05zm-18.849 4.358H9.677l1.075-6.671-2.385 6.67H7.09l-.134-6.637-1.143 6.638h-1.78l1.444-8.683h2.654l.102 5.364 1.78-5.364h2.957l-1.445 8.683zm4.469-3.152c-.201 0-.235-.033-.37-.033-1.041 0-1.579.402-1.579 1.073 0 .469.269.738.672.738.907 0 1.243-.739 1.277-1.778zm1.478 3.152H15.86l.033-.738c-.403.57-.94.872-1.949.872-.907 0-1.646-.805-1.646-1.945 0-.335.067-.636.134-.905.302-1.106 1.411-1.777 3.091-1.81.202 0 .538 0 .806.033.068-.234.068-.335.068-.469 0-.469-.37-.603-1.243-.603-.538 0-1.109.1-1.546.2l-.235.102h-.134l.268-1.576c.874-.268 1.479-.369 2.15-.369 1.613 0 2.453.704 2.453 2.079 0 .334.034.603-.1 1.374l-.37 2.514-.067.436-.067.368v.235l-.034.202zm22.949-6.973c.503 0 .974.134 1.646.469l.303-1.911c-.168-.067-.202-.067-.437-.168l-.773-.167a3.039 3.039 0 00-.84-.1c-.907 0-1.445 0-2.016.368-.302.168-.672.436-1.108.905l-.202-.067-1.915 1.341.1-.737h-1.982l-1.109 7.04h1.849l.672-3.788s.269-.536.403-.704c.336-.436.638-.436 1.008-.436h.134a16.31 16.31 0 00-.067 1.341c0 2.313 1.31 3.755 3.326 3.755.505 0 .941-.067 1.613-.268l.335-1.979c-.604.303-1.108.436-1.578.436-1.076 0-1.714-.77-1.714-2.111 0-1.878.94-3.22 2.352-3.22zm15.69-1.71l-.403 2.48c-.437-.67-.974-.972-1.68-.972-.974 0-1.881.537-2.452 1.576l-1.177-.704.101-.738h-1.983l-1.142 7.04h1.882l.604-3.787s.471-.537.605-.705c.27-.334.572-.435.807-.435a6.567 6.567 0 00-.336 2.079c0 1.776.94 2.95 2.284 2.95.673 0 1.21-.235 1.714-.805l-.1.704h1.78l1.412-8.683H56.11zm-2.25 7.006c-.639 0-.941-.436-.941-1.374 0-1.374.571-2.38 1.444-2.38.639 0 .975.503.975 1.408 0 1.374-.605 2.346-1.478 2.346zm-8.569-1.475c-.2 0-.234-.033-.369-.033-1.041 0-1.58.402-1.58 1.073 0 .469.27.738.673.738.907 0 1.243-.739 1.276-1.778zm1.479 3.152h-1.612l.033-.738c-.403.57-.94.872-1.949.872-.907 0-1.713-.771-1.713-1.945.033-1.676 1.276-2.715 3.292-2.715.202 0 .538 0 .807.033.067-.234.067-.335.067-.469 0-.469-.37-.603-1.244-.603-.537 0-1.142.1-1.545.2l-.269.102h-.1l.268-1.576c.874-.268 1.479-.369 2.15-.369 1.613 0 2.453.704 2.453 2.079 0 .334.034.603-.1 1.374l-.37 2.514-.067.436-.067.368-.034.235v.202zm-25.435-5.532c.37 0 .874.034 1.411.1l.27-1.642c-.538-.067-1.244-.134-1.68-.134-2.05 0-2.756 1.106-2.756 2.414 0 .837.403 1.475 1.378 1.91.773.37.907.437.907.738 0 .436-.403.704-1.142.704-.538 0-1.042-.1-1.647-.268l-.202 1.61h.034l.336.066c.1.034.27.067.47.067.47.067.84.067 1.076.067 2.05 0 2.923-.77 2.923-2.346 0-.972-.47-1.542-1.411-1.945-.773-.369-.874-.402-.874-.737 0-.335.336-.604.907-.604z" fill="#1B3771"/><path d="M42.874 16.045l-.303 1.877c-.672-.335-1.142-.47-1.646-.47-1.411 0-2.386 1.342-2.386 3.253 0 1.308.673 2.112 1.747 2.112.47 0 .975-.134 1.58-.436l-.336 1.978c-.672.167-1.109.235-1.646.235-1.983 0-3.226-1.409-3.226-3.722 0-3.117 1.713-5.263 4.166-5.263.336 0 .605.034.84.067l.773.201c.235.1.268.1.437.168zm-5.947 1.307c-.068-.033-.135-.033-.202-.033-.604 0-.94.301-1.512 1.14l.168-1.073h-1.713l-1.11 7.073h1.85c.671-4.324.839-5.062 1.746-5.062h.135c.168-.838.37-1.475.705-2.045h-.067zM26.208 24.36a4.059 4.059 0 01-1.344.234c-.94 0-1.478-.536-1.478-1.542 0-.2.033-.402.067-.636l.1-.705.101-.536.807-4.828h1.848l-.202 1.04h.941l-.269 1.743h-.94l-.504 2.917c0 .134-.034.234-.034.301 0 .37.202.537.639.537.235 0 .37-.034.504-.067l-.236 1.542zm-7.156-4.727c0 .871.436 1.508 1.41 1.944.773.369.874.47.874.805 0 .436-.335.637-1.075.637-.538 0-1.041-.1-1.646-.302l-.27 1.643h.102l.336.067c.152.046.31.069.47.067.437.033.806.067 1.041.067 1.95 0 2.857-.737 2.857-2.347 0-.972-.37-1.542-1.31-1.978-.774-.335-.874-.436-.874-.737 0-.403.302-.604.907-.604.37 0 .873.067 1.344.135l.268-1.643c-.47-.067-1.21-.134-1.646-.134-2.083 0-2.788 1.072-2.788 2.38zm38.035 4.827h-1.781l.1-.704c-.504.537-1.042.77-1.714.77-1.343 0-2.25-1.139-2.25-2.915 0-2.347 1.377-4.325 3.023-4.325.74 0 1.277.302 1.78.972l.404-2.48h1.848l-1.41 8.682zm-2.756-1.676c.874 0 1.478-.972 1.478-2.38 0-.872-.335-1.374-.974-1.374-.84 0-1.445.971-1.445 2.38 0 .905.302 1.374.94 1.374zm-22.445 1.509c-.638.2-1.243.301-1.915.301-2.083 0-3.158-1.106-3.158-3.151 0-2.447 1.378-4.224 3.26-4.224 1.511 0 2.485 1.006 2.485 2.581 0 .503-.067 1.006-.2 1.744H28.66c-.034.1-.034.134-.034.2 0 .806.538 1.241 1.647 1.241.639 0 1.243-.134 1.915-.436l-.303 1.744zm-1.04-4.191v-.369c0-.57-.303-.905-.874-.905s-1.008.47-1.176 1.274h2.05zm-18.85 4.358h-1.848l1.075-6.671-2.386 6.671H7.561l-.135-6.638-1.142 6.638H4.57l1.445-8.683h2.654l.101 5.364 1.781-5.364h2.89l-1.445 8.683zm4.603-3.151c-.202-.034-.302-.034-.437-.034-1.041 0-1.58.37-1.58 1.073 0 .436.27.738.673.738.773 0 1.31-.738 1.344-1.777zm1.344 3.151h-1.546l.034-.738c-.47.571-1.075.838-1.949.838-1.008 0-1.68-.77-1.68-1.91 0-1.71 1.176-2.716 3.26-2.716.2 0 .47 0 .738.034.067-.201.067-.302.067-.436 0-.47-.302-.637-1.176-.637-.537 0-1.142.067-1.545.201l-.269.067-.168.033.269-1.575c.94-.268 1.545-.37 2.217-.37 1.613 0 2.453.705 2.453 2.046 0 .369-.034.637-.168 1.408l-.37 2.514-.067.436-.034.368-.033.235-.033.202zm27.955-3.151c-.202-.034-.303-.034-.437-.034-1.042 0-1.58.37-1.58 1.073 0 .436.27.738.672.738.74 0 1.311-.738 1.345-1.777zm1.343 3.151h-1.545l.034-.738c-.47.571-1.109.838-1.95.838-1.007 0-1.713-.77-1.713-1.91 0-1.71 1.21-2.716 3.293-2.716.2 0 .47 0 .738.034.068-.201.068-.302.068-.436 0-.47-.303-.637-1.176-.637-.538 0-1.143.067-1.546.201l-.269.067-.168.033.27-1.575c.94-.268 1.545-.37 2.217-.37 1.612 0 2.452.705 2.452 2.046 0 .369-.033.637-.168 1.408l-.37 2.514-.066.436-.068.368-.033.235v.202zm4.974-7.107c-.035-.033-.101-.033-.169-.033-.604 0-.974.301-1.545 1.14l.168-1.073h-1.68l-1.143 7.073h1.882c.638-4.324.84-5.062 1.714-5.062h.134c.168-.838.403-1.475.706-2.045h-.067z" fill="#fff"/></g><defs><clipPath id="nclip0"><rect width="63" height="40" rx="4" fill="#fff"/></clipPath></defs></svg><svg fill="none" viewBox="0 0 40 40" id="money-bag" xmlns="http://www.w3.org/2000/svg"><g clip-path="url(#oclip0)"><path d="M17.976 7.36a.602.602 0 01-.487-.246c-.549-.746-1.525-1.601-3.062-1.437-1.81.192-3.153-.383-3.962-.9a.604.604 0 01.65-1.018c.646.413 1.723.873 3.184.717 2.218-.235 3.56 1.103 4.163 1.922a.604.604 0 01-.486.962z" fill="#FFD064"/><path d="M11.657 10.565a.603.603 0 01-.514-.92c.774-1.26 2.191-2.126 4.1-2.504 1.392-.276 2.56-.2 2.609-.197a.603.603 0 01-.082 1.204c-.042-.003-4.14-.246-5.598 2.13a.603.603 0 01-.515.287z" fill="#FFD064"/><path d="M20.755 33.694c9.912 0 15.393-14.54-.26-25.77-.39-.28-.62-.73-.615-1.209.004-.396.13-.78.357-1.105.732-1.046 1.787-2.836 2.42-4.278.151-.345-.066-.717-.47-.717-.941 0-.941-.615-1.881-.615-.94 0-.94.615-1.88.615-.802 0-1.13-.69-1.52-.188C15.77 1.89 19.66 7.031 19.66 7.031 2.475 18.33 8.016 33.694 18.163 33.694h2.592z" fill="#EABC6B"/><path d="M24.652 7.031S28.6 1.906 27.465.436c-.387-.501-.717.18-1.517.18-.94 0-.94-.616-1.881-.616-.94 0-.94.615-1.88.615-.047 0-.09-.002-.131-.005-.378 1.62-2.08 4.142-3.055 5.493.384.563.66.928.66.928-.23.151-.454.303-.675.455 16.42 11.286 10.926 26.207.884 26.207h6.34c10.177 0 15.684-15.326-1.558-26.662z" fill="#E8AE4D"/><path d="M25.386 8.854c-2.295.58-4.562.58-6.857 0-.799-.201-1.251-1.1-.964-1.916l.01-.027c.24-.685.924-1.07 1.594-.9 1.88.47 3.697.47 5.577 0 .67-.17 1.353.215 1.594.9l.01.027c.287.816-.165 1.715-.964 1.916z" fill="#FFE07D"/><path d="M3.81 36.33l8.74 3.252a6.649 6.649 0 002.32.418h9.005a6.65 6.65 0 003.56-1.033l11.276-7.145a1.98 1.98 0 00.322-2.593c-.612-.9-1.626-1.057-2.74-.53l-10.979 4.834.013-1.78a3.188 3.188 0 00-2.726-2.842l-6.685-.77c-1.543-.218-2.313-.735-3.658-1.521a11.982 11.982 0 00-6.05-1.64H3.81v11.35z" fill="#FFDDCE"/><path d="M12.019 37.85c.78.29 1.606.438 2.438.438h9.468c1.008 0 2-.218 2.91-.634l6.62-4.196c.615-.39 1.006-1.068.986-1.796a2.073 2.073 0 00-.36-1.112l-.409-.697-8.358 3.68.013-1.78a3.188 3.188 0 00-2.726-2.842l-6.685-.77c-1.543-.218-2.313-.735-3.658-1.521a11.982 11.982 0 00-6.05-1.64H3.81v9.814l8.208 3.055z" fill="#FFDDCE"/><path d="M39.033 29.229c-.613-.9-1.626-1.057-2.74-.53l-3.02 1.33.262.416a1.98 1.98 0 01-.322 2.594l-6.57 4.163a6.648 6.648 0 01-2.768.604h-9.006a6.651 6.651 0 01-2.32-.418l-8.738-3.252v2.194l8.739 3.252a6.65 6.65 0 002.32.418h9.005a6.65 6.65 0 003.56-1.033l11.276-7.145a1.98 1.98 0 00.322-2.593z" fill="#FFCBBE"/><path d="M24.507 29.917v.043l.028-.012-.028-.03z" fill="#F5DBCC"/><path d="M25.314 33.532h-6.826a.604.604 0 010-1.207h6.835l-.009 1.207z" fill="#FFCBBE"/><path d="M5.691 38.07c0 .634-.514 1.148-1.148 1.148h-2.77A1.148 1.148 0 01.623 38.07V24.013c0-.634.514-1.148 1.148-1.148h2.771c.634 0 1.148.514 1.148 1.148V38.07z" fill="#407093"/><path d="M23.486 18.705a29.75 29.75 0 01-.766-.281v-3.849c.714.119 1.143.488 1.174.516a.603.603 0 00.815-.89c-.042-.04-.781-.706-1.989-.845v-.858a.604.604 0 10-1.207 0v.907a4.47 4.47 0 00-.448.11c-1.024.308-1.79 1.186-1.997 2.29-.19 1.003.129 1.967.83 2.517.401.315.908.604 1.615.913v4.774c-.699-.03-1.128-.161-1.877-.652a.604.604 0 00-.661 1.01c.985.645 1.644.813 2.538.848v.958a.604.604 0 101.207 0v-1c1.695-.275 2.683-1.647 2.898-2.926.27-1.599-.568-2.989-2.132-3.542zm-2.844-1.333c-.344-.27-.493-.785-.388-1.343.098-.517.453-1.146 1.16-1.358.033-.01.066-.02.1-.028v3.26a5.09 5.09 0 01-.872-.531zm3.786 4.675c-.133.792-.715 1.637-1.708 1.892v-4.226l.363.13c1.502.531 1.41 1.82 1.345 2.204z" fill="#fff"/></g><defs><clipPath id="oclip0"><path fill="#fff" d="M0 0h40v40H0z"/></clipPath></defs></svg><svg viewBox="0 0 15 15" id="phone" xmlns="http://www.w3.org/2000/svg"><g clip-path="url(#pclip0)"><path d="M14.592 11.008l-2.093-2.093c-.748-.747-2.019-.448-2.318.524-.224.672-.972 1.046-1.645.897-1.495-.374-3.513-2.318-3.887-3.888-.225-.673.224-1.42.897-1.645.972-.299 1.27-1.57.523-2.317L3.976.392C3.378-.13 2.48-.13 1.957.392l-1.42 1.42C-.883 3.309.687 7.27 4.2 10.785c3.514 3.514 7.476 5.159 8.971 3.663l1.42-1.42c.524-.598.524-1.495 0-2.018z"/></g><defs><clipPath id="pclip0"><path fill="#fff" d="M0 0h15v15H0z"/></clipPath></defs></svg><svg viewBox="0 0 15 15" id="placeholder" xmlns="http://www.w3.org/2000/svg"><path d="M7.5 0a5.664 5.664 0 00-5.658 5.658c0 4.491 5.05 9.004 5.266 9.194a.593.593 0 00.796-.011c.214-.201 5.254-4.962 5.254-9.183A5.665 5.665 0 007.5 0zm0 8.356a2.698 2.698 0 110-5.396 2.698 2.698 0 010 5.396z"/></svg><svg fill="none" viewBox="0 0 85 86" id="right-drawn-arrow" xmlns="http://www.w3.org/2000/svg"><g clip-path="url(#rclip0)"><path d="M80.705 47.082c-3.314 1.688-6.94 2.813-10.38 4.127-.438.187-.938-.313-.938-.688.063-2.189 0-4.502.688-6.566l-.063-.062c-7.065-8.191-20.946-9.066-30.95-9.567-11.505-.625-23.635.5-33.765 6.253-1.125.875-2.313 1.813-3.376 2.876-.5.5-1.188-.187-.75-.75l.562-.563c-.25-.25-.25-.625.063-.938.75-.625 1.625-1.125 2.438-1.688 17.445-16.445 50.647-15.882 68.217-.438.438-1.563 1-3.126 1.376-4.752.125-.75 1.063-.687 1.438-.187 2.689 3.564 4.001 7.878 5.752 11.88.188.312.188.813-.312 1.063zm-5.878-10.88c-.438 1.188-1 2.251-1.376 3.502-.187.437-.625.5-.875.375-.188.187-.438.187-.688.062-17.445-12.443-39.767-14.38-58.087-5.064 8.378-2.501 17.632-2.752 26.073-2.314 6.19.313 12.256 1.126 18.196 2.689 4.627 1.25 9.879 3.376 12.193 7.816.312-.688 1.313-.188 1.188.437-.25 1.876-.438 3.69-.5 5.503 2.813-1.063 5.69-2.064 8.378-3.377-1.438-3.189-2.626-6.628-4.502-9.629z" fill="#8F8F8F"/></g><defs><clipPath id="rclip0"><path fill="#fff" transform="scale(1 -1) rotate(-45 -51.906 -21.5)" d="M0 0h60v60H0z"/></clipPath></defs></svg><svg fill="none" viewBox="0 0 63 40" id="sber" xmlns="http://www.w3.org/2000/svg"><rect width="63" height="40" rx="4" fill="#fff"/><g clip-path="url(#sclip0)"><path d="M45.735 17.074l1.813-1.336h-6.067v8.024h6.067v-1.336h-4.336v-2.054h3.698v-1.336h-3.698v-1.962h2.523zM36.901 18.866h-2.107v-1.792h3.364l1.813-1.336h-6.908v8.024h3.615c2.028 0 3.19-.919 3.19-2.52 0-1.532-1.053-2.376-2.967-2.376zm-.301 3.56h-1.806v-2.224H36.6c1.1 0 1.611.372 1.611 1.112 0 .756-.542 1.112-1.611 1.112zM52.463 15.738H49.16v8.024h1.731V21.49h1.572c2.108 0 3.418-1.108 3.418-2.88 0-1.77-1.31-2.871-3.418-2.871zm-.037 4.415h-1.535v-3.08h1.535c1.11 0 1.72.548 1.72 1.54 0 .993-.61 1.54-1.72 1.54zM30.09 22.025a3.1 3.1 0 01-1.494.375c-1.561 0-2.694-1.115-2.694-2.65s1.133-2.65 2.694-2.65c.59 0 1.12.167 1.575.494l1.242-.915-.083-.072c-.725-.637-1.694-.974-2.801-.974-1.202 0-2.293.405-3.071 1.14-.783.74-1.214 1.782-1.214 2.933 0 1.156.43 2.213 1.21 2.976.782.765 1.87 1.186 3.064 1.186 1.248 0 2.338-.435 3.077-1.227l-1.12-.826-.385.21zM18.84 15.673c.315.407.584.851.799 1.325l-6.076 4.478-2.538-1.591V17.97l2.538 1.592 5.277-3.89z" fill="#21A038"/><path d="M8.436 19.75c0-.086.002-.172.006-.257l-1.538-.076a6.646 6.646 0 001.945 5.048l1.09-1.091a5.11 5.11 0 01-1.503-3.624z" fill="url(#spaint0_linear)"/><path d="M13.563 14.622c.086 0 .171.003.257.007l.076-1.54a6.645 6.645 0 00-5.048 1.945l1.091 1.091a5.112 5.112 0 013.624-1.503z" fill="url(#spaint1_linear)"/><path d="M13.563 24.877c-.086 0-.171-.002-.256-.006l-.077 1.538a6.645 6.645 0 005.048-1.945l-1.09-1.09a5.112 5.112 0 01-3.625 1.503z" fill="url(#spaint2_linear)"/><path d="M16.454 15.517l1.297-.956a6.64 6.64 0 00-4.188-1.48v1.541c1.072 0 2.067.33 2.89.895z" fill="url(#spaint3_linear)"/><path d="M20.231 19.75c0-.409-.036-.808-.107-1.195l-1.435 1.057.002.137a5.115 5.115 0 01-1.69 3.8l1.035 1.145a6.648 6.648 0 002.195-4.945z" fill="#21A038"/><path d="M13.563 24.877a5.115 5.115 0 01-3.8-1.689l-1.144 1.035a6.65 6.65 0 004.944 2.194v-1.54z" fill="url(#spaint4_linear)"/><path d="M10.125 15.95L9.09 14.805a6.651 6.651 0 00-2.194 4.944h1.54c0-1.506.652-2.862 1.689-3.8z" fill="url(#spaint5_linear)"/></g><defs><linearGradient id="spaint0_linear" x1="9.16" y1="24.272" x2="7.477" y2="19.407" gradientUnits="userSpaceOnUse"><stop offset=".144" stop-color="#F2E913"/><stop offset=".304" stop-color="#E7E518"/><stop offset=".582" stop-color="#CADB26"/><stop offset=".891" stop-color="#A3CD39"/></linearGradient><linearGradient id="spaint1_linear" x1="9.288" y1="15.307" x2="13.623" y2="13.655" gradientUnits="userSpaceOnUse"><stop offset=".059" stop-color="#0FA8E0"/><stop offset=".538" stop-color="#0099F9"/><stop offset=".923" stop-color="#0291EB"/></linearGradient><linearGradient id="spaint2_linear" x1="13.129" y1="25.488" x2="18.031" y2="24.38" gradientUnits="userSpaceOnUse"><stop offset=".123" stop-color="#A3CD39"/><stop offset=".285" stop-color="#86C339"/><stop offset=".869" stop-color="#21A038"/></linearGradient><linearGradient id="spaint3_linear" x1="13.241" y1="13.598" x2="17.432" y2="14.891" gradientUnits="userSpaceOnUse"><stop offset=".057" stop-color="#0291EB"/><stop offset=".79" stop-color="#0C8ACB"/></linearGradient><linearGradient id="spaint4_linear" x1="9.005" y1="24.035" x2="13.567" y2="25.74" gradientUnits="userSpaceOnUse"><stop offset=".132" stop-color="#F2E913"/><stop offset=".298" stop-color="#EBE716"/><stop offset=".531" stop-color="#D9E01F"/><stop offset=".802" stop-color="#BBD62D"/><stop offset=".983" stop-color="#A3CD39"/></linearGradient><linearGradient id="spaint5_linear" x1="7.469" y1="19.937" x2="9.3" y2="15.173" gradientUnits="userSpaceOnUse"><stop offset=".07" stop-color="#A3CD39"/><stop offset=".26" stop-color="#81C55F"/><stop offset=".922" stop-color="#0FA8E0"/></linearGradient><clipPath id="sclip0"><path fill="#fff" transform="translate(6 13)" d="M0 0h50.833v14.826H0z"/></clipPath></defs></svg><svg fill="none" viewBox="0 0 12 13" id="select-arrow" xmlns="http://www.w3.org/2000/svg"><g clip-path="url(#tclip0)"><path d="M11.808 3.72l-.393-.395a.652.652 0 00-.464-.192.652.652 0 00-.464.192L6.003 7.809l-4.49-4.49a.651.651 0 00-.464-.19.652.652 0 00-.464.19l-.393.394a.657.657 0 000 .929l5.345 5.364c.123.123.288.21.465.21h.002a.67.67 0 00.464-.21l5.34-5.35a.663.663 0 000-.935z" fill="#8F8F8F"/></g><defs><clipPath id="tclip0"><path fill="#fff" transform="translate(0 .672)" d="M0 0h12v12H0z"/></clipPath></defs></svg><svg viewBox="0 0 15 15" id="truck_monochromed" xmlns="http://www.w3.org/2000/svg"><path d="M12.375 9.7c-.703 0-1.275.572-1.275 1.275s.572 1.275 1.275 1.275 1.275-.572 1.275-1.275S13.078 9.7 12.375 9.7zm0 1.65a.375.375 0 110-.75.375.375 0 010 .75z" fill="#fff"/><path d="M12.253 4.4H10.05a.3.3 0 00-.3.3v5.85a.3.3 0 00.3.3h.318c.149 0 .28-.107.3-.254.117-.902.837-1.462 1.707-1.462.87 0 1.59.56 1.708 1.462.02.147.15.254.3.254h.317a.3.3 0 00.3-.3V7.625a.3.3 0 00-.07-.193l-2.447-2.925a.3.3 0 00-.23-.107zM10.35 6.8V5.3a.3.3 0 01.3-.3h1.322a.3.3 0 01.23.108l1.25 1.5a.3.3 0 01-.23.492H10.65a.3.3 0 01-.3-.3zM.3 10.85h.768c.149 0 .28-.107.3-.254.117-.902.837-1.462 1.707-1.462.87 0 1.59.56 1.708 1.462.02.147.15.254.3.254H8.85a.3.3 0 00.3-.3v-7.5a.3.3 0 00-.3-.3H.3a.3.3 0 00-.3.3v7.5a.3.3 0 00.3.3z" fill="#fff"/><path d="M3.075 9.7c-.703 0-1.275.572-1.275 1.275s.572 1.275 1.275 1.275 1.275-.572 1.275-1.275S3.778 9.7 3.075 9.7zm0 1.65a.375.375 0 110-.75.375.375 0 010 .75z" fill="#fff"/></svg><svg fill="none" viewBox="0 0 63 40" id="visa" xmlns="http://www.w3.org/2000/svg"><path d="M63 36.326c0 1.866-1.667 3.378-3.724 3.378H3.724C1.667 39.704 0 38.192 0 36.326V3.674C0 1.808 1.667.296 3.724.296h55.552C61.333.296 63 1.808 63 3.674v32.652z" fill="#fff"/><path d="M13.983 20.227l-1.48-6.436c-.252-.888-.988-1.152-1.907-1.187H3.814l-.06.294c5.281 1.162 8.777 3.964 10.229 7.33z" fill="#F79F1A"/><path d="M29.698 12.733h-4.382l-2.737 14.568h4.375l2.744-14.568zM16.654 27.286l6.892-14.543h-4.638L14.62 22.68l-.457-1.5c-.84-1.805-3.242-4.402-6.062-6.038l3.919 12.15 4.634-.005zM42.197 22.54c.016-1.655-1.155-2.916-3.678-3.958-1.533-.673-2.468-1.122-2.456-1.805 0-.603.79-1.251 2.506-1.251a8.806 8.806 0 013.276.558l.396.165.593-3.156c-.868-.295-2.226-.609-3.924-.609-4.326 0-7.371 1.975-7.399 4.807-.027 2.094 2.177 3.26 3.837 3.958 1.704.712 2.276 1.167 2.265 1.805-.011.976-1.358 1.42-2.617 1.42-1.753 0-2.682-.218-4.123-.763l-.56-.233-.615 3.264c1.022.405 2.912.76 4.875.774 4.6 0 7.59-1.95 7.624-4.977zM47.402 25.118l5.606.005c.132.507.534 2.183.534 2.183h4.061l-3.545-14.558h-3.38c-1.05 0-1.83.26-2.292 1.207l-6.503 13.351h4.601s.747-1.794.918-2.188zm3-7.055c-.021.04.364-.842.584-1.39l.296 1.255 1.012 4.208H48.66c.363-.837 1.743-4.073 1.743-4.073zM59.276.296H3.724C1.667.296 0 1.808 0 3.674V7.18h63V3.674C63 1.808 61.333.296 59.276.296z" fill="#059BBF"/><path d="M59.276 39.704H3.724C1.667 39.704 0 38.192 0 36.326V32.82h63v3.506c0 1.866-1.667 3.378-3.724 3.378z" fill="#F79F1A"/><path opacity=".15" d="M2.648 36.326V3.674c0-1.866 1.667-3.378 3.724-3.378H3.724C1.667.296 0 1.808 0 3.674v32.652c0 1.866 1.667 3.378 3.724 3.378h2.648c-2.057 0-3.724-1.512-3.724-3.378z" fill="#202121"/></svg><svg viewBox="0 0 50 50" id="warranty" xmlns="http://www.w3.org/2000/svg"><path d="M47.964 19.595L37.5 15.11V6.25a.781.781 0 00-.229-.552L33.365 1.79a.78.78 0 00-.553-.228H3.907a2.344 2.344 0 00-2.344 2.343v42.188a2.343 2.343 0 002.344 2.343h31.25a2.343 2.343 0 002.344-2.343v-1.942l4.067-2.902a16.438 16.438 0 006.87-13.353v-7.584a.781.781 0 00-.473-.718zM35.938 6.572v.458H32.03V3.125h.458l3.449 3.448zm-.782 40.302H3.906a.781.781 0 01-.781-.781V3.906a.781.781 0 01.781-.781H30.47v4.688a.781.781 0 00.781.78h4.688v6.517l-10.465 4.485a.782.782 0 00-.473.718v7.584a16.437 16.437 0 006.87 13.353l4.067 2.902v1.942a.781.781 0 01-.78.781zm11.719-18.978a14.872 14.872 0 01-6.216 12.079l-3.94 2.814-3.94-2.813a14.872 14.872 0 01-6.217-12.08v-7.07l10.157-4.352 10.156 4.352v7.07z"/><path d="M36.428 18.805l-7.812 3.125a.781.781 0 00-.491.726v4.93a13.217 13.217 0 004.984 10.371l3.121 2.5a.782.782 0 00.977 0l3.121-2.5a13.217 13.217 0 004.984-10.371v-4.93a.78.78 0 00-.49-.726l-7.813-3.125a.787.787 0 00-.58 0zm7.322 4.38v4.4a11.659 11.659 0 01-4.398 9.15l-2.633 2.109-2.634-2.11a11.66 11.66 0 01-4.398-9.148v-4.4l7.032-2.813 7.031 2.812zM5.469 15.625h21.875a.781.781 0 00.781-.781V5.469a.781.781 0 00-.781-.782H5.469a.781.781 0 00-.782.782v9.375a.781.781 0 00.782.781zM6.25 6.25h20.313v7.813H6.25V6.25zM22.656 34.375H5.47a.781.781 0 00-.782.781v9.375a.781.781 0 00.782.782h17.187a.781.781 0 00.782-.782v-9.375a.781.781 0 00-.782-.781zm-.781 9.375H6.25v-7.813h15.625v7.813zM4.688 19.531h18.75v1.563H4.688V19.53zM4.688 24.219h18.75v1.562H4.688V24.22zM4.688 28.906h18.75v1.563H4.688v-1.563z"/></svg><svg viewBox="0 0 57 50" id="washing-machine" xmlns="http://www.w3.org/2000/svg"><g clip-path="url(#xclip0)"><path d="M50.2 0H13.8a.732.732 0 00-.733.732v45.502c0 .404.328.732.732.732h.785v2.301c0 .405.327.733.732.733h33.368a.732.732 0 00.732-.733v-2.3h.785a.732.732 0 00.732-.733V32.663a.732.732 0 10-1.465 0v6.779H24.774a.732.732 0 100 1.465h24.694V45.5H47.9v-.648a2.388 2.388 0 00-2.386-2.385h-2.76a2.388 2.388 0 00-2.386 2.385v.648H14.532v-4.594h7.05a.732.732 0 100-1.465h-7.05V10.565H31.92a.732.732 0 000-1.465h-5.255V1.465h22.802V9.1H35.033a.732.732 0 100 1.465h14.435V29.55a.732.732 0 101.465 0V.732A.733.733 0 0050.201 0zm-8.367 44.853c0-.507.413-.92.92-.92h2.761c.508 0 .92.413.92.92v.648h-4.601v-.648zm6.119 2.113v1.569H16.048v-1.569h31.904zM14.532 1.465H25.2V9.1H14.53V1.465z"/><path d="M35.033 7.532h12.134a.732.732 0 00.733-.733V3.766a.732.732 0 00-.733-.733H35.033a.732.732 0 00-.732.733v3.033c0 .405.328.733.732.733zm.733-3.034h10.669v1.569h-10.67V4.498zM28.234 5.282c0 1.24 1.01 2.25 2.25 2.25s2.248-1.01 2.248-2.25-1.009-2.249-2.249-2.249a2.252 2.252 0 00-2.249 2.25zm3.033 0a.785.785 0 01-1.568 0 .785.785 0 011.568 0zM32.002 37.87c7.095 0 12.868-5.773 12.868-12.868 0-7.096-5.773-12.868-12.868-12.868-7.096 0-12.869 5.772-12.869 12.868 0 7.095 5.773 12.868 12.869 12.868zm0-24.272c6.287 0 11.403 5.116 11.403 11.404 0 6.287-5.116 11.403-11.403 11.403-6.288 0-11.404-5.116-11.404-11.403 0-6.288 5.116-11.404 11.404-11.404z"/><path d="M26.965 21.543A.732.732 0 0028 21.478a5.337 5.337 0 014.003-1.81.732.732 0 100-1.464c-1.952 0-3.811.84-5.102 2.306a.732.732 0 00.065 1.033zM16.833 3.033a.732.732 0 100 1.465.732.732 0 000-1.465zM19.866 3.033a.733.733 0 100 1.466.733.733 0 000-1.466zM22.9 3.034a.733.733 0 10.001 1.462.733.733 0 00-.002-1.462zM16.833 6.067a.732.732 0 10-.002 1.463.732.732 0 00.002-1.463zM19.87 6.067a.733.733 0 10-.008 1.465.733.733 0 00.008-1.465zM22.9 6.067A.733.733 0 1022.9 7.53a.733.733 0 00-.002-1.464zM22.115 12.866a.732.732 0 00-.732-.732h-4.55a.732.732 0 000 1.464h4.55a.732.732 0 00.732-.732z"/><path d="M22.17 25.002c0 5.42 4.411 9.83 9.832 9.83a9.773 9.773 0 004.35-1.015l.044-.022a9.824 9.824 0 005.437-8.793c0-5.476-4.438-9.79-9.754-9.83l-.077-.001c-5.405 0-9.831 4.394-9.831 9.83zm1.466.02c.56.108.929.335 1.364.603.678.418 1.445.89 2.92.89 1.476 0 2.244-.472 2.921-.89.61-.375 1.092-.672 2.153-.672 1.06 0 1.542.297 2.152.672.584.36 1.236.761 2.35.865a6.709 6.709 0 001.55 3.021 8.358 8.358 0 01-7.044 3.857c-4.607 0-8.356-3.743-8.366-8.347zm16.732-.02a8.324 8.324 0 01-.589 3.083A5.281 5.281 0 0138.8 25c0-1.125.343-2.19.98-3.084.38.955.589 1.997.589 3.086zm-8.366-8.366a12.772 12.772 0 01.142 0 8.367 8.367 0 016.9 3.854 6.728 6.728 0 00-1.71 4.503c-.591-.105-.97-.338-1.42-.615-.677-.417-1.444-.89-2.92-.89s-2.244.473-2.92.89c-.61.376-1.092.673-2.153.673-1.06 0-1.542-.297-2.152-.673-.521-.32-1.097-.675-2.008-.821.686-3.927 4.12-6.921 8.24-6.921z"/></g><rect x="7" y="15" width="23" height="23" rx="11.5" fill="#fff"/><g clip-path="url(#xclip1)"><path d="M11.836 26.133a.586.586 0 110 1.172.586.586 0 010-1.172z"/><path d="M.687 40.999l7.82-7.821a11.613 11.613 0 01-1.944-6.46C6.563 20.258 11.819 15 18.28 15S30 20.257 30 26.718c0 6.462-5.257 11.72-11.719 11.72-2.317 0-4.54-.672-6.46-1.946l-2.16 2.162h-.002l-5.658 5.66A2.328 2.328 0 012.344 45a2.328 2.328 0 01-1.657-.687A2.327 2.327 0 010 42.656c0-.626.244-1.215.687-1.657zm11.41-5.742a10.456 10.456 0 006.184 2.008c5.816 0 10.547-4.73 10.547-10.547 0-5.815-4.731-10.546-10.547-10.546-5.815 0-10.547 4.731-10.547 10.546 0 2.237.695 4.375 2.008 6.184a10.6 10.6 0 002.355 2.355zm-1.229.531a11.764 11.764 0 01-1.657-1.656L7.55 35.794c.506.597 1.06 1.151 1.657 1.657l1.662-1.663zm-9.353 7.697c.222.22.516.343.829.343.313 0 .607-.122.828-.344l5.203-5.202a15.391 15.391 0 01-1.657-1.657l-5.203 5.203a1.163 1.163 0 00-.343.828c0 .313.122.607.343.828z"/><path d="M18.281 17.343c5.17 0 9.375 4.206 9.375 9.375 0 5.17-4.205 9.375-9.375 9.375s-9.375-4.205-9.375-9.375c0-5.169 4.206-9.375 9.375-9.375zm0 17.579c4.524 0 8.203-3.68 8.203-8.203 0-4.524-3.68-8.204-8.203-8.204s-8.203 3.68-8.203 8.203c0 4.524 3.68 8.204 8.203 8.204z"/><path d="M11.715 24.203a7.032 7.032 0 012.54-3.247 6.981 6.981 0 014.026-1.269.586.586 0 110 1.172 5.9 5.9 0 00-5.472 3.765.586.586 0 11-1.094-.42z"/></g><defs><clipPath id="xclip0"><path fill="#fff" transform="translate(7)" d="M0 0h50v50H0z"/></clipPath><clipPath id="xclip1"><path fill="#fff" transform="matrix(-1 0 0 1 30 15)" d="M0 0h30v30H0z"/></clipPath></defs></svg><svg viewBox="0 0 50 50" id="wrench" xmlns="http://www.w3.org/2000/svg"><g clip-path="url(#yclip0)"><path d="M45.612 33.593a8.725 8.725 0 00-6.117-1.007L31.905 25l7.596-7.593a8.807 8.807 0 009.318-4.227 8.724 8.724 0 00.878-6.666 8.728 8.728 0 00-4.095-5.334C41.406-1.24 36.02.201 33.597 4.396a8.716 8.716 0 00-1.007 6.115L25 18.098l-.616-.616a.976.976 0 10-1.38 1.381l.615.616-4.143 4.14-7.284-7.281 4.139-4.144.457.456a.977.977 0 001.38-1.38l-.764-.765a8.797 8.797 0 00-4.229-9.314A8.786 8.786 0 004.923.906c-.873.425-1.328.976-1.351 1.636-.023.648.37 1.21 1.165 1.669L7.36 5.724c.446.257.446.382.446.609v1.122c0 .7-.07.82-.676 1.17l-.972.56c-.19.11-.305.177-.751-.081L2.784 7.591c-.796-.46-1.478-.518-2.028-.174-.56.35-.81 1.019-.742 1.988a8.78 8.78 0 004.374 7.002 8.725 8.725 0 006.117 1.006L18.095 25 10.5 32.592A8.803 8.803 0 001.18 36.82a8.725 8.725 0 00-.878 6.666 8.728 8.728 0 004.095 5.334 8.795 8.795 0 0012.004-3.215 8.716 8.716 0 001.008-6.115L25 31.902l7.596 7.593a8.797 8.797 0 004.228 9.314 8.78 8.78 0 008.253.285c.873-.425 1.328-.976 1.35-1.636.023-.648-.369-1.21-1.165-1.67l-2.621-1.512c-.446-.258-.446-.382-.446-.609v-1.122c0-.7.07-.82.675-1.17l.973-.561c.19-.11.304-.176.751.082l2.622 1.513c.795.459 1.478.518 2.028.174.56-.35.81-1.02.742-1.988a8.778 8.778 0 00-4.374-7.002zM5.364 14.715a6.828 6.828 0 01-3.393-5.338l2.458 1.418c.611.353 1.556.745 2.704.082l.973-.56C9.31 9.62 9.758 8.845 9.758 7.454V6.333c0-1.326-.812-1.948-1.423-2.3L5.877 2.613a6.835 6.835 0 019.57 7.701l-5.133 5.14a6.786 6.786 0 01-4.95-.74zm29.925-9.342c1.884-3.263 6.073-4.385 9.337-2.501A6.788 6.788 0 0147.81 7.02a6.784 6.784 0 01-.682 5.184 6.85 6.85 0 01-5.925 3.418 6.796 6.796 0 01-1.512-.171l-5.142-5.132a6.778 6.778 0 01.74-4.946zM14.71 44.627c-1.884 3.263-6.073 4.384-9.337 2.5A6.787 6.787 0 012.19 42.98a6.784 6.784 0 01.682-5.183 6.85 6.85 0 017.437-3.247l5.143 5.131a6.78 6.78 0 01-.74 4.947zm1.624-6.825l-4.146-4.137 21.477-21.468 4.146 4.137-21.477 21.468zm10.046-7.28l4.143-4.141 7.284 7.28-4.139 4.145-7.288-7.285zm19.19 8.682c-.611-.352-1.556-.744-2.704-.082l-.972.561c-1.205.696-1.653 1.471-1.653 2.862v1.122c0 1.326.812 1.948 1.423 2.3l2.458 1.419a6.835 6.835 0 01-9.57-7.702l5.133-5.14a6.787 6.787 0 014.95.74 6.828 6.828 0 013.393 5.34l-2.458-1.42z"/><path d="M37.79 11.325l2.93 1.69a.975.975 0 00.976 0l2.93-1.69a.976.976 0 00.488-.846V7.098a.976.976 0 00-.488-.846l-2.93-1.69a.976.976 0 00-.976 0l-2.93 1.69a.976.976 0 00-.488.846v3.381c0 .349.186.671.489.846zm1.465-3.663l1.953-1.127 1.953 1.127v2.253l-1.953 1.127-1.953-1.127V7.662zM12.21 38.675l-2.93-1.69a.977.977 0 00-.976 0l-2.93 1.69a.977.977 0 00-.488.846v3.38c0 .35.186.672.488.846l2.93 1.691a.975.975 0 00.976 0l2.93-1.69a.976.976 0 00.488-.846V39.52a.977.977 0 00-.489-.846zm-1.465 3.663l-1.953 1.127-1.953-1.127v-2.253l1.953-1.127 1.953 1.127v2.253zM20.586 16.043a.977.977 0 000-1.953.976.976 0 100 1.953z"/></g><defs><clipPath id="yclip0"><path fill="#fff" d="M0 0h50v50H0z"/></clipPath></defs></svg></svg>