<svg width="10" height="10" viewBox="0 0 10 10" xmlns="http://www.w3.org/2000/svg">
<g clip-path="url(#clip0)">
<path d="M7.45946 9.84017L7.7893 9.5126C7.89231 9.40951 7.94906 9.27236 7.94906 9.12577C7.94906 8.97927 7.89231 8.84195 7.7893 8.73886L4.05252 5.00224L7.79345 1.26132C7.89646 1.15839 7.95312 1.02107 7.95312 0.874567C7.95312 0.728062 7.89646 0.590663 7.79345 0.487654L7.46564 0.160009C7.25247 -0.0533262 6.90523 -0.0533262 6.69206 0.160009L2.22202 4.61403C2.11909 4.71695 2.04657 4.85411 2.04657 5.00192L2.04657 5.00362C2.04657 5.15021 2.11918 5.28737 2.22202 5.39029L6.67994 9.84017C6.78287 9.94326 6.92417 9.99984 7.07068 10C7.21726 10 7.35662 9.94326 7.45946 9.84017Z"/>
</g>
<defs>
<clipPath id="clip0">
<rect width="10" height="10" fill="white" transform="translate(10) rotate(90)"/>
</clipPath>
</defs>
</svg>
