<svg width="63" height="40" viewBox="0 0 63 40" fill="none" xmlns="http://www.w3.org/2000/svg">
<rect width="63" height="40" rx="4" fill="white"/>
<path d="M40.4544 16.8936V22.5126L44 21.165L39.0869 8.82568L19 16.8936" fill="#6F9935"/>
<path d="M41.4761 22.124V15.8716H21.544L20.0217 16.483V16.8932H40.4545V22.5122L41.4761 22.124Z" fill="#658B30"/>
<path d="M19 16.8931H40.4544V30.1744H19V16.8931Z" fill="#79A73A"/>
<path d="M21.0432 21.3425C22.1991 20.9967 23.1033 20.0924 23.4492 18.9365H36.0051C36.3509 20.0924 37.2551 20.9967 38.4111 21.3425V25.7253C37.2551 26.0711 36.3509 26.9753 36.0051 28.1313H23.5973H23.4487C23.103 26.9755 22.1989 26.0713 21.0432 25.7253V21.3425Z" fill="#AAC16B"/>
<path d="M29.7272 26.0882C31.1378 26.0882 32.2813 24.9447 32.2813 23.5341C32.2813 22.1235 31.1378 20.98 29.7272 20.98C28.3166 20.98 27.1731 22.1235 27.1731 23.5341C27.1731 24.9447 28.3166 26.0882 29.7272 26.0882Z" fill="#79A73A"/>
<path d="M40.1003 16.8933L38.8891 13.7773L38.834 13.6399C37.6325 13.7464 36.4579 13.2414 35.7088 12.2959L35.5719 12.3511L24.6189 16.8933H40.1003Z" fill="#AAC16B"/>
<path d="M27.0826 15.8716L24.6189 16.8932H40.1003L39.7034 15.8716H27.0826Z" fill="#89B140"/>
<path d="M24.1082 24.0451C24.3903 24.0451 24.6191 23.8164 24.6191 23.5343C24.6191 23.2521 24.3903 23.0234 24.1082 23.0234C23.8261 23.0234 23.5974 23.2521 23.5974 23.5343C23.5974 23.8164 23.8261 24.0451 24.1082 24.0451Z" fill="#79A73A"/>
<path d="M35.3463 24.0451C35.6284 24.0451 35.8571 23.8164 35.8571 23.5343C35.8571 23.2521 35.6284 23.0234 35.3463 23.0234C35.0641 23.0234 34.8354 23.2521 34.8354 23.5343C34.8354 23.8164 35.0641 24.0451 35.3463 24.0451Z" fill="#79A73A"/>
</svg>
