<svg width="15" height="15" viewBox="0 0 15 15" xmlns="http://www.w3.org/2000/svg">
<path
        d="M12.8033 2.19671C11.3868 0.780147 9.50332 0 7.5 0C5.49668 0 3.61324 0.780147 2.19668 2.19671C0.780117 3.61327 0 5.49668 0 7.5C0 9.50332 0.780117 11.3868 2.19668 12.8033C3.61324 14.2198 5.49668 15 7.5 15C9.50332 15 11.3868 14.2199 12.8033 12.8033C14.2199 11.3867 15 9.50332 15 7.5C15 5.49668 14.2199 3.61324 12.8033 2.19671ZM7.5 13.5279C4.17618 13.5279 1.47211 10.8238 1.47211 7.5C1.47211 7.49455 1.47229 7.48916 1.47231 7.48377C1.47231 7.48239 1.47211 7.48107 1.47211 7.4797C1.47211 7.47738 1.4724 7.47516 1.47246 7.47287C1.48708 4.1889 4.141 1.51711 7.41809 1.47316C7.42494 1.47284 7.43174 1.47214 7.43868 1.47214C7.44284 1.47214 7.44688 1.47264 7.45102 1.47275C7.46736 1.47264 7.48365 1.47214 7.50003 1.47214C10.8238 1.47214 13.5279 4.17624 13.5279 7.50003C13.5279 10.8238 10.8238 13.5279 7.5 13.5279Z" />
<path
        d="M12.0787 7.86199C11.8336 7.86199 11.6349 7.6633 11.6349 7.4182C11.6349 7.17311 11.8336 6.97441 12.0787 6.97441H12.6136C12.3624 4.51125 10.3648 2.55724 7.88243 2.37378V2.83945C7.88243 3.08455 7.68374 3.28324 7.43864 3.28324C7.19355 3.28324 6.99485 3.08455 6.99485 2.83945V2.38438C4.54927 2.62403 2.60123 4.58464 2.38083 7.03573H2.85989C3.10499 7.03573 3.30368 7.23442 3.30368 7.47952C3.30368 7.72462 3.10499 7.92331 2.85989 7.92331H2.3772C2.58125 10.4139 4.56834 12.4071 7.0562 12.6208V12.0582C7.0562 11.8131 7.25489 11.6145 7.49999 11.6145C7.74509 11.6145 7.94378 11.8131 7.94378 12.0582V12.6208C10.452 12.4053 12.4512 10.3811 12.6274 7.86199H12.0787ZM9.29647 6.331L7.81382 7.81368C7.73059 7.89691 7.61773 7.94367 7.50002 7.94367C7.38233 7.94367 7.26942 7.89691 7.18622 7.81368L4.60537 5.23283C4.43205 5.05954 4.43205 4.77855 4.60537 4.60523C4.77866 4.43191 5.05965 4.43191 5.23297 4.60523L7.50005 6.87229L8.66894 5.7034C8.84223 5.53008 9.12321 5.53008 9.29653 5.7034C9.46979 5.87669 9.4698 6.15771 9.29647 6.331Z" />
</svg>
