<svg width="10" height="10" viewBox="0 0 10 10" xmlns="http://www.w3.org/2000/svg">
<path d="M5.91616 5.00791L9.80997 1.11399C10.0634 0.860705 10.0634 0.45118 9.80997 0.197897C9.55668 -0.0553863 9.14716 -0.0553863 8.89388 0.197897L4.99995 4.09182L1.10614 0.197897C0.852741 -0.0553863 0.443335 -0.0553863 0.190052 0.197897C-0.0633506 0.45118 -0.0633506 0.860705 0.190052 1.11399L4.08386 5.00791L0.190052 8.90183C-0.0633506 9.15511 -0.0633506 9.56463 0.190052 9.81792C0.316278 9.94426 0.482247 10.0077 0.648098 10.0077C0.813948 10.0077 0.979799 9.94426 1.10614 9.81792L4.99995 5.924L8.89388 9.81792C9.02022 9.94426 9.18607 10.0077 9.35192 10.0077C9.51777 10.0077 9.68362 9.94426 9.80997 9.81792C10.0634 9.56463 10.0634 9.15511 9.80997 8.90183L5.91616 5.00791Z" />
<defs>
</defs>
</svg>
