<svg width="40" height="40" viewBox="0 0 40 40" fill="none" xmlns="http://www.w3.org/2000/svg">
<g clip-path="url(#clip0)">
<path d="M34.0938 12.8738H25.8345V27.8434H39.3667V21.1056L37.7885 15.6511C37.3127 14.0062 35.8061 12.8738 34.0938 12.8738Z" fill="#FF7058"/>
<path d="M37.391 21.0365L35.9845 16.1744C35.742 15.3386 34.9646 14.7537 34.0938 14.7537H27.7144V21.0365H37.391Z" fill="#84DBFF"/>
<path d="M37.3926 21.0341H27.7109V14.7512L37.3926 21.0341Z" fill="#CDD6E0"/>
<path d="M37.391 21.0365L35.9845 16.1744C35.742 15.3386 34.9646 14.7537 34.0938 14.7537H27.7144L37.391 21.0365Z" fill="#F2F2F2"/>
<path d="M2.49979 5.35889H23.3347C24.7146 5.35889 25.8345 6.47793 25.8345 7.85868V27.8429H0V7.85868C0 6.47801 1.11905 5.35889 2.49979 5.35889Z" fill="#FFD15C"/>
<path d="M16.932 5.36304V11.9683L15.9654 11.0017L14.9522 12.015L13.9398 11.0017L12.9274 12.015L11.9132 11.0017L10.8875 12.015L9.8759 11.0017L8.89771 11.98V5.36304H16.932Z" fill="#F2F2F2"/>
<path d="M40.0001 27.8418V30.6666H0.00341797V27.8418H4.17807C5.15299 26.092 7.02784 24.9087 9.17766 24.9087C11.3191 24.9087 13.194 26.092 14.1772 27.8418H27.6095C28.5844 26.092 30.4501 24.9087 32.5999 24.9087C34.7498 24.9087 36.6163 26.092 37.5995 27.8418H40.0001Z" fill="#334A5E"/>
<path d="M36.5918 30.6489C36.5918 32.8537 34.8045 34.6411 32.5997 34.6411C30.3948 34.6411 28.6091 32.8537 28.6091 30.6489C28.6091 28.4441 30.3956 26.6567 32.5997 26.6567C34.8053 26.6567 36.5918 28.4441 36.5918 30.6489Z" fill="#40596B"/>
<path d="M34.2047 30.6491C34.2047 31.5349 33.4864 32.2524 32.6014 32.2524C31.7157 32.2524 30.9966 31.5349 30.9966 30.6491C30.9966 29.7633 31.7149 29.0459 32.6014 29.0459C33.4864 29.0451 34.2047 29.7634 34.2047 30.6491Z" fill="#ACB3BA"/>
<path d="M13.1665 30.6489C13.1665 32.8537 11.3782 34.6411 9.17429 34.6411C6.96948 34.6411 5.18213 32.8537 5.18213 30.6489C5.18213 28.4441 6.96948 26.6567 9.17429 26.6567C11.3782 26.6567 13.1665 28.4441 13.1665 30.6489Z" fill="#40596B"/>
<path d="M10.7775 30.6491C10.7775 31.5349 10.0601 32.2524 9.17432 32.2524C8.28853 32.2524 7.57031 31.5349 7.57031 30.6491C7.57031 29.7633 8.28861 29.0459 9.17432 29.0459C10.06 29.0459 10.7775 29.7634 10.7775 30.6491Z" fill="#ACB3BA"/>
</g>
<defs>
<clipPath id="clip0">
<rect width="40" height="40" fill="white"/>
</clipPath>
</defs>
</svg>
