<svg width="50" height="50" viewBox="0 0 50 50" xmlns="http://www.w3.org/2000/svg">
<path d="M7.16797 44.3456C7.16797 44.663 7.26211 44.9733 7.43847 45.2373C7.61484 45.5012 7.86552 45.707 8.15881 45.8285C8.4521 45.9499 8.77483 45.9817 9.08618 45.9198C9.39754 45.8579 9.68353 45.705 9.90801 45.4805C10.1325 45.256 10.2854 44.97 10.3473 44.6587C10.4092 44.3473 10.3774 44.0246 10.2559 43.7313C10.1345 43.438 9.92873 43.1873 9.66478 43.011C9.40083 42.8346 9.0905 42.7405 8.77305 42.7405C8.3475 42.7409 7.93951 42.9102 7.6386 43.2111C7.33769 43.512 7.16843 43.92 7.16797 44.3456ZM9.20625 44.3456C9.20625 44.4312 9.18084 44.515 9.13324 44.5862C9.08564 44.6575 9.01798 44.713 8.93883 44.7458C8.85967 44.7786 8.77257 44.7871 8.68853 44.7704C8.6045 44.7537 8.52731 44.7125 8.46673 44.6519C8.40614 44.5913 8.36488 44.5141 8.34817 44.4301C8.33145 44.346 8.34003 44.2589 8.37282 44.1798C8.40561 44.1006 8.46113 44.033 8.53237 43.9854C8.60361 43.9378 8.68737 43.9124 8.77305 43.9124C8.88781 43.9126 8.9978 43.9583 9.07891 44.0395C9.16002 44.1207 9.20563 44.2308 9.20576 44.3456H9.20625Z" fill="black"/>
<path d="M44.1235 2.96016C44.0749 2.8626 43.9999 2.78059 43.9071 2.72343C43.8143 2.66627 43.7073 2.63623 43.5984 2.63672H17.2809C17.1719 2.63623 17.0649 2.66627 16.9721 2.72343C16.8793 2.78059 16.8044 2.8626 16.7558 2.96016L13.3321 9.87501C13.2366 9.98302 13.1838 10.1222 13.1836 10.2664V31.0268C12.6631 31.3408 12.2254 31.775 11.9071 32.293C11.5888 32.811 11.3993 33.3976 11.3543 34.0039C11.0266 34.2538 10.6576 34.4441 10.264 34.5661L10.2621 34.5517C10.204 34.3602 10.0861 34.1923 9.92573 34.0726C9.76532 33.953 9.57082 33.8878 9.3707 33.8867H3.25058C3.10638 33.8873 2.96425 33.9212 2.83527 33.9857C2.70628 34.0502 2.59392 34.1435 2.5069 34.2585C2.41989 34.3735 2.36058 34.5071 2.33359 34.6487C2.30659 34.7904 2.31264 34.9364 2.35126 35.0753L5.58486 46.6821C5.64012 46.8782 5.75789 47.0508 5.92025 47.1737C6.08262 47.2967 6.2807 47.3632 6.48437 47.3633H12.96C13.1057 47.3638 13.2494 47.3302 13.3797 47.265C13.51 47.1998 13.6232 47.1049 13.7101 46.9879C13.797 46.871 13.8552 46.7353 13.88 46.5917C13.9048 46.4481 13.8955 46.3008 13.8529 46.1614L13.01 43.3978L16.0627 41.4683C16.4559 41.2519 16.9166 41.1927 17.3518 41.3028C17.3693 41.3072 17.3871 41.3109 17.405 41.3137L22.795 42.1472C24.3436 42.387 25.9266 42.054 27.2474 41.2106L37.8042 34.4727H47.0972C47.2455 34.4727 47.3877 34.4138 47.4925 34.3089C47.5974 34.2041 47.6563 34.0619 47.6563 33.9136V10.4595C47.7013 10.3159 47.6892 10.1605 47.6224 10.0257L44.1235 2.96016ZM31.0547 3.8086H43.2346L46.1376 9.66797H31.0547V3.8086ZM30.4395 10.8716C30.5038 10.8715 30.5676 10.8607 30.6284 10.8398H34.5703V15.0391H26.6602V10.8398H30.2506C30.3114 10.8607 30.3752 10.8715 30.4395 10.8716ZM6.66523 46.1914L3.56445 35.0586H9.17969L12.5977 46.1914H6.66523ZM26.6169 40.2426C25.5351 40.9294 24.2401 41.1982 22.9743 40.9987L17.6097 40.1642C16.8879 39.9883 16.1263 40.0922 15.478 40.4551C15.4689 40.4603 15.4599 40.4648 15.451 40.4699L12.6522 42.2386L10.6116 35.6738C11.2428 35.4736 11.8247 35.1428 12.3195 34.7029C12.3808 34.6523 12.4302 34.5888 12.4641 34.5169C12.498 34.4451 12.5157 34.3666 12.5158 34.2871C12.5166 33.938 12.5864 33.5924 12.7211 33.2703C12.8557 32.9481 13.0526 32.6557 13.3005 32.4099C13.5484 32.164 13.8424 31.9695 14.1657 31.8375C14.4889 31.7055 14.835 31.6386 15.1842 31.6406H15.3672C15.9385 31.6375 16.5019 31.5072 17.0164 31.2591C17.531 31.011 17.9838 30.6513 18.342 30.2063L20.6634 27.3492C20.8872 27.071 21.2073 26.8869 21.5604 26.8335C21.9135 26.7801 22.2737 26.8612 22.5698 27.0607L22.6089 27.0841C22.9112 27.2864 23.1295 27.5919 23.2229 27.9434C23.3164 28.295 23.2786 28.6685 23.1167 28.9942C22.189 30.8385 20.8094 33.5841 20.8094 33.5841C20.7645 33.6769 20.7433 33.7794 20.7477 33.8824C20.752 33.9854 20.7818 34.0857 20.8343 34.1744C20.8857 34.2619 20.9583 34.3351 21.0454 34.3872C21.1326 34.4394 21.2314 34.4687 21.3328 34.4727H35.6893L26.6169 40.2426ZM26.9531 33.3008V27.7051L27.3407 28.1105C27.3952 28.1676 27.4606 28.2132 27.533 28.2445C27.6054 28.2759 27.6833 28.2924 27.7622 28.2931C27.841 28.2932 27.919 28.2778 27.9917 28.2476C28.0645 28.2175 28.1305 28.1732 28.186 28.1173L29.208 27.0758L30.2167 28.1152C30.2713 28.1715 30.3367 28.2163 30.4089 28.2469C30.4812 28.2774 30.5588 28.2932 30.6373 28.2932C30.7157 28.2932 30.7933 28.2774 30.8656 28.2469C30.9378 28.2163 31.0032 28.1715 31.0578 28.1152L32.0664 27.076L33.0881 28.1175C33.1434 28.1735 33.2093 28.2179 33.2819 28.2481C33.3546 28.2783 33.4326 28.2936 33.5112 28.2933C33.587 28.2924 33.6618 28.2757 33.7307 28.2443C33.7997 28.2129 33.8613 28.1674 33.9116 28.1107L34.2774 27.7051V33.3008H26.9531ZM46.4844 33.3008H35.4492V26.2365C35.4536 26.1209 35.4224 26.0066 35.3598 25.9093C35.2972 25.8119 35.2062 25.7361 35.0992 25.6921C34.9921 25.6481 34.8741 25.6381 34.7612 25.6633C34.6482 25.6885 34.5457 25.7478 34.4675 25.8331L33.4946 26.863L32.4805 25.8428C32.4256 25.7895 32.3604 25.7479 32.2889 25.7205C32.2174 25.6932 32.1411 25.6806 32.0647 25.6836H32.0631C31.986 25.6807 31.9091 25.6935 31.8371 25.7212C31.765 25.749 31.6994 25.791 31.6441 25.8449L30.6383 26.8737L29.6324 25.8491C29.5774 25.7946 29.5119 25.7519 29.4399 25.7234C29.3679 25.695 29.2909 25.6814 29.2135 25.6836H29.2119C29.1351 25.6806 29.0584 25.6931 28.9865 25.7205C28.9147 25.7478 28.8491 25.7894 28.7937 25.8428L27.7766 26.8713L26.7989 25.8372C26.7184 25.7515 26.6139 25.6918 26.4991 25.666C26.3843 25.6402 26.2644 25.6493 26.1549 25.6923C26.0454 25.7353 25.9512 25.8101 25.8846 25.9071C25.818 26.0041 25.782 26.1189 25.7813 26.2365V33.3008H22.2829C22.7647 32.3242 23.5599 30.7397 24.1634 29.5395C24.453 28.9569 24.5213 28.289 24.3556 27.6599C24.19 27.0308 23.8015 26.4832 23.2625 26.1189L23.2234 26.0878C22.6863 25.7228 22.0317 25.5729 21.3893 25.6678C20.7469 25.7627 20.1635 26.0954 19.7549 26.6001L17.4336 29.4668C17.1851 29.7767 16.8707 30.0274 16.5133 30.2007C16.1559 30.374 15.7644 30.4655 15.3672 30.4688H15.1842C14.9055 30.4689 14.6277 30.4991 14.3555 30.5587V10.8398H17.9688C18.1242 10.8398 18.2732 10.7781 18.3831 10.6682C18.493 10.5583 18.5547 10.4093 18.5547 10.2539C18.5547 10.0985 18.493 9.94948 18.3831 9.83959C18.2732 9.72971 18.1242 9.66797 17.9688 9.66797H14.7416L17.6446 3.8086H29.8828V9.66797H21.875C21.7196 9.66797 21.5706 9.72971 21.4607 9.83959C21.3508 9.94948 21.2891 10.0985 21.2891 10.2539C21.2891 10.4093 21.3508 10.5583 21.4607 10.6682C21.5706 10.7781 21.7196 10.8398 21.875 10.8398H25.4883V15.6039C25.4871 15.7613 25.5475 15.913 25.6567 16.0264C25.7658 16.1398 25.915 16.2061 26.0724 16.2109H35.2024C35.526 16.2109 35.7422 15.9277 35.7422 15.6039V10.8398H46.4844V33.3008Z" fill="black"/>
<path d="M17.1875 13.0627C17.0321 13.0627 16.8831 13.1245 16.7732 13.2344C16.6633 13.3442 16.6016 13.4933 16.6016 13.6487V14.2639C16.6016 14.4193 16.6633 14.5684 16.7732 14.6782C16.8831 14.7881 17.0321 14.8499 17.1875 14.8499C17.3429 14.8499 17.4919 14.7881 17.6018 14.6782C17.7117 14.5684 17.7734 14.4193 17.7734 14.2639V13.6487C17.7734 13.4933 17.7117 13.3442 17.6018 13.2344C17.4919 13.1245 17.3429 13.0627 17.1875 13.0627Z" fill="black"/>
<path d="M17.1875 15.533C17.0321 15.533 16.8831 15.5947 16.7732 15.7046C16.6633 15.8145 16.6016 15.9635 16.6016 16.1189V22.5642C16.6016 22.7196 16.6633 22.8686 16.7732 22.9785C16.8831 23.0884 17.0321 23.1501 17.1875 23.1501C17.3429 23.1501 17.4919 23.0884 17.6018 22.9785C17.7117 22.8686 17.7734 22.7196 17.7734 22.5642V16.1189C17.7734 15.9635 17.7117 15.8145 17.6018 15.7046C17.4919 15.5947 17.3429 15.533 17.1875 15.533Z" fill="black"/>
</svg>
