<svg width="45" height="45" viewBox="0 0 45 45"  xmlns="http://www.w3.org/2000/svg">
<path d="M7.9403 21.591C8.0722 21.7228 8.25105 21.7968 8.43752 21.7968C8.624 21.7968 8.80284 21.7228 8.93474 21.591L11.9531 18.5725V39.375C11.9532 39.5615 12.0272 39.7403 12.1591 39.8722C12.291 40.004 12.4698 40.0781 12.6563 40.0781H32.3438C32.5302 40.0781 32.7091 40.004 32.8409 39.8722C32.9728 39.7403 33.0469 39.5615 33.0469 39.375V18.5725L36.0653 21.591C36.1972 21.7228 36.376 21.7968 36.5625 21.7968C36.749 21.7968 36.9278 21.7228 37.0597 21.591L43.3879 15.2628C43.5197 15.131 43.5938 14.9521 43.5938 14.7656C43.5938 14.5791 43.5197 14.4003 43.3879 14.2684L34.2472 5.12778C34.1154 4.99594 33.9365 4.92188 33.75 4.92188H11.25C11.0635 4.92188 10.8847 4.99594 10.7528 5.12778L1.61218 14.2684C1.48032 14.4003 1.40625 14.5791 1.40625 14.7656C1.40625 14.9521 1.48032 15.131 1.61218 15.2628L7.9403 21.591ZM13.3594 23.5416C14.2962 24.236 15.4316 24.6104 16.5977 24.6094H18.1469C18.3494 24.6094 18.5498 24.6493 18.7368 24.7268C18.9239 24.8043 19.0938 24.9179 19.2368 25.0611C19.3799 25.2043 19.4933 25.3743 19.5707 25.5614C19.648 25.7485 19.6877 25.949 19.6875 26.1514C19.6865 26.6577 19.8108 27.1563 20.0495 27.6028C20.2882 28.0493 20.6337 28.4297 21.0553 28.71C21.2836 28.8619 21.4708 29.0679 21.6002 29.3097C21.7296 29.5514 21.7972 29.8215 21.7969 30.0957V31.0902C21.7983 31.6184 21.695 32.1417 21.4928 32.6297C21.2907 33.1177 20.9938 33.5608 20.6192 33.9333C20.4548 34.0986 20.2592 34.2297 20.0438 34.3189C19.8284 34.4082 19.5974 34.4538 19.3642 34.4531C18.6964 34.4525 18.0454 34.6623 17.5036 35.0528C16.9618 35.4433 16.5569 35.9945 16.3463 36.6282L15.6651 38.6719H13.3594V23.5416ZM24.6094 38.6719V38.6167C24.6083 37.5136 25.0455 36.4552 25.8247 35.6744C26.6039 34.8936 27.6614 34.4543 28.7645 34.4531C29.7786 34.454 30.7735 34.1763 31.6406 33.6504V38.6719H24.6094ZM31.6406 29.5312H27.8941C27.5825 29.5309 27.2837 29.4069 27.0634 29.1866C26.8431 28.9663 26.7191 28.6676 26.7188 28.356C26.7209 27.733 26.5484 27.1219 26.2209 26.592C25.8934 26.062 25.4239 25.6344 24.8658 25.3577C24.5938 25.2218 24.3624 25.0168 24.1946 24.7632C24.0268 24.5097 23.9285 24.2166 23.9096 23.9131C23.8907 23.6097 23.9519 23.3066 24.0869 23.0342C24.222 22.7618 24.4262 22.5297 24.6792 22.361C25.0907 22.0873 25.428 21.7161 25.6612 21.2804C25.8944 20.8446 26.0162 20.358 26.0156 19.8638C26.0159 19.6306 26.1086 19.4071 26.2735 19.2422C26.4384 19.0774 26.6619 18.9846 26.8951 18.9844H27.6815C28.0532 18.984 28.4142 19.108 28.7071 19.3367C29.0001 19.5654 29.208 19.8855 29.2977 20.2462C29.408 20.6894 29.6634 21.0829 30.0234 21.3639C30.3834 21.645 30.8271 21.7974 31.2838 21.7969H31.6406V29.5312ZM25.9449 6.32812C25.7827 7.12211 25.3513 7.83571 24.7236 8.3482C24.0959 8.8607 23.3104 9.14062 22.5 9.14062C21.6896 9.14062 20.9042 8.8607 20.2764 8.3482C19.6487 7.83571 19.2173 7.12211 19.0551 6.32812H25.9449ZM11.5412 6.32812H17.6292C17.7981 7.49949 18.3835 8.57074 19.2781 9.34556C20.1727 10.1204 21.3165 10.5469 22.5 10.5469C23.6835 10.5469 24.8274 10.1204 25.7219 9.34556C26.6165 8.57074 27.2019 7.49949 27.3709 6.32812H33.4588L41.8963 14.7656L36.5625 20.0994L32.841 16.3778C32.7426 16.2795 32.6174 16.2125 32.481 16.1854C32.3446 16.1583 32.2032 16.1722 32.0747 16.2254C31.9462 16.2786 31.8364 16.3688 31.7592 16.4844C31.6819 16.6 31.6407 16.7359 31.6406 16.875V20.3906H31.2838C31.1408 20.3908 31.0019 20.3431 30.8892 20.2551C30.7765 20.1671 30.6965 20.0439 30.662 19.9052C30.4965 19.2401 30.1131 18.6496 29.5729 18.2278C29.0327 17.8061 28.3669 17.5773 27.6815 17.5781H26.8951C26.2891 17.5788 25.7081 17.8198 25.2796 18.2483C24.8511 18.6768 24.6101 19.2578 24.6094 19.8638C24.6097 20.1264 24.545 20.3851 24.421 20.6166C24.2971 20.8482 24.1178 21.0455 23.8991 21.191C23.4412 21.4963 23.0715 21.9165 22.8271 22.4095C22.5826 22.9026 22.4719 23.4512 22.5061 24.0005C22.5403 24.5497 22.7181 25.0804 23.0219 25.5393C23.3256 25.9983 23.7446 26.3694 24.2368 26.6155C24.5608 26.7761 24.8334 27.0243 25.0235 27.3319C25.2136 27.6396 25.3138 27.9943 25.3125 28.356C25.3133 29.0404 25.5855 29.6966 26.0695 30.1805C26.5534 30.6645 27.2096 30.9367 27.8941 30.9375H31.6406V31.9675L31.0675 32.3496C30.3858 32.805 29.5842 33.0477 28.7645 33.0469C27.2884 33.048 25.8732 33.6355 24.8303 34.68C23.7874 35.7246 23.2021 37.1406 23.2031 38.6167V38.6719H17.1475L17.6805 37.0729C17.7979 36.7194 18.0239 36.4118 18.3261 36.1939C18.6284 35.9761 18.9916 35.859 19.3642 35.8594C19.7821 35.8605 20.1961 35.7788 20.5822 35.6188C20.9684 35.4589 21.3189 35.224 21.6136 34.9277C22.1192 34.4249 22.5199 33.8268 22.7928 33.1681C23.0656 32.5094 23.2051 31.8032 23.2031 31.0902V30.0957C23.2037 29.5899 23.0791 29.0919 22.8404 28.6459C22.6018 28.2 22.2565 27.8201 21.8353 27.54C21.6068 27.388 21.4195 27.1817 21.2901 26.9397C21.1606 26.6976 21.0932 26.4273 21.0938 26.1528C21.0941 25.7656 21.0182 25.3821 20.8703 25.0242C20.7223 24.6664 20.5053 24.3412 20.2317 24.0672C19.958 23.7933 19.633 23.576 19.2753 23.4277C18.9176 23.2794 18.5342 23.2031 18.1469 23.2031H16.5977C15.968 23.2036 15.347 23.0564 14.7845 22.7732C14.2221 22.49 13.734 22.0788 13.3594 21.5726V16.875C13.3594 16.7359 13.3181 16.6 13.2409 16.4844C13.1636 16.3688 13.0538 16.2786 12.9253 16.2254C12.7968 16.1722 12.6555 16.1583 12.5191 16.1854C12.3827 16.2125 12.2574 16.2795 12.1591 16.3778L8.43752 20.0994L3.10375 14.7656L11.5412 6.32812Z"/>
<path d="M15.6711 18.487L17.7802 16.3779L18.7745 17.3722L16.6654 19.4813L15.6711 18.487Z"/>
<path d="M17.78 19.8933L19.8891 17.7843L20.8834 18.7785L18.7743 20.8876L17.78 19.8933Z"/>
<path d="M22.1162 13.9493L22.8967 12.7793L25.0059 14.1863L24.2254 15.3563L22.1162 13.9493Z"/>
<path d="M24.2847 12.5901L24.9133 11.3329L26.3189 12.0357L25.6903 13.2929L24.2847 12.5901Z"/>
<path d="M7.75684 13.8981L8.46131 11.086L9.82529 11.4277L9.12081 14.2398L7.75684 13.8981Z"/>
<path d="M10.5708 13.195L11.2753 10.3829L12.6393 10.7246L11.9348 13.5367L10.5708 13.195Z"/>
<path d="M33.7939 12.8904L35.1286 12.446L35.8312 14.556L34.4966 15.0004L33.7939 12.8904Z"/>
<path d="M36.6074 12.8911L37.942 12.4467L38.6446 14.5567L37.31 15.0011L36.6074 12.8911Z"/>
</svg>
