<svg width="40" height="40" viewBox="0 0 40 40" fill="none" xmlns="http://www.w3.org/2000/svg">
<g clip-path="url(#clip0)">
<path d="M7.70203 23.2432L0.234375 34.1343L7.44446 32.7897L8.78906 40.0001L15.8786 29.6604L7.70203 23.2432Z" fill="#F57F41"/>
<path d="M32.2952 23.2432L24.1187 29.6604L31.2085 40.0001L32.5528 32.7897L39.7629 34.1343L32.2952 23.2432Z" fill="#EA623C"/>
<path d="M19.9985 0C11.1164 0 3.89014 7.22656 3.89014 16.1096C3.89014 24.9924 11.1164 32.2189 19.9985 32.2189C28.881 32.2189 36.1075 24.9924 36.1075 16.1093C36.1075 7.22656 28.881 0 19.9985 0V0Z" fill="#FFE07F"/>
<path d="M19.9985 0V32.2189C28.881 32.2189 36.1075 24.9924 36.1075 16.1093C36.1075 7.22656 28.881 0 19.9985 0V0Z" fill="#FFD23A"/>
<path d="M17.1271 22.9815L11.6272 17.4813L13.2941 15.8145L17.1271 19.6475L26.7032 10.071L28.3701 11.7379L17.1271 22.9815Z" fill="#1D608B"/>
<path d="M19.9985 20.1171L28.3701 11.7379L26.7032 10.071L19.9985 16.7758V20.1171Z" fill="#0D3954"/>
</g>
<defs>
<clipPath id="clip0">
<rect width="40" height="40" fill="white"/>
</clipPath>
</defs>
</svg>
