<svg width="50" height="50" viewBox="0 0 50 50" fill="none" xmlns="http://www.w3.org/2000/svg">
<g clip-path="url(#clip0)">
<path d="M10.3448 50H8.62065C8.14458 50 7.75854 49.614 7.75854 49.1379V47.4138H11.2068V49.1379C11.2069 49.614 10.8209 50 10.3448 50Z" fill="#AFB9D2"/>
<path d="M41.3792 50H39.6551C39.179 50 38.793 49.614 38.793 49.1379V47.4138H42.2412V49.1379C42.2413 49.614 41.8553 50 41.3792 50Z" fill="#AFB9D2"/>
<path d="M41.3792 48.2759H8.62061C7.66836 48.2759 6.89648 47.504 6.89648 46.5518V1.72412C6.89648 0.771875 7.66836 0 8.62061 0H41.3792C42.3314 0 43.1033 0.771875 43.1033 1.72412V46.5518C43.1033 47.504 42.3314 48.2759 41.3792 48.2759Z" fill="#E4EAF6"/>
<path d="M6.89648 1.72412V10.3448H43.1034V1.72412C43.1033 0.771875 42.3313 0 41.3792 0H8.62061C7.66846 0 6.89648 0.771875 6.89648 1.72412Z" fill="#D7DEED"/>
<path d="M21.5518 0V5.17246C21.5518 7.07685 23.0956 8.6207 25 8.6207C26.9044 8.6207 28.4482 7.07685 28.4482 5.17246V0H21.5518Z" fill="#AFB9D2"/>
<path d="M25.0001 38.793C32.1418 38.793 37.9312 33.0036 37.9312 25.862C37.9312 18.7203 32.1418 12.9309 25.0001 12.9309C17.8585 12.9309 12.0691 18.7203 12.0691 25.862C12.0691 33.0036 17.8585 38.793 25.0001 38.793Z" fill="#C7CFE2"/>
<path d="M25 6.89649C25.9522 6.89649 26.7241 6.12457 26.7241 5.17236C26.7241 4.22016 25.9522 3.44824 25 3.44824C24.0478 3.44824 23.2759 4.22016 23.2759 5.17236C23.2759 6.12457 24.0478 6.89649 25 6.89649Z" fill="#707487"/>
<path d="M31.8965 6.89658C31.4205 6.89658 31.0344 6.51054 31.0344 6.03447V4.31035C31.0344 3.83428 31.4205 3.44824 31.8965 3.44824C32.3726 3.44824 32.7586 3.83428 32.7586 4.31035V6.03447C32.7585 6.51054 32.3726 6.89658 31.8965 6.89658Z" fill="white"/>
<path d="M35.3448 6.89658C34.8687 6.89658 34.4827 6.51054 34.4827 6.03447V4.31035C34.4827 3.83428 34.8687 3.44824 35.3448 3.44824C35.8208 3.44824 36.2069 3.83428 36.2069 4.31035V6.03447C36.2069 6.51054 35.8208 6.89658 35.3448 6.89658Z" fill="#FFF08C"/>
<path d="M38.793 6.89658C38.3169 6.89658 37.9309 6.51054 37.9309 6.03447V4.31035C37.9309 3.83428 38.3169 3.44824 38.793 3.44824C39.2691 3.44824 39.6551 3.83428 39.6551 4.31035V6.03447C39.6551 6.51054 39.2691 6.89658 38.793 6.89658Z" fill="#E4EAF6"/>
<path d="M24.9999 34.4829C29.7609 34.4829 33.6206 30.6232 33.6206 25.8622C33.6206 21.1011 29.7609 17.2415 24.9999 17.2415C20.2388 17.2415 16.3792 21.1011 16.3792 25.8622C16.3792 30.6232 20.2388 34.4829 24.9999 34.4829Z" fill="#00C8F0"/>
<path d="M24.9999 19.8274C29.3203 19.8274 32.8877 23.009 33.5132 27.155C33.577 26.7321 33.6206 26.3025 33.6206 25.8619C33.6206 21.1008 29.761 17.2412 24.9999 17.2412C20.2387 17.2412 16.3792 21.1008 16.3792 25.8619C16.3792 26.3025 16.4227 26.7321 16.4865 27.155C17.112 23.0091 20.6794 19.8274 24.9999 19.8274Z" fill="#00AFE1"/>
<path d="M31.8965 39.6552H40.5172C40.9933 39.6552 41.3793 40.0412 41.3793 40.5173V45.6897C41.3793 46.1658 40.9933 46.5518 40.5172 46.5518H31.8965C31.4205 46.5518 31.0344 46.1658 31.0344 45.6897V40.5173C31.0344 40.0412 31.4205 39.6552 31.8965 39.6552Z" fill="#D7DEED"/>
<path d="M18.1034 8.6207H9.48271C9.00664 8.6207 8.62061 8.23467 8.62061 7.75859V2.58623C8.62061 2.11016 9.00664 1.72412 9.48271 1.72412H18.1034C18.5795 1.72412 18.9655 2.11016 18.9655 2.58623V7.75869C18.9655 8.23467 18.5795 8.6207 18.1034 8.6207Z" fill="#C7CFE2"/>
<path d="M15.5171 6.89648H12.0689C11.5928 6.89648 11.2068 7.28252 11.2068 7.75859V8.6207H16.3792V7.75859C16.3792 7.28242 15.9932 6.89648 15.5171 6.89648Z" fill="#AFB9D2"/>
<path d="M29.3106 29.2229C29.5283 29.2229 29.7459 29.3045 29.9138 29.4691C30.2539 29.8021 30.2598 30.348 29.9264 30.6881C29.3547 31.2719 28.6919 31.7452 27.9556 32.0945C27.5275 32.2995 27.0115 32.1151 26.8074 31.6853C26.6032 31.2551 26.7864 30.7412 27.2166 30.5371C27.7684 30.2752 28.2655 29.92 28.6949 29.4818C28.8635 29.3095 29.0872 29.2229 29.3106 29.2229Z" fill="#00EBFF"/>
<path d="M19.8258 28.1085C20.1184 28.1085 20.4033 28.2572 20.565 28.5256C21.3723 29.8662 22.7193 30.7616 24.2604 30.9822C24.7319 31.0495 25.0593 31.4861 24.9915 31.9574C24.9242 32.4289 24.483 32.7551 24.0162 32.6886C21.96 32.3947 20.1639 31.2014 19.0884 29.4155C18.8426 29.0075 18.9742 28.4777 19.3819 28.2323C19.521 28.1481 19.6742 28.1085 19.8258 28.1085Z" fill="#00DCFF"/>
<path d="M24.9999 15.5173C19.2866 15.5173 14.655 20.1489 14.655 25.8622C14.655 31.5754 19.2866 36.207 24.9999 36.207C30.7131 36.207 35.3447 31.5754 35.3447 25.8622C35.3447 20.1489 30.7131 15.5173 24.9999 15.5173ZM24.9999 34.4828C20.2387 34.4828 16.3792 30.6232 16.3792 25.8621C16.3792 21.1009 20.2387 17.2414 24.9999 17.2414C28.8759 17.2414 32.1541 19.7997 33.239 23.3196C32.4707 23.4935 31.8964 24.1791 31.8964 25V26.7241C31.8964 27.545 32.4707 28.2305 33.239 28.4044C32.1541 31.9245 28.8759 34.4828 24.9999 34.4828Z" fill="#959CB3"/>
</g>
<defs>
<clipPath id="clip0">
<rect width="50" height="50" fill="white"/>
</clipPath>
</defs>
</svg>
