<svg width="192" height="60" viewBox="0 0 192 60" fill="none" xmlns="http://www.w3.org/2000/svg">
<path d="M69.75 27H66V17.875C64.5938 18.375 63.3385 18.7344 62.2344 18.9531C61.1406 19.1719 60.0365 19.2812 58.9219 19.2812C56.7656 19.2812 55.099 18.776 53.9219 17.7656C52.7552 16.7448 52.1719 15.3021 52.1719 13.4375V4.15625H55.9219V12.5625C55.9219 13.75 56.2135 14.6354 56.7969 15.2188C57.3906 15.8021 58.3594 16.0938 59.7031 16.0938C60.6927 16.0938 61.6562 16.0052 62.5938 15.8281C63.5312 15.6406 64.6667 15.3229 66 14.875V4.15625H69.75V27ZM82.9219 27.3125C80.2344 27.3125 78.1302 26.5312 76.6094 24.9688C75.099 23.3958 74.3438 21.2344 74.3438 18.4844C74.3438 15.6615 75.0469 13.4427 76.4531 11.8281C77.8594 10.2135 79.7917 9.40625 82.25 9.40625C84.5312 9.40625 86.3333 10.099 87.6562 11.4844C88.9792 12.8698 89.6406 14.776 89.6406 17.2031V19.1875H78.125C78.1771 20.8646 78.6302 22.1562 79.4844 23.0625C80.3385 23.9583 81.5417 24.4062 83.0938 24.4062C84.1146 24.4062 85.0625 24.3125 85.9375 24.125C86.8229 23.9271 87.7708 23.6042 88.7812 23.1562V26.1406C87.8854 26.5677 86.9792 26.8698 86.0625 27.0469C85.1458 27.224 84.099 27.3125 82.9219 27.3125ZM82.25 12.1875C81.0833 12.1875 80.1458 12.5573 79.4375 13.2969C78.7396 14.0365 78.3229 15.1146 78.1875 16.5312H86.0312C86.0104 15.1042 85.6667 14.026 85 13.2969C84.3333 12.5573 83.4167 12.1875 82.25 12.1875ZM100.781 27.3125C98.1667 27.3125 96.1771 26.5521 94.8125 25.0312C93.4583 23.5 92.7812 21.3073 92.7812 18.4531C92.7812 15.5469 93.4896 13.3125 94.9062 11.75C96.3333 10.1875 98.3906 9.40625 101.078 9.40625C102.901 9.40625 104.542 9.74479 106 10.4219L104.891 13.375C103.339 12.7708 102.057 12.4688 101.047 12.4688C98.0573 12.4688 96.5625 14.4531 96.5625 18.4219C96.5625 20.3594 96.9323 21.8177 97.6719 22.7969C98.4219 23.7656 99.5156 24.25 100.953 24.25C102.589 24.25 104.135 23.8438 105.594 23.0312V26.2344C104.938 26.6198 104.234 26.8958 103.484 27.0625C102.745 27.2292 101.844 27.3125 100.781 27.3125ZM122.641 9.71875V12.5938H117.016V27H113.328V12.5938H107.703V9.71875H122.641ZM129.641 9.71875V16.6562H137.781V9.71875H141.453V27H137.781V19.5469H129.641V27H125.969V9.71875H129.641ZM150.391 16.625H153.891C156.307 16.625 158.094 17.0417 159.25 17.875C160.406 18.7083 160.984 19.9583 160.984 21.625C160.984 23.4062 160.38 24.75 159.172 25.6562C157.974 26.5521 156.214 27 153.891 27H146.719V9.71875H150.391V16.625ZM157.344 21.7188C157.344 20.8542 157.021 20.25 156.375 19.9062C155.74 19.5625 154.823 19.3906 153.625 19.3906H150.391V24.2812H153.156C154.635 24.2812 155.703 24.0729 156.359 23.6562C157.016 23.2396 157.344 22.5938 157.344 21.7188ZM167.391 27H163.703V9.71875H167.391V27ZM176.172 9.71875V18.5781C176.172 19.6094 176.089 21.125 175.922 23.125L184.594 9.71875H189.078V27H185.547V18.2969C185.547 17.8177 185.573 17.0417 185.625 15.9688C185.688 14.8958 185.74 14.1146 185.781 13.625L177.141 27H172.656V9.71875H176.172ZM180.75 7.60938C178.542 7.60938 176.922 7.21354 175.891 6.42188C174.87 5.61979 174.302 4.28646 174.188 2.42188H177.516C177.578 3.17188 177.719 3.75521 177.938 4.17188C178.167 4.58854 178.49 4.89062 178.906 5.07812C179.333 5.25521 179.979 5.34375 180.844 5.34375C181.865 5.34375 182.641 5.11979 183.172 4.67188C183.703 4.21354 184.026 3.46354 184.141 2.42188H187.531C187.375 4.21354 186.745 5.52604 185.641 6.35938C184.536 7.19271 182.906 7.60938 180.75 7.60938ZM60.5493 50.7344L60.9883 49.4175L61.5972 47.7466L65.8027 37.5088H68.7905V53H66.709V40.1851L66.4258 41.0063L65.6045 43.1729L61.5972 53H59.6289L55.6216 43.1445C55.1213 41.8796 54.7767 40.8931 54.5879 40.1851V53H52.4922V37.5088H55.3667L59.4307 47.3501C59.8366 48.3885 60.2095 49.5166 60.5493 50.7344ZM83.3613 53L82.894 50.791H82.7808C82.0067 51.7633 81.2326 52.4242 80.4585 52.7734C79.6938 53.1133 78.7357 53.2832 77.584 53.2832C76.0452 53.2832 74.8369 52.8867 73.959 52.0938C73.0905 51.3008 72.6562 50.1727 72.6562 48.7095C72.6562 45.5754 75.1626 43.9328 80.1753 43.7817L82.8091 43.6968V42.7339C82.8091 41.5161 82.5448 40.6193 82.0161 40.0435C81.4969 39.4582 80.6615 39.1655 79.5098 39.1655C78.2165 39.1655 76.7533 39.562 75.1201 40.355L74.3979 38.5566C75.1626 38.1413 75.998 37.8156 76.9043 37.5796C77.82 37.3436 78.7357 37.2256 79.6514 37.2256C81.5016 37.2256 82.8704 37.6362 83.7578 38.4575C84.6546 39.2788 85.103 40.5957 85.103 42.4082V53H83.3613ZM78.0513 51.3433C79.5145 51.3433 80.6615 50.9421 81.4922 50.1396C82.3324 49.3372 82.7524 48.2139 82.7524 46.7695V45.3677L80.4019 45.4668C78.5327 45.5329 77.1828 45.8255 76.3521 46.3447C75.5308 46.8545 75.1201 47.6522 75.1201 48.7378C75.1201 49.5874 75.375 50.234 75.8848 50.6777C76.404 51.1214 77.1261 51.3433 78.0513 51.3433ZM96.1621 53.2832C93.9154 53.2832 92.1737 52.5941 90.937 51.2158C89.7098 49.8281 89.0962 47.8693 89.0962 45.3394C89.0962 42.7433 89.7192 40.7373 90.9653 39.3213C92.2209 37.9053 94.005 37.1973 96.3179 37.1973C97.0636 37.1973 97.8094 37.2775 98.5552 37.438C99.3009 37.5985 99.8862 37.7873 100.311 38.0044L99.5889 40.001C99.0697 39.7933 98.5033 39.6234 97.8896 39.4912C97.276 39.3496 96.7332 39.2788 96.2612 39.2788C93.1082 39.2788 91.5317 41.2896 91.5317 45.311C91.5317 47.2179 91.9141 48.6812 92.6787 49.7007C93.4528 50.7202 94.5951 51.23 96.1055 51.23C97.3988 51.23 98.7251 50.9515 100.084 50.3945V52.4761C99.0461 53.0142 97.7386 53.2832 96.1621 53.2832ZM114.245 39.4912H109.204V53H106.853V39.4912H101.869V37.4805H114.245V39.4912ZM123.874 53.2832C121.58 53.2832 119.767 52.5846 118.436 51.1875C117.114 49.7904 116.454 47.8504 116.454 45.3677C116.454 42.866 117.067 40.8789 118.294 39.4062C119.531 37.9336 121.188 37.1973 123.265 37.1973C125.209 37.1973 126.748 37.8392 127.881 39.123C129.014 40.3975 129.58 42.0825 129.58 44.1782V45.665H118.889C118.936 47.487 119.394 48.87 120.263 49.814C121.141 50.758 122.373 51.23 123.958 51.23C125.629 51.23 127.281 50.8807 128.915 50.1821V52.2778C128.084 52.6366 127.296 52.8914 126.55 53.0425C125.813 53.203 124.921 53.2832 123.874 53.2832ZM123.236 39.1655C121.99 39.1655 120.994 39.5715 120.249 40.3833C119.512 41.1951 119.078 42.3185 118.946 43.7534H127.06C127.06 42.2713 126.729 41.1385 126.068 40.355C125.408 39.562 124.464 39.1655 123.236 39.1655ZM140.823 53.2832C139.813 53.2832 138.888 53.0991 138.048 52.731C137.217 52.3534 136.519 51.7775 135.952 51.0034H135.782C135.896 51.9097 135.952 52.7687 135.952 53.5806V59.9668H133.602V37.4805H135.513L135.839 39.6045H135.952C136.556 38.7549 137.26 38.1413 138.062 37.7637C138.864 37.3861 139.785 37.1973 140.823 37.1973C142.881 37.1973 144.467 37.9006 145.581 39.3071C146.704 40.7137 147.266 42.6867 147.266 45.2261C147.266 47.7749 146.695 49.7573 145.553 51.1733C144.42 52.5799 142.843 53.2832 140.823 53.2832ZM140.483 39.1938C138.897 39.1938 137.75 39.6328 137.042 40.5107C136.334 41.3887 135.971 42.7858 135.952 44.7021V45.2261C135.952 47.4067 136.316 48.9691 137.042 49.9131C137.769 50.8477 138.935 51.3149 140.54 51.3149C141.881 51.3149 142.928 50.7721 143.684 49.6865C144.448 48.6009 144.831 47.1047 144.831 45.1978C144.831 43.2625 144.448 41.7804 143.684 40.7515C142.928 39.7131 141.862 39.1938 140.483 39.1938Z" fill="white"/>
<g clip-path="url(#clip0)">
<path d="M10.3448 52H8.62065C8.14458 52 7.75854 51.614 7.75854 51.1379V49.4138H11.2068V51.1379C11.2069 51.614 10.8209 52 10.3448 52Z" fill="#AFB9D2"/>
<path d="M41.3793 52H39.6552C39.1791 52 38.7931 51.614 38.7931 51.1379V49.4138H42.2413V51.1379C42.2414 51.614 41.8554 52 41.3793 52Z" fill="#AFB9D2"/>
<path d="M41.3792 50.2759H8.62061C7.66836 50.2759 6.89648 49.504 6.89648 48.5518V3.72412C6.89648 2.77188 7.66836 2 8.62061 2H41.3792C42.3314 2 43.1033 2.77188 43.1033 3.72412V48.5518C43.1033 49.504 42.3314 50.2759 41.3792 50.2759Z" fill="#E4EAF6"/>
<path d="M6.89648 3.72412V12.3448H43.1034V3.72412C43.1033 2.77188 42.3313 2 41.3792 2H8.62061C7.66846 2 6.89648 2.77188 6.89648 3.72412Z" fill="#D7DEED"/>
<path d="M21.5518 2V7.17246C21.5518 9.07685 23.0956 10.6207 25 10.6207C26.9044 10.6207 28.4482 9.07685 28.4482 7.17246V2H21.5518Z" fill="#AFB9D2"/>
<path d="M25 40.793C32.1416 40.793 37.9311 35.0036 37.9311 27.862C37.9311 20.7203 32.1416 14.9309 25 14.9309C17.8584 14.9309 12.069 20.7203 12.069 27.862C12.069 35.0036 17.8584 40.793 25 40.793Z" fill="#C7CFE2"/>
<path d="M25 8.89649C25.9522 8.89649 26.7241 8.12457 26.7241 7.17236C26.7241 6.22016 25.9522 5.44824 25 5.44824C24.0478 5.44824 23.2759 6.22016 23.2759 7.17236C23.2759 8.12457 24.0478 8.89649 25 8.89649Z" fill="#707487"/>
<path d="M31.8967 8.89658C31.4206 8.89658 31.0345 8.51054 31.0345 8.03447V6.31035C31.0345 5.83428 31.4206 5.44824 31.8967 5.44824C32.3727 5.44824 32.7588 5.83428 32.7588 6.31035V8.03447C32.7587 8.51054 32.3727 8.89658 31.8967 8.89658Z" fill="white"/>
<path d="M35.3448 8.89658C34.8687 8.89658 34.4827 8.51054 34.4827 8.03447V6.31035C34.4827 5.83428 34.8687 5.44824 35.3448 5.44824C35.8208 5.44824 36.2069 5.83428 36.2069 6.31035V8.03447C36.2069 8.51054 35.8208 8.89658 35.3448 8.89658Z" fill="#FFF08C"/>
<path d="M38.793 8.89658C38.3169 8.89658 37.9309 8.51054 37.9309 8.03447V6.31035C37.9309 5.83428 38.3169 5.44824 38.793 5.44824C39.2691 5.44824 39.6551 5.83428 39.6551 6.31035V8.03447C39.6551 8.51054 39.2691 8.89658 38.793 8.89658Z" fill="#E4EAF6"/>
<path d="M24.9999 36.4829C29.7609 36.4829 33.6206 32.6232 33.6206 27.8622C33.6206 23.1011 29.7609 19.2415 24.9999 19.2415C20.2388 19.2415 16.3792 23.1011 16.3792 27.8622C16.3792 32.6232 20.2388 36.4829 24.9999 36.4829Z" fill="#00C8F0"/>
<path d="M24.9999 21.8274C29.3203 21.8274 32.8877 25.009 33.5132 29.155C33.577 28.7321 33.6206 28.3025 33.6206 27.8619C33.6206 23.1008 29.761 19.2412 24.9999 19.2412C20.2387 19.2412 16.3792 23.1008 16.3792 27.8619C16.3792 28.3025 16.4227 28.7321 16.4865 29.155C17.112 25.0091 20.6794 21.8274 24.9999 21.8274Z" fill="#00AFE1"/>
<path d="M31.8967 41.6553H40.5174C40.9934 41.6553 41.3795 42.0413 41.3795 42.5174V47.6898C41.3795 48.1659 40.9934 48.552 40.5174 48.552H31.8967C31.4206 48.552 31.0345 48.1659 31.0345 47.6898V42.5174C31.0345 42.0413 31.4206 41.6553 31.8967 41.6553Z" fill="#D7DEED"/>
<path d="M18.1035 10.6207H9.48284C9.00676 10.6207 8.62073 10.2347 8.62073 9.75859V4.58623C8.62073 4.11016 9.00676 3.72412 9.48284 3.72412H18.1035C18.5796 3.72412 18.9656 4.11016 18.9656 4.58623V9.75869C18.9656 10.2347 18.5796 10.6207 18.1035 10.6207Z" fill="#C7CFE2"/>
<path d="M15.5173 8.89648H12.069C11.5929 8.89648 11.2069 9.28252 11.2069 9.75859V10.6207H16.3794V9.75859C16.3793 9.28242 15.9933 8.89648 15.5173 8.89648Z" fill="#AFB9D2"/>
<path d="M29.3106 31.2229C29.5283 31.2229 29.7459 31.3045 29.9138 31.4691C30.2539 31.8021 30.2598 32.348 29.9264 32.6881C29.3547 33.2719 28.6919 33.7452 27.9556 34.0945C27.5275 34.2995 27.0115 34.1151 26.8074 33.6853C26.6032 33.2551 26.7864 32.7412 27.2166 32.5371C27.7684 32.2752 28.2655 31.92 28.6949 31.4818C28.8635 31.3095 29.0872 31.2229 29.3106 31.2229Z" fill="#00EBFF"/>
<path d="M19.8258 30.1086C20.1184 30.1086 20.4033 30.2573 20.565 30.5257C21.3723 31.8664 22.7193 32.7618 24.2604 32.9823C24.7319 33.0497 25.0593 33.4862 24.9915 33.9576C24.9242 34.4291 24.483 34.7552 24.0162 34.6887C21.96 34.3949 20.1639 33.2015 19.0884 31.4156C18.8426 31.0077 18.9742 30.4778 19.3819 30.2324C19.521 30.1482 19.6742 30.1086 19.8258 30.1086Z" fill="#00DCFF"/>
<path d="M25 17.5173C19.2867 17.5173 14.6552 22.1489 14.6552 27.8622C14.6552 33.5754 19.2867 38.207 25 38.207C30.7133 38.207 35.3448 33.5754 35.3448 27.8622C35.3448 22.1489 30.7133 17.5173 25 17.5173ZM25 36.4828C20.2388 36.4828 16.3793 32.6232 16.3793 27.8621C16.3793 23.1009 20.2388 19.2414 25 19.2414C28.876 19.2414 32.1542 21.7997 33.2391 25.3196C32.4708 25.4935 31.8966 26.1791 31.8966 27V28.7241C31.8966 29.545 32.4708 30.2305 33.2391 30.4044C32.1542 33.9245 28.876 36.4828 25 36.4828Z" fill="#959CB3"/>
</g>
<defs>
<clipPath id="clip0">
<rect width="50" height="50" fill="white" transform="translate(0 2)"/>
</clipPath>
</defs>
</svg>
