<svg width="40" height="40" viewBox="0 0 40 40" fill="none" xmlns="http://www.w3.org/2000/svg">
<path d="M20 40C31.0457 40 40 31.0457 40 20C40 8.9543 31.0457 0 20 0C8.9543 0 0 8.9543 0 20C0 31.0457 8.9543 40 20 40Z" fill="#FEDD55"/>
<path d="M40.0001 20C40.0001 17.7696 39.6347 15.6247 38.9609 13.6213L32.6848 7.34521L7.31543 32.7145L13.5479 38.9359C15.5723 39.6255 17.7425 40 20.0001 40C31.0458 40 40.0001 31.0457 40.0001 20Z" fill="#FCC63D"/>
<path d="M24.974 23.1819C29.4618 23.1819 33.0999 19.5438 33.0999 15.056C33.0999 10.5683 29.4618 6.93018 24.974 6.93018C20.4862 6.93018 16.8481 10.5683 16.8481 15.056C16.8481 19.5438 20.4862 23.1819 24.974 23.1819Z" fill="#5EEFEE"/>
<path d="M30.7199 20.8016C27.5462 23.9753 22.4009 23.9753 19.2278 20.8022L30.7199 9.31006C33.893 12.4832 33.893 17.6285 30.7199 20.8016Z" fill="#54C9FC"/>
<path d="M16.2817 19.7679L20.2586 23.7448L13.4116 30.5918L9.43471 26.615L16.2817 19.7679Z" fill="#FF807D"/>
<path d="M11.4175 28.6071L18.2649 21.7596L20.2533 23.7481L13.4059 30.5955L11.4175 28.6071Z" fill="#FC3E53"/>
<path d="M17.2633 22.7667C13.0115 18.515 13.0115 11.5969 17.2633 7.34528C21.515 3.09356 28.433 3.09356 32.6847 7.34528C36.9365 11.597 36.9365 18.515 32.6847 22.7668C28.4329 27.0184 21.5149 27.0184 17.2633 22.7667ZM29.9225 10.1074C27.1939 7.37872 22.754 7.37872 20.0254 10.1074C17.2967 12.8361 17.2967 17.2758 20.0254 20.0046C22.754 22.7333 27.1939 22.7333 29.9225 20.0046C32.6511 17.2759 32.6512 12.8361 29.9225 10.1074Z" fill="#776D6B"/>
<path d="M32.6844 7.34546L29.9222 10.1076C32.6507 12.836 32.6512 17.2759 29.9228 20.0043C27.1938 22.7333 22.754 22.7327 20.0255 20.0043L17.2634 22.7664C17.9506 23.4536 18.708 24.0298 19.5123 24.4949C23.682 26.9068 29.1201 26.3312 32.685 22.7664C36.9364 18.515 36.9358 11.5969 32.6844 7.34546Z" fill="#57555C"/>
<path d="M7.31522 32.7146C6.21687 31.6162 6.21687 29.8355 7.31522 28.7371L9.63546 26.4169L13.613 30.3944L11.2927 32.7145C10.1944 33.813 8.41358 33.813 7.31522 32.7146Z" fill="#776D6B"/>
<path d="M13.6128 30.3944L11.2927 32.7145C10.1945 33.8127 8.41347 33.8127 7.31519 32.7145L11.6241 28.4056L13.6128 30.3944Z" fill="#57555C"/>
</svg>
