<svg width="63" height="40" viewBox="0 0 63 40" fill="none" xmlns="http://www.w3.org/2000/svg">
<g clip-path="url(#clip0)">
<path fill-rule="evenodd" clip-rule="evenodd" d="M-2.86353 -14.2856H65.8637V54.2858H-2.86353V-14.2856Z" fill="white"/>
<path fill-rule="evenodd" clip-rule="evenodd" d="M0.168701 39.7791H62.8317V0.22168H0.168701V39.7791Z" fill="#1B3771"/>
<path fill-rule="evenodd" clip-rule="evenodd" d="M31.5507 32.6385C34.5743 35.388 38.64 37.0636 43.042 37.0636C52.517 37.0636 60.1776 29.4201 60.1776 19.9662C60.1776 10.5465 52.5174 2.86963 43.042 2.86963C38.64 2.86963 34.5746 4.54589 31.5507 7.2947C28.0896 10.4455 25.9058 14.9378 25.9058 19.9662C25.9058 24.9957 28.0896 29.5211 31.5507 32.6385V32.6385Z" fill="#E9B040"/>
<path fill-rule="evenodd" clip-rule="evenodd" d="M57.8926 29.4871C57.8926 29.1855 58.1272 28.9507 58.4638 28.9507C58.7662 28.9507 59.0015 29.1855 59.0015 29.4871C59.0015 29.7888 58.7662 30.057 58.4638 30.057C58.3886 30.0577 58.3141 30.0433 58.2445 30.0149C58.1749 29.9865 58.1117 29.9445 58.0585 29.8915C58.0054 29.8385 57.9633 29.7754 57.9348 29.706C57.9063 29.6365 57.892 29.5622 57.8926 29.4871V29.4871ZM58.4638 29.9226C58.6649 29.9226 58.8671 29.7219 58.8671 29.4868C58.8671 29.2516 58.6652 29.0844 58.4638 29.0844C58.2285 29.0844 58.027 29.252 58.027 29.4868C58.027 29.7216 58.2285 29.9226 58.4638 29.9226ZM58.3629 29.7554H58.262V29.2524H58.4638C58.4973 29.2524 58.5647 29.2524 58.5982 29.2858C58.6317 29.3199 58.6652 29.353 58.6652 29.3865C58.6652 29.4537 58.6317 29.5206 58.5651 29.5206L58.6652 29.7554H58.5308L58.4638 29.554H58.3629V29.7554V29.7554ZM58.3629 29.4537H58.4973C58.5308 29.4537 58.5308 29.4196 58.5308 29.3865C58.5308 29.3865 58.5308 29.353 58.4973 29.353H58.3629V29.4537V29.4537Z" fill="#E9B040"/>
<path fill-rule="evenodd" clip-rule="evenodd" d="M37.0945 18.1564C37.0264 17.548 36.9255 16.9438 36.7921 16.3463H26.3092C26.4458 15.7346 26.6141 15.1304 26.8133 14.536H36.2883C36.0824 13.9216 35.8469 13.3174 35.5827 12.7256H27.5186C27.8287 12.1081 28.165 11.5041 28.5266 10.9152H34.5744C34.1989 10.2701 33.7601 9.66377 33.2644 9.10521H29.8369C30.3411 8.46808 30.9458 7.86474 31.5505 7.2952C28.5266 4.54602 24.4943 2.87012 20.0592 2.87012C10.5842 2.87012 2.92334 10.547 2.92334 19.9667C2.92334 29.4202 10.5842 37.0641 20.0592 37.0641C24.4943 37.0641 28.5262 35.3882 31.5505 32.639C32.1548 32.0691 32.7602 31.4661 33.2976 30.829H29.8365C29.3623 30.2535 28.9247 29.649 28.5262 29.0189H34.5744C34.9499 28.4381 35.2867 27.8332 35.5827 27.2082H27.5186C27.2431 26.6213 27.0074 26.0166 26.813 25.3982H36.288C36.4869 24.8036 36.6551 24.1992 36.7921 23.5875C36.9266 22.9845 37.0267 22.3804 37.0945 21.7775C37.2289 20.5742 37.2289 19.3597 37.0945 18.1564V18.1564Z" fill="#CC2131"/>
<path fill-rule="evenodd" clip-rule="evenodd" d="M57.8926 23.9227C57.8926 23.621 58.1272 23.3862 58.4637 23.3862C58.766 23.3862 59.0013 23.621 59.0013 23.9227C59.0013 24.2244 58.766 24.4926 58.4637 24.4926C58.3885 24.4933 58.314 24.479 58.2444 24.4506C58.1748 24.4222 58.1116 24.3802 58.0584 24.3272C58.0052 24.2741 57.9632 24.211 57.9347 24.1416C57.9063 24.0721 57.8919 23.9977 57.8926 23.9227V23.9227ZM58.4637 24.3585C58.6648 24.3585 58.8669 24.1571 58.8669 23.9227C58.8669 23.6879 58.6651 23.5203 58.4637 23.5203C58.2284 23.5203 58.027 23.6879 58.027 23.9227C58.027 24.1568 58.2284 24.3585 58.4637 24.3585ZM58.3628 24.1909H58.2619V23.6879H58.4637C58.4972 23.6879 58.5646 23.6879 58.5981 23.7213C58.6316 23.7555 58.6651 23.7886 58.6651 23.822C58.6651 23.8893 58.6316 23.9561 58.5649 23.9561L58.6651 24.1909H58.5307L58.4637 23.9896H58.3628V24.1909V24.1909ZM58.3628 23.8896H58.4972C58.5307 23.8896 58.5307 23.8555 58.5307 23.8224C58.5307 23.8224 58.5307 23.7889 58.4972 23.7889H58.3628V23.8896V23.8896Z" fill="white"/>
<path fill-rule="evenodd" clip-rule="evenodd" d="M25.7378 24.8951C25.1666 25.0627 24.7634 25.1299 24.3266 25.1299C23.4531 25.1299 22.9154 24.5934 22.9154 23.5874C22.9154 23.3867 22.9489 23.185 22.9824 22.951L23.083 22.2804L23.1839 21.7097L23.9904 16.8826H25.771L25.5695 17.9552H26.6784L26.4096 19.7322H25.3011L24.7969 22.6151C24.7969 22.7158 24.7634 22.8158 24.7634 22.8834C24.7634 23.2523 24.9648 23.4198 25.402 23.4198C25.6373 23.4198 25.7717 23.3864 25.9732 23.3526L25.7378 24.8951V24.8951ZM31.4833 24.8275C30.8642 25.0259 30.2181 25.1279 29.5679 25.1299C27.5855 25.1299 26.4096 24.057 26.4096 21.9783C26.4096 19.565 27.7873 17.7546 29.6688 17.7546C31.1809 17.7546 32.155 18.7602 32.155 20.3359C32.155 20.8389 32.088 21.3419 31.9204 22.079H28.2241V22.2804C28.2241 23.1182 28.7617 23.5205 29.8367 23.5205C30.5088 23.5205 31.1135 23.3864 31.7856 23.0847L31.4833 24.8275V24.8275ZM30.3744 20.6372V20.3024C30.3744 19.7325 30.0385 19.3974 29.5009 19.3974C28.8962 19.3974 28.4929 19.8332 28.325 20.6375H30.3744V20.6372ZM11.525 24.9958H9.67702L10.7524 18.3245L8.3667 24.9958H7.09025L6.95583 18.3579L5.81308 24.9958H4.03247L5.47721 16.3127H8.13137L8.23263 21.6767L10.0132 16.3127H12.9701L11.525 24.9958V24.9958ZM15.994 21.8442C15.7926 21.8442 15.7587 21.8108 15.6243 21.8108C14.5828 21.8108 14.0451 22.2131 14.0451 22.8837C14.0451 23.3526 14.3136 23.6215 14.7169 23.6215C15.6243 23.6215 15.9602 22.8834 15.994 21.8442V21.8442ZM17.4723 24.9958H15.8596L15.8931 24.258C15.4899 24.8279 14.9522 25.1299 13.9442 25.1299C13.0372 25.1299 12.298 24.3252 12.298 23.185C12.298 22.8503 12.3651 22.5486 12.4321 22.2804C12.7344 21.1736 13.8433 20.5031 15.5234 20.4696C15.7248 20.4696 16.0611 20.4696 16.3295 20.5031C16.3966 20.269 16.3966 20.1683 16.3966 20.0342C16.3966 19.565 16.0272 19.4308 15.1536 19.4308C14.616 19.4308 14.0451 19.5315 13.608 19.6318L13.373 19.7325H13.2386L13.5074 18.1569C14.381 17.8887 14.9857 17.788 15.6578 17.788C17.2705 17.788 18.1105 18.492 18.1105 19.8666C18.1105 20.2014 18.144 20.4696 18.0096 21.2409L17.6402 23.7553L17.5732 24.1911L17.5062 24.5593V24.7941L17.4723 24.9958V24.9958ZM40.4209 18.0228C40.9244 18.0228 41.395 18.1565 42.0671 18.492L42.3695 16.5809C42.2015 16.5141 42.1677 16.5141 41.9327 16.4134L41.1597 16.2458C40.9244 16.1789 40.6555 16.1455 40.32 16.1455C39.4126 16.1455 38.8749 16.1455 38.3041 16.5141C38.0017 16.6816 37.632 16.9499 37.1956 17.4194L36.9938 17.3522L35.0787 18.6934L35.1796 17.9559H33.1969L32.0883 24.9961H33.9367L34.6088 21.2081C34.6088 21.2081 34.8776 20.6717 35.0121 20.5038C35.3476 20.068 35.6499 20.068 36.0197 20.068H36.1541C36.1206 20.4703 36.0867 20.9399 36.0867 21.4091C36.0867 23.7222 37.3974 25.1641 39.4133 25.1641C39.9175 25.1641 40.3543 25.0968 41.026 24.8958L41.3615 22.9175C40.7572 23.2199 40.253 23.3533 39.7827 23.3533C38.7073 23.3533 38.0688 22.5828 38.0688 21.2416C38.0688 19.3636 39.0094 18.0228 40.4209 18.0228V18.0228ZM56.1113 16.3127L55.708 18.7937C55.2713 18.1231 54.7339 17.8214 54.0283 17.8214C53.0542 17.8214 52.1468 18.3579 51.5756 19.397L50.3993 18.693L50.5003 17.9555H48.5175L47.3754 24.9958H49.257L49.8613 21.2078C49.8613 21.2078 50.332 20.6713 50.4664 20.5034C50.7352 20.1687 51.0376 20.0676 51.2729 20.0676C51.0497 20.7381 50.9362 21.4401 50.9367 22.1466C50.9367 23.9232 51.8776 25.0961 53.2214 25.0961C53.8935 25.0961 54.4312 24.862 54.9354 24.2921L54.8345 24.9961H56.6151L58.0267 16.3131H56.1113V16.3127V16.3127ZM53.8607 23.3192C53.2222 23.3192 52.9198 22.8834 52.9198 21.9449C52.9198 20.5706 53.491 19.5649 54.3642 19.5649C55.0028 19.5649 55.339 20.0676 55.339 20.973C55.339 22.3472 54.7339 23.3192 53.8607 23.3192ZM45.2925 21.8442C45.0914 21.8442 45.0579 21.8108 44.9234 21.8108C43.8816 21.8108 43.3439 22.2131 43.3439 22.8837C43.3439 23.3526 43.6128 23.6215 44.016 23.6215C44.9231 23.6215 45.259 22.8834 45.2925 21.8442V21.8442ZM46.7707 24.9958H45.1588L45.1923 24.258C44.789 24.8279 44.2514 25.1299 43.243 25.1299C42.3363 25.1299 41.5298 24.3586 41.5298 23.185C41.5633 21.5091 42.8063 20.4696 44.8222 20.4696C45.024 20.4696 45.3599 20.4696 45.6287 20.5031C45.6961 20.269 45.6961 20.1683 45.6961 20.0342C45.6961 19.565 45.3264 19.4308 44.4524 19.4308C43.9148 19.4308 43.3104 19.5315 42.9072 19.6318L42.6383 19.7325H42.5374L42.8063 18.1569C43.6802 17.8887 44.2845 17.788 44.9566 17.788C46.5693 17.788 47.4093 18.492 47.4093 19.8666C47.4093 20.2014 47.4428 20.4696 47.3084 21.2409L46.9394 23.7553L46.872 24.1911L46.805 24.5593L46.7707 24.7941V24.9958V24.9958ZM21.3362 19.4643C21.706 19.4643 22.2098 19.4977 22.7474 19.5649L23.0163 17.9221C22.4786 17.8552 21.7733 17.788 21.3366 17.788C19.2868 17.788 18.5815 18.8944 18.5815 20.2017C18.5815 21.0395 18.9844 21.6767 19.9589 22.1125C20.7315 22.4814 20.8659 22.549 20.8659 22.8503C20.8659 23.2861 20.4627 23.5543 19.7235 23.5543C19.1862 23.5543 18.6821 23.4536 18.077 23.2861L17.8755 24.8951H17.9094L18.2453 24.9623C18.3458 24.9958 18.5141 25.0292 18.7156 25.0292C19.1859 25.0961 19.5552 25.0961 19.7906 25.0961C21.8404 25.0961 22.7139 24.3256 22.7139 22.7496C22.7139 21.7777 22.2436 21.2078 21.3027 20.8054C20.5301 20.4365 20.4292 20.4031 20.4292 20.0676C20.4292 19.7325 20.765 19.4643 21.3362 19.4643V19.4643Z" fill="#1B3771"/>
<path fill-rule="evenodd" clip-rule="evenodd" d="M42.8737 16.0448L42.5707 17.9221C41.8986 17.587 41.4286 17.4529 40.9245 17.4529C39.5136 17.4529 38.5395 18.794 38.5395 20.7047C38.5395 22.0125 39.2116 22.8165 40.2859 22.8165C40.7565 22.8165 41.2607 22.6831 41.8654 22.3807L41.5299 24.359C40.8578 24.5265 40.4214 24.5938 39.8837 24.5938C37.9009 24.5938 36.658 23.1854 36.658 20.8723C36.658 17.7545 38.3712 15.6094 40.8239 15.6094C41.1602 15.6094 41.429 15.6428 41.6643 15.6763L42.4366 15.8773C42.6719 15.9776 42.7054 15.9776 42.8737 16.0448V16.0448ZM36.9268 17.3522C36.8595 17.3187 36.7924 17.3187 36.725 17.3187C36.1207 17.3187 35.7841 17.6204 35.2133 18.4586L35.3812 17.3856H33.668L32.5588 24.4593H34.4071C35.0792 20.1348 35.2468 19.397 36.1542 19.397H36.2886C36.4566 18.5589 36.6584 17.9221 36.9942 17.3518H36.9268V17.3522ZM26.2082 24.3586C25.7041 24.5262 25.3012 24.5934 24.8641 24.5934C23.9231 24.5934 23.3858 24.0569 23.3858 23.0509C23.3858 22.8503 23.4193 22.6485 23.4528 22.4145L23.5534 21.7101L23.6543 21.1736L24.4608 16.3465H26.3088L26.1073 17.3856H27.0483L26.7794 19.1288H25.8389L25.3347 22.0456C25.3347 22.1797 25.3012 22.2803 25.3012 22.3472C25.3012 22.7161 25.5026 22.8837 25.9398 22.8837C26.1751 22.8837 26.3095 22.8503 26.4439 22.8165L26.2082 24.3586ZM19.0516 19.6318C19.0516 20.503 19.4884 21.1402 20.4628 21.576C21.2354 21.9449 21.3364 22.0456 21.3364 22.3807C21.3364 22.8165 21.0005 23.0178 20.261 23.0178C19.7233 23.0178 19.2195 22.9171 18.6145 22.7161L18.3456 24.3586H18.4465L18.7827 24.4259C18.9352 24.472 19.0938 24.4946 19.253 24.4927C19.6898 24.5262 20.0595 24.5596 20.2945 24.5596C22.2434 24.5596 23.1505 23.8225 23.1505 22.2131C23.1505 21.2412 22.7811 20.6713 21.8402 20.2348C21.0672 19.9 20.9666 19.7994 20.9666 19.4977C20.9666 19.0953 21.269 18.8943 21.8737 18.8943C22.2434 18.8943 22.7472 18.9612 23.2175 19.0285L23.4863 17.3856C23.0161 17.3187 22.2766 17.2515 21.8402 17.2515C19.7572 17.2515 19.0516 18.3244 19.0516 19.6318V19.6318ZM57.0865 24.4593H55.3059L55.4061 23.7553C54.9019 24.2917 54.3643 24.5258 53.6922 24.5258C52.3487 24.5258 51.4416 23.3864 51.4416 21.6098C51.4416 19.2629 52.819 17.2849 54.4652 17.2849C55.2047 17.2849 55.7423 17.5866 56.2458 18.2572L56.649 15.7762H58.4974L57.0865 24.4593ZM54.3308 22.7827C55.2047 22.7827 55.809 21.8108 55.809 20.4031C55.809 19.5311 55.4735 19.0285 54.8349 19.0285C53.9952 19.0285 53.3898 20.0004 53.3898 21.4084C53.3898 22.3138 53.6922 22.7827 54.3308 22.7827ZM31.8863 24.2917C31.2481 24.4924 30.6434 24.5934 29.9713 24.5934C27.888 24.5934 26.813 23.4867 26.813 21.4419C26.813 18.995 28.1907 17.2181 30.0722 17.2181C31.5843 17.2181 32.5584 18.2238 32.5584 19.7994C32.5584 20.3024 32.4914 20.8054 32.3573 21.5425H28.6613C28.6274 21.6432 28.6274 21.6766 28.6274 21.7439C28.6274 22.5486 29.1651 22.984 30.274 22.984C30.9126 22.984 31.5173 22.8499 32.1894 22.5482L31.8863 24.2917V24.2917ZM30.8452 20.1007V19.7321C30.8452 19.1622 30.5425 18.8271 29.9716 18.8271C29.4008 18.8271 28.9637 19.2963 28.7957 20.1007H30.8452ZM11.9958 24.4593H10.1478L11.2228 17.788L8.83714 24.4593H7.56069L7.42628 17.8214L6.28389 24.4593H4.57031L6.01505 15.7762H8.66921L8.77011 21.1402L10.5511 15.7762H13.4406L11.9958 24.4593ZM16.5989 21.3077C16.3971 21.2743 16.2965 21.2743 16.1621 21.2743C15.1206 21.2743 14.5829 21.6432 14.5829 22.3472C14.5829 22.783 14.8514 23.085 15.2547 23.085C16.0277 23.085 16.5654 22.3472 16.5989 21.3077V21.3077ZM17.9427 24.4593H16.3971L16.4309 23.7215C15.9607 24.2921 15.3556 24.5593 14.482 24.5593C13.4741 24.5593 12.802 23.7887 12.802 22.6485C12.802 20.9392 13.9782 19.9331 16.0612 19.9331C16.2626 19.9331 16.5315 19.9331 16.8003 19.9666C16.8674 19.7656 16.8674 19.6652 16.8674 19.5311C16.8674 19.0619 16.565 18.894 15.6915 18.894C15.1538 18.894 14.5491 18.9609 14.1458 19.095L13.877 19.1619L13.709 19.1953L13.9779 17.6197C14.9185 17.3515 15.5232 17.2508 16.1953 17.2508C17.8079 17.2508 18.648 17.9548 18.648 19.296C18.648 19.6649 18.6141 19.9328 18.4797 20.704L18.1103 23.2185L18.0433 23.6542L18.0094 24.0224L17.9759 24.2572L17.9427 24.4593V24.4593ZM45.8976 21.3077C45.6965 21.2743 45.5953 21.2743 45.4609 21.2743C44.419 21.2743 43.8813 21.6432 43.8813 22.3472C43.8813 22.783 44.1502 23.085 44.5534 23.085C45.2926 23.085 45.8641 22.3472 45.8976 21.3077V21.3077ZM47.2415 24.4593H45.6962L45.7297 23.7215C45.2591 24.2921 44.6212 24.5593 43.7804 24.5593C42.7728 24.5593 42.0672 23.7887 42.0672 22.6485C42.0672 20.9392 43.277 19.9331 45.3596 19.9331C45.5607 19.9331 45.8302 19.9331 46.0984 19.9666C46.1658 19.7656 46.1658 19.6652 46.1658 19.5311C46.1658 19.0619 45.8634 18.894 44.9895 18.894C44.4518 18.894 43.8475 18.9609 43.4442 19.095L43.1754 19.1619L43.0074 19.1953L43.2763 17.6197C44.2165 17.3515 44.8216 17.2508 45.4937 17.2508C47.1063 17.2508 47.9464 17.9548 47.9464 19.296C47.9464 19.6649 47.9129 19.9328 47.7784 20.704L47.4087 23.2185L47.3417 23.6542L47.2743 24.0224L47.2408 24.2572V24.4593H47.2415V24.4593ZM52.2146 17.3522C52.1804 17.3187 52.1137 17.3187 52.046 17.3187C51.4416 17.3187 51.0719 17.6204 50.5007 18.4586L50.6686 17.3856H48.9889L47.8462 24.4593H49.7277C50.3663 20.1348 50.5681 19.397 51.4416 19.397H51.576C51.744 18.5589 51.9793 17.9221 52.2817 17.3518H52.2146V17.3522V17.3522Z" fill="white"/>
</g>
<defs>
<clipPath id="clip0">
<rect width="63" height="40" rx="4" fill="white"/>
</clipPath>
</defs>
</svg>
