<svg width="40" height="40" viewBox="0 0 40 40" fill="none" xmlns="http://www.w3.org/2000/svg">
<g clip-path="url(#clip0)">
<path d="M17.976 7.3598C17.7906 7.3598 17.6077 7.27473 17.4894 7.11387C16.9405 6.36809 15.9637 5.51254 14.4268 5.67668C12.6173 5.86941 11.2736 5.29356 10.4648 4.7766C10.184 4.59707 10.1019 4.22387 10.2813 3.94301C10.4608 3.66207 10.8341 3.58004 11.1149 3.75949C11.7609 4.17231 12.8377 4.63223 14.299 4.47629C16.5168 4.24082 17.8589 5.57926 18.4616 6.3984C18.6592 6.66684 18.6017 7.04473 18.3332 7.2423C18.2255 7.32152 18.1002 7.3598 17.976 7.3598Z" fill="#FFD064"/>
<path d="M11.6568 10.565C11.5491 10.565 11.4402 10.5363 11.3416 10.4757C11.0574 10.3014 10.9686 9.92972 11.143 9.64558C11.9167 8.38519 13.3345 7.51894 15.2432 7.14051C16.6349 6.86465 17.8027 6.94019 17.8516 6.94363C18.1842 6.96644 18.4353 7.25449 18.4124 7.58707C18.3896 7.91941 18.1009 8.16863 17.7697 8.14801C17.7278 8.14519 13.6294 7.90222 12.1717 10.2771C12.0578 10.4628 11.8596 10.565 11.6568 10.565Z" fill="#FFD064"/>
<path d="M20.7548 33.6935C30.6674 33.6935 36.1485 19.1537 20.495 7.92375C20.1056 7.64438 19.8743 7.19461 19.8796 6.71539C19.8839 6.31938 20.0093 5.93492 20.2365 5.61047C20.9693 4.56398 22.0241 2.77383 22.6567 1.33195C22.8082 0.986641 22.5914 0.615234 22.1861 0.615234C21.2459 0.615313 21.2459 0 20.3057 0C19.3654 0 19.3654 0.615313 18.4251 0.615313C17.6239 0.615313 17.2951 -0.0740625 16.9056 0.427344C15.7695 1.88953 19.6608 7.03148 19.6608 7.03148C2.47528 18.3291 8.01645 33.6936 18.163 33.6936H20.7548V33.6935Z" fill="#EABC6B"/>
<path d="M24.6516 7.03141C24.6516 7.03141 28.6005 1.90609 27.465 0.435859C27.078 -0.0652344 26.748 0.615312 25.9476 0.615312C25.0072 0.615234 25.0072 0 24.0668 0C23.1265 0 23.1265 0.615234 22.1862 0.615234C22.1398 0.615234 22.0976 0.612656 22.0556 0.609766C21.6778 2.2293 19.9752 4.75234 19.0009 6.10328C19.3846 6.66633 19.6608 7.03133 19.6608 7.03133C19.4316 7.18203 19.2073 7.33359 18.9861 7.4857C35.4057 18.7716 29.9116 33.6934 19.8697 33.6934H26.2101C36.3874 33.6935 41.8943 18.3666 24.6516 7.03141Z" fill="#E8AE4D"/>
<path d="M25.3858 8.85435C23.0912 9.43388 20.8242 9.43388 18.5292 8.85435C17.7305 8.65263 17.2777 7.75443 17.5651 6.93795C17.5683 6.92881 17.5715 6.91967 17.5747 6.91053C17.8157 6.226 18.4992 5.84186 19.1692 6.01006C21.0481 6.48178 22.8664 6.48193 24.7458 6.01006C25.4157 5.84186 26.0992 6.226 26.3403 6.91053C26.3435 6.91967 26.3467 6.92881 26.3499 6.93795C26.6374 7.75443 26.1846 8.65263 25.3858 8.85435Z" fill="#FFE07D"/>
<path d="M3.81079 36.3297L12.5495 39.5824C13.2917 39.8587 14.0773 40.0001 14.8692 40.0001H23.8752C25.1355 40.0001 26.3699 39.642 27.4345 38.9674L38.7108 31.8221C39.4548 31.1615 39.5927 30.0513 39.033 29.2287C38.4206 28.3287 37.4075 28.1723 36.2927 28.6994L25.3141 33.5333L25.3271 31.7522C25.1817 30.2901 24.056 29.1168 22.6013 28.911L15.9157 28.1412C14.3734 27.923 13.6028 27.4062 12.2583 26.6197C10.4227 25.5459 8.33446 24.98 6.2079 24.98H3.81079V36.3297Z" fill="#FFDDCE"/>
<path d="M12.0188 37.8493C12.7991 38.1397 13.6249 38.2884 14.4574 38.2884H23.9251C24.9331 38.2884 25.9249 38.07 26.8347 37.6535L33.4549 33.4585C34.07 33.0687 34.4605 32.3903 34.4405 31.6624C34.4299 31.2764 34.3119 30.89 34.0807 30.5503C34.0807 30.5503 33.8792 30.2049 33.672 29.8533L25.3142 33.5333L25.3271 31.7522C25.1817 30.2901 24.056 29.1168 22.6013 28.911L15.9157 28.1412C14.3734 27.923 13.6028 27.4062 12.2583 26.6197C10.4227 25.5459 8.33446 24.98 6.2079 24.98H3.81079V34.7941L12.0188 37.8493Z" fill="#FFDDCE"/>
<path d="M39.0329 29.2288C38.4205 28.3288 37.4074 28.1724 36.2927 28.6995L33.2729 30.0291C33.4191 30.2606 33.5355 30.4453 33.5355 30.4453C34.0952 31.2679 33.9573 32.3781 33.2133 33.0387L26.6427 37.2021C25.7774 37.5983 24.8338 37.8061 23.875 37.8061H14.8692C14.0773 37.8061 13.2917 37.6646 12.5495 37.3884L3.81079 34.1356V36.3297L12.5495 39.5824C13.2917 39.8587 14.0773 40.0002 14.8692 40.0002H22.2272H23.8752C25.1356 40.0002 26.3699 39.642 27.4345 38.9674L38.7109 31.8221C39.4547 31.1615 39.5927 30.0513 39.0329 29.2288Z" fill="#FFCBBE"/>
<path d="M24.5074 29.9171L24.5071 29.9601L24.5354 29.9476C24.5262 29.9373 24.5167 29.9273 24.5074 29.9171Z" fill="#F5DBCC"/>
<path d="M25.3141 33.5323H18.4876C18.1543 33.5323 17.884 33.2621 17.884 32.9287C17.884 32.5952 18.1542 32.3251 18.4876 32.3251H25.3229L25.3141 33.5323Z" fill="#FFCBBE"/>
<path d="M5.69114 38.0703C5.69114 38.7044 5.17716 39.2183 4.5431 39.2183H1.77231C1.13825 39.2183 0.624268 38.7044 0.624268 38.0703V24.0128C0.624268 23.3787 1.13825 22.8647 1.77231 22.8647H4.5431C5.17716 22.8647 5.69114 23.3787 5.69114 24.0128V38.0703Z" fill="#407093"/>
<path d="M23.4857 18.7052C23.2093 18.6075 22.9549 18.5141 22.7202 18.4238V14.5754C23.4341 14.6937 23.8627 15.063 23.8941 15.0909C24.1393 15.3139 24.5187 15.2975 24.7437 15.0535C24.9697 14.8084 24.9543 14.4267 24.7093 14.2006C24.6668 14.1613 23.9276 13.4954 22.7201 13.3563V12.4981C22.7201 12.1648 22.45 11.8945 22.1165 11.8945C21.7831 11.8945 21.5129 12.1647 21.5129 12.4981V13.4052C21.3674 13.4331 21.2183 13.4686 21.0651 13.5147C20.0412 13.823 19.2759 14.701 19.0677 15.8058C18.8788 16.8083 19.1966 17.7724 19.8972 18.322C20.2994 18.6374 20.8058 18.9262 21.5129 19.235V24.0086C20.8144 23.9793 20.3854 23.8477 19.6357 23.3573C19.3567 23.1749 18.9827 23.253 18.8002 23.532C18.6177 23.8109 18.6959 24.185 18.9749 24.3675C19.9602 25.0121 20.6189 25.1802 21.5129 25.215V26.1731C21.5129 26.5065 21.7831 26.7767 22.1165 26.7767C22.45 26.7767 22.7201 26.5066 22.7201 26.1731V25.1726C24.4145 24.8977 25.4033 23.5262 25.6183 22.2468C25.8872 20.6483 25.0499 19.2582 23.4857 18.7052ZM20.6422 17.372C20.2976 17.1018 20.149 16.5873 20.2541 16.0293C20.3515 15.5119 20.7073 14.8832 21.4134 14.6705C21.447 14.6604 21.4801 14.6516 21.5131 14.6428V17.9032C21.1516 17.7228 20.8682 17.5492 20.6422 17.372ZM24.4279 22.0465C24.2947 22.8386 23.7133 23.6842 22.7202 23.9387V19.7127C22.8376 19.7556 22.9576 19.799 23.0833 19.8434C24.5854 20.3743 24.4922 21.6639 24.4279 22.0465Z" fill="white"/>
</g>
<defs>
<clipPath id="clip0">
<rect width="40" height="40" fill="white"/>
</clipPath>
</defs>
</svg>
