<svg width="85" height="86" viewBox="0 0 85 86" fill="none" xmlns="http://www.w3.org/2000/svg">
<g clip-path="url(#clip0)">
<path d="M80.7047 47.0818C77.3909 48.7699 73.7642 49.8955 70.3251 51.2085C69.8875 51.396 69.3872 50.8958 69.3872 50.5207C69.4499 48.3323 69.3874 46.0188 70.075 43.9554L70.0125 43.8928C62.947 35.7018 49.066 34.8266 39.0618 34.3262C27.5568 33.701 15.4266 34.8265 5.29729 40.5789C4.1718 41.4543 2.98379 42.3922 1.92084 43.4552C1.42062 43.9554 0.732826 43.2676 1.17051 42.7049C1.35809 42.5173 1.54568 42.3297 1.73326 42.1421C1.48315 41.892 1.48315 41.5169 1.79578 41.2042C2.54611 40.5789 3.42148 40.0787 4.23433 39.516C21.6793 23.0714 54.8811 23.6342 72.4511 39.0783C72.8888 37.5151 73.4515 35.9521 73.8268 34.3263C73.9516 33.576 74.8896 33.6386 75.2648 34.1388C77.9535 37.7028 79.2665 42.0172 81.0173 46.0188C81.2048 46.3314 81.2048 46.8316 80.7047 47.0818ZM74.8271 36.202C74.3895 37.3901 73.8267 38.453 73.4515 39.7035C73.2639 40.1414 72.8262 40.2037 72.5761 40.0787C72.3885 40.2663 72.1383 40.2664 71.8883 40.1412C54.4434 27.6984 32.1213 25.7601 13.8008 35.0767C22.1794 32.5756 31.4334 32.3255 39.8745 32.7632C46.0648 33.0757 52.1298 33.8886 58.0698 35.4518C62.6968 36.7023 67.949 38.8283 70.2626 43.2676C70.5753 42.5798 71.5757 43.08 71.4506 43.7052C71.2005 45.581 71.0129 47.3943 70.9504 49.2076C73.764 48.1445 76.6403 47.1443 79.3288 45.8311C77.8909 42.6423 76.7029 39.2033 74.8271 36.202Z" fill="#8F8F8F"/>
</g>
<defs>
<clipPath id="clip0">
<rect width="60" height="60" fill="white" transform="matrix(0.707107 0.707107 0.707107 -0.707107 0 43)"/>
</clipPath>
</defs>
</svg>
