<svg width="63" height="40" viewBox="0 0 63 40" fill="none" xmlns="http://www.w3.org/2000/svg">
<rect width="63" height="40" rx="4" fill="white"/>
<g clip-path="url(#clip0)">
<path d="M45.7354 17.0739L47.5481 15.7378H41.4807V23.7622H47.5481V22.426H43.2122V20.372H46.9104V19.0358H43.2122V17.0739H45.7354Z" fill="#21A038"/>
<path d="M36.9014 18.8659H34.7943V17.0739H38.1581L39.9708 15.7378H33.0627V23.7622H36.6781C38.7057 23.7622 39.8689 22.8435 39.8689 21.2413C39.8689 19.7096 38.8147 18.8659 36.9014 18.8659ZM36.6 22.426H34.7943V20.2016H36.6C37.6992 20.2016 38.211 20.5736 38.211 21.3136C38.2106 22.0699 37.6687 22.426 36.6 22.426Z" fill="#21A038"/>
<path d="M52.4632 15.7378H49.1599V23.7622H50.8914V21.4892H52.4632C54.5711 21.4892 55.8808 20.3808 55.8808 18.6095C55.8808 16.8383 54.5716 15.7378 52.4632 15.7378ZM52.4261 20.1531H50.8914V17.0739H52.4261C53.5355 17.0739 54.1466 17.6207 54.1466 18.6135C54.1466 19.6064 53.5359 20.1531 52.4261 20.1531Z" fill="#21A038"/>
<path d="M30.0905 22.0249C29.6466 22.2698 29.1294 22.3995 28.5959 22.3995C27.0347 22.3995 25.9019 21.2853 25.9019 19.7502C25.9019 18.2151 27.0351 17.1009 28.5959 17.1009C29.1863 17.1009 29.7158 17.2668 30.1708 17.5938L31.4125 16.6786L31.3304 16.6067C30.6054 15.9695 29.6364 15.6328 28.5288 15.6328C27.3272 15.6328 26.2364 16.0379 25.458 16.7739C24.6748 17.5139 24.2437 18.5553 24.2437 19.7061C24.2437 20.8622 24.6734 21.919 25.4536 22.6815C26.2364 23.4466 27.3246 23.868 28.5178 23.868C29.7661 23.868 30.8561 23.4329 31.5948 22.6409C31.0246 22.2208 30.4744 21.8153 30.4744 21.8153L30.0905 22.0249Z" fill="#21A038"/>
<path d="M18.8399 15.6729C19.1549 16.0797 19.4241 16.5241 19.639 16.9984L13.5633 21.4759L11.0251 19.8847V17.9705L13.5633 19.5617L18.8399 15.6729Z" fill="#21A038"/>
<path d="M8.43576 19.7497C8.43576 19.6636 8.43796 19.5784 8.44237 19.4933L6.90414 19.4165C6.89884 19.5268 6.89575 19.638 6.89575 19.7497C6.89575 21.591 7.64193 23.2581 8.84878 24.4645L9.93957 23.3737C9.01072 22.4453 8.43576 21.1635 8.43576 19.7497Z" fill="url(#paint0_linear)"/>
<path d="M13.5633 14.622C13.6493 14.622 13.7345 14.6251 13.8196 14.629L13.8964 13.0899C13.7861 13.0846 13.6749 13.0815 13.5633 13.0815C11.7219 13.0815 10.0548 13.8277 8.84839 15.0346L9.93919 16.1254C10.8676 15.197 12.1499 14.622 13.5633 14.622Z" fill="url(#paint1_linear)"/>
<path d="M13.5633 24.8774C13.4772 24.8774 13.392 24.8751 13.3069 24.8707L13.2301 26.409C13.3404 26.4143 13.4516 26.4174 13.5633 26.4174C15.4046 26.4174 17.0717 25.6712 18.2781 24.4643L17.1873 23.3735C16.2589 24.3019 14.9771 24.8774 13.5633 24.8774Z" fill="url(#paint2_linear)"/>
<path d="M16.4539 15.5169L17.7508 14.5611C16.6062 13.6362 15.1496 13.0815 13.5632 13.0815V14.622C14.6351 14.622 15.6305 14.9525 16.4539 15.5169Z" fill="url(#paint3_linear)"/>
<path d="M20.2312 19.7492C20.2312 19.3415 20.1946 18.9421 20.1244 18.5547L18.689 19.6124C18.6903 19.6578 18.6907 19.7033 18.6907 19.7492C18.6907 21.2548 18.0386 22.6108 17.0016 23.5498L18.0363 24.6935C19.3844 23.4739 20.2312 21.7106 20.2312 19.7492Z" fill="#21A038"/>
<path d="M13.5633 24.8771C12.0577 24.8771 10.7017 24.225 9.76266 23.188L8.6189 24.2227C9.839 25.5704 11.6023 26.4171 13.5633 26.4171V24.8771Z" fill="url(#paint4_linear)"/>
<path d="M10.1249 15.9494L9.09015 14.8057C7.74253 16.0258 6.89575 17.7891 6.89575 19.7501H8.4362C8.43575 18.2445 9.08794 16.8884 10.1249 15.9494Z" fill="url(#paint5_linear)"/>
</g>
<defs>
<linearGradient id="paint0_linear" x1="9.1601" y1="24.272" x2="7.47703" y2="19.4069" gradientUnits="userSpaceOnUse">
<stop offset="0.1444" stop-color="#F2E913"/>
<stop offset="0.3037" stop-color="#E7E518"/>
<stop offset="0.5823" stop-color="#CADB26"/>
<stop offset="0.891" stop-color="#A3CD39"/>
</linearGradient>
<linearGradient id="paint1_linear" x1="9.28841" y1="15.3074" x2="13.6233" y2="13.6554" gradientUnits="userSpaceOnUse">
<stop offset="0.0592" stop-color="#0FA8E0"/>
<stop offset="0.5385" stop-color="#0099F9"/>
<stop offset="0.9234" stop-color="#0291EB"/>
</linearGradient>
<linearGradient id="paint2_linear" x1="13.1286" y1="25.4882" x2="18.0306" y2="24.3803" gradientUnits="userSpaceOnUse">
<stop offset="0.1226" stop-color="#A3CD39"/>
<stop offset="0.2846" stop-color="#86C339"/>
<stop offset="0.8693" stop-color="#21A038"/>
</linearGradient>
<linearGradient id="paint3_linear" x1="13.241" y1="13.5979" x2="17.4321" y2="14.8911" gradientUnits="userSpaceOnUse">
<stop offset="0.0566" stop-color="#0291EB"/>
<stop offset="0.79" stop-color="#0C8ACB"/>
</linearGradient>
<linearGradient id="paint4_linear" x1="9.00517" y1="24.0355" x2="13.5673" y2="25.7401" gradientUnits="userSpaceOnUse">
<stop offset="0.1324" stop-color="#F2E913"/>
<stop offset="0.2977" stop-color="#EBE716"/>
<stop offset="0.5306" stop-color="#D9E01F"/>
<stop offset="0.8023" stop-color="#BBD62D"/>
<stop offset="0.9829" stop-color="#A3CD39"/>
</linearGradient>
<linearGradient id="paint5_linear" x1="7.46914" y1="19.9369" x2="9.30042" y2="15.1731" gradientUnits="userSpaceOnUse">
<stop offset="0.0698" stop-color="#A3CD39"/>
<stop offset="0.2599" stop-color="#81C55F"/>
<stop offset="0.9216" stop-color="#0FA8E0"/>
</linearGradient>
<clipPath id="clip0">
<rect width="50.8333" height="14.8264" fill="white" transform="translate(6 13)"/>
</clipPath>
</defs>
</svg>
