<svg width="12" height="13" viewBox="0 0 12 13" fill="none" xmlns="http://www.w3.org/2000/svg">
<g clip-path="url(#clip0)">
<path
        d="M11.8082 3.72063L11.4151 3.32482C11.2914 3.20121 11.1268 3.13311 10.9509 3.13311C10.7751 3.13311 10.6103 3.20121 10.4866 3.32482L6.00268 7.80895L1.51357 3.31985C1.39006 3.19624 1.22528 3.12823 1.04947 3.12823C0.873665 3.12823 0.708786 3.19624 0.585175 3.31985L0.192002 3.71322C-0.0640005 3.96902 -0.0640005 4.38571 0.192002 4.64152L5.53682 10.0056C5.66034 10.1291 5.82492 10.2161 6.00229 10.2161H6.00434C6.18024 10.2161 6.34483 10.129 6.46834 10.0056L11.8082 4.65605C11.9319 4.53254 11.9998 4.36298 12 4.18717C12 4.01127 11.9319 3.84405 11.8082 3.72063Z" fill="#8F8F8F"/>
</g>
<defs>
<clipPath id="clip0">
<rect width="12" height="12" fill="white" transform="translate(0 0.672119)"/>
</clipPath>
</defs>
</svg>
