<svg width="15" height="15" viewBox="0 0 15 15" xmlns="http://www.w3.org/2000/svg">
<path d="M12.3751 9.7002C11.6721 9.7002 11.1001 10.2723 11.1001 10.9752C11.1001 11.6782 11.6721 12.2502 12.3751 12.2502C13.078 12.2502 13.6501 11.6782 13.6501 10.9752C13.6501 10.2723 13.078 9.7002 12.3751 9.7002ZM12.3751 11.3502C12.1683 11.3502 12.0001 11.182 12.0001 10.9752C12.0001 10.7684 12.1683 10.6002 12.3751 10.6002C12.5819 10.6002 12.7501 10.7684 12.7501 10.9752C12.7501 11.182 12.5819 11.3502 12.3751 11.3502Z" fill="white"/>
<path d="M12.2529 4.3999H10.05C9.88424 4.3999 9.75 4.53431 9.75 4.6999V10.5499C9.75 10.7155 9.88424 10.8499 10.05 10.8499H10.3682C10.5167 10.8499 10.6482 10.7429 10.6674 10.5957C10.7851 9.69355 11.5047 9.13407 12.3751 9.13407C13.2456 9.13407 13.9651 9.69358 14.0829 10.5957C14.1021 10.743 14.2335 10.8499 14.3821 10.8499H14.7C14.8656 10.8499 15 10.7155 15 10.5499V7.6249C15 7.55441 14.9752 7.4863 14.9301 7.43245L12.483 4.50745C12.426 4.43936 12.3417 4.3999 12.2529 4.3999ZM10.35 6.7999V5.2999C10.35 5.13431 10.4842 4.9999 10.65 4.9999H11.9715C12.0604 4.9999 12.1449 5.03951 12.2019 5.10789L13.4518 6.60789C13.6146 6.80333 13.4757 7.0999 13.2213 7.0999H10.65C10.4842 7.0999 10.35 6.96566 10.35 6.7999Z" fill="white"/>
<path d="M0.3 10.85H1.06816C1.21667 10.85 1.34821 10.7431 1.3674 10.5958C1.48515 9.69368 2.20471 9.13419 3.07515 9.13419C3.94559 9.13419 4.66515 9.6937 4.78289 10.5958C4.80208 10.7431 4.93348 10.85 5.08213 10.85H8.85C9.01561 10.85 9.15 10.7156 9.15 10.55V3.05C9.15 2.88441 9.01559 2.75 8.85 2.75H0.3C0.13424 2.75 0 2.88441 0 3.05V10.55C0 10.7156 0.13424 10.85 0.3 10.85Z" fill="white"/>
<path d="M3.07505 9.7002C2.37201 9.7002 1.80005 10.2723 1.80005 10.9752C1.80005 11.6782 2.37201 12.2502 3.07505 12.2502C3.77794 12.2502 4.35005 11.6782 4.35005 10.9752C4.35005 10.2723 3.77794 9.7002 3.07505 9.7002ZM3.07505 11.3502C2.86821 11.3502 2.70005 11.182 2.70005 10.9752C2.70005 10.7684 2.86821 10.6002 3.07505 10.6002C3.28189 10.6002 3.45005 10.7684 3.45005 10.9752C3.45005 11.182 3.28189 11.3502 3.07505 11.3502Z" fill="white"/>
</svg>
