<svg width="63" height="40" viewBox="0 0 63 40" fill="none" xmlns="http://www.w3.org/2000/svg">
<path d="M63 36.326C63 38.1917 61.3327 39.704 59.276 39.704H3.72401C1.66729 39.7042 0 38.1917 0 36.326V3.6738C0 1.80818 1.66729 0.295898 3.72401 0.295898H59.276C61.3328 0.295898 63 1.80829 63 3.6738V36.326Z" fill="white"/>
<path d="M13.983 20.2271L12.5038 13.7906C12.2509 12.903 11.5151 12.6389 10.5957 12.604H3.81359L3.75317 12.8981C9.03545 14.0596 12.5306 16.8616 13.983 20.2271Z" fill="#F79F1A"/>
<path d="M29.6979 12.7334H25.3158L22.579 27.3012H26.9538L29.6979 12.7334Z" fill="#059BBF"/>
<path d="M16.6537 27.2863L23.5456 12.7432H18.9078L14.6205 22.6793L14.1629 21.1791C13.3224 19.3743 10.9206 16.7766 8.10083 15.1414L12.0199 27.2912L16.6537 27.2863Z" fill="#059BBF"/>
<path d="M42.1966 22.5392C42.2129 20.8853 41.0421 19.6238 38.5191 18.5818C36.9858 17.9088 36.0513 17.46 36.0625 16.7771C36.0625 16.1738 36.8539 15.5257 38.5687 15.5257C40.0036 15.5057 41.0367 15.7898 41.8447 16.084L42.2407 16.2487L42.8345 13.0927C41.9659 12.7984 40.6081 12.4844 38.9099 12.4844C34.584 12.4844 31.5389 14.4588 31.5113 17.2906C31.4838 19.3847 33.6883 20.5513 35.3481 21.2492C37.0519 21.9606 37.6236 22.4158 37.6126 23.054C37.6017 24.0298 36.2548 24.4748 34.9962 24.4748C33.2427 24.4748 32.3137 24.2555 30.873 23.711L30.3131 23.4778L29.6981 26.7422C30.7198 27.1472 32.6104 27.5012 34.573 27.516C39.1734 27.516 42.1637 25.5666 42.1966 22.5392Z" fill="#059BBF"/>
<path d="M47.4017 25.1177C47.9019 25.1177 52.3706 25.1228 53.0085 25.1228C53.1404 25.63 53.5416 27.3064 53.5416 27.3064H57.6035L54.0582 12.7485H50.6778C49.6279 12.7485 48.8476 13.0078 48.3857 13.9549L41.8833 27.3064H46.4843C46.4839 27.3064 47.2313 25.5118 47.4017 25.1177ZM50.4027 18.0631C50.381 18.1029 50.7657 17.2205 50.9856 16.6721L51.2822 17.9283C51.2822 17.9283 52.118 21.4085 52.2937 22.1364H48.6604C49.0232 21.2989 50.4027 18.0631 50.4027 18.0631Z" fill="#059BBF"/>
<path d="M59.276 0.295898H3.72401C1.66729 0.295898 0 1.80817 0 3.6738V7.1796H63V3.6738C63 1.80817 61.3328 0.295898 59.276 0.295898Z" fill="#059BBF"/>
<path d="M59.276 39.704H3.72401C1.66729 39.704 0 38.1916 0 36.3261V32.8203H63V36.3261C63 38.1916 61.3328 39.704 59.276 39.704Z" fill="#F79F1A"/>
<path opacity="0.15" d="M2.6476 36.326V3.6738C2.6476 1.80818 4.31501 0.295898 6.37186 0.295898H3.72389C1.66728 0.295898 0 1.80818 0 3.6738V36.3261C0 38.1918 1.66728 39.7042 3.72401 39.7042H6.37198C4.31513 39.7042 2.6476 38.1917 2.6476 36.326Z" fill="#202121"/>
</svg>
