<svg width="50" height="50" viewBox="0 0 50 50" xmlns="http://www.w3.org/2000/svg">
<path d="M47.9641 19.5945L37.5 15.1102V6.25C37.5 6.04282 37.4176 5.84414 37.2711 5.69766L33.3648 1.79141C33.2184 1.64488 33.0197 1.56254 32.8125 1.5625H3.90625C3.28465 1.5625 2.68851 1.80943 2.24897 2.24897C1.80943 2.68851 1.5625 3.28465 1.5625 3.90625V46.0938C1.5625 46.7154 1.80943 47.3115 2.24897 47.751C2.68851 48.1906 3.28465 48.4375 3.90625 48.4375H35.1562C35.7779 48.4375 36.374 48.1906 36.8135 47.751C37.2531 47.3115 37.5 46.7154 37.5 46.0938V44.1516L41.5672 41.25C43.6907 39.73 45.4216 37.726 46.6163 35.4039C47.8111 33.0817 48.4354 30.5083 48.4375 27.8969V20.3125C48.4375 20.1596 48.3926 20.0101 48.3085 19.8825C48.2243 19.7549 48.1046 19.6548 47.9641 19.5945ZM35.9375 6.57344V7.03125H32.0312V3.125H32.4891L35.9375 6.57344ZM35.1562 46.875H3.90625C3.69905 46.875 3.50034 46.7927 3.35382 46.6462C3.20731 46.4997 3.125 46.3009 3.125 46.0938V3.90625C3.125 3.69905 3.20731 3.50034 3.35382 3.35382C3.50034 3.20731 3.69905 3.125 3.90625 3.125H30.4688V7.8125C30.4688 8.0197 30.5511 8.21841 30.6976 8.36493C30.8441 8.51144 31.0428 8.59375 31.25 8.59375H35.9375V15.1102L25.4734 19.5945C25.3329 19.6548 25.2132 19.7549 25.129 19.8825C25.0449 20.0101 25 20.1596 25 20.3125V27.8969C25.0021 30.5083 25.6264 33.0817 26.8212 35.4039C28.0159 37.726 29.7468 39.73 31.8703 41.25L35.9375 44.1516V46.0938C35.9375 46.3009 35.8552 46.4997 35.7087 46.6462C35.5622 46.7927 35.3634 46.875 35.1562 46.875ZM46.875 27.8969C46.8727 30.2592 46.3077 32.5869 45.2268 34.6874C44.1459 36.7879 42.5802 38.6007 40.6594 39.9758L36.7188 42.7898L32.7781 39.9773C30.8571 38.6022 29.2912 36.7891 28.2103 34.6883C27.1294 32.5875 26.5646 30.2594 26.5625 27.8969V20.8273L36.7188 16.475L46.875 20.8273V27.8969Z" fill="black"/>
<path d="M36.4282 18.8054L28.6157 21.9304C28.4707 21.9885 28.3465 22.0887 28.259 22.2181C28.1716 22.3474 28.1249 22.5 28.125 22.6562V27.5859C28.1204 29.5785 28.5663 31.5463 29.4295 33.3422C30.2926 35.1382 31.5506 36.7158 33.1094 37.957L36.2305 40.457C36.3691 40.5679 36.5413 40.6283 36.7188 40.6283C36.8963 40.6283 37.0685 40.5679 37.2071 40.457L40.3282 37.957C41.887 36.7158 43.145 35.1382 44.0081 33.3422C44.8712 31.5463 45.3172 29.5785 45.3125 27.5859V22.6562C45.3127 22.5 45.266 22.3474 45.1785 22.2181C45.0911 22.0887 44.9669 21.9885 44.8219 21.9304L37.0094 18.8054C36.8228 18.7312 36.6148 18.7312 36.4282 18.8054ZM43.75 23.1851V27.5859C43.7543 29.3439 43.3609 31.0801 42.5994 32.6646C41.8378 34.2491 40.7278 35.6409 39.3524 36.7359L36.7188 38.8437L34.0852 36.7343C32.71 35.6395 31.6001 34.248 30.8386 32.6638C30.077 31.0795 29.6835 29.3436 29.6875 27.5859V23.1851L36.7188 20.3726L43.75 23.1851Z" fill="black"/>
<path d="M5.46875 15.625H27.3438C27.551 15.625 27.7497 15.5427 27.8962 15.3962C28.0427 15.2497 28.125 15.051 28.125 14.8438V5.46875C28.125 5.26155 28.0427 5.06284 27.8962 4.91632C27.7497 4.76981 27.551 4.6875 27.3438 4.6875H5.46875C5.26155 4.6875 5.06284 4.76981 4.91632 4.91632C4.76981 5.06284 4.6875 5.26155 4.6875 5.46875V14.8438C4.6875 15.051 4.76981 15.2497 4.91632 15.3962C5.06284 15.5427 5.26155 15.625 5.46875 15.625ZM6.25 6.25H26.5625V14.0625H6.25V6.25Z" fill="black"/>
<path d="M22.6562 34.375H5.46875C5.26155 34.375 5.06284 34.4573 4.91632 34.6038C4.76981 34.7503 4.6875 34.949 4.6875 35.1562V44.5312C4.6875 44.7385 4.76981 44.9372 4.91632 45.0837C5.06284 45.2302 5.26155 45.3125 5.46875 45.3125H22.6562C22.8635 45.3125 23.0622 45.2302 23.2087 45.0837C23.3552 44.9372 23.4375 44.7385 23.4375 44.5312V35.1562C23.4375 34.949 23.3552 34.7503 23.2087 34.6038C23.0622 34.4573 22.8635 34.375 22.6562 34.375ZM21.875 43.75H6.25V35.9375H21.875V43.75Z" fill="black"/>
<path d="M4.6875 19.5312H23.4375V21.0938H4.6875V19.5312Z" fill="black"/>
<path d="M4.6875 24.2188H23.4375V25.7812H4.6875V24.2188Z" fill="black"/>
<path d="M4.6875 28.9062H23.4375V30.4688H4.6875V28.9062Z" fill="black"/>
</svg>
