<svg width="57" height="50" viewBox="0 0 57 50" xmlns="http://www.w3.org/2000/svg">
<g clip-path="url(#clip0)">
<path d="M50.2006 -0.000244141H13.7993C13.3947 -0.000244141 13.0669 0.327688 13.0669 0.732183V46.2339C13.0669 46.6384 13.3947 46.9663 13.7993 46.9663H14.5835V49.2673C14.5835 49.6718 14.9113 49.9998 15.3159 49.9998H48.684C49.0886 49.9998 49.4164 49.6718 49.4164 49.2673V46.9663H50.2006C50.6052 46.9663 50.933 46.6384 50.933 46.2339V32.6626C50.933 32.2581 50.6052 31.9302 50.2006 31.9302C49.796 31.9302 49.4682 32.2581 49.4682 32.6626V39.4419H24.774C24.3694 39.4419 24.0416 39.7698 24.0416 40.1743C24.0416 40.5788 24.3694 40.9067 24.774 40.9067H49.4682V45.5014H47.8997V44.8534C47.8997 43.5381 46.8296 42.468 45.5141 42.468H42.7534C41.4379 42.468 40.3678 43.5381 40.3678 44.8534V45.5014H14.5317V40.9067H21.5819C21.9865 40.9067 22.3143 40.5788 22.3143 40.1743C22.3143 39.7698 21.9865 39.4419 21.5819 39.4419H14.5317V10.565H31.9207C32.3253 10.565 32.6531 10.237 32.6531 9.83255C32.6531 9.42805 32.3253 9.10012 31.9207 9.10012H26.6655V1.46461H49.4682V9.10012H35.0335C34.6289 9.10012 34.301 9.42805 34.301 9.83255C34.301 10.237 34.6289 10.565 35.0335 10.565H49.4683V29.5499C49.4683 29.9544 49.7961 30.2823 50.2007 30.2823C50.6053 30.2823 50.9331 29.9544 50.9331 29.5499V0.732183C50.933 0.327688 50.6052 -0.000244141 50.2006 -0.000244141ZM41.8327 44.8535C41.8327 44.3459 42.2457 43.9329 42.7535 43.9329H45.5142C46.0218 43.9329 46.4349 44.3459 46.4349 44.8535V45.5015H41.8328V44.8535H41.8327ZM47.9515 46.9663V48.5349H16.0484V46.9663H47.9515ZM14.5317 1.46461H25.2007V9.10012H14.5317V1.46461Z" fill="black"/>
<path d="M35.0335 7.53158H47.1672C47.5718 7.53158 47.8997 7.20365 47.8997 6.79915V3.76563C47.8997 3.36114 47.5718 3.0332 47.1672 3.0332H35.0335C34.6289 3.0332 34.301 3.36114 34.301 3.76563V6.79905C34.301 7.20365 34.6289 7.53158 35.0335 7.53158ZM35.7659 4.49806H46.4348V6.06663H35.7659V4.49806Z" fill="black"/>
<path d="M28.2341 5.28233C28.2341 6.52256 29.2431 7.53145 30.4833 7.53145C31.7234 7.53145 32.7324 6.52246 32.7324 5.28233C32.7324 4.04219 31.7234 3.0332 30.4833 3.0332C29.2431 3.0332 28.2341 4.04219 28.2341 5.28233ZM31.2675 5.28233C31.2675 5.71475 30.9157 6.0666 30.4833 6.0666C30.0508 6.0666 29.699 5.71475 29.699 5.28233C29.699 4.8499 30.0508 4.49805 30.4833 4.49805C30.9157 4.49805 31.2675 4.8499 31.2675 5.28233Z" fill="black"/>
<path d="M32.0016 37.8697C39.0971 37.8697 44.8698 32.0971 44.8698 25.0016C44.8698 17.9061 39.0972 12.1335 32.0016 12.1335C24.9061 12.1335 19.1335 17.9061 19.1335 25.0016C19.1335 32.0971 24.9061 37.8697 32.0016 37.8697ZM32.0016 13.5984C38.2895 13.5984 43.4049 18.7139 43.4049 25.0016C43.4049 31.2894 38.2895 36.4048 32.0016 36.4048C25.7139 36.4048 20.5984 31.2894 20.5984 25.0016C20.5984 18.7139 25.7139 13.5984 32.0016 13.5984Z" fill="black"/>
<path d="M26.9653 21.5433C27.2699 21.8116 27.7327 21.7803 27.999 21.4779C29.0119 20.3283 30.4708 19.6689 32.0017 19.6689C32.4063 19.6689 32.7341 19.341 32.7341 18.9365C32.7341 18.532 32.4063 18.2041 32.0017 18.2041C30.0503 18.2041 28.1908 19.0443 26.8999 20.5096C26.6325 20.813 26.6617 21.2758 26.9653 21.5433Z" fill="black"/>
<path d="M16.8327 3.03345C16.4286 3.03345 16.1003 3.36069 16.1003 3.76519C16.1003 4.16821 16.4257 4.49761 16.8328 4.49761C17.2367 4.49761 17.5652 4.16919 17.5652 3.76519C17.5653 3.35757 17.2322 3.03345 16.8327 3.03345Z" fill="black"/>
<path d="M19.866 3.03345C19.4647 3.03345 19.1335 3.35903 19.1335 3.76519C19.1335 4.17739 19.471 4.49859 19.866 4.49859C20.2641 4.49859 20.5984 4.17534 20.5984 3.76519C20.5984 3.3604 20.2695 3.03345 19.866 3.03345Z" fill="black"/>
<path d="M22.8995 3.03369C22.4984 3.03369 22.167 3.36104 22.167 3.76543C22.167 4.16943 22.4955 4.49785 22.8994 4.49785C23.3017 4.49785 23.6318 4.17451 23.6318 3.76543C23.6318 3.36426 23.3071 3.03369 22.8995 3.03369Z" fill="black"/>
<path d="M16.8327 6.06665C16.4277 6.06665 16.1003 6.39399 16.1003 6.79927C16.1003 7.20923 16.4374 7.53169 16.8328 7.53169C17.2249 7.53169 17.5652 7.21235 17.5652 6.79927C17.5653 6.40581 17.2466 6.06665 16.8327 6.06665Z" fill="black"/>
<path d="M19.8701 6.06714C19.4593 6.06714 19.1335 6.39595 19.1335 6.79936C19.1335 7.2063 19.4664 7.53178 19.866 7.53178C20.258 7.53178 20.5984 7.21382 20.5984 6.79936C20.5984 6.38433 20.2586 6.06714 19.8701 6.06714Z" fill="black"/>
<path d="M22.8995 6.06689C22.4989 6.06689 22.167 6.39316 22.167 6.79951C22.167 7.19941 22.4915 7.53193 22.8994 7.53193C23.2962 7.53193 23.6318 7.21123 23.6318 6.79951C23.6318 6.3998 23.3103 6.06689 22.8995 6.06689Z" fill="black"/>
<path d="M22.1151 12.866C22.1151 12.4615 21.7873 12.1335 21.3827 12.1335H16.8325C16.4279 12.1335 16.1001 12.4615 16.1001 12.866C16.1001 13.2705 16.4279 13.5984 16.8325 13.5984H21.3827C21.7873 13.5984 22.1151 13.2705 22.1151 12.866Z" fill="black"/>
<path d="M22.1709 25.0017C22.1709 30.4225 26.581 34.8326 32.0018 34.8326C33.5173 34.8326 34.9989 34.4872 36.3521 33.8167C36.3523 33.8167 36.3523 33.8166 36.3525 33.8166C36.3669 33.8094 36.3813 33.8023 36.3955 33.7952C39.7175 32.1346 41.8329 28.7439 41.8329 25.0018C41.8329 19.5263 37.395 15.2124 32.0786 15.1712C32.0531 15.171 32.0275 15.1709 32.0019 15.1709C26.5973 15.1708 22.1709 19.5651 22.1709 25.0017ZM23.6358 25.0213C24.1962 25.1299 24.565 25.3569 25.0005 25.6253C25.6778 26.0425 26.4452 26.5154 27.9208 26.5154C29.3965 26.5154 30.1642 26.0426 30.8415 25.6254C31.4513 25.2497 31.9331 24.9529 32.9938 24.9529C34.0546 24.9529 34.5363 25.2497 35.1462 25.6254C35.7303 25.9851 36.3815 26.3863 37.4962 26.4899C37.7441 27.6092 38.2718 28.6425 39.0456 29.5112C38.2416 30.7627 37.1135 31.787 35.7807 32.4647C34.6438 33.0406 33.3546 33.3679 32.0016 33.3679C27.3953 33.3678 23.6464 29.6254 23.6358 25.0213ZM40.3679 25.0017C40.3679 26.0899 40.159 27.1304 39.7793 28.0849C39.1421 27.1912 38.7995 26.1258 38.7995 24.9999C38.7995 23.8746 39.1418 22.8096 39.7783 21.9163C40.1586 22.8714 40.3679 23.9126 40.3679 25.0017ZM32.0018 16.6357C32.0224 16.6357 32.0431 16.6358 32.0637 16.6359C32.0692 16.6359 32.0748 16.636 32.0802 16.6361C32.0961 16.6362 32.112 16.6364 32.1278 16.6367C32.1331 16.6368 32.1384 16.6369 32.1435 16.6369C35.0427 16.6876 37.5792 18.211 39.0444 20.4902C37.9393 21.7316 37.3363 23.309 37.3346 24.9926C36.7427 24.8884 36.3633 24.6547 35.9146 24.3782C35.2372 23.961 34.4696 23.4882 32.9939 23.4882C31.5182 23.4882 30.7505 23.961 30.0733 24.3782C29.4634 24.7539 28.9817 25.0507 27.9209 25.0507C26.8604 25.0507 26.3787 24.7539 25.769 24.3783C25.248 24.0573 24.6723 23.7026 23.7608 23.5567C24.4473 19.6298 27.8815 16.6357 32.0018 16.6357Z" fill="black"/>
</g>
<rect x="7" y="14.9998" width="23" height="23" rx="11.5" fill="white"/>
<g clip-path="url(#clip1)">
<path d="M11.8359 26.1326C12.1594 26.1326 12.4219 26.3951 12.4219 26.7185C12.4219 27.0419 12.1594 27.3044 11.8359 27.3044C11.5125 27.3044 11.25 27.0419 11.25 26.7185C11.25 26.3951 11.5125 26.1326 11.8359 26.1326Z" fill="black"/>
<path d="M0.686661 40.9989L8.50775 33.1778C7.23363 31.2586 6.5625 29.0362 6.5625 26.7185C6.5625 20.2568 11.8195 14.9998 18.2812 14.9998C24.743 14.9998 30 20.2568 30 26.7185C30 33.1802 24.743 38.4373 18.2812 38.4373C15.9635 38.4373 13.7411 37.7661 11.8219 36.4921L9.66012 38.6539C9.65982 38.6542 9.65953 38.6545 9.65918 38.6548L4.0009 44.3131C3.55805 44.7559 2.96959 44.9998 2.34375 44.9998C1.71791 44.9998 1.12945 44.7559 0.686834 44.3133C0.243925 43.8707 0 43.2822 0 42.656C0 42.0298 0.243925 41.4413 0.686661 40.9989ZM12.0975 35.2572C12.0975 35.2573 12.0976 35.2573 12.0976 35.2573C13.9062 36.571 16.0444 37.2654 18.2812 37.2654C24.0968 37.2654 28.8281 32.5341 28.8281 26.7185C28.8281 20.903 24.0968 16.1716 18.2812 16.1716C12.4657 16.1716 7.73438 20.903 7.73438 26.7185C7.73438 28.9553 8.42877 31.0935 9.7425 32.9022C10.3997 33.8076 11.1921 34.6 12.0975 35.2572ZM10.8682 35.7884C10.2618 35.2923 9.7074 34.7379 9.21135 34.1316L7.54898 35.7939C8.05453 36.3906 8.60918 36.9453 9.20584 37.4508L10.8682 35.7884ZM1.51529 43.4845C1.73678 43.7059 2.03098 43.8279 2.34375 43.8279C2.65652 43.8279 2.95072 43.7059 3.17221 43.4845L8.37504 38.2816C7.78166 37.7724 7.22736 37.2182 6.71818 36.6248L1.51518 41.8278C1.29381 42.0489 1.17188 42.343 1.17188 42.656C1.17188 42.969 1.29381 43.2631 1.51529 43.4845Z" fill="black"/>
<path d="M18.2812 17.3435C23.4507 17.3435 27.6562 21.5491 27.6562 26.7185C27.6562 31.8879 23.4507 36.0935 18.2812 36.0935C13.1118 36.0935 8.90625 31.8879 8.90625 26.7185C8.90625 21.5491 13.1118 17.3435 18.2812 17.3435ZM18.2812 34.9216C22.8045 34.9216 26.4844 31.2417 26.4844 26.7185C26.4844 22.1953 22.8045 18.5154 18.2812 18.5154C13.758 18.5154 10.0781 22.1953 10.0781 26.7185C10.0781 31.2417 13.758 34.9216 18.2812 34.9216Z" fill="black"/>
<path d="M11.7149 24.2033C12.2195 22.89 13.098 21.7673 14.2556 20.9564C15.4407 20.1261 16.8328 19.6873 18.2812 19.6873C18.6048 19.6873 18.8672 19.9496 18.8672 20.2732C18.8672 20.5967 18.6048 20.8591 18.2812 20.8591C15.8731 20.8591 13.674 22.3719 12.8088 24.6236C12.7193 24.8566 12.4973 24.9995 12.2617 24.9995C12.1919 24.9995 12.1208 24.9869 12.0517 24.9604C11.7497 24.8443 11.5989 24.5054 11.7149 24.2033Z" fill="black"/>
</g>
<defs>
<clipPath id="clip0">
<rect width="50" height="50" fill="white" transform="translate(7 -0.000244141)"/>
</clipPath>
<clipPath id="clip1">
<rect width="30" height="30" fill="white" transform="matrix(-1 0 0 1 30 14.9998)"/>
</clipPath>
</defs>
</svg>
