<svg width="50" height="50" viewBox="0 0 50 50" xmlns="http://www.w3.org/2000/svg">
<g clip-path="url(#clip0)">
<path d="M45.6123 33.5932C43.7433 32.5146 41.5916 32.1642 39.4948 32.5865L31.9049 24.9999L39.5006 17.4074C40.0675 17.5199 40.6369 17.5747 41.2016 17.5746C44.2835 17.5745 47.2229 15.944 48.8189 13.1808C49.9927 11.1486 50.3045 8.78114 49.6969 6.51447C49.0892 4.24789 47.635 2.35355 45.602 1.18032C41.4057 -1.24122 36.0204 0.201119 33.5975 4.39592C32.5184 6.2641 32.1679 8.41506 32.5903 10.511L25 18.0979L24.3838 17.482C24.0023 17.1006 23.384 17.1008 23.0029 17.4822C22.6217 17.8637 22.6218 18.482 23.0032 18.8632L23.6188 19.4785L19.4764 23.6192L12.1921 16.338L16.331 12.1938L16.7877 12.6503C17.1691 13.0315 17.7873 13.0313 18.1686 12.65C18.5498 12.2686 18.5497 11.6503 18.1683 11.2691L17.404 10.5052C18.1306 6.84559 16.4464 3.07838 13.1755 1.19067C10.6416 -0.271589 7.55653 -0.378317 4.92329 0.905542C4.04974 1.33138 3.595 1.88201 3.57196 2.5422C3.5493 3.19018 3.94145 3.75165 4.73737 4.21098L7.35889 5.72382C7.80524 5.98141 7.80524 6.10621 7.80524 6.33255V7.4548C7.80524 8.15464 7.73571 8.27484 7.12933 8.62481L6.15706 9.18589C5.96713 9.29564 5.8524 9.36185 5.40557 9.10396L2.78414 7.59112C1.98823 7.13169 1.30587 7.0732 0.756119 7.41682C0.196018 7.76688 -0.0535674 8.43576 0.0141994 9.40491C0.218769 12.3267 1.85377 14.9442 4.3878 16.4066C6.25666 17.4852 8.40869 17.8355 10.5052 17.4132L18.0951 25L10.4995 32.5923C6.83863 31.8656 3.06976 33.5493 1.18127 36.8188C0.00746187 38.8511 -0.304324 41.2185 0.303234 43.4852C0.910889 45.7518 2.36504 47.6461 4.39795 48.8193C5.77848 49.616 7.28693 49.9946 8.77702 49.9944C11.8163 49.9942 14.7767 48.4187 16.4024 45.6039C17.4815 43.7357 17.8321 41.5848 17.4097 39.4889L24.9998 31.9018L32.5958 39.4945C31.8692 43.1542 33.5535 46.9215 36.8243 48.8091C38.1817 49.5925 39.6968 49.9868 41.2164 49.9868C42.5334 49.9867 43.8539 49.6903 45.0765 49.0943C45.9501 48.6685 46.4048 48.1177 46.4278 47.4575C46.4504 46.8096 46.0584 46.2482 45.2624 45.7888L42.641 44.276C42.1947 44.0183 42.1946 43.8936 42.1946 43.6673V42.5449C42.1946 41.8452 42.2641 41.7249 42.8705 41.3749L43.8427 40.8139C44.0328 40.7042 44.1474 40.638 44.5941 40.8958L47.2156 42.4086C48.0114 42.868 48.6939 42.9266 49.2438 42.5829C49.8038 42.2329 50.0535 41.5639 49.9856 40.5948C49.7814 37.673 48.1464 35.0556 45.6123 33.5932ZM5.36397 14.7151C3.42441 13.5958 2.16204 11.606 1.97084 9.37659L4.42949 10.7955C5.04017 11.148 5.9851 11.5401 7.13323 10.8774L8.1056 10.3163C9.31027 9.6211 9.75817 8.84559 9.75827 7.4549V6.33255C9.75827 5.007 8.94614 4.38499 8.33517 4.03239L5.8773 2.61397C7.90484 1.66494 10.2597 1.76278 12.1994 2.88211C14.8002 4.38303 16.1108 7.41086 15.4472 10.3151L10.3139 15.4549C8.62313 15.8456 6.87486 15.587 5.36397 14.7151ZM35.2887 5.37268C37.1733 2.11011 41.3617 0.988249 44.626 2.87195C46.207 3.78436 47.3379 5.25766 47.8104 7.02028C48.2829 8.7828 48.0405 10.6238 47.1278 12.204C45.8861 14.3536 43.6004 15.622 41.2031 15.6218C40.7012 15.6218 40.1942 15.5657 39.691 15.4509L34.5486 10.3195C34.1581 8.62969 34.4166 6.8825 35.2887 5.37268ZM14.7115 44.6272C12.827 47.8897 8.63836 49.0115 5.37422 47.1278C3.79313 46.2154 2.66218 44.7421 2.18967 42.9795C1.71716 41.2169 1.95971 39.3759 2.87242 37.7956C4.11399 35.646 6.39981 34.3779 8.79694 34.3779C9.29894 34.3779 9.80602 34.4339 10.3092 34.5487L15.4517 39.6802C15.842 41.3701 15.5836 43.1172 14.7115 44.6272ZM16.3346 37.8023L12.1886 33.6652L33.6656 12.1973L37.8115 16.3344L16.3346 37.8023ZM26.3813 30.5212L30.5237 26.3805L37.808 33.6617L33.6691 37.8059L26.3813 30.5212ZM45.5707 39.2043C44.9599 38.8517 44.0151 38.4598 42.867 39.1223L41.8946 39.6834C40.6899 40.3786 40.242 41.1542 40.242 42.5446V43.6673C40.2422 44.9927 41.0542 45.6147 41.6652 45.9674L44.1229 47.3857C42.0955 48.3349 39.7404 48.237 37.8007 47.1175C35.2 45.6166 33.8894 42.5888 34.553 39.6845L39.6861 34.5447C41.3772 34.1542 43.1254 34.4127 44.6362 35.2846C46.5758 36.4039 47.8381 38.3937 48.0293 40.6231L45.5707 39.2043Z" fill="black"/>
<path d="M37.7907 11.3248L40.7201 13.0153C40.871 13.1025 41.0396 13.1461 41.2081 13.1461C41.3767 13.1461 41.5452 13.1025 41.6962 13.0153L44.6255 11.3248C44.9278 11.1504 45.1139 10.828 45.1139 10.4791V7.09795C45.1139 6.74906 44.9278 6.42663 44.6255 6.25223L41.6962 4.56167C41.3943 4.38737 41.0221 4.38727 40.7201 4.56167L37.7907 6.25223C37.4884 6.42663 37.3022 6.74906 37.3022 7.09795V10.4791C37.3022 10.828 37.4884 11.1503 37.7907 11.3248ZM39.2552 7.66176L41.2081 6.53472L43.161 7.66176V9.91506L41.2081 11.0421L39.2552 9.91506V7.66176Z" fill="black"/>
<path d="M12.2093 38.675L9.27989 36.9845C8.97777 36.8102 8.60584 36.8102 8.30372 36.9845L5.37432 38.675C5.0721 38.8494 4.88599 39.1719 4.88599 39.5208V42.9018C4.88599 43.2507 5.0722 43.5731 5.37432 43.7475L8.30372 45.438C8.45478 45.5252 8.62322 45.5688 8.79186 45.5688C8.96049 45.5688 9.12893 45.5252 9.27999 45.438L12.2094 43.7475C12.5116 43.5731 12.6977 43.2507 12.6977 42.9018V39.5208C12.6976 39.1719 12.5114 38.8494 12.2093 38.675ZM10.7447 42.3379L8.79176 43.4649L6.83882 42.3379V40.0846L8.79176 38.9575L10.7447 40.0846V42.3379Z" fill="black"/>
<path d="M20.5859 16.0428C21.1252 16.0428 21.5624 15.6056 21.5624 15.0663C21.5624 14.527 21.1252 14.0898 20.5859 14.0898H20.5852C20.0459 14.0898 19.6091 14.527 19.6091 15.0663C19.6091 15.6056 20.0466 16.0428 20.5859 16.0428Z" fill="black"/>
</g>
<defs>
<clipPath id="clip0">
<rect width="50" height="50" fill="white" transform="translate(0 -0.000244141)"/>
</clipPath>
</defs>
</svg>
