<svg xmlns="http://www.w3.org/2000/svg" width="64" height="96" viewBox="0 0 64 96"><path fill="#5198fe" d="M28.12 11.76c.54 0 .97.43.97.97 0 .55-.43.98-.97.98H12.61a.97.97 0 0 1-.97-.98c0-.54.43-.97.97-.97zm16.49 7.83h16.08L44.6 3.34zm-16.49 3.92c.54 0 .97.44.97.98s-.43.98-.97.98H12.61a.98.98 0 0 1-.97-.98c0-.54.43-.98.97-.98zM51.4 35.27c.54 0 .97.43.97.97 0 .55-.43.98-.97.98H12.61a.97.97 0 0 1-.97-.98c0-.54.43-.97.97-.97zm0 11.75c.54 0 .97.44.97.98s-.43.98-.97.98H12.61a.98.98 0 0 1-.97-.98c0-.54.43-.98.97-.98zM28.1 64.84c.41.12.7.51.7.96-.03 1.66-.02 3.33-.01 5v3.93a.92.92 0 0 1 .57-.19 1 1 0 0 1 .34.06c.4.15.66.56.63 1-.03.41.02.63.09.75.17-2.68.77-6.26 2.75-7.29.43-.22.91-.31 1.43-.31.9 0 1.92.26 2.92.52.66.17 1.29.33 1.73.36l.3.03c1.15.09 2.5.2 3.83.2 1.39 0 2.75-.12 3.82-.5a.95.95 0 0 1 1.24.59.98.98 0 0 1-.59 1.25c-1.31.47-2.9.62-4.48.62-1.4 0-2.79-.12-3.97-.21l-.3-.03c-.61-.05-1.31-.22-2.06-.42a12.1 12.1 0 0 0-2.47-.45c-.21 0-.39.02-.5.09-.82.42-1.37 2.28-1.62 4.5.22-.25.44-.49.68-.71a.95.95 0 0 1 1.19-.11c.37.24.53.71.4 1.13a4.26 4.26 0 0 1-1.6 2.06 6.79 6.79 0 0 0-.82 1.9c-.11.45-.5.75-.95.75h-.09a.98.98 0 0 1-.87-.93l-.03-.94a2.3 2.3 0 0 1-1.6-1.07c-.08.07-.14.13-.18.19a.97.97 0 0 1-.8.42c-.1 0-.2-.01-.3-.04a1 1 0 0 1-.66-.96c.05-2.06.04-4.12.03-6.18l-.01-1.9c-.5.66-1.02 1.31-1.54 1.96-1 1.25-2.03 2.54-2.9 3.87-1.64 2.49-2.7 3.52-3.71 3.52-.14 0-.28-.02-.42-.06-1.41-.39-1.58-2.36-1.75-5.64h-.06a.95.95 0 0 1-.77-.43.99.99 0 0 1 .27-1.36l.11-.12c.16-.2.5-.63 1.21-.63.09 0 .17 0 .27.02.46.06.81.45.84.92l.04.9c.07 1.5.17 3.48.41 4.28.3-.26.9-.9 1.94-2.48a50.48 50.48 0 0 1 3.01-4.02c1.19-1.49 2.3-2.89 3.2-4.37a.97.97 0 0 1 1.1-.43zM1.94 1.96v92.08h60.12V21.55H43.64a.98.98 0 0 1-.97-.98V1.96zM43.64 0c.25 0 .5.1.68.29l19.4 19.59c.08.09.16.2.2.32.05.11.08.24.08.37v74.45c0 .54-.43.98-.97.98H.97a.98.98 0 0 1-.97-.98V.98C0 .44.43 0 .97 0z"/></svg>