<svg xmlns="http://www.w3.org/2000/svg" width="64" height="64" viewBox="0 0 64 64"><path fill="#fff" d="M16.28 3.48a2.99 2.99 0 0 0-.96 2.16c0 2.02 2.16 3.63 4.78 3.63h.12c8.51 0 10.32-1.16 10.67-1.51.05-.05.1-.1.1-.15 0-1.51-7.46-5.59-10.88-5.59-1.51 0-2.93.5-3.83 1.46zm20.91.75c-3.17 1.62-4.18 2.98-4.18 3.33 0 0 .65 1.71 10.88 1.71 1.51 0 2.93-.5 3.83-1.46a3 3 0 0 0 .96-2.17c0-1.96-2.12-3.62-4.79-3.62-1.36 0-4.18.9-6.7 2.21zM2.02 11.29v9.22h23.23v-9.22zm24.24 0v9.22H37.8v-9.22zm12.54 0v9.22h23.18v-9.22zM3.98 22.53v39.45h21.27V22.53zm22.28 0v39.45H37.8V22.53zm12.54 0v39.45h21.22V22.53zM50.7 5.64c0 1.31-.56 2.57-1.57 3.58l-.04.05h13.9c.56 0 1.01.46 1.01 1.01v11.19c0 .6-.45 1.06-1.01 1.06h-.96v40.46a1 1 0 0 1-1 1.01H2.97a1 1 0 0 1-1-1.01V22.53h-.96c-.56 0-1.01-.46-1.01-1.01V10.28c0-.55.45-1.01 1.01-1.01h13.88a5.09 5.09 0 0 1-1.59-3.63c0-1.31.56-2.57 1.57-3.57A7.39 7.39 0 0 1 20.11.05c2.53 0 9.25 2.57 11.85 5.41 1.05-1.18 2.78-2.24 4.32-3.04C38.65 1.26 41.93 0 43.89 0c3.78 0 6.81 2.52 6.81 5.64z"/></svg>