<svg xmlns="http://www.w3.org/2000/svg" width="20" height="20" viewBox="0 0 20 20"><path fill="#fff" d="M13.61 10.5c0 .18-.14.32-.32.32a.31.31 0 0 1-.31-.32 2.48 2.48 0 0 0-2.48-2.48.32.32 0 1 1 0-.63 3.1 3.1 0 0 1 3.11 3.11zm3.2 0c0 .18-.15.32-.32.32a.32.32 0 0 1-.32-.32 5.67 5.67 0 0 0-5.67-5.67.32.32 0 1 1 0-.64 6.31 6.31 0 0 1 6.31 6.31zm3.19 0c0 .18-.14.32-.32.32a.31.31 0 0 1-.31-.32c0-4.9-3.97-8.87-8.87-8.87a.32.32 0 1 1 0-.63 9.5 9.5 0 0 1 9.5 9.5zM4.08 4.8c.32 0 .65.13.9.38l1.7 1.7c.5.5.5 1.3 0 1.8l-.57.57a.33.33 0 0 0-.02.43 38.67 38.67 0 0 0 5.23 5.23.33.33 0 0 0 .43-.02l.56-.56a1.28 1.28 0 0 1 1.81 0l1.7 1.69c.5.5.5 1.31 0 1.81l-.93.93a2.09 2.09 0 0 1-2.62.26A36.94 36.94 0 0 1 1.98 8.72a2.07 2.07 0 0 1 .26-2.6l.93-.94c.25-.25.58-.37.91-.37zm0-.63c-.49 0-.98.2-1.36.57l-.93.92a2.71 2.71 0 0 0-.34 3.42 37.5 37.5 0 0 0 10.47 10.47 2.72 2.72 0 0 0 3.41-.34l.93-.93a1.9 1.9 0 0 0 0-2.7l-1.69-1.7a1.93 1.93 0 0 0-2.71 0l-.36.36A37.83 37.83 0 0 1 6.76 9.5l.36-.36a1.9 1.9 0 0 0 0-2.71l-1.69-1.7a1.9 1.9 0 0 0-1.35-.56z"/></svg>