<?xml version="1.0"?>
<svg xmlns="http://www.w3.org/2000/svg" xmlns:xlink="http://www.w3.org/1999/xlink" version="1.1" id="Capa_1" x="0px" y="0px" viewBox="0 0 359.201 359.201" style="enable-background:new 0 0 359.201 359.201;" xml:space="preserve" width="512px" height="512px"><g><g>
	<g>
		<path d="M354.161,285.926c-0.62-4.234-4.462-7.23-8.72-6.8c-4.368,0.542-7.478,4.509-6.96,8.88l2.96,24l-63.36-40v-102.8    c-0.036-0.905-0.225-1.798-0.56-2.64v-0.64c-0.376-0.828-0.89-1.585-1.52-2.24c-0.411-0.422-0.867-0.798-1.36-1.12l-86.96-52    v-76.08l18.48,15.2c3.577,2.593,8.579,1.796,11.173-1.781c2.368-3.266,1.934-7.784-1.013-10.539l-31.76-26.24h-0.72l-0.96-0.64    h-0.72h-1.2h-1.12h-0.8h-1.12h-1.2h-0.72l-0.96,0.64h-0.72l-31.44,26.24c-3.227,3.018-3.397,8.08-0.379,11.307    c2.755,2.946,7.273,3.38,10.539,1.013l18.64-15.2v76.08l-86.8,51.04c-2.43,1.441-3.919,4.055-3.92,6.88c0,0,0,0,0,0.4    c0,0.15,0,0.188,0,0.176v102.224l-62.88,40l2.88-23.12c0.53-4.418-2.622-8.43-7.04-8.96c-4.418-0.53-8.43,2.622-8.96,7.04    l-4.96,40.88c0,0,0,0.56,0,0.8c-0.013,1.04,0.177,2.073,0.56,3.04c0.196,0.475,0.437,0.931,0.72,1.36    c0.278,0.432,0.6,0.834,0.96,1.2l1.12,1.04l1.36,0.8l0.72,0.4l38.88,12.64c4.249,1.213,8.676-1.249,9.888-5.497    c1.149-4.026-1-8.256-4.928-9.703l-23.36-8l63.2-40l86.32,51.52l1.2,0.48h0.72c1.362,0.367,2.798,0.367,4.16,0h0.72l1.2-0.48    l86.32-51.52l62.8,40l-22.64,7.36c-4.146,1.527-6.269,6.126-4.743,10.272c1.447,3.928,5.677,6.077,9.703,4.928l38.88-12.64    l0.72-0.4l1.36-0.8l1.12-0.96c0.36-0.366,0.682-0.768,0.96-1.2c0.283-0.429,0.524-0.885,0.72-1.36c0.383-0.967,0.573-2,0.56-3.04    c0,0,0-0.56,0-0.8L354.161,285.926z M171.681,315.926l-74.56-44.48v-88.96l74.56,43.92V315.926z M179.681,212.566l-74.88-44.08    l74.88-44.08l74.88,44.64L179.681,212.566z M262.081,271.366l-74.4,44.56v-89.44l74.4-43.36V271.366z" data-original="#000000" class="active-path" data-old_color="#000000" fill="#1B75BB"/>
	</g>
</g></g> </svg>
