<?xml version="1.0"?>
<svg xmlns="http://www.w3.org/2000/svg" xmlns:xlink="http://www.w3.org/1999/xlink" version="1.1" id="Capa_1" x="0px" y="0px" viewBox="0 0 511 511" style="enable-background:new 0 0 511 511;" xml:space="preserve" width="512px" height="512px"><g><g>
	<path d="M507.122,3.508C505.75,1.325,503.352,0,500.773,0H371.812c-2.883,0-5.51,1.652-6.759,4.25l-90.797,188.858   c-6.154-0.724-12.41-1.108-18.755-1.108s-12.602,0.384-18.755,1.108L145.948,4.25C144.699,1.652,142.071,0,139.188,0H10.227   C7.648,0,5.25,1.325,3.878,3.508C2.505,5.69,2.35,8.426,3.468,10.75l120.5,250.639C106.336,287.044,96,318.086,96,351.5   C96,439.449,167.551,511,255.5,511S415,439.449,415,351.5c0-33.414-10.336-64.456-27.968-90.111l120.5-250.639   C508.65,8.426,508.495,5.69,507.122,3.508z M376.527,15h47.045l-93.908,195.328c-12.459-6.572-25.886-11.541-40.01-14.634   L376.527,15z M221.345,195.694c-15.331,3.358-29.841,8.925-43.183,16.354L83.427,15h51.045L221.345,195.694z M22.155,15h44.629   l98.558,205c-11.572,7.958-22.044,17.401-31.142,28.054L22.155,15z M255.5,496C175.822,496,111,431.178,111,351.5   S175.822,207,255.5,207S400,271.822,400,351.5S335.178,496,255.5,496z M376.8,248.054c-9.885-11.573-21.392-21.718-34.167-30.083   L440.216,15h48.629L376.8,248.054z" data-original="#000000" class="active-path" data-old_color="#000000" fill="#1B75BB"/>
	<path d="M303.873,371.995l25.883-25.23c4.255-4.148,5.758-10.237,3.922-15.889c-1.836-5.652-6.631-9.694-12.513-10.549   l-35.77-5.198l-15.997-32.413c-2.63-5.33-7.957-8.64-13.899-8.64s-11.269,3.311-13.899,8.64l-15.997,32.413l-35.77,5.198   c-5.881,0.854-10.676,4.897-12.513,10.549c-1.836,5.652-0.333,11.741,3.922,15.889l25.883,25.23l-6.11,35.625   c-1.005,5.857,1.358,11.667,6.166,15.16c4.808,3.494,11.063,3.946,16.324,1.18l31.993-16.82l31.994,16.82   c2.288,1.203,4.764,1.797,7.227,1.797c3.201,0,6.38-1.003,9.097-2.977c4.808-3.493,7.17-9.302,6.166-15.159L303.873,371.995z    M288.422,370.644l6.776,39.512c0.025,0.144,0.053,0.306-0.199,0.488c-0.25,0.183-0.404,0.104-0.526,0.038l-35.483-18.655   c-1.093-0.574-2.292-0.861-3.49-0.861s-2.397,0.287-3.49,0.861l-35.483,18.655c-0.123,0.065-0.276,0.145-0.527-0.038   c-0.251-0.182-0.224-0.345-0.199-0.489l6.776-39.512c0.417-2.433-0.389-4.915-2.157-6.638l-28.706-27.982   c-0.104-0.102-0.223-0.217-0.126-0.512c0.096-0.296,0.267-0.321,0.404-0.341l39.671-5.765c2.443-0.355,4.555-1.889,5.647-4.103   l17.742-35.949c0.061-0.124,0.137-0.279,0.448-0.279s0.387,0.155,0.448,0.279l17.742,35.949c1.092,2.213,3.204,3.748,5.647,4.103   l39.671,5.765c0.137,0.02,0.308,0.045,0.404,0.341c0.096,0.295-0.022,0.411-0.126,0.512l-28.707,27.982   C288.812,365.729,288.005,368.211,288.422,370.644z" data-original="#000000" class="active-path" data-old_color="#000000" fill="#1B75BB"/>
	<path d="M140.802,356.8c1.4-1.39,2.2-3.33,2.2-5.3c0-1.97-0.8-3.91-2.2-5.3c-1.4-1.4-3.33-2.2-5.3-2.2c-1.98,0-3.91,0.8-5.31,2.2   c-1.39,1.39-2.19,3.33-2.19,5.3c0,1.97,0.8,3.91,2.19,5.3c1.4,1.4,3.33,2.2,5.31,2.2C137.472,359,139.402,358.2,140.802,356.8z" data-original="#000000" class="active-path" data-old_color="#000000" fill="#1B75BB"/>
	<path d="M370.192,346.2c-1.39,1.39-2.19,3.33-2.19,5.3c0,1.97,0.8,3.91,2.19,5.3c1.4,1.4,3.33,2.2,5.31,2.2c1.97,0,3.9-0.8,5.3-2.2   c1.4-1.39,2.2-3.33,2.2-5.3c0-1.97-0.8-3.91-2.2-5.3c-1.39-1.4-3.33-2.2-5.3-2.2C373.522,344,371.592,344.8,370.192,346.2z" data-original="#000000" class="active-path" data-old_color="#000000" fill="#1B75BB"/>
	<path d="M255.502,464c-1.98,0-3.91,0.8-5.31,2.2c-1.39,1.39-2.19,3.33-2.19,5.3c0,1.97,0.8,3.91,2.19,5.3   c1.4,1.4,3.33,2.2,5.31,2.2c1.97,0,3.9-0.8,5.3-2.2c1.4-1.39,2.2-3.33,2.2-5.3c0-1.97-0.8-3.91-2.2-5.3   C259.402,464.8,257.472,464,255.502,464z" data-original="#000000" class="active-path" data-old_color="#000000" fill="#1B75BB"/>
	<path d="M255.502,239c1.97,0,3.9-0.8,5.3-2.2c1.4-1.39,2.2-3.32,2.2-5.3c0-1.97-0.8-3.91-2.2-5.3c-1.39-1.4-3.33-2.2-5.3-2.2   c-1.98,0-3.91,0.8-5.31,2.2c-1.39,1.39-2.19,3.33-2.19,5.3c0,1.97,0.8,3.91,2.19,5.3C251.592,238.2,253.522,239,255.502,239z" data-original="#000000" class="active-path" data-old_color="#000000" fill="#1B75BB"/>
	<path d="M170.652,274.15c1.97,0,3.9-0.8,5.3-2.2c1.39-1.4,2.19-3.33,2.19-5.3c0-1.98-0.8-3.91-2.19-5.31   c-1.4-1.39-3.33-2.19-5.3-2.19c-1.98,0-3.91,0.8-5.31,2.19c-1.39,1.4-2.19,3.33-2.19,5.31c0,1.97,0.8,3.9,2.19,5.3   C166.742,273.35,168.672,274.15,170.652,274.15z" data-original="#000000" class="active-path" data-old_color="#000000" fill="#1B75BB"/>
	<path d="M340.352,428.85c-1.97,0-3.91,0.8-5.3,2.2c-1.4,1.4-2.2,3.33-2.2,5.3c0,1.98,0.8,3.91,2.2,5.31   c1.39,1.39,3.33,2.19,5.3,2.19c1.97,0,3.91-0.8,5.3-2.19c1.4-1.4,2.2-3.33,2.2-5.31c0-1.97-0.8-3.9-2.2-5.3   C344.262,429.65,342.322,428.85,340.352,428.85z" data-original="#000000" class="active-path" data-old_color="#000000" fill="#1B75BB"/>
	<path d="M170.642,428.85c-1.97,0-3.9,0.8-5.3,2.2c-1.39,1.39-2.19,3.33-2.19,5.3c0,1.98,0.8,3.91,2.19,5.31   c1.4,1.39,3.33,2.19,5.3,2.19c1.98,0,3.91-0.8,5.31-2.19c1.39-1.4,2.2-3.33,2.2-5.31c0-1.97-0.81-3.9-2.2-5.3   C174.552,429.65,172.622,428.85,170.642,428.85z" data-original="#000000" class="active-path" data-old_color="#000000" fill="#1B75BB"/>
	<path d="M340.352,274.15c1.97,0,3.91-0.8,5.3-2.2c1.4-1.4,2.2-3.33,2.2-5.3c0-1.98-0.8-3.91-2.2-5.31   c-1.39-1.39-3.32-2.19-5.3-2.19s-3.91,0.8-5.3,2.19c-1.4,1.4-2.2,3.33-2.2,5.31c0,1.97,0.8,3.9,2.2,5.3   C336.442,273.35,338.382,274.15,340.352,274.15z" data-original="#000000" class="active-path" data-old_color="#000000" fill="#1B75BB"/>
	<path d="M152.132,397.42c0-1.97-0.8-3.91-2.2-5.3c-1.39-1.4-3.32-2.2-5.3-2.2c-1.97,0-3.9,0.8-5.3,2.2c-1.4,1.4-2.2,3.33-2.2,5.3   c0,1.98,0.8,3.91,2.2,5.3c1.4,1.4,3.33,2.2,5.3,2.2c1.98,0,3.91-0.8,5.3-2.2C151.332,401.33,152.132,399.4,152.132,397.42z" data-original="#000000" class="active-path" data-old_color="#000000" fill="#1B75BB"/>
	<path d="M358.862,305.58c0,1.97,0.8,3.9,2.2,5.3s3.33,2.2,5.3,2.2c1.98,0,3.91-0.8,5.31-2.2c1.39-1.4,2.19-3.33,2.19-5.3   c0-1.98-0.8-3.91-2.19-5.31c-1.4-1.39-3.33-2.19-5.31-2.19c-1.97,0-3.9,0.8-5.3,2.19C359.662,301.67,358.862,303.6,358.862,305.58z   " data-original="#000000" class="active-path" data-old_color="#000000" fill="#1B75BB"/>
	<path d="M301.422,454.87c-1.98,0-3.91,0.8-5.3,2.19c-1.4,1.4-2.2,3.33-2.2,5.31c0,1.97,0.8,3.9,2.2,5.3c1.39,1.39,3.32,2.2,5.3,2.2   c1.97,0,3.91-0.81,5.3-2.2c1.4-1.4,2.2-3.33,2.2-5.3c0-1.98-0.8-3.91-2.2-5.31C305.332,455.67,303.392,454.87,301.422,454.87z" data-original="#000000" class="active-path" data-old_color="#000000" fill="#1B75BB"/>
	<path d="M209.582,248.13c1.97,0,3.9-0.8,5.3-2.19c1.39-1.4,2.2-3.33,2.2-5.31c0-1.97-0.81-3.9-2.2-5.3c-1.4-1.4-3.33-2.2-5.3-2.2   c-1.98,0-3.91,0.8-5.31,2.2c-1.39,1.4-2.19,3.33-2.19,5.3c0,1.98,0.8,3.91,2.19,5.31C205.672,247.33,207.602,248.13,209.582,248.13   z" data-original="#000000" class="active-path" data-old_color="#000000" fill="#1B75BB"/>
	<path d="M144.632,313.08c1.98,0,3.91-0.8,5.31-2.2c1.39-1.4,2.19-3.33,2.19-5.3c0-1.98-0.8-3.91-2.19-5.31   c-1.4-1.39-3.33-2.19-5.31-2.19c-1.97,0-3.9,0.8-5.3,2.19c-1.4,1.4-2.2,3.33-2.2,5.31c0,1.97,0.8,3.9,2.2,5.3   C140.722,312.28,142.662,313.08,144.632,313.08z" data-original="#000000" class="active-path" data-old_color="#000000" fill="#1B75BB"/>
	<path d="M366.362,389.92c-1.97,0-3.9,0.8-5.3,2.2c-1.4,1.4-2.2,3.33-2.2,5.3c0,1.98,0.8,3.91,2.2,5.3c1.4,1.4,3.33,2.2,5.3,2.2   c1.98,0,3.91-0.8,5.31-2.2c1.39-1.39,2.19-3.32,2.19-5.3c0-1.97-0.8-3.9-2.19-5.3C370.272,390.72,368.342,389.92,366.362,389.92z" data-original="#000000" class="active-path" data-old_color="#000000" fill="#1B75BB"/>
	<path d="M209.572,454.87c-1.97,0-3.9,0.8-5.3,2.19c-1.39,1.4-2.19,3.33-2.19,5.31c0,1.97,0.8,3.9,2.19,5.3   c1.4,1.39,3.33,2.2,5.3,2.2c1.98,0,3.91-0.81,5.31-2.2c1.4-1.4,2.2-3.33,2.2-5.3c0-1.98-0.8-3.91-2.2-5.31   C213.482,455.67,211.552,454.87,209.572,454.87z" data-original="#000000" class="active-path" data-old_color="#000000" fill="#1B75BB"/>
	<path d="M301.422,248.13c1.98,0,3.91-0.8,5.3-2.19c1.4-1.4,2.2-3.33,2.2-5.31c0-1.97-0.8-3.9-2.2-5.3c-1.39-1.4-3.32-2.2-5.3-2.2   s-3.91,0.8-5.3,2.2c-1.4,1.4-2.2,3.33-2.2,5.3c0,1.98,0.8,3.91,2.2,5.31C297.512,247.33,299.442,248.13,301.422,248.13z" data-original="#000000" class="active-path" data-old_color="#000000" fill="#1B75BB"/>
	<path d="M143.212,380.73c1.4-1.4,2.2-3.33,2.2-5.31c0-1.97-0.8-3.9-2.2-5.3c-1.4-1.39-3.33-2.2-5.3-2.2c-1.98,0-3.91,0.81-5.31,2.2   c-1.39,1.4-2.19,3.33-2.19,5.3c0,1.98,0.8,3.91,2.19,5.31c1.4,1.39,3.33,2.19,5.31,2.19   C139.882,382.92,141.822,382.12,143.212,380.73z" data-original="#000000" class="active-path" data-old_color="#000000" fill="#1B75BB"/>
	<path d="M367.782,322.27c-1.39,1.4-2.19,3.33-2.19,5.31c0,1.97,0.8,3.9,2.19,5.3c1.4,1.39,3.34,2.2,5.31,2.2   c1.97,0,3.91-0.81,5.3-2.2c1.4-1.4,2.2-3.33,2.2-5.3c0-1.98-0.8-3.91-2.2-5.31c-1.39-1.39-3.33-2.2-5.3-2.2   C371.122,320.07,369.182,320.88,367.782,322.27z" data-original="#000000" class="active-path" data-old_color="#000000" fill="#1B75BB"/>
	<path d="M279.422,461.59c-1.97,0-3.91,0.8-5.3,2.2c-1.4,1.39-2.2,3.32-2.2,5.3s0.8,3.91,2.2,5.3c1.4,1.4,3.33,2.2,5.3,2.2   c1.97,0,3.91-0.8,5.31-2.2c1.39-1.39,2.19-3.33,2.19-5.3s-0.8-3.91-2.19-5.3C283.332,462.39,281.402,461.59,279.422,461.59z" data-original="#000000" class="active-path" data-old_color="#000000" fill="#1B75BB"/>
	<path d="M231.572,241.41c1.98,0,3.91-0.8,5.31-2.2c1.39-1.39,2.19-3.33,2.19-5.3c0-1.97-0.8-3.91-2.19-5.3   c-1.4-1.4-3.33-2.2-5.31-2.2c-1.97,0-3.9,0.8-5.3,2.2c-1.4,1.39-2.2,3.33-2.2,5.3c0,1.97,0.8,3.91,2.2,5.3   C227.672,240.61,229.602,241.41,231.572,241.41z" data-original="#000000" class="active-path" data-old_color="#000000" fill="#1B75BB"/>
	<path d="M155.432,292.77c1.98,0,3.91-0.8,5.31-2.2c1.39-1.4,2.19-3.33,2.19-5.3c0-1.98-0.8-3.91-2.19-5.31   c-1.4-1.39-3.33-2.19-5.31-2.19c-1.97,0-3.91,0.8-5.3,2.19c-1.4,1.4-2.2,3.33-2.2,5.31c0,1.97,0.8,3.9,2.2,5.3   C151.522,291.97,153.462,292.77,155.432,292.77z" data-original="#000000" class="active-path" data-old_color="#000000" fill="#1B75BB"/>
	<path d="M355.562,410.23c-1.97,0-3.9,0.8-5.3,2.2s-2.2,3.33-2.2,5.3c0,1.98,0.8,3.91,2.2,5.31c1.4,1.39,3.33,2.19,5.3,2.19   c1.98,0,3.91-0.8,5.31-2.19c1.39-1.4,2.2-3.33,2.2-5.31c0-1.97-0.81-3.9-2.2-5.3C359.472,411.03,357.542,410.23,355.562,410.23z" data-original="#000000" class="active-path" data-old_color="#000000" fill="#1B75BB"/>
	<path d="M189.272,444.07c-1.98,0-3.91,0.8-5.31,2.19c-1.39,1.4-2.19,3.33-2.19,5.31c0,1.97,0.8,3.9,2.19,5.3   c1.4,1.4,3.33,2.2,5.31,2.2c1.97,0,3.9-0.8,5.3-2.2c1.4-1.4,2.2-3.33,2.2-5.3s-0.8-3.91-2.2-5.31   C193.172,444.87,191.242,444.07,189.272,444.07z" data-original="#000000" class="active-path" data-old_color="#000000" fill="#1B75BB"/>
	<path d="M321.732,258.93c1.98,0,3.91-0.8,5.3-2.19c1.4-1.4,2.2-3.33,2.2-5.31c0-1.97-0.8-3.91-2.2-5.3c-1.39-1.4-3.32-2.2-5.3-2.2   s-3.91,0.8-5.3,2.2c-1.4,1.39-2.2,3.33-2.2,5.3c0,1.98,0.8,3.91,2.2,5.31C317.822,258.13,319.752,258.93,321.732,258.93z" data-original="#000000" class="active-path" data-old_color="#000000" fill="#1B75BB"/>
	<path d="M161.322,413.3c-1.4-1.4-3.33-2.2-5.31-2.2c-1.97,0-3.91,0.8-5.3,2.2c-1.4,1.4-2.2,3.33-2.2,5.3c0,1.98,0.8,3.91,2.2,5.31   c1.4,1.39,3.33,2.19,5.3,2.19c1.98,0,3.91-0.8,5.31-2.19c1.39-1.4,2.19-3.33,2.19-5.31C163.512,416.63,162.712,414.7,161.322,413.3   z" data-original="#000000" class="active-path" data-old_color="#000000" fill="#1B75BB"/>
	<path d="M349.682,279.09c-1.4,1.4-2.2,3.33-2.2,5.31c0,1.97,0.8,3.91,2.2,5.3c1.4,1.4,3.33,2.2,5.3,2.2c1.98,0,3.91-0.8,5.3-2.2   c1.4-1.4,2.2-3.33,2.2-5.3c0-1.98-0.8-3.91-2.2-5.31c-1.39-1.39-3.32-2.19-5.3-2.19C353.012,276.9,351.082,277.7,349.682,279.09z" data-original="#000000" class="active-path" data-old_color="#000000" fill="#1B75BB"/>
	<path d="M322.602,443.49c-1.97,0-3.91,0.8-5.3,2.19c-1.4,1.4-2.2,3.33-2.2,5.3c0,1.98,0.8,3.91,2.2,5.31   c1.39,1.39,3.33,2.19,5.3,2.19c1.98,0,3.91-0.8,5.3-2.19c1.4-1.4,2.2-3.33,2.2-5.31c0-1.97-0.8-3.9-2.2-5.3   C326.512,444.29,324.572,443.49,322.602,443.49z" data-original="#000000" class="active-path" data-old_color="#000000" fill="#1B75BB"/>
	<path d="M188.392,259.52c1.98,0,3.91-0.81,5.31-2.2c1.39-1.4,2.2-3.33,2.2-5.3c0-1.98-0.81-3.91-2.2-5.31   c-1.4-1.39-3.33-2.19-5.31-2.19c-1.97,0-3.9,0.8-5.3,2.19c-1.39,1.4-2.19,3.33-2.19,5.31c0,1.97,0.8,3.9,2.19,5.3   C184.492,258.71,186.422,259.52,188.392,259.52z" data-original="#000000" class="active-path" data-old_color="#000000" fill="#1B75BB"/>
	<path d="M137.702,336.1c1.98,0,3.91-0.8,5.31-2.19c1.39-1.4,2.19-3.33,2.19-5.31c0-1.97-0.8-3.9-2.19-5.3   c-1.4-1.4-3.33-2.2-5.31-2.2c-1.97,0-3.91,0.8-5.3,2.2c-1.4,1.39-2.2,3.33-2.2,5.3c0,1.98,0.8,3.91,2.2,5.31   C133.802,335.3,135.732,336.1,137.702,336.1z" data-original="#000000" class="active-path" data-old_color="#000000" fill="#1B75BB"/>
	<path d="M373.292,366.9c-1.97,0-3.9,0.8-5.3,2.19c-1.4,1.4-2.2,3.33-2.2,5.31c0,1.97,0.8,3.9,2.2,5.3s3.33,2.2,5.3,2.2   c1.98,0,3.91-0.8,5.31-2.2c1.39-1.4,2.19-3.33,2.19-5.3c0-1.98-0.8-3.91-2.19-5.31C377.202,367.7,375.272,366.9,373.292,366.9z" data-original="#000000" class="active-path" data-old_color="#000000" fill="#1B75BB"/>
	<path d="M232.602,461.8c-1.97,0-3.91,0.8-5.3,2.19c-1.4,1.4-2.2,3.33-2.2,5.3c0,1.98,0.8,3.91,2.2,5.31c1.39,1.4,3.33,2.2,5.3,2.2   c1.98,0,3.91-0.8,5.3-2.2c1.4-1.4,2.2-3.33,2.2-5.31c0-1.97-0.8-3.9-2.2-5.3C236.512,462.6,234.582,461.8,232.602,461.8z" data-original="#000000" class="active-path" data-old_color="#000000" fill="#1B75BB"/>
	<path d="M278.402,241.2c1.97,0,3.9-0.8,5.3-2.19c1.39-1.4,2.2-3.33,2.2-5.31c0-1.97-0.81-3.9-2.2-5.3c-1.4-1.39-3.33-2.19-5.3-2.19   c-1.98,0-3.91,0.8-5.31,2.19c-1.39,1.4-2.19,3.33-2.19,5.3c0,1.98,0.8,3.91,2.19,5.31C274.492,240.4,276.422,241.2,278.402,241.2z" data-original="#000000" class="active-path" data-old_color="#000000" fill="#1B75BB"/>
</g></g> </svg>
