<?xml version="1.0"?>
<svg xmlns="http://www.w3.org/2000/svg" xmlns:xlink="http://www.w3.org/1999/xlink" version="1.1" id="Capa_1" x="0px" y="0px" viewBox="0 0 425.413 425.413" style="enable-background:new 0 0 425.413 425.413;" xml:space="preserve" width="512px" height="512px"><g><path d="M421.868,358.482l-46.029-46.029c-1.383-1.389-3.382-2.097-5.258-1.922l-48.165,4.077l-8.497-8.496l63.361-64.077  c41.92-43.868,41.148-114.42-1.727-157.289C358.552,67.74,336.326,58.75,311.289,58.75c-29.645,0-61.913,12.95-87.43,34.884  C198.336,71.7,166.068,58.75,136.422,58.75c-20.148,0-38.421,5.917-53.671,17.054L61.931,54.179l33-33  c1.798-1.798,2.415-4.466,1.584-6.874c-0.831-2.402-2.967-4.122-5.492-4.427L9.039,0.05C6.981-0.203,4.982,0.511,3.547,1.952  C2.106,3.393,1.405,5.418,1.646,7.444l9.828,81.984c0.305,2.525,2.025,4.661,4.427,5.492c0.714,0.247,1.448,0.364,2.174,0.364  c1.734,0,3.434-0.681,4.7-1.948l29.753-29.753l20.031,20.804c-0.129,0.128-0.271,0.234-0.399,0.362  c-43.55,43.537-44.348,112.578-1.746,157.263L219.03,392.502c1.252,1.266,2.953,1.98,4.732,1.98c1.779,0,3.479-0.707,4.725-1.974  l76.079-76.938l8.443,8.443l-4.076,48.165c-0.169,1.948,0.538,3.875,1.921,5.258l46.029,46.029c1.272,1.273,2.973,1.948,4.7,1.948  c0.824,0,1.648-0.149,2.447-0.467c2.46-0.974,4.109-3.317,4.194-5.966l1.538-47.619l47.62-1.539  c2.648-0.084,4.992-1.733,5.965-4.193C424.321,363.162,423.744,360.358,421.868,358.482z M15.855,14.259l60.005,7.193L23.047,74.264  L15.855,14.259z M223.762,378.377L79.955,232.747c-37.5-39.324-36.799-100.205,1.603-138.601  c14.456-14.456,33.43-22.103,54.864-22.103c28.146,0,59.142,13.223,82.906,35.371c2.544,2.376,6.517,2.376,9.062,0  c23.758-22.148,54.753-35.371,82.899-35.371c21.435,0,40.408,7.647,54.864,22.103c37.805,37.798,38.486,100.024,1.597,138.62  l-63.232,63.945l-62.665-62.659c-0.402-0.402-0.895-0.627-1.363-0.905c5.102-6.973,8.133-15.468,8.133-24.651  c0-1.837-1.486-3.324-3.324-3.324s-3.324,1.487-3.324,3.324c0,19.896-16.773,36.079-37.389,36.079c-1.837,0-3.324,1.486-3.324,3.324  c0,1.837,1.486,3.324,3.324,3.324c10.185,0,19.545-3.403,27.013-9.056c0.269,0.438,0.475,0.906,0.854,1.286l62.713,62.717  L223.762,378.377z M326.044,327.642l42.576-3.603l13.873,13.87l-42.811,3.364l-3.369,42.816l-13.872-13.872L326.044,327.642z   M363.103,358.281c-3.506,0.11-6.316,2.921-6.426,6.426l-1.24,38.506l-12.946-12.947l3.372-42.813l42.809-3.367l12.95,12.948  L363.103,358.281z" data-original="#000000" class="active-path" data-old_color="#000000" fill="#1B75BB"/></g> </svg>
