<?xml version="1.0" encoding="iso-8859-1"?>
<!-- Generator: Adobe Illustrator 18.0.0, SVG Export Plug-In . SVG Version: 6.00 Build 0)  -->
<!DOCTYPE svg PUBLIC "-//W3C//DTD SVG 1.1//EN" "http://www.w3.org/Graphics/SVG/1.1/DTD/svg11.dtd">
<svg version="1.1" id="Capa_1" xmlns="http://www.w3.org/2000/svg" xmlns:xlink="http://www.w3.org/1999/xlink" x="0px" y="0px"
	 viewBox="0 0 264 264" style="enable-background:new 0 0 264 264;" xml:space="preserve">
<g>
	<path d="M225.089,99.492c-7.645,13.973-22.485,23.472-39.505,23.472c-18.641,0-34.668-11.394-41.489-27.581L11.922,138.536h249.223
		L225.089,99.492z"/>
	<path d="M0,244.659c0,10.426,8.451,18.877,18.877,18.877h226.246c10.426,0,18.877-8.451,18.877-18.877v-27.268H0V244.659z"/>
	<rect x="0" y="153.536" width="264" height="44"/>
	<path d="M185.584,107.964c16.568,0,30-13.432,30-30c0-12.02-7.071-22.383-17.278-27.17c1.623-4.419,3.698-9.114,6.315-13.592
		c6.783-11.605,17.227-21.738,33.03-21.738c4.143,0,7.5-3.357,7.5-7.5s-3.357-7.5-7.5-7.5c-20.255,0-36.793,11.293-47.979,32.694
		c-2.52,4.813-4.599,9.804-6.343,14.9c-15.515,1.154-27.745,14.098-27.745,29.906C155.584,94.532,169.016,107.964,185.584,107.964z
		 M167.567,69.442c2.133-4.256,5.463-7.728,9.628-10.037c3.562-1.979,8.165-0.74,10.196,2.921c2.009,3.622,0.701,8.188-2.921,10.196
		c-1.423,0.79-2.605,2.011-3.374,3.443c-0.037,0.067-0.085,0.129-0.119,0.197c-1.315,2.625-3.962,4.142-6.711,4.142
		C168.728,80.305,165.061,74.443,167.567,69.442z"/>
</g>
<g>
</g>
<g>
</g>
<g>
</g>
<g>
</g>
<g>
</g>
<g>
</g>
<g>
</g>
<g>
</g>
<g>
</g>
<g>
</g>
<g>
</g>
<g>
</g>
<g>
</g>
<g>
</g>
<g>
</g>
</svg>
