<svg width="25" height="25" viewBox="0 0 25 25" fill="none" xmlns="http://www.w3.org/2000/svg">
<path d="M25 12.6124C25 9.27332 23.6997 6.13227 21.3399 3.77247C18.9801 1.41267 15.839 0.112366 12.5 0.112366C9.16096 0.112366 6.01991 1.41267 3.6601 3.77247C1.3003 6.13227 0 9.27332 0 12.6124V18.5306C0 21.875 2.72367 24.5987 6.06806 24.5987C6.46939 24.5987 6.79045 24.2776 6.79045 23.8763V13.1903C6.79045 12.7889 6.46939 12.4679 6.06806 12.4679C4.21661 12.4679 2.55779 13.2973 1.44478 14.6083V12.6124C1.44478 6.51754 6.40518 1.55714 12.5 1.55714C18.5948 1.55714 23.5552 6.51754 23.5552 12.6124C23.5552 12.6605 23.5606 12.7087 23.5713 12.7568C23.5606 12.805 23.5552 12.8532 23.5552 12.9013V14.8973C22.4422 13.5863 20.7834 12.7568 18.9319 12.7568C18.5306 12.7568 18.2095 13.0779 18.2095 13.4792V24.1652C18.2095 24.5666 18.5306 24.8876 18.9319 24.8876C22.2763 24.8876 25 22.1639 25 18.8196V12.9013C25 12.8532 24.9946 12.805 24.9839 12.7568C24.9946 12.7087 25 12.6605 25 12.6124ZM5.34033 13.9662V23.095C3.1357 22.7472 1.43943 20.8315 1.43943 18.5306C1.44478 16.2297 3.1357 14.314 5.34033 13.9662ZM19.6597 23.384V14.2551C21.8643 14.6029 23.5606 16.5186 23.5606 18.8196C23.5552 21.1258 21.8643 23.0362 19.6597 23.384Z" fill="#FAEBD7" fill-opacity="1"/>
</svg>
