<?xml version="1.0" encoding="UTF-8" standalone="no"?>
<svg width="40" xmlns="http://www.w3.org/2000/svg" viewBox="0 0 40 40" height="40">
 <path d="m23.828 20c0 2.114-1.714 3.828-3.828 3.828s-3.828-1.714-3.828-3.828 1.714-3.828 3.828-3.828 3.828 1.714 3.828 3.828z" fill="#fff"/>
 <path d="m28.952 13.227c-0.184-0.499-0.477-0.95-0.859-1.321-0.37-0.381-0.821-0.675-1.32-0.859-0.405-0.157-1.013-0.344-2.132-0.395-1.212-0.055-1.575-0.067-4.641-0.067-3.067 0-3.43 0.012-4.641 0.067-1.12 0.051-1.728 0.238-2.132 0.395-0.499 0.184-0.951 0.478-1.321 0.859-0.381 0.371-0.675 0.822-0.859 1.321-0.157 0.405-0.344 1.013-0.395 2.133-0.056 1.21-0.068 1.574-0.068 4.64 0 3.067 0.012 3.43 0.068 4.641 0.051 1.12 0.238 1.728 0.395 2.132 0.184 0.499 0.477 0.95 0.859 1.321 0.37 0.381 0.821 0.675 1.32 0.859 0.405 0.157 1.013 0.345 2.133 0.395 1.211 0.056 1.574 0.067 4.641 0.067 3.066 0 3.43-0.011 4.64-0.067 1.12-0.05 1.728-0.238 2.133-0.395 1.001-0.386 1.793-1.178 2.179-2.18 0.158-0.404 0.345-1.012 0.396-2.132 0.055-1.211 0.067-1.574 0.067-4.641 0-3.066-0.012-3.43-0.067-4.64-0.051-1.12-0.238-1.728-0.396-2.133zm-8.952 12.67c-3.257 0-5.898-2.64-5.898-5.897s2.641-5.897 5.898-5.897 5.897 2.64 5.897 5.897-2.64 5.897-5.897 5.897zm6.13-10.649c-0.761 0-1.378-0.617-1.378-1.378 0-0.762 0.617-1.378 1.378-1.378s1.378 0.616 1.378 1.378c0 0.761-0.617 1.378-1.378 1.378z" fill="#fff"/>
 <path d="m20 0c-11.044 0-20 8.956-20 20s8.956 20 20 20 20-8.956 20-20-8.956-20-20-20zm11.415 24.735c-0.055 1.222-0.25 2.057-0.534 2.788-0.596 1.542-1.816 2.762-3.358 3.358-0.731 0.284-1.566 0.478-2.788 0.534-1.225 0.056-1.616 0.069-4.735 0.069s-3.51-0.013-4.735-0.069c-1.222-0.056-2.057-0.25-2.787-0.534-0.767-0.288-1.461-0.74-2.035-1.324-0.5837-0.574-1.0356-1.268-1.324-2.034-0.2839-0.731-0.4782-1.566-0.5338-2.788-0.0564-1.225-0.0696-1.616-0.0696-4.735s0.0132-3.51 0.0693-4.735c0.0555-1.222 0.2496-2.057 0.5335-2.788 0.2883-0.766 0.7406-1.46 1.3246-2.034 0.574-0.584 1.268-1.036 2.034-1.3244 0.731-0.2838 1.566-0.4778 2.788-0.5337 1.225-0.0559 1.616-0.0693 4.735-0.0693s3.51 0.0134 4.735 0.0696c1.222 0.0556 2.057 0.2496 2.788 0.5332 0.766 0.2883 1.46 0.7406 2.034 1.3246 0.584 0.574 1.036 1.268 1.324 2.034 0.285 0.731 0.479 1.566 0.534 2.788 0.056 1.225 0.069 1.616 0.069 4.735s-0.013 3.51-0.069 4.735z" fill="#fff"/>
</svg>
