<?xml version="1.0" encoding="UTF-8" standalone="no"?>
<svg width="40" xmlns="http://www.w3.org/2000/svg" fill="none" viewBox="0 0 40 40" height="40">
 <path d="m20 0c-11.045 0-20 8.9543-20 20s8.9547 20 20 20 20-8.954 20-20-8.955-20-20-20zm10.145 22.163c0.932 0.911 1.918 1.767 2.755 2.772 0.371 0.444 0.72 0.904 0.986 1.421 0.38 0.737 0.037 1.545-0.622 1.589l-4.098-0.001c-1.058 0.088-1.9-0.339-2.61-1.063-0.567-0.576-1.093-1.192-1.639-1.788-0.223-0.245-0.457-0.475-0.737-0.657-0.559-0.363-1.044-0.252-1.364 0.332-0.326 0.593-0.401 1.251-0.432 1.912-0.045 0.966-0.336 1.219-1.305 1.264-2.072 0.097-4.037-0.217-5.864-1.261-1.611-0.921-2.859-2.221-3.945-3.693-2.1168-2.87-3.7377-6.019-5.1941-9.259-0.3278-0.729-0.088-1.12 0.7169-1.135 1.3373-0.026 2.6746-0.022 4.0122-0.001 0.544 0.009 0.904 0.32 1.113 0.833 0.723 1.778 1.609 3.47 2.719 5.039 0.296 0.418 0.598 0.835 1.028 1.129 0.475 0.326 0.836 0.219 1.06-0.311 0.143-0.337 0.205-0.697 0.236-1.058 0.107-1.236 0.119-2.472-0.065-3.703-0.114-0.771-0.548-1.269-1.316-1.414-0.391-0.074-0.334-0.219-0.144-0.443 0.331-0.386 0.64-0.625 1.258-0.625l4.63-0.001c0.729 0.144 0.893 0.471 0.992 1.206l0.004 5.144c-0.008 0.285 0.143 1.128 0.654 1.314 0.409 0.135 0.679-0.193 0.924-0.452 1.11-1.178 1.901-2.569 2.609-4.008 0.313-0.635 0.583-1.291 0.844-1.949 0.195-0.487 0.498-0.726 1.047-0.718l4.458 0.005c0.131 0 0.265 0.001 0.395 0.024 0.751 0.128 0.957 0.452 0.725 1.185-0.366 1.151-1.077 2.11-1.772 3.072-0.745 1.029-1.539 2.023-2.276 3.057-0.678 0.945-0.624 1.421 0.217 2.242z" fill="#fff"/>
</svg>
