<?xml version="1.0" encoding="UTF-8" standalone="no"?>
<svg width="40" xmlns="http://www.w3.org/2000/svg" viewBox="0 0 40 40" height="40">
 <path d="m17.509 23.747l6.505-3.747-6.505-3.747v7.494z" fill="#fff"/>
 <path d="m20 0c-11.044 0-20 8.956-20 20s8.956 20 20 20 20-8.956 20-20-8.956-20-20-20zm12.497 20.02s0 4.056-0.515 6.012c-0.288 1.071-1.132 1.915-2.203 2.203-1.955 0.515-9.779 0.515-9.779 0.515s-7.803 0-9.779-0.535c-1.0709-0.288-1.915-1.133-2.2034-2.203-0.5148-1.936-0.5148-6.012-0.5148-6.012s0-4.056 0.5148-6.012c0.2881-1.07 1.1529-1.935 2.2034-2.223 1.955-0.515 9.779-0.515 9.779-0.515s7.824 0 9.779 0.535c1.071 0.288 1.915 1.133 2.203 2.203 0.536 1.956 0.515 6.032 0.515 6.032z" fill="#fff"/>
</svg>
