<!DOCTYPE svg PUBLIC "-//W3C//DTD SVG 20010904//EN" "http://www.w3.org/TR/2001/REC-SVG-20010904/DTD/svg10.dtd">
<svg version="1.0" xmlns="http://www.w3.org/2000/svg" width="16px" height="21px" viewBox="0 0 160 210" preserveAspectRatio="xMidYMid meet">
<g id="layer101" fill="#303030" stroke="none">
 <path d="M30 166 c-58 -85 -33 -166 50 -166 54 0 80 27 80 81 0 48 -50 129 -80 129 -11 0 -31 -18 -50 -44z m86 -25 c32 -50 30 -90 -8 -111 -25 -13 -31 -13 -56 0 -38 21 -40 61 -8 111 15 21 31 39 36 39 5 0 21 -18 36 -39z"/>
 <path d="M38 95 c-9 -21 -8 -28 7 -45 23 -25 47 -25 70 0 15 17 16 24 7 45 -16 35 -68 35 -84 0z m68 -6 c3 -6 -1 -18 -10 -27 -15 -15 -17 -15 -32 0 -19 19 -11 38 16 38 10 0 22 -5 26 -11z"/>
 </g>

</svg>