<svg width="40" height="40" viewBox="0 0 40 40" fill="none" xmlns="http://www.w3.org/2000/svg">
<g clip-path="url(#clip0)">
<path d="M34.1447 33.0347C33.8396 32.7297 33.3425 32.7321 33.0374 33.0372C32.7323 33.3422 32.7323 33.8369 33.0374 34.1421C33.19 34.2946 33.3899 34.3709 33.5898 34.3709C33.7897 34.3709 33.9896 34.2946 34.1422 34.1421L34.1471 34.1371C34.4522 33.8321 34.4498 33.3398 34.1447 33.0347Z" fill="#898989"/>
<path d="M39.9602 18.7439C39.6544 13.8854 37.5881 9.31188 34.1421 5.86587C30.3646 2.08845 25.3422 0.00805664 20 0.00805664C14.9079 0.00805664 10.1064 1.89806 6.39656 5.34649L5.54719 4.56876C5.31867 4.35946 4.98836 4.30501 4.70484 4.42993C4.42133 4.55478 4.23836 4.83524 4.23836 5.14493V10.9847C4.23836 11.4161 4.5882 11.7659 5.01961 11.7659H10.8594C11.1711 11.7659 11.453 11.5806 11.5766 11.2944C11.7002 11.0082 11.6418 10.6759 11.428 10.449L10.0527 8.98915C15.8724 3.72954 24.8886 3.90329 30.4966 9.51149C36.2845 15.2993 36.2845 24.7169 30.4966 30.5047C27.6929 33.3084 23.9651 34.8525 20 34.8525C16.0349 34.8525 12.3071 33.3084 9.50344 30.5047C6.69961 27.7009 5.15547 23.9732 5.15547 20.0081C5.15547 19.5766 4.80562 19.2268 4.37422 19.2268H0.78125C0.349844 19.2268 0 19.5766 0 20.0081C0 25.3502 2.08039 30.3727 5.85781 34.1502C9.2807 37.5731 13.8227 39.6373 18.6469 39.9625C19.0983 39.993 19.5487 40.008 19.9986 40.008C24.31 40.008 28.5165 38.6195 31.9698 36.0338C32.3152 35.7751 32.3854 35.2855 32.1269 34.9401C31.8681 34.5948 31.3786 34.5245 31.0332 34.783C23.7529 40.2345 13.4047 39.4874 6.96266 33.0453C3.66492 29.7477 1.77023 25.421 1.57859 20.7893H3.61109C3.80148 24.8785 5.48438 28.6955 8.39852 31.6095C14.7956 38.0066 25.2044 38.0066 31.6015 31.6095C37.9985 25.2124 37.9985 14.8037 31.6015 8.40657C25.2044 2.00946 14.7956 2.00946 8.39852 8.40657C8.09984 8.70524 8.09266 9.18727 8.38234 9.49477L9.05 10.2034H5.80086V6.91962L5.88273 6.99454C6.19102 7.27688 6.66695 7.26649 6.96273 6.97079C10.4451 3.48837 15.0752 1.57056 20 1.57056C24.9248 1.57056 29.5549 3.48837 33.0373 6.97079C39.5404 13.4739 40.2427 23.8811 34.671 31.1788C34.4091 31.5218 34.4749 32.012 34.8179 32.2739C35.1607 32.5359 35.6511 32.47 35.913 32.127C38.8261 28.3116 40.2634 23.5587 39.9602 18.7439Z" fill="#898989"/>
<path d="M14.1714 22.5781H11.807C11.91 22.4837 12.0142 22.3861 12.1185 22.2857C13.5967 20.8625 14.3153 19.6563 14.3153 18.598C14.3153 16.9599 13.2147 15.8594 11.5766 15.8594C10.0665 15.8594 8.83791 17.088 8.83791 18.598C8.83791 19.0295 9.18776 19.3793 9.61916 19.3793C10.0506 19.3793 10.4004 19.0295 10.4004 18.598C10.4004 17.9495 10.9281 17.4219 11.5766 17.4219C12.7528 17.4219 12.7528 18.3071 12.7528 18.598C12.7528 19.6855 10.656 21.6645 9.16729 22.7222C8.88987 22.919 8.77166 23.2726 8.87487 23.5966C8.97815 23.9205 9.27916 24.1406 9.61924 24.1406H14.1714C14.6028 24.1406 14.9527 23.7908 14.9527 23.3594C14.9527 22.928 14.6028 22.5781 14.1714 22.5781Z" fill="#898989"/>
<path d="M19.8987 20.1173H19.3655V19.896C19.3655 19.4646 19.0156 19.1148 18.5842 19.1148C18.1528 19.1148 17.803 19.4646 17.803 19.896V20.1173H16.725L18.4828 17.027C18.6961 16.6519 18.5651 16.175 18.19 15.9616C17.8152 15.7484 17.338 15.8794 17.1246 16.2544L14.7027 20.5123C14.5651 20.7541 14.5666 21.0509 14.7065 21.2913C14.8464 21.5319 15.1036 21.6798 15.3819 21.6798H17.803V23.3595C17.803 23.7909 18.1528 24.1408 18.5842 24.1408C19.0156 24.1408 19.3655 23.7909 19.3655 23.3595V21.6798H19.8987C20.3301 21.6798 20.68 21.33 20.68 20.8986C20.68 20.4672 20.3301 20.1173 19.8987 20.1173Z" fill="#898989"/>
<path d="M24.8089 15.9114C24.406 15.7566 23.9541 15.9573 23.7992 16.36L21.2144 23.0788C21.0594 23.4814 21.2603 23.9335 21.663 24.0885C21.7553 24.1239 21.8501 24.1408 21.9433 24.1408C22.2572 24.1408 22.5533 23.9503 22.6726 23.6399L25.2575 16.9211C25.4124 16.5184 25.2115 16.0664 24.8089 15.9114Z" fill="#898989"/>
<path d="M31.0224 16.1951C30.8764 15.9849 30.6367 15.8596 30.3809 15.8596H27.0996C26.6682 15.8596 26.3184 16.2095 26.3184 16.6409C26.3184 17.0723 26.6682 17.4221 27.0996 17.4221H29.2566L27.1487 23.0872C26.9982 23.4915 27.2041 23.9413 27.6084 24.0918C27.6982 24.1252 27.7902 24.1411 27.8808 24.1411C28.1978 24.1411 28.496 23.9467 28.613 23.632L31.113 16.9133C31.2023 16.6735 31.1684 16.4052 31.0224 16.1951Z" fill="#898989"/>
</g>
<defs>
<clipPath id="clip0">
<rect width="40" height="40" fill="white"/>
</clipPath>
</defs>
</svg>
