<?xml version="1.0" encoding="iso-8859-1"?>
<!-- Generator: Adobe Illustrator 19.0.0, SVG Export Plug-In . SVG Version: 6.00 Build 0)  -->
<svg version="1.1" id="Capa_1" xmlns="http://www.w3.org/2000/svg" xmlns:xlink="http://www.w3.org/1999/xlink" x="0px" y="0px"
	 viewBox="0 0 430.08 430.08" style="enable-background:new 0 0 430.08 430.08;" xml:space="preserve">
<g>
	<g>
		<path d="M276.477,75.093h-150.18c-26.351,0-47.79,21.46-47.79,47.84v184.214c0,26.38,21.439,47.84,47.79,47.84h150.18
			c26.351,0,47.79-21.46,47.79-47.84V122.933C324.267,96.553,302.828,75.093,276.477,75.093z M310.613,307.147
			c0,18.854-15.314,34.186-34.137,34.186h-150.18c-18.823,0-34.137-15.333-34.137-34.186V122.933
			c0-18.854,15.314-34.186,34.137-34.186h150.18c18.823,0,34.137,15.333,34.137,34.186V307.147z"/>
	</g>
</g>
<g>
	<g>
		<path d="M290.024,80.7l-9.992-54.967C277.405,11.3,263.871,0,249.214,0h-95.654c-14.653,0-28.191,11.3-30.817,25.733L112.751,80.7
			c-0.364,1.993,0.181,4.038,1.476,5.593c1.295,1.555,3.215,2.454,5.24,2.454h163.84c2.024,0,3.944-0.901,5.241-2.454
			C289.845,84.739,290.388,82.693,290.024,80.7z M127.647,75.093l8.528-46.92c1.434-7.873,9.393-14.52,17.384-14.52h95.654
			c7.991,0,15.951,6.654,17.384,14.52l8.53,46.92H127.647z"/>
	</g>
</g>
<g>
	<g>
		<path d="M288.546,343.788c-1.295-1.555-3.215-2.454-5.24-2.454h-163.84c-2.024,0-3.944,0.901-5.241,2.454
			c-1.297,1.553-1.84,3.599-1.476,5.593l9.993,54.967c2.627,14.433,16.164,25.733,30.817,25.733h95.654
			c14.657,0,28.191-11.3,30.817-25.733l9.992-54.967C290.386,347.387,289.842,345.342,288.546,343.788z M266.598,401.906
			c-1.434,7.868-9.393,14.52-17.384,14.52h-95.654c-7.991,0-15.951-6.647-17.384-14.52l-8.53-46.92h147.48L266.598,401.906z"/>
	</g>
</g>
<g>
	<g>
		<path d="M332.107,143.36H317.44c-3.77,0-6.827,3.053-6.827,6.827v61.44c0,3.773,3.057,6.827,6.827,6.827h14.667
			c10.733,0,19.466-8.733,19.466-19.466v-36.161C351.573,152.093,342.84,143.36,332.107,143.36z M337.92,198.987
			c0,3.207-2.606,5.813-5.813,5.813h-7.84v-47.787h7.84c3.207,0,5.813,2.606,5.813,5.813V198.987z"/>
	</g>
</g>
<g>
	<g>
		<path d="M131.12,104.4c-2.666-2.666-6.987-2.666-9.653,0L104.4,121.467c-2.666,2.666-2.666,6.987,0,9.653
			c1.333,1.333,3.081,2,4.826,2c1.746,0,3.494-0.667,4.826-2l17.067-17.067C133.786,111.387,133.786,107.066,131.12,104.4z"/>
	</g>
</g>
<g>
	<g>
		<path d="M158.426,104.4c-2.666-2.666-6.987-2.666-9.653,0l-37.547,37.547c-2.666,2.666-2.666,6.987,0,9.653
			c1.333,1.333,3.081,2,4.826,2c1.746,0,3.494-0.667,4.826-2l37.547-37.547C161.092,111.387,161.092,107.066,158.426,104.4z"/>
	</g>
</g>
<g>
</g>
<g>
</g>
<g>
</g>
<g>
</g>
<g>
</g>
<g>
</g>
<g>
</g>
<g>
</g>
<g>
</g>
<g>
</g>
<g>
</g>
<g>
</g>
<g>
</g>
<g>
</g>
<g>
</g>
</svg>
