<svg width="27" height="27" viewBox="0 0 27 27" fill="none" xmlns="http://www.w3.org/2000/svg">
<g clip-path="url(#clip0)">
<path d="M23.9062 17.1562V18.2812C23.9062 19.5244 22.8994 20.5312 21.6562 20.5312H3.09375C1.85062 20.5312 0.84375 19.5244 0.84375 18.2812V7.59375C0.84375 6.35062 1.85062 5.34375 3.09375 5.34375H21.6562C22.8994 5.34375 23.9062 6.35062 23.9062 7.59375V8.71875H25.0312C25.6522 8.71875 26.1562 9.22275 26.1562 9.84375V16.0312C26.1562 16.6522 25.6522 17.1562 25.0312 17.1562H23.9062Z" fill="#FAFAFA"/>
<path d="M21.6562 21.375H3.09375C1.38825 21.375 0 19.9879 0 18.2812V7.59375C0 5.88713 1.38825 4.5 3.09375 4.5H21.6562C23.3618 4.5 24.75 5.88713 24.75 7.59375V7.875H25.0211C26.1067 7.875 26.9899 8.75813 26.9899 9.84375V16.0312C26.9899 17.1169 26.1067 18 25.0211 18H24.75V18.2812C24.75 19.9879 23.3618 21.375 21.6562 21.375ZM3.09375 6.1875C2.31862 6.1875 1.6875 6.81862 1.6875 7.59375V18.2812C1.6875 19.0564 2.31862 19.6875 3.09375 19.6875H21.6562C22.4314 19.6875 23.0625 19.0564 23.0625 18.2812V17.1562C23.0625 16.6905 23.4405 16.3125 23.9062 16.3125H25.0211C25.1764 16.3125 25.3024 16.1865 25.3024 16.0312V9.84375C25.3024 9.6885 25.1764 9.5625 25.0211 9.5625H23.9062C23.4405 9.5625 23.0625 9.1845 23.0625 8.71875V7.59375C23.0625 6.81862 22.4314 6.1875 21.6562 6.1875H3.09375Z" fill="black"/>
<path d="M11.25 18.8433C11.0858 18.8433 10.9204 18.7961 10.7741 18.696C10.5345 18.5328 10.4063 18.2685 10.4063 17.9996C10.4063 17.8353 10.4535 17.67 10.5536 17.5237L13.3031 13.4996L9.83814 13.4973C9.51527 13.4973 9.22165 13.3128 9.0799 13.0226C8.93815 12.7323 8.97527 12.3881 9.1744 12.1327L12.9161 7.35259C13.2019 6.98584 13.734 6.92172 14.1008 7.2086C14.4675 7.49547 14.5316 8.02647 14.2448 8.39322L11.5706 11.8121L14.8916 11.8143C15.0705 11.8042 15.2258 11.8593 15.3731 11.9583H15.3743C15.3754 11.9583 15.3754 11.9595 15.3754 11.9595C15.3765 11.9595 15.3776 11.9606 15.3788 11.9617C15.3799 11.9628 15.381 11.9628 15.3833 11.964C15.3833 11.964 15.3844 11.964 15.3855 11.9651H15.3866C15.5509 12.0821 15.6623 12.2463 15.7129 12.4275C15.7241 12.468 15.7331 12.5096 15.7376 12.5501C15.7613 12.7447 15.7185 12.9483 15.6015 13.1238C15.6004 13.125 15.6015 13.125 15.6004 13.1261C15.6004 13.1261 15.6004 13.1261 15.5993 13.1272C15.5981 13.1283 15.5981 13.1283 15.5981 13.1295L11.9464 18.4721C11.7833 18.7151 11.5189 18.8433 11.25 18.8433V18.8433Z" fill="black"/>
</g>
<defs>
<clipPath id="clip0">
<rect width="27" height="27" fill="white"/>
</clipPath>
</defs>
</svg>
