<svg width="256" height="480" viewBox="0 0 256 480" fill="none" xmlns="http://www.w3.org/2000/svg">
<rect x="4" y="4" width="246" height="471" rx="36" fill="white"/>
<path d="M40 0C29.3952 0.0127029 19.2285 4.23106 11.7298 11.7298C4.23105 19.2285 0.0127029 29.3952 0 40V440C0.0127029 450.605 4.23105 460.772 11.7298 468.27C19.2285 475.769 29.3952 479.987 40 480H216C226.605 479.987 236.772 475.769 244.27 468.27C251.769 460.772 255.987 450.605 256 440V40C255.987 29.3952 251.769 19.2285 244.27 11.7298C236.772 4.23106 226.605 0.0127029 216 0H40ZM88 16H168V32H88V16ZM240 440C240 446.365 237.471 452.47 232.971 456.971C228.47 461.471 222.365 464 216 464H40C33.6348 464 27.5303 461.471 23.0294 456.971C18.5286 452.47 16 446.365 16 440V400H240V440ZM240 40V348.688L221.656 330.344C220.156 328.844 218.121 328.002 216 328.002C213.879 328.002 211.844 328.844 210.344 330.344L192 348.688L165.656 322.344L154.344 333.656L186.344 365.656C187.844 367.156 189.879 367.998 192 367.998C194.121 367.998 196.156 367.156 197.656 365.656L216 347.312L240 371.312V384H16V83.312L34.344 101.656C35.8442 103.156 37.8787 103.998 40 103.998C42.1213 103.998 44.1558 103.156 45.656 101.656L64 83.312L90.344 109.656L101.656 98.344L69.656 66.344C68.1558 64.8442 66.1213 64.0017 64 64.0017C61.8787 64.0017 59.8442 64.8442 58.344 66.344L40 84.688L16 60.688V40C16 33.6348 18.5286 27.5303 23.0294 23.0294C27.5303 18.5286 33.6348 16 40 16H72V40C72 42.1217 72.8428 44.1566 74.3431 45.6569C75.8434 47.1571 77.8783 48 80 48H176C178.122 48 180.157 47.1571 181.657 45.6569C183.157 44.1566 184 42.1217 184 40V16H216C222.365 16 228.47 18.5286 232.971 23.0294C237.471 27.5303 240 33.6348 240 40V40Z" fill="black"/>
<path d="M128 448C136.837 448 144 440.837 144 432C144 423.163 136.837 416 128 416C119.163 416 112 423.163 112 432C112 440.837 119.163 448 128 448Z" fill="black"/>
<path d="M128 120C109.013 120 90.4524 125.63 74.6653 136.179C58.8782 146.728 46.5736 161.721 39.3076 179.262C32.0416 196.804 30.1405 216.106 33.8447 234.729C37.5488 253.351 46.6919 270.456 60.1178 283.882C73.5436 297.308 90.6492 306.451 109.271 310.155C127.894 313.86 147.196 311.958 164.738 304.692C182.279 297.426 197.272 285.122 207.821 269.335C218.37 253.548 224 234.987 224 216C223.973 190.548 213.849 166.146 195.852 148.148C177.854 130.151 153.452 120.028 128 120V120ZM128 296C112.178 296 96.7104 291.308 83.5544 282.518C70.3985 273.727 60.1447 261.233 54.0897 246.615C48.0347 231.997 46.4504 215.911 49.5372 200.393C52.624 184.874 60.2433 170.62 71.4315 159.431C82.6197 148.243 96.8743 140.624 112.393 137.537C127.911 134.45 143.997 136.035 158.615 142.09C173.233 148.145 185.727 158.398 194.518 171.554C203.308 184.71 208 200.177 208 216C207.977 237.21 199.541 257.545 184.543 272.543C169.545 287.541 149.21 295.977 128 296V296Z" fill="black"/>
<path d="M85.656 221.656L96 211.312L106.344 221.656L117.656 210.344L107.312 200L117.656 189.656L106.344 178.344L96 188.688L85.656 178.344L74.344 189.656L84.688 200L74.344 210.344L85.656 221.656Z" fill="black"/>
<path d="M170.344 178.344L160 188.688L149.656 178.344L138.344 189.656L148.688 200L138.344 210.344L149.656 221.656L160 211.312L170.344 221.656L181.656 210.344L171.312 200L181.656 189.656L170.344 178.344Z" fill="black"/>
<path d="M128 232C90.664 232 80.8 260.264 80.408 261.472L95.608 266.528C95.656 266.344 102.064 248 128 248C153.496 248 160.168 265.84 160.408 266.528L175.608 261.472C175.2 260.264 165.336 232 128 232V232Z" fill="black"/>
</svg>
