<?xml version="1.0" encoding="iso-8859-1"?>
<!-- Generator: Adobe Illustrator 16.0.0, SVG Export Plug-In . SVG Version: 6.00 Build 0)  -->
<!DOCTYPE svg PUBLIC "-//W3C//DTD SVG 1.1//EN" "http://www.w3.org/Graphics/SVG/1.1/DTD/svg11.dtd">
<svg version="1.1" id="Capa_1" xmlns="http://www.w3.org/2000/svg" xmlns:xlink="http://www.w3.org/1999/xlink" x="0px" y="0px"
	 width="556.292px" height="556.292px" viewBox="0 0 556.292 556.292" style="enable-background:new 0 0 556.292 556.292;"
	 xml:space="preserve">
<g>
	<g>
		<path d="M169.031,513.834c1.616,19.221,18.571,33.546,37.791,31.92l99.957-8.443c5.26-0.44,7.421-3.701,4.82-7.268
			c-2.602-3.567-8.979-6.102-14.239-5.661l-91.685,7.745c-11.695,0.967-22.022-7.735-23.007-19.44L145.192,68.834
			c-0.995-11.695,7.726-22.022,19.431-23.007l88.683-7.488c5.259-0.439,11.274-4.025,13.426-7.994
			c2.152-3.968-0.373-6.828-5.642-6.388L163.456,32.2c-19.221,1.626-33.526,18.58-31.9,37.782L169.031,513.834z"/>
		<path d="M458.201,499.94l11.322-445.288c0.487-19.278-14.794-35.353-34.071-35.84l-66.804-1.702
			c-5.278-0.134-11.647,2.764-14.22,6.474c-2.572,3.71-0.373,6.828,4.905,6.961l75.773,1.941
			c11.743,0.277,21.047,10.088,20.741,21.831l-11.322,445.268c-0.296,11.753-10.098,21.066-21.831,20.751l-73.469-1.865
			c-5.278-0.134-7.774,2.869-5.584,6.704c2.199,3.834,8.252,7.057,13.53,7.19l65.169,1.664
			C441.629,534.509,457.713,519.208,458.201,499.94z"/>
		<path d="M336.337,485.587c-3.586-3.873-5.814-0.985-2.812,3.356l1.3,1.894c3.003,4.351,5.461,7.487,5.499,7.009
			c0.019-0.287,0.028-0.573,0.01-0.88l-0.144-2.333C339.979,491.123,338.545,487.978,336.337,485.587z"/>
		<path d="M298.564,491.869c4.035-0.344,6.254-2.065,4.953-3.844c-1.3-1.788-4.705-3.031-7.593-2.793l-5.24,0.44
			c-8.061,0.669-14.066,7.784-13.387,15.854l0.201,2.333c0.679,8.052,7.793,14.066,15.854,13.368l20.12-1.683
			c5.259-0.439,8.473-2.247,7.172-4.035s-6.627-2.878-11.887-2.429l-15.979,1.357c-4.304,0.354-8.109-2.859-8.473-7.152
			l-0.201-2.334c-0.363-4.293,2.85-8.108,7.144-8.462C291.259,492.481,294.529,492.204,298.564,491.869z"/>
		<path d="M345.574,48.877c0,0-2.257-0.058-5.05-0.134c-2.792-0.077-6.091,1.377-7.382,3.232c-1.281,1.855,0.938,3.442,4.963,3.538
			l7.296,0.182c1.894,0.058,3.462-1.434,3.51-3.328C348.949,50.483,347.467,48.915,345.574,48.877z"/>
		<path d="M160.788,92.931l32.905,389.653c0.162,1.884,1.817,3.271,3.691,3.117l79.646-6.722c5.259-0.44,11.254-4.725,13.377-9.554
			l23.916-54.305c2.133-4.829,1.741-12.479-0.87-17.069l-44.57-78.451c-2.611-4.59-3.242-12.335-1.425-17.289l28.295-76.873
			c1.826-4.954,1.492-12.852-0.746-17.633L240.797,91.765c-2.237-4.781-8.31-8.3-13.579-7.86l-63.323,5.346
			C162.021,89.403,160.625,91.047,160.788,92.931z M261.366,320.213l44.438,78.23c2.61,4.59,2.993,12.23,0.86,17.06l-20.98,47.469
			c-2.133,4.829-8.128,9.104-13.397,9.553l-62.548,5.278c-5.259,0.439-9.887-3.462-10.337-8.721l-30.715-363.796
			c-0.44-5.259,3.462-9.888,8.721-10.328l44.781-3.768c5.259-0.44,11.36,3.07,13.626,7.841l51.732,109.146
			c2.267,4.771,2.621,12.661,0.794,17.614l-28.391,77.151C258.125,307.877,258.766,315.623,261.366,320.213z"/>
		<path d="M337.551,417.941l-13.77,37.017c-1.836,4.953-2.438,10.519-1.349,12.44c1.1,1.923,6.264,3.586,11.552,3.72l94.248,2.391
			c1.893,0.058,3.461-1.434,3.509-3.327l9.945-390.925c0.038-1.884-1.444-3.452-3.337-3.49l-109.912-2.802
			c-5.278-0.134-10.806,0.669-12.345,1.788c-1.54,1.128-1.76,6.196-0.497,11.322l27.377,110.848
			c1.263,5.125,0.277,13.062-2.209,17.719l-46.407,86.885c-2.485,4.657-2.543,12.24-0.124,16.936l42.276,82.027
			C338.928,405.176,339.396,412.998,337.551,417.941z M330.169,79.84l95.041,2.429c5.279,0.134,9.448,4.523,9.314,9.802
			l-9.285,364.972c-0.134,5.278-4.523,9.447-9.802,9.313l-77.896-1.998c-5.278-0.135-8.09-4.266-6.272-9.229l13.789-37.638
			c1.816-4.963,1.329-12.785-1.09-17.48l-42.009-81.501c-2.419-4.695-2.362-12.278,0.125-16.936l45.957-86.024
			c2.486-4.657,3.462-12.584,2.18-17.71L322.93,88.867C321.648,83.751,324.891,79.707,330.169,79.84z"/>
		<path d="M100.793,77.229c0.239,0.039,0.478,0.058,0.717,0.058c2.199,0,4.141-1.606,4.494-3.844
			c0.077-0.468,7.822-47.181,39.503-52.068c2.486-0.392,4.188-2.725,3.815-5.211c-0.383-2.486-2.697-4.169-5.202-3.806
			c-38.173,5.881-46.761,57.471-47.105,59.67C96.614,74.495,98.307,76.838,100.793,77.229z"/>
		<path d="M484.096,497.826c-1.453-1.31-5.029-1.367-6.396,0.058c-0.813,0.842-1.291,1.989-1.272,3.252
			c0,0.276,0.421,29.175-12.498,41.108c-4.179,3.845-9.285,5.394-15.539,4.781c-2.543-0.258-4.733,1.588-4.981,4.093
			c-0.249,2.506,1.567,4.725,4.083,4.982c1.195,0.114,2.381,0.191,3.538,0.191c7.401,0,13.817-2.486,19.115-7.363
			c15.931-14.735,15.434-46.637,15.405-47.984C485.512,499.672,484.957,498.602,484.096,497.826z"/>
		<path d="M85.55,44.784c0-2.505-2.037-4.552-4.561-4.552H54.788c-2.524,0-4.561,2.056-4.561,4.552c0,2.524,2.037,4.562,4.561,4.562
			h26.211C83.514,49.346,85.55,47.309,85.55,44.784z"/>
		<path d="M89.528,27.38c0.564,0.22,1.147,0.334,1.721,0.334c1.798,0,3.5-1.08,4.217-2.84c0.956-2.333-0.172-4.992-2.496-5.938
			L47.396,0.347c-2.343-0.966-4.992,0.153-5.948,2.505c-0.957,2.333,0.172,4.992,2.496,5.938L89.528,27.38z"/>
		<path d="M512.765,79.056l-29.634-15.835c-2.219-1.176-4.982-0.335-6.168,1.884c-1.187,2.209-0.354,4.973,1.864,6.168
			l29.625,15.835c0.688,0.373,1.415,0.545,2.142,0.545c1.626,0,3.203-0.88,4.026-2.41C515.815,83.015,514.983,80.251,512.765,79.056
			z"/>
		<path d="M477.871,51.937c0.88,0.822,1.998,1.233,3.117,1.233c1.215,0,2.429-0.488,3.338-1.454l29.624-31.748
			c1.722-1.845,1.616-4.724-0.22-6.445c-1.846-1.702-4.724-1.606-6.445,0.22L477.66,45.511
			C475.939,47.347,476.035,50.235,477.871,51.937z"/>
		<path d="M127.491,262.092l-17.384,29.625c-1.272,2.189-0.545,4.973,1.625,6.234c0.727,0.431,1.521,0.631,2.305,0.631
			c1.568,0,3.088-0.803,3.939-2.256l17.385-29.625c1.272-2.19,0.545-4.973-1.625-6.235
			C131.546,259.194,128.763,259.902,127.491,262.092z"/>
		<path d="M506.157,510.717c-1.674,7.698-3.596,12.938-5.374,16.505c-2.362,4.724-7.603,7.631-8.692,9.161
			c-0.641,0.898-0.966,2.037-0.813,3.213c0.287,2.314,2.247,3.997,4.523,3.997c0.191,0,0.383,0,0.573-0.038
			c2.057-0.259,12.623-2.955,18.705-30.887c0.535-2.486-1.023-4.896-3.491-5.432C509.103,506.682,506.692,508.25,506.157,510.717z"
			/>
	</g>
</g>
<g>
</g>
<g>
</g>
<g>
</g>
<g>
</g>
<g>
</g>
<g>
</g>
<g>
</g>
<g>
</g>
<g>
</g>
<g>
</g>
<g>
</g>
<g>
</g>
<g>
</g>
<g>
</g>
<g>
</g>
</svg>
