<svg width="40" height="40" viewBox="0 0 40 40" xmlns="http://www.w3.org/2000/svg">
<g clip-path="url(#clip0)">
<path
        d="M30.4106 26.4608C29.1038 25.1707 27.4723 25.1707 26.1739 26.4608C25.1833 27.443 24.1928 28.4252 23.219 29.424C22.9526 29.6987 22.7279 29.757 22.4032 29.5739C21.7623 29.2243 21.0798 28.9413 20.4638 28.5584C17.5922 26.7521 15.1867 24.4299 13.0558 21.8162C11.9987 20.5178 11.0582 19.1277 10.4006 17.5629C10.2674 17.2466 10.2924 17.0385 10.5504 16.7804C11.5409 15.8232 12.5065 14.841 13.4803 13.8589C14.8371 12.4938 14.8371 10.8956 13.472 9.52225C12.6979 8.73983 11.9238 7.97405 11.1497 7.19163C10.3506 6.39257 9.5599 5.58517 8.75251 4.79443C7.4457 3.52092 5.81427 3.52092 4.51579 4.80275C3.51695 5.78494 2.55974 6.7921 1.54425 7.75764C0.603684 8.64827 0.129238 9.73866 0.0293543 11.0122C-0.128795 13.0848 0.378946 15.0408 1.09478 16.9469C2.55974 20.8923 4.79047 24.3966 7.49564 27.6095C11.1497 31.9544 15.5113 35.3921 20.6137 37.8725C22.911 38.9879 25.2915 39.8452 27.8802 39.9867C29.6614 40.0866 31.2096 39.6371 32.4499 38.2471C33.2989 37.2982 34.2561 36.4325 35.155 35.5252C36.4868 34.1768 36.4951 32.5454 35.1717 31.2136C33.5902 29.6238 32.0004 28.0423 30.4106 26.4608Z" />
<path d="M28.8209 19.8269L31.8923 19.3025C31.4095 16.4808 30.0777 13.9255 28.0551 11.8945C25.9159 9.75533 23.2108 8.4069 20.2309 7.99072L19.7981 11.0788C22.1037 11.4034 24.2013 12.4439 25.8577 14.1003C27.4225 15.6651 28.4463 17.6461 28.8209 19.8269Z" fill="black"/>
<path d="M33.6235 6.47578C30.0776 2.92992 25.5912 0.690861 20.6386 0L20.2058 3.08806C24.4841 3.68736 28.3629 5.62677 31.426 8.68154C34.331 11.5865 36.2371 15.2572 36.9279 19.2942L39.9994 18.7698C39.192 14.0919 36.9862 9.84685 33.6235 6.47578Z" fill="black"/>
</g>
<defs>
<clipPath id="clip0">
<rect width="40" height="40" />
</clipPath>
</defs>
</svg>
