<svg width="20" height="20" viewBox="0 0 20 20" xmlns="http://www.w3.org/2000/svg">
<g clip-path="url(#clip0)">
<path d="M19.1266 1.3018C18.2241 0.815834 17.2175 1.75305 16.6274 2.30843C15.2737 3.62747 14.1282 5.15478 12.8438 6.54325C11.4206 8.07056 10.1016 9.59787 8.64371 11.0905C7.81063 11.9236 6.90813 12.8261 6.35275 13.8675C5.10313 12.6525 4.02707 11.3335 2.63861 10.2574C1.63198 9.49379 -0.0341777 8.93841 0.000533834 10.7781C0.0699569 13.1733 2.18736 15.7419 3.74938 17.3733C4.4089 18.0676 5.27669 18.7965 6.28333 18.8312C7.49823 18.9006 8.74785 17.4427 9.47679 16.6444C10.7612 15.2559 11.8025 13.6938 12.9827 12.2707C14.51 10.3963 16.072 8.55652 17.5646 6.64738C18.5018 5.46719 21.4523 2.55136 19.1266 1.3018ZM1.52779 10.6393C1.49307 10.6393 1.45836 10.6393 1.38894 10.6739C1.25009 10.6393 1.14596 10.6045 1.00711 10.5351C1.11125 10.4657 1.2848 10.5004 1.52779 10.6393Z"/>
</g>
<defs>
<clipPath id="clip0">
<rect width="20" height="20"/>
</clipPath>
</defs>
</svg>
