<svg width="12" height="12" viewBox="0 0 12 12" xmlns="http://www.w3.org/2000/svg">
<path d="M11.4977 2.34436L7.89202 5.95036L11.4977 9.55619C12.034 10.0927 12.034 10.9618 11.4977 11.4983C11.2297 11.7663 10.8784 11.9004 10.5272 11.9004C10.1755 11.9004 9.82409 11.7665 9.55632 11.4983L5.9499 7.89209L2.34376 11.4983C2.07582 11.7663 1.72445 11.9004 1.37299 11.9004C1.02162 11.9004 0.6705 11.7665 0.402323 11.4983C-0.133997 10.962 -0.133997 10.0929 0.402323 9.55615L4.00786 5.95032L0.402118 2.34436C-0.134202 1.80804 -0.134202 0.938739 0.402118 0.40242C0.938336 -0.133489 1.80713 -0.133489 2.34355 0.40242L5.94987 4.00842L9.55591 0.40242C10.0924 -0.133489 10.9613 -0.133489 11.4974 0.40242C12.034 0.938739 12.034 1.80804 11.4977 2.34436Z"/>
</svg>
