<svg width="35" height="35" viewBox="0 0 35 35" fill="none" xmlns="http://www.w3.org/2000/svg">
<g clip-path="url(#clip0)">
<path d="M23.2417 31.0257L20.0166 31.2574L16.8685 34.4897H4.74338L15.5543 26.1772L18.7374 20.8715C19.271 19.9822 20.5047 19.8449 21.2207 20.5952L27.1935 25.171C28.0962 25.8626 28.1522 27.203 27.3102 27.9674L24.7997 30.2465C24.3623 30.6486 23.8212 30.9193 23.2417 31.0257Z" fill="#FED9A8"/>
<path d="M27.1934 25.1709L25.7331 24.0522C25.8902 24.6776 25.7138 25.3739 25.1911 25.8484L22.6806 28.1274C22.2433 28.5297 21.7023 28.8004 21.1226 28.9067L17.8976 29.1385L12.6856 34.4896H16.8684L20.0166 31.2574L23.2416 31.0257C23.8213 30.9192 24.3623 30.6486 24.7996 30.2464L27.3101 27.9673C28.1521 27.2029 28.0962 25.8625 27.1934 25.1709Z" fill="#F4C28C"/>
<path d="M22.6476 22.5669L23.2503 23.2152C22.911 23.2515 22.5633 23.1363 22.3173 22.8716L21.7689 22.2817C22.0841 22.2237 22.4174 22.3192 22.6476 22.5669Z" fill="#E8D06B"/>
<path d="M30.4119 28.1151L26.5827 31.3356L16.4876 17.5284L18.4748 15.857L30.4119 28.1151Z" fill="#F7BC14"/>
<path d="M4.33618 11.8786L7.63527 15.8012C9.9748 18.5829 13.6605 19.9497 17.5643 19.4834L19.8791 19.2069L20.5483 16.9738C21.6768 13.2076 20.962 9.34222 18.6225 6.56054L15.3234 2.63794L4.33618 11.8786Z" fill="#FED130"/>
<path d="M18.6224 6.56042L15.3233 2.63782L12.9665 4.62004L16.4449 8.73787C18.7845 11.5196 19.4993 15.3849 18.3707 19.1511L18.2975 19.3957L19.8791 19.2068L20.5483 16.9737C21.6767 13.2076 20.9619 9.3421 18.6224 6.56042Z" fill="#F7BC14"/>
<path d="M16.3618 3.05305L4.56719 12.9729C4.3954 13.1174 4.13898 13.0952 3.99454 12.9235L3.24813 12.036C3.10361 11.8642 3.12576 11.6078 3.29755 11.4634L15.0922 1.54354C15.264 1.39902 15.5204 1.42117 15.6649 1.59296L16.4112 2.4804C16.5557 2.65219 16.5336 2.9086 16.3618 3.05305Z" fill="#FFB125"/>
<path d="M16.4114 2.4804L15.665 1.59296C15.5205 1.42117 15.2641 1.39902 15.0924 1.54354L13.0087 3.296L14.2783 4.80558L16.362 3.05312C16.5337 2.90861 16.5558 2.65219 16.4114 2.4804Z" fill="#FF901D"/>
<path d="M12.7056 10.5524L14.8165 11.4776C14.8435 11.4895 14.8747 11.4873 14.8999 11.4717L16.8587 10.2573C16.9219 10.218 17.0027 10.2684 16.9954 10.3424L16.7678 12.6359C16.7648 12.6653 16.7766 12.6943 16.7992 12.7134L18.5595 14.2011C18.6164 14.2491 18.5934 14.3415 18.5207 14.3574L16.2692 14.8497C16.2403 14.8559 16.2164 14.8761 16.2052 14.9035L15.3343 17.0373C15.3062 17.1062 15.2112 17.113 15.1736 17.0487L14.0097 15.0594C13.9948 15.0339 13.9683 15.0174 13.9387 15.0152L11.6402 14.8463C11.566 14.8408 11.5302 14.7526 11.5797 14.6971L13.1119 12.9754C13.1315 12.9533 13.1391 12.9229 13.132 12.8942L12.5823 10.656C12.5646 10.5838 12.6374 10.5226 12.7056 10.5524Z" fill="white"/>
<path d="M33.2786 27.8383L26.086 33.8876C25.7737 34.1502 25.3011 34.0738 25.0874 33.7263L23.8987 31.7928C23.7254 31.5111 23.7846 31.145 24.0377 30.9321L30.718 25.3136C30.9712 25.1007 31.342 25.1052 31.5899 25.3242L33.291 26.8268C33.5967 27.0969 33.5909 27.5757 33.2786 27.8383Z" fill="#FFB125"/>
<path d="M33.291 26.8268L31.5899 25.3242C31.342 25.1052 30.9711 25.1007 30.718 25.3136L28.7689 26.9529L31.4819 29.3494L33.2787 27.8383C33.591 27.5757 33.5968 27.0969 33.291 26.8268Z" fill="#FF901D"/>
<path d="M26.0026 27.861C26.4898 28.3858 27.3102 28.4161 27.8347 27.9287L29.4574 26.4213C29.9817 25.9342 30.0121 25.1143 29.5251 24.5898C29.0379 24.065 28.2176 24.0347 27.693 24.5221L26.0703 26.0295C25.5459 26.5166 25.5156 27.3365 26.0026 27.861Z" fill="#F4C28C"/>
<path d="M26.0703 26.0294L27.6929 24.522C28.2175 24.0346 29.0379 24.0649 29.5251 24.5897C29.8076 24.894 29.9156 25.2977 29.8545 25.6781C29.3608 25.2576 28.6197 25.2638 28.1329 25.7159L26.5103 27.2234C26.2901 27.4279 26.1574 27.6911 26.1132 27.9665C26.0747 27.9337 26.0377 27.8988 26.0025 27.8608C25.5156 27.3365 25.5459 26.5166 26.0703 26.0294Z" fill="#FED9A8"/>
<path d="M24.7025 25.5219C25.197 26.0546 26.0299 26.0854 26.5624 25.5907L28.1563 24.1099C28.6886 23.6154 28.7193 22.7832 28.2251 22.2507C27.7306 21.718 26.8977 21.6872 26.3652 22.1819L24.7713 23.6627C24.239 24.1573 24.2083 24.9895 24.7025 25.5219Z" fill="#F4C28C"/>
<path d="M24.7713 23.6628L26.3652 22.1819C26.8977 21.6872 27.7305 21.718 28.2251 22.2507C28.5084 22.5559 28.6188 22.9595 28.5616 23.3416C28.0606 22.9056 27.3011 22.909 26.8035 23.3711L25.2095 24.8519C24.9824 25.063 24.8469 25.3356 24.8042 25.6202C24.769 25.5895 24.735 25.5568 24.7025 25.5219C24.2083 24.9895 24.239 24.1573 24.7713 23.6628Z" fill="#FED9A8"/>
<path d="M22.9034 23.6102C23.398 24.143 24.2308 24.1737 24.7633 23.679L26.3572 22.1982C26.8895 21.7038 26.9202 20.8715 26.426 20.339C25.9315 19.8063 25.0987 19.7755 24.5662 20.2703L22.9722 21.7511C22.4399 22.2455 22.4091 23.0778 22.9034 23.6102Z" fill="#F4C28C"/>
<path d="M22.9721 21.7511L24.5661 20.2703C25.0986 19.7755 25.9313 19.8063 26.4259 20.339C26.46 20.3758 26.4914 20.4141 26.5205 20.4535C26.2313 20.4738 25.9469 20.589 25.7179 20.8018L24.124 22.2826C23.6284 22.7429 23.5679 23.4959 23.9606 24.0273C23.5771 24.0542 23.1853 23.914 22.9034 23.6102C22.4091 23.0778 22.4399 22.2455 22.9721 21.7511Z" fill="#FED9A8"/>
<path d="M21.1706 21.6269C21.6651 22.1596 22.4979 22.1904 23.0305 21.6957L24.6244 20.2149C25.1566 19.7204 25.1874 18.8881 24.6932 18.3557C24.1986 17.823 23.3658 17.7922 22.8333 18.2869L21.2394 19.7677C20.7071 20.2622 20.6764 21.0944 21.1706 21.6269Z" fill="#F4C28C"/>
<path d="M21.2394 19.7677L22.8333 18.2869C23.3658 17.7922 24.1986 17.823 24.6932 18.3557C24.9762 18.6605 25.0867 19.0636 25.0299 19.4454C24.5289 19.0086 23.7687 19.0116 23.2709 19.4742L21.6769 20.955C21.4494 21.1663 21.3139 21.4394 21.2714 21.7244C21.2366 21.694 21.2029 21.6615 21.1706 21.6269C20.6764 21.0944 20.7071 20.2622 21.2394 19.7677Z" fill="#FED9A8"/>
<path d="M24.2162 22.6338L23.9206 22.9084C23.4556 23.3404 22.7379 23.3239 22.3173 22.8715L21.5731 22.071C21.2088 21.6792 20.5865 21.667 20.1861 22.0437C20.4102 25.5104 15.5544 26.177 15.5544 26.177L17.6183 21.1004C17.7455 20.7217 17.9658 20.3786 18.2585 20.1031L19.7244 18.7235C20.437 18.0528 21.5446 18.0742 22.1935 18.7712L24.2964 21.0298C24.7178 21.4826 24.6819 22.201 24.2162 22.6338Z" fill="#FED9A8"/>
<path d="M17.5031 10.3928C17.5258 10.1639 17.4186 9.94608 17.2233 9.82433C17.0281 9.70265 16.7853 9.70231 16.5896 9.82358L14.8187 10.9214L12.9104 10.0851C12.6996 9.99263 12.4594 10.0272 12.2832 10.1754C12.107 10.3236 12.0317 10.5545 12.0867 10.7779L12.5836 12.8014L11.1985 14.3577C11.0454 14.5296 11.0041 14.7689 11.0905 14.9823C11.1769 15.1955 11.3732 15.3385 11.6027 15.3554L13.6807 15.5081L14.7331 17.3066C14.8419 17.4925 15.0371 17.6036 15.2499 17.6036C15.2643 17.6036 15.279 17.603 15.2935 17.6021C15.523 17.5857 15.7196 17.4433 15.8066 17.2302L16.594 15.301L18.6299 14.8559C18.8546 14.8066 19.0286 14.6372 19.0839 14.414C19.1392 14.1907 19.0644 13.9598 18.8887 13.8113L17.2973 12.4664L17.5031 10.3928ZM17.5791 14.0408L16.1601 14.3511C15.967 14.3933 15.8072 14.5278 15.7326 14.7106L15.1837 16.0555L14.4498 14.8014C14.3501 14.6312 14.1732 14.521 13.976 14.5063L12.5274 14.3999L13.4932 13.3146C13.6244 13.167 13.6746 12.9645 13.6275 12.7727L13.2811 11.362L14.6112 11.9449C14.7921 12.0244 15.0003 12.0096 15.1686 11.9055L16.4033 11.14L16.2599 12.5855C16.2403 12.7821 16.3187 12.9756 16.4697 13.1033L17.5791 14.0408Z" fill="black"/>
<path d="M33.6289 26.4443L31.9277 24.9417C31.4939 24.5585 30.8326 24.5505 30.3896 24.923L30.3133 24.9872C30.2381 24.7162 30.1007 24.4598 29.8991 24.2426C29.6528 23.9773 29.3401 23.7958 28.9955 23.7142C29.1943 23.1039 29.0658 22.4063 28.5991 21.9035C28.2672 21.5459 27.8159 21.3391 27.3283 21.3211C27.3136 21.3206 27.2991 21.3208 27.2844 21.3206C27.3068 20.8472 27.147 20.3657 26.8 19.9919C26.4721 19.6386 26.0277 19.4329 25.547 19.4105C25.5904 18.9139 25.4322 18.4016 25.0672 18.0085C24.7352 17.6509 24.2839 17.444 23.7964 17.4261C23.3087 17.4077 22.8435 17.581 22.486 17.913L22.2438 18.138C21.8918 17.884 21.4708 17.7398 21.0237 17.7251C20.9673 17.7231 20.9114 17.724 20.8556 17.7262L21.0371 17.1203C21.3627 16.0336 21.5654 14.0637 21.5593 14.1694C21.5769 14.1779 21.5941 14.1867 21.6121 14.1947C21.8619 14.3061 22.131 14.3615 22.3991 14.3615C22.7063 14.3615 23.0122 14.2887 23.2855 14.144C23.8544 13.8428 24.2582 13.2132 24.2904 12.5773C24.3209 11.9721 24.0359 11.4377 23.488 11.0725C23.2534 10.9163 22.9365 10.9796 22.7802 11.2141C22.624 11.4486 22.6874 11.7655 22.9219 11.9218C23.1656 12.0842 23.2831 12.2873 23.271 12.5257C23.2568 12.8061 23.0621 13.1073 22.8079 13.2418C22.5749 13.3653 22.276 13.3732 22.0279 13.2624C21.8694 13.1918 21.664 13.0415 21.5854 12.7268C21.3513 11.7897 21.8881 10.8595 22.5097 9.78259C23.6357 7.83182 25.0369 5.40417 22.1038 1.93726L20.889 0.501435C20.6443 0.212206 20.3017 0.0359073 19.9243 0.00487213C19.5468 -0.026163 19.18 0.0918253 18.8913 0.337235C18.1087 1.00271 17.7018 2.0104 17.8029 3.03271L17.8635 3.64603C17.8946 3.96056 17.7735 4.26954 17.5404 4.48104L18.198 5.26308C18.6888 4.83446 18.9434 4.19517 18.8792 3.54561L18.8185 2.93229C18.7504 2.24296 19.0247 1.56353 19.5524 1.11482C19.6329 1.0464 19.7349 1.01331 19.8406 1.02213C19.9459 1.03074 20.0414 1.07996 20.1097 1.16062L21.3245 2.59644C23.794 5.51546 22.7407 7.34038 21.6256 9.27228C21.4512 9.5745 21.2754 9.87952 21.1163 10.1888C20.6946 8.73956 19.9888 7.3922 19.0129 6.23193L16.677 3.4547L16.6902 3.44369C16.8776 3.28605 16.9925 3.06491 17.0135 2.82094C17.0346 2.57689 16.9594 2.33934 16.8017 2.15197L16.0554 1.2646C15.8977 1.07716 15.6766 0.962314 15.4326 0.941259C15.1887 0.920273 14.9511 0.995331 14.7636 1.15297L2.96914 11.0728C2.5823 11.3981 2.53226 11.9775 2.85758 12.3645L3.60393 13.2519C3.76157 13.4393 3.98271 13.5542 4.22675 13.5752C4.25368 13.5776 4.28048 13.5787 4.30714 13.5787C4.52254 13.5787 4.72899 13.5037 4.89565 13.3635L4.90884 13.3523L5.7861 14.3954C5.53905 14.5857 5.21707 14.6512 4.91492 14.5684L4.32068 14.4053C3.33015 14.1334 2.26819 14.3646 1.48028 15.0239C1.18982 15.2671 1.0116 15.6087 0.978587 15.9861C0.945501 16.3634 1.06158 16.7308 1.30541 17.0207L2.51599 18.46C5.43897 21.9354 8.06814 20.9635 10.1807 20.1824C11.1341 19.83 11.9812 19.5169 12.7418 19.6267C12.883 19.6664 13.025 19.7039 13.1682 19.7385C13.1917 19.7477 13.2153 19.7572 13.2387 19.7675C13.5356 19.8979 13.6491 20.1258 13.6921 20.2939C13.7594 20.557 13.7012 20.8503 13.5403 21.0593C13.3649 21.2871 13.0352 21.428 12.7564 21.395C12.5194 21.3667 12.3389 21.2167 12.2199 20.9492C12.1054 20.6916 11.8038 20.5758 11.5461 20.6903C11.2886 20.8048 11.1727 21.1064 11.2872 21.364C11.5548 21.9657 12.0336 22.3366 12.6352 22.4085C12.7017 22.4164 12.7686 22.4203 12.8358 22.4203C13.4088 22.4203 13.9974 22.1385 14.3489 21.682C14.7021 21.2233 14.8263 20.6099 14.6809 20.0411C14.6775 20.0282 14.6735 20.0155 14.6699 20.0027C15.134 20.0549 15.6049 20.0824 16.0809 20.0824C16.5907 20.0824 17.1064 20.0519 17.6247 19.9901L17.6699 19.9847C17.4375 20.2619 17.2565 20.5806 17.1396 20.9222L15.1334 25.8567L4.43224 34.0851C4.25902 34.2183 4.18977 34.4471 4.26018 34.6539C4.33052 34.8608 4.5248 35 4.74334 35H16.8684C17.0061 35 17.1379 34.9444 17.234 34.8458L17.9093 34.1524C18.106 33.9505 18.1017 33.6274 17.8998 33.4307C17.6979 33.2341 17.3747 33.2383 17.1781 33.4402L16.653 33.9793H6.24438L15.8654 26.5817C15.8725 26.5762 15.8789 26.5703 15.8856 26.5645C15.8902 26.5606 15.8949 26.5569 15.8993 26.5528C15.9156 26.5379 15.9307 26.5222 15.9446 26.5056C15.9474 26.5023 15.9499 26.4988 15.9526 26.4954C15.9653 26.4796 15.9769 26.4631 15.9875 26.446C15.9895 26.4428 15.9917 26.4397 15.9936 26.4364C16.0056 26.4161 16.016 26.3951 16.025 26.3735C16.0256 26.372 16.0265 26.3707 16.0271 26.3693L18.091 21.2927C18.095 21.2829 18.0986 21.273 18.102 21.263C18.2022 20.9647 18.3773 20.6922 18.6082 20.4748L20.074 19.0952C20.3257 18.8582 20.6503 18.7338 20.99 18.7452C21.3106 18.7558 21.6054 18.8885 21.8199 19.1189C21.8199 19.1189 21.8199 19.1188 21.8199 19.1189L23.9228 21.3775C23.9229 21.3776 23.9228 21.3775 23.9229 21.3776C23.9229 21.3776 23.9227 21.3774 23.9228 21.3775L23.9229 21.3776C23.923 21.3777 23.9227 21.3774 23.9228 21.3775C23.9229 21.3776 23.9227 21.3774 23.9228 21.3775C24.0298 21.4925 24.0855 21.6444 24.0797 21.8052C24.0735 21.9778 23.9985 22.1394 23.8689 22.2599L23.5733 22.5345C23.3689 22.7244 23.0784 22.7603 22.8528 22.6453C22.8469 22.6421 22.8407 22.6394 22.8347 22.6364C22.7823 22.6074 22.7338 22.5699 22.691 22.524L21.9468 21.7234C21.6808 21.4373 21.3174 21.2725 20.9236 21.2594C20.5201 21.2462 20.1334 21.3925 19.8363 21.6721C19.8087 21.6982 19.7842 21.727 19.7633 21.7579C19.711 21.8353 19.6807 21.9259 19.6763 22.0199C19.6754 22.0387 19.6756 22.0577 19.6769 22.0767C19.6769 22.0774 19.6769 22.078 19.6769 22.0787C19.6794 22.1175 19.6811 22.1558 19.6821 22.194C19.6827 22.2154 19.6826 22.2367 19.6827 22.258C19.6829 22.2744 19.6831 22.2909 19.6829 22.3072C19.6827 22.3344 19.6817 22.3613 19.6807 22.3882C19.6803 22.398 19.6801 22.4077 19.6796 22.4175C19.6781 22.4479 19.676 22.478 19.6735 22.5079C19.6732 22.5118 19.6729 22.5158 19.6726 22.5196C19.6711 22.5324 19.67 22.5452 19.6695 22.5581C19.6218 23.0306 19.4511 23.4534 19.1527 23.8407C18.9806 24.064 19.0222 24.3844 19.2454 24.5564C19.4686 24.7284 19.7892 24.6868 19.9612 24.4636C20.1379 24.2342 20.2829 23.9925 20.3968 23.7397L24.7376 29.6767L24.634 29.7638C24.5692 29.786 24.5077 29.8214 24.4542 29.8707C24.0934 30.2026 23.6519 30.4263 23.1759 30.5187L19.98 30.7484C19.8553 30.7574 19.7382 30.8118 19.651 30.9013L18.8351 31.739C18.6385 31.9409 18.6427 32.2641 18.8447 32.4607C18.9438 32.5573 19.0723 32.6055 19.2007 32.6055C19.3335 32.6055 19.4662 32.5539 19.5663 32.4512L20.2467 31.7525L23.2782 31.5347C23.284 31.5343 23.2897 31.5332 23.2955 31.5326C23.3087 31.7154 23.3633 31.8966 23.464 32.0602L24.6527 33.9936C24.8325 34.2859 25.1297 34.4849 25.4684 34.5396C25.5312 34.5498 25.594 34.5548 25.6566 34.5548C25.9319 34.5548 26.2006 34.4583 26.4146 34.2783L33.6072 28.229C33.8698 28.0082 34.0227 27.6848 34.0269 27.3417C34.0311 26.9985 33.886 26.6715 33.6289 26.4443ZM9.82682 19.2251C7.73441 19.9987 5.75814 20.7292 3.2972 17.8031L2.08662 16.3638C2.01867 16.2829 1.98627 16.1805 1.9955 16.0752C2.00473 15.9699 2.05443 15.8746 2.1355 15.8068C2.66672 15.3623 3.38279 15.2064 4.05066 15.3897L4.64491 15.5528C5.2708 15.7245 5.93984 15.5839 6.44406 15.1777L7.24468 16.1297C8.2229 17.2928 9.43273 18.2209 10.7922 18.885C10.4686 18.988 10.1463 19.107 9.82682 19.2251ZM20.0593 16.8273L19.674 18.1132C19.569 18.1839 19.4686 18.2633 19.3744 18.3518L18.8861 18.8114L17.5038 18.9766C13.7878 19.4206 10.2444 18.1106 8.02582 15.4727L5.69005 12.6954L6.6019 11.9285C6.81764 11.7471 6.84539 11.4251 6.66397 11.2095C6.48261 10.9937 6.16057 10.9658 5.9449 11.1473L4.64265 12.2425C4.64258 12.2426 4.64251 12.2426 4.64244 12.2426C4.64238 12.2427 4.64231 12.2428 4.64224 12.2428L4.31822 12.5154L3.70558 11.787L15.3412 2.00097L15.9539 2.7294L15.6303 3.00154C15.6301 3.00175 15.6298 3.00188 15.6296 3.00202C15.6294 3.00216 15.6292 3.00243 15.629 3.00257L7.78554 9.59925C7.56987 9.78074 7.54204 10.1026 7.72347 10.3183C7.90483 10.5341 8.22673 10.5617 8.44254 10.3805L15.896 4.11163L18.2318 6.88887C20.4505 9.52692 21.1337 13.2423 20.0593 16.8273ZM28.6042 24.6864C28.814 24.6942 29.0083 24.7832 29.1511 24.9371C29.3946 25.1995 29.4279 25.5926 29.2387 25.891L27.015 27.7612C26.7755 27.7813 26.5429 27.693 26.3766 27.5138C26.0819 27.1964 26.1003 26.6983 26.4176 26.4035L26.7397 26.1041C26.7986 26.0612 26.8556 26.0149 26.9098 25.9646L28.1543 24.8085C28.2875 24.7238 28.4426 24.6812 28.6042 24.6864ZM26.7728 22.5052C26.9128 22.3982 27.0824 22.3405 27.26 22.3405C27.2701 22.3405 27.2803 22.3407 27.2905 22.341C27.5056 22.349 27.7046 22.4402 27.8511 22.5979C28.1531 22.9232 28.1343 23.4338 27.809 23.736L27.5151 24.0091C27.4564 24.0519 27.3996 24.0979 27.3456 24.1481L26.0995 25.3057C25.9626 25.3934 25.8028 25.438 25.6371 25.4316C25.4221 25.4236 25.223 25.3324 25.0766 25.1747C24.7943 24.8706 24.7925 24.4049 25.0589 24.0987C25.0763 24.0837 25.0937 24.0686 25.1105 24.0529L26.7045 22.5721C26.728 22.5503 26.7507 22.528 26.7728 22.5052ZM24.0677 20.0355L22.9701 18.8565L23.1807 18.6608C23.3383 18.5143 23.5435 18.4395 23.7586 18.446C23.9737 18.454 24.1727 18.5452 24.3191 18.7029C24.6212 19.0282 24.6023 19.5388 24.277 19.841L24.0677 20.0355ZM24.2679 23.2823L24.5635 23.0077C24.8931 22.7016 25.0835 22.2876 25.0996 21.8422C25.1136 21.4554 24.9933 21.0859 24.7592 20.7873L24.9134 20.6441C25.071 20.4976 25.2758 20.4209 25.4913 20.4293C25.7063 20.4373 25.9054 20.5285 26.0518 20.6862C26.3342 20.9904 26.3359 21.4562 26.0692 21.7626C26.0519 21.7775 26.0347 21.7924 26.0179 21.808L24.4239 23.2888C24.4004 23.3107 24.3775 23.3331 24.3554 23.356C24.2355 23.4477 24.0937 23.5025 23.9441 23.5163C24.0584 23.4523 24.1677 23.3755 24.2679 23.2823ZM20.7006 22.4259C20.7021 22.3874 20.7035 22.349 20.7038 22.3102C20.7185 22.3047 20.7336 22.2999 20.7487 22.2958C20.7943 22.2835 20.8417 22.278 20.8896 22.2797C21.0097 22.2837 21.1197 22.3331 21.1992 22.4186L21.9435 23.2192C22.0196 23.3011 22.1025 23.3732 22.1905 23.4355C22.2725 23.628 22.3859 23.803 22.5293 23.9575C22.8612 24.3151 23.3126 24.522 23.8002 24.54C23.8149 24.5405 23.8294 24.5406 23.844 24.5408C23.8218 25.014 23.9816 25.4955 24.3285 25.8692C24.5772 26.1371 24.8929 26.3204 25.2406 26.4031C25.0375 27.0101 25.1632 27.7072 25.6284 28.2083C25.7583 28.3482 25.9082 28.4645 26.0712 28.555L25.5204 29.0182L20.7006 22.4259ZM32.9502 27.4477L25.7576 33.497C25.7096 33.5375 25.6576 33.5362 25.6312 33.5319C25.6046 33.5276 25.5551 33.5125 25.5222 33.459L24.3334 31.5255C24.2923 31.4586 24.306 31.3733 24.3662 31.3227L31.0465 25.7042C31.0467 25.704 31.0465 25.7042 31.0467 25.704L31.0465 25.7042C31.0755 25.6798 31.1117 25.6675 31.1478 25.6675C31.1852 25.6675 31.2225 25.6807 31.2519 25.7067L32.9531 27.2093C33.0001 27.2509 33.0066 27.3023 33.0063 27.3293C33.006 27.3561 32.9983 27.4074 32.9502 27.4477Z" fill="black"/>
</g>
<defs>
<clipPath id="clip0">
<rect width="35" height="35" fill="white"/>
</clipPath>
</defs>
</svg>
