<svg width="295" height="295" viewBox="0 0 295 295" fill="none" xmlns="http://www.w3.org/2000/svg">
<g clip-path="url(#clip0)">
<path d="M124.721 40.3979C134.545 25.3325 139.457 17.7998 146.5 17.7998C153.543 17.7998 158.455 25.3325 168.279 40.3979L229.837 134.798C241.395 152.522 247.174 161.385 243.486 168.192C239.798 175 229.218 175 208.058 175H84.9419C63.7822 175 53.2023 175 49.5144 168.192C45.8264 161.385 51.6053 152.522 63.1632 134.798L124.721 40.3979Z" fill="white"/>
<rect x="52" y="117" width="190" height="158" rx="60" fill="white"/>
<path d="M174.432 32.4648C167.632 22.4648 161.632 13.2648 156.032 4.86483C155.232 3.66483 154.032 2.46483 152.832 1.66483C148.032 -1.53517 141.632 0.0648289 138.432 4.86483C133.232 13.2648 127.232 22.0648 120.032 32.4648C88.4319 78.8648 41.2319 148.865 41.2319 188.865C41.2319 218.065 53.2319 244.465 72.4319 263.665C91.6319 282.465 118.032 294.465 147.232 294.465C176.432 294.465 202.832 282.465 222.032 263.265C241.232 244.065 253.232 217.665 253.232 188.465C253.232 148.465 206.032 78.8648 174.432 32.4648ZM207.632 248.865C192.032 264.465 170.832 273.665 147.232 273.665C123.632 273.665 102.432 264.065 86.8319 248.865C71.2319 233.265 62.0319 212.065 62.0319 188.465C62.0319 154.865 107.232 88.0648 137.232 43.6648C140.832 38.4648 144.032 33.2648 147.232 28.8648C150.432 33.2648 153.632 38.4648 157.232 43.6648C187.232 88.4648 232.432 154.865 232.432 188.465C232.432 212.065 222.832 233.265 207.632 248.865Z" fill="black"/>
<path d="M209.232 181.265C203.632 180.865 198.832 185.265 198.432 190.865C198.032 199.665 195.232 208.065 190.832 215.265C186.432 222.465 180.032 228.865 172.432 232.865C167.632 235.665 165.632 242.065 168.432 246.865C171.632 252.465 178.032 254.065 182.832 251.265C193.632 245.265 202.432 236.465 208.432 226.465C214.832 216.465 218.432 204.465 218.832 192.065C219.232 186.465 214.832 181.665 209.232 181.265Z" fill="black"/>
</g>
<defs>
<clipPath id="clip0">
<rect width="294.465" height="294.465" fill="white"/>
</clipPath>
</defs>
</svg>
