<svg width="40" height="40" viewBox="0 0 40 40" xmlns="http://www.w3.org/2000/svg">
<g clip-path="url(#clip0)">
<path d="M39.8743 17.7791C39.8112 17.2169 39.1554 16.794 38.5884 16.794C36.7558 16.794 35.1293 15.7183 34.4473 14.0535C33.751 12.3488 34.2002 10.361 35.5656 9.10839C35.9957 8.71519 36.0481 8.05681 35.6876 7.59978C34.7493 6.4086 33.6834 5.33246 32.5192 4.39989C32.0637 4.03455 31.3944 4.0854 30.9991 4.52289C29.8071 5.84311 27.6657 6.3337 26.0109 5.64331C24.2895 4.91902 23.203 3.17412 23.3097 1.3012C23.3449 0.712529 22.9145 0.20101 22.3279 0.13268C20.8338 -0.0403053 19.3266 -0.0453219 17.8282 0.120917C17.249 0.184922 16.819 0.684332 16.8382 1.26556C16.9031 3.12014 15.8042 4.83426 14.0995 5.5326C12.4646 6.2005 10.3381 5.71355 9.14845 4.40491C8.75525 3.97383 8.09774 3.92089 7.63915 4.27846C6.44071 5.21898 5.35072 6.29582 4.4038 7.47731C4.03482 7.93659 4.08931 8.60224 4.52299 8.99682C5.91535 10.2577 6.36425 12.2626 5.64134 13.9873C4.95113 15.6315 3.24393 16.6907 1.28971 16.6907C0.655546 16.6703 0.204226 17.0964 0.134167 17.6731C-0.0415867 19.1751 -0.0434895 20.7064 0.12569 22.2207C0.18883 22.7853 0.863993 23.2047 1.43727 23.2047C3.17923 23.1604 4.85062 24.2381 5.55277 25.9449C6.25146 27.6497 5.8017 29.6366 4.43407 30.8909C4.00628 31.2841 3.95161 31.941 4.31281 32.3975C5.24157 33.5812 6.30854 34.658 7.4762 35.5986C7.93461 35.9677 8.6013 35.916 8.99865 35.478C10.1954 34.1546 12.3364 33.6649 13.9844 34.3567C15.7108 35.0791 16.7968 36.8238 16.6908 38.6973C16.656 39.2859 17.0875 39.799 17.672 39.8658C18.4366 39.9552 19.2051 39.9995 19.9761 39.9995C20.7079 39.9995 21.4398 39.9595 22.1717 39.8781C22.7515 39.8141 23.1809 39.3141 23.1613 38.7327C23.0944 36.879 24.1956 35.1647 25.8983 34.4678C27.5441 33.7955 29.6611 34.2875 30.8514 35.5942C31.2467 36.0245 31.9002 36.0767 32.3607 35.7205C33.5571 34.7824 34.645 33.7061 35.5961 32.5215C35.9654 32.0631 35.913 31.3966 35.4769 31.0013C34.0849 29.7413 33.6335 27.7355 34.3564 26.0126C35.0359 24.3905 36.6796 23.3014 38.4476 23.3014L38.6949 23.3079C39.2689 23.3545 39.7963 22.9125 39.8657 22.3269C40.0423 20.8235 40.0442 19.294 39.8743 17.7791ZM20.0002 31.5298C13.6321 31.5298 8.47 26.3677 8.47 19.9997C8.47 13.6318 13.6322 8.46973 20.0002 8.46973C26.3681 8.46973 31.5304 13.6318 31.5304 19.9997C31.5304 22.1612 30.9344 24.1829 29.8995 25.9117L24.8507 20.8628C25.2162 20.001 25.4093 19.0667 25.4091 18.1024C25.4091 16.2143 24.6737 14.4393 23.3385 13.1044C22.0035 11.7694 20.2285 11.0342 18.3407 11.0342C17.7107 11.0342 17.0836 11.118 16.477 11.2832C16.2113 11.3556 15.994 11.5746 15.9233 11.8409C15.851 12.1132 15.9324 12.3922 16.1452 12.6051C16.1452 12.6051 18.6378 15.1169 19.4717 15.9507C19.5591 16.038 19.5589 16.2465 19.5466 16.3215L19.5388 16.3764C19.4548 17.2932 19.2927 18.3937 19.159 18.8167C19.141 18.8345 19.124 18.8496 19.1057 18.8679C19.0865 18.8871 19.0688 18.9056 19.0503 18.9246C18.6218 19.0622 17.5044 19.2262 16.573 19.3095L16.5732 19.3045L16.5313 19.3151C16.5239 19.3159 16.51 19.317 16.4917 19.317C16.391 19.317 16.2429 19.2888 16.1084 19.1544C15.2403 18.2863 12.8455 15.9086 12.8455 15.9086C12.6307 15.6945 12.4103 15.6495 12.2634 15.6495C11.9211 15.6495 11.6145 15.8969 11.518 16.2517C10.8588 18.6913 11.5576 21.3155 13.3423 23.1003C14.6776 24.4354 16.4528 25.1706 18.3409 25.1706C19.3051 25.1706 20.2394 24.9778 21.1011 24.6122L26.2047 29.7158C24.4129 30.8624 22.2852 31.5298 20.0002 31.5298Z" />
</g>
<defs>
<clipPath id="clip0">
<rect width="40" height="40"/>
</clipPath>
</defs>
</svg>
