<svg width="40" height="40" viewBox="0 0 40 40" xmlns="http://www.w3.org/2000/svg">
<g clip-path="url(#clip0)">
<path d="M20 7.3576C17.4996 7.3576 15.0553 8.09907 12.9762 9.48824C10.8972 10.8774 9.2768 12.8519 8.31993 15.162C7.36305 17.4721 7.11269 20.014 7.6005 22.4664C8.08831 24.9188 9.29238 27.1715 11.0605 28.9396C12.8285 30.7076 15.0812 31.9117 17.5336 32.3995C19.986 32.8873 22.5279 32.637 24.838 31.6801C27.1481 30.7232 29.1226 29.1028 30.5118 27.0238C31.9009 24.9447 32.6424 22.5005 32.6424 20C32.6387 16.6482 31.3055 13.4347 28.9354 11.0646C26.5653 8.69449 23.3518 7.36133 20 7.3576ZM20 31.237C17.7779 31.237 15.6057 30.5781 13.7581 29.3436C11.9105 28.1091 10.4704 26.3545 9.62001 24.3016C8.76959 22.2487 8.54699 19.9897 8.98038 17.8103C9.41377 15.6309 10.4837 13.6289 12.0548 12.0576C13.6259 10.4862 15.6278 9.41603 17.8071 8.98233C19.9864 8.54863 22.2454 8.7709 24.2985 9.62103C26.3515 10.4712 28.1063 11.911 29.3411 13.7584C30.5758 15.6059 31.2351 17.7779 31.2354 20C31.2321 22.9788 30.0473 25.8347 27.941 27.941C25.8346 30.0473 22.9788 31.2321 20 31.2354V31.237Z" />
<path d="M38.2476 22.9367C39.0689 22.1134 40 21.1803 40 20C40 18.8197 39.0689 17.8866 38.2476 17.0653C37.6953 16.5118 37.1244 15.9397 36.993 15.448C36.8515 14.919 37.0645 14.1134 37.2704 13.3339C37.5759 12.1781 37.8915 10.9825 37.3226 9.9996C36.7449 9.00141 35.5409 8.67658 34.3763 8.36261C33.6072 8.15517 32.8117 7.9405 32.4366 7.56543C32.0615 7.19035 31.8472 6.39518 31.6398 5.62573C31.3258 4.4599 31.001 3.25749 30.0032 2.6798C29.0195 2.11095 27.8239 2.42653 26.6665 2.73166C25.887 2.93749 25.0806 3.14975 24.5524 3.00905C24.0603 2.87759 23.4886 2.30673 22.9351 1.75437C22.1134 0.931055 21.1803 0 20 0C18.8197 0 17.887 0.931055 17.0653 1.75236C16.5118 2.30472 15.9397 2.87558 15.448 3.00703C14.919 3.14774 14.113 2.93548 13.3335 2.72965C12.1769 2.42412 10.9821 2.10814 9.99879 2.67739C9.0006 3.25508 8.67618 4.4591 8.36181 5.62372C8.15477 6.39276 7.9401 7.18874 7.56503 7.56342C7.18995 7.93809 6.39477 8.15276 5.62533 8.3602C4.4595 8.67417 3.25668 8.99899 2.6794 9.99719C2.11055 10.9801 2.42613 12.1757 2.73126 13.3315C2.93709 14.111 3.15015 14.917 3.00864 15.446C2.87437 15.9397 2.30472 16.5097 1.75276 17.0653C0.931056 17.8886 0 18.8217 0 20.002C0 21.1823 0.931056 22.1154 1.75276 22.9387C2.30472 23.4923 2.87558 24.0643 3.00704 24.556C3.14854 25.085 2.93548 25.8907 2.72965 26.6706C2.42452 27.8263 2.10854 29.0215 2.67779 30.0044C3.25508 31.0026 4.4591 31.3274 5.62372 31.6414C6.39276 31.8488 7.18834 32.0635 7.56301 32.4386C7.93769 32.8137 8.15276 33.6092 8.3602 34.3783C8.67417 35.5441 8.99899 36.7465 9.99719 37.3242C10.9801 37.8935 12.1761 37.5775 13.3319 37.2724C14.111 37.0665 14.9162 36.8531 15.446 36.995C15.9381 37.1264 16.5102 37.6973 17.0637 38.2496C17.887 39.071 18.8197 40.002 19.9984 40.002C21.1771 40.002 22.1118 39.071 22.9351 38.2496C23.4886 37.6973 24.0607 37.1264 24.5524 36.995C25.081 36.8535 25.8878 37.0665 26.6665 37.2724C27.8227 37.5783 29.0175 37.8939 30.0008 37.3246C30.999 36.7469 31.3238 35.5429 31.6378 34.3783C31.8452 33.6092 32.0599 32.8137 32.435 32.4386C32.8101 32.0635 33.6052 31.8492 34.3747 31.6418C35.5405 31.3278 36.7429 31.003 37.3206 30.0052C37.8899 29.0219 37.5743 27.8263 37.2687 26.6685C37.0625 25.889 36.8498 25.0834 36.9914 24.5544C37.1256 24.0603 37.6953 23.4902 38.2476 22.9367ZM35.91 27.0271C36.1423 27.9075 36.3827 28.8177 36.1045 29.2981C35.8179 29.7934 34.8985 30.0418 34.0101 30.281C33.0621 30.5367 32.0824 30.8008 31.4416 31.4416C30.8008 32.0824 30.5363 33.0621 30.281 34.01C30.0398 34.8989 29.7934 35.8191 29.2981 36.1049C28.8157 36.3831 27.9075 36.1419 27.0275 35.9099C26.0708 35.6571 25.081 35.3966 24.1906 35.6338C23.3351 35.8621 22.6271 36.5684 21.9429 37.2515C21.2816 37.9112 20.5982 38.593 20 38.593C19.4018 38.593 18.7184 37.9095 18.0575 37.2515C17.3741 36.568 16.6653 35.8621 15.8094 35.6338C15.5611 35.5694 15.3054 35.5379 15.0488 35.5401C14.3439 35.5756 13.6463 35.6998 12.9725 35.9099C12.0925 36.1419 11.1819 36.3819 10.7019 36.1045C10.2062 35.8179 9.95819 34.8985 9.71859 34.01C9.46332 33.0621 9.1992 32.0824 8.55839 31.4416C7.91759 30.8008 6.93749 30.5363 5.98995 30.281C5.10111 30.0398 4.1809 29.7934 3.89548 29.2981C3.61729 28.8157 3.85769 27.9075 4.09005 27.0275C4.34291 26.0708 4.60462 25.081 4.36623 24.1906C4.13749 23.3351 3.43156 22.6271 2.74854 21.9429C2.08925 21.2816 1.40704 20.5982 1.40704 20C1.40704 19.4018 2.09045 18.7184 2.74854 18.0571C3.43196 17.3737 4.13749 16.6649 4.36623 15.8094C4.60462 14.919 4.34291 13.9292 4.09005 12.9721C3.85769 12.0921 3.61769 11.1823 3.89548 10.7019C4.18211 10.2066 5.10151 9.95819 5.98995 9.71899C6.93789 9.46332 7.9196 9.1992 8.55839 8.55839C9.19719 7.91759 9.46372 6.93789 9.71899 5.98995C9.9602 5.10111 10.2066 4.1809 10.7019 3.89507C11.1815 3.61688 12.0921 3.85769 12.9725 4.09005C13.9296 4.34332 14.9198 4.60422 15.8094 4.36623C16.6653 4.13789 17.3729 3.43156 18.0575 2.74854C18.7184 2.08884 19.4018 1.40704 20 1.40704C20.5982 1.40704 21.2816 2.09045 21.9429 2.74854C22.6263 3.43196 23.3351 4.13789 24.1906 4.36623C25.081 4.60422 26.0708 4.34332 27.0271 4.09005C27.9075 3.85809 28.8173 3.61729 29.2981 3.89548C29.7934 4.18211 30.0418 5.10151 30.281 5.98995C30.5367 6.93789 30.8008 7.9196 31.4416 8.55839C32.0824 9.19719 33.0621 9.46372 34.0101 9.71899C34.8989 9.9602 35.8191 10.2066 36.1049 10.7019C36.3827 11.1843 36.1423 12.0925 35.91 12.9725C35.6571 13.9292 35.3958 14.919 35.6338 15.8094C35.8621 16.6649 36.5684 17.3729 37.2515 18.0571C37.9112 18.7184 38.593 19.4018 38.593 20C38.593 20.5982 37.9095 21.2816 37.2515 21.9429C36.568 22.6263 35.8621 23.3351 35.6338 24.1906C35.397 25.0806 35.6571 26.0704 35.91 27.0271Z"/>
<path d="M25.4958 14.3196C25.1922 14.3188 24.8914 14.3782 24.6108 14.4945C24.3303 14.6108 24.0757 14.7816 23.8617 14.997L18.7581 20.0997L16.1382 17.4798C15.9242 17.2625 15.6693 17.0897 15.3881 16.9714C15.107 16.8531 14.8052 16.7915 14.5002 16.7904C14.1952 16.7892 13.893 16.8484 13.611 16.9646C13.3289 17.0808 13.0727 17.2516 12.857 17.4673C12.6413 17.683 12.4705 17.9392 12.3542 18.2212C12.238 18.5032 12.1788 18.8054 12.1799 19.1104C12.181 19.4154 12.2425 19.7172 12.3608 19.9984C12.4791 20.2795 12.6518 20.5345 12.8691 20.7485L17.1236 25.003C17.3382 25.2178 17.593 25.3881 17.8734 25.5044C18.1539 25.6206 18.4545 25.6804 18.7581 25.6804C19.0617 25.6804 19.3624 25.6206 19.6428 25.5044C19.9233 25.3881 20.1781 25.2178 20.3927 25.003L27.1304 18.2661C27.4536 17.9428 27.6738 17.5309 27.7629 17.0825C27.8521 16.634 27.8063 16.1693 27.6314 15.7469C27.4564 15.3245 27.1602 14.9634 26.78 14.7094C26.3999 14.4553 25.953 14.3197 25.4958 14.3196ZM26.1358 17.2707L19.3969 24.0084C19.2245 24.1728 18.9955 24.2644 18.7573 24.2644C18.5192 24.2644 18.2901 24.1728 18.1177 24.0084L13.8641 19.754C13.7801 19.67 13.7135 19.5703 13.668 19.4605C13.6225 19.3508 13.5991 19.2331 13.5991 19.1144C13.5991 18.9956 13.6225 18.878 13.668 18.7682C13.7135 18.6585 13.7801 18.5588 13.8641 18.4748C13.9481 18.3908 14.0478 18.3241 14.1575 18.2787C14.2673 18.2332 14.3849 18.2098 14.5037 18.2098C14.6225 18.2098 14.7401 18.2332 14.8498 18.2787C14.9596 18.3241 15.0593 18.3908 15.1433 18.4748L18.2609 21.5919C18.3261 21.6573 18.4036 21.7092 18.489 21.7446C18.5743 21.7799 18.6658 21.7982 18.7581 21.7982C18.8505 21.7982 18.942 21.7799 19.0273 21.7446C19.1126 21.7092 19.1902 21.6573 19.2554 21.5919L24.857 15.9911C25.0291 15.8264 25.2582 15.7344 25.4964 15.7344C25.7347 15.7344 25.9637 15.8264 26.1358 15.9911C26.2198 16.0751 26.2864 16.1748 26.3319 16.2845C26.3773 16.3942 26.4007 16.5118 26.4007 16.6305C26.4007 16.7493 26.3773 16.8669 26.3319 16.9766C26.2864 17.0863 26.2198 17.186 26.1358 17.2699V17.2707Z" />
</g>
<defs>
<clipPath id="clip0">
<rect width="40" height="40"/>
</clipPath>
</defs>
</svg>
