<svg width="34" height="34" viewBox="0 0 34 34" fill="none" xmlns="http://www.w3.org/2000/svg">
<path d="M6.4554 0C4.70182 0 3.27515 1.42667 3.27515 3.18026V30.8197C3.27515 32.5733 4.70182 33.9999 6.4554 33.9999H15.6053V0H6.4554Z" fill="#EFEFEF"/>
<path d="M5.16965 30.8197V3.18026C5.16965 1.42667 6.59632 0 8.3499 0H6.4554C4.70182 0 3.27515 1.42667 3.27515 3.18026V30.8197C3.27515 32.5733 4.70182 33.9999 6.4554 33.9999H8.3499C6.59632 33.9999 5.16965 32.5733 5.16965 30.8197Z" fill="#DDDDDD"/>
<path d="M6.77741 1.77417C5.89314 1.77417 5.16965 2.49766 5.16965 3.38193V7.14477C5.16965 8.02903 5.89314 8.75252 6.77741 8.75252C7.66167 8.75252 8.38516 8.02903 8.38516 7.14477V3.38193C8.38516 2.49766 7.66167 1.77417 6.77741 1.77417Z" fill="#535454"/>
<path d="M6.77741 7.14459V3.38182C6.77741 2.78994 7.1018 2.27052 7.58125 1.99148C6.51331 1.36992 5.16965 2.15132 5.16965 3.38182V7.14466C5.16965 8.37457 6.51258 9.15703 7.58125 8.535C7.1018 8.2559 6.77741 7.73647 6.77741 7.14459Z" fill="#444443"/>
<path d="M27.5445 0H15.6052C13.8517 0 12.425 1.42667 12.425 3.18026V30.8197C12.425 32.5733 13.8517 34 15.6052 34H27.5445C29.2981 34 30.7248 32.5733 30.7248 30.8197V3.18026C30.7248 1.42667 29.2982 0 27.5445 0Z" fill="#535454"/>
<path d="M14.1867 30.8197V3.18026C14.1867 1.42667 15.6133 0 17.3669 0H15.6052C13.8517 0 12.425 1.42667 12.425 3.18026V30.8197C12.425 32.5733 13.8517 34 15.6052 34H17.3669C15.6133 33.9999 14.1867 32.5733 14.1867 30.8197Z" fill="#444443"/>
<path d="M28.9628 30.8197C28.9628 31.6029 28.3278 32.2379 27.5445 32.2379H15.6052C14.822 32.2379 14.187 31.6029 14.187 30.8197V3.18026C14.187 2.397 14.822 1.76203 15.6052 1.76203H17.0932C17.3863 1.76203 17.6239 1.99963 17.6239 2.29275V2.62929C17.6239 3.08085 17.9933 3.45027 18.4449 3.45027H24.7048C25.1564 3.45027 25.5258 3.08085 25.5258 2.62929V2.14254C25.5258 1.93236 25.6962 1.76196 25.9063 1.76196H27.5445C28.3278 1.76196 28.9628 2.39694 28.9628 3.1802V30.8197Z" fill="#A4D9F4"/>
<path d="M15.879 30.8197V3.18027C15.879 2.43951 16.4471 1.83223 17.1712 1.76841C17.0888 1.75619 17.1765 1.76469 15.6052 1.76204C14.822 1.76204 14.187 2.39701 14.187 3.18027V30.8198C14.187 31.603 14.822 32.238 15.6052 32.238H17.2971C16.5139 32.2379 15.879 31.603 15.879 30.8197Z" fill="#7CC9E8"/>
<path d="M23.6399 2.27514H20.9609C20.6775 2.27514 20.4478 2.04544 20.4478 1.76202C20.4478 1.4786 20.6775 1.2489 20.9609 1.2489H23.6399C23.9233 1.2489 24.153 1.4786 24.153 1.76202C24.153 2.04544 23.9233 2.27514 23.6399 2.27514Z" fill="#666666"/>
<path d="M19.0623 2.18868C18.695 1.94723 18.784 1.35695 19.2464 1.25893C19.5609 1.19405 19.8601 1.43763 19.8601 1.76176C19.8601 2.00009 19.6956 2.21372 19.4468 2.26532C19.414 2.27142 19.1668 2.25934 19.0623 2.18868Z" fill="#666666"/>
<path d="M6.49252 3.87717C6.24855 3.71049 6.19814 3.39214 6.35095 3.16563C6.62248 2.75318 7.29026 2.93606 7.29026 3.45025C7.29026 3.69841 7.11183 3.90925 6.87768 3.95307C6.81373 3.96649 6.61086 3.95493 6.49252 3.87717Z" fill="#666666"/>
<path d="M6.49252 5.69022C6.24855 5.52354 6.19814 5.20519 6.35095 4.97868C6.56371 4.64778 7.08693 4.67746 7.25128 5.06693C7.32898 5.25054 7.29046 5.47593 7.14045 5.62587C7.01813 5.74819 6.70303 5.82854 6.49252 5.69022Z" fill="#F9D698"/>
<path d="M6.49252 7.50245C6.15392 7.27993 6.20007 6.76322 6.58078 6.60212C7.11827 6.39208 7.52514 7.05421 7.14045 7.43884C7.00704 7.57225 6.72029 7.65811 6.49252 7.50245Z" fill="#666666"/>
<path d="M17.4885 7.58112H16.1155C15.9897 7.58112 15.8867 7.47812 15.8867 7.35228V5.9792C15.8867 5.85336 15.9897 5.75037 16.1155 5.75037H17.4885C17.6144 5.75037 17.7174 5.85336 17.7174 5.9792V7.35222C17.7174 7.47812 17.6144 7.58112 17.4885 7.58112Z" fill="#70B5E8"/>
<path d="M20.721 7.58112H19.348C19.2221 7.58112 19.1191 7.47812 19.1191 7.35228V5.9792C19.1191 5.85336 19.2221 5.75037 19.348 5.75037H20.721C20.8468 5.75037 20.9498 5.85336 20.9498 5.9792V7.35222C20.9498 7.47812 20.8468 7.58112 20.721 7.58112Z" fill="#EFEFEF"/>
<path d="M23.9533 7.58112H22.5803C22.4545 7.58112 22.3515 7.47812 22.3515 7.35228V5.9792C22.3515 5.85336 22.4545 5.75037 22.5803 5.75037H23.9533C24.0792 5.75037 24.1822 5.85336 24.1822 5.9792V7.35222C24.1822 7.47812 24.0792 7.58112 23.9533 7.58112Z" fill="#92B620"/>
<path d="M27.1857 7.58112H25.8127C25.6869 7.58112 25.5839 7.47812 25.5839 7.35228V5.9792C25.5839 5.85336 25.6869 5.75037 25.8127 5.75037H27.1857C27.3116 5.75037 27.4146 5.85336 27.4146 5.9792V7.35222C27.4146 7.47812 27.3116 7.58112 27.1857 7.58112Z" fill="#898989"/>
<path d="M17.4885 10.8453H16.1155C15.9897 10.8453 15.8867 10.7423 15.8867 10.6165V9.24348C15.8867 9.11764 15.9897 9.01465 16.1155 9.01465H17.4885C17.6144 9.01465 17.7174 9.11764 17.7174 9.24348V10.6165C17.7174 10.7423 17.6144 10.8453 17.4885 10.8453Z" fill="#92B620"/>
<path d="M20.721 10.8453H19.348C19.2221 10.8453 19.1191 10.7423 19.1191 10.6165V9.24348C19.1191 9.11764 19.2221 9.01465 19.348 9.01465H20.721C20.8468 9.01465 20.9498 9.11764 20.9498 9.24348V10.6165C20.9498 10.7423 20.8468 10.8453 20.721 10.8453Z" fill="#898989"/>
<path d="M23.9533 10.8453H22.5803C22.4545 10.8453 22.3515 10.7423 22.3515 10.6165V9.24348C22.3515 9.11764 22.4545 9.01465 22.5803 9.01465H23.9533C24.0792 9.01465 24.1822 9.11764 24.1822 9.24348V10.6165C24.1822 10.7423 24.0792 10.8453 23.9533 10.8453Z" fill="#70B5E8"/>
<path d="M27.1857 10.8453H25.8127C25.6869 10.8453 25.5839 10.7423 25.5839 10.6165V9.24348C25.5839 9.11764 25.6869 9.01465 25.8127 9.01465H27.1857C27.3116 9.01465 27.4146 9.11764 27.4146 9.24348V10.6165C27.4146 10.7423 27.3116 10.8453 27.1857 10.8453Z" fill="#F94A46"/>
<path d="M17.4885 14.1521H16.1155C15.9897 14.1521 15.8867 14.0491 15.8867 13.9233V12.5502C15.8867 12.4244 15.9897 12.3214 16.1155 12.3214H17.4885C17.6144 12.3214 17.7174 12.4244 17.7174 12.5502V13.9233C17.7174 14.0491 17.6144 14.1521 17.4885 14.1521Z" fill="#DDA36F"/>
<path d="M20.721 14.1521H19.348C19.2221 14.1521 19.1191 14.0491 19.1191 13.9233V12.5502C19.1191 12.4244 19.2221 12.3214 19.348 12.3214H20.721C20.8468 12.3214 20.9498 12.4244 20.9498 12.5502V13.9233C20.9498 14.0491 20.8468 14.1521 20.721 14.1521Z" fill="#F9D698"/>
<path d="M23.9533 14.1521H22.5803C22.4545 14.1521 22.3515 14.0491 22.3515 13.9233V12.5502C22.3515 12.4244 22.4545 12.3214 22.5803 12.3214H23.9533C24.0792 12.3214 24.1822 12.4244 24.1822 12.5502V13.9233C24.1822 14.0491 24.0792 14.1521 23.9533 14.1521Z" fill="#898989"/>
<path d="M27.1857 14.1521H25.8127C25.6869 14.1521 25.5839 14.0491 25.5839 13.9233V12.5502C25.5839 12.4244 25.6869 12.3214 25.8127 12.3214H27.1857C27.3116 12.3214 27.4146 12.4244 27.4146 12.5502V13.9233C27.4146 14.0491 27.3116 14.1521 27.1857 14.1521Z" fill="#F9D698"/>
<path d="M17.4885 17.4164H16.1155C15.9897 17.4164 15.8867 17.3134 15.8867 17.1875V15.8145C15.8867 15.6887 15.9897 15.5857 16.1155 15.5857H17.4885C17.6144 15.5857 17.7174 15.6887 17.7174 15.8145V17.1875C17.7174 17.3134 17.6144 17.4164 17.4885 17.4164Z" fill="#70B5E8"/>
<path d="M20.721 17.4164H19.348C19.2221 17.4164 19.1191 17.3134 19.1191 17.1875V15.8145C19.1191 15.6887 19.2221 15.5857 19.348 15.5857H20.721C20.8468 15.5857 20.9498 15.6887 20.9498 15.8145V17.1875C20.9498 17.3134 20.8468 17.4164 20.721 17.4164Z" fill="#70B5E8"/>
<path d="M23.9533 17.4164H22.5803C22.4545 17.4164 22.3515 17.3134 22.3515 17.1875V15.8145C22.3515 15.6887 22.4545 15.5857 22.5803 15.5857H23.9533C24.0792 15.5857 24.1822 15.6887 24.1822 15.8145V17.1875C24.1822 17.3134 24.0792 17.4164 23.9533 17.4164Z" fill="#F94A46"/>
<path d="M17.4885 20.6805H16.1155C15.9897 20.6805 15.8867 20.5775 15.8867 20.4517V19.0787C15.8867 18.9528 15.9897 18.8499 16.1155 18.8499H17.4885C17.6144 18.8499 17.7174 18.9528 17.7174 19.0787V20.4517C17.7174 20.5775 17.6144 20.6805 17.4885 20.6805Z" fill="#EFEFEF"/>
<path d="M20.721 20.6805H19.348C19.2221 20.6805 19.1191 20.5775 19.1191 20.4517V19.0787C19.1191 18.9528 19.2221 18.8499 19.348 18.8499H20.721C20.8468 18.8499 20.9498 18.9528 20.9498 19.0787V20.4517C20.9498 20.5775 20.8468 20.6805 20.721 20.6805Z" fill="#92B620"/>
<path d="M23.9533 20.6805H22.5803C22.4545 20.6805 22.3515 20.5775 22.3515 20.4517V19.0787C22.3515 18.9528 22.4545 18.8499 22.5803 18.8499H23.9533C24.0792 18.8499 24.1822 18.9528 24.1822 19.0787V20.4517C24.1822 20.5775 24.0792 20.6805 23.9533 20.6805Z" fill="#898989"/>
<path d="M27.1857 17.4164H25.8127C25.6869 17.4164 25.5839 17.3134 25.5839 17.1875V15.8145C25.5839 15.6887 25.6869 15.5857 25.8127 15.5857H27.1857C27.3116 15.5857 27.4146 15.6887 27.4146 15.8145V17.1875C27.4146 17.3134 27.3116 17.4164 27.1857 17.4164Z" fill="#FFB70D"/>
<path d="M17.4886 30.7523H16.1156C15.9897 30.7523 15.8867 30.6493 15.8867 30.5235V29.1505C15.8867 29.0246 15.9897 28.9216 16.1156 28.9216H17.4886C17.6144 28.9216 17.7174 29.0246 17.7174 29.1505V30.5235C17.7174 30.6493 17.6144 30.7523 17.4886 30.7523Z" fill="#92B620"/>
<path d="M20.721 30.7523H19.348C19.2221 30.7523 19.1191 30.6493 19.1191 30.5235V29.1505C19.1191 29.0246 19.2221 28.9216 19.348 28.9216H20.721C20.8468 28.9216 20.9498 29.0246 20.9498 29.1505V30.5235C20.9498 30.6493 20.8468 30.7523 20.721 30.7523Z" fill="#70B5E8"/>
<path d="M23.9533 30.7523H22.5803C22.4545 30.7523 22.3515 30.6493 22.3515 30.5235V29.1505C22.3515 29.0246 22.4545 28.9216 22.5803 28.9216H23.9533C24.0792 28.9216 24.1822 29.0246 24.1822 29.1505V30.5235C24.1822 30.6493 24.0792 30.7523 23.9533 30.7523Z" fill="#92B620"/>
<path d="M27.1857 30.7523H25.8127C25.6869 30.7523 25.5839 30.6493 25.5839 30.5235V29.1505C25.5839 29.0246 25.6869 28.9216 25.8127 28.9216H27.1857C27.3116 28.9216 27.4146 29.0246 27.4146 29.1505V30.5235C27.4146 30.6493 27.3116 30.7523 27.1857 30.7523Z" fill="#EFEFEF"/>
</svg>
