<svg width="121" height="44" viewBox="0 0 121 44" fill="none" xmlns="http://www.w3.org/2000/svg">
<path d="M14.8574 24.6123C14.6497 23.8818 14.4349 23.1585 14.2129 22.4424C13.9909 21.7191 13.7581 20.9922 13.5146 20.2617L4.86719 20.6377C4.60221 21.3252 4.34798 22.0091 4.10449 22.6895C3.861 23.3698 3.62467 24.0573 3.39551 24.752L0.957031 24.4189C1.9668 21.7119 3.08398 19.0479 4.30859 16.4268C5.54036 13.8057 6.85091 11.2096 8.24023 8.63867L11.248 8.69238C12.4798 11.1774 13.6042 13.7126 14.6211 16.2979C15.638 18.876 16.5618 21.5257 17.3926 24.2471L14.8574 24.6123ZM9.51855 10.4219C8.79525 11.7969 8.11133 13.179 7.4668 14.5684C6.82227 15.9505 6.20638 17.3506 5.61914 18.7686L12.8809 18.457C12.3939 17.082 11.8711 15.7321 11.3125 14.4072C10.7539 13.0824 10.1559 11.7539 9.51855 10.4219ZM21.8721 12.7314L21.8506 14.2998C22.2588 13.8988 22.6849 13.5908 23.1289 13.376C23.5729 13.154 23.9811 12.9857 24.3535 12.8711C24.7904 12.7422 25.2165 12.6598 25.6318 12.624C26.1188 12.624 26.6022 12.6956 27.082 12.8389C27.5618 12.9749 28.0166 13.1719 28.4463 13.4297C28.876 13.6803 29.2734 13.9847 29.6387 14.3428C30.0039 14.7008 30.3154 15.1019 30.5732 15.5459C30.8311 15.9827 31.028 16.4554 31.1641 16.9639C31.3073 17.4723 31.3682 18.0059 31.3467 18.5645C31.3252 19.1803 31.2321 19.7604 31.0674 20.3047C30.9027 20.849 30.6842 21.3503 30.4121 21.8086C30.1471 22.2598 29.8356 22.668 29.4775 23.0332C29.1195 23.3984 28.7363 23.7064 28.3281 23.957C27.9271 24.2077 27.5081 24.3975 27.0713 24.5264C26.6416 24.6624 26.2119 24.7305 25.7822 24.7305C25.3454 24.7161 24.9014 24.6517 24.4502 24.5371C24.0563 24.4368 23.623 24.2793 23.1504 24.0645C22.6777 23.8568 22.2122 23.556 21.7539 23.1621L21.6895 30.4453L19.6914 30.4883L19.5088 12.8281L21.8721 12.7314ZM28.9297 18.7686C28.9583 18.2458 28.8903 17.7445 28.7256 17.2646C28.568 16.7777 28.3281 16.3516 28.0059 15.9863C27.6908 15.6211 27.3112 15.3311 26.8672 15.1162C26.4232 14.9014 25.9362 14.7975 25.4062 14.8047C24.9622 14.8118 24.5433 14.8942 24.1494 15.0518C23.7627 15.2021 23.4118 15.4062 23.0967 15.6641C22.7887 15.9147 22.5238 16.2083 22.3018 16.5449C22.0869 16.8815 21.9258 17.2324 21.8184 17.5977L21.7969 19.6387C21.9043 20.1113 22.0726 20.5267 22.3018 20.8848C22.5309 21.2428 22.7995 21.5436 23.1074 21.7871C23.4225 22.0234 23.7627 22.2061 24.1279 22.335C24.4932 22.4567 24.862 22.5212 25.2344 22.5283C25.7357 22.5426 26.2048 22.4531 26.6416 22.2598C27.0856 22.0664 27.4723 21.7979 27.8018 21.4541C28.1312 21.1104 28.3926 20.7093 28.5859 20.251C28.7865 19.7926 28.901 19.2985 28.9297 18.7686ZM36.1162 12.7314L36.0947 14.2998C36.5029 13.8988 36.929 13.5908 37.373 13.376C37.8171 13.154 38.2253 12.9857 38.5977 12.8711C39.0345 12.7422 39.4606 12.6598 39.876 12.624C40.363 12.624 40.8464 12.6956 41.3262 12.8389C41.806 12.9749 42.2607 13.1719 42.6904 13.4297C43.1201 13.6803 43.5176 13.9847 43.8828 14.3428C44.248 14.7008 44.5596 15.1019 44.8174 15.5459C45.0752 15.9827 45.2721 16.4554 45.4082 16.9639C45.5514 17.4723 45.6123 18.0059 45.5908 18.5645C45.5693 19.1803 45.4762 19.7604 45.3115 20.3047C45.1468 20.849 44.9284 21.3503 44.6562 21.8086C44.3913 22.2598 44.0798 22.668 43.7217 23.0332C43.3636 23.3984 42.9805 23.7064 42.5723 23.957C42.1712 24.2077 41.7523 24.3975 41.3154 24.5264C40.8857 24.6624 40.4561 24.7305 40.0264 24.7305C39.5895 24.7161 39.1455 24.6517 38.6943 24.5371C38.3005 24.4368 37.8672 24.2793 37.3945 24.0645C36.9219 23.8568 36.4564 23.556 35.998 23.1621L35.9336 30.4453L33.9355 30.4883L33.7529 12.8281L36.1162 12.7314ZM43.1738 18.7686C43.2025 18.2458 43.1344 17.7445 42.9697 17.2646C42.8122 16.7777 42.5723 16.3516 42.25 15.9863C41.9349 15.6211 41.5553 15.3311 41.1113 15.1162C40.6673 14.9014 40.1803 14.7975 39.6504 14.8047C39.2064 14.8118 38.7874 14.8942 38.3936 15.0518C38.0068 15.2021 37.6559 15.4062 37.3408 15.6641C37.0329 15.9147 36.7679 16.2083 36.5459 16.5449C36.3311 16.8815 36.1699 17.2324 36.0625 17.5977L36.041 19.6387C36.1484 20.1113 36.3167 20.5267 36.5459 20.8848C36.7751 21.2428 37.0436 21.5436 37.3516 21.7871C37.6667 22.0234 38.0068 22.2061 38.3721 22.335C38.7373 22.4567 39.1061 22.5212 39.4785 22.5283C39.9798 22.5426 40.4489 22.4531 40.8857 22.2598C41.3298 22.0664 41.7165 21.7979 42.0459 21.4541C42.3753 21.1104 42.6367 20.7093 42.8301 20.251C43.0306 19.7926 43.1452 19.2985 43.1738 18.7686ZM52.2295 24.5264C51.721 24.5192 51.2699 24.4333 50.876 24.2686C50.4893 24.1038 50.1455 23.8926 49.8447 23.6348C49.5511 23.3698 49.2969 23.069 49.082 22.7324C48.8743 22.3958 48.6989 22.0557 48.5557 21.7119C48.2119 20.8955 47.9971 19.9717 47.9111 18.9404L48.2012 5.31934H50.4463C50.4105 6.59408 50.3747 7.76497 50.3389 8.83203C50.3102 9.89193 50.2852 10.8587 50.2637 11.7324C50.2422 12.599 50.2207 13.376 50.1992 14.0635C50.1849 14.751 50.1706 15.3561 50.1562 15.8789C50.1276 17.1107 50.1061 18.0811 50.0918 18.79C50.1061 19.4561 50.2028 20.0505 50.3818 20.5732C50.4535 20.7952 50.5465 21.0137 50.6611 21.2285C50.7829 21.4434 50.9261 21.6367 51.0908 21.8086C51.2627 21.9805 51.4632 22.1201 51.6924 22.2275C51.9287 22.3278 52.2008 22.3815 52.5088 22.3887L52.2295 24.5264ZM59.3193 23.0117C59.6989 23.0117 60.0749 22.9544 60.4473 22.8398C60.8197 22.7181 61.1634 22.5462 61.4785 22.3242C61.7936 22.0951 62.0658 21.8122 62.2949 21.4756C62.5312 21.139 62.7031 20.7487 62.8105 20.3047L64.8838 20.7236C64.6833 21.3753 64.4004 21.9661 64.0352 22.4961C63.6699 23.026 63.2438 23.4808 62.7568 23.8604C62.2699 24.2399 61.7327 24.5335 61.1455 24.7412C60.5654 24.9489 59.9567 25.0527 59.3193 25.0527C58.374 25.0527 57.5361 24.9095 56.8057 24.623C56.0752 24.3366 55.4593 23.932 54.958 23.4092C54.4567 22.8864 54.0736 22.2562 53.8086 21.5186C53.5508 20.7809 53.4219 19.9574 53.4219 19.0479C53.4219 18.1527 53.5723 17.3184 53.873 16.5449C54.181 15.7643 54.5999 15.0876 55.1299 14.5146C55.6598 13.9417 56.2829 13.4906 56.999 13.1611C57.7152 12.8317 58.4886 12.667 59.3193 12.667C60.0641 12.667 60.766 12.8138 61.4248 13.1074C62.0837 13.3939 62.6673 13.7949 63.1758 14.3105C63.6842 14.819 64.1032 15.4206 64.4326 16.1152C64.762 16.8099 64.9697 17.5618 65.0557 18.3711L55.7529 19.7568C55.8031 20.2653 55.9284 20.7236 56.1289 21.1318C56.3294 21.5329 56.5837 21.873 56.8916 22.1523C57.2067 22.4316 57.5684 22.6465 57.9766 22.7969C58.3919 22.9401 58.8395 23.0117 59.3193 23.0117ZM62.2842 16.9854L62.2197 16.7812C61.9476 16.0723 61.5716 15.5173 61.0918 15.1162C60.6191 14.7152 60.0283 14.5146 59.3193 14.5146C59.0186 14.5146 58.6891 14.5684 58.3311 14.6758C57.973 14.776 57.6257 14.9515 57.2891 15.2021C56.9525 15.4528 56.6481 15.7894 56.376 16.2119C56.111 16.6273 55.9248 17.1465 55.8174 17.7695L62.2842 16.9854Z" fill="#989898"/>
<path d="M81.9209 18.21L75.54 18.5215L75.626 24L73.5635 24.0859L73.3164 8.77832L84.9824 8.5957L84.9072 10.6475L75.4326 10.7979L75.5186 16.4053L81.8779 16.1475L81.9209 18.21ZM89.752 9.68066C89.752 9.88835 89.709 10.0853 89.623 10.2715C89.5443 10.4577 89.4333 10.6188 89.29 10.7549C89.154 10.891 88.9928 10.9984 88.8066 11.0771C88.6204 11.1559 88.4199 11.1953 88.2051 11.1953C87.9974 11.1953 87.8005 11.1559 87.6143 11.0771C87.4352 10.9984 87.2741 10.891 87.1309 10.7549C86.9948 10.6188 86.8874 10.4577 86.8086 10.2715C86.7298 10.0853 86.6904 9.88835 86.6904 9.68066C86.6904 9.46582 86.7298 9.2653 86.8086 9.0791C86.8874 8.8929 86.9948 8.73177 87.1309 8.5957C87.2741 8.45247 87.4352 8.34147 87.6143 8.2627C87.8005 8.17676 87.9974 8.13379 88.2051 8.13379C88.4199 8.13379 88.6204 8.17676 88.8066 8.2627C88.9928 8.34147 89.154 8.45247 89.29 8.5957C89.4333 8.73177 89.5443 8.8929 89.623 9.0791C89.709 9.2653 89.752 9.46582 89.752 9.68066ZM89.2471 13.4619C89.2256 14.486 89.2041 15.4277 89.1826 16.2871C89.1683 17.1393 89.154 17.9163 89.1396 18.6182C89.1253 19.32 89.111 19.9502 89.0967 20.5088C89.0895 21.0602 89.0824 21.5436 89.0752 21.959C89.0537 22.9473 89.043 23.7243 89.043 24.29H86.8408C86.8551 23.5166 86.873 22.5964 86.8945 21.5293C86.9089 20.6126 86.9268 19.4919 86.9482 18.167C86.9769 16.8421 87.002 15.3024 87.0234 13.5479L89.2471 13.4619ZM96.7451 17.0498L100 12.9141L102.03 13.709L98.1094 18.7148L102.245 23.7852L100.269 24.5908L96.8096 20.3906L93.5762 24.5479L91.3096 23.9355L95.4238 18.6934L91.1807 13.5049L93.4258 12.9785L96.7451 17.0498Z" fill="#A4DF59"/>
<path d="M5.77686 36.4209C5.77686 37.042 5.56592 37.5181 5.14404 37.8491C4.72217 38.1802 4.12451 38.3457 3.35107 38.3457H2.35791V41H1.90967V34.5752H3.48291C5.01221 34.5752 5.77686 35.1904 5.77686 36.4209ZM2.35791 37.959H3.24121C3.96484 37.959 4.48779 37.8403 4.81006 37.603C5.13232 37.3628 5.29346 36.9746 5.29346 36.4385C5.29346 35.9434 5.14111 35.5771 4.83643 35.3398C4.53174 35.0996 4.06006 34.9795 3.42139 34.9795H2.35791V37.959ZM8.99365 41.0879C8.29932 41.0879 7.75732 40.874 7.36768 40.4463C6.98096 40.0186 6.7876 39.4194 6.7876 38.6489C6.7876 37.8872 6.9751 37.2778 7.3501 36.8208C7.7251 36.3608 8.23047 36.1309 8.86621 36.1309C9.42871 36.1309 9.87256 36.3271 10.1978 36.7197C10.5229 37.1123 10.6855 37.6455 10.6855 38.3193V38.6709H7.24463C7.25049 39.3271 7.40283 39.8281 7.70166 40.1738C8.00342 40.5195 8.43408 40.6924 8.99365 40.6924C9.26611 40.6924 9.50488 40.6733 9.70996 40.6353C9.91797 40.5972 10.1802 40.5151 10.4966 40.3892V40.7847C10.2271 40.9019 9.97803 40.981 9.74951 41.022C9.521 41.0659 9.26904 41.0879 8.99365 41.0879ZM8.86621 36.5176C8.40625 36.5176 8.03711 36.6699 7.75879 36.9746C7.48047 37.2764 7.31787 37.7129 7.271 38.2842H10.2241C10.2241 37.7305 10.104 37.2983 9.86377 36.9878C9.62354 36.6743 9.29102 36.5176 8.86621 36.5176ZM14.2275 40.5342L14.5 39.7651L15.8755 36.2231H16.4775V41H16.0645V36.7505C16 36.9351 15.9312 37.124 15.8579 37.3174C15.7876 37.5107 15.3101 38.7383 14.4253 41H14.0386L12.7158 37.6426C12.6602 37.5078 12.6074 37.3657 12.5576 37.2163C12.5107 37.0669 12.458 36.9058 12.3994 36.7329V41H12.0039V36.2231H12.5796L13.9595 39.7388C14.0679 40.0229 14.1572 40.2881 14.2275 40.5342ZM22.0278 38.605C22.0278 39.3843 21.8389 39.9937 21.4609 40.4331C21.083 40.8696 20.5615 41.0879 19.8965 41.0879C19.4775 41.0879 19.1084 40.9868 18.7891 40.7847C18.4697 40.5825 18.2251 40.2925 18.0552 39.9146C17.8853 39.5366 17.8003 39.1001 17.8003 38.605C17.8003 37.8257 17.9893 37.2192 18.3672 36.7856C18.7451 36.3491 19.2637 36.1309 19.9229 36.1309C20.5791 36.1309 21.0933 36.3521 21.4653 36.7944C21.8403 37.2339 22.0278 37.8374 22.0278 38.605ZM18.2573 38.605C18.2573 39.2612 18.4009 39.7739 18.688 40.1431C18.978 40.5093 19.3867 40.6924 19.9141 40.6924C20.4414 40.6924 20.8486 40.5093 21.1357 40.1431C21.4258 39.7739 21.5708 39.2612 21.5708 38.605C21.5708 37.9458 21.4243 37.4346 21.1313 37.0713C20.8413 36.708 20.4326 36.5264 19.9053 36.5264C19.3779 36.5264 18.9707 36.708 18.6836 37.0713C18.3994 37.4316 18.2573 37.9429 18.2573 38.605ZM23.7856 36.2231V38.3193H26.8179V36.2231H27.2485V41H26.8179V38.6973H23.7856V41H23.3506V36.2231H23.7856ZM31.8848 36.6011H30.2939V41H29.8633V36.6011H28.2329V36.2231H31.8848V36.6011ZM38.2393 36.6011H36.6484V41H36.2178V36.6011H34.5874V36.2231H38.2393V36.6011ZM41.1528 41.0879C40.4585 41.0879 39.9165 40.874 39.5269 40.4463C39.1401 40.0186 38.9468 39.4194 38.9468 38.6489C38.9468 37.8872 39.1343 37.2778 39.5093 36.8208C39.8843 36.3608 40.3896 36.1309 41.0254 36.1309C41.5879 36.1309 42.0317 36.3271 42.3569 36.7197C42.6821 37.1123 42.8447 37.6455 42.8447 38.3193V38.6709H39.4038C39.4097 39.3271 39.562 39.8281 39.8608 40.1738C40.1626 40.5195 40.5933 40.6924 41.1528 40.6924C41.4253 40.6924 41.6641 40.6733 41.8691 40.6353C42.0771 40.5972 42.3394 40.5151 42.6558 40.3892V40.7847C42.3862 40.9019 42.1372 40.981 41.9087 41.022C41.6802 41.0659 41.4282 41.0879 41.1528 41.0879ZM41.0254 36.5176C40.5654 36.5176 40.1963 36.6699 39.918 36.9746C39.6396 37.2764 39.4771 37.7129 39.4302 38.2842H42.3833C42.3833 37.7305 42.2632 37.2983 42.0229 36.9878C41.7827 36.6743 41.4502 36.5176 41.0254 36.5176ZM45.3364 38.5435L43.6709 36.2231H44.1719L45.5957 38.2358L47.0063 36.2231H47.4854L45.8462 38.5435L47.604 41H47.0986L45.5957 38.8687L44.084 41H43.605L45.3364 38.5435ZM49.0806 36.2231V38.3193H52.1128V36.2231H52.5435V41H52.1128V38.6973H49.0806V41H48.6455V36.2231H49.0806ZM54.5605 36.2231V39.6772L54.5342 40.5781L57.3687 36.2231H57.9487V41H57.5312V37.5679L57.5488 36.645L54.7144 41H54.1475V36.2231H54.5605ZM62.1455 36.2231H62.686L60.5459 38.5347L62.8398 41H62.2554L59.9966 38.5786V41H59.5527V36.2231H59.9966V38.5435L62.1455 36.2231ZM64.0967 36.2231V39.6772L64.0703 40.5781L66.9048 36.2231H67.4849V41H67.0674V37.5679L67.085 36.645L64.2505 41H63.6836V36.2231H64.0967ZM74.6304 38.7324H72.02L71.1235 41H70.627L73.2109 34.5488H73.4966L76.0278 41H75.5225L74.6304 38.7324ZM72.1826 38.3281H74.481L73.6064 36.0122C73.5332 35.8306 73.4453 35.5786 73.3428 35.2563C73.2637 35.5376 73.1772 35.7925 73.0835 36.021L72.1826 38.3281ZM78.8755 41.0879C78.1401 41.0879 77.604 40.8125 77.2671 40.2617H77.2363L77.2495 40.6309C77.2612 40.8477 77.2671 41.085 77.2671 41.3428V43.1621H76.832V36.2231H77.2012L77.2847 36.9043H77.311C77.6392 36.3887 78.1636 36.1309 78.8843 36.1309C79.5288 36.1309 80.0195 36.3433 80.3564 36.7681C80.6963 37.1899 80.8662 37.8052 80.8662 38.6138C80.8662 39.3989 80.6875 40.0083 80.3301 40.4419C79.9756 40.8726 79.4907 41.0879 78.8755 41.0879ZM78.8667 40.7012C79.356 40.7012 79.7339 40.5195 80.0005 40.1562C80.27 39.793 80.4048 39.2847 80.4048 38.6313C80.4048 37.228 79.8979 36.5264 78.8843 36.5264C78.3276 36.5264 77.9189 36.6802 77.6582 36.9878C77.3975 37.2925 77.2671 37.7905 77.2671 38.4819V38.6226C77.2671 39.3696 77.3916 39.9028 77.6406 40.2222C77.8926 40.5415 78.3013 40.7012 78.8667 40.7012ZM84.2368 41.0879C83.5015 41.0879 82.9653 40.8125 82.6284 40.2617H82.5977L82.6108 40.6309C82.6226 40.8477 82.6284 41.085 82.6284 41.3428V43.1621H82.1934V36.2231H82.5625L82.646 36.9043H82.6724C83.0005 36.3887 83.5249 36.1309 84.2456 36.1309C84.8901 36.1309 85.3809 36.3433 85.7178 36.7681C86.0576 37.1899 86.2275 37.8052 86.2275 38.6138C86.2275 39.3989 86.0488 40.0083 85.6914 40.4419C85.3369 40.8726 84.8521 41.0879 84.2368 41.0879ZM84.228 40.7012C84.7173 40.7012 85.0952 40.5195 85.3618 40.1562C85.6313 39.793 85.7661 39.2847 85.7661 38.6313C85.7661 37.228 85.2593 36.5264 84.2456 36.5264C83.689 36.5264 83.2803 36.6802 83.0195 36.9878C82.7588 37.2925 82.6284 37.7905 82.6284 38.4819V38.6226C82.6284 39.3696 82.7529 39.9028 83.002 40.2222C83.2539 40.5415 83.6626 40.7012 84.228 40.7012ZM87.9897 41H87.5547V34.1621H87.9897V41ZM91.5229 41.0879C90.8286 41.0879 90.2866 40.874 89.897 40.4463C89.5103 40.0186 89.3169 39.4194 89.3169 38.6489C89.3169 37.8872 89.5044 37.2778 89.8794 36.8208C90.2544 36.3608 90.7598 36.1309 91.3955 36.1309C91.958 36.1309 92.4019 36.3271 92.7271 36.7197C93.0522 37.1123 93.2148 37.6455 93.2148 38.3193V38.6709H89.7739C89.7798 39.3271 89.9321 39.8281 90.231 40.1738C90.5327 40.5195 90.9634 40.6924 91.5229 40.6924C91.7954 40.6924 92.0342 40.6733 92.2393 40.6353C92.4473 40.5972 92.7095 40.5151 93.0259 40.3892V40.7847C92.7563 40.9019 92.5073 40.981 92.2788 41.022C92.0503 41.0659 91.7983 41.0879 91.5229 41.0879ZM91.3955 36.5176C90.9355 36.5176 90.5664 36.6699 90.2881 36.9746C90.0098 37.2764 89.8472 37.7129 89.8003 38.2842H92.7534C92.7534 37.7305 92.6333 37.2983 92.3931 36.9878C92.1528 36.6743 91.8203 36.5176 91.3955 36.5176ZM100.536 37.3745C100.536 37.6763 100.461 37.9136 100.312 38.0864C100.163 38.2563 99.9194 38.375 99.5825 38.4424V38.4731C99.9663 38.5171 100.243 38.6284 100.413 38.8071C100.586 38.9829 100.672 39.2363 100.672 39.5674C100.672 40.0273 100.52 40.3818 100.215 40.6309C99.9136 40.877 99.4712 41 98.8882 41H96.8711V36.2231H98.897C99.4419 36.2231 99.8506 36.3213 100.123 36.5176C100.398 36.7139 100.536 36.9995 100.536 37.3745ZM100.211 39.5586C100.211 38.9727 99.7612 38.6797 98.8618 38.6797H97.3062V40.5869H98.9233C99.7817 40.5869 100.211 40.2441 100.211 39.5586ZM100.075 37.4097C100.075 37.1313 99.9751 36.9336 99.7759 36.8164C99.5767 36.6963 99.2778 36.6362 98.8794 36.6362H97.3062V38.271H98.8267C99.272 38.271 99.5913 38.2021 99.7847 38.0645C99.978 37.9268 100.075 37.7085 100.075 37.4097ZM107.159 34.8872C106.353 34.8872 105.719 35.145 105.256 35.6606C104.793 36.1763 104.562 36.8823 104.562 37.7788C104.562 38.6958 104.78 39.4077 105.216 39.9146C105.653 40.4214 106.277 40.6748 107.088 40.6748C107.627 40.6748 108.123 40.606 108.574 40.4683V40.8638C108.149 41.0132 107.619 41.0879 106.983 41.0879C106.081 41.0879 105.37 40.7964 104.852 40.2134C104.333 39.6304 104.074 38.8159 104.074 37.77C104.074 37.1167 104.197 36.541 104.443 36.043C104.692 35.5449 105.048 35.1611 105.511 34.8916C105.977 34.6191 106.517 34.4829 107.132 34.4829C107.759 34.4829 108.32 34.6001 108.815 34.8345L108.635 35.2388C108.167 35.0044 107.674 34.8872 107.159 34.8872ZM114.612 41H114.164V34.9971H110.455V41H110.006V34.5752H114.612V41ZM116.062 38.1304C116.062 36.0562 116.646 34.874 117.815 34.584C118.226 34.4814 118.618 34.395 118.993 34.3247C119.371 34.2515 119.705 34.187 119.995 34.1313L120.074 34.5093L119.547 34.6104C118.677 34.7744 118.103 34.9004 117.824 34.9883C117.429 35.1025 117.118 35.3765 116.893 35.8101C116.67 36.2437 116.542 36.8369 116.51 37.5898H116.537C116.85 37.2178 117.155 36.9526 117.451 36.7944C117.747 36.6333 118.051 36.5527 118.365 36.5527C118.951 36.5527 119.399 36.7417 119.709 37.1196C120.02 37.4976 120.175 38.0352 120.175 38.7324C120.175 39.4736 119.997 40.0522 119.639 40.4683C119.282 40.8813 118.779 41.0879 118.132 41.0879C117.476 41.0879 116.966 40.8315 116.603 40.3188C116.242 39.8062 116.062 39.0767 116.062 38.1304ZM118.167 40.6924C118.668 40.6924 119.05 40.5254 119.314 40.1914C119.581 39.8574 119.714 39.377 119.714 38.75C119.714 38.1553 119.595 37.707 119.358 37.4053C119.124 37.1006 118.778 36.9482 118.321 36.9482C117.981 36.9482 117.651 37.0552 117.332 37.269C117.016 37.48 116.739 37.7729 116.501 38.1479C116.501 38.6724 116.566 39.1323 116.695 39.5278C116.827 39.9233 117.017 40.2163 117.266 40.4067C117.515 40.5972 117.815 40.6924 118.167 40.6924Z" fill="black"/>
</svg>
