<svg width="23" height="31" viewBox="0 0 23 31" fill="none" xmlns="http://www.w3.org/2000/svg">
<path d="M11.4999 0C5.15875 0 0 5.09658 0 11.3613C0 14.2392 1.83545 18.3053 5.4556 23.4468C8.10165 27.2052 10.7041 30.1136 10.8137 30.2356L11.4999 31L12.1863 30.2356C12.2956 30.1136 14.8982 27.2052 17.5443 23.4468C21.1643 18.3053 23 14.2392 23 11.3613C23 5.09658 17.841 0 11.4999 0ZM12.5339 8.5C8.79136 8.5 11.5217 14.1973 11.5217 10.5C11.5217 6.80257 7.84074 10.5 11.5832 10.5C11.5832 6.80257 15.326 10.5 11.5832 10.5C11.5832 14.1973 16.2766 8.5 12.5339 8.5Z" fill="#A4DF59"/>
<path d="M13.6246 4C12.8782 4.05162 12.0058 4.52937 11.4975 5.15149C11.0337 5.71587 10.6522 6.55411 10.801 7.36873C11.6165 7.39411 12.4591 6.90498 12.9473 6.27236C13.4041 5.68349 13.7497 4.8505 13.6246 4Z" fill="white"/>
<path d="M16.5741 8.69697C15.8575 7.79835 14.8504 7.27686 13.8992 7.27686C12.6436 7.27686 12.1125 7.87798 11.2401 7.87798C10.3406 7.87798 9.65726 7.27861 8.5714 7.27861C7.50478 7.27861 6.36903 7.93048 5.64891 9.04522C4.63655 10.615 4.80979 13.5663 6.45041 16.0802C7.03753 16.9797 7.82153 17.9912 8.84702 17.9999C9.75964 18.0087 10.0169 17.4145 11.2533 17.4084C12.4896 17.4014 12.7241 18.0078 13.635 17.9982C14.6614 17.9903 15.4882 16.8694 16.0754 15.9699C16.4962 15.3251 16.6528 15.0004 16.9792 14.2724C14.6054 13.3686 14.2247 9.99284 16.5741 8.69697Z" fill="white"/>
</svg>
