<svg width="384" height="384" viewBox="0 0 384 384" fill="none" xmlns="http://www.w3.org/2000/svg">
<g clip-path="url(#clip0)">
<rect y="-1" width="383" height="379" rx="189.5" fill="white"/>
<path d="M192 0C86.128 0 0 86.128 0 192C0 297.872 86.128 384 192 384C297.872 384 384 297.872 384 192C384 86.128 297.872 0 192 0ZM192 352C103.776 352 32 280.224 32 192C32 103.776 103.776 32 192 32C280.224 32 352 103.776 352 192C352 280.224 280.224 352 192 352Z" fill="black"/>
<path d="M248.816 114.696C241.68 109.472 231.672 111.024 226.456 118.144C221.232 125.272 222.784 135.288 229.904 140.504C246.248 152.48 256 171.728 256 192C256 227.288 227.288 256 192 256C156.712 256 128 227.288 128 192C128 171.728 137.752 152.48 154.096 140.504C161.224 135.28 162.768 125.272 157.544 118.144C152.32 111.016 142.32 109.472 135.184 114.696C110.648 132.664 96 161.568 96 192C96 244.936 139.064 288 192 288C244.936 288 288 244.936 288 192C288 161.568 273.352 132.664 248.816 114.696Z" fill="black"/>
<path d="M192 72C183.168 72 176 79.168 176 88V200C176 208.832 183.168 216 192 216C200.832 216 208 208.832 208 200V88C208 79.168 200.832 72 192 72Z" fill="black"/>
</g>
<defs>
<clipPath id="clip0">
<rect width="384" height="384" fill="white"/>
</clipPath>
</defs>
</svg>
