<svg width="10" height="14" viewBox="0 0 10 14" fill="none" xmlns="http://www.w3.org/2000/svg">
<path d="M4.99998 11.8502C4.82076 11.8502 4.64157 11.7818 4.50493 11.6452L0.205156 7.34536C-0.0683651 7.07184 -0.0683651 6.62837 0.205156 6.35496C0.478567 6.08155 0.921947 6.08155 1.19549 6.35496L4.99998 10.1597L8.8045 6.35509C9.07802 6.08168 9.52135 6.08168 9.79474 6.35509C10.0684 6.6285 10.0684 7.07197 9.79474 7.34549L5.49504 11.6453C5.35833 11.7819 5.17914 11.8502 4.99998 11.8502Z" fill="black"/>
<path d="M4.99998 7.85018C4.82076 7.85018 4.64157 7.78175 4.50493 7.64518L0.205156 3.34536C-0.0683651 3.07184 -0.0683651 2.62837 0.205156 2.35496C0.478567 2.08155 0.921947 2.08155 1.19549 2.35496L4.99998 6.15968L8.8045 2.35509C9.07802 2.08168 9.52135 2.08168 9.79474 2.35509C10.0684 2.6285 10.0684 3.07197 9.79474 3.34549L5.49504 7.64531C5.35833 7.78191 5.17914 7.85018 4.99998 7.85018Z" fill="black"/>
</svg>
