<svg width="371" height="336" viewBox="0 0 371 336" fill="none" xmlns="http://www.w3.org/2000/svg">
<circle cx="-30" cy="-65" r="379" stroke="#F47B61" stroke-opacity="0.34" stroke-width="44"/>
<rect x="8.6804" y="21.9113" width="5.97044" height="5.97044" transform="rotate(45 8.6804 21.9113)" fill="#C4C4C4"/>
<rect x="65.3556" y="21.9113" width="5.97044" height="5.97044" transform="rotate(45 65.3556 21.9113)" fill="#C4C4C4"/>
<rect x="27.5721" y="21.9113" width="5.97044" height="5.97044" transform="rotate(45 27.5721 21.9113)" fill="#C4C4C4"/>
<rect x="84.2473" y="21.9113" width="5.97044" height="5.97044" transform="rotate(45 84.2473 21.9113)" fill="#C4C4C4"/>
<rect x="46.4639" y="21.9113" width="5.97044" height="5.97044" transform="rotate(45 46.4639 21.9113)" fill="#C4C4C4"/>
<rect x="103.139" y="21.9113" width="5.97044" height="5.97044" transform="rotate(45 103.139 21.9113)" fill="#C4C4C4"/>
<rect x="8.6804" y="57.7339" width="5.97044" height="5.97044" transform="rotate(45 8.6804 57.7339)" fill="#C4C4C4"/>
<rect x="65.3556" y="57.7339" width="5.97044" height="5.97044" transform="rotate(45 65.3556 57.7339)" fill="#C4C4C4"/>
<rect x="27.5721" y="57.7339" width="5.97044" height="5.97044" transform="rotate(45 27.5721 57.7339)" fill="#C4C4C4"/>
<rect x="84.2473" y="57.7339" width="5.97044" height="5.97044" transform="rotate(45 84.2473 57.7339)" fill="#C4C4C4"/>
<rect x="46.4639" y="57.7339" width="5.97044" height="5.97044" transform="rotate(45 46.4639 57.7339)" fill="#C4C4C4"/>
<rect x="103.139" y="57.7339" width="5.97044" height="5.97044" transform="rotate(45 103.139 57.7339)" fill="#C4C4C4"/>
<rect x="8.6804" y="93.5565" width="5.97044" height="5.97044" transform="rotate(45 8.6804 93.5565)" fill="#C4C4C4"/>
<rect x="65.3556" y="93.5565" width="5.97044" height="5.97044" transform="rotate(45 65.3556 93.5565)" fill="#C4C4C4"/>
<rect x="27.5721" y="93.5565" width="5.97044" height="5.97044" transform="rotate(45 27.5721 93.5565)" fill="#C4C4C4"/>
<rect x="84.2473" y="93.5565" width="5.97044" height="5.97044" transform="rotate(45 84.2473 93.5565)" fill="#C4C4C4"/>
<rect x="46.4639" y="93.5565" width="5.97044" height="5.97044" transform="rotate(45 46.4639 93.5565)" fill="#C4C4C4"/>
<rect x="103.139" y="93.5565" width="5.97044" height="5.97044" transform="rotate(45 103.139 93.5565)" fill="#C4C4C4"/>
<rect x="8.6804" y="4" width="5.97044" height="5.97044" transform="rotate(45 8.6804 4)" fill="#C4C4C4"/>
<rect x="65.3556" y="4" width="5.97044" height="5.97044" transform="rotate(45 65.3556 4)" fill="#C4C4C4"/>
<rect x="27.5721" y="4" width="5.97044" height="5.97044" transform="rotate(45 27.5721 4)" fill="#C4C4C4"/>
<rect x="84.2473" y="4" width="5.97044" height="5.97044" transform="rotate(45 84.2473 4)" fill="#C4C4C4"/>
<rect x="46.4639" y="4" width="5.97044" height="5.97044" transform="rotate(45 46.4639 4)" fill="#C4C4C4"/>
<rect x="103.139" y="4" width="5.97044" height="5.97044" transform="rotate(45 103.139 4)" fill="#C4C4C4"/>
<rect x="8.6804" y="39.8226" width="5.97044" height="5.97044" transform="rotate(45 8.6804 39.8226)" fill="#C4C4C4"/>
<rect x="65.3556" y="39.8226" width="5.97044" height="5.97044" transform="rotate(45 65.3556 39.8226)" fill="#C4C4C4"/>
<rect x="27.5721" y="39.8226" width="5.97044" height="5.97044" transform="rotate(45 27.5721 39.8226)" fill="#C4C4C4"/>
<rect x="84.2473" y="39.8226" width="5.97044" height="5.97044" transform="rotate(45 84.2473 39.8226)" fill="#C4C4C4"/>
<rect x="46.4639" y="39.8226" width="5.97044" height="5.97044" transform="rotate(45 46.4639 39.8226)" fill="#C4C4C4"/>
<rect x="103.139" y="39.8226" width="5.97044" height="5.97044" transform="rotate(45 103.139 39.8226)" fill="#C4C4C4"/>
<rect x="8.6804" y="75.6452" width="5.97044" height="5.97044" transform="rotate(45 8.6804 75.6452)" fill="#C4C4C4"/>
<rect x="65.3556" y="75.6452" width="5.97044" height="5.97044" transform="rotate(45 65.3556 75.6452)" fill="#C4C4C4"/>
<rect x="27.5721" y="75.6452" width="5.97044" height="5.97044" transform="rotate(45 27.5721 75.6452)" fill="#C4C4C4"/>
<rect x="84.2473" y="75.6452" width="5.97044" height="5.97044" transform="rotate(45 84.2473 75.6452)" fill="#C4C4C4"/>
<rect x="46.4639" y="75.6452" width="5.97044" height="5.97044" transform="rotate(45 46.4639 75.6452)" fill="#C4C4C4"/>
<rect x="103.139" y="75.6452" width="5.97044" height="5.97044" transform="rotate(45 103.139 75.6452)" fill="#C4C4C4"/>
</svg>
