<svg width="122" height="168" viewBox="0 0 122 168" xmlns="http://www.w3.org/2000/svg">
<path d="M74.9708 125.728H43.6897C42.301 125.728 41.0839 126.252 40.0412 127.293C38.9977 128.336 38.4768 129.552 38.4768 130.942V162.225C38.4768 163.615 38.9995 164.832 40.0412 165.874C41.0839 166.914 42.2996 167.438 43.6897 167.438H74.9708C76.3595 167.438 77.5797 166.916 78.6183 165.874C79.6637 164.832 80.1855 163.615 80.1855 162.225V130.942C80.1855 129.552 79.6651 128.336 78.6183 127.293C77.5797 126.249 76.3595 125.728 74.9708 125.728Z" fill="black"/>
<path d="M116.03 32.0863C112.466 25.5226 107.862 19.986 102.213 15.4665C96.5674 10.9489 90.2201 7.34109 83.1834 4.64859C76.1454 1.957 69.1511 0.609375 62.1985 0.609375C35.7852 0.609375 15.627 12.166 1.7235 35.2796C1.02915 36.4085 0.789479 37.6247 1.00632 38.9285C1.22453 40.2305 1.89789 41.317 3.0273 42.1857L24.403 58.479C25.5324 59.1729 26.6189 59.5204 27.662 59.5204C29.2265 59.5204 30.5723 58.8242 31.7031 57.4341C37.9582 49.615 42.6077 44.6189 45.6486 42.4455C49.3856 39.9264 54.0762 38.6674 59.7242 38.6674C65.0243 38.6674 69.6935 40.0579 73.7354 42.8362C77.7756 45.6173 79.7938 48.8325 79.7938 52.4819C79.7938 56.564 78.7096 59.8673 76.5366 62.3872C74.365 64.9063 70.7142 67.3381 65.5867 69.685C58.8112 72.7259 52.5958 77.4402 46.9505 83.8268C41.3012 90.2139 38.4786 97.0132 38.4786 104.225V110.089C38.4786 111.742 38.9324 113.37 39.8463 114.978C40.7593 116.587 41.8664 117.39 43.1706 117.39H74.4512C75.8418 117.39 77.057 116.718 78.1006 115.366C79.141 114.023 79.6646 112.611 79.6646 111.136C79.6646 108.964 80.8593 106.05 83.2468 102.403C85.6367 98.7534 88.6118 95.9267 92.1771 93.9276C95.564 92.0167 98.2118 90.4764 100.125 89.3018C102.041 88.1304 104.537 86.2363 107.623 83.6315C110.707 81.0239 113.097 78.4386 114.789 75.8762C116.484 73.3134 118.006 69.9891 119.352 65.9042C120.702 61.8207 121.374 57.4323 121.374 52.7407C121.373 45.5287 119.59 38.6432 116.03 32.0863Z" />
</svg>
