<svg width="274" height="274" viewBox="0 0 274 274" xmlns="http://www.w3.org/2000/svg">
<g clip-path="url(#clip0)">
<path d="M14.0508 257.927L99.4794 257.927C107.235 257.927 113.53 251.632 113.53 243.876L113.53 158.447C113.53 150.691 107.235 144.397 99.4794 144.397L58.5917 144.397C59.1256 122.028 64.3244 104.127 74.16 90.6665C81.916 80.0441 93.6621 71.2483 109.371 64.3073C116.593 61.1318 119.713 52.589 116.34 45.4509L106.224 24.0937C102.964 17.2372 94.8989 14.2301 87.9297 17.2372C69.3265 25.2743 53.6175 35.447 40.8034 47.8117C25.1787 62.9022 14.4723 79.9317 8.68341 98.9283C2.89421 117.925 2.34414e-05 143.835 2.0567e-05 176.713L1.46955e-05 243.876C1.40175e-05 251.632 6.29504 257.927 14.0508 257.927Z"/>
<path d="M244.202 17.2934C225.824 25.3023 210.199 35.4748 197.301 47.8117C181.536 62.9022 170.773 79.8755 164.984 98.7316C159.195 117.588 156.301 143.582 156.301 176.713L156.301 243.876C156.301 251.632 162.595 257.927 170.352 257.927L255.78 257.927C263.536 257.927 269.831 251.632 269.831 243.876L269.831 158.447C269.831 150.691 263.536 144.397 255.78 144.397L214.893 144.397C215.427 122.027 220.625 104.127 230.461 90.6665C238.217 80.0441 249.963 71.2483 265.672 64.3073C272.894 61.1318 276.014 52.5889 272.641 45.4509L262.553 24.1499C259.293 17.2934 251.171 14.2582 244.202 17.2934Z"/>
</g>
<defs>
<clipPath id="clip0">
<rect width="274" height="274"/>
</clipPath>
</defs>
</svg>
