<svg width="30" height="27" viewBox="0 0 30 27" xmlns="http://www.w3.org/2000/svg">
<path d="M22.3789 26.5684L23.3684 25.684C23.6774 25.4057 23.8477 25.0353 23.8477 24.6396C23.8477 24.244 23.6774 23.8732 23.3684 23.5949L12.1581 13.506L23.3808 3.40554C23.6899 3.12763 23.8599 2.75688 23.8599 2.36131C23.8599 1.96575 23.6899 1.59477 23.3808 1.31664L22.3974 0.432003C21.7579 -0.144001 20.7162 -0.144001 20.0767 0.432003L6.66656 12.4579C6.35777 12.7358 6.14021 13.1061 6.14021 13.5052L6.14021 13.5098C6.14021 13.9055 6.35802 14.2759 6.66656 14.5538L20.0403 26.5684C20.3491 26.8468 20.773 26.9996 21.2125 27C21.6523 27 22.0703 26.8468 22.3789 26.5684Z"/>
</svg>
