<svg width="512" height="512" viewBox="0 0 512 512" fill="none" xmlns="http://www.w3.org/2000/svg">
<rect x="106" y="15" width="297" height="485" rx="10" fill="white"/>
<path d="M206 40C200.48 40 196 44.4805 196 50C196 55.5195 200.48 60 206 60C211.52 60 216 55.5195 216 50C216 44.4805 211.52 40 206 40Z" fill="black"/>
<path d="M126 0C109.457 0 96 13.457 96 30V482C96 498.543 109.457 512 126 512H386C402.543 512 416 498.543 416 482V30C416 13.457 402.543 0 386 0H126ZM396 412H282.699L304.812 370.723C306.477 367.621 306.387 363.871 304.574 360.855L283.66 326L304.574 291.145C307.414 286.41 305.883 280.266 301.145 277.426C296.41 274.582 290.266 276.117 287.426 280.855L272 306.562L247.66 266L304.574 171.145C306.41 168.086 306.477 164.285 304.754 161.164L270.949 100H396V412ZM248.102 100L284.461 165.797L265.555 197.305L247.652 170.453C244.59 165.859 238.379 164.617 233.781 167.68C229.188 170.742 227.945 176.953 231.012 181.547L254.168 216.281L227.426 260.855C225.523 264.023 225.523 267.98 227.426 271.145C230.801 276.773 276.297 352.598 284.508 366.281L260.012 412H116V100H248.102ZM386 492H126C120.484 492 116 487.516 116 482V432H396V482C396 487.516 391.516 492 386 492ZM396 30V80C382.023 80 126.961 80 116 80V30C116 24.4844 120.484 20 126 20H386C391.516 20 396 24.4844 396 30Z" fill="black"/>
<path d="M286 452H226C220.477 452 216 456.477 216 462C216 467.523 220.477 472 226 472H286C291.523 472 296 467.523 296 462C296 456.477 291.523 452 286 452Z" fill="black"/>
<path d="M306 40H246C240.477 40 236 44.4766 236 50C236 55.5234 240.477 60 246 60H306C311.523 60 316 55.5234 316 50C316 44.4766 311.523 40 306 40Z" fill="black"/>
</svg>
