<?xml version="1.0" encoding="UTF-8" standalone="no"?>
<svg width="512px" xmlns="http://www.w3.org/2000/svg" viewBox="0 -20 512.001 512" height="512px">
 <g fill="#565656">
  <path data-original="#000000" d="m471.48 131.02h-75.664v-91.547c0-21.766-17.703-39.469-39.469-39.469h-316.88c-21.766 0-39.469 17.703-39.469 39.469v183.86c0 21.766 17.703 39.469 39.469 39.469h114.56l-3.6836 63.352h-23.336c-8.6719 0-15.707 7.0352-15.707 15.707 0 8.6758 7.0352 15.703 15.707 15.703h141.81c8.668 0 15.703-7.0273 15.703-15.703 0-8.6719-7.0352-15.707-15.703-15.707h-23.348l-3.6875-63.352h56.086v169.09c0 22.34 18.176 40.516 40.52 40.516h133.1c22.34 0 40.516-18.176 40.516-40.516v-260.37c0-22.34-18.176-40.504-40.516-40.504zm-289.67 195.13 3.6875-63.352h24.82l3.6875 63.352zm116.05-154.62v59.863h-258.4c-4.4492 0-8.0586-3.6133-8.0586-8.0625v-183.86c0-4.4492 3.6094-8.0625 8.0586-8.0625h316.88c4.4492 0 8.0586 3.6133 8.0586 8.0625v91.547h-26.023c-22.344 0-40.52 18.164-40.52 40.508zm182.72 260.36c0 5.0273-4.082 9.1094-9.1055 9.1094h-133.1c-5.0273 0-9.1094-4.082-9.1094-9.1094v-14.195h151.31zm0-45.605h-151.31v-169.66h151.31zm0-201.07h-151.31v-13.691c0-5.0156 4.082-9.0977 9.1094-9.0977h133.1c5.0234 0 9.1094 4.082 9.1094 9.0977v13.691z" data-old_color="#000000" class="active-path"/>
  <path data-original="#000000" d="m434.09 58.973h15.641c9.7422 0 17.668 7.9258 17.668 17.668v18.449c0 8.6719 7.0312 15.703 15.707 15.703 8.6719 0 15.703-7.0312 15.703-15.703v-18.449c0-27.059-22.016-49.078-49.078-49.078h-15.641c-8.6719 0-15.703 7.0312-15.703 15.707 0 8.6719 7.0312 15.703 15.703 15.703z" data-old_color="#000000" class="active-path"/>
  <path data-original="#000000" d="m246.92 422.04h-15.641c-9.7422 0-17.668-7.9297-17.668-17.672v-18.445c0-8.6758-7.0312-15.707-15.707-15.707-8.6719 0-15.703 7.0312-15.703 15.707v18.445c0 27.062 22.016 49.078 49.078 49.078h15.641c8.6719 0 15.703-7.0312 15.703-15.703 0-8.6758-7.0312-15.703-15.703-15.703z" data-old_color="#000000" class="active-path"/>
  <path data-original="#000000" d="m76.961 155.45c-8.6797 0-15.703 7.0273-15.703 15.707v14.645c0 8.668 7.0234 15.703 15.703 15.703 8.668 0 15.703-7.0352 15.703-15.703v-14.645c0-8.6797-7.0352-15.707-15.703-15.707z" data-old_color="#000000" class="active-path"/>
  <path data-original="#000000" d="m124.59 155.45c-8.6797 0-15.703 7.0273-15.703 15.707v14.645c0 8.668 7.0234 15.703 15.703 15.703 8.668 0 15.703-7.0352 15.703-15.703v-14.645c0-8.6797-7.0352-15.707-15.703-15.707z" data-old_color="#000000" class="active-path"/>
  <path data-original="#000000" d="m434.1 322.82h14.645c8.6719 0 15.707-7.0352 15.707-15.703 0-8.6797-7.0352-15.707-15.707-15.707h-14.645c-8.6797 0-15.707 7.0273-15.707 15.707 0 8.668 7.0273 15.703 15.707 15.703z" data-old_color="#000000" class="active-path"/>
  <path data-original="#000000" d="m434.1 370.44h14.645c8.6719 0 15.707-7.0352 15.707-15.703 0-8.6797-7.0352-15.707-15.707-15.707h-14.645c-8.6797 0-15.707 7.0273-15.707 15.707 0 8.668 7.0273 15.703 15.707 15.703z" data-old_color="#000000" class="active-path"/>
  <path data-original="#000000" d="m362.24 372.75c8.6719 0 15.707-7.0352 15.707-15.703v-110.66c0-8.668-7.043-15.703-15.707-15.703-8.1055 0-15.703 6.2227-15.703 16.414v109.95c0 8.668 7.0273 15.703 15.703 15.703z" data-old_color="#000000" class="active-path"/>
  <path data-original="#000000" d="m163.66 77.621h75.703c8.668 0 15.707-7.0352 15.707-15.703 0-8.6797-7.0391-15.707-15.707-15.707h-75.703c-8.6797 0-15.707 7.0273-15.707 15.707 0 8.668 7.0273 15.703 15.707 15.703z" data-old_color="#000000" class="active-path"/>
  <path data-original="#000000" d="m293.79 94.141h-191.76c-8.6719 0-15.707 7.0273-15.707 15.703 0 8.6719 7.0352 15.707 15.707 15.707h191.76c8.6797 0 15.703-7.0352 15.703-15.707 0-8.6758-7.0234-15.703-15.703-15.703z" data-old_color="#000000" class="active-path"/>
 </g>
</svg>
