<?xml version="1.0" encoding="UTF-8" standalone="no"?>
<svg id="Capa_1" style="enable-background:new 0 0 392.186 392.186" xmlns="http://www.w3.org/2000/svg" xml:space="preserve" height="512px" viewBox="0 0 392.186 392.186" width="512px" version="1.1" y="0px" x="0px" xmlns:xlink="http://www.w3.org/1999/xlink">
		<g fill="#565656">
			<path data-original="#000000" d="m368.62 17.951h-345.05c-13 0-23.57 10.573-23.57 23.569v309.15c0 12.996 10.57 23.568 23.568 23.568h345.05c12.994 0 23.564-10.572 23.564-23.568v-309.15c0.01-12.995-10.57-23.569-23.56-23.569zm-71.06 39.577c0-4.806 3.896-8.703 8.701-8.703h8.703c4.808 0 8.701 3.896 8.701 8.703v9.863c0 4.806-3.896 8.702-8.701 8.702h-8.703c-4.805 0-8.701-3.896-8.701-8.702v-9.863zm-40.47 0c0-4.806 3.898-8.703 8.703-8.703h8.701c4.805 0 8.703 3.896 8.703 8.703v9.863c0 4.806-3.898 8.702-8.703 8.702h-8.701c-4.805 0-8.703-3.896-8.703-8.702v-9.863zm106.81 288.42h-335.62v-243.71h335.62v243.71zm0.23-278.56c0 4.806-3.896 8.702-8.701 8.702h-8.703c-4.809 0-8.702-3.896-8.702-8.702v-9.863c0-4.806 3.896-8.703 8.702-8.703h8.703c4.806 0 8.701 3.896 8.701 8.703v9.863z" data-old_color="#000000" class="active-path"/>
			<path data-original="#000000" d="m84.185 233.28l63.084 29.336c1.631 0.755 3.367 1.138 5.162 1.138 2.338 0 4.617-0.664 6.598-1.924 3.547-2.267 5.666-6.13 5.666-10.334v-0.322c0-4.752-2.785-9.116-7.096-11.118l-39.455-18.332 39.455-18.334c4.311-2.004 7.096-6.367 7.096-11.117v-0.319c0-4.21-2.119-8.075-5.666-10.334-1.961-1.253-4.246-1.916-6.605-1.916-1.779 0-3.563 0.391-5.16 1.133l-63.08 29.333c-4.307 2.004-7.09 6.369-7.09 11.117v0.877c0.003 4.73 2.784 9.09 7.095 11.1z" data-old_color="#000000" class="active-path"/>
			<path data-original="#000000" d="m165.26 293.04c2.301 3.149 6.002 5.03 9.9 5.03h0.316c5.352 0 10.041-3.426 11.672-8.517l41.55-128.76c1.192-3.716 0.531-7.818-1.771-10.973-2.301-3.15-6.002-5.03-9.901-5.03h-0.315c-5.354 0-10.048 3.425-11.679 8.516l-41.559 128.77c-1.19 3.71-0.52 7.81 1.78 10.96z" data-old_color="#000000" class="active-path"/>
			<path data-original="#000000" d="m227.49 192.28c0 4.745 2.783 9.109 7.095 11.123l39.455 18.329-39.455 18.33c-4.31 2.004-7.095 6.368-7.095 11.118v0.322c0 4.205 2.117 8.068 5.668 10.336 1.974 1.258 4.254 1.924 6.595 1.924 1.793 0 3.528-0.383 5.17-1.142l63.08-29.335c4.307-2.009 7.09-6.372 7.09-11.115v-0.877c0-4.748-2.783-9.113-7.094-11.117l-63.08-29.333c-1.591-0.74-3.373-1.131-5.152-1.131-2.355 0-4.643 0.661-6.604 1.912-3.551 2.263-5.67 6.127-5.67 10.337v0.318 0.01z" data-old_color="#000000" class="active-path"/>
		</g>
 </svg>
