<svg width="100" height="120" viewBox="0 0 100 120" fill="none" xmlns="http://www.w3.org/2000/svg">
<path d="M83.2806 115.168C76.8492 121.484 69.7533 120.5 62.9896 117.521C55.7987 114.483 49.2249 114.291 41.6306 117.521C32.1733 121.653 27.1539 120.452 21.4582 115.168C-10.699 81.6621 -5.95252 30.6233 30.5951 28.7018C39.4591 29.1822 45.6651 33.6616 50.8862 34.0339C58.6466 32.4367 66.0748 27.8612 74.3811 28.4617C84.3605 29.2783 91.8242 33.2653 96.808 40.4348C76.2796 52.9243 81.1447 80.3051 100 87.991C96.2266 98.0186 91.3852 107.926 83.2688 115.252L83.2806 115.168ZM50.1742 28.3416C49.213 13.4502 61.1385 1.20091 74.8557 0C76.7424 17.1731 59.4298 30.0228 50.1742 28.3416Z" fill="#18A1FF"/>
</svg>
