<?xml version="1.0" encoding="utf-8"?>
<svg xmlns="http://www.w3.org/2000/svg" xmlns:xlink="http://www.w3.org/1999/xlink">

<symbol viewBox="0 0 490.667 490.667" id="arrow"
    xmlns="http://www.w3.org/2000/svg">
    <path d="M252.885 24.443c-4.165-4.164-10.917-4.164-15.083 0L3.136 259.109A10.669 10.669 0 000 266.661v192a10.667 10.667 0 0018.219 7.552l227.115-227.136 227.115 227.136c4.16 4.171 10.914 4.179 15.085.019a10.667 10.667 0 003.134-7.571v-192a10.663 10.663 0 00-3.115-7.552L252.885 24.443z"/>
</symbol>
<symbol viewBox="0 0 64 64" id="book"
    xmlns="http://www.w3.org/2000/svg">
    <path d="M61 16a1 1 0 00-1 1v36h-5.43a85.082 85.082 0 00-19.12 2.178 1.992 1.992 0 01-2.1-.834A22.732 22.732 0 0145.211 51H57a1 1 0 001-1v-7a1 1 0 00-2 0v6H45.211A24.728 24.728 0 0033 52.212V25a1 1 0 00-2 0v27.211A24.724 24.724 0 0018.789 49H8V13h15.4a7.605 7.605 0 017.6 7.605 1 1 0 102 0A7.605 7.605 0 0140.6 13H56v26a1 1 0 002 0V12a1 1 0 00-1-1H40.6a9.613 9.613 0 00-8.6 5.332A9.613 9.613 0 0023.4 11H7a1 1 0 00-1 1v38a1 1 0 001 1h11.789a22.732 22.732 0 0111.863 3.344 2 2 0 01-2.1.834A85.069 85.069 0 009.43 53H4V17a1 1 0 00-2 0v37a1 1 0 001 1h6.43a83.117 83.117 0 0118.67 2.127 3.98 3.98 0 003.9-1.268 3.978 3.978 0 003.9 1.268A83.145 83.145 0 0154.57 55H61a1 1 0 001-1V17a1 1 0 00-1-1z"/>
    <path d="M28.723 19.613A9.579 9.579 0 0023.4 18H12a1 1 0 000 2h11.4a7.576 7.576 0 014.218 1.277 1 1 0 101.11-1.664zM52 18H40.6a9.581 9.581 0 00-5.328 1.613 1 1 0 001.11 1.664A7.581 7.581 0 0140.6 20H52a1 1 0 000-2zm-23.277 6.613A9.579 9.579 0 0023.4 23H12a1 1 0 000 2h11.4a7.576 7.576 0 014.218 1.277 1 1 0 101.11-1.664zM52 23H40.6a9.581 9.581 0 00-5.328 1.613 1 1 0 001.11 1.664A7.581 7.581 0 0140.6 25H52a1 1 0 000-2zm-23.277 6.613A9.579 9.579 0 0023.4 28H12a1 1 0 000 2h11.4a7.576 7.576 0 014.218 1.277 1 1 0 101.11-1.664zM52 28H40.6a9.581 9.581 0 00-5.328 1.613 1 1 0 001.11 1.664A7.581 7.581 0 0140.6 30H52a1 1 0 000-2zm-23.277 6.613A9.579 9.579 0 0023.4 33H12a1 1 0 000 2h11.4a7.576 7.576 0 014.218 1.277 1 1 0 101.11-1.664zM52 33H40.6a9.581 9.581 0 00-5.328 1.613 1 1 0 001.11 1.664A7.581 7.581 0 0140.6 35H52a1 1 0 000-2zm-23.277 6.613A9.579 9.579 0 0023.4 38H12a1 1 0 000 2h11.4a7.576 7.576 0 014.218 1.277 1 1 0 101.11-1.664zM52 38H40.6a9.581 9.581 0 00-5.328 1.613 1 1 0 001.11 1.664A7.581 7.581 0 0140.6 40H52a1 1 0 000-2zm-28.6 5H12a1 1 0 000 2h11.4a7.576 7.576 0 014.218 1.277 1 1 0 101.11-1.664A9.579 9.579 0 0023.4 43zM52 43H40.6a9.581 9.581 0 00-5.328 1.613 1 1 0 001.11 1.664A7.581 7.581 0 0140.6 45H52a1 1 0 000-2z"/>
</symbol>
<symbol viewBox="0 0 64 64" id="discount"
    xmlns="http://www.w3.org/2000/svg">
    <path d="M61.706 21.334l-1.826-2.046.76-2.636a1 1 0 00-.579-1.2L57.526 14.4l-.459-2.7a1 1 0 00-1.042-.831L55 10.927V5a1 1 0 00-1-1H10a1 1 0 00-1 1v36H7a1 1 0 00-1 1v.22l-3.242.81A1 1 0 002 44v4a1 1 0 00.758.97L6 49.78V50a1 1 0 001 1h1v8a1 1 0 001 1h4a1 1 0 00.994-.89l.012-.11H54a1 1 0 001-1V33.074l1.025.057a1.019 1.019 0 001.042-.831l.458-2.7 2.536-1.048a1 1 0 00.579-1.2l-.76-2.635 1.826-2.047a1 1 0 000-1.336zM22 6v8.149l-2.219-2.774a1 1 0 00-1.562 0L16 14.149V6zm-7 37v6H8v-6zM4 47.219v-2.438l2-.5v3.438zM12.1 58H10v-7h2.883zm15.1-1H14.229l.666-6h.933l13.836 4.941A1 1 0 0031 55v-6h1a3 3 0 000-6h-1v-6a1 1 0 00-1.336-.941L15.828 41H11V6h3v11a1 1 0 001.781.625L19 13.6l3.219 4.024A1 1 0 0024 17V6h29v4.617l-1.3-1.833a1 1 0 00-1.3-.3L48 9.816l-2.4-1.329a1 1 0 00-1.3.3l-1.587 2.237-2.739-.152a1 1 0 00-1.042.831l-.458 2.7-2.536 1.048a1 1 0 00-.579 1.2l.76 2.635-1.826 2.047a1 1 0 000 1.332l1.826 2.046-.76 2.636a1 1 0 00.579 1.2l2.536 1.053.459 2.7a1.015 1.015 0 001.042.831l2.738-.151 1.587 2.236a1 1 0 001.3.3l2.4-1.332 2.4 1.329a1 1 0 001.3-.3l1.3-1.831V57zM31 45h1a1 1 0 010 2h-1zm-2-1v9.581L17 49.3v-6.59l12-4.286zm28.805-19.264l.665 2.306-2.22.918a1 1 0 00-.6.757l-.4 2.368-.25-.014V31h-1.279l-.875-.049a1.009 1.009 0 00-.871.42l-1.389 1.958-2.1-1.164a1 1 0 00-.968 0l-2.1 1.164-1.39-1.958a1 1 0 00-.815-.422h-.056l-2.4.133-.4-2.368a1 1 0 00-.6-.757l-2.219-.917.665-2.307a1 1 0 00-.215-.943L36.381 22l1.6-1.793a1 1 0 00.215-.943l-.665-2.306 2.22-.918a1 1 0 00.6-.757l.4-2.368 2.4.134a1.022 1.022 0 00.871-.42l1.389-1.958 2.1 1.164a1 1 0 00.968 0l2.1-1.164 1.39 1.958a1.015 1.015 0 00.871.42l2.4-.133.4 2.368a1 1 0 00.6.757l2.219.917-.665 2.307a1 1 0 00.215.943L59.619 22l-1.6 1.793a1 1 0 00-.214.943z"/>
    <path d="M42.287 26.295l9.998-9.998L53.7 17.71l-9.998 9.998zM47 18a3 3 0 10-3 3 3 3 0 003-3zm-4 0a1 1 0 111 1 1 1 0 01-1-1zm9 5a3 3 0 103 3 3 3 0 00-3-3zm0 4a1 1 0 111-1 1 1 0 01-1 1zm-38-7h4v2h-4zm6 0h10v2H20zm-6 5h8v2h-8zm10 0h6v2h-6zm-10 5h16v2H14zm22.657 10.343l-1.414 1.414a6.008 6.008 0 010 8.486l1.414 1.414a8.012 8.012 0 000-11.314z"/>
    <path d="M38.364 39.636a9.01 9.01 0 010 12.728l1.414 1.414a11.012 11.012 0 000-15.556z"/>
</symbol>
<symbol viewBox="0 0 490.4 490.4" id="download"
    xmlns="http://www.w3.org/2000/svg">
    <path d="M490.4 245.2C490.4 110 380.4 0 245.2 0S0 110 0 245.2s110 245.2 245.2 245.2 245.2-110 245.2-245.2zm-465.9 0c0-121.7 99-220.7 220.7-220.7s220.7 99 220.7 220.7-99 220.7-220.7 220.7-220.7-99-220.7-220.7z"/>
    <path d="M253.9 360.4l68.9-68.9c4.8-4.8 4.8-12.5 0-17.3s-12.5-4.8-17.3 0l-48 48V138.7c0-6.8-5.5-12.3-12.3-12.3s-12.3 5.5-12.3 12.3v183.4l-48-48c-4.8-4.8-12.5-4.8-17.3 0s-4.8 12.5 0 17.3l68.9 68.9c2.4 2.4 5.5 3.6 8.7 3.6s6.3-1.1 8.7-3.5z"/>
</symbol>
<symbol viewBox="0 0 512 512" id="gmail"
    xmlns="http://www.w3.org/2000/svg">
    <path style="fill:#CFD8DC;" d="M443.499,417.941l-181.333-128c-3.689-2.606-8.62-2.606-12.309,0l-181.333,128
	c-2.837,1.999-4.525,5.254-4.523,8.725v10.667C64,443.224,68.776,448,74.667,448h362.667c5.891,0,10.667-4.776,10.667-10.667
	v-10.667C448.007,423.2,446.328,419.945,443.499,417.941z"/>
    <path style="fill:#FAFAFA;" d="M262.165,289.941l-181.333-128c-4.807-3.405-11.465-2.268-14.87,2.539
	c-1.281,1.808-1.967,3.97-1.962,6.186v256c-0.012,5.891,4.755,10.676,10.646,10.688c2.216,0.004,4.378-0.682,6.186-1.962
	l181.333-128c4.813-3.397,5.961-10.052,2.564-14.865c-0.702-0.995-1.569-1.862-2.564-2.564V289.941z"/>
    <path style="fill:#EEEEEE;" d="M442.24,161.195c-3.546-1.812-7.802-1.525-11.072,0.747l-181.333,128
	c-4.813,3.397-5.961,10.052-2.564,14.865c0.702,0.995,1.569,1.862,2.564,2.564l181.333,128c4.807,3.405,11.465,2.268,14.87-2.539
	c1.277-1.802,1.962-3.956,1.962-6.165v-256C448,166.681,445.779,163.028,442.24,161.195z"/>
    <path style="fill:#ECEFF1;" d="M468.8,71.339C467.362,66.96,463.275,64,458.667,64H53.333c-5.891,0-10.667,4.776-10.667,10.667
	c0,3.357,1.581,6.519,4.267,8.533L249.6,232.533c3.762,2.77,8.889,2.77,12.651,0L464.917,83.2
	C468.631,80.495,470.195,75.716,468.8,71.339z"/>
    <path style="fill:#F44336;" d="M458.667,64c-2.308,0-4.554,0.749-6.4,2.133L256,210.752L59.733,66.133
	C57.887,64.749,55.641,64,53.333,64C23.878,64,0,87.878,0,117.333v277.333C0,424.122,23.878,448,53.333,448h21.333
	c5.891,0,10.667-4.776,10.667-10.667v-246.08l164.501,116.139c3.689,2.606,8.62,2.606,12.309,0l164.523-116.139v246.08
	c0,5.891,4.776,10.667,10.667,10.667h21.333C488.122,448,512,424.122,512,394.667V117.333C512,87.878,488.122,64,458.667,64z"/>
</symbol>
<symbol viewBox="0 0 512 512" id="house"
    xmlns="http://www.w3.org/2000/svg">
    <path d="M503.401 228.884l-43.253-39.411V58.79c0-8.315-6.741-15.057-15.057-15.057H340.976c-8.315 0-15.057 6.741-15.057 15.057v8.374l-52.236-47.597c-10.083-9.189-25.288-9.188-35.367-.001L8.598 228.885c-8.076 7.36-10.745 18.7-6.799 28.889 3.947 10.189 13.557 16.772 24.484 16.772h36.689v209.721c0 8.315 6.741 15.057 15.057 15.057h125.913c8.315 0 15.057-6.741 15.057-15.057V356.931H293v127.337c0 8.315 6.741 15.057 15.057 15.057h125.908c8.315 0 15.057-6.741 15.056-15.057V274.547h36.697c10.926 0 20.537-6.584 24.484-16.772 3.945-10.19 1.277-21.53-6.801-28.891zm-69.436 15.549c-8.315 0-15.057 6.741-15.057 15.057v209.721h-95.793V341.874c0-8.315-6.742-15.057-15.057-15.057H203.942c-8.315 0-15.057 6.741-15.057 15.057v127.337h-95.8V259.49c0-8.315-6.741-15.057-15.057-15.057H36.245l219.756-200.24 74.836 68.191a15.061 15.061 0 0016.224 2.644 15.06 15.06 0 008.973-13.774V73.847h74.002v122.276c0 4.237 1.784 8.276 4.916 11.13l40.803 37.18h-41.79z"/>
</symbol>
<symbol viewBox="0 0 350 216" id="id-card"
    xmlns="http://www.w3.org/2000/svg">
    <path d="M344.508 0H5.491A5.49 5.49 0 000 5.492v205.015A5.492 5.492 0 005.491 216h339.017a5.492 5.492 0 005.492-5.493V5.492A5.493 5.493 0 00344.508 0zm-5.493 205.016H10.985V10.984h328.031v194.032h-.001z"/>
    <path d="M89.018 107.935c18.438 0 33.439-15.006 33.439-33.451 0-18.446-15.001-33.452-33.44-33.452s-33.44 15.006-33.44 33.452c0 18.445 15.002 33.451 33.44 33.451zm0-55.919c12.38 0 22.454 10.08 22.454 22.468 0 12.389-10.074 22.467-22.454 22.467-12.383 0-22.457-10.078-22.457-22.467 0-12.388 10.074-22.468 22.457-22.468zM47.9 175.104a5.492 5.492 0 005.491-5.492v-15.526c0-11.884 9.671-21.554 21.56-21.554h28.362c11.888 0 21.56 9.67 21.56 21.554v15.526a5.492 5.492 0 0010.984 0v-15.526c0-17.941-14.598-32.537-32.543-32.537H74.952c-17.946 0-32.544 14.596-32.544 32.537v15.526a5.49 5.49 0 005.491 5.492zM151.627 52.016h150.476a5.492 5.492 0 100-10.984H151.627a5.491 5.491 0 100 10.984zm150.476 112.105H193.138a5.492 5.492 0 000 10.984h108.966a5.493 5.493 0 10-.001-10.984zm0-60.018h-67.738a5.491 5.491 0 100 10.984h67.738a5.492 5.492 0 100-10.984zm0 30.004h-67.738a5.492 5.492 0 000 10.984h67.738a5.492 5.492 0 100-10.984z"/>
</symbol>
<symbol viewBox="0 0 64 64" id="message"
    xmlns="http://www.w3.org/2000/svg">
    <path d="M38 1a25 25 0 0121.37 38l3.58 10.68A1 1 0 0161.68 51L51 47.37A25 25 0 1138 1zm0 48a22.9 22.9 0 0012.3-3.57 1 1 0 01.85-.1l9.27 3.09-3.09-9.27a1 1 0 01.1-.85A23 23 0 1038 49zM25 20a1 1 0 001 1h24a1 1 0 000-2H26a1 1 0 00-1 1zm0 6a1 1 0 001 1h24a1 1 0 000-2H26a1 1 0 00-1 1zm12 6a1 1 0 001 1h12a1 1 0 000-2H38a1 1 0 00-1 1z"/>
</symbol>
<symbol viewBox="0 -19 512 512" id="news"
    xmlns="http://www.w3.org/2000/svg">
    <path d="M486.156 0H111.56C97.31 0 85.72 11.594 85.72 25.844v39.23H25.844C11.594 65.074 0 76.668 0 90.918v332.539c0 27.637 22.395 50.145 49.996 50.344h.102c.09.004.172.012.261.012h265.309a7.5 7.5 0 100-15H86.184c8.98-9.098 14.535-21.59 14.535-35.356V248.07a7.5 7.5 0 10-15 0v175.387c0 19.43-15.758 35.246-35.168 35.352-.063 0-.125-.008-.192-.008C30.863 458.797 15 442.94 15 423.457V90.918c0-5.977 4.863-10.844 10.844-10.844h59.875V220.07c0 4.145 3.355 7.5 7.5 7.5a7.5 7.5 0 007.5-7.5V25.844c0-5.98 4.863-10.844 10.84-10.844h374.597C492.136 15 497 19.863 497 25.844v397.613c0 19.496-15.863 35.356-35.36 35.356H343.669a7.5 7.5 0 00-7.5 7.5c0 4.144 3.355 7.5 7.5 7.5h117.973c27.77 0 50.359-22.59 50.359-50.356V25.844C512 11.594 500.406 0 486.156 0zm0 0"/>
    <path d="M164.32 299.262h102.864c9.785 0 17.746-7.961 17.746-17.746V178.652c0-9.785-7.961-17.746-17.746-17.746H164.32c-9.785 0-17.746 7.961-17.746 17.746v102.864c0 9.785 7.961 17.746 17.746 17.746zm-2.746-120.61a2.747 2.747 0 012.746-2.746h102.864a2.75 2.75 0 012.746 2.746v102.864a2.752 2.752 0 01-2.746 2.746H164.32a2.75 2.75 0 01-2.746-2.746zm150.617-2.746h139.2c4.14 0 7.5-3.355 7.5-7.5s-3.36-7.5-7.5-7.5h-139.2a7.5 7.5 0 100 15zm0 61.68h139.2a7.5 7.5 0 100-15h-139.2a7.5 7.5 0 100 15zm0 61.676h139.2a7.5 7.5 0 100-15h-139.2a7.5 7.5 0 100 15zm-158.117 61.676h297.317a7.5 7.5 0 100-15H154.074a7.5 7.5 0 100 15zm0 61.679h297.317a7.5 7.5 0 007.5-7.5 7.5 7.5 0 00-7.5-7.5H154.074a7.5 7.5 0 00-7.5 7.5 7.5 7.5 0 007.5 7.5zm-7.308-300.09v-79.25c0-1.629.773-2.87 2.32-3.722 1.547-.856 3.422-1.285 5.617-1.285 2.934 0 5.168.53 6.719 1.59 1.543 1.058 3.254 3.34 5.129 6.835l23.566 45.551v-49.09c0-1.629.774-2.847 2.32-3.664 1.543-.812 3.418-1.222 5.618-1.222 2.199 0 4.07.41 5.617 1.222 1.547.817 2.32 2.035 2.32 3.664v79.371c0 1.551-.797 2.77-2.383 3.664-1.586.899-3.437 1.344-5.554 1.344-4.317 0-7.371-1.668-9.16-5.008l-26.254-49.09v49.09c0 1.551-.793 2.77-2.38 3.664-1.585.899-3.44 1.344-5.558 1.344-2.195 0-4.07-.445-5.613-1.344-1.55-.894-2.324-2.113-2.324-3.664zm73.879 0v-79.25c0-1.547.69-2.765 2.078-3.664 1.382-.894 3.007-1.343 4.882-1.343h43.473c1.625 0 2.871.695 3.723 2.078.855 1.382 1.285 2.972 1.285 4.761 0 1.953-.45 3.625-1.344 5.008-.898 1.387-2.12 2.074-3.664 2.074H236.52v24.422h18.562c1.543 0 2.766.633 3.664 1.895.895 1.262 1.344 2.746 1.344 4.457a7.36 7.36 0 01-1.285 4.215c-.856 1.261-2.094 1.89-3.723 1.89H236.52v24.547h34.558c1.543 0 2.766.692 3.664 2.074.895 1.387 1.344 3.055 1.344 5.008 0 1.79-.43 3.38-1.285 4.762-.852 1.387-2.098 2.074-3.723 2.074h-43.473c-1.875 0-3.5-.445-4.882-1.34-1.387-.898-2.078-2.117-2.078-3.668zm63.378-77.906c0-1.71 1.098-3.195 3.297-4.457 2.196-1.262 4.477-1.894 6.836-1.894 2.934 0 4.684 1.058 5.25 3.175l19.297 66.188 10.379-42.496c.73-2.934 3.336-4.399 7.813-4.399 4.398 0 6.96 1.465 7.695 4.399l10.379 42.496 19.293-66.188c.57-2.117 2.32-3.175 5.254-3.175 2.359 0 4.636.632 6.836 1.894 2.199 1.262 3.296 2.746 3.296 4.457 0 .488-.082.977-.242 1.465l-24.18 76.809c-1.222 3.585-4.683 5.375-10.378 5.375-2.442 0-4.641-.47-6.594-1.407-1.953-.933-3.137-2.258-3.543-3.968l-7.813-32.97-7.937 32.97c-.41 1.71-1.59 3.035-3.543 3.968-1.953.938-4.152 1.407-6.594 1.407-2.523 0-4.762-.47-6.715-1.407-1.957-.933-3.175-2.258-3.664-3.968l-24.18-76.81a4.57 4.57 0 01-.242-1.464zm109.657 68.871c0-1.87.71-3.765 2.136-5.68 1.422-1.91 3.032-2.867 4.825-2.867 1.054 0 2.257.508 3.601 1.524a41.494 41.494 0 013.906 3.36c1.262 1.226 3.075 2.347 5.438 3.362 2.36 1.016 4.965 1.52 7.812 1.52 3.91 0 7.164-.895 9.77-2.688 2.605-1.789 3.906-4.433 3.906-7.933 0-2.445-.71-4.621-2.137-6.535-1.421-1.91-3.296-3.5-5.617-4.762-2.316-1.262-4.863-2.484-7.629-3.664a118.692 118.692 0 01-8.367-3.969c-2.808-1.465-5.37-3.113-7.691-4.945-2.32-1.832-4.196-4.274-5.617-7.328-1.426-3.051-2.137-6.532-2.137-10.438 0-4.379.875-8.246 2.625-11.59 1.75-3.347 4.09-5.949 7.02-7.808a32.847 32.847 0 019.402-4.09c3.336-.867 6.879-1.305 10.625-1.305 2.113 0 4.351.149 6.715.442 2.359.293 4.863.773 7.511 1.441 2.645.668 4.801 1.715 6.47 3.133 1.667 1.422 2.503 3.094 2.503 5.02 0 1.812-.57 3.687-1.707 5.624-1.14 1.938-2.688 2.903-4.64 2.903-.735 0-2.731-.774-5.985-2.32-3.258-1.547-6.879-2.32-10.867-2.32-4.399 0-7.797.835-10.196 2.503-2.402 1.672-3.605 3.969-3.605 6.898 0 2.364.977 4.418 2.934 6.168 1.953 1.75 4.375 3.176 7.265 4.274 2.887 1.098 6.024 2.484 9.403 4.152 3.375 1.668 6.511 3.48 9.402 5.434 2.887 1.953 5.312 4.781 7.266 8.484 1.953 3.707 2.93 8.043 2.93 13.008 0 8.348-2.669 14.793-7.997 19.328-5.336 4.535-12.355 6.805-21.066 6.805-7.735 0-14.367-1.59-19.903-4.766-5.539-3.168-8.304-6.629-8.304-10.375zm0 0"/>
</symbol>
<symbol viewBox="0 0 512.076 512.076" id="phone"
    xmlns="http://www.w3.org/2000/svg">
    <path d="M498.639 395.039l-19.891-13.252c44.859-78.9 44.358-175.706-1.315-254.137S347.813 1.005 257.052 1.08c-4.713 0-8.533 3.82-8.533 8.533s3.82 8.533 8.533 8.533c84.458-.063 162.608 44.69 205.298 117.566 42.689 72.875 43.507 162.929 2.148 236.568l-69.538-46.362c-13.154-8.697-30.782-5.834-40.508 6.579l-30.157 38.818a12.912 12.912 0 01-16.546 3.482l-5.743-3.166c-19.038-10.377-42.726-23.296-90.453-71.04s-60.672-71.45-71.049-90.453l-3.149-5.743a12.92 12.92 0 013.413-16.606l38.792-30.182c12.412-9.725 15.279-27.351 6.588-40.508l-69.12-103.646C108.12.056 90.25-3.966 76.461 4.323L33.12 30.358A61.136 61.136 0 005.242 66.539c-15.607 56.866-3.866 155.008 140.706 299.597 62.976 62.976 117.12 100.693 162.901 122.027A237.32 237.32 0 0119.228 256.057c0-4.713-3.82-8.533-8.533-8.533s-8.533 3.82-8.533 8.533c.132 140.732 114.159 254.797 254.891 254.976a251.946 251.946 0 0077.653-12.237 210.08 210.08 0 0070.707 13.261 151.181 151.181 0 0040.107-5.239 61.079 61.079 0 0036.181-27.878l26.061-43.315c8.301-13.793 4.281-31.674-9.123-40.586zm-5.547 31.803l-26.001 43.341a44.101 44.101 0 01-26.061 20.198c-24.823 6.827-58.445 7.68-101.649-7.893a8.496 8.496 0 00-2.185-.853c-47.787-17.741-107.119-55.552-179.2-127.607C19.245 215.284 7.29 123.559 21.703 71.054a44.17 44.17 0 0120.198-26.061l43.341-26.001c5.983-3.6 13.739-1.855 17.604 3.959l37.547 56.371 31.514 47.266c3.774 5.707 2.534 13.356-2.85 17.579l-38.801 30.182c-11.808 9.029-15.18 25.366-7.91 38.332l3.081 5.598c10.906 20.002 24.465 44.885 73.967 94.379 49.502 49.493 74.377 63.053 94.37 73.958l5.606 3.089c12.965 7.269 29.303 3.898 38.332-7.91l30.182-38.801c4.224-5.381 11.87-6.62 17.579-2.85l103.637 69.12c5.815 3.85 7.574 11.593 3.992 17.578z"/>
</symbol>
<symbol viewBox="0 0 512 512" id="search"
    xmlns="http://www.w3.org/2000/svg">
    <path d="M310 190c-5.52 0-10 4.48-10 10s4.48 10 10 10 10-4.48 10-10-4.48-10-10-10z"/>
    <path d="M500.281 443.719l-133.48-133.48C388.546 277.485 400 239.555 400 200 400 89.72 310.28 0 200 0S0 89.72 0 200s89.72 200 200 200c39.556 0 77.486-11.455 110.239-33.198l36.895 36.895.016.016 96.568 96.568C451.276 507.838 461.319 512 472 512c10.681 0 20.724-4.162 28.278-11.716C507.837 492.731 512 482.687 512 472s-4.163-20.731-11.719-28.281zm-194.745-97.992l-.002.002C274.667 368.149 238.175 380 200 380c-99.252 0-180-80.748-180-180S100.748 20 200 20s180 80.748 180 180c0 38.175-11.851 74.667-34.272 105.535a180.872 180.872 0 01-40.192 40.192zm20.98 9.066a200.674 200.674 0 0028.277-28.277l28.371 28.371a242.733 242.733 0 01-28.277 28.277l-28.371-28.371zm159.623 131.346c-3.78 3.78-8.801 5.861-14.139 5.861s-10.359-2.081-14.139-5.861l-88.795-88.795a262.775 262.775 0 0028.277-28.277l88.798 88.798A19.846 19.846 0 01492 472a19.856 19.856 0 01-5.861 14.139z"/>
    <path d="M200 40c-88.225 0-160 71.775-160 160s71.775 160 160 160 160-71.775 160-160S288.225 40 200 40zm0 300c-77.196 0-140-62.804-140-140S122.804 60 200 60s140 62.804 140 140-62.804 140-140 140z"/>
    <path d="M312.065 157.073c-8.611-22.412-23.604-41.574-43.36-55.413C248.479 87.49 224.721 80 200 80c-5.522 0-10 4.478-10 10s4.478 10 10 10c41.099 0 78.631 25.818 93.396 64.247a10.003 10.003 0 009.337 6.416 9.978 9.978 0 003.584-.668c5.155-1.981 7.729-7.766 5.748-12.922z"/>
</symbol>
<symbol viewBox="0 0 512 512" id="team"
    xmlns="http://www.w3.org/2000/svg">
    <path d="M451.72 237.26c-17.422-8.71-50.087-8.811-51.469-8.811a7.5 7.5 0 000 15c8.429.001 32.902 1.299 44.761 7.228a7.502 7.502 0 006.708-13.417z"/>
    <path d="M489.112 344.041l-30.975-8.85a3.145 3.145 0 01-2.271-3.011v-10.339a56.368 56.368 0 007.171-5.881c10.89-10.568 16.887-24.743 16.887-39.915v-14.267l2.995-5.989a47.846 47.846 0 005.024-21.286v-38.65a7.5 7.5 0 00-7.5-7.5H408.27c-26.244 0-47.596 21.352-47.596 47.596v.447a39.78 39.78 0 004.178 17.699l3.841 7.682v12.25c0 19.414 9.567 36.833 24.058 47.315l.002 10.836c0 1.671 0 2.363-6.193 4.133l-15.114 4.318-43.721-15.898a7.491 7.491 0 00-2.044-5.742l-13.971-14.678v-24.64a90.427 90.427 0 004.344-3.789c17.625-16.52 27.733-39.844 27.733-63.991v-19.678c5.322-11.581 8.019-23.836 8.019-36.457v-80.19a7.5 7.5 0 00-7.5-7.5H232.037c-39.51 0-71.653 32.144-71.653 71.653v16.039c0 12.621 2.697 24.876 8.019 36.457v16.931c0 28.036 12.466 53.294 32.077 69.946v25.22l-13.971 14.678a7.491 7.491 0 00-2.044 5.742l-46.145 16.779a39.33 39.33 0 00-9.272 4.858l-7.246-3.623c21.57-9.389 28.403-22.594 28.731-23.25a7.498 7.498 0 000-6.708c-5.407-10.814-6.062-30.635-6.588-46.561-.175-5.302-.341-10.311-.658-14.771-2.557-35.974-29.905-63.103-63.615-63.103s-61.059 27.128-63.615 63.103c-.317 4.461-.483 9.47-.658 14.773-.526 15.925-1.182 35.744-6.588 46.558a7.498 7.498 0 000 6.708c.328.656 7.147 13.834 28.76 23.234l-20.127 10.063C6.684 358.176 0 368.991 0 381.02v55.409a7.5 7.5 0 0015 0V381.02c0-6.312 3.507-11.987 9.152-14.81l25.063-12.531 8.718 8.285a31.466 31.466 0 0021.739 8.688 31.475 31.475 0 0021.739-8.688l8.717-8.284 8.172 4.086c-3.848 6.157-6.032 13.377-6.032 20.94v57.725a7.5 7.5 0 0015 0v-57.725c0-10.296 6.501-19.578 16.178-23.097l48.652-17.691 20.253 30.381a15.462 15.462 0 0011.383 6.835 15.458 15.458 0 0012.504-4.47l12.356-12.356v78.124a7.5 7.5 0 0015 0v-78.124l12.356 12.356a15.452 15.452 0 0010.957 4.547c.513 0 1.029-.025 1.546-.076a15.462 15.462 0 0011.384-6.835l20.254-30.38 48.651 17.691c9.676 3.519 16.178 12.801 16.178 23.097v57.725a7.5 7.5 0 0015 0v-57.725c0-10.428-4.143-20.208-11.093-27.441l1.853-.529c1.869-.534 4.419-1.265 6.979-2.52l19.149 19.149v69.066a7.5 7.5 0 0015 0v-69.066l19.016-19.016c1.011.514 2.073.948 3.191 1.267l30.976 8.85c7.07 2.02 12.009 8.567 12.009 15.921v62.044a7.5 7.5 0 0015 0v-62.044c0-14.018-9.412-26.497-22.888-30.348zM48.115 330.794c-14.029-5.048-21.066-11.778-24.07-15.453 2.048-5.354 3.376-11.486 4.275-17.959 4.136 9.917 11.063 18.383 19.795 24.423v8.989zm42.965 20.298c-6.397 6.078-16.418 6.077-22.813-.001l-6.975-6.628a15.518 15.518 0 001.824-7.324v-7.994a55.427 55.427 0 0016.558 2.517c5.757 0 11.316-.886 16.557-2.512l-.001 7.988c0 2.62.646 5.121 1.824 7.327l-6.974 6.627zm-11.404-34.43c-22.396 0-40.615-18.22-40.615-40.615a7.5 7.5 0 00-7.5-7.5c-.42 0-.83.043-1.231.11l.065-1.93c.167-5.157.328-10.028.625-14.206.958-13.476 6.343-25.894 15.163-34.968 8.899-9.156 20.793-14.198 33.491-14.198s24.591 5.042 33.491 14.198c8.82 9.074 14.205 21.492 15.163 34.968.296 4.177.458 9.047.628 14.203l.045 1.338c-8.16-12.572-20.762-21.837-37.045-27.069-15.043-4.833-27.981-4.534-28.527-4.52a7.5 7.5 0 00-5.191 2.291l-13.532 14.034a7.5 7.5 0 1010.798 10.412l11.26-11.677c9.697.474 40.894 4.102 53.027 30.819-3.053 19.688-19.975 34.31-40.115 34.31zm31.553 14.157l.001-8.945a55.477 55.477 0 0019.801-24.449c.899 6.458 2.226 12.576 4.27 17.918-2.987 3.64-10.057 10.43-24.072 15.476zm72.174-121.674v-18.608a7.501 7.501 0 00-.746-3.261c-4.826-9.994-7.273-20.598-7.273-31.518V139.72c0-31.239 25.415-56.653 56.653-56.653h104.769v72.692c0 10.92-2.447 21.524-7.273 31.518a7.501 7.501 0 00-.746 3.261v21.355c0 20.311-8.165 39.15-22.991 53.047a74.636 74.636 0 01-5.758 4.875c-.044.03-.086.063-.129.094-13.889 10.545-30.901 15.67-48.667 14.519-38.041-2.463-67.839-35.531-67.839-75.283zm42.229 150.911c-.052.052-.173.175-.418.149a.477.477 0 01-.381-.229l-23.325-34.988 7.506-7.887 35.385 24.187-18.767 18.768zm30.463-28.943l-40.615-27.762v-14c10.509 5.681 22.276 9.234 34.791 10.044 1.977.128 3.942.191 5.901.191 14.341 0 28.143-3.428 40.538-9.935v13.7l-40.615 27.762zm31.262 28.865a.477.477 0 01-.381.229c-.245.031-.365-.098-.418-.149l-18.767-18.767 35.385-24.188 7.507 7.887-23.326 34.988zm136.951-6.328l-17.02-17.019c.297-1.349.465-2.826.464-4.455l-.001-3.165a52.589 52.589 0 0016.579 2.65 55.71 55.71 0 0016.536-2.501v3.02c0 1.496.188 2.962.542 4.371l-17.1 17.099zm28.283-48.454c-7.949 7.714-18.45 11.788-29.537 11.446-21.704-.651-39.361-19.768-39.361-42.613v-14.021a7.493 7.493 0 00-.792-3.354l-4.633-9.266a24.706 24.706 0 01-2.594-10.991v-.447c0-17.974 14.623-32.596 32.596-32.596h64.673v31.15a32.77 32.77 0 01-3.441 14.578l-3.786 7.572a7.496 7.496 0 00-.792 3.354v16.038c0 11.08-4.38 21.432-12.333 29.15z"/>
    <path d="M472.423 380.814a7.5 7.5 0 00-7.5 7.5v48.115a7.5 7.5 0 0015 0v-48.115a7.5 7.5 0 00-7.5-7.5zm-432.846 9.914a7.5 7.5 0 00-7.5 7.5v38.201a7.5 7.5 0 0015 0v-38.201a7.5 7.5 0 00-7.5-7.5zm277.955-232.253c-28.366-28.366-87.715-22.943-111.917-19.295-7.623 1.149-13.155 7.6-13.155 15.339v17.278a7.5 7.5 0 0015 0v-17.279c0-.255.168-.473.392-.507 9.667-1.457 28.85-3.705 48.725-2.38 23.388 1.557 40.328 7.428 50.349 17.45a7.5 7.5 0 0010.606 0 7.5 7.5 0 000-10.606zM167.884 396.853a7.5 7.5 0 00-7.5 7.5v32.077a7.5 7.5 0 0015 0v-32.077a7.5 7.5 0 00-7.5-7.5zm176.422 0a7.5 7.5 0 00-7.5 7.5v32.077a7.5 7.5 0 0015 0v-32.077a7.5 7.5 0 00-7.5-7.5z"/>
</symbol>
<symbol viewBox="0 0 512 512" id="whatsapp"
    xmlns="http://www.w3.org/2000/svg">
    <path style="fill:#4CAF50;" d="M256.064,0h-0.128l0,0C114.784,0,0,114.816,0,256c0,56,18.048,107.904,48.736,150.048l-31.904,95.104
	l98.4-31.456C155.712,496.512,204,512,256.064,512C397.216,512,512,397.152,512,256S397.216,0,256.064,0z"/>
    <path style="fill:#FAFAFA;" d="M405.024,361.504c-6.176,17.44-30.688,31.904-50.24,36.128c-13.376,2.848-30.848,5.12-89.664-19.264
	C189.888,347.2,141.44,270.752,137.664,265.792c-3.616-4.96-30.4-40.48-30.4-77.216s18.656-54.624,26.176-62.304
	c6.176-6.304,16.384-9.184,26.176-9.184c3.168,0,6.016,0.16,8.576,0.288c7.52,0.32,11.296,0.768,16.256,12.64
	c6.176,14.88,21.216,51.616,23.008,55.392c1.824,3.776,3.648,8.896,1.088,13.856c-2.4,5.12-4.512,7.392-8.288,11.744
	c-3.776,4.352-7.36,7.68-11.136,12.352c-3.456,4.064-7.36,8.416-3.008,15.936c4.352,7.36,19.392,31.904,41.536,51.616
	c28.576,25.44,51.744,33.568,60.032,37.024c6.176,2.56,13.536,1.952,18.048-2.848c5.728-6.176,12.8-16.416,20-26.496
	c5.12-7.232,11.584-8.128,18.368-5.568c6.912,2.4,43.488,20.48,51.008,24.224c7.52,3.776,12.48,5.568,14.304,8.736
	C411.2,329.152,411.2,344.032,405.024,361.504z"/>

</symbol>
<symbol viewBox="0 -71 511.999 511" id="youtube"
    xmlns="http://www.w3.org/2000/svg">
    <path d="M255.98 370.492h-.136c-15.45-.105-152.028-1.351-190.723-11.816-27.043-7.27-48.39-28.594-55.68-55.64C-.684 265.022-.039 191.84.031 185.995c-.066-5.816-.719-79.605 9.38-117.93.01-.035.019-.074.03-.109 7.207-26.738 29.036-48.723 55.614-56.012.066-.02.136-.035.203-.054C103.516 1.836 240.363.605 255.844.5h.277c15.488.105 152.43 1.352 190.77 11.832 26.972 7.25 48.304 28.547 55.613 55.559 10.504 38.351 9.531 112.3 9.426 118.543.074 6.148.687 78.675-9.38 116.878-.007.04-.019.075-.027.11-7.293 27.047-28.636 48.371-55.71 55.648-.036.012-.075.02-.11.032-38.254 10.05-175.105 11.28-190.582 11.39h-.14zM48.074 78.324c-8.89 33.828-8.05 106.676-8.043 107.41v.528c-.265 20.203.668 78.71 8.047 106.422 3.578 13.27 14.106 23.78 27.457 27.37 28.55 7.723 139.79 10.153 180.445 10.438 40.762-.285 152.165-2.648 180.504-10.062 13.309-3.602 23.801-14.078 27.403-27.364 7.386-28.117 8.312-86.34 8.043-106.414 0-.21 0-.422.004-.632.367-20.446-.356-79.637-8.012-107.57a.624.624 0 01-.02-.083c-3.593-13.328-14.125-23.84-27.476-27.43-28.274-7.73-139.692-10.152-180.446-10.437-40.734.285-152.027 2.645-180.453 10.05-13.097 3.634-23.863 14.52-27.453 27.774zM483.211 298.22h.012zM205 266.492V104.496l140 81zm0 0"/>
</symbol>

</svg>