<?xml version="1.0" encoding="UTF-8" standalone="no"?>
<!DOCTYPE svg  PUBLIC '-//W3C//DTD SVG 20010904//EN'  'http://www.w3.org/TR/2001/REC-SVG-20010904/DTD/svg10.dtd'>
<svg xmlns="http://www.w3.org/2000/svg" height="116px" width="119px" version="1.0" preserveAspectRatio="xMidYMid meet" viewBox="0 0 1190 1160">
 <g id="layer101" fill="#f64747">
  <path d="m17 1142c-15-17-17-70-17-564 0-515 1-546 18-561s72-17 579-17c530 0 561 1 576 18s17 70 17 564c0 515-1 546-18 561-29 26-83 21-340-33l-237-50-238 50c-260 55-315 60-340 32z"/>
 </g>
 <g id="layer102" fill="#f98f8f">
  <path d="m17 1142c-15-17-17-70-17-564 0-515 1-546 18-561s72-17 579-17c530 0 561 1 576 18s17 70 17 564c0 515-1 546-18 561-29 26-83 21-340-33l-237-50-238 50c-260 55-315 60-340 32zm328-92l250-53 268 57c147 31 270 56 272 56 3 0 5-238 5-530v-530h-545-545v531 531l23-5c12-3 135-29 272-57z"/>
  <path d="m530 893c0-59-1-61-47-105-27-24-82-69-123-99-131-97-166-154-158-254 5-60 39-115 88-140 65-33 177-10 225 46l20 24-20-16c-53-41-141-52-195-24-66 34-82 147-31 226 38 58 241 259 241 237 0-18-66-87-161-170-75-65-99-106-99-173 0-40 5-52 33-80 57-57 131-59 190-4l32 29-49-26c-41-23-54-26-84-18-46 12-75 51-74 102 1 55 17 83 109 183 43 47 83 94 89 105 9 16 13 9 23-47 14-83 43-169 78-228 14-25 22-43 18-39-5 4-14 3-22-3-28-24-13-56 60-132l73-76 10 31c11 39 22 43 52 20 20-16 22-20 9-30-12-10-15-10-13 5 1 22-32 29-40 8-9-22 13-68 29-62 6 2 19-1 27-8s32-15 53-19c33-6 37-5 37 14 0 16 5 20 18 16 9-2 27-7 40-11 29-8 28 9-3 40-20 21-21 25-7 25 12 0 7 9-18 30-42 35-89 40-97 10-5-20-18-26-27-12-2 4 9 17 25 27 33 23 36 33 12 42-10 4-24 13-31 20s-20 13-28 13-13 6-12 12c5 20-42 21-65 1l-22-18 19 23c11 12 26 22 34 22 12 0 12 3 2 15-18 22-61 19-67-5-5-19-6-19-24 4-80 102-142 360-104 437 15 31 15 32 0 14-16-19-16-18-14 22 2 23 0 45-4 49s-7-20-7-53zm135-503c3-5-1-10-10-10s-13 5-10 10c3 6 8 10 10 10s7-4 10-10zm28-55c-22-17-30-11-13 10 7 8 17 12 22 9s1-12-9-19zm58-32c12-14 12-16 0-8-9 5-19 2-29-11-14-18-14-18-8-1 3 10 6 23 6 28 0 15 16 10 31-8zm39-3c0-5-2-10-4-10-3 0-8 5-11 10-3 6-1 10 4 10 6 0 11-4 11-10zm90-60c0-5-2-10-4-10-3 0-8 5-11 10-3 6-1 10 4 10 6 0 11-4 11-10zm-23-57c-3-10-5-2-5 17s2 27 5 18c2-10 2-26 0-35z"/>
  <path d="m585 890c24-91 57-136 203-280 118-117 153-158 179-210l32-65 1 48c0 91-40 147-210 290-104 87-147 133-186 199-16 27-23 34-19 18z"/>
  <path d="m654 475c-4-8-4-22 0-30 4-12 10-13 33-3 38 16 37 16 23 33-16 19-49 19-56 0z"/>
 </g>
 <g id="layer103" fill="#fbb0b0">
  <path d="m17 1142c-15-17-17-70-17-564 0-515 1-546 18-561s72-17 579-17c530 0 561 1 576 18s17 70 17 564c0 515-1 546-18 561-29 26-83 21-340-33l-237-50-238 50c-260 55-315 60-340 32zm198-62c55-12 143-31 195-42s115-24 140-29c27-6 62-6 90 0 25 5 89 19 143 30 202 43 293 62 325 68l32 6v-532-531h-545-545v531 532l33-6c17-4 77-16 132-27z"/>
  <path d="m532 890c-2-52-5-59-49-102-27-25-82-70-123-101-92-67-113-89-139-147-54-120 9-246 129-258 57-5 104 9 145 44 28 24 28 24 3 9-73-45-167-38-211 14-34 41-41 91-23 154 13 45 31 68 141 177 104 104 125 121 124 100-4-73 50-252 97-325 31-50 28-39-13 45-56 113-90 299-63 349 7 13 7 21 2 17-7-4-12 10-15 36-3 39-4 38-5-12z"/>
  <path d="m595 865c13-61 61-123 200-260 117-115 148-152 173-205l31-65 1 45c0 93-52 162-237 314-82 67-125 114-157 171l-17 30 6-30z"/>
  <path d="m484 719c-16-17-58-54-93-82-80-64-121-126-121-182 0-115 131-171 222-95 23 19 23 19-17 0-53-27-87-25-123 5-70 59-52 132 62 252 71 75 116 133 103 133-2 0-16-14-33-31z"/>
  <path d="m660 475c-7-8-10-21-7-29 5-12 11-13 36-3 36 13 39 22 12 37-25 13-26 13-41-5z"/>
  <path d="m683 421c-3-14-9-18-17-13-6 5-22 8-36 8-18-1-26-7-28-25-6-39 13-45 35-11 15 24 22 28 26 17 3-9-1-18-9-21-18-7-18-50-1-64 10-9 16-2 24 31 9 32 19 45 43 56 37 16 35 35-4 39-21 3-29-1-33-17z"/>
  <path d="m727 393c-4-3-7-15-7-26 0-17-2-18-17-6-14 11-14 9 1-9 13-15 23-19 30-12 14 14 23 12 23-5 0-10-6-14-16-10-11 4-10 1 4-15 18-20 41-28 31-11-3 5 0 11 8 14 9 4 12-2 10-19-1-16 5-28 18-35 15-8 17-14 9-22-18-18-13-55 9-67 18-10 20-8 20 25 0 19 5 35 11 35 5 0 8 4 5 9s1 11 9 15c9 3 15-1 15-11 0-12 7-14 32-9 17 3 33 8 36 10 10 10-11 26-36 27-15 0-21 3-14 6 21 8 2 23-30 23-21 0-31-6-35-20-5-20-18-26-27-12-2 4 9 17 25 27 35 24 32 41-7 38-22-2-25 0-14 7 13 9 13 11 0 20-8 6-26 8-40 5-21-4-22-4-7 5 9 6 15 15 12 21-7 10-48 12-58 2z"/>
  <path d="m693 333c-17-6-16-58 1-72 11-9 15-5 21 25 7 38-1 55-22 47z"/>
  <path d="m731 291c-14-9-11-63 4-68 17-5 36 54 21 66-6 5-18 6-25 2z"/>
  <path d="m767 253c-13-12-7-41 10-59 17-16 18-15 24 17 4 18 5 37 3 41-6 10-28 10-37 1z"/>
  <path d="m923 214c-7-19 4-29 40-38 31-7 34 0 11 32-18 26-42 29-51 6z"/>
  <path d="m862 194c3-25 31-55 41-44 3 3 2 20 0 38-4 23-10 32-25 32s-19-6-16-26z"/>
 </g>
 <g id="layer104" fill="#fdd1d1">
  <path d="m17 1142c-15-17-17-70-17-564 0-515 1-546 18-561s72-17 579-17c530 0 561 1 576 18s17 70 17 564c0 515-1 546-18 561-29 26-83 21-340-33l-237-50-238 50c-260 55-315 60-340 32zm323-87l255-54 256 55c141 30 263 54 272 54 16 0 17-44 17-530v-530h-545-545v530c0 498 1 530 18 530 9 0 132-25 272-55z"/>
  <path d="m532 892c-1-29-7-62-12-72-6-11-68-64-138-118-150-117-177-154-177-247 0-141 126-215 255-150 63 32 65 41 4 13-113-49-223 26-210 144 8 71 27 100 156 227 117 115 119 116 122 86 3-22 5-16 8 20 3 28 2 73-1 100l-6 50-1-53z"/>
  <path d="m601 856c-1-4 13-35 30-67 23-43 67-92 164-183 103-97 140-140 169-193l37-68-5 54c-8 77-46 132-151 221-102 85-203 183-227 220-10 14-17 21-17 16z"/>
  <path d="m505 740c-3-5-43-42-88-82-137-120-162-167-138-249 15-50 59-79 119-79 38 0 102 22 102 36 0 2-13-2-30-11-58-30-119-13-145 40-32 69-13 116 94 229 72 77 110 126 97 126-3 0-8-4-11-10z"/>
  <path d="m542 695c0-16 2-22 5-12 2 9 2 23 0 30-3 6-5-1-5-18z"/>
  <path d="m551 644c0-11 3-14 6-6 3 7 2 16-1 19-3 4-6-2-5-13z"/>
  <path d="m561 604c0-11 3-14 6-6 3 7 2 16-1 19-3 4-6-2-5-13z"/>
  <path d="m570 570c0-7 3-10 7-7 3 4 3 10 0 14-4 3-7 0-7-7z"/>
  <path d="m590 526c0-11 30-66 36-66 2 0-3 15-12 33-19 36-24 44-24 33z"/>
  <path d="m653 461c-3-11-9-18-14-15s-6-1-3-9c3-9-3-16-16-20-16-4-21-12-18-32 4-37 21-36 34 3 9 30 12 32 24 17s12-18-3-26c-20-12-22-50-5-67 10-10 15-5 23 24l10 36 19-21c19-21 19-21-3-21-19 0-22-5-19-32 4-44 24-46 32-3l7 36 37-29c41-32 62-31 97 8l20 22-35-4c-26-2-35-8-40-27-5-20-7-22-18-9-10 13-8 18 13 32 33 22 32 36-5 36-26 0-30-4-30-27 0-26 0-26-21-7-15 13-17 20-7 23 7 2 24 12 37 22 19 16 21 20 8 25-27 10-51 0-57-25l-5-23-19 21c-15 16-16 21-5 21 8 0 25 7 38 16 21 15 22 18 7 26-22 12-56 1-56-19 0-13-3-13-15-3-23 19-18 27 21 34 41 8 41 29 0 34-21 3-29-1-33-17z"/>
  <path d="m844 286c-3-8-4-22-2-30 3-14 7-13 36 4 18 11 30 25 27 30-9 15-55 12-61-4z"/>
  <path d="m727 283c-11-10-8-51 4-58 14-9 18-4 25 33 5 24 3 32-8 32-8 0-18-3-21-7z"/>
  <path d="m815 260c3-5 8-10 11-10s2 5-1 10c-3 6-8 10-11 10s-2-4 1-10z"/>
  <path d="m894 255c-9-23 0-28 36-20 37 8 35 29-3 33-18 2-29-2-33-13z"/>
  <path d="m766 244c-4-9 1-29 11-43l18-26 5 35c4 19 4 38 2 43-6 13-30 7-36-9z"/>
  <path d="m833 233c-30-6-31-48-3-63 18-10 20-8 20 24 0 19 6 37 13 39 14 6 1 6-30 0z"/>
  <path d="m924 215c-8-20 2-32 31-37 19-4 25-1 25 13 0 10-9 23-19 29-26 13-31 13-37-5z"/>
  <path d="m867 213c-14-13-6-43 14-53 26-14 28-12 22 28-5 30-21 41-36 25z"/>
 </g>
 <g id="layer105" fill="#fffefe">
  <path d="m17 1142c-15-17-17-70-17-564 0-515 1-546 18-561s72-17 579-17c530 0 561 1 576 18s17 70 17 564c0 515-1 546-18 561-29 26-83 21-340-33l-237-50-238 50c-260 55-315 60-340 32zm313-83c129-28 249-50 265-50 17 0 137 23 267 50 131 28 247 51 258 51 20 0 20-6 20-530v-530h-545-545v530 530h23c12 0 128-23 257-51z"/>
  <path d="m530 867c0-50-21-74-155-174-112-84-150-129-164-193-31-145 96-262 224-206 29 13 28 13-21 8-93-8-164 51-164 138 0 79 20 110 152 242 109 109 127 124 131 105 2-12 5 11 6 51 0 39-1 72-4 72s-5-19-5-43z"/>
  <path d="m600 855c0-6 14-34 31-63 30-54 51-76 215-232 61-59 98-104 118-145 33-64 44-59 27 12-18 70-61 123-173 216-104 86-172 152-202 197-9 13-16 20-16 15z"/>
  <path d="m413 651c-115-99-137-130-137-198-1-50 2-57 36-89 33-29 44-34 85-33 27 1 37 3 23 6-59 9-72 15-90 46-41 66-25 123 63 216 80 85 112 121 106 121-2 0-41-31-86-69z"/>
  <path d="m653 465c-3-9-3-19 1-22 9-10 58 16 51 27-10 16-45 12-52-5z"/>
  <path d="m690 425c-20-24 1-41 29-23 12 7 20 17 18 23-6 17-33 17-47 0z"/>
  <path d="m605 409c-4-5-4-22 0-36 6-24 7-25 20-7 8 11 15 27 15 37 0 19-25 23-35 6z"/>
  <path d="m655 410c3-5 8-10 11-10s2 5-1 10c-3 6-8 10-11 10s-2-4 1-10z"/>
  <path d="m733 393c-7-2-13-14-13-25 0-18-2-19-17-7-17 13-16 12 0-7 17-21 17-22-3-27-21-5-26-32-11-56 7-10 12-4 22 22 7 21 17 33 23 30 6-4 5 1-3 10-10 12-10 17-1 17 6 0 23 9 36 19 20 16 21 20 8 25-18 7-23 7-41-1z"/>
  <path d="m643 364c-3-8-1-25 5-37 10-22 10-22 21 6 11 29 8 47-10 47-5 0-12-7-16-16z"/>
  <path d="m763 344c-11-29 12-35 37-9l23 25h-27c-15 0-29-7-33-16z"/>
  <path d="m807 323c-10-9-9-43 1-43 13 0 52 30 52 41 0 10-43 13-53 2z"/>
  <path d="m853 292c-9-5-16-52-8-52 10 0 63 49 58 53-9 9-35 8-50-1z"/>
  <path d="m727 283c-12-11-8-40 8-53 12-10 15-10 15 1 0 8 3 24 6 37 5 15 2 22-8 22-8 0-18-3-21-7z"/>
  <path d="m894 255c-9-22-1-27 30-19 31 7 29 28-2 32-13 2-25-3-28-13z"/>
  <path d="m777 253c-10-9-8-51 2-57 8-6 21 25 21 52 0 13-13 16-23 5z"/>
  <path d="m814 216c-8-21 2-46 19-46s17 52 0 57c-7 3-16-2-19-11z"/>
  <path d="m933 223c-22-8-14-31 13-37 31-8 37-5 28 17-6 18-24 26-41 20z"/>
  <path d="m864 206c-9-22 2-46 21-46 12 0 15 8 13 27-3 30-25 42-34 19z"/>
 </g>
</svg>
