<svg id="Layer_1" height="512" viewBox="0 0 512 512" width="512" xmlns="http://www.w3.org/2000/svg" data-name="Layer 1"><path d="m325.129 237.305a106.183 106.183 0 0 1 -14.129-52.9v-109.405h.283c3.317 0 5.717-2.988 5.717-6.3v-44.817a5.665 5.665 0 0 0 -5.717-5.883h-110.566a5.665 5.665 0 0 0 -5.717 5.883v44.817c0 3.314 2.4 6.3 5.717 6.3h1.283v109.221a106.239 106.239 0 0 1 -14.369 53.179l-104.622 180.416a50.713 50.713 0 0 0 43.928 76.184h258.127a50.746 50.746 0 0 0 44.044-76.078zm-118.129-207.305h98v33h-98zm-8.987 213.42a118.249 118.249 0 0 0 15.987-59.199v-109.221h85v109.405a118.2 118.2 0 0 0 15.729 58.886l45.298 78.709h-207.636zm220.653 219.253a38.369 38.369 0 0 1 -33.602 19.327h-258.127a38.742 38.742 0 0 1 -33.581-58.194l52.078-89.806h221.5l51.77 89.909a38.369 38.369 0 0 1 -.038 38.764z"/><path d="m197.25 382.545a18.7 18.7 0 1 0 18.705 18.7 18.726 18.726 0 0 0 -18.705-18.7zm0 25.41a6.7 6.7 0 1 1 6.705-6.7 6.713 6.713 0 0 1 -6.705 6.7z"/><path d="m249.25 343.951a19.3 19.3 0 1 0 19.3 19.3 19.32 19.32 0 0 0 -19.3-19.3zm0 26.6a7.3 7.3 0 1 1 7.3-7.3 7.307 7.307 0 0 1 -7.3 7.298z"/><path d="m239.875 427.5a23.375 23.375 0 1 0 23.375 23.375 23.4 23.4 0 0 0 -23.375-23.375zm0 34.75a11.375 11.375 0 1 1 11.375-11.375 11.388 11.388 0 0 1 -11.375 11.375z"/><path d="m370.25 425.448a20.3 20.3 0 1 0 20.3 20.3 20.324 20.324 0 0 0 -20.3-20.3zm0 28.6a8.3 8.3 0 1 1 8.3-8.3 8.311 8.311 0 0 1 -8.3 8.304z"/><path d="m308.75 394.967a23.783 23.783 0 1 0 23.783 23.783 23.81 23.81 0 0 0 -23.783-23.783zm0 35.566a11.783 11.783 0 1 1 11.783-11.783 11.8 11.8 0 0 1 -11.783 11.783z"/><path d="m360.794 362.5a17.794 17.794 0 1 0 -17.794 17.794 17.814 17.814 0 0 0 17.794-17.794zm-17.794 5.794a5.794 5.794 0 1 1 5.794-5.794 5.8 5.8 0 0 1 -5.794 5.794z"/><path d="m144.25 418.5a24.25 24.25 0 1 0 24.25 24.25 24.277 24.277 0 0 0 -24.25-24.25zm0 36.5a12.25 12.25 0 1 1 12.25-12.25 12.263 12.263 0 0 1 -12.25 12.25z"/><path d="m168 375a18 18 0 1 0 -18-18 18.021 18.021 0 0 0 18 18zm0-24a6 6 0 1 1 -6 6 6.007 6.007 0 0 1 6-6z"/></svg>