<?xml version="1.0" encoding="utf-8"?><svg viewBox="0 0 512 512" xmlns="http://www.w3.org/2000/svg" xmlns:xlink="http://www.w3.org/1999/xlink"><style>:root>svg{display:none}:root>svg:target{display:block}</style><svg viewBox="0 0 20 20" id="check" xmlns="http://www.w3.org/2000/svg"><path d="M7.658 15.27a1.018 1.018 0 01-1.444 0L.45 9.503a1.531 1.531 0 010-2.166l.722-.722a1.531 1.531 0 012.166 0l3.6 3.6L16.662.488a1.531 1.531 0 012.166 0l.722.722a1.531 1.531 0 010 2.166L7.658 15.27z"/></svg><svg fill="none" viewBox="0 0 25 25" id="clock" xmlns="http://www.w3.org/2000/svg"><g clip-path="url(#bclip0)" fill="#000"><path d="M22.37 6.578c-.518.25-.735.874-.485 1.391a10.31 10.31 0 011.032 4.531c0 5.744-4.673 10.417-10.417 10.417S2.083 18.244 2.083 12.5 6.756 2.083 12.5 2.083c2.38 0 4.616.778 6.467 2.248A1.041 1.041 0 1020.263 2.7 12.52 12.52 0 0012.5 0C5.608 0 0 5.608 0 12.5S5.608 25 12.5 25 25 19.392 25 12.5c0-1.91-.417-3.74-1.24-5.438a1.04 1.04 0 00-1.39-.484z"/><path d="M12.5 4.167c-.575 0-1.042.466-1.042 1.041V12.5c0 .575.467 1.041 1.042 1.041h5.208a1.042 1.042 0 000-2.083h-4.166v-6.25c0-.575-.467-1.042-1.042-1.042z"/></g><defs><clipPath id="bclip0"><path fill="#fff" d="M0 0h25v25H0z"/></clipPath></defs></svg><svg viewBox="0 0 20 20" id="close" xmlns="http://www.w3.org/2000/svg"><g clip-path="url(#cclip0)"><path d="M11.832 10l7.788-7.788A1.294 1.294 0 1017.788.38L10 8.168 2.212.38A1.294 1.294 0 10.38 2.212L8.168 10 .38 17.788A1.294 1.294 0 001.296 20c.332 0 .664-.127.916-.38L10 11.832l7.788 7.788a1.292 1.292 0 001.832 0 1.294 1.294 0 000-1.832L11.832 10z"/></g><defs><clipPath id="cclip0"><path d="M0 0h20v20H0z"/></clipPath></defs></svg><svg viewBox="0 0 512 512" id="delivery" xmlns="http://www.w3.org/2000/svg"><path d="M386.689 304.403c-35.587 0-64.538 28.951-64.538 64.538s28.951 64.538 64.538 64.538c35.593 0 64.538-28.951 64.538-64.538s-28.951-64.538-64.538-64.538zm0 96.807c-17.796 0-32.269-14.473-32.269-32.269s14.473-32.269 32.269-32.269 32.269 14.473 32.269 32.269c0 17.797-14.473 32.269-32.269 32.269zM166.185 304.403c-35.587 0-64.538 28.951-64.538 64.538s28.951 64.538 64.538 64.538 64.538-28.951 64.538-64.538-28.951-64.538-64.538-64.538zm0 96.807c-17.796 0-32.269-14.473-32.269-32.269s14.473-32.269 32.269-32.269c17.791 0 32.269 14.473 32.269 32.269 0 17.797-14.473 32.269-32.269 32.269zM430.15 119.675a16.143 16.143 0 00-14.419-8.885h-84.975v32.269h75.025l43.934 87.384 28.838-14.5-48.403-96.268z"/><path d="M216.202 353.345h122.084v32.269H216.202zM117.781 353.345H61.849c-8.912 0-16.134 7.223-16.134 16.134 0 8.912 7.223 16.134 16.134 16.134h55.933c8.912 0 16.134-7.223 16.134-16.134 0-8.912-7.223-16.134-16.135-16.134zM508.612 254.709l-31.736-40.874a16.112 16.112 0 00-12.741-6.239H346.891V94.655c0-8.912-7.223-16.134-16.134-16.134H61.849c-8.912 0-16.134 7.223-16.134 16.134s7.223 16.134 16.134 16.134h252.773V223.73c0 8.912 7.223 16.134 16.134 16.134h125.478l23.497 30.268v83.211h-44.639c-8.912 0-16.134 7.223-16.134 16.134 0 8.912 7.223 16.134 16.134 16.134h60.773c8.912 0 16.134-7.223 16.135-16.134V264.605c0-3.582-1.194-7.067-3.388-9.896zM116.706 271.597H42.487c-8.912 0-16.134 7.223-16.134 16.134 0 8.912 7.223 16.134 16.134 16.134h74.218c8.912 0 16.134-7.223 16.134-16.134.001-8.911-7.222-16.134-16.133-16.134zM153.815 208.134H16.134C7.223 208.134 0 215.357 0 224.269s7.223 16.134 16.134 16.134h137.681c8.912 0 16.134-7.223 16.134-16.134s-7.222-16.135-16.134-16.135z"/><path d="M180.168 144.672H42.487c-8.912 0-16.134 7.223-16.134 16.134 0 8.912 7.223 16.134 16.134 16.134h137.681c8.912 0 16.134-7.223 16.134-16.134.001-8.911-7.222-16.134-16.134-16.134z"/></svg><svg viewBox="0 0 25 25" id="faq-arrow" xmlns="http://www.w3.org/2000/svg"><g clip-path="url(#eclip0)"><path d="M25 12.5C25 5.607 19.393 0 12.5 0S0 5.607 0 12.5 5.607 25 12.5 25 25 19.393 25 12.5zm-13.236 3.861l-5.209-5.208a1.039 1.039 0 010-1.473 1.04 1.04 0 011.473 0l4.472 4.472 4.472-4.472a1.04 1.04 0 111.473 1.473l-5.209 5.208a1.04 1.04 0 01-1.473 0z"/></g><defs><clipPath id="eclip0"><path transform="rotate(90 12.5 12.5)" d="M0 0h25v25H0z"/></clipPath></defs></svg><svg fill="none" viewBox="0 0 65 65" id="gear" xmlns="http://www.w3.org/2000/svg"><path d="M61.661 26.02l-5.51-1.353c-.26-.714-.56-1.429-.897-2.138l2.87-4.783a1.758 1.758 0 00-.265-2.147L50.401 8.14a1.758 1.758 0 00-2.147-.265l-4.783 2.87a24.654 24.654 0 00-2.138-.898l-1.352-5.51A1.758 1.758 0 0038.273 3H27.727c-.81 0-1.515.553-1.707 1.339l-1.353 5.51c-.714.26-1.428.56-2.138.897l-4.783-2.87a1.758 1.758 0 00-2.147.265L8.14 15.598c-.57.57-.68 1.456-.264 2.148l2.87 4.783c-.338.71-.638 1.424-.898 2.138l-5.51 1.352A1.758 1.758 0 003 27.727v10.546c0 .81.553 1.515 1.339 1.708l5.51 1.352c.26.714.56 1.428.897 2.138l-2.87 4.783a1.758 1.758 0 00.265 2.148l7.458 7.457c.57.57 1.455.68 2.147.265l4.783-2.87c.71.337 1.424.637 2.138.898l1.352 5.51A1.764 1.764 0 0027.727 63h10.546c.805 0 1.514-.554 1.707-1.339l1.353-5.51a24.66 24.66 0 002.138-.897l4.783 2.87a1.758 1.758 0 002.147-.265l7.458-7.458c.57-.57.68-1.455.264-2.147l-2.87-4.783c.338-.71.638-1.424.898-2.138l5.51-1.352A1.758 1.758 0 0063 38.273V27.727c0-.81-.553-1.515-1.339-1.708zm-34.91 8.443l5.274 3.515c.59.394 1.36.394 1.95 0l5.274-3.515c.489-.326.782-.875.782-1.463V22.9c3.27 2.268 5.274 6 5.274 10.1 0 6.785-5.52 12.305-12.305 12.305S20.695 39.785 20.695 33c0-4.1 2.004-7.832 5.274-10.1V33c0 .588.293 1.137.783 1.463zM33 48.82a15.81 15.81 0 003.516-.394v11.058h-7.032V48.426A15.81 15.81 0 0033 48.82zm26.484-11.925l-5.105 1.253a1.758 1.758 0 00-1.258 1.179 21.047 21.047 0 01-1.428 3.407 1.757 1.757 0 00.05 1.72l2.66 4.432-5.517 5.517-4.432-2.66a1.758 1.758 0 00-1.72-.05 21.49 21.49 0 01-2.703 1.19v-5.714c5.205-2.593 8.79-7.97 8.79-14.17a15.72 15.72 0 00-2.773-8.938 15.839 15.839 0 00-7.113-5.726 1.758 1.758 0 00-2.42 1.628V32.06L33 34.403l-3.515-2.344V19.964a1.758 1.758 0 00-2.42-1.63 15.838 15.838 0 00-7.112 5.727A15.718 15.718 0 0017.18 33c0 6.199 3.584 11.576 8.789 14.169v5.714c-.9-.323-1.807-.721-2.703-1.19a1.758 1.758 0 00-1.72.05l-4.432 2.66-5.517-5.517 2.66-4.433a1.758 1.758 0 00.05-1.719 21.039 21.039 0 01-1.428-3.407 1.758 1.758 0 00-1.258-1.179l-5.105-1.253v-7.79l5.105-1.253a1.758 1.758 0 001.258-1.179c.356-1.13.837-2.277 1.428-3.407a1.757 1.757 0 00-.05-1.72l-2.66-4.432 5.517-5.517 4.432 2.66a1.758 1.758 0 001.72.05 21.047 21.047 0 013.407-1.428 1.758 1.758 0 001.179-1.258l1.253-5.105h7.79l1.253 5.105a1.758 1.758 0 001.179 1.258c1.13.356 2.277.837 3.407 1.428a1.758 1.758 0 001.72-.05l4.432-2.66 5.517 5.517-2.66 4.433a1.758 1.758 0 00-.05 1.719 21.039 21.039 0 011.428 3.407 1.758 1.758 0 001.258 1.179l5.105 1.253v7.79z" fill="#26CF41"/></svg><svg viewBox="-3 0 512 512" id="guarantee" xmlns="http://www.w3.org/2000/svg"><path d="M425.328 319.285c21.395-32.492 33.867-71.355 33.867-113.086C459.195 92.5 366.691 0 252.992 0S46.793 92.5 46.793 206.2c0 41.73 12.473 80.593 33.863 113.085L0 436.915l92.293-17.208L109.503 512l76.063-110.934c21.141 7.336 43.825 11.332 67.426 11.332 23.606 0 46.29-3.996 67.426-11.332L396.484 512l17.207-92.293 92.293 17.207zM125.813 434.852l-9.387-50.344-50.34 9.39 33.969-49.543a207.545 207.545 0 0057.312 44.485zM76.969 206.199c0-97.058 78.965-176.023 176.023-176.023 97.063 0 176.028 78.965 176.028 176.023 0 97.063-78.965 176.028-176.028 176.028-97.058 0-176.023-78.965-176.023-176.028zm312.59 178.309l-9.387 50.344-31.55-46.012a207.545 207.545 0 0057.312-44.485l33.968 49.54zm0 0"/><path d="M216.234 251.484l-49.062-49.058-21.336 21.336 70.398 70.398 143.918-143.914-21.336-21.336zm0 0"/></svg><svg fill="none" viewBox="0 0 65 65" id="health-report" xmlns="http://www.w3.org/2000/svg"><path d="M34.531 19.297H46.72v2.031H34.53v-2.031zM34.531 23.36H46.72v2.03H34.53v-2.03zM24.375 34.531a2.031 2.031 0 00-2.031-2.031h-2.032a2.031 2.031 0 00-2.03 2.031v2.032a2.031 2.031 0 002.03 2.03h2.032a2.032 2.032 0 002.031-2.03V34.53zm-4.063 2.032V34.53h2.032v2.032h-2.032zM24.375 42.656a2.031 2.031 0 00-2.031-2.031h-2.032a2.031 2.031 0 00-2.03 2.031v2.032a2.031 2.031 0 002.03 2.03h2.032a2.032 2.032 0 002.031-2.03v-2.032zm-4.063 2.032v-2.032h2.032v2.032h-2.032zM22.344 48.75h-2.032a2.031 2.031 0 00-2.03 2.031v2.032a2.031 2.031 0 002.03 2.03h2.032a2.032 2.032 0 002.031-2.03V50.78a2.031 2.031 0 00-2.031-2.031zm-2.032 4.063V50.78h2.032v2.032h-2.032zM26.406 34.531h14.219v2.032H26.406V34.53zM26.406 42.656h14.219v2.032H26.406v-2.032zM26.406 50.781h12.188v2.032H26.406V50.78zM16.25 20.313v4.062h2.031v-1.016h1.117c.131.636.384 1.24.744 1.78l-.795.796-.718-.72-1.437 1.437 2.873 2.873L21.5 28.09l-.718-.718.795-.795c.54.36 1.145.613 1.781.744v1.117h-1.015v2.032h4.062v-2.032h-1.015V27.32a5.038 5.038 0 001.78-.743l.795.795-.718.718 1.436 1.436 2.872-2.873-1.436-1.436-.718.719-.795-.795c.36-.54.613-1.145.745-1.782h1.117v1.016H32.5v-4.063h-2.031v1.016h-1.117a5.048 5.048 0 00-.744-1.78l.795-.795.718.719 1.437-1.437-2.873-2.873-1.436 1.436.718.718-.795.796a5.039 5.039 0 00-1.781-.745V16.25h1.015v-2.031h-4.062v2.031h1.015v1.117c-.635.131-1.24.383-1.78.744l-.795-.796.718-.718-1.436-1.436-2.872 2.874 1.436 1.436.718-.72.795.796a5.047 5.047 0 00-.745 1.781h-1.117v-1.015H16.25zm8.125-1.016a3.047 3.047 0 110 6.094 3.047 3.047 0 010-6.094z" fill="#26CF41"/><path d="M52.813 4.063H41.457a3.057 3.057 0 00-2.864-2.032H26.406a3.056 3.056 0 00-3.047 3.047v3.047h-9.14a2.037 2.037 0 00-2.031 2.031v19.297h2.03V10.156h9.141a2.037 2.037 0 002.032 2.031h14.218a2.037 2.037 0 002.032-2.03h7.109V48.75h-6.094a2.037 2.037 0 00-2.031 2.031v6.094H14.219v-25.39h-2.031v25.39a2.037 2.037 0 002.03 2.031h27.423c.269-.002.527-.107.72-.294l8.126-8.125c.187-.194.292-.452.294-.721v-39.61a2.037 2.037 0 00-2.031-2.031h-7.11V6.094h11.172v54.843H10.157V6.094h11.172V4.062H10.156a2.037 2.037 0 00-2.031 2.032v54.843a2.037 2.037 0 002.031 2.032h42.657a2.038 2.038 0 002.03-2.032V6.094a2.038 2.038 0 00-2.03-2.032zm-13.204 6.093H25.391V5.078a1.016 1.016 0 011.015-1.016h12.188a1.016 1.016 0 011.015 1.016v5.078zm3.047 45.287v-4.662h4.662l-4.662 4.662z" fill="#26CF41"/><path d="M42.656 34.531h2.032v2.032h-2.032V34.53zM42.656 42.656h2.032v2.032h-2.032v-2.032z" fill="#26CF41"/></svg><svg fill="none" viewBox="0 0 230 76" id="logo" xmlns="http://www.w3.org/2000/svg"><g filter="url(#ifilter0_d)"><path d="M71.929 30.509h10.264v3.883H67.095V10.93h4.834v19.578zm22.848 3.883c-.215-.42-.37-.94-.467-1.563-1.128 1.257-2.594 1.885-4.399 1.885-1.708 0-3.126-.494-4.254-1.482-1.117-.989-1.676-2.235-1.676-3.739 0-1.847.683-3.265 2.047-4.254 1.375-.988 3.357-1.487 5.946-1.498h2.143v-1c0-.805-.21-1.45-.629-1.933-.408-.483-1.058-.725-1.95-.725-.784 0-1.401.188-1.852.564-.44.376-.661.892-.661 1.547h-4.657c0-1.01.312-1.944.935-2.804.623-.86 1.504-1.53 2.642-2.014 1.139-.494 2.417-.741 3.835-.741 2.149 0 3.851.542 5.108 1.627 1.268 1.075 1.902 2.59 1.902 4.544v7.557c.01 1.655.241 2.906.692 3.755v.274h-4.705zm-3.85-3.239c.687 0 1.32-.15 1.9-.451.58-.312 1.01-.725 1.29-1.24v-2.998h-1.74c-2.332 0-3.572.806-3.723 2.417l-.016.274c0 .58.204 1.058.612 1.434.409.376.967.564 1.676.564zm27.134-5.317c0 2.685-.612 4.839-1.837 6.461-1.214 1.611-2.857 2.417-4.931 2.417-1.761 0-3.185-.612-4.27-1.837v8.218h-4.656V16.957h4.318l.161 1.708c1.128-1.353 2.6-2.03 4.415-2.03 2.149 0 3.819.795 5.011 2.385 1.193 1.59 1.789 3.781 1.789 6.574v.242zm-4.657-.339c0-1.622-.29-2.873-.87-3.754-.569-.881-1.402-1.321-2.497-1.321-1.461 0-2.466.558-3.014 1.675v7.138c.57 1.15 1.585 1.725 3.046 1.725 2.223 0 3.335-1.821 3.335-5.463zm13.133-12.826v4.286h2.981v3.416h-2.981v8.701c0 .645.123 1.107.37 1.386.247.28.72.42 1.418.42.516 0 .972-.038 1.37-.114v3.53a9.586 9.586 0 01-2.82.418c-3.266 0-4.931-1.649-4.995-4.947v-9.394h-2.546v-3.416h2.546v-4.286h4.657zm4.366 12.842c0-1.73.333-3.27.999-4.624.666-1.354 1.622-2.401 2.869-3.142 1.256-.741 2.712-1.112 4.366-1.112 2.353 0 4.27.72 5.753 2.16 1.493 1.439 2.325 3.394 2.497 5.864l.032 1.193c0 2.675-.746 4.823-2.239 6.445-1.493 1.611-3.497 2.417-6.011 2.417-2.513 0-4.522-.806-6.026-2.417-1.493-1.611-2.24-3.803-2.24-6.574v-.21zm4.657.339c0 1.654.312 2.922.935 3.802.623.87 1.514 1.306 2.674 1.306 1.128 0 2.009-.43 2.643-1.29.634-.87.951-2.255.951-4.157 0-1.622-.317-2.879-.951-3.77-.634-.892-1.525-1.337-2.675-1.337-1.138 0-2.019.445-2.642 1.337-.623.88-.935 2.25-.935 4.109zm30.422-.016c0 2.685-.612 4.839-1.837 6.461-1.214 1.611-2.857 2.417-4.931 2.417-1.761 0-3.185-.612-4.27-1.837v8.218h-4.656V16.957h4.318l.161 1.708c1.128-1.353 2.6-2.03 4.415-2.03 2.149 0 3.819.795 5.011 2.385 1.193 1.59 1.789 3.781 1.789 6.574v.242zm-4.657-.339c0-1.622-.29-2.873-.87-3.754-.569-.881-1.402-1.321-2.497-1.321-1.461 0-2.466.558-3.014 1.675v7.138c.57 1.15 1.585 1.725 3.046 1.725 2.223 0 3.335-1.821 3.335-5.463z" fill="#fff"/><path d="M191.521 24.804h-9.281v9.588h-4.834V10.93h15.276v3.915H182.24v6.059h9.281v3.9zm8.573 9.588h-4.673V16.957h4.673v17.435zm-4.947-21.947c0-.698.231-1.273.693-1.724.472-.45 1.112-.676 1.917-.676.795 0 1.429.225 1.902.676.472.451.709 1.026.709 1.724 0 .71-.242 1.29-.725 1.74-.473.452-1.101.678-1.886.678-.784 0-1.418-.226-1.901-.677-.473-.451-.709-1.031-.709-1.74zm15.436 9.717l2.933-5.205h4.979l-4.963 8.54 5.173 8.895h-4.996l-3.109-5.479-3.094 5.479h-5.011l5.172-8.895-4.947-8.54h4.995l2.868 5.205z" fill="#26CF41"/></g><path d="M12.226 36.85V12.98c0-1.07.866-1.936 1.935-1.936H43.84c1.069 0 1.935.867 1.935 1.936v23.87" fill="#6F6571"/><path d="M43.839 34.27h-1.29l-.763-.717H16.422l-.97.717h-1.29a.645.645 0 01-.646-.645V12.98c0-.357.289-.645.645-.645H43.84c.356 0 .645.288.645.645v20.645a.645.645 0 01-.645.645z" fill="#C3DDFF"/><path d="M41.903 32.98H16.097a1.29 1.29 0 01-1.29-1.29V14.914c0-.712.577-1.29 1.29-1.29h25.806c.713 0 1.29.578 1.29 1.29V31.69a1.29 1.29 0 01-1.29 1.29z" fill="#DBEAFF"/><path d="M23.73 15.903l-2.006 2.34c-.3.35-.466.797-.466 1.26v.767c0 .492.529.803.959.564l2.78-1.544-1.267-3.387z" fill="#F90"/><path d="M24.996 19.29l2.069-1.149-1.936-3.87-1.4 1.632a16.649 16.649 0 001.267 3.387z" fill="#DA8B14"/><path d="M32.871 14.27l3.405 3.973c.3.35.466.797.466 1.26v.767a.645.645 0 01-.959.564l-4.848-2.693 1.936-3.871z" fill="#F90"/><path d="M9.645 36.206v1.409H47.71l1.29-.764v-.645a.645.645 0 00-.645-.646H10.29a.645.645 0 00-.645.645z" fill="#DAD8DB"/><path d="M32.413 5.883L26.78 4.89a15.615 15.615 0 00-1.54 6.8c0 3.114.902 5.997 2.432 8.386l4.152-1.29a15.574 15.574 0 001.692-7.097c0-2.061-.393-4.023-1.103-5.806z" fill="#26CF41"/><path d="M28.614 18.786c-.52 0-.982-.316-1.192-.792a15.57 15.57 0 01-1.325-6.305c0-2.064.397-4.024 1.111-5.806l-.395-.397-1.226.397a15.677 15.677 0 00-1.103 5.806c0 3.115.902 5.998 2.432 8.387l1.967.794 2.201-.794c.265-.414.514-.848.74-1.29h-3.21z" fill="#21B038"/><path d="M30.8 22.657h-3.6a.645.645 0 01-.633-.767l.349-1.814h4.168l.35 1.814a.645.645 0 01-.634.767z" fill="#C8C5C9"/><path d="M30.719 11.027c0 .785-.25 1.478-.922 1.782a1.935 1.935 0 01-2.562-2.558c.302-.674.979-.93 1.765-.93 1.069 0 1.719.637 1.719 1.706z" fill="#C3DDFF"/><path d="M10.29 35.56h-.645a.645.645 0 00-.645.645v.646c0 .712.578 1.29 1.29 1.29h37.42a1.29 1.29 0 001.29-1.29H11.58a1.29 1.29 0 01-1.29-1.29z" fill="#C8C5C9"/><path d="M38.032 29.754a4.5 4.5 0 00-1.476.252 3.215 3.215 0 00-3.04-2.188c-.79 0-1.503.295-2.064.766a2.55 2.55 0 00.129-.765 2.58 2.58 0 10-5.162 0c0 .268.053.522.13.765a3.197 3.197 0 00-2.065-.765 3.215 3.215 0 00-3.04 2.187 4.5 4.5 0 00-1.476-.252 4.516 4.516 0 00-4.516 4.516h27.097a4.516 4.516 0 00-4.517-4.516z" fill="#fff"/><path d="M29.816 1.594s-2.476.865-2.608 4.289h5.205a15.132 15.132 0 00-2.597-4.29z" fill="#F90"/><path d="M29.817 1.594a14.707 14.707 0 00-.352-.393.639.639 0 00-.93 0 15.101 15.101 0 00-2.948 4.682h1.621a15.336 15.336 0 012.609-4.29z" fill="#DA8B14"/><path d="M29 9.109c-.785 0-1.462.47-1.766 1.142a1.935 1.935 0 012.562 2.558 1.935 1.935 0 00-.796-3.7z" fill="#A4CCFF"/><g filter="url(#ifilter1_d)"><path d="M13.395 56.548h-1.622v4.844h-1.181V50.825h1.181v4.688h1.602l3.877-4.688h1.475l-4.336 5.127 4.814 5.44h-1.543l-4.267-4.844zm6.64-.596c0-1.015.195-1.93.586-2.744.397-.814.954-1.445 1.67-1.894.723-.456 1.54-.684 2.451-.684 1.406 0 2.546.495 3.418 1.484.873.983 1.309 2.289 1.309 3.917v.244c0 1.022-.199 1.943-.596 2.763-.39.814-.944 1.442-1.66 1.885-.716.443-1.533.664-2.451.664-1.4 0-2.54-.491-3.418-1.475-.873-.99-1.309-2.298-1.309-3.925v-.235zm1.172.323c0 1.263.326 2.301.977 3.115.657.807 1.517 1.21 2.578 1.21 1.054 0 1.907-.403 2.558-1.21.658-.814.987-1.885.987-3.213v-.225c0-.807-.15-1.546-.45-2.216-.3-.671-.719-1.189-1.26-1.553-.54-.371-1.158-.557-1.855-.557-1.041 0-1.891.41-2.549 1.23-.657.814-.986 1.882-.986 3.204v.215zM37.74 59.81l4.2-8.985h1.445v10.567h-1.172V52.72l-4.063 8.672h-.83l-4.14-8.867v8.867h-1.162V50.825h1.533l4.19 8.985zm16.895 1.582h-1.172v-9.56h-5.694v9.56h-1.171V50.825h8.037v10.567zm4.424-6.729h3.047c.78 0 1.464.144 2.05.43.593.28 1.039.67 1.338 1.172.306.501.46 1.084.46 1.748 0 1.022-.352 1.842-1.056 2.46-.696.613-1.64.919-2.832.919h-4.17V50.825h1.163v3.838zm0 .996v4.747h3.027c.84 0 1.497-.212 1.973-.635.481-.424.722-1.003.722-1.739 0-.703-.234-1.27-.703-1.699-.462-.436-1.097-.66-1.904-.674h-3.115zm10.703-.02h3.017c.033-.963.254-1.829.664-2.597.41-.775.967-1.37 1.67-1.787.703-.417 1.491-.625 2.364-.625 1.4 0 2.535.495 3.408 1.484.879.99 1.318 2.299 1.318 3.926v.235c0 1.015-.198 1.933-.596 2.754-.397.82-.953 1.451-1.67 1.894-.716.443-1.53.664-2.44.664-1.349 0-2.455-.456-3.321-1.367-.866-.918-1.332-2.113-1.397-3.584h-3.017v4.756H68.6V50.825h1.162v4.815zm4.17.636c0 1.263.325 2.301.976 3.115.658.807 1.52 1.21 2.588 1.21 1.048 0 1.898-.403 2.549-1.21.657-.814.986-1.885.986-3.213v-.225c0-1.25-.329-2.282-.986-3.095-.658-.82-1.514-1.23-2.568-1.23-1.049 0-1.901.41-2.559 1.23-.658.813-.986 1.881-.986 3.203v.215zm18.398-4.453h-3.848v9.57h-1.171v-9.57h-3.702v-.997h8.721v.996zm5.234 9.765a4.612 4.612 0 01-2.441-.664 4.543 4.543 0 01-1.69-1.846c-.403-.794-.605-1.683-.605-2.666v-.42c0-1.015.195-1.93.586-2.744.397-.813.947-1.452 1.65-1.914a4.039 4.039 0 012.286-.703c1.282 0 2.298.44 3.046 1.318.756.873 1.133 2.068 1.133 3.584v.655H93.99v.224c0 1.198.342 2.198 1.026 2.998.69.795 1.556 1.192 2.597 1.192.625 0 1.175-.114 1.65-.342.482-.228.919-.593 1.309-1.094l.733.557c-.86 1.243-2.106 1.865-3.74 1.865zm-.214-9.96c-.88 0-1.621.321-2.227.966-.599.644-.964 1.51-1.094 2.598h6.338v-.127c-.032-1.016-.322-1.843-.869-2.48-.547-.639-1.263-.958-2.148-.958zm14.951 4.589c0 1.647-.365 2.956-1.094 3.926-.729.963-1.706 1.445-2.93 1.445-1.445 0-2.552-.508-3.32-1.523v5.39h-1.162V50.825h1.084l.059 1.494c.761-1.126 1.865-1.689 3.31-1.689 1.263 0 2.253.479 2.969 1.436.722.957 1.084 2.285 1.084 3.984v.166zm-1.172-.205c0-1.348-.277-2.412-.83-3.193-.554-.782-1.325-1.172-2.315-1.172-.716 0-1.331.172-1.845.517-.515.345-.909.847-1.182 1.504v5.069c.28.605.68 1.067 1.201 1.386.521.32 1.136.479 1.846.479.983 0 1.748-.39 2.295-1.172.553-.788.83-1.927.83-3.418zm11.885 5.38h-1.172v-4.843h-5.694v4.844h-1.171V50.825h1.171v4.737h5.694v-4.737h1.172v10.567zm4.424-6.728h3.046c.782 0 1.465.144 2.051.43.593.28 1.039.67 1.338 1.172.306.501.459 1.084.459 1.748 0 1.022-.352 1.842-1.055 2.46-.696.613-1.64.919-2.832.919h-4.17V50.825h1.163v3.838zm0 .996v4.747h3.027c.84 0 1.497-.212 1.973-.635.481-.424.722-1.003.722-1.739 0-.703-.234-1.27-.703-1.699-.462-.436-1.097-.66-1.904-.674h-3.115zm10.478 5.733h-1.172V50.825h1.172v10.567zm10.195-10.567h1.172v10.567h-1.172V52.71l-5.703 8.682h-1.162V50.825h1.162v8.692l5.703-8.692zm-.058-3.808c0 .748-.257 1.354-.772 1.816-.508.462-1.191.694-2.051.694-.846 0-1.529-.228-2.05-.684-.515-.462-.772-1.071-.772-1.826h.996c0 .54.16.954.479 1.24.325.287.775.43 1.347.43.573 0 1.019-.15 1.338-.45.326-.299.489-.706.489-1.22h.996zM161.188 60.6c.813 0 1.494-.228 2.041-.684a2.435 2.435 0 00.898-1.787h1.123a3.338 3.338 0 01-.605 1.768c-.372.527-.866.94-1.485 1.24-.612.3-1.269.45-1.972.45-1.387 0-2.487-.483-3.301-1.446-.808-.964-1.211-2.26-1.211-3.887v-.352c0-1.041.182-1.962.547-2.763.364-.8.885-1.42 1.562-1.856.684-.436 1.481-.654 2.393-.654 1.159 0 2.112.345 2.861 1.035.755.69 1.159 1.599 1.211 2.725h-1.123c-.052-.827-.352-1.494-.898-2.002-.541-.508-1.224-.762-2.051-.762-1.055 0-1.875.381-2.461 1.143-.58.762-.869 1.83-.869 3.203v.342c0 1.347.289 2.399.869 3.154.586.755 1.409 1.133 2.471 1.133zm10.498.986a4.612 4.612 0 01-2.442-.664 4.536 4.536 0 01-1.689-1.846c-.404-.794-.606-1.683-.606-2.666v-.42c0-1.015.196-1.93.586-2.744.397-.813.947-1.452 1.651-1.914a4.037 4.037 0 012.285-.703c1.282 0 2.298.44 3.047 1.318.755.873 1.132 2.068 1.132 3.584v.655h-7.539v.224c0 1.198.342 2.198 1.026 2.998.69.795 1.556 1.192 2.597 1.192.625 0 1.176-.114 1.651-.342.482-.228.918-.593 1.308-1.094l.733.557c-.86 1.243-2.106 1.865-3.74 1.865zm-.215-9.96c-.879 0-1.621.321-2.227.966-.599.644-.963 1.51-1.094 2.598h6.338v-.127c-.032-1.016-.322-1.843-.869-2.48-.547-.639-1.263-.958-2.148-.958zm14.951 4.589c0 1.647-.365 2.956-1.094 3.926-.729.963-1.706 1.445-2.93 1.445-1.445 0-2.552-.508-3.32-1.523v5.39h-1.162V50.825H179l.059 1.494c.761-1.126 1.865-1.689 3.31-1.689 1.263 0 2.253.479 2.969 1.436.723.957 1.084 2.285 1.084 3.984v.166zm-1.172-.205c0-1.348-.277-2.412-.83-3.193-.553-.782-1.325-1.172-2.315-1.172-.716 0-1.331.172-1.845.517-.515.345-.908.847-1.182 1.504v5.069c.28.605.68 1.067 1.201 1.386.521.32 1.136.479 1.846.479.983 0 1.748-.39 2.295-1.172.553-.788.83-1.927.83-3.418zm3.896 5.38V50.826h3.877c1.342 0 2.37.241 3.086.723.717.475 1.075 1.175 1.075 2.1 0 .527-.16.999-.479 1.416-.319.41-.784.71-1.396.898.69.13 1.243.426 1.66.889.423.462.635 1 .635 1.611 0 .931-.346 1.654-1.036 2.168-.683.508-1.653.762-2.91.762h-4.512zm1.163-4.862v3.886h3.388c.879 0 1.556-.169 2.032-.508.475-.338.712-.826.712-1.464 0-.586-.237-1.052-.712-1.397-.476-.345-1.153-.517-2.032-.517h-3.388zm0-.977h2.959c1.836-.026 2.753-.651 2.753-1.875 0-.645-.253-1.113-.761-1.406-.502-.3-1.247-.45-2.237-.45h-2.714v3.73zm16.845-4.727h1.172v10.567h-1.172V52.71l-5.703 8.682h-1.162V50.825h1.162v8.692l5.703-8.692zm8.213 9.776c.814 0 1.494-.228 2.041-.684a2.433 2.433 0 00.899-1.787h1.123a3.339 3.339 0 01-.606 1.768c-.371.527-.866.94-1.484 1.24-.612.3-1.27.45-1.973.45-1.387 0-2.487-.483-3.301-1.446-.807-.964-1.211-2.26-1.211-3.887v-.352c0-1.041.183-1.962.547-2.763.365-.8.886-1.42 1.563-1.856.683-.436 1.481-.654 2.392-.654 1.159 0 2.113.345 2.862 1.035.755.69 1.159 1.599 1.211 2.725h-1.123c-.052-.827-.352-1.494-.899-2.002-.54-.508-1.224-.762-2.051-.762-1.054 0-1.875.381-2.461 1.143-.579.762-.869 1.83-.869 3.203v.342c0 1.347.29 2.399.869 3.154.586.755 1.41 1.133 2.471 1.133z" fill="#fff"/></g><defs><filter id="ifilter0_d" x="57.095" y=".045" width="171.61" height="51.05" filterUnits="userSpaceOnUse" color-interpolation-filters="sRGB"><feFlood flood-opacity="0" result="BackgroundImageFix"/><feColorMatrix in="SourceAlpha" values="0 0 0 0 0 0 0 0 0 0 0 0 0 0 0 0 0 0 127 0"/><feOffset/><feGaussianBlur stdDeviation="5"/><feColorMatrix values="0 0 0 0 0 0 0 0 0 0 0 0 0 0 0 0 0 0 0.15 0"/><feBlend in2="BackgroundImageFix" result="effect1_dropShadow"/><feBlend in="SourceGraphic" in2="effect1_dropShadow" result="shape"/></filter><filter id="ifilter1_d" x=".592" y="37.017" width="228.838" height="38.438" filterUnits="userSpaceOnUse" color-interpolation-filters="sRGB"><feFlood flood-opacity="0" result="BackgroundImageFix"/><feColorMatrix in="SourceAlpha" values="0 0 0 0 0 0 0 0 0 0 0 0 0 0 0 0 0 0 127 0"/><feOffset/><feGaussianBlur stdDeviation="5"/><feColorMatrix values="0 0 0 0 0 0 0 0 0 0 0 0 0 0 0 0 0 0 0.15 0"/><feBlend in2="BackgroundImageFix" result="effect1_dropShadow"/><feBlend in="SourceGraphic" in2="effect1_dropShadow" result="shape"/></filter></defs></svg><svg fill="none" viewBox="0 0 149 149" id="map-placeholder" xmlns="http://www.w3.org/2000/svg"><path d="M74.5 0C43.685 0 18.625 25.06 18.625 55.875c0 38.73 50.436 89.614 52.578 91.765a4.674 4.674 0 006.594 0c2.142-2.151 52.578-53.034 52.578-91.765C130.375 25.06 105.315 0 74.5 0z" fill="#26CF41"/><path d="M74.5 83.813c15.43 0 27.938-12.508 27.938-27.938S89.93 27.937 74.5 27.937 46.562 40.447 46.562 55.876c0 15.43 12.509 27.938 27.938 27.938z" fill="#FAFAFA"/></svg><svg viewBox="0 0 504 504" id="mastercard" xmlns="http://www.w3.org/2000/svg"><path d="M504 252c0 83.2-67.2 151.2-151.2 151.2-83.2 0-151.2-68-151.2-151.2 0-83.2 67.2-151.2 150.4-151.2 84.8 0 152 68 152 151.2z" fill="#ffb600"/><path d="M352.8 100.8c83.2 0 151.2 68 151.2 151.2 0 83.2-67.2 151.2-151.2 151.2-83.2 0-151.2-68-151.2-151.2" fill="#f7981d"/><path d="M352.8 100.8c83.2 0 151.2 68 151.2 151.2 0 83.2-67.2 151.2-151.2 151.2" fill="#ff8500"/><path d="M149.6 100.8C67.2 101.6 0 168.8 0 252s67.2 151.2 151.2 151.2c39.2 0 74.4-15.2 101.6-39.2 5.6-4.8 10.4-10.4 15.2-16h-31.2c-4-4.8-8-10.4-11.2-15.2h53.6c3.2-4.8 6.4-10.4 8.8-16h-71.2c-2.4-4.8-4.8-10.4-6.4-16h83.2c4.8-15.2 8-31.2 8-48 0-11.2-1.6-21.6-3.2-32h-92.8c.8-5.6 2.4-10.4 4-16h83.2c-1.6-5.6-4-11.2-6.4-16H216c2.4-5.6 5.6-10.4 8.8-16h53.6c-3.2-5.6-7.2-11.2-12-16h-29.6c4.8-5.6 9.6-10.4 15.2-15.2-26.4-24.8-62.4-39.2-101.6-39.2 0-1.6 0-1.6-.8-1.6z" fill="#ff5050"/><path d="M0 252c0 83.2 67.2 151.2 151.2 151.2 39.2 0 74.4-15.2 101.6-39.2 5.6-4.8 10.4-10.4 15.2-16h-31.2c-4-4.8-8-10.4-11.2-15.2h53.6c3.2-4.8 6.4-10.4 8.8-16h-71.2c-2.4-4.8-4.8-10.4-6.4-16h83.2c4.8-15.2 8-31.2 8-48 0-11.2-1.6-21.6-3.2-32h-92.8c.8-5.6 2.4-10.4 4-16h83.2c-1.6-5.6-4-11.2-6.4-16H216c2.4-5.6 5.6-10.4 8.8-16h53.6c-3.2-5.6-7.2-11.2-12-16h-29.6c4.8-5.6 9.6-10.4 15.2-15.2-26.4-24.8-62.4-39.2-101.6-39.2h-.8" fill="#e52836"/><path d="M151.2 403.2c39.2 0 74.4-15.2 101.6-39.2 5.6-4.8 10.4-10.4 15.2-16h-31.2c-4-4.8-8-10.4-11.2-15.2h53.6c3.2-4.8 6.4-10.4 8.8-16h-71.2c-2.4-4.8-4.8-10.4-6.4-16h83.2c4.8-15.2 8-31.2 8-48 0-11.2-1.6-21.6-3.2-32h-92.8c.8-5.6 2.4-10.4 4-16h83.2c-1.6-5.6-4-11.2-6.4-16H216c2.4-5.6 5.6-10.4 8.8-16h53.6c-3.2-5.6-7.2-11.2-12-16h-29.6c4.8-5.6 9.6-10.4 15.2-15.2-26.4-24.8-62.4-39.2-101.6-39.2h-.8" fill="#cb2026"/><g fill="#fff"><path d="M204.8 290.4l2.4-13.6c-.8 0-2.4.8-4 .8-5.6 0-6.4-3.2-5.6-4.8l4.8-28h8.8l2.4-15.2h-8l1.6-9.6h-16s-9.6 52.8-9.6 59.2c0 9.6 5.6 13.6 12.8 13.6 4.8 0 8.8-1.6 10.4-2.4zM210.4 264.8c0 22.4 15.2 28 28 28 12 0 16.8-2.4 16.8-2.4l3.2-15.2s-8.8 4-16.8 4c-17.6 0-14.4-12.8-14.4-12.8H260s2.4-10.4 2.4-14.4c0-10.4-5.6-23.2-23.2-23.2-16.8-1.6-28.8 16-28.8 36zm28-23.2c8.8 0 7.2 10.4 7.2 11.2H228c0-.8 1.6-11.2 10.4-11.2zM340 290.4l3.2-17.6s-8 4-13.6 4c-11.2 0-16-8.8-16-18.4 0-19.2 9.6-29.6 20.8-29.6 8 0 14.4 4.8 14.4 4.8l2.4-16.8s-9.6-4-18.4-4c-18.4 0-36.8 16-36.8 46.4 0 20 9.6 33.6 28.8 33.6 6.4 0 15.2-2.4 15.2-2.4zM116.8 227.2c-11.2 0-19.2 3.2-19.2 3.2L95.2 244s7.2-3.2 17.6-3.2c5.6 0 10.4.8 10.4 5.6 0 3.2-.8 4-.8 4h-7.2c-13.6 0-28.8 5.6-28.8 24 0 14.4 9.6 17.6 15.2 17.6 11.2 0 16-7.2 16.8-7.2l-.8 6.4H132l6.4-44c0-19.2-16-20-21.6-20zm3.2 36c0 2.4-1.6 15.2-11.2 15.2-4.8 0-6.4-4-6.4-6.4 0-4 2.4-9.6 14.4-9.6 2.4.8 3.2.8 3.2.8zM153.6 292c4 0 24 .8 24-20.8 0-20-19.2-16-19.2-24 0-4 3.2-5.6 8.8-5.6 2.4 0 11.2.8 11.2.8l2.4-14.4s-5.6-1.6-15.2-1.6c-12 0-24 4.8-24 20.8 0 18.4 20 16.8 20 24 0 4.8-5.6 5.6-9.6 5.6-7.2 0-14.4-2.4-14.4-2.4l-2.4 14.4c.8 1.6 4.8 3.2 18.4 3.2zM472.8 214.4l-3.2 21.6s-6.4-8-15.2-8c-14.4 0-27.2 17.6-27.2 38.4 0 12.8 6.4 26.4 20 26.4 9.6 0 15.2-6.4 15.2-6.4l-.8 5.6h16l12-76.8-16.8-.8zm-7.2 42.4c0 8.8-4 20-12.8 20-5.6 0-8.8-4.8-8.8-12.8 0-12.8 5.6-20.8 12.8-20.8 5.6 0 8.8 4 8.8 13.6zM29.6 291.2l9.6-57.6 1.6 57.6H52l20.8-57.6-8.8 57.6h16.8l12.8-76.8H67.2l-16 47.2-.8-47.2H27.2l-12.8 76.8h15.2zM277.6 291.2c4.8-26.4 5.6-48 16.8-44 1.6-10.4 4-14.4 5.6-18.4h-3.2c-7.2 0-12.8 9.6-12.8 9.6l1.6-8.8h-15.2L260 292h17.6v-.8zM376.8 227.2c-11.2 0-19.2 3.2-19.2 3.2l-2.4 13.6s7.2-3.2 17.6-3.2c5.6 0 10.4.8 10.4 5.6 0 3.2-.8 4-.8 4h-7.2c-13.6 0-28.8 5.6-28.8 24 0 14.4 9.6 17.6 15.2 17.6 11.2 0 16-7.2 16.8-7.2l-.8 6.4H392l6.4-44c.8-19.2-16-20-21.6-20zm4 36c0 2.4-1.6 15.2-11.2 15.2-4.8 0-6.4-4-6.4-6.4 0-4 2.4-9.6 14.4-9.6 2.4.8 2.4.8 3.2.8zM412 291.2c4.8-26.4 5.6-48 16.8-44 1.6-10.4 4-14.4 5.6-18.4h-3.2c-7.2 0-12.8 9.6-12.8 9.6l1.6-8.8h-15.2L394.4 292H412v-.8z"/></g><g fill="#dce5e5"><path d="M180 279.2c0 9.6 5.6 13.6 12.8 13.6 5.6 0 10.4-1.6 12-2.4l2.4-13.6c-.8 0-2.4.8-4 .8-5.6 0-6.4-3.2-5.6-4.8l4.8-28h8.8l2.4-15.2h-8l1.6-9.6M218.4 264.8c0 22.4 7.2 28 20 28 12 0 16.8-2.4 16.8-2.4l3.2-15.2s-8.8 4-16.8 4c-17.6 0-14.4-12.8-14.4-12.8H260s2.4-10.4 2.4-14.4c0-10.4-5.6-23.2-23.2-23.2-16.8-1.6-20.8 16-20.8 36zm20-23.2c8.8 0 10.4 10.4 10.4 11.2H228c0-.8 1.6-11.2 10.4-11.2zM340 290.4l3.2-17.6s-8 4-13.6 4c-11.2 0-16-8.8-16-18.4 0-19.2 9.6-29.6 20.8-29.6 8 0 14.4 4.8 14.4 4.8l2.4-16.8s-9.6-4-18.4-4c-18.4 0-28.8 16-28.8 46.4 0 20 1.6 33.6 20.8 33.6 6.4 0 15.2-2.4 15.2-2.4zM95.2 244.8s7.2-3.2 17.6-3.2c5.6 0 10.4.8 10.4 5.6 0 3.2-.8 4-.8 4h-7.2c-13.6 0-28.8 5.6-28.8 24 0 14.4 9.6 17.6 15.2 17.6 11.2 0 16-7.2 16.8-7.2l-.8 6.4H132l6.4-44c0-18.4-16-19.2-22.4-19.2m12 34.4c0 2.4-9.6 15.2-19.2 15.2-4.8 0-6.4-4-6.4-6.4 0-4 2.4-9.6 14.4-9.6 2.4.8 11.2.8 11.2.8zM136 290.4s4.8 1.6 18.4 1.6c4 0 24 .8 24-20.8 0-20-19.2-16-19.2-24 0-4 3.2-5.6 8.8-5.6 2.4 0 11.2.8 11.2.8l2.4-14.4s-5.6-1.6-15.2-1.6c-12 0-16 4.8-16 20.8 0 18.4 12 16.8 12 24 0 4.8-5.6 5.6-9.6 5.6M469.6 236s-6.4-8-15.2-8c-14.4 0-19.2 17.6-19.2 38.4 0 12.8-1.6 26.4 12 26.4 9.6 0 15.2-6.4 15.2-6.4l-.8 5.6h16l12-76.8m-20.8 41.6c0 8.8-7.2 20-16 20-5.6 0-8.8-4.8-8.8-12.8 0-12.8 5.6-20.8 12.8-20.8 5.6 0 12 4 12 13.6zM29.6 291.2l9.6-57.6 1.6 57.6H52l20.8-57.6-8.8 57.6h16.8l12.8-76.8h-20l-22.4 47.2-.8-47.2h-8.8l-27.2 76.8h15.2zM260.8 291.2h16.8c4.8-26.4 5.6-48 16.8-44 1.6-10.4 4-14.4 5.6-18.4h-3.2c-7.2 0-12.8 9.6-12.8 9.6l1.6-8.8M355.2 244.8s7.2-3.2 17.6-3.2c5.6 0 10.4.8 10.4 5.6 0 3.2-.8 4-.8 4h-7.2c-13.6 0-28.8 5.6-28.8 24 0 14.4 9.6 17.6 15.2 17.6 11.2 0 16-7.2 16.8-7.2l-.8 6.4H392l6.4-44c0-18.4-16-19.2-22.4-19.2m12 34.4c0 2.4-9.6 15.2-19.2 15.2-4.8 0-6.4-4-6.4-6.4 0-4 2.4-9.6 14.4-9.6 3.2.8 11.2.8 11.2.8zM395.2 291.2H412c4.8-26.4 5.6-48 16.8-44 1.6-10.4 4-14.4 5.6-18.4h-3.2c-7.2 0-12.8 9.6-12.8 9.6l1.6-8.8"/></g></svg><svg fill="none" viewBox="0 0 25 25" id="phone-call" xmlns="http://www.w3.org/2000/svg"><g clip-path="url(#lclip0)" fill="#000"><path d="M19.758 15.487c-.512-.533-1.13-.818-1.784-.818-.648 0-1.271.28-1.804.813l-1.667 1.662c-.138-.074-.275-.143-.407-.211-.19-.095-.37-.185-.522-.28-1.562-.992-2.981-2.285-4.343-3.957-.66-.834-1.102-1.536-1.424-2.248.432-.396.833-.807 1.224-1.203.148-.148.295-.3.443-.449 1.108-1.108 1.108-2.543 0-3.65l-1.44-1.441c-.164-.164-.333-.333-.491-.502a24.91 24.91 0 00-.992-.981c-.512-.507-1.124-.776-1.768-.776-.643 0-1.266.27-1.794.776l-.01.01-1.794 1.81A3.86 3.86 0 00.04 6.496c-.127 1.54.327 2.976.675 3.915.855 2.306 2.132 4.443 4.037 6.733 2.31 2.76 5.091 4.938 8.268 6.474 1.213.575 2.833 1.256 4.643 1.372.111.005.227.01.333.01 1.218 0 2.242-.438 3.044-1.308.005-.01.016-.016.021-.027.274-.332.591-.633.924-.955.226-.216.459-.443.686-.68.522-.544.796-1.177.796-1.826 0-.654-.28-1.282-.812-1.81l-2.897-2.907zm1.889 5.556c-.005 0-.005.005 0 0-.206.222-.417.422-.644.644-.343.327-.691.67-1.018 1.055-.533.57-1.161.839-1.984.839-.08 0-.164 0-.243-.005-1.567-.1-3.023-.713-4.115-1.235-2.987-1.446-5.61-3.498-7.788-6.1-1.8-2.168-3.003-4.173-3.8-6.326-.49-1.314-.67-2.338-.59-3.303.052-.617.29-1.13.728-1.567l1.799-1.8c.258-.242.533-.374.802-.374.332 0 .601.2.77.37l.016.015c.322.3.628.612.95.945.163.168.332.337.501.511l1.44 1.44c.56.56.56 1.077 0 1.637-.152.153-.3.306-.453.453A27.54 27.54 0 016.693 9.53c-.01.01-.02.016-.026.026-.454.454-.37.897-.274 1.198l.016.047c.374.908.902 1.763 1.704 2.781l.005.005c1.456 1.794 2.992 3.193 4.686 4.264.216.137.438.248.649.353.19.095.369.185.522.28.021.01.042.026.063.037.18.09.348.132.523.132.438 0 .712-.275.802-.364l1.804-1.805c.18-.18.464-.396.797-.396.327 0 .596.206.76.386l.01.01 2.908 2.907c.543.539.543 1.093.005 1.652zM13.51 5.947a6.69 6.69 0 013.641 1.889 6.726 6.726 0 011.89 3.64.708.708 0 00.701.591c.042 0 .08-.005.121-.01a.713.713 0 00.586-.823 8.139 8.139 0 00-2.285-4.406 8.138 8.138 0 00-4.405-2.285.716.716 0 00-.824.58.705.705 0 00.576.824zM24.971 11.028a13.388 13.388 0 00-3.762-7.255A13.389 13.389 0 0013.954.01a.71.71 0 00-.818.58.716.716 0 00.586.823 11.988 11.988 0 016.484 3.361 11.954 11.954 0 013.361 6.485c.058.348.36.591.702.591.043 0 .08-.005.122-.01a.699.699 0 00.58-.813z"/></g><defs><clipPath id="lclip0"><path fill="#fff" d="M0 0h25v25H0z"/></clipPath></defs></svg><svg fill="none" viewBox="0 0 25 25" id="placeholder" xmlns="http://www.w3.org/2000/svg"><path d="M12.288.769c-4.492 0-8.147 3.655-8.147 8.147 0 5.646 8.155 15.29 8.155 15.29s8.139-9.922 8.139-15.29c0-4.492-3.655-8.147-8.147-8.147zm2.458 10.532a3.466 3.466 0 01-2.458 1.017c-.89 0-1.78-.34-2.458-1.017a3.48 3.48 0 010-4.916 3.453 3.453 0 012.458-1.018c.928 0 1.801.362 2.458 1.018a3.48 3.48 0 010 4.916z" fill="#000"/></svg><svg viewBox="0 0 330.38 330.38" id="puzzle" xmlns="http://www.w3.org/2000/svg"><path d="M311.231 97.338a42.083 42.083 0 00-23.071-6.8h-.32a41.756 41.756 0 00-22.8 6.8V8.219a8 8 0 00-8-8H148.32a8 8 0 00-3.36 15.28c13.111 5.965 18.903 21.428 12.939 34.539s-21.428 18.903-34.539 12.939c-13.111-5.965-18.903-21.428-12.939-34.539a26.084 26.084 0 0112.939-12.939 8 8 0 00-3.359-15.28H8a8 8 0 00-8 8v110a8 8 0 0015.279 3.36c6.075-13.06 21.587-18.722 34.647-12.647 13.06 6.075 18.722 21.587 12.647 34.647s-21.587 18.722-34.647 12.647a26.08 26.08 0 01-12.647-12.647 8 8 0 00-15.28 3.359v110.08a8 8 0 008 8h90.96c-12.735 19.44-7.299 45.524 12.142 58.258 19.44 12.735 45.524 7.299 58.258-12.142a42.082 42.082 0 000-46.117h88a8 8 0 008-8v-89.12c19.485 12.667 45.549 7.14 58.216-12.345 12.668-19.483 7.141-45.547-12.344-58.214zm.489 46.321a26 26 0 01-23.559 14.96l-.32.08a26.16 26.16 0 01-23.52-15.12 8 8 0 00-15.28 3.36v102.08H148.32a8 8 0 00-3.36 15.28c13.111 5.965 18.903 21.428 12.939 34.539s-21.428 18.903-34.539 12.939-18.903-21.428-12.939-34.539a26.084 26.084 0 0112.939-12.939 8 8 0 00-3.359-15.28H16v-81.12c19.485 12.667 45.549 7.14 58.216-12.344s7.14-45.549-12.344-58.216a42.078 42.078 0 00-45.871 0v-81.12h82.96c-12.735 19.44-7.299 45.524 12.142 58.258 19.44 12.735 45.524 7.299 58.258-12.142a42.082 42.082 0 000-46.117h80v102a8 8 0 0015.279 3.36c6.097-13.001 21.579-18.597 34.58-12.5 13 6.098 18.597 21.58 12.5 34.581z"/></svg><svg viewBox="0 0 512 512" id="search" xmlns="http://www.w3.org/2000/svg"><path d="M202 190c5.52 0 10 4.48 10 10s-4.48 10-10 10-10-4.48-10-10 4.48-10 10-10z" data-original="#000000"/><path d="M11.719 443.719l133.48-133.48C123.454 277.485 112 239.555 112 200 112 89.72 201.72 0 312 0s200 89.72 200 200-89.72 200-200 200c-39.556 0-77.486-11.455-110.239-33.198l-36.895 36.895-.016.016-96.568 96.568C60.724 507.838 50.681 512 40 512c-10.681 0-20.724-4.162-28.278-11.716C4.163 492.731 0 482.687 0 472s4.163-20.731 11.719-28.281zm194.745-97.992l.002.002C237.333 368.149 273.825 380 312 380c99.252 0 180-80.748 180-180S411.252 20 312 20s-180 80.748-180 180c0 38.175 11.851 74.667 34.272 105.535a180.872 180.872 0 0040.192 40.192zm-20.98 9.066a200.674 200.674 0 01-28.277-28.277l-28.371 28.371a242.733 242.733 0 0028.277 28.277l28.371-28.371zM25.861 486.139C29.641 489.919 34.662 492 40 492s10.359-2.081 14.139-5.861l88.795-88.795a262.775 262.775 0 01-28.277-28.277l-88.798 88.798A19.846 19.846 0 0020 472a19.856 19.856 0 005.861 14.139z" data-original="#000000"/><path d="M312 40c88.225 0 160 71.775 160 160s-71.775 160-160 160-160-71.775-160-160S223.775 40 312 40zm0 300c77.196 0 140-62.804 140-140S389.196 60 312 60s-140 62.804-140 140 62.804 140 140 140z" data-original="#000000"/><path d="M199.935 157.073c8.611-22.412 23.604-41.574 43.36-55.413C263.521 87.49 287.279 80 312 80c5.522 0 10 4.478 10 10s-4.478 10-10 10c-41.099 0-78.631 25.818-93.396 64.247a10.003 10.003 0 01-9.337 6.416 9.978 9.978 0 01-3.584-.668c-5.155-1.981-7.729-7.766-5.748-12.922z" data-original="#000000"/></svg><svg viewBox="0 0 49 49" id="slider-arrow" xmlns="http://www.w3.org/2000/svg"><g clip-path="url(#pclip0)"><path d="M37.173 23.155L14.51.555a1.9 1.9 0 00-2.682 2.689L33.142 24.5 11.826 45.756a1.899 1.899 0 102.683 2.69l22.664-22.601a1.897 1.897 0 000-2.69z"/></g><defs><clipPath id="pclip0"><path d="M0 0h49v49H0z"/></clipPath></defs></svg><svg fill="none" viewBox="0 0 140 10" id="tail_dark" xmlns="http://www.w3.org/2000/svg"><path stroke="#A5A5A5" d="M0 4.5h60M80 4.5h60"/><rect x="65.5" y=".5" width="9" height="9" rx="4.5" stroke="#A5A5A5"/></svg><svg fill="none" viewBox="0 0 140 10" id="tail_light" xmlns="http://www.w3.org/2000/svg"><path stroke="#fff" d="M0 4.5h60M80 4.5h60"/><rect x="65.5" y=".5" width="9" height="9" rx="4.5" stroke="#fff"/></svg><svg viewBox="0 0 504 504" id="visa" xmlns="http://www.w3.org/2000/svg"><path fill="#3c58bf" d="M184.8 324.4l25.6-144h40l-24.8 144z"/><path fill="#293688" d="M184.8 324.4l32.8-144h32.8l-24.8 144z"/><path d="M370.4 182c-8-3.2-20.8-6.4-36.8-6.4-40 0-68.8 20-68.8 48.8 0 21.6 20 32.8 36 40s20.8 12 20.8 18.4c0 9.6-12.8 14.4-24 14.4-16 0-24.8-2.4-38.4-8l-5.6-2.4-5.6 32.8c9.6 4 27.2 8 45.6 8 42.4 0 70.4-20 70.4-50.4 0-16.8-10.4-29.6-34.4-40-14.4-7.2-23.2-11.2-23.2-18.4 0-6.4 7.2-12.8 23.2-12.8 13.6 0 23.2 2.4 30.4 5.6l4 1.6 6.4-31.2z" fill="#3c58bf"/><path d="M370.4 182c-8-3.2-20.8-6.4-36.8-6.4-40 0-61.6 20-61.6 48.8 0 21.6 12.8 32.8 28.8 40s20.8 12 20.8 18.4c0 9.6-12.8 14.4-24 14.4-16 0-24.8-2.4-38.4-8l-5.6-2.4-5.6 32.8c9.6 4 27.2 8 45.6 8 42.4 0 70.4-20 70.4-50.4 0-16.8-10.4-29.6-34.4-40-14.4-7.2-23.2-11.2-23.2-18.4 0-6.4 7.2-12.8 23.2-12.8 13.6 0 23.2 2.4 30.4 5.6l4 1.6 6.4-31.2z" fill="#293688"/><path d="M439.2 180.4c-9.6 0-16.8.8-20.8 10.4l-60 133.6h43.2l8-24h51.2l4.8 24H504l-33.6-144h-31.2zm-18.4 96c2.4-7.2 16-42.4 16-42.4s3.2-8.8 5.6-14.4l2.4 13.6s8 36 9.6 44h-33.6v-.8z" fill="#3c58bf"/><path d="M448.8 180.4c-9.6 0-16.8.8-20.8 10.4l-69.6 133.6h43.2l8-24h51.2l4.8 24H504l-33.6-144h-21.6zm-28 96c3.2-8 16-42.4 16-42.4s3.2-8.8 5.6-14.4l2.4 13.6s8 36 9.6 44h-33.6v-.8z" fill="#293688"/><path d="M111.2 281.2l-4-20.8c-7.2-24-30.4-50.4-56-63.2l36 128h43.2l64.8-144H152l-40.8 100z" fill="#3c58bf"/><path d="M111.2 281.2l-4-20.8c-7.2-24-30.4-50.4-56-63.2l36 128h43.2l64.8-144H160l-48.8 100z" fill="#293688"/><path d="M0 180.4l7.2 1.6c51.2 12 86.4 42.4 100 78.4l-14.4-68c-2.4-9.6-9.6-12-18.4-12H0z" fill="#ffbc00"/><path d="M0 180.4c51.2 12 93.6 43.2 107.2 79.2l-13.6-56.8c-2.4-9.6-10.4-15.2-19.2-15.2L0 180.4z" fill="#f7981d"/><path d="M0 180.4c51.2 12 93.6 43.2 107.2 79.2l-9.6-31.2c-2.4-9.6-5.6-19.2-16.8-23.2L0 180.4z" fill="#ed7c00"/><g fill="#051244"><path d="M151.2 276.4L124 249.2l-12.8 30.4-3.2-20c-7.2-24-30.4-50.4-56-63.2l36 128h43.2l20-48zM225.6 324.4l-34.4-35.2-6.4 35.2zM317.6 274.8c3.2 3.2 4.8 5.6 4 8.8 0 9.6-12.8 14.4-24 14.4-16 0-24.8-2.4-38.4-8l-5.6-2.4-5.6 32.8c9.6 4 27.2 8 45.6 8 25.6 0 46.4-7.2 58.4-20l-34.4-33.6zM364 324.4h37.6l8-24h51.2l4.8 24H504L490.4 266l-48-46.4 2.4 12.8s8 36 9.6 44h-33.6c3.2-8 16-42.4 16-42.4s3.2-8.8 5.6-14.4"/></g></svg></svg>