<svg width="86" height="91" viewBox="0 0 86 91" xmlns="http://www.w3.org/2000/svg">
<path d="M27.4008 23.9965C27.5708 23.8255 27.6628 23.5855 27.6388 23.3485C27.3348 19.2555 25.0518 5.76952 8.48481 4.07052C8.37181 4.05952 8.25781 4.03752 8.15281 4.00952C8.01781 3.97252 4.81481 3.07452 2.40681 0.498521C2.19581 0.273521 1.87781 0.183521 1.58081 0.262521C1.28181 0.342521 1.05381 0.579521 0.982813 0.880521C0.586813 2.59252 0.113809 5.31452 0.113809 8.55552C0.113809 11.7415 0.568806 14.7495 1.46581 17.4955C3.87581 24.8925 9.38781 30.1155 17.8448 33.0165C18.1498 33.1205 18.4858 33.0405 18.7098 32.8125L27.4008 23.9965Z"/>
<path d="M30.3145 42.7379L37.0935 35.8559C37.4175 35.5259 37.4135 34.9979 37.0855 34.6749L30.3685 28.0569C30.0385 27.7329 29.5115 27.7369 29.1865 28.0649L22.4055 34.9439C22.2515 35.0999 22.1655 35.3109 22.1655 35.5299C22.1455 35.8079 22.2555 35.9689 22.4135 36.1249L29.1325 42.7459C29.2905 42.9019 29.5035 42.9879 29.7265 42.9869C29.9475 42.9849 30.1585 42.8949 30.3145 42.7379Z" />
<path d="M84.2914 89.1259C85.2874 88.1129 85.8574 86.6669 85.8574 85.1569C85.8574 83.6119 85.2634 82.1389 84.2264 81.1209L41.2164 38.7459C41.0584 38.5899 40.8454 38.5039 40.6224 38.5059C40.4014 38.5069 40.1884 38.5969 40.0344 38.7549L33.2574 45.6349C33.0974 45.7979 33.0174 46.0089 33.0174 46.2219C33.0174 46.4379 33.0994 46.6539 33.2654 46.8159L76.2714 89.1849C77.3414 90.2439 78.7694 90.8209 80.2924 90.8109C81.8144 90.7979 83.2344 90.1989 84.2914 89.1259Z" />
</svg>
