<svg width="540" height="128" viewBox="0 0 540 128" xmlns="http://www.w3.org/2000/svg">
<path d="M159.176 33.38H174.08C182.483 33.38 188.616 35.1893 192.48 38.808C196.405 42.3653 198.368 47.272 198.368 53.528C198.368 60.7653 196.252 66.316 192.02 70.18C187.788 74.044 181.501 75.976 173.16 75.976H169.572V101H159.176V33.38ZM173.436 66.868C178.833 66.868 182.605 65.672 184.752 63.28C186.899 60.888 187.972 58.0053 187.972 54.632C187.972 51.0133 186.929 48.0693 184.844 45.8C182.759 43.5307 179.263 42.396 174.356 42.396H169.572V66.868H173.436ZM225.993 101.92C222.19 101.92 218.664 101.031 215.413 99.252C212.224 97.412 209.648 94.836 207.685 91.524C205.784 88.1507 204.833 84.2253 204.833 79.748C204.833 75.332 205.661 71.468 207.317 68.156C209.034 64.844 211.457 62.268 214.585 60.428C217.713 58.588 221.393 57.668 225.625 57.668C228.078 57.668 230.378 58.0973 232.525 58.956C234.672 59.8147 236.481 60.888 237.953 62.176C239.425 63.4027 240.406 64.6293 240.897 65.856L241.081 58.772H250.557V101H241.173L240.989 93.548C239.946 95.756 238.045 97.7187 235.285 99.436C232.525 101.092 229.428 101.92 225.993 101.92ZM227.649 93.64C231.145 93.64 234.089 92.444 236.481 90.052C238.873 87.5987 240.069 84.4093 240.069 80.484V79.84C240.069 77.2027 239.517 74.8413 238.413 72.756C237.309 70.6707 235.806 69.0453 233.905 67.88C232.004 66.7147 229.918 66.132 227.649 66.132C223.724 66.132 220.688 67.42 218.541 69.996C216.394 72.5107 215.321 75.792 215.321 79.84C215.321 83.9493 216.364 87.292 218.449 89.868C220.596 92.3827 223.662 93.64 227.649 93.64ZM263.643 58.772H273.579V67.052C274.56 64.2307 276.155 61.9613 278.363 60.244C280.571 58.5267 283.085 57.668 285.907 57.668C287.869 57.668 289.219 57.852 289.955 58.22L288.575 68.248C288.023 67.88 286.827 67.696 284.987 67.696C282.104 67.696 279.467 68.616 277.075 70.456C274.744 72.296 273.579 75.24 273.579 79.288V101H263.643V58.772ZM311.517 101.92C308.573 101.92 305.507 101.552 302.317 100.816C299.189 100.019 296.951 99.0987 295.601 98.056L298.913 90.236C302.593 92.812 306.795 94.1 311.517 94.1C316.24 94.1 318.601 92.72 318.601 89.96C318.601 88.7333 318.111 87.7827 317.129 87.108C316.148 86.4333 314.4 85.636 311.885 84.716L308.389 83.428C304.709 81.956 301.796 80.208 299.649 78.184C297.503 76.0987 296.429 73.3693 296.429 69.996C296.429 66.132 297.932 63.1267 300.937 60.98C304.004 58.772 308.083 57.668 313.173 57.668C315.688 57.668 318.141 57.944 320.533 58.496C322.987 59.048 324.857 59.7533 326.145 60.612L322.557 68.524C321.76 67.7267 320.472 67.052 318.693 66.5C316.976 65.8867 315.044 65.58 312.897 65.58C308.543 65.58 306.365 66.8987 306.365 69.536C306.365 71.008 306.948 72.1427 308.113 72.94C309.279 73.676 311.18 74.504 313.817 75.424C314.063 75.4853 315.013 75.8227 316.669 76.436C320.595 77.9693 323.508 79.7173 325.409 81.68C327.311 83.6427 328.261 86.1573 328.261 89.224C328.261 93.3947 326.667 96.5533 323.477 98.7C320.349 100.847 316.363 101.92 311.517 101.92ZM358.543 101.92C353.514 101.92 349.312 100.939 345.939 98.976C342.566 96.952 340.082 94.284 338.487 90.972C336.892 87.5987 336.095 83.9187 336.095 79.932C336.095 75.4547 337.015 71.5293 338.855 68.156C340.756 64.7827 343.363 62.2067 346.675 60.428C349.987 58.588 353.728 57.668 357.899 57.668C364.4 57.668 369.215 59.4773 372.343 63.096C375.532 66.6533 377.127 71.6827 377.127 78.184C377.127 79.84 377.035 81.5573 376.851 83.336H346.491C347.166 87.0773 348.484 89.776 350.447 91.432C352.471 93.088 355.262 93.916 358.819 93.916C361.763 93.916 364.186 93.6707 366.087 93.18C367.988 92.6893 369.736 92.0147 371.331 91.156L374.367 98.24C372.834 99.2213 370.748 100.08 368.111 100.816C365.474 101.552 362.284 101.92 358.543 101.92ZM367.467 76.436C367.528 72.6333 366.7 69.9653 364.983 68.432C363.266 66.8373 360.812 66.04 357.623 66.04C351.183 66.04 347.472 69.5053 346.491 76.436H367.467ZM388.372 33.38H398.216V101H388.372V33.38ZM412.897 58.772H423.201V101H412.897V58.772ZM417.957 50.86C416.056 50.86 414.461 50.216 413.173 48.928C411.885 47.64 411.241 46.0453 411.241 44.144C411.241 42.4267 411.885 40.9547 413.173 39.728C414.461 38.5013 416.056 37.888 417.957 37.888C419.797 37.888 421.361 38.5013 422.649 39.728C423.937 40.9547 424.581 42.4267 424.581 44.144C424.581 46.0453 423.937 47.64 422.649 48.928C421.422 50.216 419.858 50.86 417.957 50.86ZM455.634 101.92C451.831 101.92 448.304 101.031 445.054 99.252C441.864 97.412 439.288 94.836 437.326 91.524C435.424 88.1507 434.474 84.2253 434.474 79.748C434.474 75.332 435.302 71.468 436.958 68.156C438.675 64.844 441.098 62.268 444.226 60.428C447.354 58.588 451.034 57.668 455.266 57.668C457.719 57.668 460.019 58.0973 462.166 58.956C464.312 59.8147 466.122 60.888 467.594 62.176C469.066 63.4027 470.047 64.6293 470.538 65.856L470.722 58.772H480.198V101H470.814L470.63 93.548C469.587 95.756 467.686 97.7187 464.926 99.436C462.166 101.092 459.068 101.92 455.634 101.92ZM457.29 93.64C460.786 93.64 463.73 92.444 466.122 90.052C468.514 87.5987 469.71 84.4093 469.71 80.484V79.84C469.71 77.2027 469.158 74.8413 468.054 72.756C466.95 70.6707 465.447 69.0453 463.546 67.88C461.644 66.7147 459.559 66.132 457.29 66.132C453.364 66.132 450.328 67.42 448.182 69.996C446.035 72.5107 444.962 75.792 444.962 79.84C444.962 83.9493 446.004 87.292 448.09 89.868C450.236 92.3827 453.303 93.64 457.29 93.64ZM493.559 58.772H503.311L503.403 66.5C504.569 63.924 506.409 61.808 508.923 60.152C511.438 58.496 514.382 57.668 517.755 57.668C522.11 57.668 525.453 58.588 527.783 60.428C530.114 62.2067 531.678 64.7213 532.475 67.972C533.273 71.2227 533.671 75.4547 533.671 80.668V101H523.735V80.944C523.735 75.608 523.214 71.7747 522.171 69.444C521.129 67.052 518.982 65.856 515.731 65.856C513.891 65.856 512.021 66.4387 510.119 67.604C508.218 68.708 506.623 70.3333 505.335 72.48C504.109 74.6267 503.495 77.1413 503.495 80.024V101H493.559V58.772Z" />
<path d="M125.031 81.3481C131.015 74.0556 139.33 23.0078 97.7682 5.77092C56.2118 -11.466 36.2635 14.3894 36.5933 24.9967C22.6295 29.9662 19.6345 45.5484 19.6345 45.5484C19.6345 45.5484 -0.648946 55.4928 0.0159988 67.426C0.680944 79.3593 15.3097 80.0222 15.3097 80.0222L19.7462 86.1002L20.6293 80.0222C20.6293 80.0222 42.4874 69.9665 43.4874 78.76C44.4875 87.5428 24.2945 90.6296 24.2945 90.6296L20.1931 87.6489L21.4432 93.2124C21.4432 93.2124 16.9801 94.6126 18.9749 98.9139C22.9646 105.543 36.2635 96.5909 36.2635 96.5909C36.2635 96.5909 25.9648 135.345 55.5416 126.758C37.2529 117.477 53.8765 103.22 53.8765 103.22C53.8765 103.22 57.5364 140.346 93.7732 117.806C65.1806 120.792 71.7343 106.424 74.825 103.22C77.9103 100.017 93.7732 83.5704 93.7732 83.5704C93.7732 83.5704 102.088 95.9279 81.8042 111.081C108.402 118.15 109.732 69.7543 109.732 69.7543C109.732 69.7543 116.052 92.9579 99.4226 108.535C137.324 100.25 118.371 52.8463 118.371 52.8463C118.371 52.8463 125.361 55.1586 125.031 81.3481ZM24.9328 44.2225C24.2945 41.8199 26.1244 39.9106 28.0341 39.5818C29.9438 39.253 36.9018 41.3002 38.9179 42.3768C40.9341 43.4535 25.5712 46.6251 24.9328 44.2225Z" />
</svg>
