<svg width="22" height="17" viewBox="0 0 22 17" fill="none" xmlns="http://www.w3.org/2000/svg">
<path d="M9.90918 0.486327C10.4932 0.486327 11.0264 0.702147 11.5088 1.13379C11.9912 1.59082 12.2324 2.21289 12.2324 3C12.2324 4.44726 11.8643 5.81836 11.1279 7.11328C10.3662 8.43359 9.41406 9.65234 8.27149 10.7695C7.10352 11.8867 5.82129 12.9023 4.42481 13.8164C3.02832 14.7559 1.68262 15.5684 0.387696 16.2539L0.00683652 15.3398C1.7334 14.2988 3.12988 13.2578 4.19629 12.2168C5.2627 11.1758 6.15137 10.0332 6.86231 8.78906C6.6084 8.76367 6.36719 8.70019 6.13867 8.59863C5.88477 8.52246 5.66895 8.38281 5.49121 8.17969C5.28809 8.00195 5.13574 7.76074 5.03418 7.45605C4.90723 7.17676 4.84375 6.80859 4.84375 6.35156C4.84375 5.64062 4.9834 4.92969 5.2627 4.21875C5.54199 3.5332 5.92285 2.91113 6.40528 2.35254C6.8877 1.79394 7.4336 1.33691 8.04297 0.981444C8.65235 0.651365 9.27442 0.486326 9.90918 0.486327ZM19.2783 0.486327C19.8623 0.486327 20.3955 0.702148 20.8779 1.13379C21.3604 1.59082 21.6016 2.21289 21.6016 3C21.6016 4.44727 21.2334 5.81836 20.4971 7.11328C19.7354 8.43359 18.7832 9.65234 17.6406 10.7695C16.4727 11.8867 15.1904 12.9023 13.7939 13.8164C12.3975 14.7559 11.0518 15.5684 9.75684 16.2539L9.37598 15.3398C11.1025 14.2988 12.499 13.2578 13.5654 12.2168C14.6318 11.1758 15.5205 10.0332 16.2314 8.78906C15.9775 8.76367 15.7363 8.70019 15.5078 8.59863C15.2539 8.52246 15.0381 8.38281 14.8604 8.17969C14.6572 8.00195 14.5049 7.76074 14.4033 7.45605C14.2764 7.17676 14.2129 6.80859 14.2129 6.35156C14.2129 5.64062 14.3525 4.92969 14.6318 4.21875C14.9111 3.5332 15.292 2.91113 15.7744 2.35254C16.2568 1.79394 16.8027 1.33691 17.4121 0.981444C18.0215 0.651366 18.6436 0.486327 19.2783 0.486327Z" fill="white" fill-opacity="0.5"/>
</svg>
