<?xml version="1.0" encoding="iso-8859-1"?><svg viewBox="0 0 512 512" xmlns="http://www.w3.org/2000/svg" xmlns:xlink="http://www.w3.org/1999/xlink"><style>:root>svg{display:none}:root>svg:target{display:block}</style><svg viewBox="0 0 512 512" id="accumulator" xmlns="http://www.w3.org/2000/svg"><path d="M469.333 106.667V85.333C469.333 73.573 459.771 64 448 64h-64c-11.771 0-21.333 9.573-21.333 21.333v21.333h-6.25l-8.833-8.833c-7.938-7.948-18.938-12.5-30.167-12.5H194.583c-11.229 0-22.229 4.552-30.167 12.5l-8.833 8.833h-6.25V85.333C149.333 73.573 139.771 64 128 64H64c-11.771 0-21.333 9.573-21.333 21.333v21.333C19.146 106.667 0 125.802 0 149.333v256C0 428.865 19.146 448 42.667 448h426.667c23.52 0 42.666-19.135 42.666-42.667v-256c0-23.531-19.146-42.666-42.667-42.666z" fill="#303c42"/><path d="M490.667 405.333c0 11.76-9.563 21.333-21.333 21.333H42.667c-11.771 0-21.333-9.573-21.333-21.333v-256c0-11.76 9.563-21.333 21.333-21.333H160a10.66 10.66 0 007.542-3.125l11.958-11.958c3.979-3.969 9.479-6.25 15.083-6.25h122.833c5.604 0 11.104 2.281 15.083 6.25l11.958 11.958c2 2 4.708 3.125 7.542 3.125h117.333c11.771 0 21.333 9.573 21.333 21.333v256z" fill="#818181"/><path d="M469.333 405.333H42.667c-11.771 0-21.333-8.297-21.333-18.49v18.49c0 11.76 9.563 21.333 21.333 21.333h426.667c11.771 0 21.333-9.573 21.333-21.333v-18.49c0 10.193-9.563 18.49-21.334 18.49z" opacity=".1" fill="#010101"/><path d="M469.333 128H352a10.66 10.66 0 01-7.542-3.125L332.5 112.917c-3.979-3.969-9.479-6.25-15.083-6.25H194.583c-5.604 0-11.104 2.281-15.083 6.25l-11.958 11.958c-2 2-4.708 3.125-7.542 3.125H42.667c-11.771 0-21.333 9.573-21.333 21.333v15.645c0-10.193 9.563-18.49 21.333-18.49H160c2.833 0 5.542-.975 7.542-2.708l11.958-10.363c3.979-3.44 9.479-5.417 15.083-5.417h122.833c5.604 0 11.104 1.977 15.083 5.417l11.958 10.363c2 1.733 4.708 2.708 7.542 2.708h117.333c11.771 0 21.333 8.297 21.333 18.49v-15.645c.002-11.76-9.561-21.333-21.332-21.333z" opacity=".2" fill="#fff"/><path d="M437.333 192h-10.667v-10.667a10.66 10.66 0 00-10.667-10.667 10.66 10.66 0 00-10.667 10.667V192h-10.667c-5.896 0-10.667 4.771-10.667 10.667s4.771 10.667 10.667 10.667h10.667V224a10.66 10.66 0 0010.667 10.667A10.66 10.66 0 00426.666 224v-10.667h10.667c5.896 0 10.667-4.771 10.667-10.667S443.229 192 437.333 192z" fill="#303c42"/><path fill="#ef4438" d="M384 85.333h64v21.333h-64z"/><path opacity=".2" fill="#fff" d="M384 85.333h64V96h-64z"/><path fill="#3d82c4" d="M64 85.333h64v21.333H64z"/><path opacity=".2" fill="#fff" d="M64 85.333h64V96H64z"/><path d="M117.333 192H74.667C68.771 192 64 196.771 64 202.667s4.771 10.667 10.667 10.667h42.667c5.896 0 10.667-4.771 10.667-10.667S123.229 192 117.333 192z" fill="#303c42"/><linearGradient id="aaa" gradientUnits="userSpaceOnUse" x1="-46.754" y1="639.819" x2="-22.105" y2="628.325" gradientTransform="matrix(21.3333 0 0 -21.3333 996.333 13791.667)"><stop offset="0" stop-color="#fff" stop-opacity=".2"/><stop offset="1" stop-color="#fff" stop-opacity="0"/></linearGradient><path d="M469.333 106.667V85.333C469.333 73.573 459.771 64 448 64h-64c-11.771 0-21.333 9.573-21.333 21.333v21.333h-6.25l-8.833-8.833c-7.938-7.948-18.938-12.5-30.167-12.5H194.583c-11.229 0-22.229 4.552-30.167 12.5l-8.833 8.833h-6.25V85.333C149.333 73.573 139.771 64 128 64H64c-11.771 0-21.333 9.573-21.333 21.333v21.333C19.146 106.667 0 125.802 0 149.333v256C0 428.865 19.146 448 42.667 448h426.667c23.52 0 42.666-19.135 42.666-42.667v-256c0-23.531-19.146-42.666-42.667-42.666z" fill="url(#aaa)"/></svg><svg viewBox="0 0 512.002 512.002" id="arrow" xmlns="http://www.w3.org/2000/svg"><path d="M270.05 388.425L506.213 151.61c7.733-7.759 7.72-20.32-.04-28.067-7.76-7.74-20.328-7.72-28.067.04L256 346.302 33.896 123.574c-7.74-7.759-20.301-7.779-28.061-.04A19.8 19.8 0 000 137.591a19.79 19.79 0 005.795 14.017L241.95 388.425c3.718 3.737 8.778 5.834 14.05 5.834s10.326-2.103 14.05-5.834z" data-original="#000000"/></svg><svg viewBox="0 0 511.999 511.999" id="cash" xmlns="http://www.w3.org/2000/svg"><circle cx="255.999" cy="255.999" r="255.999" fill="#4a5370"/><path d="M439.466 434.52a256.256 256.256 0 01-10.407 10.104c-.052.052-.104.094-.157.146a245.096 245.096 0 01-12.633 10.857 252.25 252.25 0 01-18.766 13.74 122.6 122.6 0 01-1.923 1.264c-40.145 26.164-88.085 41.367-139.577 41.367-.93 0-1.87-.01-2.8-.021h-.627a244.306 244.306 0 01-14.932-.637 246.89 246.89 0 01-13.991-1.369c-1.275-.157-2.55-.324-3.814-.512a244.084 244.084 0 01-12.466-2.079c-2.466-.47-4.921-.982-7.367-1.526-.115-.021-.219-.052-.334-.073h-.01a239.126 239.126 0 01-9.885-2.435l-2.32-.627a222.816 222.816 0 01-9.132-2.727c-.972-.303-1.933-.616-2.905-.94a105.335 105.335 0 01-3.082-1.045 172.477 172.477 0 01-4.409-1.567 370.2 370.2 0 01-4.65-1.755L20.777 154.843.913 107.488l71.659-30.051L257.237 0h.01l12.706 30.292 8.861 21.138 4.723 11.254 7.147 17.053 2.017 4.817 7.21 17.178 67.741 161.551 1.735 4.138 34.199 81.544 3.365 8.014v.01l19.801 47.208 12.714 30.323z" fill="#43c970"/><path d="M416.27 455.627a252.25 252.25 0 01-18.766 13.74 122.6 122.6 0 01-1.923 1.264c-40.145 26.164-88.085 41.367-139.577 41.367-.93 0-1.87-.01-2.8-.021h-.627a244.306 244.306 0 01-14.932-.637 246.89 246.89 0 01-13.991-1.369c-1.275-.157-2.55-.324-3.814-.512a244.084 244.084 0 01-12.466-2.079c-2.466-.47-4.921-.982-7.367-1.526l-32.078-76.486L58.351 168.061a48.714 48.714 0 0011.306-6.949 47.11 47.11 0 005.653-5.517 48.626 48.626 0 0011.933-29.299c.387-7.105-.784-14.399-3.72-21.41l70.301-29.477 28.724-12.048 14.106-5.914a50.176 50.176 0 001.86 3.939 48.235 48.235 0 0012.528 15.161 48.492 48.492 0 0012.612 7.293c1.923.763 3.897 1.4 5.914 1.912 1.599.408 3.218.721 4.859.951 8.359 1.243 17.147.293 25.506-3.156.084-.031.167-.073.251-.104l.031.073 20.229 48.253 50.583 120.602 1.975 4.702 5.684 13.563 27.805 66.278v.01l22.549 53.781 13.897 33.123 13.333 31.799z" fill="#3ab760"/><circle cx="240.451" cy="319.331" r="83.522" fill="#53d37a"/><path d="M452.956 419.526a218.144 218.144 0 01-5.381 6.259 237.33 237.33 0 01-8.108 8.735 256.256 256.256 0 01-10.407 10.104c-.052.052-.104.094-.157.146a245.096 245.096 0 01-12.633 10.857 252.25 252.25 0 01-18.766 13.74 122.6 122.6 0 01-1.923 1.264c-40.145 26.164-88.085 41.367-139.577 41.367-.93 0-1.87-.01-2.8-.021h-.627a244.306 244.306 0 01-14.932-.637 246.89 246.89 0 01-13.991-1.369c-1.275-.157-2.55-.324-3.814-.512a244.084 244.084 0 01-12.466-2.079c-2.466-.47-4.921-.982-7.367-1.526-.115-.021-.219-.052-.334-.073h-.01a239.126 239.126 0 01-9.885-2.435l-2.32-.627-19.529-73.352-80.686-303.07-11.776-44.23 194.486-51.775 65.954-17.565 8.161-2.173 1.473 5.548 6.98 26.196 5.423 20.386 7.868 29.539 1.849 6.928 50.301 188.959 23.468 88.158.324 1.212 11.202 42.046z" fill="#43c970"/><path d="M429.059 444.624c-.052.052-.104.094-.157.146a245.096 245.096 0 01-12.633 10.857 252.25 252.25 0 01-18.766 13.74 122.6 122.6 0 01-1.923 1.264c-40.145 26.164-88.085 41.367-139.577 41.367-.93 0-1.87-.01-2.8-.021h-.627a244.306 244.306 0 01-14.932-.637 246.89 246.89 0 01-13.991-1.369c-1.275-.157-2.55-.324-3.814-.512l-22.831-85.744-10.908-40.949-24.346-91.428v-.01l-37.648-141.416a48.695 48.695 0 0012.142-5.339 47.824 47.824 0 006.353-4.692 48.613 48.613 0 0015.82-27.408c1.358-6.98 1.191-14.367-.763-21.713l53.384-14.211 12.612-3.354 39.476-10.512 13.072-3.479a43.289 43.289 0 001.076 3.48 48.373 48.373 0 0010.564 17.408 48.97 48.97 0 004.859 4.462 48.546 48.546 0 0013.521 7.669 48.294 48.294 0 0029.372 1.4l46.832 175.898 1.609 6.039 19.55 73.404 2.738 10.261v.01l13.834 51.984 8.902 33.405z" fill="#3ab760"/><circle cx="283.856" cy="324.607" r="83.522" fill="#53d37a"/><path d="M473.123 391.679a256.934 256.934 0 01-20.167 27.846 218.144 218.144 0 01-5.381 6.259 237.33 237.33 0 01-8.108 8.735 256.256 256.256 0 01-10.407 10.104c-.052.052-.104.094-.157.146a245.096 245.096 0 01-12.633 10.857 252.25 252.25 0 01-18.766 13.74 122.6 122.6 0 01-1.923 1.264c-40.145 26.164-88.085 41.367-139.577 41.367-.93 0-1.87-.01-2.8-.021h-.627a244.306 244.306 0 01-14.932-.637 246.89 246.89 0 01-13.991-1.369c-1.275-.157-2.55-.324-3.814-.512a244.084 244.084 0 01-12.466-2.079l-10.365-83.665-4.462-35.955-15.255-123.11-18.871-152.179-4.598-37.062-1.034-8.359 29.759-3.688 15.966-1.975 80.3-9.958 73.707-9.132 37.24-4.618 38.881-4.817 3.699 29.821 1.087 8.767 7.158 57.741 31.472 253.91 1.065 8.579z" fill="#43c970"/><path d="M447.575 425.785a237.33 237.33 0 01-8.108 8.735 256.256 256.256 0 01-10.407 10.104c-.052.052-.104.094-.157.146a245.096 245.096 0 01-12.633 10.857 252.25 252.25 0 01-18.766 13.74 122.6 122.6 0 01-1.923 1.264c-40.145 26.164-88.085 41.367-139.577 41.367-.93 0-1.87-.01-2.8-.021h-.627a244.306 244.306 0 01-14.932-.637l-13.646-110.122-.345-2.748-2.288-18.442-11.64-93.884-5.224-42.203-12.779-103.048a48.742 48.742 0 0012.758-3.626 47.69 47.69 0 006.928-3.783 48.309 48.309 0 0012.246-11.473 48.383 48.383 0 007.168-13.521 48.503 48.503 0 002.205-21.608l1.4-.178 25.506-3.156.282-.031 27.627-3.427 2.842-.355 64.083-7.941c.94 7.544 3.553 14.461 7.44 20.428a46.723 46.723 0 005.454 6.928 48.575 48.575 0 0011.149 8.788 48.33 48.33 0 0030.103 6.05l23.688 191.07 8.829 71.21.199 1.578 5.945 47.939z" fill="#3ab760"/><g fill="#53d37a"><circle cx="326.143" cy="335.756" r="83.522"/><path d="M501.606 62.683v265.748a254.495 254.495 0 01-29.55 64.93 256.934 256.934 0 01-19.101 26.164 218.144 218.144 0 01-5.381 6.259 237.33 237.33 0 01-8.108 8.735 256.256 256.256 0 01-10.407 10.104c-.052.052-.104.094-.157.146a245.096 245.096 0 01-12.633 10.857 252.25 252.25 0 01-18.766 13.74 122.6 122.6 0 01-1.923 1.264c-40.145 26.164-88.085 41.367-139.577 41.367-.93 0-1.87-.01-2.8-.021h-.627a244.306 244.306 0 01-14.932-.637 246.89 246.89 0 01-13.991-1.369V62.683h277.953z"/></g><path d="M472.057 140.768v252.593a256.934 256.934 0 01-19.101 26.164 218.144 218.144 0 01-5.381 6.259 237.33 237.33 0 01-8.108 8.735 256.256 256.256 0 01-10.407 10.104c-.052.052-.104.094-.157.146a245.096 245.096 0 01-12.633 10.857 252.25 252.25 0 01-18.766 13.74 122.6 122.6 0 01-1.923 1.264c-40.145 26.164-88.085 41.367-139.577 41.367-.93 0-1.87-.01-2.8-.021v-135.51l-.01-81.387V140.747a48.022 48.022 0 0020.459-4.932 47.716 47.716 0 006.792-4.044 48.69 48.69 0 0015.548-18.369 48.276 48.276 0 003.918-11.671c.596-3.082.92-6.259.92-9.509h122.681c0 14.806 6.635 28.066 17.074 36.968a44.01 44.01 0 002.33 1.87 48.386 48.386 0 0029.141 9.708z" fill="#43c970"/><circle cx="362.631" cy="350.667" r="83.522" fill="#53d37a"/></svg><svg viewBox="0 0 512 512" id="charger" xmlns="http://www.w3.org/2000/svg"><g data-name="31"><path d="M123.63 361.19h37.43v38.2a10.59 10.59 0 01-10.6 10.61h-16.23a10.59 10.59 0 01-10.59-10.59v-38.2l-.01-.02z" fill="#979797" data-original="#7063ce"/><path d="M366.16 445a5 5 0 01-5 5h-183.8a40.06 40.06 0 01-40-40h10a30 30 0 0030 30h183.8a5 5 0 015 5z" fill="#979797" data-original="#7063ce"/><rect fill="#5e5e5e" height="222.38" rx="17.19" width="129.6" x="106.44" y="138.81" data-original="#57409b"/><circle cx="128.9" cy="158.81" fill="#33db92" r="10" data-original="#33db92"/><path d="M218.85 138.83h-37.43v-38.2a10.59 10.59 0 0110.59-10.59h16.27a10.59 10.59 0 0110.59 10.59v38.2h-.02z" fill="#979797" data-original="#7063ce"/><path d="M361.7 262.94h-10V75.79a18.68 18.68 0 00-18.65-18.65H223.79a18.68 18.68 0 00-18.65 18.65V90h-10V75.79a28.68 28.68 0 0128.65-28.65h109.26a28.68 28.68 0 0128.65 28.65z" fill="#979797" data-original="#7063ce"/><path d="M379.16 344.21v35a5 5 0 01-5 5 5 5 0 01-5-5v-35h10zM344.24 344.22v35a5 5 0 01-5 5 5 5 0 01-5-5v-35h10z" fill="#efefef" data-original="#908dff"/><path d="M346.4 262.94H367a20.34 20.34 0 0120.34 20.34v40.94h-61.28v-40.95a20.34 20.34 0 0120.34-20.33z" fill="#5e5e5e" data-original="#57409b"/><rect fill="#979797" height="20" rx="10" width="92.5" x="310.45" y="324.22" data-original="#7063ce"/></g><g fill="#211915"><path d="M150.46 412.48h-16.23a13.11 13.11 0 01-13.1-13.09v-38.2a2.5 2.5 0 015 0v38.2a8.1 8.1 0 008.1 8.09h16.23a8.1 8.1 0 008.1-8.09v-38.2a2.5 2.5 0 015 0v38.2a13.11 13.11 0 01-13.1 13.09z" data-original="#211915"/><path d="M361.16 452.49h-183.8A42.57 42.57 0 01134.84 410a2.5 2.5 0 015 0 37.56 37.56 0 0037.52 37.51h183.8a2.5 2.5 0 100-5h-82.74a2.5 2.5 0 010-5h82.74a7.5 7.5 0 110 15z" data-original="#211915"/><path d="M200.14 442.49h-22.78A32.55 32.55 0 01144.84 410a2.5 2.5 0 015 0 27.55 27.55 0 0027.52 27.51h22.78a2.5 2.5 0 010 5zM218.85 363.69h-95.22A19.72 19.72 0 01103.94 344v-94a2.5 2.5 0 015 0v94a14.71 14.71 0 0014.69 14.69h95.22A14.71 14.71 0 00233.54 344V156a14.71 14.71 0 00-14.69-14.69h-95.22A14.71 14.71 0 00108.94 156v30.11a2.5 2.5 0 01-5 0V156a19.72 19.72 0 0119.69-19.69h95.22A19.71 19.71 0 01238.54 156v188a19.71 19.71 0 01-19.69 19.69z" data-original="#211915"/><path d="M128.9 171.31a12.5 12.5 0 1112.5-12.5 12.51 12.51 0 01-12.5 12.5zm0-20a7.5 7.5 0 107.5 7.5 7.52 7.52 0 00-7.5-7.5zM218.85 141.31a2.5 2.5 0 01-2.5-2.5v-38.2a8.1 8.1 0 00-8.09-8.09H192a8.1 8.1 0 00-8.09 8.09v38.2a2.5 2.5 0 01-5 0v-38.2A13.1 13.1 0 01192 87.52h16.24a13.1 13.1 0 0113.09 13.09v38.2a2.5 2.5 0 01-2.48 2.5z" data-original="#211915"/><path d="M351.7 265.44a2.5 2.5 0 01-2.5-2.5V75.79a16.16 16.16 0 00-16.15-16.15H223.79a16.17 16.17 0 00-16.15 16.15V90a2.5 2.5 0 01-5 0V75.79a21.18 21.18 0 0121.15-21.15h109.26a21.18 21.18 0 0121.15 21.15v187.15a2.5 2.5 0 01-2.5 2.5zM361.7 265.44a2.5 2.5 0 01-2.5-2.5v-90.26a2.5 2.5 0 015 0v90.26a2.5 2.5 0 01-2.5 2.5z" data-original="#211915"/><path d="M361.7 105.57a2.5 2.5 0 01-2.5-2.5V75.79a26.18 26.18 0 00-26.15-26.15H223.79a26.18 26.18 0 00-26.15 26.15V90a2.5 2.5 0 01-5 0V75.79a31.18 31.18 0 0131.15-31.15h109.26a31.18 31.18 0 0131.15 31.15v27.28a2.5 2.5 0 01-2.5 2.5zM374.16 386.75a7.51 7.51 0 01-7.5-7.5v-35a2.5 2.5 0 015 0v35a2.5 2.5 0 005 0v-35a2.5 2.5 0 015 0v35a7.5 7.5 0 01-7.5 7.5zM339.24 386.75a7.5 7.5 0 01-7.5-7.5v-35a2.5 2.5 0 015 0v35a2.5 2.5 0 005 0v-35a2.5 2.5 0 015 0v35a7.5 7.5 0 01-7.5 7.5zM326.06 326.72a2.5 2.5 0 01-2.5-2.5v-41a22.86 22.86 0 0122.84-22.83H367a22.66 22.66 0 0116.15 6.69 2.5 2.5 0 01-3.53 3.53 17.72 17.72 0 00-12.62-5.17h-20.6a17.85 17.85 0 00-17.84 17.83v41a2.5 2.5 0 01-2.5 2.45zM387.34 326.72a2.5 2.5 0 01-2.5-2.5v-22.55a2.5 2.5 0 015 0v22.55a2.5 2.5 0 01-2.5 2.5z" data-original="#211915"/><path d="M393 346.72h-72.5a12.5 12.5 0 010-25H393a12.5 12.5 0 110 25zm-72.5-20a7.5 7.5 0 000 15H393a7.5 7.5 0 100-15z" data-original="#211915"/></g></svg><svg viewBox="0 0 512 512" id="check" xmlns="http://www.w3.org/2000/svg"><path d="M433.139 67.108L201.294 298.953c-6.249 6.249-16.381 6.249-22.63 0L78.861 199.15 0 278.011 150.547 428.56a55.766 55.766 0 0078.861 0L512 145.968l-78.861-78.86z" fill="#a5eb78"/><path d="M485.921 119.888L187.59 418.22a61.044 61.044 0 01-29.847 16.391 55.755 55.755 0 0032.235 10.28 55.766 55.766 0 0039.43-16.333L512 145.966l-26.079-26.078z" opacity=".1"/></svg><svg viewBox="-73 0 511 512" id="clicking" xmlns="http://www.w3.org/2000/svg"><path d="M141.55 0C76.407 0 26.423 58.844 37.595 123.555c1.414 8.187 9.199 13.64 17.332 12.23 8.164-1.41 13.64-9.168 12.23-17.332C59.168 72.164 94.875 30 141.551 30c46.535 0 82.308 41.965 74.43 88.27-1.391 8.168 4.105 15.914 12.269 17.304 8.168 1.395 15.914-4.105 17.305-12.273C256.52 58.85 206.773 0 141.55 0zm0 0"/><path d="M301.172 240.633c-11.324-22.219-38.207-30.774-60-20-10.274-20.156-33.742-29.485-54.84-22.16V106.62c0-24.484-19.676-44.941-43.867-45.605-25.348-.72-46.352 19.582-46.352 44.984v231.082l-17.62-18.453c-16.915-17.707-45.235-18.953-63.138-2.77-18.89 17.075-19.832 46.149-2.437 64.422l101.273 108.02C128.316 503.359 148.258 512 168.906 512h122.145c41.355 0 75-33.645 75-75V281c0-33.332-35.16-55.063-64.88-40.367zm0 0"/></svg><svg viewBox="0 0 512.201 512.201" id="cooling-system" xmlns="http://www.w3.org/2000/svg"><path d="M496.101 291.88v56.44l14.31 28.62c2.409 4.84 1.69-2.385 1.69 119.16 0 8.84-7.16 16-16 16h-128c-4.24 0-8.31-1.69-11.31-4.69l-27.32-27.31h-146.74l-27.32 27.31c-3 3-7.07 4.69-11.31 4.69h-128c-8.84 0-16-7.16-16-16v-112c0-5.074.687-5.154 16-35.78v-56.44l-14.31-28.62c-2.409-4.84-1.69 2.385-1.69-119.16 0-8.777 7.105-16 16-16h128c4.24 0 8.31 1.69 11.31 4.69l27.32 27.31h57.37v-32h32v32h57.37l27.32-27.31c3-3 7.07-4.69 11.31-4.69h128c8.84 0 16 7.16 16 16 0 121.545.719 114.32-1.69 119.16z" fill="#aaa"/><path d="M496.101 291.88v56.44l14.31 28.62c2.253 4.528 1.69 4.299 1.69 39.16h-220c-155.83 0-283.14-122.05-291.55-275.78 1.7-7.01 8.01-12.22 15.55-12.22h128c4.24 0 8.31 1.69 11.31 4.69l27.32 27.31h57.37v-32h32v32h57.37l27.32-27.31c3-3 7.07-4.69 11.31-4.69h128c8.84 0 16 7.16 16 16v112c0 5.075-.687 5.154-16 35.78z" fill="#bcbcbc"/><circle cx="256.101" cy="320.101" fill="#6994ff" r="96"/><path d="M510.411 263.261c2.409-4.84 1.69 2.385 1.69-119.16 0-8.84-7.16-16-16-16h-128c-4.24 0-8.31 1.69-11.31 4.69l-27.32 27.31h-57.37v-48c0-35.29-28.71-64-64-64h-32c-17.65 0-32-14.36-32-32 0-8.84-7.16-16-16-16s-16 7.16-16 16c0 35.29 28.71 64 64 64h32c17.65 0 32 14.36 32 32v48h-57.37l-27.32-27.31c-3-3-7.07-4.69-11.31-4.69h-128c-8.84 0-16 7.16-16 16 0 121.545-.719 114.32 1.69 119.16l14.31 28.62v56.44c-15.499 30.997-16 30.74-16 35.78v112c0 8.84 7.16 16 16 16h128c4.24 0 8.31-1.69 11.31-4.69l27.32-27.31h146.74l27.32 27.31c3 3 7.07 4.69 11.31 4.69h128c8.84 0 16-7.16 16-16 0-121.545.719-114.32-1.69-119.16l-14.31-28.62v-56.44zm-30.31-10.941c-15.499 30.997-16 30.74-16 35.78 0 69.851-.629 66.501 1.69 71.16l14.31 28.62v92.22h-105.37l-27.32-27.31c-3-3-7.07-4.69-11.31-4.69h-160c-4.24 0-8.31 1.69-11.31 4.69l-27.32 27.31H32.101v-92.22c15.499-30.997 16-30.74 16-35.78 0-69.851.629-66.501-1.69-71.16l-14.31-28.62V160.1h105.37l27.32 27.31c3 3 7.07 4.69 11.31 4.69h160c4.24 0 8.31-1.69 11.31-4.69l27.32-27.31h105.37z"/><path d="M256.361 224.101c-53.86 0-96.112 43.565-96.26 95.74 0 53.736 43.488 96.23 95.94 96.26 53.072 0 95.91-43.057 96.06-95.73 0-54.075-43.773-96.133-95.74-96.27zm-29.52 39.109c-6.34 22.01-.66 38.66 7.11 52.16-11.54 6.3-22.57 7.54-41.29-3.61 2.77-21.179 15.93-39.13 34.18-48.55zm20.919 120.33c-21.19-2.77-39.13-15.93-48.56-34.19 19.175 5.525 35.526 2.484 52.17-7.1 6.301 11.54 7.541 22.57-3.61 41.29zm16.681-126.879c21.18 2.77 39.13 15.93 48.55 34.18-22.01-6.34-38.66-.66-52.16 7.11-6.301-11.54-7.541-22.571 3.61-41.29zm20.92 120.33c6.34-22.01.66-38.66-7.11-52.16 11.54-6.3 22.58-7.54 41.29 3.61-2.771 21.18-15.93 39.129-34.18 48.55zM128.101 192.101h-48c-8.836 0-16 7.163-16 16v48c0 8.837 7.164 16 16 16s16-7.163 16-16v-32h32c8.836 0 16-7.163 16-16s-7.164-16-16-16zM368.101 208.101c0 8.837 7.163 16 16 16h32v32c0 8.837 7.163 16 16 16s16-7.163 16-16v-48c0-8.837-7.163-16-16-16h-48c-8.837 0-16 7.163-16 16zM432.101 368.101c-8.837 0-16 7.163-16 16v32h-32c-8.837 0-16 7.163-16 16s7.163 16 16 16h48c8.837 0 16-7.163 16-16v-48c0-8.837-7.164-16-16-16zM128.101 416.101h-32v-32c0-8.837-7.164-16-16-16s-16 7.163-16 16v48c0 8.837 7.164 16 16 16h48c8.836 0 16-7.163 16-16s-7.164-16-16-16z"/></svg><svg viewBox="0 0 447.907 447.907" id="delivery-truck" xmlns="http://www.w3.org/2000/svg"><path d="M432.703 206.904l-30.5-13.2-25.9-50.4c-7-13.8-21.2-22.4-36.7-22.3h-44.6v-12.6c0-22.8-18.2-41.4-41-41.4h-213.2c-22.8 0-40.8 18.7-40.8 41.4v193c-.2 13.9 10.9 25.3 24.8 25.5h5.7c0 1-.1 1.4-.1 2-.1 28.6 23 51.9 51.6 52 28.6.1 51.9-23 52-51.6v-.5c0-.7 0-1-.1-2h172.3v2c-.1 28.6 23 51.9 51.6 52 28.6.1 51.9-23 52-51.6v-.5-2h12.9c13.9 0 25.2-11.3 25.2-25.2v-71.4c.2-9.8-5.8-19.1-15.2-23.2zm-350.4 154.1c-17.6 0-31.8-14.2-31.8-31.8s14.2-31.8 31.8-31.8 31.8 14.2 31.8 31.8c0 17.5-14.3 31.8-31.8 31.8zm192.7-53.9h-145.8c-8.4-18.3-26.8-30-46.9-29.9-20.2-.1-38.5 11.5-46.9 29.9h-10.2c-3.1 0-5.2-2.4-5.2-5.5v-51.5h255v57zm0-198.6v121.6h-255v-121.6c0-11.7 9.1-21.4 20.8-21.4h213.2c11.7.1 21.1 9.7 21 21.3v.1zm20 32.6h44.6c7.9-.1 15.3 4.2 19 11.3l20 38.7h-83.6v-50zm63.1 219.9c-17.6 0-31.8-14.2-31.8-31.8s14.2-31.8 31.8-31.8 31.8 14.2 31.8 31.8c0 17.5-14.2 31.8-31.8 31.8zm69.9-59.4c0 3.1-2.1 5.5-5.2 5.5h-17.8c-12.1-25.9-42.9-37.1-68.8-25-11 5.1-19.9 14-25 25h-16.2v-96h98l31.8 14c2 1 3.3 3.2 3.2 5.4v71.1z"/></svg><svg viewBox="0 0 24 24" id="display-frame" xmlns="http://www.w3.org/2000/svg"><g><path d="M21.25 2H2.75C1.23 2 0 3.23 0 4.75v14.5C0 20.77 1.23 22 2.75 22h18.5c1.52 0 2.75-1.23 2.75-2.75V4.75C24 3.23 22.77 2 21.25 2z" fill="#585858" data-original="#eceff1"/><path d="M12 2H2.75C1.23 2 0 3.23 0 4.75v14.5C0 20.77 1.23 22 2.75 22H12z" fill="#585858" data-original="#cdd0d2"/><path d="M7.5 7H6c-.551 0-1 .448-1 1v1.5a1 1 0 11-2 0V8c0-1.654 1.346-3 3-3h1.5a1 1 0 110 2zM21 16c0 1.654-1.346 3-3 3h-1.5a1 1 0 110-2H18c.551 0 1-.448 1-1v-1.5a1 1 0 112 0z" fill="#dfdfdf" data-original="#00bcd4"/><g fill="#00a4b9"><path d="M3.675 6.106A2.982 2.982 0 003 8v1.5a1 1 0 102 0V8a1 1 0 01.333-.745zM18.801 16.598A.997.997 0 0118 17h-1.5a1 1 0 100 2H18c1.007 0 1.9-.499 2.444-1.263z" fill="#cdcdcd" data-original="#00a4b9"/></g></g></svg><svg viewBox="0 0 512 512" id="imac" xmlns="http://www.w3.org/2000/svg"><path d="M195.71 433.916c-.867 7.143-4.782 14.592-10.737 18.631l-9.792 6.642h161.637l-9.792-6.642c-5.955-4.039-9.871-11.488-10.737-18.632l-4.757-40.244H200.467l-4.757 40.245z" fill="#ccc"/><path d="M227.304 438.768l4.757-45.097h-31.594l-4.757 40.245c-.867 7.143-4.782 14.592-10.737 18.631l-9.791 6.642h41.945c5.636-4.614 9.338-12.673 10.177-20.421z" fill="#bababa"/><path d="M482.88 394.701H29.12c-16.016 0-29.12-13.104-29.12-29.12V53.659c0-16.016 13.104-29.12 29.12-29.12h453.76c16.016 0 29.12 13.104 29.12 29.12v311.922c0 16.016-13.104 29.12-29.12 29.12z" fill="#efefef"/><path d="M29.436 365.581V53.659c0-16.016 13.104-29.12 29.12-29.12H29.12C13.104 24.539 0 37.643 0 53.659v311.923c0 16.016 13.104 29.12 29.12 29.12h29.436c-16.016-.001-29.12-13.105-29.12-29.121z" fill="#ddd"/><path d="M482.88 24.539H29.12C13.104 24.539 0 37.643 0 53.659V335.89h512V53.659c0-16.016-13.104-29.12-29.12-29.12z" fill="#666"/><path d="M0 53.659V335.89h29.435V53.659c0-16.016 13.104-29.12 29.12-29.12-30.348.05-34.415-1.026-42.641 3.196C6.491 32.571 0 42.391 0 53.659z" fill="#535454"/><path d="M477.595 306.5H34.405a4.97 4.97 0 01-4.969-4.969V58.737a4.969 4.969 0 014.969-4.969h443.19a4.97 4.97 0 014.969 4.969V301.53a4.969 4.969 0 01-4.969 4.97z" fill="#a4d9f4"/><path d="M60.343 301.53V58.737a4.969 4.969 0 014.969-4.969H34.405a4.97 4.97 0 00-4.969 4.969V301.53a4.97 4.97 0 004.969 4.969h30.907a4.968 4.968 0 01-4.969-4.969z" fill="#7cc9e8"/><path d="M351.277 458.158H160.723c-8.083 0-14.695 6.613-14.695 14.695s6.613 14.695 14.695 14.695h190.554c8.082 0 14.695-6.613 14.695-14.695s-6.613-14.695-14.695-14.695z" fill="#efefef"/><path d="M203.621 472.854c0-8.082 6.613-14.695 14.695-14.695h-57.594c-8.083 0-14.695 6.613-14.695 14.695s6.613 14.695 14.695 14.695h57.594c-8.082 0-14.695-6.613-14.695-14.695z" fill="#ddd"/><circle cx="256" cy="365.26" r="7.782" fill="#ccc"/><path d="M29.436 58.737v24.26h453.129v-24.26a4.97 4.97 0 00-4.97-4.969H34.405a4.969 4.969 0 00-4.969 4.969z" fill="#70b5e8"/><g fill="#52a5d8"><path d="M29.436 82.997h30.907v-24.26a4.969 4.969 0 014.969-4.969H34.405c-2.478 0-4.516 1.82-4.891 4.192-.157.991-.039-.858-.078 25.037zM145.86 283.763h-20.676a3.457 3.457 0 01-3.446-3.446v-20.676a3.457 3.457 0 013.446-3.446h20.676a3.457 3.457 0 013.446 3.446v20.676a3.457 3.457 0 01-3.446 3.446z"/></g><path d="M242.243 283.763h-20.676a3.457 3.457 0 01-3.446-3.446v-20.676a3.457 3.457 0 013.446-3.446h20.676a3.457 3.457 0 013.446 3.446v20.676a3.457 3.457 0 01-3.446 3.446z" fill="#898989"/><path d="M338.625 283.763h-20.676a3.457 3.457 0 01-3.446-3.446v-20.676a3.457 3.457 0 013.446-3.446h20.676a3.457 3.457 0 013.446 3.446v20.676a3.457 3.457 0 01-3.446 3.446z" fill="#52a5d8"/><path d="M194.051 283.763h-20.676a3.457 3.457 0 01-3.446-3.446v-20.676a3.457 3.457 0 013.446-3.446h20.676a3.457 3.457 0 013.446 3.446v20.676a3.456 3.456 0 01-3.446 3.446z" fill="#f94a46"/><path d="M290.434 283.763h-20.676a3.457 3.457 0 01-3.446-3.446v-20.676a3.457 3.457 0 013.446-3.446h20.676a3.457 3.457 0 013.446 3.446v20.676a3.457 3.457 0 01-3.446 3.446z" fill="#ffb70d"/><path d="M386.816 283.763H366.14a3.457 3.457 0 01-3.446-3.446v-20.676a3.457 3.457 0 013.446-3.446h20.676a3.457 3.457 0 013.446 3.446v20.676a3.456 3.456 0 01-3.446 3.446z" fill="#92b620"/></svg><svg viewBox="0 0 512 512" id="ipad" xmlns="http://www.w3.org/2000/svg"><path d="M30.905 0C13.907 0 0 13.907 0 30.905v450.19C0 498.093 13.907 512 30.905 512h143.7V0h-143.7z" fill="#efefef"/><path d="M29.982 481.095V30.905C29.982 13.907 43.889 0 60.887 0H30.905C13.907 0 0 13.907 0 30.905v450.19C0 498.093 13.907 512 30.905 512h29.982c-16.998 0-30.905-13.907-30.905-30.905z" fill="#ddd"/><path d="M481.095 512H174.606c-16.998 0-30.905-13.907-30.905-30.905V30.905C143.701 13.907 157.608 0 174.606 0h306.489C498.093 0 512 13.907 512 30.905v450.19C512 498.093 498.093 512 481.095 512z" fill="#535454"/><path d="M170.844 481.095V30.905C170.844 13.907 184.751 0 201.749 0h-27.143c-16.998 0-30.905 13.907-30.905 30.905v450.19c0 16.998 13.907 30.905 30.905 30.905h27.143c-16.998 0-30.905-13.907-30.905-30.905z" fill="#444443"/><path d="M477.58 45.239H178.121a7.277 7.277 0 00-7.277 7.277v385.299a7.277 7.277 0 007.277 7.277H477.58a7.277 7.277 0 007.277-7.277V52.516a7.278 7.278 0 00-7.277-7.277z" fill="#a4d9f4"/><path d="M201.749 437.815V52.516a7.277 7.277 0 017.277-7.277h-30.905a7.277 7.277 0 00-7.277 7.277v385.299a7.277 7.277 0 007.277 7.277h30.905a7.278 7.278 0 01-7.277-7.277z" fill="#7cc9e8"/><g fill="#666"><path d="M327.85 501.007c-12.214 0-22.15-9.936-22.15-22.15s9.937-22.15 22.15-22.15 22.15 9.936 22.15 22.15-9.936 22.15-22.15 22.15zm0-28.847a6.705 6.705 0 00-6.697 6.697 6.705 6.705 0 006.697 6.697 6.705 6.705 0 006.697-6.697 6.705 6.705 0 00-6.697-6.697z"/><circle cx="44.41" cy="45.24" r="14.423"/></g><path d="M44.406 45.239c-2.668-4.621-2.476-10.098.006-14.412a14.343 14.343 0 00-7.218 1.921c-6.899 3.983-9.262 12.804-5.279 19.703s12.804 9.262 19.703 5.279a14.337 14.337 0 005.273-5.291c-4.978-.007-9.818-2.579-12.485-7.2z" fill="#535454"/><path d="M327.847 31.215c-.505 0-1.01-.051-1.504-.155a7.39 7.39 0 01-1.453-.443 6.924 6.924 0 01-1.329-.711 7.477 7.477 0 01-1.175-.958 7.03 7.03 0 01-.958-1.174 7.915 7.915 0 01-.711-1.329 8.031 8.031 0 01-.443-1.443 7.553 7.553 0 010-3.029 7.838 7.838 0 011.154-2.771c.278-.433.598-.824.958-1.174.361-.361.752-.68 1.175-.969a8.238 8.238 0 011.329-.711 8.238 8.238 0 011.453-.433c2.504-.515 5.182.31 6.975 2.113.35.35.68.741.958 1.174.278.413.515.865.711 1.329.196.464.34.958.443 1.442.093.505.144 1.01.144 1.515s-.051 1.009-.144 1.514a8.031 8.031 0 01-.443 1.443 7.876 7.876 0 01-1.669 2.503 7.779 7.779 0 01-5.471 2.267z" fill="#666"/><path d="M477.58 45.239H178.121a7.277 7.277 0 00-7.277 7.277v20.718h314.013V52.516a7.278 7.278 0 00-7.277-7.277z" fill="#70b5e8"/><path d="M209.026 45.239h-30.905a7.277 7.277 0 00-7.277 7.277v20.718h30.905V52.516a7.277 7.277 0 017.277-7.277z" fill="#52a5d8"/><path d="M239.329 417.812h-20.676a3.457 3.457 0 01-3.446-3.446V393.69a3.457 3.457 0 013.446-3.446h20.676a3.457 3.457 0 013.446 3.446v20.676a3.456 3.456 0 01-3.446 3.446z" fill="#92b620"/><g fill="#70b5e8"><path d="M305.235 417.812h-20.676a3.457 3.457 0 01-3.446-3.446V393.69a3.457 3.457 0 013.446-3.446h20.676a3.457 3.457 0 013.446 3.446v20.676a3.455 3.455 0 01-3.446 3.446zM371.141 417.812h-20.676a3.457 3.457 0 01-3.446-3.446V393.69a3.457 3.457 0 013.446-3.446h20.676a3.457 3.457 0 013.446 3.446v20.676a3.455 3.455 0 01-3.446 3.446z"/></g><path d="M437.048 417.812h-20.676a3.457 3.457 0 01-3.446-3.446V393.69a3.457 3.457 0 013.446-3.446h20.676a3.457 3.457 0 013.446 3.446v20.676a3.456 3.456 0 01-3.446 3.446z" fill="#ffb70d"/><path d="M239.329 309.454h-20.676a3.457 3.457 0 01-3.446-3.446v-20.676a3.457 3.457 0 013.446-3.446h20.676a3.457 3.457 0 013.446 3.446v20.676a3.456 3.456 0 01-3.446 3.446z" fill="#898989"/><path d="M305.235 309.454h-20.676a3.457 3.457 0 01-3.446-3.446v-20.676a3.457 3.457 0 013.446-3.446h20.676a3.457 3.457 0 013.446 3.446v20.676a3.455 3.455 0 01-3.446 3.446z" fill="#f94a46"/><path d="M371.141 309.454h-20.676a3.457 3.457 0 01-3.446-3.446v-20.676a3.457 3.457 0 013.446-3.446h20.676a3.457 3.457 0 013.446 3.446v20.676a3.455 3.455 0 01-3.446 3.446z" fill="#70b5e8"/><path d="M437.048 309.454h-20.676a3.457 3.457 0 01-3.446-3.446v-20.676a3.457 3.457 0 013.446-3.446h20.676a3.457 3.457 0 013.446 3.446v20.676a3.456 3.456 0 01-3.446 3.446z" fill="#ffb70d"/><path d="M239.329 253.886h-20.676a3.457 3.457 0 01-3.446-3.446v-20.676a3.457 3.457 0 013.446-3.446h20.676a3.457 3.457 0 013.446 3.446v20.676a3.457 3.457 0 01-3.446 3.446z" fill="#efefef"/><path d="M305.235 253.886h-20.676a3.457 3.457 0 01-3.446-3.446v-20.676a3.457 3.457 0 013.446-3.446h20.676a3.457 3.457 0 013.446 3.446v20.676a3.456 3.456 0 01-3.446 3.446z" fill="#ffb70d"/><path d="M371.141 253.886h-20.676a3.457 3.457 0 01-3.446-3.446v-20.676a3.457 3.457 0 013.446-3.446h20.676a3.457 3.457 0 013.446 3.446v20.676a3.456 3.456 0 01-3.446 3.446z" fill="#70b5e8"/><path d="M437.048 253.886h-20.676a3.457 3.457 0 01-3.446-3.446v-20.676a3.457 3.457 0 013.446-3.446h20.676a3.457 3.457 0 013.446 3.446v20.676a3.457 3.457 0 01-3.446 3.446z" fill="#efefef"/><path d="M239.329 198.317h-20.676a3.457 3.457 0 01-3.446-3.446v-20.676a3.457 3.457 0 013.446-3.446h20.676a3.457 3.457 0 013.446 3.446v20.676a3.457 3.457 0 01-3.446 3.446z" fill="#dda36f"/><path d="M305.235 198.317h-20.676a3.457 3.457 0 01-3.446-3.446v-20.676a3.457 3.457 0 013.446-3.446h20.676a3.457 3.457 0 013.446 3.446v20.676a3.456 3.456 0 01-3.446 3.446z" fill="#70b5e8"/><path d="M371.141 198.317h-20.676a3.457 3.457 0 01-3.446-3.446v-20.676a3.457 3.457 0 013.446-3.446h20.676a3.457 3.457 0 013.446 3.446v20.676a3.456 3.456 0 01-3.446 3.446z" fill="#f9d698"/><path d="M437.048 198.317h-20.676a3.457 3.457 0 01-3.446-3.446v-20.676a3.457 3.457 0 013.446-3.446h20.676a3.457 3.457 0 013.446 3.446v20.676a3.457 3.457 0 01-3.446 3.446z" fill="#70b5e8"/><path d="M239.329 142.749h-20.676a3.457 3.457 0 01-3.446-3.446v-20.676a3.457 3.457 0 013.446-3.446h20.676a3.457 3.457 0 013.446 3.446v20.676a3.457 3.457 0 01-3.446 3.446z" fill="#92b620"/><path d="M305.235 142.749h-20.676a3.457 3.457 0 01-3.446-3.446v-20.676a3.457 3.457 0 013.446-3.446h20.676a3.457 3.457 0 013.446 3.446v20.676a3.456 3.456 0 01-3.446 3.446z" fill="#f94a46"/><path d="M371.141 142.749h-20.676a3.457 3.457 0 01-3.446-3.446v-20.676a3.457 3.457 0 013.446-3.446h20.676a3.457 3.457 0 013.446 3.446v20.676a3.456 3.456 0 01-3.446 3.446z" fill="#ffb70d"/><path d="M437.048 142.749h-20.676a3.457 3.457 0 01-3.446-3.446v-20.676a3.457 3.457 0 013.446-3.446h20.676a3.457 3.457 0 013.446 3.446v20.676a3.457 3.457 0 01-3.446 3.446z" fill="#efefef"/></svg><svg viewBox="0 0 512.001 512.001" id="iphone" xmlns="http://www.w3.org/2000/svg"><path d="M97.211 0C70.804 0 49.32 21.484 49.32 47.891V464.11c0 26.406 21.484 47.89 47.891 47.89h137.787V0H97.211z" fill="#efefef"/><path d="M77.849 464.109V47.891C77.849 21.484 99.333 0 125.74 0H97.211C70.804 0 49.32 21.484 49.32 47.891V464.11c0 26.406 21.484 47.89 47.891 47.89h28.529c-26.407 0-47.891-21.484-47.891-47.891z" fill="#ddd"/><path d="M102.06 26.716c-13.316 0-24.211 10.895-24.211 24.211v56.664c0 13.316 10.895 24.211 24.211 24.211 13.316 0 24.211-10.895 24.211-24.211V50.927c0-13.316-10.895-24.211-24.211-24.211z" fill="#535454"/><path d="M102.06 107.59V50.927c0-8.913 4.885-16.735 12.105-20.937-16.082-9.36-36.316 2.407-36.316 20.937v56.664c0 18.521 20.223 30.304 36.316 20.937-7.22-4.203-12.105-12.025-12.105-20.938z" fill="#444443"/><path d="M414.789 0H234.997c-26.407 0-47.891 21.484-47.891 47.891V464.11c0 26.407 21.484 47.891 47.891 47.891h179.792c26.407 0 47.891-21.484 47.891-47.891V47.891C462.68 21.484 441.197 0 414.789 0z" fill="#535454"/><path d="M213.636 464.109V47.891C213.636 21.484 235.119 0 261.526 0h-26.529c-26.407 0-47.891 21.484-47.891 47.891V464.11c0 26.407 21.484 47.891 47.891 47.891h26.529c-26.407-.001-47.89-21.485-47.89-47.892z" fill="#444443"/><path d="M436.146 464.109c0 11.795-9.562 21.357-21.357 21.357H234.997c-11.795 0-21.357-9.562-21.357-21.357V47.891c0-11.795 9.562-21.357 21.357-21.357h22.407a7.992 7.992 0 017.992 7.992v5.068c0 6.8 5.563 12.363 12.363 12.363h94.267c6.8 0 12.363-5.563 12.363-12.363v-7.33a5.731 5.731 0 015.731-5.731h24.669c11.795 0 21.357 9.562 21.357 21.357v416.219z" fill="#a4d9f4"/><path d="M239.119 464.109V47.891c0-11.155 8.555-20.3 19.46-21.261-1.241-.184.079-.056-23.582-.096-11.795 0-21.357 9.562-21.357 21.357V464.11c0 11.795 9.562 21.357 21.357 21.357h25.478c-11.794-.001-21.356-9.562-21.356-21.358z" fill="#7cc9e8"/><g fill="#666"><path d="M355.99 34.261h-40.343a7.727 7.727 0 010-15.454h40.343a7.727 7.727 0 010 15.454zM287.057 32.959c-5.532-3.636-4.191-12.525 2.771-14.001 4.736-.977 9.242 2.691 9.242 7.572 0 3.589-2.477 6.806-6.223 7.583-.494.092-4.217-.09-5.79-1.154zM97.77 58.386c-3.674-2.51-4.433-7.304-2.132-10.715 4.089-6.211 14.145-3.457 14.145 4.286 0 3.737-2.687 6.912-6.213 7.572-.963.202-4.018.028-5.8-1.143z"/></g><path d="M97.77 85.688c-3.674-2.51-4.433-7.304-2.132-10.715 3.204-4.983 11.083-4.536 13.558 1.329 1.17 2.765.59 6.159-1.669 8.417-1.842 1.842-6.587 3.052-9.757.969z" fill="#f9d698"/><path d="M97.77 112.978c-5.099-3.351-4.404-11.132 1.329-13.558 8.094-3.163 14.221 6.808 8.428 12.6-2.009 2.009-6.327 3.302-9.757.958z" fill="#666"/><path d="M263.357 114.163h-20.676a3.457 3.457 0 01-3.446-3.446V90.04a3.457 3.457 0 013.446-3.446h20.676a3.457 3.457 0 013.446 3.446v20.676a3.455 3.455 0 01-3.446 3.447z" fill="#70b5e8"/><path d="M312.034 114.163h-20.676a3.457 3.457 0 01-3.446-3.446V90.04a3.457 3.457 0 013.446-3.446h20.676a3.457 3.457 0 013.446 3.446v20.676a3.457 3.457 0 01-3.446 3.447z" fill="#efefef"/><path d="M360.71 114.163h-20.676a3.457 3.457 0 01-3.446-3.446V90.04a3.457 3.457 0 013.446-3.446h20.676a3.457 3.457 0 013.446 3.446v20.676a3.457 3.457 0 01-3.446 3.447z" fill="#92b620"/><path d="M409.386 114.163H388.71a3.457 3.457 0 01-3.446-3.446V90.04a3.457 3.457 0 013.446-3.446h20.676a3.457 3.457 0 013.446 3.446v20.676a3.457 3.457 0 01-3.446 3.447z" fill="#898989"/><path d="M263.357 163.319h-20.676a3.457 3.457 0 01-3.446-3.446v-20.676a3.457 3.457 0 013.446-3.446h20.676a3.457 3.457 0 013.446 3.446v20.676a3.455 3.455 0 01-3.446 3.446z" fill="#92b620"/><path d="M312.034 163.319h-20.676a3.457 3.457 0 01-3.446-3.446v-20.676a3.457 3.457 0 013.446-3.446h20.676a3.457 3.457 0 013.446 3.446v20.676a3.457 3.457 0 01-3.446 3.446z" fill="#898989"/><path d="M360.71 163.319h-20.676a3.457 3.457 0 01-3.446-3.446v-20.676a3.457 3.457 0 013.446-3.446h20.676a3.457 3.457 0 013.446 3.446v20.676a3.457 3.457 0 01-3.446 3.446z" fill="#70b5e8"/><path d="M409.386 163.319H388.71a3.457 3.457 0 01-3.446-3.446v-20.676a3.457 3.457 0 013.446-3.446h20.676a3.457 3.457 0 013.446 3.446v20.676a3.457 3.457 0 01-3.446 3.446z" fill="#f94a46"/><path d="M263.357 213.114h-20.676a3.457 3.457 0 01-3.446-3.446v-20.676a3.457 3.457 0 013.446-3.446h20.676a3.457 3.457 0 013.446 3.446v20.676a3.455 3.455 0 01-3.446 3.446z" fill="#dda36f"/><path d="M312.034 213.114h-20.676a3.457 3.457 0 01-3.446-3.446v-20.676a3.457 3.457 0 013.446-3.446h20.676a3.457 3.457 0 013.446 3.446v20.676a3.457 3.457 0 01-3.446 3.446z" fill="#f9d698"/><path d="M360.71 213.114h-20.676a3.457 3.457 0 01-3.446-3.446v-20.676a3.457 3.457 0 013.446-3.446h20.676a3.457 3.457 0 013.446 3.446v20.676a3.457 3.457 0 01-3.446 3.446z" fill="#898989"/><path d="M409.386 213.114H388.71a3.457 3.457 0 01-3.446-3.446v-20.676a3.457 3.457 0 013.446-3.446h20.676a3.457 3.457 0 013.446 3.446v20.676a3.457 3.457 0 01-3.446 3.446z" fill="#f9d698"/><g fill="#70b5e8"><path d="M263.357 262.27h-20.676a3.457 3.457 0 01-3.446-3.446v-20.676a3.457 3.457 0 013.446-3.446h20.676a3.457 3.457 0 013.446 3.446v20.676a3.455 3.455 0 01-3.446 3.446zM312.034 262.27h-20.676a3.457 3.457 0 01-3.446-3.446v-20.676a3.457 3.457 0 013.446-3.446h20.676a3.457 3.457 0 013.446 3.446v20.676a3.457 3.457 0 01-3.446 3.446z"/></g><path d="M360.71 262.27h-20.676a3.457 3.457 0 01-3.446-3.446v-20.676a3.457 3.457 0 013.446-3.446h20.676a3.457 3.457 0 013.446 3.446v20.676a3.457 3.457 0 01-3.446 3.446z" fill="#f94a46"/><path d="M263.357 311.426h-20.676a3.457 3.457 0 01-3.446-3.446v-20.676a3.457 3.457 0 013.446-3.446h20.676a3.457 3.457 0 013.446 3.446v20.676a3.455 3.455 0 01-3.446 3.446z" fill="#efefef"/><path d="M312.034 311.426h-20.676a3.457 3.457 0 01-3.446-3.446v-20.676a3.457 3.457 0 013.446-3.446h20.676a3.457 3.457 0 013.446 3.446v20.676a3.457 3.457 0 01-3.446 3.446z" fill="#92b620"/><path d="M360.71 311.426h-20.676a3.457 3.457 0 01-3.446-3.446v-20.676a3.457 3.457 0 013.446-3.446h20.676a3.457 3.457 0 013.446 3.446v20.676a3.457 3.457 0 01-3.446 3.446z" fill="#898989"/><path d="M409.386 262.27H388.71a3.457 3.457 0 01-3.446-3.446v-20.676a3.457 3.457 0 013.446-3.446h20.676a3.457 3.457 0 013.446 3.446v20.676a3.457 3.457 0 01-3.446 3.446z" fill="#ffb70d"/><path d="M263.358 463.095h-20.676a3.457 3.457 0 01-3.446-3.446v-20.676a3.457 3.457 0 013.446-3.446h20.676a3.457 3.457 0 013.446 3.446v20.676a3.457 3.457 0 01-3.446 3.446z" fill="#92b620"/><path d="M312.034 463.095h-20.676a3.457 3.457 0 01-3.446-3.446v-20.676a3.457 3.457 0 013.446-3.446h20.676a3.457 3.457 0 013.446 3.446v20.676a3.457 3.457 0 01-3.446 3.446z" fill="#70b5e8"/><path d="M360.71 463.095h-20.676a3.457 3.457 0 01-3.446-3.446v-20.676a3.457 3.457 0 013.446-3.446h20.676a3.457 3.457 0 013.446 3.446v20.676a3.457 3.457 0 01-3.446 3.446z" fill="#92b620"/><path d="M409.386 463.095H388.71a3.457 3.457 0 01-3.446-3.446v-20.676a3.457 3.457 0 013.446-3.446h20.676a3.457 3.457 0 013.446 3.446v20.676a3.457 3.457 0 01-3.446 3.446z" fill="#efefef"/></svg><svg viewBox="0 0 512 512" id="keyboard" xmlns="http://www.w3.org/2000/svg"><path d="M242.583 222.708c-3.699-7.398-.711-16.391 6.672-20.106C249.972 202.236 305 173.621 305 120c0-25.332 3.027-56.831 26.629-75.713C348.753 30.588 373.197 25 416 25c8.284 0 15 6.716 15 15s-6.716 15-15 15c-34.398 0-54.639 3.921-65.629 12.713C343.214 73.438 335 84.555 335 120c0 72.438-69.34 107.94-72.292 109.417-7.41 3.705-16.42.7-20.125-6.709z" fill="#313a6b"/><path d="M512 231v226c0 16.54-13.46 30-30 30H30c-16.54 0-30-13.46-30-30V231c0-16.54 13.46-30 30-30h452c16.54 0 30 13.46 30 30z" fill="#667197"/><path d="M512 231v226c0 16.54-13.46 30-30 30H256V201h226c16.54 0 30 13.46 30 30z" fill="#4d5788"/><path d="M96 423H80c-8.284 0-15-6.716-15-15s6.716-15 15-15h16c8.284 0 15 6.716 15 15s-6.716 15-15 15z" fill="#f1f6ff"/><path d="M136 359h-16c-8.284 0-15-6.716-15-15s6.716-15 15-15h16c8.284 0 15 6.716 15 15s-6.716 15-15 15z" fill="#9cd6f4"/><path d="M216 359h-16c-8.284 0-15-6.716-15-15s6.716-15 15-15h16c8.284 0 15 6.716 15 15s-6.716 15-15 15z" fill="#f1f6ff"/><g fill="#dfe5f2"><path d="M296 359h-16c-8.284 0-15-6.716-15-15s6.716-15 15-15h16c8.284 0 15 6.716 15 15s-6.716 15-15 15zM376 359h-16c-8.284 0-15-6.716-15-15s6.716-15 15-15h16c8.284 0 15 6.716 15 15s-6.716 15-15 15zM416 295h-16c-8.284 0-15-6.716-15-15s6.716-15 15-15h16c8.284 0 15 6.716 15 15s-6.716 15-15 15zM336 295h-16c-8.284 0-15-6.716-15-15s6.716-15 15-15h16c8.284 0 15 6.716 15 15s-6.716 15-15 15z"/></g><path d="M271 280c0 8.28-6.72 15-15 15h-16c-8.28 0-15-6.72-15-15s6.72-15 15-15h16c8.28 0 15 6.72 15 15z" fill="#f1f6ff"/><path d="M256 295v-30c8.28 0 15 6.72 15 15s-6.72 15-15 15z" fill="#dfe5f2"/><path d="M176 295h-16c-8.284 0-15-6.716-15-15s6.716-15 15-15h16c8.284 0 15 6.716 15 15s-6.716 15-15 15zM96 295H80c-8.284 0-15-6.716-15-15s6.716-15 15-15h16c8.284 0 15 6.716 15 15s-6.716 15-15 15z" fill="#f1f6ff"/><path d="M432 423h-16c-8.284 0-15-6.716-15-15s6.716-15 15-15h16c8.284 0 15 6.716 15 15s-6.716 15-15 15z" fill="#dfe5f2"/><path d="M367 408c0 8.28-6.72 15-15 15H160c-8.28 0-15-6.72-15-15s6.72-15 15-15h192c8.28 0 15 6.72 15 15z" fill="#f1f6ff"/><path d="M367 408c0 8.28-6.72 15-15 15h-96v-30h96c8.28 0 15 6.72 15 15z" fill="#dfe5f2"/></svg><svg viewBox="0 0 504.123 504.123" id="macbook" xmlns="http://www.w3.org/2000/svg"><path d="M504.123 382.03v7.877c0 12.997-10.634 23.631-23.631 23.631H23.631C10.634 413.537 0 402.904 0 389.907v-7.877h504.123z" fill="#e4e7e7"/><path d="M216.615 374.153h70.892c6.695 0 11.815 5.12 11.815 11.815s-5.12 11.815-11.815 11.815h-70.892c-6.695 0-11.815-5.12-11.815-11.815 0-6.301 5.12-11.815 11.815-11.815z" fill="#c8cbcb"/><path d="M63.015 90.584h378.092c8.665 0 15.754 7.089 15.754 15.754V382.03h-409.6V106.337c.001-8.664 7.09-15.753 15.754-15.753z" fill="#36434f"/><path d="M70.892 114.214H433.23v244.185H70.892V114.214z" fill="#465765"/><path d="M157.538 326.891h189.046c12.997 0 23.631 10.634 23.631 23.631v7.877H133.908v-7.877c0-12.997 10.634-23.631 23.63-23.631z" fill="#7e8a94"/><path d="M181.169 311.137c8.665 0 15.754 7.089 15.754 15.754s-7.089 15.754-15.754 15.754-15.754-7.089-15.754-15.754 7.09-15.754 15.754-15.754z" fill="#e4e7e7"/><path d="M228.431 311.137c8.665 0 15.754 7.089 15.754 15.754s-7.089 15.754-15.754 15.754-15.754-7.089-15.754-15.754 7.089-15.754 15.754-15.754z" fill="#efc75e"/><path d="M275.692 311.137c8.665 0 15.754 7.089 15.754 15.754s-7.089 15.754-15.754 15.754-15.754-7.089-15.754-15.754 7.09-15.754 15.754-15.754zm47.262 0c8.665 0 15.754 7.089 15.754 15.754s-7.089 15.754-15.754 15.754-15.754-7.089-15.754-15.754 7.089-15.754 15.754-15.754z" fill="#e4e7e7"/></svg><svg viewBox="0 0 473.94 473.94" id="maestro" xmlns="http://www.w3.org/2000/svg"><circle cx="236.97" cy="236.97" r="236.97" fill="#003473"/><g fill="#009ddd"><path d="M230.767 308.282c20.61-18.604 33.616-45.616 33.616-75.618 0-30.009-13.01-57.006-33.616-75.816-18.009-16.4-42.002-26.406-68.411-26.406-56.404 0-102.226 45.814-102.226 102.218 0 56.419 45.822 102.024 102.226 102.024 26.41.004 50.402-9.994 68.411-26.402z"/><path d="M230.767 308.282c20.61-18.604 33.616-45.616 33.616-75.618 0-30.009-13.01-57.006-33.616-75.816v151.434z"/></g><path d="M299.392 130.446c-26.413 0-50.421 10.006-68.624 26.406a131.15 131.15 0 00-10.204 10.81h20.602c2.806 3.39 5.407 7.199 7.805 10.795h-36.213a153.123 153.123 0 00-6.002 10.803h48.015c1.609 3.596 3.199 7.21 4.4 10.806h-56.598a97.737 97.737 0 00-3.005 11.001h62.608c1.396 6.803 2.208 14.208 2.208 21.601 0 11.203-1.811 22.211-5.212 32.411h-56.598a119.3 119.3 0 004.187 10.803h48.015c-1.796 3.603-3.603 7.401-5.804 10.803h-36.213a108.473 108.473 0 007.805 10.803h20.602c-3.195 3.802-6.601 7.405-10.398 10.803 18.204 16.408 42.211 26.406 68.624 26.406 56.411 0 102.024-45.605 102.024-102.024-.005-56.412-45.613-102.227-102.024-102.227z" fill="#ed1c2e"/><g fill="#fff"><path d="M366.194 254.67c0-1.804 1.609-3.199 3.405-3.199 1.804 0 3.199 1.396 3.199 3.199 0 1.807-1.396 3.405-3.199 3.405-1.796 0-3.405-1.598-3.405-3.405zm3.405 2.604c1.396 0 2.398-1.201 2.398-2.604 0-1.399-1.003-2.402-2.398-2.402-1.403 0-2.593 1.003-2.593 2.402 0 1.403 1.19 2.604 2.593 2.604zm-.401-1.201h-.797v-2.803h1.197c.393 0 .599 0 .804.202.198.198.393.393.393.599 0 .404-.198.804-.599.804l.599 1.197h-.804l-.393-1.003h-.4v1.004zm0-1.598h.793v-.61H369.194v.61h.004zM149.552 258.075h-12.797l7.599-39.809-17.399 39.809h-11.614l-1.995-39.611-7.599 39.611H94.14l9.807-51.809h19.996l.999 32 14.021-32h20.583zM291.586 257.48c-3.603.992-6.204 1.392-9.209 1.392-6.395 0-10.006-3.199-10.006-9.194 0-1.205.206-2.41.4-3.809l.797-4.202.614-3.195 5.796-32.202h12.599l-1.792 9.594h6.593l-1.796 10.211h-6.6l-3.199 17.598c-.206.801-.4 1.403-.4 1.8 0 2.204 1.403 3.195 4.408 3.195a14.53 14.53 0 003.398-.397l-1.603 9.209zM328.593 216.272c-1.003-.408-1.197-.408-1.396-.408-.606-.206-1.003-.206-1.003-.397h-1.396c-4.21 0-7.207 1.8-11.012 6.795l1.197-6.398h-11.607l-7.798 42.211h12.804c4.599-25.815 6.402-30.41 12.599-30.41.4 0 1.01.202 1.602.202l1.403.397 4.607-11.992zM241.166 229.263c0 5.205 3.005 9.003 9.807 11.611 5.205 2.193 6.006 2.799 6.006 4.801 0 2.597-2.406 3.802-7.405 3.802-3.802 0-7.409-.602-11.607-1.796l-1.601 9.803h.606l2.193.595c.797 0 1.994.202 3.398.202 3.005.393 5.407.393 7.207.393 13.403 0 19.805-4.4 19.805-13.998 0-5.804-2.601-9.201-9.201-11.802-5.407-2.002-6.002-2.601-6.002-4.602 0-2.193 2.2-3.398 6.402-3.398 2.398 0 5.994.206 9.194.595l1.804-9.598c-3.398-.591-8.397-.797-11.203-.797-14.397-.007-19.403 6.391-19.403 14.189zM190.76 258.075h-10.406l.206-4.408c-3.199 3.405-7.6 5.003-13.403 5.003-6.795 0-11.6-4.599-11.6-11.401 0-10.208 8.191-16.206 22.406-16.206 1.388 0 3.195 0 5.197.206.4-1.399.4-2.006.4-2.601 0-2.799-2.208-3.802-8.206-3.802-3.603 0-7.592.4-10.398 1.003l-1.796.602-1.205.195 1.796-9.399c6.41-1.609 10.406-2.2 15.214-2.2 10.993 0 16.599 4.195 16.599 12.194 0 2.204-.198 3.805-.995 8.408l-2.601 15.005-.4 2.597-.408 2.208-.198 1.392-.202 1.204zm-9.201-18.81c-1.411-.198-2.002-.198-2.799-.198-7.207 0-10.803 2.2-10.803 6.406 0 2.597 1.594 4.4 4.393 4.4 5.213 0 9.007-4.4 9.209-10.608zM232.563 257.072c-4.393 1.201-8.595 1.796-13.003 1.796-14.185 0-21.601-6.604-21.601-19.005 0-14.406 9.407-25.006 22.211-25.006 10.398 0 17.014 6.002 17.014 15.203 0 3.195-.408 6.211-1.403 10.406h-25.418v1.403c0 4.801 3.603 7.398 11.005 7.398 4.602 0 8.801-.797 13.197-2.593l-2.002 10.398zm-6.795-24.999v-2.204c0-3.398-2.208-5.407-6.002-5.407-4.004 0-6.803 2.799-8.011 7.611h14.013zM368.196 238.868c-2.002 13.994-11.802 20.198-24.812 20.198-14.193 0-19.989-8.595-19.989-19.397 0-14.806 9.792-25.018 24.995-25.018 13.205 0 20.206 8.404 20.206 19.008.004 2.616.004 2.811-.4 5.209zm-13.198-5.407c0-4.4-1.804-8.389-6.993-8.389-6.417 0-10.413 7.592-10.413 14.398 0 5.605 2.806 9.403 7.207 9.403 2.799 0 8.801-3.798 9.8-10.2.399-1.608.399-3.401.399-5.212z"/></g></svg><svg viewBox="0 0 512 512" id="mail" xmlns="http://www.w3.org/2000/svg"><path d="M467 76H45C20.137 76 0 96.262 0 121v270c0 24.885 20.285 45 45 45h422c24.655 0 45-20.03 45-45V121c0-24.694-20.057-45-45-45zm-6.302 30L287.82 277.967c-8.5 8.5-19.8 13.18-31.82 13.18s-23.32-4.681-31.848-13.208L51.302 106h409.396zM30 384.894V127.125L159.638 256.08 30 384.894zM51.321 406l129.587-128.763 22.059 21.943c14.166 14.166 33 21.967 53.033 21.967s38.867-7.801 53.005-21.939l22.087-21.971L460.679 406H51.321zM482 384.894L352.362 256.08 482 127.125v257.769z"/></svg><svg viewBox="0 0 473.94 473.94" id="mastercard" xmlns="http://www.w3.org/2000/svg"><circle cx="236.97" cy="236.97" r="236.97" fill="#3c80ad"/><path d="M159.5 121.955c-59.797.378-108.212 49.133-108.212 109.143 0 60.246 48.789 109.136 108.911 109.136 28.202 0 53.923-10.773 73.275-28.437l-.004-.004h.015a109.581 109.581 0 0011.061-11.689h-22.308a105.639 105.639 0 01-8.123-11.248h38.477a109.12 109.12 0 006.35-11.678H207.77a106.285 106.285 0 01-4.554-11.465h60.28c3.641-10.881 5.605-22.525 5.605-34.615 0-8.03-.872-15.843-2.507-23.379h-66.577c.831-3.88 1.867-7.708 3.102-11.461h60.31a109.416 109.416 0 00-4.696-11.686h-50.97c1.837-3.94 3.921-7.76 6.245-11.465h38.454a108.432 108.432 0 00-8.449-11.678h-21.44a99.77 99.77 0 0110.918-11.019c-19.345-17.672-45.069-28.452-73.286-28.452-.245-.003-.477-.003-.705-.003z" fill="#931b1d"/><path d="M415.189 231.132c.011 60.269-48.721 109.14-108.885 109.158-60.138.019-108.908-48.834-108.926-109.113v-.045c-.019-60.287 48.729-109.162 108.878-109.177 60.145-.022 108.919 48.834 108.934 109.117l-.001.06z" fill="#f16622"/><path d="M415.189 232.337c.011 60.272-48.721 109.151-108.885 109.162-60.138.022-108.908-48.837-108.926-109.106v-.056c-.019-60.276 48.729-109.155 108.878-109.17 60.145-.022 108.919 48.834 108.934 109.113l-.001.057z" fill="#f7981d"/><path d="M159.5 123.194c-59.797.385-108.212 49.129-108.212 109.143 0 60.25 48.789 109.143 108.911 109.143 28.202 0 53.923-10.78 73.275-28.441l-.004-.011h.015a107.894 107.894 0 0011.061-11.689h-22.308a104.76 104.76 0 01-8.123-11.233h38.477c2.35-3.753 4.46-7.659 6.35-11.689H207.77a107.13 107.13 0 01-4.554-11.461h60.28c3.641-10.889 5.605-22.529 5.605-34.619 0-8.026-.872-15.843-2.507-23.375h-66.577a111.133 111.133 0 013.102-11.461h60.31a109.53 109.53 0 00-4.696-11.693h-50.97a106.277 106.277 0 016.245-11.461h38.454a110.45 110.45 0 00-8.449-11.686h-21.44a101.092 101.092 0 0110.918-11.019c-19.345-17.669-45.069-28.449-73.286-28.449l-.705.001z" fill="#cb2026"/><g fill="#fff"><path d="M199.357 260.123l1.456-9.875c-.793 0-1.961.337-2.99.337-4.034 0-4.483-2.148-4.221-3.738l3.259-20.157h6.133l1.482-10.93h-5.781l1.179-6.788h-11.599c-.251.254-6.847 38.215-6.847 42.828 0 6.844 3.828 9.893 9.238 9.848 4.227-.039 7.531-1.21 8.691-1.525zM203.035 241.291c0 16.423 10.81 20.329 20.026 20.329 8.509 0 12.247-1.912 12.247-1.912l2.047-11.21s-6.469 2.874-12.314 2.874c-12.449 0-10.267-9.309-10.267-9.309h23.569s1.515-7.536 1.515-10.604c0-7.652-3.809-16.984-16.535-16.984-11.663.003-20.288 12.586-20.288 26.816zm20.337-16.415c6.541 0 5.332 7.371 5.332 7.966h-12.872c-.004-.759 1.213-7.966 7.54-7.966zM296.793 260.123l2.077-12.681s-5.691 2.874-9.594 2.874c-8.224 0-11.521-6.309-11.521-13.059 0-13.725 7.076-21.276 14.96-21.276 5.905 0 10.649 3.33 10.649 3.33l1.89-12.303s-7.031-2.859-13.055-2.859c-13.388 0-26.417 11.626-26.417 33.5 0 14.481 7.038 24.063 20.875 24.063 3.909.002 10.136-1.589 10.136-1.589zM135.583 214.654c-7.951 0-14.047 2.556-14.047 2.556l-1.68 10.013s5.036-2.043 12.636-2.043c4.318 0 7.472.483 7.472 4.004 0 2.133-.385 2.922-.385 2.922s-3.401-.288-4.98-.288c-10.024 0-20.561 4.288-20.561 17.227 0 10.185 6.907 12.527 11.192 12.527 8.183 0 11.7-5.317 11.895-5.34l-.382 4.445h10.208l4.557-32.011c0-13.575-11.821-14.012-15.925-14.012zm2.488 26.05c.221 1.957-1.227 11.124-8.209 11.124-3.6 0-4.539-2.761-4.539-4.393 0-3.177 1.725-6.997 10.226-6.997 1.972 0 2.185.217 2.522.266zM162.362 261.328c2.608 0 17.538.67 17.538-14.769 0-14.436-13.818-11.588-13.818-17.388 0-2.877 2.253-3.798 6.368-3.798 1.635 0 7.925.528 7.925.528l1.467-10.267s-4.071-.906-10.694-.906c-8.587 0-17.287 3.42-17.287 15.165 0 13.317 14.518 11.97 14.518 17.575 0 3.742-4.06 4.049-7.188 4.049-5.403 0-10.271-1.86-10.294-1.774l-1.545 10.151c.27.095 3.278 1.434 13.01 1.434zM392.84 205.445l-2.496 15.551s-4.367-6.035-11.195-6.035c-10.63 0-19.483 12.834-19.483 27.588 0 9.523 4.718 18.844 14.38 18.844 6.948 0 10.791-4.853 10.791-4.853l-.505 4.142h11.278l8.864-55.262-11.634.025zm-5.381 30.335c0 6.133-3.038 14.323-9.321 14.323-4.176 0-6.125-3.51-6.125-9.018 0-9.003 4.034-14.96 9.122-14.96 4.18.001 6.324 2.882 6.324 9.655zM72.792 260.73l7.068-41.721 1.029 41.721h7.992l14.903-41.721-6.604 41.721h11.869l9.149-55.322h-18.36l-11.431 33.938-.595-33.938H70.895l-9.276 55.322h11.173zM251.454 260.808c3.375-19.229 4-34.851 12.06-32.003 1.411-7.439 2.769-10.316 4.303-13.47 0 0-.718-.153-2.238-.153-5.182 0-9.033 7.109-9.033 7.109l1.025-6.526h-10.799l-7.225 45.043h11.907zM323.546 214.654c-7.951 0-14.043 2.556-14.043 2.556l-1.676 10.013s5.025-2.043 12.632-2.043c4.314 0 7.476.483 7.476 4.004 0 2.133-.389 2.922-.389 2.922s-3.401-.288-4.992-.288c-10.028 0-20.553 4.288-20.553 17.227 0 10.185 6.911 12.527 11.192 12.527 8.183 0 11.704-5.317 11.891-5.34l-.378 4.445h10.215l4.554-32.011c.004-13.575-11.813-14.012-15.929-14.012zm2.492 26.05c.221 1.957-1.22 11.124-8.213 11.124-3.596 0-4.528-2.761-4.528-4.393 0-3.177 1.725-6.997 10.211-6.997 1.984 0 2.19.217 2.53.266zM348.799 260.808c3.379-19.229 4.004-34.851 12.063-32.003 1.411-7.439 2.769-10.316 4.311-13.47 0 0-.73-.153-2.241-.153-5.197 0-9.036 7.109-9.036 7.109l1.033-6.526h-10.806l-7.229 45.04H348.8l-.001.003z"/></g></svg><svg viewBox="0 0 58 58" id="motherboard" xmlns="http://www.w3.org/2000/svg"><path d="M0 6.5v4h3a1 1 0 110 2H0v1h3a1 1 0 110 2H0v1h3a1 1 0 110 2H0v20h3a1 1 0 110 2H0v1h3a1 1 0 110 2H0v1h3a1 1 0 110 2H0v1h3a1 1 0 110 2H0v1h3a1 1 0 110 2H0v2h58v-48H0z" fill="#5e5e60"/><path d="M4 39.5a1 1 0 00-1-1H0v2h3a1 1 0 001-1zM4 42.5a1 1 0 00-1-1H0v2h3a1 1 0 001-1zM4 45.5a1 1 0 00-1-1H0v2h3a1 1 0 001-1zM4 48.5a1 1 0 00-1-1H0v2h3a1 1 0 001-1zM4 51.5a1 1 0 00-1-1H0v2h3a1 1 0 001-1zM4 11.5a1 1 0 00-1-1H0v2h3a1 1 0 001-1zM4 14.5a1 1 0 00-1-1H0v2h3a1 1 0 001-1zM4 17.5a1 1 0 00-1-1H0v2h3a1 1 0 001-1z" fill="#f3cc6d"/><circle cx="27" cy="24.5" r="1" fill="#e7eced"/><circle cx="27" cy="27.5" r="1" fill="#f3cc6d"/><circle cx="27" cy="30.5" r="1" fill="#f3cc6d"/><circle cx="27" cy="15.5" r="1" fill="#f3cc6d"/><circle cx="24" cy="17.5" r="1" fill="#e7eced"/><circle cx="24" cy="21.5" r="1" fill="#e7eced"/><circle cx="55" cy="17.5" r="1" fill="#f3cc6d"/><circle cx="55" cy="24.5" r="1" fill="#f3cc6d"/><circle cx="18" cy="38.5" r="1" fill="#e7eced"/><circle cx="15" cy="38.5" r="1" fill="#e7eced"/><circle cx="12" cy="38.5" r="1" fill="#f3cc6d"/><circle cx="3" cy="26.5" r="1" fill="#f3cc6d"/><circle cx="3" cy="29.5" r="1" fill="#f3cc6d"/><circle cx="3" cy="32.5" r="1" fill="#f3cc6d"/><circle cx="27" cy="18.5" r="1" fill="#f3cc6d"/><circle cx="27" cy="21.5" r="1" fill="#e7eced"/><path d="M50.291 30.5H33.709A1.709 1.709 0 0132 28.791V12.209c0-.944.765-1.709 1.709-1.709H50.29c.944 0 1.709.765 1.709 1.709V28.79a1.708 1.708 0 01-1.708 1.71z" fill="#28812f"/><path fill="#546a79" d="M32 3.5h4v3h-4z"/><path fill="#38454f" d="M36 3.5h4v3h-4z"/><path fill="#546a79" d="M40 3.5h4v3h-4z"/><path fill="#38454f" d="M44 3.5h4v3h-4z"/><path fill="#546a79" d="M48 3.5h4v3h-4z"/><path d="M54 37.5h-2a1 1 0 110-2h2a1 1 0 110 2zM54 41.5h-2a1 1 0 110-2h2a1 1 0 110 2z" fill="#bfa380"/><g fill="#8f8f99"><path d="M24 37.5h2a1 1 0 100-2h-2a1 1 0 100 2zM26 39.5h-2a1 1 0 100 2h2a1 1 0 100-2zM26 43.5h-2a1 1 0 100 2h2a1 1 0 100-2zM26 47.5h-2a1 1 0 100 2h2a1 1 0 100-2z"/></g><path d="M54 45.5h-2a1 1 0 110-2h2a1 1 0 110 2zM54 49.5h-2a1 1 0 110-2h2a1 1 0 110 2z" fill="#bfa380"/><path d="M20 45.5h-2a1 1 0 110-2h2a1 1 0 110 2zM20 48.5h-2a1 1 0 110-2h2a1 1 0 110 2zM12 45.5h-2a1 1 0 110-2h2a1 1 0 110 2zM12 48.5h-2a1 1 0 110-2h2a1 1 0 110 2z" fill="#f3cc6d"/><path d="M10 26.5a1 1 0 01-1-1v-2a1 1 0 112 0v2a1 1 0 01-1 1zM18 32.5a1 1 0 01-1-1v-2a1 1 0 112 0v2a1 1 0 01-1 1z" fill="#38454f"/><path fill="#333331" d="M7 29.5h5v5H7zM37 15.5h10v10H37z"/><g fill="#bfa380"><path d="M38 12.5h2v3h-2zM41 12.5h2v3h-2zM44 12.5h2v3h-2zM38 25.5h2v3h-2zM41 25.5h2v3h-2zM44 25.5h2v3h-2zM47 16.5h3v2h-3zM47 19.5h3v2h-3zM47 22.5h3v2h-3zM34 16.5h3v2h-3zM34 19.5h3v2h-3zM34 22.5h3v2h-3z"/></g><path fill="#353a37" d="M16 6.5h4v23h-4zM8 6.5h4v17H8z"/><path fill="#333331" d="M12 42.5h6v7h-6z"/><path fill="#38454f" d="M26 42.5h26v4H26z"/><path fill="#dd352e" d="M26 38.5h26v4H26zM26 46.5h2v4h-2zM30 46.5h18v4H30zM50 46.5h2v4h-2z"/><path fill="#38454f" d="M30 34.5h18v4H30zM50 34.5h2v4h-2zM26 34.5h2v4h-2z"/><g fill="#283238"><path d="M28 38.5v12h2v-16h-2zM48 34.5v16h2v-16z"/></g><path d="M27 4.5a1 1 0 10-2 0v2h2v-2zM30 4.5a1 1 0 10-2 0v2h2v-2zM56 4.5a1 1 0 10-2 0v2h2v-2z" fill="#cbd4d8"/></svg><svg viewBox="0 0 473.806 473.806" id="phone-call" xmlns="http://www.w3.org/2000/svg"><path d="M374.456 293.506c-9.7-10.1-21.4-15.5-33.8-15.5-12.3 0-24.1 5.3-34.2 15.4l-31.6 31.5c-2.6-1.4-5.2-2.7-7.7-4-3.6-1.8-7-3.5-9.9-5.3-29.6-18.8-56.5-43.3-82.3-75-12.5-15.8-20.9-29.1-27-42.6 8.2-7.5 15.8-15.3 23.2-22.8 2.8-2.8 5.6-5.7 8.4-8.5 21-21 21-48.2 0-69.2l-27.3-27.3c-3.1-3.1-6.3-6.3-9.3-9.5-6-6.2-12.3-12.6-18.8-18.6-9.7-9.6-21.3-14.7-33.5-14.7s-24 5.1-34 14.7l-.2.2-34 34.3c-12.8 12.8-20.1 28.4-21.7 46.5-2.4 29.2 6.2 56.4 12.8 74.2 16.2 43.7 40.4 84.2 76.5 127.6 43.8 52.3 96.5 93.6 156.7 122.7 23 10.9 53.7 23.8 88 26 2.1.1 4.3.2 6.3.2 23.1 0 42.5-8.3 57.7-24.8.1-.2.3-.3.4-.5 5.2-6.3 11.2-12 17.5-18.1 4.3-4.1 8.7-8.4 13-12.9 9.9-10.3 15.1-22.3 15.1-34.6 0-12.4-5.3-24.3-15.4-34.3l-54.9-55.1zm35.8 105.3c-.1 0-.1.1 0 0-3.9 4.2-7.9 8-12.2 12.2-6.5 6.2-13.1 12.7-19.3 20-10.1 10.8-22 15.9-37.6 15.9-1.5 0-3.1 0-4.6-.1-29.7-1.9-57.3-13.5-78-23.4-56.6-27.4-106.3-66.3-147.6-115.6-34.1-41.1-56.9-79.1-72-119.9-9.3-24.9-12.7-44.3-11.2-62.6 1-11.7 5.5-21.4 13.8-29.7l34.1-34.1c4.9-4.6 10.1-7.1 15.2-7.1 6.3 0 11.4 3.8 14.6 7l.3.3c6.1 5.7 11.9 11.6 18 17.9 3.1 3.2 6.3 6.4 9.5 9.7l27.3 27.3c10.6 10.6 10.6 20.4 0 31-2.9 2.9-5.7 5.8-8.6 8.6-8.4 8.6-16.4 16.6-25.1 24.4-.2.2-.4.3-.5.5-8.6 8.6-7 17-5.2 22.7l.3.9c7.1 17.2 17.1 33.4 32.3 52.7l.1.1c27.6 34 56.7 60.5 88.8 80.8 4.1 2.6 8.3 4.7 12.3 6.7 3.6 1.8 7 3.5 9.9 5.3.4.2.8.5 1.2.7 3.4 1.7 6.6 2.5 9.9 2.5 8.3 0 13.5-5.2 15.2-6.9l34.2-34.2c3.4-3.4 8.8-7.5 15.1-7.5 6.2 0 11.3 3.9 14.4 7.3l.2.2 55.1 55.1c10.3 10.2 10.3 20.7.1 31.3zM256.056 112.706c26.2 4.4 50 16.8 69 35.8s31.3 42.8 35.8 69c1.1 6.6 6.8 11.2 13.3 11.2.8 0 1.5-.1 2.3-.2 7.4-1.2 12.3-8.2 11.1-15.6-5.4-31.7-20.4-60.6-43.3-83.5s-51.8-37.9-83.5-43.3c-7.4-1.2-14.3 3.7-15.6 11s3.5 14.4 10.9 15.6zM473.256 209.006c-8.9-52.2-33.5-99.7-71.3-137.5s-85.3-62.4-137.5-71.3c-7.3-1.3-14.2 3.7-15.5 11-1.2 7.4 3.7 14.3 11.1 15.6 46.6 7.9 89.1 30 122.9 63.7 33.8 33.8 55.8 76.3 63.7 122.9 1.1 6.6 6.8 11.2 13.3 11.2.8 0 1.5-.1 2.3-.2 7.3-1.1 12.3-8.1 11-15.4z"/></svg><svg viewBox="0 0 512 512" id="placeholder" xmlns="http://www.w3.org/2000/svg"><path d="M425.951 89.021C386.864 32.451 324.917 0 256.006 0S125.148 32.451 86.061 89.021c-38.895 56.284-47.876 127.541-24.072 190.496 6.367 17.192 16.488 33.895 30.01 49.547l150.378 176.634A17.895 17.895 0 00256.006 512a17.892 17.892 0 0013.629-6.302l150.336-176.586c13.582-15.742 23.69-32.427 30.004-49.481 23.852-63.069 14.871-134.326-24.024-190.61zm-9.5 178.072c-4.869 13.158-12.818 26.167-23.613 38.68-.03.03-.06.06-.084.096L256.006 466.487 119.174 305.768c-10.789-12.502-18.738-25.51-23.655-38.794-19.686-52.065-12.215-110.981 19.991-157.592 32.307-46.76 83.519-73.578 140.496-73.578 56.976 0 108.182 26.817 140.49 73.578 32.212 46.611 39.689 105.527 19.955 157.711z"/><path d="M256.006 106.219c-55.276 0-100.252 44.97-100.252 100.252s44.97 100.252 100.252 100.252 100.252-44.97 100.252-100.252c0-55.276-44.976-100.252-100.252-100.252zm0 164.699c-35.536 0-64.448-28.912-64.448-64.448 0-35.536 28.912-64.448 64.448-64.448 35.536 0 64.448 28.912 64.448 64.448s-28.912 64.448-64.448 64.448z"/></svg><svg viewBox="0 0 512 512" id="remove" xmlns="http://www.w3.org/2000/svg"><path d="M256 0C114.836 0 0 114.836 0 256s114.836 256 256 256 256-114.836 256-256S397.164 0 256 0zm94.273 320.105c8.34 8.344 8.34 21.825 0 30.168a21.275 21.275 0 01-15.086 6.25c-5.46 0-10.921-2.09-15.082-6.25L256 286.164l-64.105 64.11a21.273 21.273 0 01-15.083 6.25 21.275 21.275 0 01-15.085-6.25c-8.34-8.344-8.34-21.825 0-30.169L225.836 256l-64.11-64.105c-8.34-8.344-8.34-21.825 0-30.168 8.344-8.34 21.825-8.34 30.169 0L256 225.836l64.105-64.11c8.344-8.34 21.825-8.34 30.168 0 8.34 8.344 8.34 21.825 0 30.169L286.164 256zm0 0"/></svg><svg viewBox="0 0 492.004 492.004" id="right-arrow" xmlns="http://www.w3.org/2000/svg"><path d="M382.678 226.804L163.73 7.86C158.666 2.792 151.906 0 144.698 0s-13.968 2.792-19.032 7.86l-16.124 16.12c-10.492 10.504-10.492 27.576 0 38.064L293.398 245.9l-184.06 184.06c-5.064 5.068-7.86 11.824-7.86 19.028 0 7.212 2.796 13.968 7.86 19.04l16.124 16.116c5.068 5.068 11.824 7.86 19.032 7.86s13.968-2.792 19.032-7.86L382.678 265c5.076-5.084 7.864-11.872 7.848-19.088.016-7.244-2.772-14.028-7.848-19.108z"/></svg><svg viewBox="0 0 512 512" id="shopping-cart" xmlns="http://www.w3.org/2000/svg"><path d="M504.399 185.065c-6.761-8.482-16.904-13.348-27.83-13.348h-98.604L324.496 49.284c-3.315-7.591-12.157-11.06-19.749-7.743-7.592 3.315-11.059 12.158-7.743 19.75l48.225 110.427H166.771l48.225-110.427c3.315-7.592-.151-16.434-7.743-19.75-7.591-3.317-16.434.15-19.749 7.743l-53.469 122.434H35.431c-10.926 0-21.069 4.865-27.83 13.348C.964 193.394-1.485 204.1.882 214.442l52.657 230c3.677 16.06 17.884 27.276 34.549 27.276h335.824c16.665 0 30.872-11.216 34.549-27.276l52.657-230.001c2.367-10.342-.082-21.048-6.719-29.376zm-80.487 256.652H88.088c-2.547 0-4.778-1.67-5.305-3.972L30.126 207.747c-.413-1.805.28-3.163.936-3.984.608-.764 1.985-2.045 4.369-2.045h85.503l-3.929 8.997c-3.315 7.592.151 16.434 7.743 19.75a14.935 14.935 0 005.995 1.258c5.782 0 11.292-3.363 13.754-9l9.173-21.003h204.662l9.173 21.003c2.462 5.638 7.972 9 13.754 9 2.004 0 4.041-.404 5.995-1.258 7.592-3.315 11.059-12.158 7.743-19.75l-3.929-8.997h85.503c2.384 0 3.761 1.281 4.369 2.045.655.822 1.349 2.18.936 3.983l-52.657 230c-.528 2.301-2.76 3.971-5.307 3.971z"/><path d="M166 266.717c-8.284 0-15 6.716-15 15v110c0 8.284 6.716 15 15 15s15-6.716 15-15v-110c0-8.284-6.715-15-15-15zM256 266.717c-8.284 0-15 6.716-15 15v110c0 8.284 6.716 15 15 15s15-6.716 15-15v-110c0-8.284-6.716-15-15-15zM346 266.717c-8.284 0-15 6.716-15 15v110c0 8.284 6.716 15 15 15s15-6.716 15-15v-110c-.001-8.284-6.716-15-15-15z"/></svg><svg viewBox="0 0 24 24" id="telegram" xmlns="http://www.w3.org/2000/svg"><circle cx="12" cy="12" fill="#039be5" r="12"/><path d="M5.491 11.74l11.57-4.461c.537-.194 1.006.131.832.943l.001-.001-1.97 9.281c-.146.658-.537.818-1.084.508l-3-2.211-1.447 1.394c-.16.16-.295.295-.605.295l.213-3.053 5.56-5.023c.242-.213-.054-.333-.373-.121l-6.871 4.326-2.962-.924c-.643-.204-.657-.643.136-.953z" fill="#fff"/></svg><svg viewBox="0 0 480 480" id="user" xmlns="http://www.w3.org/2000/svg"><path d="M240 0C107.664 0 0 107.664 0 240c0 57.96 20.656 111.184 54.992 152.704.088.12.096.272.192.384 24.792 29.896 55.928 52.816 90.624 67.624.4.168.792.352 1.192.52 2.808 1.184 5.648 2.28 8.496 3.352 1.12.424 2.24.856 3.376 1.264 2.456.88 4.928 1.712 7.416 2.512 1.592.512 3.184 1.016 4.792 1.496 2.2.656 4.408 1.288 6.632 1.888 1.952.528 3.92 1.016 5.888 1.488 1.992.48 3.992.96 6 1.384 2.24.48 4.504.904 6.776 1.32 1.824.336 3.64.688 5.48.984 2.52.408 5.056.728 7.6 1.056 1.64.208 3.272.448 4.92.624 2.88.304 5.784.52 8.696.72 1.352.096 2.696.24 4.056.312 4.248.24 8.544.368 12.872.368s8.624-.128 12.888-.352c1.36-.072 2.704-.216 4.056-.312 2.912-.208 5.816-.416 8.696-.72 1.648-.176 3.28-.416 4.92-.624 2.544-.328 5.08-.648 7.6-1.056 1.832-.296 3.656-.648 5.48-.984 2.264-.416 4.528-.84 6.776-1.32 2.008-.432 4-.904 6-1.384 1.968-.48 3.936-.968 5.888-1.488a232.661 232.661 0 0011.424-3.384c2.488-.8 4.96-1.632 7.416-2.512 1.128-.408 2.248-.84 3.376-1.264a243.168 243.168 0 008.496-3.352c.4-.168.792-.352 1.192-.52a239.997 239.997 0 0090.624-67.624c.096-.112.104-.272.192-.384C459.344 351.184 480 297.96 480 240 480 107.664 372.336 0 240 0zm97.256 441.76c-.12.056-.232.12-.352.176-2.856 1.376-5.76 2.672-8.688 3.936-.664.28-1.32.568-1.984.848a217.023 217.023 0 01-7.76 3.064 159.85 159.85 0 01-3.272 1.192 230.572 230.572 0 01-6.976 2.368c-1.456.464-2.92.904-4.384 1.336a202.08 202.08 0 01-6.28 1.784c-1.776.472-3.568.904-5.36 1.328-1.88.448-3.752.904-5.648 1.304-2.072.44-4.16.816-6.24 1.192-1.688.312-3.368.64-5.072.912-2.344.368-4.712.664-7.072.96-1.496.192-2.984.416-4.496.576-2.696.288-5.416.472-8.128.664-1.208.08-2.408.216-3.632.28-3.96.208-7.928.32-11.912.32s-7.952-.112-11.904-.32c-1.216-.064-2.416-.192-3.632-.28-2.72-.184-5.432-.376-8.128-.664-1.512-.16-3-.384-4.496-.576-2.36-.296-4.728-.592-7.072-.96-1.704-.272-3.384-.6-5.072-.912-2.088-.376-4.176-.76-6.24-1.192-1.896-.4-3.776-.856-5.648-1.304-1.792-.432-3.584-.856-5.36-1.328-2.104-.56-4.2-1.168-6.28-1.784a212.543 212.543 0 01-4.384-1.336 223.256 223.256 0 01-6.976-2.368 217.023 217.023 0 01-11.032-4.256c-.664-.272-1.312-.56-1.976-.84a223.812 223.812 0 01-8.696-3.936 7.216 7.216 0 01-.352-.176c-27.912-13.504-52.568-32.672-72.576-55.952 15.464-56.944 59.24-102.848 115.56-121.112 1.112.68 2.272 1.288 3.416 1.928.672.376 1.336.776 2.016 1.136a99.592 99.592 0 007.272 3.512c1.896.832 3.856 1.536 5.808 2.256.384.136.768.288 1.152.424 10.848 3.84 22.456 6.04 34.6 6.04s23.752-2.2 34.592-6.04c.384-.136.768-.288 1.152-.424 1.952-.72 3.912-1.424 5.808-2.256a99.592 99.592 0 007.272-3.512c.68-.368 1.344-.76 2.016-1.136 1.144-.64 2.312-1.248 3.432-1.936 56.32 18.272 100.088 64.176 115.56 121.112-20.008 23.272-44.664 42.44-72.576 55.952zM152 176c0-48.52 39.48-88 88-88s88 39.48 88 88c0 30.864-16.008 58.024-40.128 73.736a84.742 84.742 0 01-9.8 5.48c-.4.192-.792.392-1.192.576-23.168 10.536-50.592 10.536-73.76 0-.4-.184-.8-.384-1.192-.576a84.083 84.083 0 01-9.8-5.48C168.008 234.024 152 206.864 152 176zm269.832 194.584c-18.136-53.552-59.512-96.832-112.376-117.392C330.6 234.144 344 206.64 344 176c0-57.344-46.656-104-104-104s-104 46.656-104 104c0 30.64 13.4 58.144 34.552 77.192-52.864 20.568-94.24 63.84-112.376 117.392C31.672 333.792 16 288.704 16 240 16 116.488 116.488 16 240 16s224 100.488 224 224c0 48.704-15.672 93.792-42.168 130.584z"/></svg><svg viewBox="0 0 473.96 473.96" id="visa" xmlns="http://www.w3.org/2000/svg"><circle cx="236.98" cy="236.99" r="236.97" fill="#f3f2f2"/><g fill="#293688"><path d="M175.483 282.447l18.133-107.074h29.357l-18.132 107.074zM309.352 178.141c-5.818-2.17-14.933-4.494-26.316-4.494-29.014 0-49.451 14.526-49.627 35.337-.161 15.382 14.589 23.962 25.732 29.088 11.427 5.238 15.27 8.599 15.214 13.28-.071 7.177-9.13 10.458-17.571 10.458-11.749-.004-17.994-1.624-27.637-5.62l-3.783-1.706-4.123 23.97c6.859 2.99 19.543 5.583 32.71 5.714 30.858-.007 50.899-14.353 51.124-36.583.112-12.179-7.712-21.448-24.651-29.092-10.264-4.947-16.55-8.251-16.482-13.272 0-4.449 5.324-9.208 16.815-9.208 9.601-.15 16.557 1.931 21.979 4.101l2.627 1.235 3.989-23.208zM359.405 175.373c-7.034 0-12.116 2.148-15.207 9.119l-43.509 97.959h31.083l6.043-16.408h37.137l3.45 16.408h27.633L381.86 175.376h-22.454l-.001-.003zm-13.343 69.245c2.425-6.166 11.693-29.927 11.693-29.927-.168.281 2.413-6.196 3.895-10.215l1.987 9.227s5.616 25.56 6.795 30.918h-24.37v-.003zM121.946 248.771l-2.586-14.679c-5.358-17.111-21.987-35.625-40.621-44.901l25.938 93.256h31.09l46.626-107.074H151.31l-29.364 73.398z"/></g><g fill="#f7981d"><path d="M46.823 175.373v1.729c36.838 8.86 62.413 31.259 72.538 56.991l-10.645-49.582c-1.777-6.776-7.162-8.902-13.534-9.137l-48.359-.001zM236.964 473.958c91.464 0 170.77-51.846 210.272-127.725H26.696c39.505 75.879 118.808 127.725 210.268 127.725z"/></g><path d="M236.964 0C146.952 0 68.663 50.184 28.548 124.103h416.84C405.268 50.188 326.976 0 236.964 0z" fill="#293688"/></svg><svg viewBox="0 0 512.002 512.002" id="watch" xmlns="http://www.w3.org/2000/svg"><path d="M325.91 98.469c-174.141.898-169.654-2.025-184.697 2.635h-.441c23.714-7.272 28.379-28.279 28.97-31.241l3.708-55.31c.557-3.901 3.498-7.363 7.632-8.275 37.321-8.233 87.33-8.116 122.626-1.124a7.935 7.935 0 016.313 6.667l4.021 57.637s3.151 22.746 27.303 31.068a58.971 58.971 0 00-15.435-2.057z" fill="#f94a46"/><path d="M214.67 8.197l-3.708 61.812c-.473 2.647-3.562 18.184-16.904 28.461-30.664.599-39.205-1.591-52.845 2.635h-.441c23.714-7.272 28.379-28.279 28.97-31.241.992-14.561 3.604-54.726 3.827-55.85 1.321-6.628 7.644-7.802 7.541-7.742 12.725-2.805 24.365-4.264 37.255-5.226-2.074 1.839-3.361 4.541-3.695 7.151z" fill="#ea3939"/><g fill="#ccc"><path d="M399.808 177.735h-3.16c-6.953 0-12.641 5.689-12.641 12.641v18.962c0 6.953 5.689 12.641 12.641 12.641h3.16c6.953 0 12.641-5.688 12.641-12.641v-18.962c.001-6.952-5.688-12.641-12.641-12.641zM399.808 266.926h-3.16c-6.953 0-12.641 5.688-12.641 12.641v48.809c0 6.953 5.689 12.641 12.641 12.641h3.16c6.953 0 12.641-5.688 12.641-12.641v-48.809c.001-6.952-5.688-12.641-12.641-12.641z"/></g><path d="M399.808 307.213h-3.16c-6.953 0-12.641-5.688-12.641-12.641v33.805c0 6.953 5.689 12.641 12.641 12.641h3.16c6.953 0 12.641-5.688 12.641-12.641v-33.805c.001 6.953-5.688 12.641-12.641 12.641z" fill="#bababa"/><path d="M158.681 413.541a58.934 58.934 0 01-17.467-2.635h-.441c23.714 7.272 28.379 28.279 28.97 31.241.989 14.525 3.605 54.729 3.827 55.85 1.321 6.628 7.644 7.802 7.541 7.742 37.297 8.222 87.392 8.092 122.597 1.118a7.935 7.935 0 006.313-6.667l4.021-57.637s3.151-22.746 27.303-31.068c-13.511 3.657-7.349 1.342-182.664 2.056z" fill="#f94a46"/><path d="M214.67 503.813l-3.708-61.812c-.473-2.647-3.562-18.184-16.904-28.461-30.664-.599-39.205 1.591-52.845-2.635h-.441c23.714 7.272 28.379 28.279 28.97 31.241l3.708 55.31c.557 3.893 3.49 7.362 7.632 8.275 12.627 2.785 24.231 4.258 37.284 5.232-2.075-1.837-3.362-4.54-3.696-7.15z" fill="#ea3939"/><path d="M325.91 415.601H158.68c-32.603 0-59.127-26.524-59.127-59.126v-200.94c0-32.602 26.524-59.127 59.127-59.127h167.23c32.603 0 59.126 26.524 59.126 59.127v200.94c.001 32.602-26.523 59.126-59.126 59.126z" fill="#efefef"/><path d="M127.997 356.475v-200.94c0-32.602 26.524-59.126 59.126-59.126H158.68c-32.603 0-59.126 26.524-59.126 59.126v200.94c0 32.602 26.524 59.126 59.126 59.126h28.443c-32.602 0-59.126-26.524-59.126-59.126z" fill="#ddd"/><path d="M158.681 124.852c-16.919 0-30.684 13.765-30.684 30.684v200.94c0 16.919 13.765 30.684 30.684 30.684h167.23c16.919 0 30.684-13.765 30.684-30.684v-200.94c0-16.919-13.765-30.684-30.684-30.684h-167.23z" fill="#ccc"/><path d="M158.793 356.475v-200.94c0-16.919 13.765-30.683 30.683-30.683h-30.795c-16.919 0-30.684 13.765-30.684 30.683v200.94c0 16.919 13.765 30.684 30.684 30.684h30.795c-16.919 0-30.683-13.765-30.683-30.684z" fill="#bababa"/><g fill="#efefef"><path d="M298.549 366.994H186.042a7.727 7.727 0 010-15.454h112.507a7.727 7.727 0 010 15.454z"/><circle cx="166.972" cy="163.581" r="14.158"/></g><path d="M166.975 163.577c-2.619-4.536-2.43-9.912.006-14.147a14.066 14.066 0 00-7.085 1.886c-6.771 3.909-9.091 12.568-5.182 19.34 3.91 6.771 12.568 9.092 19.34 5.182a14.084 14.084 0 005.176-5.193c-4.887-.007-9.637-2.532-12.255-7.068z" fill="#ddd"/><circle cx="241.932" cy="255.401" r="78.31" fill="#898989"/><path d="M200.882 279.1c-18.978-32.871-11.409-73.777 16.045-97.914-47.052 15.908-67.432 70.724-42.812 113.368 21.624 37.453 69.515 50.285 106.968 28.662a78.663 78.663 0 0012.617-9.054c-34.63 11.707-73.84-2.191-92.818-35.062z" fill="#777"/><g fill="#535454"><path d="M240.9 263.732a7.727 7.727 0 01-7.727-7.727v-39.942a7.727 7.727 0 0115.454 0v39.942a7.726 7.726 0 01-7.727 7.727z"/><path d="M277.197 298.24a7.693 7.693 0 01-5.095-1.921l-36.3-31.875a7.728 7.728 0 0110.197-11.612l36.3 31.875a7.728 7.728 0 01-5.102 13.533z"/></g><circle cx="316.882" cy="163.581" r="14.158" fill="#efefef"/><path d="M316.886 163.577c-2.619-4.536-2.43-9.912.006-14.147-10.797-.016-17.748 11.733-12.267 21.225 3.91 6.771 12.568 9.092 19.34 5.182a14.084 14.084 0 005.176-5.193c-4.886-.006-9.636-2.531-12.255-7.067z" fill="#ddd"/><circle cx="241.332" cy="256.011" r="14.158" fill="#efefef"/><path d="M241.336 241.861c-10.797-.016-17.748 11.733-12.267 21.225 3.91 6.772 12.568 9.092 19.34 5.182a14.084 14.084 0 005.176-5.193c-10.89-.016-17.691-11.757-12.249-21.214z" fill="#ddd"/></svg><svg viewBox="0 0 418.135 418.135" id="whatsapp" xmlns="http://www.w3.org/2000/svg"><g fill="#7ad06d"><path d="M198.929.242C88.5 5.5 1.356 97.466 1.691 208.02c.102 33.672 8.231 65.454 22.571 93.536L2.245 408.429c-1.191 5.781 4.023 10.843 9.766 9.483l104.723-24.811c26.905 13.402 57.125 21.143 89.108 21.631 112.869 1.724 206.982-87.897 210.5-200.724C420.113 93.065 320.295-5.538 198.929.242zm124.957 321.955c-30.669 30.669-71.446 47.559-114.818 47.559-25.396 0-49.71-5.698-72.269-16.935l-14.584-7.265-64.206 15.212 13.515-65.607-7.185-14.07c-11.711-22.935-17.649-47.736-17.649-73.713 0-43.373 16.89-84.149 47.559-114.819 30.395-30.395 71.837-47.56 114.822-47.56 43.372.001 84.147 16.891 114.816 47.559 30.669 30.669 47.559 71.445 47.56 114.817-.001 42.986-17.166 84.428-47.561 114.822z"/><path d="M309.712 252.351l-40.169-11.534a14.971 14.971 0 00-14.816 3.903l-9.823 10.008c-4.142 4.22-10.427 5.576-15.909 3.358-19.002-7.69-58.974-43.23-69.182-61.007-2.945-5.128-2.458-11.539 1.158-16.218l8.576-11.095a14.97 14.97 0 001.847-15.21l-16.9-38.223c-4.048-9.155-15.747-11.82-23.39-5.356-11.211 9.482-24.513 23.891-26.13 39.854-2.851 28.144 9.219 63.622 54.862 106.222 52.73 49.215 94.956 55.717 122.449 49.057 15.594-3.777 28.056-18.919 35.921-31.317 5.362-8.453 1.128-19.679-8.494-22.442z"/></g></svg></svg>