<?xml version="1.0" encoding="UTF-8" standalone="no"?>
<!-- Generator: Adobe Illustrator 19.0.0, SVG Export Plug-In . SVG Version: 6.00 Build 0)  -->
<svg id="Capa_1" style="enable-background:new 0 0 396.025 396.025" xmlns="http://www.w3.org/2000/svg" xml:space="preserve" viewBox="0 0 396.025 396.025" version="1.1" y="0px" x="0px" xmlns:xlink="http://www.w3.org/1999/xlink">
		<path d="m375.81 282.82c-1.182-8.252-4.218-16.129-8.88-23.04v-179.92c-0.027-0.932-0.216-1.853-0.56-2.72v-0.64c-0.138-0.33-0.299-0.651-0.48-0.96l-48.8-72c-1.611-2.404-4.395-3.75-7.28-3.52h-249.12c-2.661-0.004-5.15 1.315-6.64 3.52l-48.8 72c-0.181 0.309-0.342 0.63-0.48 0.96v0.64c-0.344 0.867-0.533 1.788-0.56 2.72v278.88c0 4.418 3.582 8 8 8h237.44v13.28c0 8.805 7.115 15.956 15.92 16h110.24c8.837 0 16-7.163 16-16v-81.2c0-8.83-7.16-16-16-16zm-152.16-266.88h82l38 56h-120v-56zm-46.56 0h30.56v56h-42.88l12.32-56zm30.56 72v93.44l-17.84-11.2c-2.475-1.429-5.525-1.429-8 0l-18.32 11.2-0.88-93.44h45.04zm-142.88-72h96l-12.32 56h-121.52l37.843-56zm185.04 282.96v51.92l-229.92-0.08v-262.72h126.88v107.6c0.018 4.418 3.615 7.985 8.033 7.967 1.456-0.006 2.883-0.409 4.127-1.167l26.32-16 26.32 16c3.774 2.298 8.696 1.101 10.993-2.673 0.757-1.244 1.161-2.671 1.167-4.127v-107.6h127.04v156.24c-25.642-16.652-59.928-9.364-76.58 16.278-4.387 6.755-7.247 14.387-8.38 22.362-8.83 0-16 7.17-16 16zm109.6-16h-77.44c4.369-21.384 25.247-35.178 46.631-30.809 15.52 3.18 27.64 15.3 30.81 30.81zm-93.76 97.12v-81.12h110.08l0.08 81.12h-110.16z"/>
		<path d="m320.69 316.1c-4.418 0-8 3.582-8 8v30.72c0 4.418 3.582 8 8 8s8-3.582 8-8v-30.72c0-4.41-3.58-8-8-8z"/>
</svg>
