<?xml version="1.0" encoding="UTF-8" standalone="no"?>
<!-- Generator: Adobe Illustrator 19.0.0, SVG Export Plug-In . SVG Version: 6.00 Build 0)  -->
<svg id="Capa_1" style="enable-background:new 0 0 60 60" xmlns="http://www.w3.org/2000/svg" xml:space="preserve" viewBox="0 0 60 60" height="512px" width="512px" version="1.1" y="0px" x="0px" xmlns:xlink="http://www.w3.org/1999/xlink">
<g fill="#fff">
	<path d="m50.586 0h-41.172c-1.607 0-2.914 1.308-2.914 2.914v54.172c0 1.606 1.307 2.914 2.914 2.914h41.172c1.607 0 2.914-1.308 2.914-2.914v-54.172c0-1.606-1.307-2.914-2.914-2.914zm0.914 57.086c0 0.504-0.41 0.914-0.914 0.914h-41.172c-0.504 0-0.914-0.41-0.914-0.914v-54.172c0-0.504 0.41-0.914 0.914-0.914h41.172c0.504 0 0.914 0.41 0.914 0.914v54.172z"/>
	<path d="m11.5 55h11v-11h-11v11zm2-9h7v7h-7v-7z"/>
	<path d="m24.5 55h11v-11h-11v11zm2-9h7v7h-7v-7z"/>
	<path d="m37.5 55h11v-24h-11v24zm2-22h7v20h-7v-20z"/>
	<path d="m11.5 42h11v-11h-11v11zm2-9h7v7h-7v-7z"/>
	<path d="m24.5 42h11v-11h-11v11zm2-9h7v7h-7v-7z"/>
	<path d="m11.5 29h11v-11h-11v11zm2-9h7v7h-7v-7z"/>
	<path d="m24.5 29h11v-11h-11v11zm2-9h7v7h-7v-7z"/>
	<path d="m37.5 29h11v-11h-11v11zm2-9h7v7h-7v-7z"/>
	<path d="m11.5 15h37v-10h-37v10zm2-8h33v6h-33v-6z"/>
</g>
</svg>
