<?xml version="1.0" encoding="UTF-8" standalone="no"?>
<!-- Generator: Adobe Illustrator 19.0.0, SVG Export Plug-In . SVG Version: 6.00 Build 0)  -->
<svg id="Capa_1" style="enable-background:new 0 0 512 512" xmlns="http://www.w3.org/2000/svg" xml:space="preserve" viewBox="0 0 512 512" height="512px" width="512px" version="1.1" y="0px" x="0px" xmlns:xlink="http://www.w3.org/1999/xlink">
		<path d="m163.26 330.93c-1.87-1.86-4.44-2.93-7.07-2.93s-5.21 1.069-7.08 2.93c-1.86 1.86-2.92 4.44-2.92 7.07s1.06 5.21 2.92 7.069c1.87 1.861 4.44 2.931 7.08 2.931 2.63 0 5.2-1.07 7.07-2.931 1.86-1.859 2.93-4.439 2.93-7.069s-1.07-5.21-2.93-7.07z" fill="#fff"/>
		<path d="m505.64 199.07c-1.223-5.387-6.583-8.76-11.966-7.537-5.386 1.224-8.76 6.581-7.537 11.967 3.155 13.892 5.025 28.146 5.626 42.498h-103.5c-0.716-35.931-5.272-71.344-13.309-103.32 7.664-5.291 13.055-13.642 14.399-23.275 14.908-4.776 28.697-12.699 40.325-23.155 6.84 7.421 13.253 15.304 19.156 23.652 3.188 4.51 9.43 5.579 13.938 2.392 4.509-3.189 5.58-9.43 2.391-13.938-23.178-32.776-54.145-60.007-89.552-78.75-36.6-19.365-77.96-29.6-119.62-29.6-68.38 0-132.67 26.629-181.02 74.98-48.348 48.35-74.977 112.64-74.977 181.02 0 17.474 1.772 34.935 5.266 51.9 0.974 4.729 5.138 7.984 9.784 7.984 0.668 0 1.347-0.067 2.028-0.208 5.409-1.113 8.891-6.402 7.777-11.812-2.555-12.404-4.094-25.101-4.628-37.865h43.773c5.523 0 10-4.478 10-10s-4.477-10-10-10h-43.774c2.414-57.603 25.566-109.93 62.177-149.7 11.366 10.203 24.797 18.002 39.307 22.796 1.315 10.086 7.063 18.793 15.224 24.099-5.292 21.15-9.074 43.601-11.214 66.855-0.506 5.499 3.542 10.368 9.042 10.874 0.312 0.028 0.621 0.043 0.928 0.043 5.109 0 9.469-3.896 9.946-9.085 2.026-22.013 5.581-43.243 10.546-63.224 14.932-0.334 27.521-10.332 31.729-23.98h58.088v167.99c-12.678-17.903-30.154-31.486-50.583-39.286-5.16-1.971-10.939 0.615-12.91 5.774-1.97 5.159 0.616 10.939 5.775 12.909 32.92 12.571 55.557 43.736 57.717 78.637v5.474c0 0.599 0.062 1.183 0.163 1.754-0.938 48.819-40.938 88.245-89.977 88.245-49.626 0-89.999-40.374-89.999-90 0-36.532 21.805-69.181 55.551-83.174 5.102-2.115 7.522-7.967 5.407-13.068s-7.967-7.522-13.068-5.406c-41.242 17.103-67.89 57.003-67.89 101.65 0 34.79 16.239 65.855 41.53 86.026l-46.075 46.075c-4.943 4.944-12.987 4.943-17.93 0-2.395-2.395-3.714-5.579-3.714-8.966s1.319-6.57 3.714-8.965l27.879-27.875c3.905-3.905 3.905-10.237 0-14.143-3.905-3.904-10.237-3.904-14.143 0l-27.889 27.91c-6.173 6.17-9.572 14.38-9.572 23.11 0 8.728 3.399 16.936 9.571 23.108 6.371 6.37 14.739 9.556 23.107 9.556 8.369 0 16.737-3.186 23.108-9.556l49.012-49.012c15.348 8.145 32.838 12.768 51.39 12.768 42.317 0 79.123-24.023 97.513-59.144 0.74 0.174 1.507 0.276 2.3 0.276h65.87c2.145 6.955 6.463 12.966 12.161 17.232-18.67 37.944-42.874 61.472-68.031 66.445v-34.83c0-5.522-4.477-10-10-10s-10 4.478-10 10v35.612c-20.543-0.857-40.777-4.347-60.282-10.424-5.273-1.643-10.879 1.301-12.521 6.574-1.643 5.272 1.3 10.879 6.573 12.521 24.568 7.653 50.191 11.536 76.159 11.543 0.024 0 0.047 0.004 0.071 0.004 0.075 0 0.15-0.005 0.225-0.006 68.296-0.058 132.49-26.679 180.79-74.978 48.36-48.34 74.99-112.62 74.99-181 0-19.21-2.14-38.36-6.36-56.93zm-380.45-99.934c-10.485-3.848-20.216-9.625-28.617-16.985 27.612-25.342 61.256-44.201 98.501-54.162-13.592 13.41-25.726 31.147-36.149 52.875-1.154-0.12-2.327-0.182-3.514-0.182-13.14 0-24.56 7.506-30.22 18.454zm30.23 29.544c-7.72 0-14-6.28-14-14s6.28-14 14-14c7.72 0 14 6.28 14 14s-6.28 14-14 14zm90.58-24h-58.088c-1.94-6.29-5.661-11.802-10.57-15.956 18.756-38.703 43.212-62.693 68.658-67.719v83.675zm169.49-22.586c-8.619 7.566-18.637 13.459-29.444 17.315-5.604-11.096-17.105-18.728-30.363-18.728-0.89 0-1.769 0.045-2.642 0.113-10.392-21.649-22.486-39.333-36.027-52.718 36.59 9.827 70.42 28.348 98.47 54.018zm-45.81 32.586c0 7.72-6.28 14-14 14s-14-6.28-14-14 6.28-14 14-14c7.72 0 14 6.28 14 14zm-103.68-93.673c25.328 5.002 49.675 28.8 68.396 67.188-5.227 4.208-9.19 9.925-11.214 16.487h-57.182v-83.673zm0 103.67h57.183c4.281 13.883 17.229 24 32.497 24 0.053 0 0.105-0.004 0.158-0.004 7.469 30.118 11.711 63.448 12.412 97.321h-102.25v-121.32zm55.87 262.64h-60.178c2.92-9.877 4.494-20.324 4.494-31.133 0-2.042-0.075-4.073-0.186-6.099v-84.086h102.25c-0.687 33.889-4.917 67.212-12.377 97.356-0.501-0.022-1.004-0.038-1.511-0.038-15.25 0-28.2 10.11-32.48 24zm46.5 10c0 7.72-6.281 14-14 14-7.72 0-14-6.28-14-14s6.28-14 14-14 14 6.28 14 14zm-51.44 86.69c13.557-13.377 25.665-31.066 36.073-52.727 0.454 0.018 0.909 0.035 1.368 0.035 13.415 0 25.037-7.811 30.565-19.122 11.21 3.834 21.588 9.84 30.496 17.65-27.62 25.34-61.27 44.2-98.51 54.16zm112.67-68.31c-11.982-10.759-26.207-18.819-41.62-23.536-1.369-8.96-6.249-16.778-13.186-22.007 8.153-32.217 12.763-67.912 13.47-104.15h103.51c-2.41 57.6-25.56 109.93-62.17 149.7z" fill="#fff"/>
		<path d="m490.51 153.18l-0.245-0.556c-2.223-5.056-8.125-7.351-13.18-5.127-5.056 2.224-7.351 8.125-5.127 13.18l0.227 0.515c1.642 3.757 5.314 5.997 9.168 5.997 1.337 0 2.696-0.271 4-0.84 5.07-2.21 7.37-8.1 5.16-13.16z" fill="#fff"/>
		<path d="m156.8 246.19l-0.615-0.001c-5.523 0-10 4.478-10 10s4.477 10 10 10l0.511 0.001h0.053c5.499 0 9.97-4.443 9.999-9.948 0.04-5.52-4.41-10.02-9.94-10.05z" fill="#fff"/>
		<path d="m156.17 284.5c-31.419 0-56.981 25.562-56.981 56.98 0 12.97 4.458 25.618 12.569 35.701 0.085 0.12 0.174 0.238 0.265 0.355l36.264 46.459c1.895 2.428 4.804 3.847 7.884 3.847 3.081 0 5.989-1.42 7.883-3.849l36.437-46.704c0.008-0.011 0.017-0.021 0.025-0.032 8.149-10.092 12.634-22.786 12.634-35.777 0.02-31.43-25.54-56.99-56.96-56.99zm28.69 80.32c-0.094 0.116-0.186 0.234-0.275 0.354l-28.409 36.414-27.963-35.824c-0.174-0.257-0.361-0.507-0.562-0.749-5.452-6.599-8.454-14.956-8.454-23.534 0-20.391 16.59-36.981 36.981-36.981s36.98 16.59 36.98 36.98c-0.01 8.61-2.88 16.68-8.3 23.34z" fill="#fff"/>
</svg>
