<?xml version="1.0" encoding="UTF-8" standalone="no"?>
<svg width="512pt" xmlns="http://www.w3.org/2000/svg" viewBox="0 0 512 511" height="512pt">
 <path d="m234.14 433.62c-3.5078-55.594-23.945-107.82-59.105-151.04-12.129-14.906-34.043-18.062-49.883-7.1875-14.805 10.164-20.23 29.438-12.906 45.828l17.586 39.34c-28.164-18.469-47.258-48.684-51.625-82.285l-15.383-118.34c-2.0391-15.664-15.484-27.477-31.281-27.477-17.395 0-31.543 14.148-31.543 31.543v42.457c0 5.5234 4.4766 10 10 10s10-4.4766 10-10v-42.457c0-6.3633 5.1797-11.543 11.543-11.543 5.7812 0 10.699 4.3242 11.445 10.055l15.383 118.34c5.5273 42.504 31.152 80.379 68.547 101.32 6.6836 3.7461 14.66 2.8242 20.316-2.3438 5.6562-5.168 7.293-13.031 4.1641-20.023l-20.891-46.742c-3.3867-7.5742-0.87891-16.484 5.9609-21.18 7.3281-5.0234 17.449-3.5625 23.055 3.3242 32.512 39.957 51.414 88.254 54.656 139.67l4.3047 68.215c0.33594 5.2969 4.7383 9.3711 9.9727 9.3711 0.21094 0 0.42578-0.007812 0.64062-0.019531 5.5117-0.35156 9.6992-5.1016 9.3516-10.613z"/>
 <path d="m10 253.46c2.6289 0 5.2109-1.0586 7.0703-2.9219 1.8594-1.8672 2.9297-4.4375 2.9297-7.0703 0-2.6367-1.0703-5.2188-2.9297-7.0781-1.8594-1.8594-4.4414-2.9297-7.0703-2.9297s-5.2109 1.0703-7.0703 2.9297c-1.8594 1.8594-2.9297 4.4414-2.9297 7.0781 0 2.6328 1.0703 5.2109 2.9297 7.0703 1.8594 1.8633 4.4414 2.9219 7.0703 2.9219z"/>
 <path d="m56.902 419.89c-23.797-28.812-36.902-65.266-36.902-102.64v-38.281c0-5.5234-4.4766-10-10-10s-10 4.4766-10 10v38.281c0 42.012 14.73 82.988 41.484 115.38l62.938 76.207c1.9766 2.3945 4.8359 3.6328 7.7148 3.6328 2.2422 0 4.5-0.75 6.3633-2.2891 4.2578-3.5195 4.8594-9.8203 1.3438-14.078z"/>
 <path d="m480.46 132.47c-15.797 0-29.242 11.812-31.281 27.477l-15.383 118.34c-4.3672 33.602-23.457 63.816-51.621 82.285l17.582-39.34c7.3242-16.391 1.8984-35.664-12.906-45.828-15.84-10.875-37.754-7.7188-49.883 7.1875-35.16 43.211-55.598 95.441-59.105 151.04l-4.3047 68.215c-0.35156 5.5117 3.8359 10.262 9.3477 10.609 0.21484 0.011719 0.42969 0.019531 0.64062 0.019531 5.2344 0 9.6367-4.0703 9.9727-9.3711l4.3047-68.211c3.2461-51.414 22.145-99.711 54.66-139.67 5.6016-6.8906 15.727-8.3477 23.051-3.3242 6.8398 4.6992 9.3516 13.605 5.9648 21.18l-20.895 46.742c-3.125 6.9961-1.4922 14.855 4.1641 20.023 5.6562 5.168 13.633 6.0898 20.32 2.3477 37.395-20.941 63.016-58.816 68.543-101.32l15.383-118.34c0.74609-5.7305 5.668-10.055 11.445-10.055 6.3672 0 11.543 5.1797 11.543 11.543v153.24c0 37.371-13.105 73.824-36.902 102.64l-62.938 76.207c-3.5195 4.2578-2.918 10.562 1.3398 14.078 4.2617 3.5195 10.562 2.9141 14.078-1.3438l62.938-76.207c26.754-32.391 41.484-73.367 41.484-115.38v-153.24c0-17.395-14.148-31.543-31.543-31.543z"/>
 <path d="m376 144.96c-2.6289 0-5.2109 1.0703-7.0703 2.9297s-2.9297 4.4414-2.9297 7.0781c0 2.6328 1.0703 5.2031 2.9297 7.0703 1.8594 1.8633 4.4414 2.9219 7.0703 2.9219s5.2109-1.0586 7.0703-2.9219c1.8594-1.8672 2.9297-4.4375 2.9297-7.0703 0-2.6367-1.0703-5.207-2.9297-7.0781-1.8594-1.8594-4.4414-2.9297-7.0703-2.9297z"/>
 <path d="m386 218.34v-28.375c0-5.5234-4.4766-10-10-10s-10 4.4766-10 10v22.605l-100 57.734v-115.47l100-57.734v21.367c0 5.5234 4.4766 10 10 10s10-4.4766 10-10v-38.688c0-3.5742-1.9062-6.875-5-8.6602l-120-69.281c-3.0938-1.7852-6.9062-1.7852-10 0l-120 69.281c-3.0938 1.7852-5 5.0859-5 8.6602v138.56c0 3.5742 1.9062 6.875 5 8.6602l120 69.285c1.5469 0.89063 3.2734 1.3398 5 1.3398s3.4531-0.44922 5-1.3398l120-69.285c3.0938-1.7852 5-5.0859 5-8.6602zm-130-196.3 100 57.734-100 57.734-100-57.734zm-110 75.055 100 57.734v115.47l-100-57.734z"/>
</svg>
