<?xml version="1.0" encoding="UTF-8" standalone="no"?>
<!-- Generator: Adobe Illustrator 19.0.0, SVG Export Plug-In . SVG Version: 6.00 Build 0)  -->
<svg id="Capa_1" style="enable-background:new 0 0 511.995 511.995" xmlns="http://www.w3.org/2000/svg" xml:space="preserve" viewBox="0 0 511.995 511.995" version="1.1" y="0px" x="0px" xmlns:xlink="http://www.w3.org/1999/xlink">
		<path d="m433.49 187.38c-0.003-0.177-0.011-0.354-0.026-0.529-0.006-0.065-0.014-0.129-0.022-0.193-0.021-0.183-0.048-0.365-0.082-0.547-0.01-0.052-0.021-0.103-0.033-0.156-0.04-0.191-0.088-0.381-0.143-0.568-0.013-0.042-0.026-0.083-0.039-0.124-0.06-0.193-0.129-0.385-0.205-0.572-0.016-0.037-0.031-0.074-0.047-0.111-0.078-0.186-0.164-0.367-0.258-0.547-0.022-0.041-0.043-0.082-0.066-0.123-0.093-0.169-0.191-0.334-0.297-0.496-0.031-0.048-0.064-0.096-0.096-0.143-0.104-0.151-0.212-0.298-0.327-0.441-0.04-0.051-0.081-0.102-0.123-0.15-0.118-0.141-0.242-0.276-0.371-0.408-0.02-0.021-0.039-0.045-0.06-0.065-0.021-0.021-0.046-0.04-0.067-0.061-0.131-0.128-0.266-0.25-0.407-0.369-0.051-0.042-0.103-0.084-0.155-0.126-0.142-0.112-0.288-0.221-0.44-0.324-0.049-0.034-0.1-0.066-0.149-0.1-0.093-0.06-0.18-0.124-0.275-0.181l-112.55-66.21c7.313-10.972 11.243-23.852 11.243-37.336 0-18.029-7.022-34.98-19.771-47.728-5.912-5.913-12.704-10.56-20.222-13.902v-8.364c0-4.143-3.357-7.5-7.5-7.5s-7.5 3.357-7.5 7.5v13.418c0 0.059 0.008 0.116 0.009 0.175 0.004 0.154 0.01 0.309 0.023 0.462 0.009 0.106 0.021 0.211 0.035 0.315 0.017 0.133 0.036 0.264 0.06 0.395 0.022 0.123 0.049 0.245 0.077 0.366 0.025 0.108 0.053 0.216 0.083 0.323 0.038 0.135 0.079 0.267 0.125 0.398 0.031 0.093 0.065 0.186 0.102 0.277 0.052 0.135 0.107 0.267 0.168 0.398 0.04 0.089 0.083 0.177 0.127 0.264 0.063 0.125 0.129 0.248 0.198 0.368 0.054 0.093 0.109 0.185 0.167 0.275 0.068 0.107 0.138 0.212 0.211 0.315 0.07 0.101 0.143 0.198 0.22 0.294 0.068 0.088 0.139 0.174 0.211 0.259 0.089 0.103 0.18 0.202 0.273 0.3 0.07 0.074 0.142 0.146 0.216 0.217 0.101 0.097 0.204 0.191 0.31 0.282 0.078 0.067 0.157 0.133 0.238 0.196 0.105 0.084 0.213 0.164 0.323 0.242 0.095 0.067 0.192 0.132 0.29 0.194 0.101 0.064 0.201 0.126 0.306 0.186 0.121 0.069 0.244 0.135 0.369 0.197 0.089 0.044 0.177 0.088 0.268 0.129 0.147 0.066 0.297 0.127 0.448 0.184 0.051 0.019 0.099 0.043 0.149 0.061 7.408 2.611 14.005 6.776 19.608 12.381 9.916 9.915 15.377 23.099 15.377 37.121 0 10.766-3.23 21.029-9.212 29.707l-22.372-13.161c2.942-4.957 4.515-10.629 4.515-16.544 0-8.681-3.381-16.843-9.456-22.917l-33.467-34.281v-12.797c0-4.143-3.358-7.5-7.5-7.5s-7.5 3.357-7.5 7.5v15.85c0 0.085 0.01 0.168 0.013 0.252 0.005 0.149 0.009 0.297 0.022 0.445 0.011 0.116 0.03 0.23 0.046 0.346 0.018 0.127 0.034 0.254 0.058 0.38 0.023 0.122 0.054 0.241 0.083 0.36 0.029 0.118 0.056 0.235 0.09 0.352 0.035 0.119 0.077 0.234 0.118 0.351 0.04 0.115 0.079 0.229 0.125 0.343 0.045 0.112 0.097 0.221 0.148 0.329 0.052 0.113 0.104 0.227 0.162 0.337 0.056 0.106 0.119 0.21 0.18 0.313 0.063 0.106 0.124 0.213 0.192 0.316 0.071 0.107 0.148 0.21 0.224 0.313 0.069 0.093 0.135 0.188 0.208 0.278 0.093 0.115 0.194 0.224 0.294 0.333 0.057 0.063 0.108 0.129 0.168 0.19l35.663 36.531c3.306 3.306 5.127 7.7 5.127 12.374 0 3.195-0.87 6.251-2.465 8.926l-9.157-5.387c-3.571-2.1-8.167-0.908-10.267 2.662s-0.909 8.167 2.662 10.268l1.739 1.022c-4.485 0.004-8.972-1.702-12.387-5.117l-33.201-33.199c-1.896-1.895-4.657-2.636-7.249-1.939-2.589 0.695-4.61 2.72-5.301 5.31-4.583 17.175-2.113 35.299 6.34 50.442l-119.92 70.56c-0.082 0.049-0.157 0.104-0.237 0.155-0.079 0.051-0.156 0.102-0.233 0.154-0.115 0.079-0.226 0.161-0.335 0.246-0.1 0.077-0.197 0.156-0.293 0.238-0.082 0.07-0.161 0.142-0.239 0.215-0.055 0.052-0.115 0.098-0.169 0.151-0.049 0.05-0.093 0.105-0.141 0.156-0.077 0.082-0.151 0.165-0.224 0.249-0.076 0.088-0.15 0.177-0.221 0.268-0.093 0.119-0.182 0.24-0.267 0.363-0.044 0.064-0.088 0.128-0.13 0.194-0.099 0.153-0.192 0.311-0.279 0.47-0.024 0.044-0.048 0.088-0.071 0.133-0.093 0.179-0.178 0.36-0.257 0.546-0.015 0.035-0.03 0.07-0.044 0.105-0.077 0.189-0.146 0.383-0.207 0.578-0.012 0.039-0.025 0.078-0.036 0.117-0.056 0.188-0.103 0.379-0.144 0.571-0.011 0.052-0.023 0.104-0.033 0.156-0.034 0.18-0.06 0.361-0.082 0.544-0.007 0.064-0.016 0.13-0.022 0.195-0.016 0.175-0.023 0.35-0.026 0.525-0.001 0.046-0.007 0.091-0.007 0.137v216.99c0 4.14 3.36 7.5 7.5 7.5 4.13 0 7.5-3.36 7.5-7.5v-209.5h15.001v301.99h-15v-62.5c0-4.13-3.37-7.5-7.5-7.5-4.14 0-7.5 3.37-7.5 7.5v70c0 1.979 0.8 3.91 2.19 5.3 1.4 1.4 3.33 2.2 5.31 2.2h340c1.979 0 3.91-0.8 5.3-2.2 1.4-1.39 2.2-3.33 2.2-5.3v-316.99c0.01-0.05 0-0.09 0-0.13zm-202.55-86.9c10.881 10.881 27.617 12.41 40.154 4.605l22.731 13.372c-20.595 16.534-50.861 15.26-69.956-3.836-9.79-9.791-15.181-23.007-15.346-36.558l22.43 22.428zm157.56 396.52h-265v-15.006h265v15.01zm-265-287v-15.005h265v15.005h-265zm225 15v241.99h-25v-241.99h25zm-40 0v241.99h-25v-241.99h25zm-40 0v241.99h-25v-241.99h25zm-40 0v241.99h-25v-241.99h25zm-40 0v241.99h-25v-241.99h25zm-40 0v241.99h-25v-241.99h25zm240 241.99h-25.002v-241.99h25.002v241.99zm7.6-286.98c-0.032 0-0.063-0.005-0.097-0.005s-0.064 0.005-0.097 0.005h-279.8c-0.033 0-0.064-0.005-0.097-0.005s-0.064 0.005-0.097 0.005h-2.373l97.375-57.281c0.766 0.847 1.547 1.683 2.36 2.496 13.159 13.159 30.444 19.738 47.73 19.738 16.729 0 33.446-6.182 46.436-18.508l91.038 53.555h-2.37zm22.4 316.99h-14.998v-302h14.998v302z"/>
</svg>
