<?xml version="1.0" encoding="UTF-8" standalone="no"?>
<!-- Generator: Adobe Illustrator 16.0.0, SVG Export Plug-In . SVG Version: 6.00 Build 0)  -->
<!DOCTYPE svg  PUBLIC '-//W3C//DTD SVG 1.1//EN'  'http://www.w3.org/Graphics/SVG/1.1/DTD/svg11.dtd'>
<svg id="Capa_1" style="enable-background:new 0 0 371 371" xmlns="http://www.w3.org/2000/svg" xml:space="preserve" height="371px" viewBox="0 0 371 371" width="371px" version="1.1" y="0px" x="0px" xmlns:xlink="http://www.w3.org/1999/xlink">
		<path d="m364.86 0h-358.72c-3.388 0-6.14 2.752-6.14 6.135v358.73c0 3.39 2.752 6.14 6.135 6.14h358.73c3.383 0 6.135-2.751 6.135-6.134v-358.74c0-3.378-2.75-6.13-6.14-6.13zm-352.59 81.293h56.755v208.42h-56.755v-208.42zm346.46 277.44h-346.46v-56.756h346.46v56.76zm-98.03-277.44h29.005v22.273l-179.4 186.14h-29.009v-22.327l179.41-186.09zm-179.41 168.48v-168.48h60.513v105.69l-60.509 62.79zm72.779-75.51v-92.967h62.855v27.738l-62.85 65.23zm75.13-77.959v-15.008h14.467l-14.47 15.008zm-0.01 87.719l60.515-62.795v168.48h-60.513v-105.61-0.07zm-12.26 12.72v92.963h-62.854v-27.739l62.85-65.22zm-75.13 77.96v15.009h-14.466l14.47-15.01zm216.93 15.01h-56.756v-208.42h56.756v208.42zm0-220.69h-346.46v-56.753h346.46v56.753z"/>
		<path d="m51.682 51.728c6.1 0 11.063-4.963 11.063-11.064s-4.963-11.064-11.063-11.064c-6.102 0-11.066 4.963-11.066 11.064s4.964 11.064 11.066 11.064z"/>
		<path d="m319.32 51.728c6.102 0 11.065-4.963 11.065-11.064s-4.96-11.064-11.06-11.064c-6.101 0-11.063 4.963-11.063 11.064s4.96 11.064 11.06 11.064z"/>
		<path d="m51.682 341.4c6.1 0 11.063-4.964 11.063-11.063 0-6.102-4.963-11.064-11.063-11.064-6.102 0-11.066 4.963-11.066 11.064-0.001 6.1 4.964 11.06 11.066 11.06z"/>
		<path d="m319.32 341.4c6.102 0 11.065-4.964 11.065-11.063 0-6.102-4.965-11.064-11.065-11.064s-11.063 4.963-11.063 11.064c0 6.1 4.96 11.06 11.06 11.06z"/>
</svg>
