<svg xmlns="http://www.w3.org/2000/svg">
  <symbol id="clock" viewBox="0 0 97.16 97.16">
    <g>
      <path d="M48.58,0C21.793,0,0,21.793,0,48.58s21.793,48.58,48.58,48.58s48.58-21.793,48.58-48.58S75.367,0,48.58,0z M48.58,86.823
      c-21.087,0-38.244-17.155-38.244-38.243S27.493,10.337,48.58,10.337S86.824,27.492,86.824,48.58S69.667,86.823,48.58,86.823z"/>
      <path d="M73.898,47.08H52.066V20.83c0-2.209-1.791-4-4-4c-2.209,0-4,1.791-4,4v30.25c0,2.209,1.791,4,4,4h25.832
      c2.209,0,4-1.791,4-4S76.107,47.08,73.898,47.08z"/>
    </g>
  </symbol>

  <symbol id="phone" viewBox="0 0 513.64 513.64">
    <g>
      <path d="M499.66,376.96l-71.68-71.68c-25.6-25.6-69.12-15.359-79.36,17.92c-7.68,23.041-33.28,35.841-56.32,30.72
			c-51.2-12.8-120.32-79.36-133.12-133.12c-7.68-23.041,7.68-48.641,30.72-56.32c33.28-10.24,43.52-53.76,17.92-79.36l-71.68-71.68
			c-20.48-17.92-51.2-17.92-69.12,0l-48.64,48.64c-48.64,51.2,5.12,186.88,125.44,307.2c120.32,120.32,256,176.641,307.2,125.44
			l48.64-48.64C517.581,425.6,517.581,394.88,499.66,376.96z"/>
    </g>
  </symbol>

  <symbol id="hexagon" viewBox="0 0 512 512">
    <path d="m485.291 129.408-224-128c-3.285-1.877-7.296-1.877-10.581 0l-224 128c-3.328 1.899-5.376 5.44-5.376 9.259v234.667c0 3.819 2.048 7.36 5.376 9.259l224 128c1.643.939 3.456 1.408 5.291 1.408s3.648-.469 5.291-1.408l224-128c3.328-1.899 5.376-5.44 5.376-9.259v-234.667c-.001-3.819-2.049-7.36-5.377-9.259z"/>
  </symbol>

  <symbol id="placeholder" viewBox="0 0 97.713 97.713">
    <g>
      <path d="M48.855,0C29.021,0,12.883,16.138,12.883,35.974c0,5.174,1.059,10.114,3.146,14.684
      c8.994,19.681,26.238,40.46,31.31,46.359c0.38,0.441,0.934,0.695,1.517,0.695s1.137-0.254,1.517-0.695
      c5.07-5.898,22.314-26.676,31.311-46.359c2.088-4.57,3.146-9.51,3.146-14.684C84.828,16.138,68.69,0,48.855,0z M48.855,54.659
      c-10.303,0-18.686-8.383-18.686-18.686c0-10.304,8.383-18.687,18.686-18.687s18.686,8.383,18.686,18.687
      C67.542,46.276,59.159,54.659,48.855,54.659z"/>
    </g>
  </symbol>

  <symbol id="arrow-left" viewBox="0 0 492.004 492.004">
    <g transform="matrix(-1 1.22465e-16 -1.22465e-16 -1 492.004 492.004)">
      <path d="M382.678,226.804L163.73,7.86C158.666,2.792,151.906,0,144.698,0s-13.968,2.792-19.032,7.86l-16.124,16.12    c-10.492,10.504-10.492,27.576,0,38.064L293.398,245.9l-184.06,184.06c-5.064,5.068-7.86,11.824-7.86,19.028    c0,7.212,2.796,13.968,7.86,19.04l16.124,16.116c5.068,5.068,11.824,7.86,19.032,7.86s13.968-2.792,19.032-7.86L382.678,265    c5.076-5.084,7.864-11.872,7.848-19.088C390.542,238.668,387.754,231.884,382.678,226.804z"/>
    </g>
  </symbol>

  <symbol id="arrow-right" viewBox="0 0 492.004 492.004">
    <g>
      <path d="M382.678,226.804L163.73,7.86C158.666,2.792,151.906,0,144.698,0s-13.968,2.792-19.032,7.86l-16.124,16.12
			c-10.492,10.504-10.492,27.576,0,38.064L293.398,245.9l-184.06,184.06c-5.064,5.068-7.86,11.824-7.86,19.028
			c0,7.212,2.796,13.968,7.86,19.04l16.124,16.116c5.068,5.068,11.824,7.86,19.032,7.86s13.968-2.792,19.032-7.86L382.678,265
			c5.076-5.084,7.864-11.872,7.848-19.088C390.542,238.668,387.754,231.884,382.678,226.804z"/>
    </g>
  </symbol>
</svg>