<svg width="510" height="510" viewBox="0 0 510 510" fill="none" xmlns="http://www.w3.org/2000/svg">
<rect width="510" height="510" rx="255" fill="#FF0000"/>
<path d="M161.451 365H152.192V328.301H132.658V365H123.337V320.611H161.451V365ZM184.615 365.584C179.467 365.584 175.396 364.026 172.402 360.909C169.408 357.792 167.911 353.505 167.911 348.05C167.911 342.657 169.418 338.391 172.433 335.253C175.448 332.116 179.508 330.547 184.615 330.547C189.742 330.547 193.802 332.116 196.796 335.253C199.811 338.371 201.318 342.636 201.318 348.05C201.318 353.526 199.821 357.822 196.827 360.939C193.854 364.036 189.783 365.584 184.615 365.584ZM179.016 355.895C180.37 357.74 182.236 358.663 184.615 358.663C186.994 358.663 188.85 357.74 190.183 355.895C191.516 354.028 192.182 351.414 192.182 348.05C192.182 344.728 191.505 342.134 190.152 340.268C188.819 338.381 186.973 337.438 184.615 337.438C182.236 337.438 180.37 338.381 179.016 340.268C177.683 342.134 177.017 344.728 177.017 348.05C177.017 351.414 177.683 354.028 179.016 355.895ZM229.558 358.171V337.899H219.222L218.453 348.85C218.145 352.87 217.304 355.895 215.93 357.925V358.171H229.558ZM212.331 373.767H204.148V358.171H206.763C208.896 356.981 210.147 353.69 210.516 348.296L211.624 331.131H238.479V358.171H243.523V373.767H235.341V365H212.331V373.767ZM260.688 358.848C262.801 358.848 264.575 358.263 266.01 357.094C267.446 355.905 268.164 354.397 268.164 352.572V350.081L261.058 350.573C259.191 350.696 257.766 351.116 256.782 351.834C255.797 352.552 255.305 353.536 255.305 354.787C255.305 356.038 255.787 357.033 256.751 357.771C257.735 358.489 259.048 358.848 260.688 358.848ZM257.766 365.4C254.464 365.4 251.737 364.457 249.583 362.57C247.43 360.683 246.354 358.243 246.354 355.249C246.354 352.193 247.492 349.804 249.768 348.081C252.044 346.358 255.356 345.364 259.704 345.097L268.164 344.574V342.329C268.164 340.708 267.641 339.468 266.595 338.606C265.549 337.725 264.093 337.284 262.227 337.284C260.627 337.284 259.284 337.673 258.197 338.453C257.13 339.211 256.484 340.216 256.259 341.467H248.045C248.168 338.227 249.563 335.602 252.229 333.592C254.916 331.562 258.371 330.547 262.596 330.547C266.943 330.547 270.43 331.572 273.055 333.623C275.68 335.674 276.992 338.391 276.992 341.775V365H268.317V359.771H268.133C267.23 361.514 265.826 362.888 263.918 363.893C262.032 364.897 259.981 365.4 257.766 365.4ZM302.678 330.731C306.985 330.731 310.379 332.28 312.86 335.376C315.342 338.453 316.583 342.677 316.583 348.05C316.583 353.423 315.342 357.658 312.86 360.755C310.399 363.852 307.046 365.4 302.801 365.4C300.361 365.4 298.228 364.867 296.403 363.8C294.578 362.734 293.204 361.237 292.281 359.309H292.096V375.644H283.114V331.131H291.973V336.915H292.158C293.06 335.007 294.444 333.5 296.311 332.393C298.177 331.285 300.299 330.731 302.678 330.731ZM299.694 358.14C302.032 358.14 303.898 357.228 305.293 355.402C306.688 353.577 307.385 351.126 307.385 348.05C307.385 345.015 306.677 342.585 305.262 340.76C303.868 338.914 302.012 337.991 299.694 337.991C297.397 337.991 295.552 338.914 294.157 340.76C292.763 342.605 292.065 345.046 292.065 348.081C292.065 351.116 292.763 353.557 294.157 355.402C295.552 357.228 297.397 358.14 299.694 358.14ZM337.562 365.584C332.415 365.584 328.344 364.026 325.35 360.909C322.355 357.792 320.858 353.505 320.858 348.05C320.858 342.657 322.366 338.391 325.38 335.253C328.395 332.116 332.456 330.547 337.562 330.547C342.689 330.547 346.75 332.116 349.744 335.253C352.758 338.371 354.266 342.636 354.266 348.05C354.266 353.526 352.769 357.822 349.774 360.939C346.801 364.036 342.73 365.584 337.562 365.584ZM331.963 355.895C333.317 357.74 335.183 358.663 337.562 358.663C339.941 358.663 341.797 357.74 343.13 355.895C344.463 354.028 345.129 351.414 345.129 348.05C345.129 344.728 344.453 342.134 343.099 340.268C341.766 338.381 339.92 337.438 337.562 337.438C335.183 337.438 333.317 338.381 331.963 340.268C330.63 342.134 329.964 344.728 329.964 348.05C329.964 351.414 330.63 354.028 331.963 355.895ZM377.122 346.851L391.58 365H380.721L369.031 350.357H368.785V365H359.833V331.131H368.785V344.851H369.031L380.536 331.131H390.811L377.122 346.851Z" fill="white"/>
<path d="M130.933 294C140.407 294 146.283 289.109 146.283 281.295C146.283 275.42 141.853 271.021 135.824 270.56V270.313C140.53 269.606 144.16 265.545 144.16 260.685C144.16 253.887 138.931 249.611 130.594 249.611H110.999V294H130.933ZM120.289 256.532H128.195C132.532 256.532 135.024 258.562 135.024 262.131C135.024 265.884 132.194 268.068 127.241 268.068H120.289V256.532ZM120.289 287.079V274.189H128.349C133.824 274.189 136.808 276.404 136.808 280.557C136.808 284.802 133.917 287.079 128.564 287.079H120.289ZM183.566 294H192.518V260.131H183.566V294ZM165.693 276.65C169.108 276.65 171.323 278.773 171.323 281.941C171.323 285.11 169.108 287.263 165.693 287.263H160.525V276.65H165.693ZM151.574 294H167.108C175.106 294 180.213 289.324 180.213 282.003C180.213 274.651 175.106 269.975 167.108 269.975H160.525V260.131H151.574V294ZM215.25 294.738C225.525 294.738 231.923 288.125 231.923 277.45C231.923 267.545 225.986 261.3 216.85 261.3C211.344 261.3 207.499 263.638 205.407 267.637H205.161C206.299 258.716 209.252 254.687 217.711 254.41L221.372 254.287C225.956 254.164 229.155 253.302 229.708 252.81V245.796C228.724 246.319 225.002 247.058 220.788 247.211L216.942 247.334C204.515 247.765 198.208 255.24 198.208 274.497C198.208 287.786 204.33 294.738 215.25 294.738ZM215.066 287.632C210.236 287.632 207.406 284.033 207.406 277.666C207.406 271.575 210.267 268.037 215.066 268.037C219.896 268.037 222.726 271.575 222.726 277.666C222.726 284.033 219.896 287.632 215.066 287.632ZM252.503 266.253C256.656 266.253 259.547 269.145 259.701 273.574H245.089C245.397 269.237 248.412 266.253 252.503 266.253ZM259.824 283.664C258.963 286.279 256.287 287.878 252.903 287.878C248.166 287.878 244.997 284.587 244.997 279.696V279.142H268.376V276.374C268.376 266.068 262.162 259.547 252.411 259.547C242.475 259.547 236.138 266.438 236.138 277.204C236.138 287.971 242.444 294.584 252.749 294.584C260.993 294.584 267.115 290.216 268.099 283.664H259.824ZM293.385 259.731C288.617 259.731 284.649 262.1 282.865 265.915H282.68V260.131H273.821V305.074H282.803V288.309H282.988C284.833 292.154 288.617 294.4 293.508 294.4C301.999 294.4 307.29 287.817 307.29 277.05C307.29 266.284 301.968 259.731 293.385 259.731ZM290.401 287.14C285.818 287.14 282.772 283.172 282.772 277.081C282.772 271.021 285.818 266.991 290.401 266.991C295.046 266.991 298.092 270.959 298.092 277.05C298.092 283.203 295.046 287.14 290.401 287.14ZM321.625 294L335.344 272.313H335.59V294H344.388V260.131H335.59L321.871 281.572H321.625V260.131H312.827V294H321.625ZM378.38 260.131H349.125V266.93H359.277V294H368.229V266.93H378.38V260.131ZM397.944 266.253C402.097 266.253 404.989 269.145 405.143 273.574H390.531C390.838 269.237 393.853 266.253 397.944 266.253ZM405.266 283.664C404.404 286.279 401.728 287.878 398.344 287.878C393.607 287.878 390.438 284.587 390.438 279.696V279.142H413.817V276.374C413.817 266.068 407.604 259.547 397.852 259.547C387.916 259.547 381.579 266.438 381.579 277.204C381.579 287.971 387.885 294.584 398.19 294.584C406.435 294.584 412.556 290.216 413.541 283.664H405.266Z" fill="white"/>
<path d="M324.6 84.4H309.346C318.633 76.9282 320.105 63.3421 312.634 54.0544C308.533 48.9571 302.342 45.9949 295.8 46H274.757C266.2 46.003 258.452 51.0565 255 58.8856C251.548 51.0565 243.8 46.003 235.243 46H214.2C202.28 45.9907 192.609 55.6465 192.6 67.5664C192.595 74.1082 195.557 80.2993 200.654 84.4H185.4C184.075 84.4 183 85.4746 183 86.8V110.8C183 112.125 184.075 113.2 185.4 113.2H190.2V187.6C190.2 188.925 191.275 190 192.6 190H317.4C318.725 190 319.8 188.925 319.8 187.6V113.2H324.6C325.925 113.2 327 112.125 327 110.8V86.8C327 85.4746 325.925 84.4 324.6 84.4ZM291.545 50.9992C291.739 50.9704 291.931 50.932 292.126 50.908C292.733 50.8384 293.345 50.8024 293.957 50.8H295.8C305.074 50.8105 312.59 58.3261 312.6 67.6C312.59 76.8739 305.074 84.3895 295.8 84.4H290.162C299.441 76.9231 300.901 63.3403 293.424 54.0619C292.578 53.0119 291.636 52.0438 290.609 51.1696C290.918 51.1048 291.23 51.0472 291.545 50.9992ZM285.317 53.3032C293.235 58.0957 295.769 68.4001 290.977 76.3186C287.933 81.3472 282.478 84.4138 276.6 84.4H268.27L278.566 60.8656C279.981 57.7081 282.34 55.0663 285.317 53.3032ZM268.327 89.2H284.717L296.052 111.873L303.917 127.6H295.8C295.045 127.6 294.333 127.956 293.88 128.56L289.109 134.92L277.697 109.816L268.327 89.2ZM271.783 108.4H267V97.8784L271.783 108.4ZM224.683 53.3032C227.66 55.0663 230.019 57.7081 231.434 60.8656L241.73 84.4H233.4C224.144 84.4216 216.623 76.9357 216.602 67.6798C216.588 61.8022 219.655 56.3467 224.683 53.3032ZM241.673 89.2L232.313 109.806L220.891 134.92L216.12 128.56C215.667 127.956 214.955 127.6 214.2 127.6H206.083L213.96 111.873L225.283 89.2H241.673ZM197.4 67.6C197.411 58.3261 204.926 50.8105 214.2 50.8H216.043C216.655 50.8024 217.267 50.8384 217.874 50.908C218.069 50.932 218.261 50.9704 218.455 50.9992C218.77 51.0472 219.082 51.1048 219.391 51.1696C210.317 58.8931 209.222 72.5104 216.945 81.5845C217.819 82.6114 218.788 83.554 219.838 84.4H214.2C204.926 84.3895 197.411 76.8739 197.4 67.6ZM187.8 108.4V89.2H219.917L210.317 108.4H187.8ZM243 185.2H195V113.2H207.917L200.052 128.927C199.46 130.113 199.94 131.554 201.126 132.147C201.46 132.313 201.827 132.4 202.2 132.4H213L219.48 141.04C219.933 141.644 220.645 142 221.4 142C221.487 142 221.573 141.995 221.659 141.986C222.5 141.892 223.229 141.363 223.579 140.594L236.04 113.2H243V185.2ZM243 108.4H238.217L243 97.8784V108.4ZM235.831 58.9432C234.434 55.7629 232.286 52.9687 229.572 50.8H235.243C241.918 50.8 247.959 54.751 250.634 60.8656L252.379 64.8568L245.4 80.812L235.831 58.9432ZM262.2 185.2H247.8V89.2H262.2V185.2ZM249.07 84.4L259.366 60.8656C262.041 54.751 268.082 50.8 274.757 50.8H280.44C277.726 52.9687 275.578 55.7629 274.181 58.9432L263.03 84.4H249.07ZM315 185.2H267V113.2H273.96L286.416 140.594C286.766 141.363 287.495 141.892 288.336 141.986C288.424 141.995 288.512 142 288.6 142C289.355 142 290.067 141.644 290.52 141.04L297 132.4H307.8C309.125 132.407 310.206 131.339 310.213 130.013C310.215 129.636 310.129 129.264 309.96 128.927L302.083 113.2H315V185.2ZM322.2 108.4H299.683L290.083 89.2H322.2V108.4Z" fill="white"/>
<rect x="73" y="227" width="371" height="164" rx="28" stroke="white" stroke-width="6"/>
</svg>
