<svg width="507" height="507" viewBox="0 0 507 507" fill="none" xmlns="http://www.w3.org/2000/svg">
<rect width="507" height="507" rx="253.5" fill="#0071E3"/>
<path d="M62.3438 326.243V322.649H66.7236C68.6253 322.649 70.1826 322.11 71.3955 321.032C72.6234 319.939 73.2373 318.547 73.2373 316.854C73.2373 315.207 72.6683 313.89 71.5303 312.901C70.3923 311.913 68.8125 311.419 66.791 311.419C64.7845 311.419 63.1598 311.906 61.917 312.879C60.6891 313.837 59.9928 315.177 59.8281 316.899H55.8975C56.1071 314.084 57.1927 311.868 59.1543 310.251C61.1309 308.634 63.7288 307.825 66.9482 307.825C69.988 307.825 72.4811 308.641 74.4277 310.273C76.3743 311.891 77.3477 313.965 77.3477 316.495C77.3477 318.262 76.8086 319.842 75.7305 321.234C74.6673 322.612 73.2747 323.51 71.5527 323.93V324.289C73.679 324.514 75.4085 325.337 76.7412 326.76C78.0739 328.167 78.7402 330.002 78.7402 332.263C78.7402 334.928 77.6172 337.182 75.3711 339.023C73.125 340.85 70.3698 341.764 67.1055 341.764C63.6764 341.764 60.8763 340.925 58.7051 339.248C56.5488 337.556 55.3958 335.325 55.2461 332.555H59.1543C59.334 334.262 60.1351 335.624 61.5576 336.643C62.9951 337.661 64.8294 338.17 67.0605 338.17C69.3216 338.17 71.141 337.608 72.5186 336.485C73.8962 335.362 74.585 333.917 74.585 332.15C74.585 330.309 73.9111 328.864 72.5635 327.815C71.2158 326.767 69.3291 326.243 66.9033 326.243H62.3438ZM92.5312 338.035C94.5228 338.035 96.1699 337.459 97.4727 336.306C98.7904 335.153 99.4492 333.708 99.4492 331.971V329.747L92.9355 330.174C91.1087 330.294 89.7686 330.675 88.915 331.319C88.0615 331.963 87.6348 332.899 87.6348 334.127C87.6348 335.34 88.0915 336.298 89.0049 337.002C89.9183 337.691 91.0938 338.035 92.5312 338.035ZM91.8125 341.427C89.4316 341.427 87.4701 340.775 85.9277 339.473C84.4004 338.155 83.6367 336.403 83.6367 334.217C83.6367 332.061 84.4004 330.368 85.9277 329.141C87.4551 327.913 89.6338 327.216 92.4639 327.052L99.4492 326.625V324.424C99.4492 322.926 98.985 321.781 98.0566 320.987C97.1283 320.194 95.7656 319.797 93.9688 319.797C92.5163 319.797 91.3109 320.059 90.3525 320.583C89.3942 321.107 88.7803 321.848 88.5107 322.807H84.6025C84.8571 320.875 85.8529 319.318 87.5898 318.135C89.3418 316.952 91.513 316.36 94.1035 316.36C97.0384 316.36 99.307 317.072 100.909 318.494C102.511 319.917 103.312 321.893 103.312 324.424V341H99.6289V337.429H99.2695C98.4909 338.716 97.4577 339.705 96.1699 340.394C94.8822 341.082 93.4297 341.427 91.8125 341.427ZM115.891 335.632C117.163 337.174 118.96 337.945 121.281 337.945C123.602 337.945 125.392 337.174 126.649 335.632C127.922 334.09 128.559 331.918 128.559 329.118C128.559 326.453 127.922 324.394 126.649 322.941C125.392 321.474 123.602 320.74 121.281 320.74C118.96 320.74 117.163 321.474 115.891 322.941C114.633 324.394 114.004 326.453 114.004 329.118C114.004 331.918 114.633 334.09 115.891 335.632ZM113.308 321.751H113.667C114.446 320.388 115.524 319.303 116.901 318.494C118.279 317.686 119.934 317.281 121.865 317.281C125.085 317.281 127.668 318.344 129.614 320.471C131.576 322.582 132.557 325.465 132.557 329.118C132.557 332.937 131.546 335.946 129.524 338.147C127.518 340.334 124.77 341.427 121.281 341.427C117.643 341.427 114.85 340.214 112.903 337.788C110.972 335.347 110.006 331.686 110.006 326.805C110.006 324.484 110.118 322.432 110.343 320.65C110.582 318.868 110.979 317.214 111.533 315.687C112.102 314.144 112.843 312.871 113.757 311.868C114.67 310.865 115.831 310.071 117.238 309.487C118.661 308.888 120.323 308.544 122.225 308.454L124.65 308.342C125.773 308.282 126.859 308.147 127.907 307.938C128.97 307.713 129.734 307.518 130.198 307.354C130.677 307.174 130.932 307.069 130.962 307.039V310.498C130.857 310.588 130.685 310.708 130.445 310.857C130.206 310.992 129.562 311.194 128.514 311.464C127.465 311.718 126.238 311.876 124.83 311.936L122.359 312.048C120.772 312.123 119.432 312.385 118.339 312.834C117.246 313.268 116.362 313.92 115.688 314.788C115.015 315.657 114.498 316.637 114.139 317.73C113.779 318.824 113.502 320.164 113.308 321.751ZM148.729 319.774C146.797 319.774 145.21 320.426 143.967 321.729C142.724 323.031 142.028 324.753 141.878 326.895H155.22C155.175 324.753 154.561 323.031 153.378 321.729C152.195 320.426 150.645 319.774 148.729 319.774ZM155.107 334.733H158.971C158.387 336.83 157.196 338.469 155.399 339.652C153.618 340.835 151.409 341.427 148.773 341.427C145.419 341.427 142.761 340.304 140.8 338.058C138.838 335.797 137.857 332.749 137.857 328.916C137.857 325.098 138.846 322.05 140.822 319.774C142.799 317.498 145.449 316.36 148.773 316.36C152.038 316.36 154.606 317.446 156.478 319.617C158.349 321.788 159.285 324.761 159.285 328.534V330.017H141.878V330.196C141.983 332.592 142.657 334.494 143.899 335.901C145.157 337.309 146.812 338.013 148.863 338.013C151.993 338.013 154.074 336.92 155.107 334.733ZM177.568 316.36C180.653 316.36 183.116 317.498 184.958 319.774C186.815 322.05 187.743 325.09 187.743 328.894C187.743 332.682 186.815 335.722 184.958 338.013C183.101 340.289 180.638 341.427 177.568 341.427C175.846 341.427 174.319 341.075 172.986 340.371C171.654 339.652 170.658 338.649 169.999 337.361H169.64V349.086H165.776V316.787H169.46V320.83H169.819C170.598 319.438 171.669 318.344 173.031 317.551C174.409 316.757 175.921 316.36 177.568 316.36ZM176.647 337.945C178.864 337.945 180.601 337.144 181.858 335.542C183.116 333.94 183.745 331.724 183.745 328.894C183.745 326.063 183.116 323.847 181.858 322.245C180.616 320.643 178.886 319.842 176.67 319.842C174.484 319.842 172.747 320.658 171.459 322.29C170.171 323.907 169.527 326.108 169.527 328.894C169.527 331.664 170.164 333.865 171.437 335.497C172.724 337.129 174.461 337.945 176.647 337.945ZM198.12 341H194.257V316.787H198.12V334.846H198.479L210.766 316.787H214.629V341H210.766V322.941H210.406L198.12 341ZM239.875 316.787V320.021H232.014V341H228.15V320.021H220.289V316.787H239.875ZM254.295 319.774C252.363 319.774 250.776 320.426 249.533 321.729C248.29 323.031 247.594 324.753 247.444 326.895H260.786C260.741 324.753 260.127 323.031 258.944 321.729C257.761 320.426 256.212 319.774 254.295 319.774ZM260.674 334.733H264.537C263.953 336.83 262.763 338.469 260.966 339.652C259.184 340.835 256.975 341.427 254.34 341.427C250.986 341.427 248.328 340.304 246.366 338.058C244.405 335.797 243.424 332.749 243.424 328.916C243.424 325.098 244.412 322.05 246.389 319.774C248.365 317.498 251.016 316.36 254.34 316.36C257.604 316.36 260.172 317.446 262.044 319.617C263.916 321.788 264.852 324.761 264.852 328.534V330.017H247.444V330.196C247.549 332.592 248.223 334.494 249.466 335.901C250.724 337.309 252.378 338.013 254.43 338.013C257.559 338.013 259.641 336.92 260.674 334.733ZM304.383 324.199H300.475C300.145 322.926 299.434 321.886 298.341 321.077C297.263 320.254 295.893 319.842 294.23 319.842C292.059 319.842 290.33 320.65 289.042 322.268C287.769 323.885 287.133 326.063 287.133 328.804C287.133 331.589 287.777 333.812 289.064 335.475C290.352 337.122 292.074 337.945 294.23 337.945C295.863 337.945 297.218 337.578 298.296 336.845C299.389 336.111 300.115 335.063 300.475 333.7H304.383C304.023 335.991 302.953 337.855 301.171 339.293C299.389 340.715 297.083 341.427 294.253 341.427C290.854 341.427 288.151 340.289 286.145 338.013C284.138 335.722 283.135 332.652 283.135 328.804C283.135 325.03 284.138 322.013 286.145 319.752C288.151 317.491 290.846 316.36 294.23 316.36C297.061 316.36 299.367 317.102 301.148 318.584C302.945 320.066 304.023 321.938 304.383 324.199ZM314.378 326.917H315.434L325.024 316.787H329.719L318.623 328.197L330.146 341H325.137L315.434 329.972H314.378V341H310.515V316.787H314.378V326.917ZM339.085 335.587C340.328 337.159 342.095 337.945 344.386 337.945C346.677 337.945 348.444 337.159 349.687 335.587C350.929 334 351.551 331.769 351.551 328.894C351.551 326.019 350.929 323.795 349.687 322.223C348.444 320.635 346.677 319.842 344.386 319.842C342.095 319.842 340.328 320.635 339.085 322.223C337.842 323.795 337.221 326.019 337.221 328.894C337.221 331.769 337.842 334 339.085 335.587ZM352.539 338.08C350.548 340.311 347.83 341.427 344.386 341.427C340.942 341.427 338.216 340.311 336.21 338.08C334.218 335.834 333.223 332.772 333.223 328.894C333.223 325 334.218 321.938 336.21 319.707C338.201 317.476 340.927 316.36 344.386 316.36C347.845 316.36 350.57 317.476 352.562 319.707C354.553 321.938 355.549 325 355.549 328.894C355.549 332.772 354.546 335.834 352.539 338.08ZM373.832 316.36C376.917 316.36 379.38 317.498 381.222 319.774C383.078 322.05 384.007 325.09 384.007 328.894C384.007 332.682 383.078 335.722 381.222 338.013C379.365 340.289 376.902 341.427 373.832 341.427C372.11 341.427 370.583 341.075 369.25 340.371C367.917 339.652 366.922 338.649 366.263 337.361H365.903V349.086H362.04V316.787H365.724V320.83H366.083C366.862 319.438 367.932 318.344 369.295 317.551C370.673 316.757 372.185 316.36 373.832 316.36ZM372.911 337.945C375.127 337.945 376.864 337.144 378.122 335.542C379.38 333.94 380.009 331.724 380.009 328.894C380.009 326.063 379.38 323.847 378.122 322.245C376.879 320.643 375.15 319.842 372.934 319.842C370.747 319.842 369.01 320.658 367.723 322.29C366.435 323.907 365.791 326.108 365.791 328.894C365.791 331.664 366.427 333.865 367.7 335.497C368.988 337.129 370.725 337.945 372.911 337.945ZM400.201 319.774C398.27 319.774 396.682 320.426 395.439 321.729C394.197 323.031 393.5 324.753 393.351 326.895H406.692C406.647 324.753 406.034 323.031 404.851 321.729C403.668 320.426 402.118 319.774 400.201 319.774ZM406.58 334.733H410.443C409.859 336.83 408.669 338.469 406.872 339.652C405.09 340.835 402.882 341.427 400.246 341.427C396.892 341.427 394.234 340.304 392.272 338.058C390.311 335.797 389.33 332.749 389.33 328.916C389.33 325.098 390.318 322.05 392.295 319.774C394.271 317.498 396.922 316.36 400.246 316.36C403.51 316.36 406.078 317.446 407.95 319.617C409.822 321.788 410.758 324.761 410.758 328.534V330.017H393.351V330.196C393.455 332.592 394.129 334.494 395.372 335.901C396.63 337.309 398.285 338.013 400.336 338.013C403.465 338.013 405.547 336.92 406.58 334.733ZM426.93 319.774C424.998 319.774 423.411 320.426 422.168 321.729C420.925 323.031 420.229 324.753 420.079 326.895H433.421C433.376 324.753 432.762 323.031 431.579 321.729C430.396 320.426 428.846 319.774 426.93 319.774ZM433.309 334.733H437.172C436.588 336.83 435.397 338.469 433.601 339.652C431.819 340.835 429.61 341.427 426.975 341.427C423.62 341.427 420.963 340.304 419.001 338.058C417.039 335.797 416.059 332.749 416.059 328.916C416.059 325.098 417.047 322.05 419.023 319.774C421 317.498 423.65 316.36 426.975 316.36C430.239 316.36 432.807 317.446 434.679 319.617C436.55 321.788 437.486 324.761 437.486 328.534V330.017H420.079V330.196C420.184 332.592 420.858 334.494 422.101 335.901C423.358 337.309 425.013 338.013 427.064 338.013C430.194 338.013 432.275 336.92 433.309 334.733ZM445.033 308.566H449.525L449.144 330.219H445.415L445.033 308.566ZM445.056 340.528C444.472 339.944 444.18 339.196 444.18 338.282C444.18 337.369 444.472 336.62 445.056 336.036C445.64 335.437 446.388 335.138 447.302 335.138C448.215 335.138 448.956 335.43 449.525 336.014C450.109 336.598 450.401 337.354 450.401 338.282C450.401 339.196 450.109 339.944 449.525 340.528C448.956 341.112 448.215 341.404 447.302 341.404C446.388 341.404 445.64 341.112 445.056 340.528Z" fill="white"/>
<path d="M160.451 282H151.192V245.301H131.658V282H122.337V237.611H160.451V282ZM183.615 282.584C178.467 282.584 174.396 281.026 171.402 277.909C168.408 274.792 166.911 270.505 166.911 265.05C166.911 259.657 168.418 255.391 171.433 252.253C174.448 249.116 178.508 247.547 183.615 247.547C188.742 247.547 192.802 249.116 195.796 252.253C198.811 255.371 200.318 259.636 200.318 265.05C200.318 270.526 198.821 274.822 195.827 277.939C192.854 281.036 188.783 282.584 183.615 282.584ZM178.016 272.895C179.37 274.74 181.236 275.663 183.615 275.663C185.994 275.663 187.85 274.74 189.183 272.895C190.516 271.028 191.182 268.414 191.182 265.05C191.182 261.728 190.505 259.134 189.152 257.268C187.819 255.381 185.973 254.438 183.615 254.438C181.236 254.438 179.37 255.381 178.016 257.268C176.683 259.134 176.017 261.728 176.017 265.05C176.017 268.414 176.683 271.028 178.016 272.895ZM228.558 275.171V254.899H218.222L217.453 265.85C217.145 269.87 216.304 272.895 214.93 274.925V275.171H228.558ZM211.331 290.767H203.148V275.171H205.763C207.896 273.981 209.147 270.69 209.516 265.296L210.624 248.131H237.479V275.171H242.523V290.767H234.341V282H211.331V290.767ZM259.688 275.848C261.801 275.848 263.575 275.263 265.01 274.094C266.446 272.905 267.164 271.397 267.164 269.572V267.081L260.058 267.573C258.191 267.696 256.766 268.116 255.782 268.834C254.797 269.552 254.305 270.536 254.305 271.787C254.305 273.038 254.787 274.033 255.751 274.771C256.735 275.489 258.048 275.848 259.688 275.848ZM256.766 282.4C253.464 282.4 250.737 281.457 248.583 279.57C246.43 277.683 245.354 275.243 245.354 272.249C245.354 269.193 246.492 266.804 248.768 265.081C251.044 263.358 254.356 262.364 258.704 262.097L267.164 261.574V259.329C267.164 257.708 266.641 256.468 265.595 255.606C264.549 254.725 263.093 254.284 261.227 254.284C259.627 254.284 258.284 254.673 257.197 255.453C256.13 256.211 255.484 257.216 255.259 258.467H247.045C247.168 255.227 248.563 252.602 251.229 250.592C253.916 248.562 257.371 247.547 261.596 247.547C265.943 247.547 269.43 248.572 272.055 250.623C274.68 252.674 275.992 255.391 275.992 258.775V282H267.317V276.771H267.133C266.23 278.514 264.826 279.888 262.918 280.893C261.032 281.897 258.981 282.4 256.766 282.4ZM301.678 247.731C305.985 247.731 309.379 249.28 311.86 252.376C314.342 255.453 315.583 259.677 315.583 265.05C315.583 270.423 314.342 274.658 311.86 277.755C309.399 280.852 306.046 282.4 301.801 282.4C299.361 282.4 297.228 281.867 295.403 280.8C293.578 279.734 292.204 278.237 291.281 276.309H291.096V292.644H282.114V248.131H290.973V253.915H291.158C292.06 252.007 293.444 250.5 295.311 249.393C297.177 248.285 299.299 247.731 301.678 247.731ZM298.694 275.14C301.032 275.14 302.898 274.228 304.293 272.402C305.688 270.577 306.385 268.126 306.385 265.05C306.385 262.015 305.677 259.585 304.262 257.76C302.868 255.914 301.012 254.991 298.694 254.991C296.397 254.991 294.552 255.914 293.157 257.76C291.763 259.605 291.065 262.046 291.065 265.081C291.065 268.116 291.763 270.557 293.157 272.402C294.552 274.228 296.397 275.14 298.694 275.14ZM336.562 282.584C331.415 282.584 327.344 281.026 324.35 277.909C321.355 274.792 319.858 270.505 319.858 265.05C319.858 259.657 321.366 255.391 324.38 252.253C327.395 249.116 331.456 247.547 336.562 247.547C341.689 247.547 345.75 249.116 348.744 252.253C351.758 255.371 353.266 259.636 353.266 265.05C353.266 270.526 351.769 274.822 348.774 277.939C345.801 281.036 341.73 282.584 336.562 282.584ZM330.963 272.895C332.317 274.74 334.183 275.663 336.562 275.663C338.941 275.663 340.797 274.74 342.13 272.895C343.463 271.028 344.129 268.414 344.129 265.05C344.129 261.728 343.453 259.134 342.099 257.268C340.766 255.381 338.92 254.438 336.562 254.438C334.183 254.438 332.317 255.381 330.963 257.268C329.63 259.134 328.964 261.728 328.964 265.05C328.964 268.414 329.63 271.028 330.963 272.895ZM376.122 263.851L390.58 282H379.721L368.031 267.357H367.785V282H358.833V248.131H367.785V261.851H368.031L379.536 248.131H389.811L376.122 263.851Z" fill="white"/>
<path d="M327.6 88.4H312.346C321.633 80.9282 323.105 67.3421 315.634 58.0544C311.533 52.9571 305.342 49.9949 298.8 50H277.757C269.2 50.003 261.452 55.0565 258 62.8856C254.548 55.0565 246.8 50.003 238.243 50H217.2C205.28 49.9907 195.609 59.6465 195.6 71.5664C195.595 78.1082 198.557 84.2993 203.654 88.4H188.4C187.075 88.4 186 89.4746 186 90.8V114.8C186 116.125 187.075 117.2 188.4 117.2H193.2V191.6C193.2 192.925 194.275 194 195.6 194H320.4C321.725 194 322.8 192.925 322.8 191.6V117.2H327.6C328.925 117.2 330 116.125 330 114.8V90.8C330 89.4746 328.925 88.4 327.6 88.4ZM294.545 54.9992C294.739 54.9704 294.931 54.932 295.126 54.908C295.733 54.8384 296.345 54.8024 296.957 54.8H298.8C308.074 54.8105 315.59 62.3261 315.6 71.6C315.59 80.8739 308.074 88.3895 298.8 88.4H293.162C302.441 80.9231 303.901 67.3403 296.424 58.0619C295.578 57.0119 294.636 56.0438 293.609 55.1696C293.918 55.1048 294.23 55.0472 294.545 54.9992ZM288.317 57.3032C296.235 62.0957 298.769 72.4001 293.977 80.3186C290.933 85.3472 285.478 88.4138 279.6 88.4H271.27L281.566 64.8656C282.981 61.7081 285.34 59.0663 288.317 57.3032ZM271.327 93.2H287.717L299.052 115.873L306.917 131.6H298.8C298.045 131.6 297.333 131.956 296.88 132.56L292.109 138.92L280.697 113.816L271.327 93.2ZM274.783 112.4H270V101.878L274.783 112.4ZM227.683 57.3032C230.66 59.0663 233.019 61.7081 234.434 64.8656L244.73 88.4H236.4C227.144 88.4216 219.623 80.9357 219.602 71.6798C219.588 65.8022 222.655 60.3467 227.683 57.3032ZM244.673 93.2L235.313 113.806L223.891 138.92L219.12 132.56C218.667 131.956 217.955 131.6 217.2 131.6H209.083L216.96 115.873L228.283 93.2H244.673ZM200.4 71.6C200.411 62.3261 207.926 54.8105 217.2 54.8H219.043C219.655 54.8024 220.267 54.8384 220.874 54.908C221.069 54.932 221.261 54.9704 221.455 54.9992C221.77 55.0472 222.082 55.1048 222.391 55.1696C213.317 62.8931 212.222 76.5104 219.945 85.5845C220.819 86.6114 221.788 87.554 222.838 88.4H217.2C207.926 88.3895 200.411 80.8739 200.4 71.6ZM190.8 112.4V93.2H222.917L213.317 112.4H190.8ZM246 189.2H198V117.2H210.917L203.052 132.927C202.46 134.113 202.94 135.554 204.126 136.147C204.46 136.313 204.827 136.4 205.2 136.4H216L222.48 145.04C222.933 145.644 223.645 146 224.4 146C224.487 146 224.573 145.995 224.659 145.986C225.5 145.892 226.229 145.363 226.579 144.594L239.04 117.2H246V189.2ZM246 112.4H241.217L246 101.878V112.4ZM238.831 62.9432C237.434 59.7629 235.286 56.9687 232.572 54.8H238.243C244.918 54.8 250.959 58.751 253.634 64.8656L255.379 68.8568L248.4 84.812L238.831 62.9432ZM265.2 189.2H250.8V93.2H265.2V189.2ZM252.07 88.4L262.366 64.8656C265.041 58.751 271.082 54.8 277.757 54.8H283.44C280.726 56.9687 278.578 59.7629 277.181 62.9432L266.03 88.4H252.07ZM318 189.2H270V117.2H276.96L289.416 144.594C289.766 145.363 290.495 145.892 291.336 145.986C291.424 145.995 291.512 146 291.6 146C292.355 146 293.067 145.644 293.52 145.04L300 136.4H310.8C312.125 136.407 313.206 135.339 313.213 134.013C313.215 133.636 313.129 133.264 312.96 132.927L305.083 117.2H318V189.2ZM325.2 112.4H302.683L293.083 93.2H325.2V112.4Z" fill="white"/>
</svg>
