<svg width="261" height="48" viewBox="0 0 261 48" fill="none" xmlns="http://www.w3.org/2000/svg">
<path d="M166 29.763C165.96 29.8802 165.321 32.108 163.722 34.3749C162.323 36.3681 160.924 38.3223 158.645 38.3614C156.407 38.4005 155.727 37.0717 153.169 37.0717C150.611 37.0717 149.852 38.3223 147.733 38.4005C145.535 38.4787 143.896 36.2509 142.497 34.2967C139.659 30.2711 137.46 22.9233 140.378 17.9597C141.817 15.4974 144.415 13.934 147.253 13.8949C149.412 13.8559 151.41 15.302 152.729 15.302C154.049 15.302 156.487 13.5432 159.085 13.8168C160.164 13.8559 163.202 14.2467 165.161 17.0216C165.001 17.0998 161.523 19.0931 161.563 23.1969C161.603 28.1215 165.96 29.763 166 29.763ZM157.366 11.1591C158.525 9.79113 159.325 7.87602 159.085 6C157.406 6.07817 155.408 7.09435 154.208 8.46228C153.129 9.67388 152.21 11.6281 152.45 13.465C154.328 13.5823 156.247 12.527 157.366 11.1591Z" fill="white"/>
<path d="M172.852 7.77808C174.615 7.77808 175.842 9.02876 175.842 10.8266C175.842 12.6245 174.577 13.8752 172.814 13.8752H170.86V17.041H169.442V7.81716H172.852V7.77808ZM170.86 12.6245H172.469C173.696 12.6245 174.385 11.9601 174.385 10.7875C174.385 9.61502 173.696 8.95059 172.469 8.95059H170.86V12.6245Z" fill="white"/>
<path d="M177.068 10.239H178.371V11.3724H178.41C178.64 10.5907 179.214 10.1217 179.981 10.1217C180.173 10.1217 180.326 10.1608 180.441 10.1608V11.4506C180.326 11.4115 180.096 11.3724 179.828 11.3724C178.946 11.3724 178.41 11.9586 178.41 12.9357V16.9614H177.068V10.239Z" fill="white"/>
<path d="M187.033 15.0082C186.841 16.2198 185.691 17.1187 184.197 17.1187C182.242 17.1187 181.092 15.7899 181.092 13.6793C181.092 11.5688 182.28 10.1618 184.158 10.1618C185.998 10.1618 187.148 11.4906 187.148 13.523V13.992H182.472V14.0702C182.472 15.2427 183.162 16.0244 184.235 16.0244C185.002 16.0244 185.576 15.6335 185.768 15.0473H187.033V15.0082ZM182.472 13.0149H185.768C185.73 11.9987 185.116 11.2561 184.158 11.2561C183.2 11.2561 182.549 11.9987 182.472 13.0149Z" fill="white"/>
<path d="M188.336 10.239H189.639V11.3724H189.677C189.984 10.6298 190.674 10.1217 191.555 10.1217C192.475 10.1217 193.127 10.5907 193.395 11.4506H193.433C193.778 10.6298 194.545 10.1217 195.503 10.1217C196.806 10.1217 197.649 11.0206 197.649 12.3495V16.9614H196.308V12.6622C196.308 11.8023 195.848 11.2942 195.043 11.2942C194.238 11.2942 193.701 11.9196 193.701 12.7403V16.9223H192.36V12.5449C192.36 11.7632 191.862 11.2942 191.095 11.2942C190.291 11.2942 189.716 11.9196 189.716 12.7794V16.9223H188.336V10.239Z" fill="white"/>
<path d="M198.99 8.36395C198.99 7.93403 199.335 7.58228 199.757 7.58228C200.178 7.58228 200.523 7.93403 200.523 8.36395C200.523 8.79387 200.178 9.14563 199.757 9.14563C199.335 9.18471 198.99 8.83296 198.99 8.36395ZM199.105 10.24H200.446V16.9624H199.105V10.24Z" fill="white"/>
<path d="M207.652 17.0015H206.349V15.868H206.31C205.965 16.6888 205.275 17.1187 204.279 17.1187C202.861 17.1187 201.979 16.1807 201.979 14.6174V10.2791H203.321V14.3829C203.321 15.399 203.781 15.9462 204.739 15.9462C205.735 15.9462 206.31 15.2427 206.31 14.2265V10.3181H207.652V17.0015V17.0015Z" fill="white"/>
<path d="M209.185 10.239H210.488V11.3724H210.526C210.833 10.6298 211.522 10.1217 212.404 10.1217C213.324 10.1217 213.975 10.5907 214.243 11.4506H214.282C214.627 10.6298 215.393 10.1217 216.351 10.1217C217.654 10.1217 218.498 11.0206 218.498 12.3495V16.9614H217.156V12.6622C217.156 11.8023 216.696 11.2942 215.891 11.2942C215.087 11.2942 214.55 11.9196 214.55 12.7403V16.9223H213.209V12.5449C213.209 11.7632 212.71 11.2942 211.944 11.2942C211.139 11.2942 210.564 11.9196 210.564 12.7794V16.9223H209.223V10.239H209.185Z" fill="white"/>
<path d="M170.4 29.8601C170.515 30.759 171.396 31.3062 172.584 31.3062C173.734 31.3062 174.539 30.7199 174.539 29.8991C174.539 29.1956 174.079 28.7266 172.853 28.453L171.856 28.2576C170.055 27.8668 169.212 27.0069 169.212 25.6781C169.212 24.1147 170.553 23.0204 172.508 23.0204C174.424 23.0204 175.727 24.1147 175.765 25.7172H174.424C174.347 24.7792 173.581 24.232 172.508 24.232C171.435 24.232 170.668 24.7401 170.668 25.5999C170.668 26.2643 171.128 26.7333 172.316 26.9679L173.312 27.1633C175.19 27.5541 175.995 28.3358 175.995 29.7037C175.995 31.4234 174.654 32.5178 172.546 32.5178C170.515 32.5178 169.135 31.4625 169.058 29.821H170.4V29.8601Z" fill="white"/>
<path d="M182.856 30.4072C182.664 31.6188 181.514 32.5178 180.019 32.5178C178.065 32.5178 176.915 31.1889 176.915 29.0784C176.915 26.9679 178.103 25.5609 179.981 25.5609C181.821 25.5609 182.97 26.8897 182.97 28.9221V29.3911H178.295V29.4692C178.295 30.6417 178.985 31.4234 180.058 31.4234C180.824 31.4234 181.399 31.0326 181.591 30.4463H182.856V30.4072ZM178.295 28.414H181.591C181.552 27.3978 180.901 26.6552 179.981 26.6552C179.023 26.6552 178.333 27.3978 178.295 28.414Z" fill="white"/>
<path d="M184.158 25.6781H185.461V26.8115H185.5C185.73 26.0299 186.305 25.5609 187.071 25.5609C187.263 25.5609 187.416 25.5999 187.531 25.5999V26.8897C187.416 26.8506 187.186 26.8115 186.918 26.8115C186.036 26.8115 185.5 27.3978 185.5 28.3749V32.4005H184.158V25.6781Z" fill="white"/>
<path d="M191.938 32.4005H190.482L188.106 25.6781H189.562L191.21 31.0717H191.248L192.896 25.6781H194.314L191.938 32.4005Z" fill="white"/>
<path d="M195.196 23.763C195.196 23.333 195.541 22.9813 195.962 22.9813C196.384 22.9813 196.729 23.333 196.729 23.763C196.729 24.1929 196.384 24.5446 195.962 24.5446C195.541 24.5837 195.196 24.232 195.196 23.763ZM195.311 25.6781H196.652V32.4005H195.311V25.6781Z" fill="white"/>
<path d="M202.554 27.984C202.401 27.2805 201.903 26.6943 201.021 26.6943C199.987 26.6943 199.297 27.5932 199.297 29.0393C199.297 30.5245 199.987 31.3843 201.06 31.3843C201.903 31.3843 202.44 30.9153 202.593 30.1337H203.896C203.743 31.5798 202.631 32.5178 201.06 32.5178C199.182 32.5178 197.955 31.1889 197.955 29.0393C197.955 26.8897 199.182 25.5609 201.06 25.5609C202.746 25.5609 203.781 26.6552 203.896 27.984H202.554V27.984Z" fill="white"/>
<path d="M210.641 30.4072C210.449 31.6188 209.3 32.5178 207.805 32.5178C205.85 32.5178 204.701 31.1889 204.701 29.0784C204.701 26.9679 205.889 25.5609 207.767 25.5609C209.606 25.5609 210.756 26.8897 210.756 28.9221V29.3911H206.08V29.4692C206.08 30.6417 206.77 31.4234 207.843 31.4234C208.61 31.4234 209.185 31.0326 209.376 30.4463H210.641V30.4072ZM206.08 28.414H209.376C209.338 27.3978 208.725 26.6552 207.767 26.6552C206.809 26.6552 206.157 27.3978 206.08 28.414Z" fill="white"/>
<path d="M218.306 23.1768C220.069 23.1768 221.295 24.4274 221.295 26.2253C221.295 28.0232 220.031 29.2738 218.268 29.2738H216.313V32.4396H214.895V23.2158H218.306V23.1768ZM216.313 28.0232H217.923C219.149 28.0232 219.839 27.3587 219.839 26.1862C219.839 25.0137 219.149 24.3493 217.923 24.3493H216.313V28.0232Z" fill="white"/>
<path d="M222.522 25.6781H223.825V26.8115H223.863C224.093 26.0299 224.668 25.5609 225.434 25.5609C225.626 25.5609 225.779 25.5999 225.894 25.5999V26.8897C225.779 26.8506 225.549 26.8115 225.281 26.8115C224.4 26.8115 223.863 27.3978 223.863 28.3749V32.4005H222.522V25.6781Z" fill="white"/>
<path d="M226.354 29.0393C226.354 26.8897 227.619 25.5609 229.497 25.5609C231.375 25.5609 232.64 26.8897 232.64 29.0393C232.64 31.1889 231.413 32.5178 229.497 32.5178C227.581 32.5178 226.354 31.1889 226.354 29.0393ZM231.222 29.0393C231.222 27.5541 230.532 26.6943 229.459 26.6943C228.385 26.6943 227.696 27.5541 227.696 29.0393C227.696 30.5245 228.385 31.3843 229.459 31.3843C230.532 31.3843 231.222 30.5245 231.222 29.0393Z" fill="white"/>
<path d="M236.932 32.4005H235.476L233.099 25.6781H234.556L236.204 31.0717H236.242L237.89 25.6781H239.308L236.932 32.4005Z" fill="white"/>
<path d="M240.189 23.763C240.189 23.333 240.534 22.9813 240.956 22.9813C241.377 22.9813 241.722 23.333 241.722 23.763C241.722 24.1929 241.377 24.5446 240.956 24.5446C240.573 24.5837 240.189 24.232 240.189 23.763ZM240.304 25.6781H241.646V32.4005H240.304V25.6781Z" fill="white"/>
<path d="M242.949 29.0394C242.949 26.9288 244.061 25.5609 245.708 25.5609C246.667 25.5609 247.395 26.0299 247.778 26.7725H247.816V23.1377H249.158V32.3615H247.855V31.2281H247.816C247.433 32.0097 246.667 32.4787 245.708 32.4787C244.061 32.5178 242.949 31.1499 242.949 29.0394ZM244.329 29.0394C244.329 30.4464 244.98 31.3453 246.053 31.3453C247.088 31.3453 247.778 30.4464 247.778 29.0394C247.778 27.6323 247.088 26.7334 246.053 26.7334C245.019 26.7334 244.329 27.5933 244.329 29.0394Z" fill="white"/>
<path d="M256.401 30.4072C256.209 31.6188 255.06 32.5178 253.565 32.5178C251.61 32.5178 250.461 31.1889 250.461 29.0784C250.461 26.9679 251.649 25.5609 253.527 25.5609C255.366 25.5609 256.516 26.8897 256.516 28.9221V29.3911H251.84V29.4692C251.84 30.6417 252.53 31.4234 253.603 31.4234C254.37 31.4234 254.945 31.0326 255.136 30.4463H256.401V30.4072ZM251.802 28.414H255.098C255.06 27.3978 254.447 26.6552 253.488 26.6552C252.569 26.6552 251.879 27.3978 251.802 28.414Z" fill="white"/>
<path d="M257.627 25.6781H258.93V26.8115H258.969C259.199 26.0299 259.774 25.5609 260.54 25.5609C260.732 25.5609 260.885 25.5999 261 25.5999V26.8897C260.885 26.8506 260.655 26.8115 260.387 26.8115C259.505 26.8115 258.969 27.3978 258.969 28.3749V32.4005H257.627V25.6781Z" fill="white"/>
<path d="M171.081 40.7654C172.076 40.7654 172.739 41.5079 172.739 42.4066C172.739 43.11 172.474 43.5398 171.612 44.5167L170.518 45.7671V45.8062H172.806V46.6659H169.357V45.9625L171.081 43.9306C171.711 43.1881 171.877 42.9146 171.877 42.4848C171.877 41.9768 171.546 41.586 171.081 41.586C170.551 41.586 170.153 42.0158 170.153 42.602H169.324C169.324 41.5079 170.087 40.7654 171.081 40.7654Z" fill="white"/>
<path d="M173.436 43.7342C173.436 41.8976 174.165 40.7253 175.359 40.7253C176.553 40.7253 177.282 41.8585 177.282 43.7342C177.282 45.5707 176.553 46.743 175.359 46.743C174.165 46.7821 173.436 45.6098 173.436 43.7342ZM176.42 43.7342C176.42 42.3665 176.022 41.585 175.392 41.585C174.729 41.585 174.331 42.4056 174.331 43.7342C174.331 45.1018 174.696 45.9224 175.392 45.9224C176.055 45.9224 176.42 45.1018 176.42 43.7342Z" fill="white"/>
<path d="M179.636 40.7644C180.631 40.7644 181.294 41.5069 181.294 42.4056C181.294 43.109 181.029 43.5388 180.167 44.5157L179.106 45.7662V45.8052H181.394V46.6649H177.945V45.9615L179.67 43.9296C180.3 43.1871 180.465 42.9136 180.465 42.4838C180.465 41.9758 180.134 41.585 179.67 41.585C179.139 41.585 178.741 42.0149 178.741 42.601H177.912C177.879 41.5069 178.642 40.7644 179.636 40.7644Z" fill="white"/>
<path d="M181.991 43.7342C181.991 41.8976 182.72 40.7253 183.914 40.7253C185.108 40.7253 185.837 41.8585 185.837 43.7342C185.837 45.5707 185.108 46.743 183.914 46.743C182.72 46.7821 181.991 45.6098 181.991 43.7342ZM184.975 43.7342C184.975 42.3665 184.577 41.585 183.947 41.585C183.284 41.585 182.886 42.4056 182.886 43.7342C182.886 45.1018 183.251 45.9224 183.947 45.9224C184.61 45.9224 184.975 45.1018 184.975 43.7342Z" fill="white"/>
<line x1="128.5" y1="2.18557e-08" x2="128.5" y2="48" stroke="white"/>
<path d="M18.7598 36L16.8262 29.8477H7.91406L5.98047 36H0.53125L9.33789 10.6348H15.5781L24.4023 36H18.7598ZM12.3086 15.4863L9.05664 25.875H15.6836L12.4316 15.4863H12.3086ZM37.8145 16.418C40.2754 16.418 42.2148 17.3027 43.6328 19.0723C45.0508 20.8301 45.7598 23.2441 45.7598 26.3145C45.7598 29.3848 45.0508 31.8047 43.6328 33.5742C42.2266 35.3438 40.3105 36.2285 37.8848 36.2285C36.4902 36.2285 35.2715 35.9238 34.2285 35.3145C33.1855 34.7051 32.4004 33.8496 31.873 32.748H31.7676V42.082H26.6348V16.6465H31.6973V19.9512H31.8027C32.3184 18.8613 33.1094 18 34.1758 17.3672C35.2422 16.7344 36.4551 16.418 37.8145 16.418ZM36.1094 32.0801C37.4453 32.0801 38.5117 31.5586 39.3086 30.5156C40.1055 29.4727 40.5039 28.0723 40.5039 26.3145C40.5039 24.5801 40.0996 23.1914 39.291 22.1484C38.4941 21.0938 37.4336 20.5664 36.1094 20.5664C34.7969 20.5664 33.7422 21.0938 32.9453 22.1484C32.1484 23.2031 31.75 24.5977 31.75 26.332C31.75 28.0664 32.1484 29.4609 32.9453 30.5156C33.7422 31.5586 34.7969 32.0801 36.1094 32.0801ZM48.168 22.3418C48.168 20.5254 48.9062 19.0664 50.3828 17.9648C51.8594 16.8633 53.8223 16.3125 56.2715 16.3125C58.6621 16.3125 60.5898 16.875 62.0547 18C63.5195 19.1133 64.2695 20.5957 64.3047 22.4473H59.5586C59.5 21.6855 59.1719 21.082 58.5742 20.6367C57.9766 20.1797 57.1855 19.9512 56.2012 19.9512C55.2754 19.9512 54.5312 20.1445 53.9688 20.5312C53.4062 20.9062 53.125 21.4043 53.125 22.0254C53.125 22.9746 53.9863 23.6484 55.709 24.0469L59.3477 24.8379C61.293 25.2832 62.6816 25.9102 63.5137 26.7188C64.3574 27.5273 64.7793 28.6523 64.7793 30.0938C64.7793 31.9688 63.9941 33.4805 62.4238 34.6289C60.8535 35.7656 58.7969 36.334 56.2539 36.334C53.7344 36.334 51.707 35.7773 50.1719 34.6641C48.6484 33.5391 47.8223 32.0332 47.6934 30.1465H52.7031C52.832 30.9668 53.2129 31.5996 53.8457 32.0449C54.4785 32.4785 55.3281 32.6953 56.3945 32.6953C57.4141 32.6953 58.2168 32.5137 58.8027 32.1504C59.3887 31.7754 59.6816 31.2715 59.6816 30.6387C59.6816 30.1348 59.4941 29.7363 59.1191 29.4434C58.7559 29.1504 58.1348 28.8984 57.2559 28.6875L53.6875 27.8789C50.0078 27.0469 48.168 25.2012 48.168 22.3418ZM68.8223 12.3398H73.9551V16.6465H77.541V20.5312H73.9551V29.9355C73.9551 31.4121 74.7227 32.1504 76.2578 32.1504C76.7617 32.1504 77.1895 32.1211 77.541 32.0625V35.8594C76.8379 36 76.0117 36.0703 75.0625 36.0703C72.8242 36.0703 71.2246 35.6602 70.2637 34.8398C69.3027 34.0195 68.8223 32.666 68.8223 30.7793V20.5312H66.2031V16.6465H68.8223V12.3398ZM89.0371 36.334C86.0957 36.334 83.7695 35.4434 82.0586 33.6621C80.3477 31.8809 79.4922 29.4316 79.4922 26.3145C79.4922 23.2324 80.3535 20.7949 82.0762 19.002C83.7988 17.209 86.1191 16.3125 89.0371 16.3125C91.9668 16.3125 94.2871 17.209 95.998 19.002C97.7207 20.7832 98.582 23.2207 98.582 26.3145C98.582 29.4434 97.7266 31.8984 96.0156 33.6797C94.3164 35.4492 91.9902 36.334 89.0371 36.334ZM85.8379 30.7969C86.6113 31.8516 87.6777 32.3789 89.0371 32.3789C90.3965 32.3789 91.457 31.8516 92.2188 30.7969C92.9805 29.7305 93.3613 28.2363 93.3613 26.3145C93.3613 24.416 92.9746 22.9336 92.2012 21.8672C91.4395 20.7891 90.3848 20.25 89.0371 20.25C87.6777 20.25 86.6113 20.7891 85.8379 21.8672C85.0762 22.9336 84.6953 24.416 84.6953 26.3145C84.6953 28.2363 85.0762 29.7305 85.8379 30.7969ZM101.342 36V16.6465H106.299V20.1094H106.404C106.732 18.9258 107.295 18.0176 108.092 17.3848C108.889 16.7402 109.861 16.418 111.01 16.418C111.584 16.418 112.064 16.4824 112.451 16.6113V21.1641C111.994 20.9531 111.379 20.8477 110.605 20.8477C109.305 20.8477 108.291 21.2285 107.564 21.9902C106.838 22.752 106.475 23.8125 106.475 25.1719V36H101.342Z" fill="white"/>
<path d="M117.668 13.9463C117.158 14.238 116.602 14.3838 116 14.3838C115.398 14.3838 114.84 14.238 114.325 13.9463C113.815 13.6501 113.411 13.249 113.115 12.7432C112.819 12.2373 112.671 11.6859 112.671 11.0889C112.671 10.1774 112.994 9.40039 113.642 8.75781C114.293 8.11068 115.079 7.78711 116 7.78711C116.602 7.78711 117.158 7.93522 117.668 8.23145C118.178 8.52311 118.582 8.92188 118.878 9.42773C119.174 9.93359 119.322 10.4873 119.322 11.0889C119.322 11.6859 119.174 12.2373 118.878 12.7432C118.582 13.249 118.178 13.6501 117.668 13.9463ZM114.277 12.8115C114.751 13.2809 115.326 13.5156 116 13.5156C116.674 13.5156 117.246 13.2809 117.716 12.8115C118.19 12.3376 118.427 11.7633 118.427 11.0889C118.427 10.4098 118.19 9.83561 117.716 9.36621C117.246 8.89225 116.674 8.65527 116 8.65527C115.321 8.65527 114.744 8.89225 114.271 9.36621C113.801 9.83561 113.566 10.4098 113.566 11.0889C113.566 11.7633 113.803 12.3376 114.277 12.8115ZM115.48 12.5381H114.667V9.50977H116.253C116.59 9.50977 116.861 9.59863 117.066 9.77637C117.276 9.9541 117.381 10.1888 117.381 10.4805C117.381 10.7083 117.324 10.9043 117.21 11.0684C117.096 11.2324 116.941 11.3395 116.745 11.3896L117.538 12.5381H116.561L115.904 11.5059H115.48V12.5381ZM115.48 10.1523V10.9111H116.068C116.369 10.9111 116.52 10.7835 116.52 10.5283C116.52 10.2777 116.374 10.1523 116.082 10.1523H115.48Z" fill="white"/>
</svg>
