<svg width="120" height="43" viewBox="0 0 120 43" fill="none" xmlns="http://www.w3.org/2000/svg">
<path d="M18.7598 34L16.8262 27.8477H7.91406L5.98047 34H0.53125L9.33789 8.63477H15.5781L24.4023 34H18.7598ZM12.3086 13.4863L9.05664 23.875H15.6836L12.4316 13.4863H12.3086ZM37.8145 14.418C40.2754 14.418 42.2148 15.3027 43.6328 17.0723C45.0508 18.8301 45.7598 21.2441 45.7598 24.3145C45.7598 27.3848 45.0508 29.8047 43.6328 31.5742C42.2266 33.3438 40.3105 34.2285 37.8848 34.2285C36.4902 34.2285 35.2715 33.9238 34.2285 33.3145C33.1855 32.7051 32.4004 31.8496 31.873 30.748H31.7676V40.082H26.6348V14.6465H31.6973V17.9512H31.8027C32.3184 16.8613 33.1094 16 34.1758 15.3672C35.2422 14.7344 36.4551 14.418 37.8145 14.418ZM36.1094 30.0801C37.4453 30.0801 38.5117 29.5586 39.3086 28.5156C40.1055 27.4727 40.5039 26.0723 40.5039 24.3145C40.5039 22.5801 40.0996 21.1914 39.291 20.1484C38.4941 19.0938 37.4336 18.5664 36.1094 18.5664C34.7969 18.5664 33.7422 19.0938 32.9453 20.1484C32.1484 21.2031 31.75 22.5977 31.75 24.332C31.75 26.0664 32.1484 27.4609 32.9453 28.5156C33.7422 29.5586 34.7969 30.0801 36.1094 30.0801ZM48.168 20.3418C48.168 18.5254 48.9062 17.0664 50.3828 15.9648C51.8594 14.8633 53.8223 14.3125 56.2715 14.3125C58.6621 14.3125 60.5898 14.875 62.0547 16C63.5195 17.1133 64.2695 18.5957 64.3047 20.4473H59.5586C59.5 19.6855 59.1719 19.082 58.5742 18.6367C57.9766 18.1797 57.1855 17.9512 56.2012 17.9512C55.2754 17.9512 54.5312 18.1445 53.9688 18.5312C53.4062 18.9062 53.125 19.4043 53.125 20.0254C53.125 20.9746 53.9863 21.6484 55.709 22.0469L59.3477 22.8379C61.293 23.2832 62.6816 23.9102 63.5137 24.7188C64.3574 25.5273 64.7793 26.6523 64.7793 28.0938C64.7793 29.9688 63.9941 31.4805 62.4238 32.6289C60.8535 33.7656 58.7969 34.334 56.2539 34.334C53.7344 34.334 51.707 33.7773 50.1719 32.6641C48.6484 31.5391 47.8223 30.0332 47.6934 28.1465H52.7031C52.832 28.9668 53.2129 29.5996 53.8457 30.0449C54.4785 30.4785 55.3281 30.6953 56.3945 30.6953C57.4141 30.6953 58.2168 30.5137 58.8027 30.1504C59.3887 29.7754 59.6816 29.2715 59.6816 28.6387C59.6816 28.1348 59.4941 27.7363 59.1191 27.4434C58.7559 27.1504 58.1348 26.8984 57.2559 26.6875L53.6875 25.8789C50.0078 25.0469 48.168 23.2012 48.168 20.3418ZM68.8223 10.3398H73.9551V14.6465H77.541V18.5312H73.9551V27.9355C73.9551 29.4121 74.7227 30.1504 76.2578 30.1504C76.7617 30.1504 77.1895 30.1211 77.541 30.0625V33.8594C76.8379 34 76.0117 34.0703 75.0625 34.0703C72.8242 34.0703 71.2246 33.6602 70.2637 32.8398C69.3027 32.0195 68.8223 30.666 68.8223 28.7793V18.5312H66.2031V14.6465H68.8223V10.3398ZM89.0371 34.334C86.0957 34.334 83.7695 33.4434 82.0586 31.6621C80.3477 29.8809 79.4922 27.4316 79.4922 24.3145C79.4922 21.2324 80.3535 18.7949 82.0762 17.002C83.7988 15.209 86.1191 14.3125 89.0371 14.3125C91.9668 14.3125 94.2871 15.209 95.998 17.002C97.7207 18.7832 98.582 21.2207 98.582 24.3145C98.582 27.4434 97.7266 29.8984 96.0156 31.6797C94.3164 33.4492 91.9902 34.334 89.0371 34.334ZM85.8379 28.7969C86.6113 29.8516 87.6777 30.3789 89.0371 30.3789C90.3965 30.3789 91.457 29.8516 92.2188 28.7969C92.9805 27.7305 93.3613 26.2363 93.3613 24.3145C93.3613 22.416 92.9746 20.9336 92.2012 19.8672C91.4395 18.7891 90.3848 18.25 89.0371 18.25C87.6777 18.25 86.6113 18.7891 85.8379 19.8672C85.0762 20.9336 84.6953 22.416 84.6953 24.3145C84.6953 26.2363 85.0762 27.7305 85.8379 28.7969ZM101.342 34V14.6465H106.299V18.1094H106.404C106.732 16.9258 107.295 16.0176 108.092 15.3848C108.889 14.7402 109.861 14.418 111.01 14.418C111.584 14.418 112.064 14.4824 112.451 14.6113V19.1641C111.994 18.9531 111.379 18.8477 110.605 18.8477C109.305 18.8477 108.291 19.2285 107.564 19.9902C106.838 20.752 106.475 21.8125 106.475 23.1719V34H101.342Z" fill="white"/>
<path d="M117.668 11.9463C117.158 12.238 116.602 12.3838 116 12.3838C115.398 12.3838 114.84 12.238 114.325 11.9463C113.815 11.6501 113.411 11.249 113.115 10.7432C112.819 10.2373 112.671 9.68587 112.671 9.08887C112.671 8.17741 112.994 7.40039 113.642 6.75781C114.293 6.11068 115.079 5.78711 116 5.78711C116.602 5.78711 117.158 5.93522 117.668 6.23145C118.178 6.52311 118.582 6.92188 118.878 7.42773C119.174 7.93359 119.322 8.4873 119.322 9.08887C119.322 9.68587 119.174 10.2373 118.878 10.7432C118.582 11.249 118.178 11.6501 117.668 11.9463ZM114.277 10.8115C114.751 11.2809 115.326 11.5156 116 11.5156C116.674 11.5156 117.246 11.2809 117.716 10.8115C118.19 10.3376 118.427 9.76335 118.427 9.08887C118.427 8.40983 118.19 7.83561 117.716 7.36621C117.246 6.89225 116.674 6.65527 116 6.65527C115.321 6.65527 114.744 6.89225 114.271 7.36621C113.801 7.83561 113.566 8.40983 113.566 9.08887C113.566 9.76335 113.803 10.3376 114.277 10.8115ZM115.48 10.5381H114.667V7.50977H116.253C116.59 7.50977 116.861 7.59863 117.066 7.77637C117.276 7.9541 117.381 8.1888 117.381 8.48047C117.381 8.70833 117.324 8.9043 117.21 9.06836C117.096 9.23242 116.941 9.33952 116.745 9.38965L117.538 10.5381H116.561L115.904 9.50586H115.48V10.5381ZM115.48 8.15234V8.91113H116.068C116.369 8.91113 116.52 8.78353 116.52 8.52832C116.52 8.27767 116.374 8.15234 116.082 8.15234H115.48Z" fill="white"/>
</svg>
