<svg width="40" height="47" viewBox="0 0 40 47" fill="none" xmlns="http://www.w3.org/2000/svg">
<rect width="40" height="40" rx="6" fill="black"/>
<path d="M30.2904 25.7041C30.2589 25.8062 29.7546 27.7472 28.4938 29.7223C27.3907 31.459 26.2875 33.1616 24.4909 33.1957C22.7259 33.2297 22.1901 32.0719 20.1729 32.0719C18.1556 32.0719 17.5568 33.1616 15.8863 33.2297C14.1528 33.2978 12.8605 31.3568 11.7573 29.6542C9.51948 26.1467 7.78594 19.7448 10.0868 15.4201C11.2215 13.2748 13.2702 11.9127 15.5081 11.8786C17.2101 11.8446 18.786 13.1045 19.8261 13.1045C20.8663 13.1045 22.7889 11.5722 24.8376 11.8105C25.6887 11.8446 28.0841 12.1851 29.6285 14.6029C29.5024 14.671 26.7603 16.4077 26.7918 19.9832C26.8233 24.2738 30.2589 25.7041 30.2904 25.7041ZM23.4823 9.49496C24.3964 8.30311 25.0268 6.63453 24.8376 5C23.5139 5.06811 21.9379 5.95347 20.9923 7.14532C20.1413 8.20095 19.4164 9.90359 19.6055 11.5041C21.0869 11.6062 22.5998 10.6868 23.4823 9.49496Z" fill="white"/>
<path d="M20.7406 46.1837C20.3438 46.6211 19.6562 46.6211 19.2594 46.1837L11.9906 38.1719C11.4076 37.5293 11.8636 36.5 12.7312 36.5L27.2688 36.5C28.1365 36.5 28.5924 37.5293 28.0094 38.1719L20.7406 46.1837Z" fill="black"/>
</svg>
