<svg width="596" height="489" viewBox="0 0 596 489" fill="none" xmlns="http://www.w3.org/2000/svg">
<path d="M22.2758 346.644L17.7787 333.944L35.5766 337.182L22.2758 346.644Z" fill="#0071E3"/>
<path d="M561.271 114.824C561.271 114.824 562.505 119.346 548.22 147.808C541.881 160.439 532.899 171.37 523.699 185.592C508.866 208.522 494.299 223.376 474.807 241.893C448.683 266.711 414.929 267.019 388.581 264.206C364.709 261.658 363.303 253.331 324.456 254.706C293.005 255.819 289.496 261.391 278.23 268.113C258.948 279.617 255.061 283.913 220.852 285.124C181.125 286.53 171.596 252.627 106.355 266.707C41.1138 280.786 27.317 333.707 27.317 333.707" stroke="#0071E3" stroke-width="2" stroke-linejoin="round" stroke-dasharray="5 5"/>
</svg>
