<svg width="445" height="486" viewBox="0 0 445 486" fill="none" xmlns="http://www.w3.org/2000/svg">
<path d="M1.65963 147.015C1.65963 147.015 25.4022 157.265 57.4434 163.771C71.6634 166.658 87.3691 167.598 103.614 168.645C129.804 170.332 157.42 165.318 179.423 158.651C208.913 149.715 216.263 137.293 243.325 135.815C265.837 134.585 278.809 141.162 298.54 152.952C323.203 167.689 332.986 181.195 351.698 203.952C371.089 227.536 379.606 242.668 395.228 268.902C402.3 280.779 406.269 287.424 412.597 299.742C418.949 312.11 427.688 332.109 427.688 332.109" stroke="#0071E3" stroke-width="2" stroke-linejoin="round" stroke-dasharray="5 5"/>
<path d="M433.224 345.62L421.018 337.844L436.4 331.472L433.224 345.62Z" fill="#0071E3"/>
</svg>
