<svg width="505" height="578" viewBox="0 0 505 578" fill="none" xmlns="http://www.w3.org/2000/svg">
<path d="M1 2.03839C1 2.03839 88.5858 6.44721 145.5 2.03933C195.398 -1.82518 235.182 22.6531 285 27.4988C336.191 32.4782 377.737 41.8808 415.5 77.9988C436.01 97.6151 465.305 122.126 484.57 175.167C498.62 213.851 500.929 254.642 504 291C504 331.5 496.681 356.258 473 391C449.151 425.987 439.073 428.545 399 449C354.797 471.563 333.803 446.878 285 454C243.403 460.07 246.321 498.235 205.5 508.5C167.93 517.947 148.646 493.001 113 508.5C84.3462 520.959 71 566 71 566" stroke="#0071E3" stroke-width="2"/>
<path d="M68.1933 575.424L66.2933 562.857L77.0204 566.574L68.1933 575.424Z" fill="#0071E3"/>
</svg>
