<?xml version="1.0" encoding="UTF-8" standalone="no"?>
<svg id="Capa_1" style="enable-background:new 0 0 411.595 411.595" xmlns="http://www.w3.org/2000/svg" xml:space="preserve" viewBox="0 0 411.595 411.595" height="512px" width="512px" version="1.1" y="0px" x="0px" xmlns:xlink="http://www.w3.org/1999/xlink">
		<g fill="#fff">
			<path data-original="#000000" d="m284.4 215.8c-0.8 1.2-0.8 2.4-1.2 4-0.4 5.2 3.6 10 8.8 10.4s10-3.6 10.4-8.8c0-1.2 0-2.4 0.4-4.4v-4.4c0-11.6-2-22.8-5.6-33.6-4.8-14-13.2-26.4-23.2-36.8-12.4-12.4-27.6-21.2-44.8-26-8-2-16.8-3.2-25.2-3.2-2.8 0-5.6 0-8.8 0.4-2.8 0.4-5.6 0.8-8.4 1.2-5.2 0.8-8.8 6-7.6 10.8 0.8 5.2 6 8.8 10.8 7.6 2.4-0.4 4.4-0.8 6.8-0.8h1.2c2 0 4-0.4 6-0.4 22 0 42.4 8.8 56.8 23.6 14.4 14.4 23.2 34 23.6 56v0.8 3.6z" data-old_color="#ffffff" class="active-path"/>
			<path data-original="#000000" d="m337.2 224.6c-0.4 5.2 3.6 10 8.8 10.4s10-3.6 10.4-8.8c0.4-4.4 0.4-8.8 0.4-13.2 0-8.8-0.8-17.2-2-25.6-5.2-32-20.8-60.8-42.8-82.8-25.2-25.2-58.8-41.6-96-44.4-4-0.4-8.4-0.4-12.4-0.4-4.4 0-8.8 0-13.2 0.4s-8.8 0.8-13.2 1.6c-5.2 0.8-8.8 6-7.6 10.8 0.8 5.2 6 8.8 10.8 7.6 2.8-0.4 5.2-0.8 8-1.2 1.2 0 2.4-0.4 3.6-0.4 4-0.4 8-0.4 11.6-0.4 13.6 0 26.4 2 38.8 5.6 21.6 6.4 40.8 18 56.4 33.6 12.8 12.8 23.2 28.4 30 45.2 6 15.2 9.6 32 9.6 49.6v4c-0.8 3.2-1.2 5.6-1.2 8.4z" data-old_color="#ffffff" class="active-path"/>
			<path data-original="#000000" d="m350.8 66.203c-38-38-90-61.2-147.6-61.2-6 0-12 0.4-18 0.8s-12 1.2-18 2.4c-5.2 0.8-8.8 6-7.6 10.8 0.8 5.2 6 8.8 10.8 7.6 2.8-0.4 5.2-0.8 8-1.2s5.6-0.8 8.4-0.8c5.6-0.4 10.8-0.8 16.4-0.8 52 0 99.2 21.2 133.6 55.2 34 34 55.2 81.2 55.2 133.6v8.8c0 2.4-0.4 4.8-0.4 7.6-0.4 5.2 3.6 10 8.8 10.4s10-3.6 10.4-8.8c0.4-6 0.8-12 0.8-17.6 0-57.2-23.2-109.2-60.8-146.8z" data-old_color="#ffffff" class="active-path"/>
			<path data-original="#000000" d="m396.8 308.6l-70.8-38c-23.6-12.8-24.4-4.4-49.2 22-6 6.4-17.2 23.2-30.4 20-27.6-6.8-79.2-47.2-96-65.6-8-8.8-42.4-50.8-42.8-64.4-0.8-20.8 44.8-31.2 30-70.8l-31.6-70.8c-29.6-68-112.4 40.8-105.6 91.6 17.6 125.2 237.2 327.6 359.6 260.8 27.2-15.2 64-68.4 36.8-84.8z" data-old_color="#ffffff" class="active-path"/>
		</g>
 </svg>
