<?xml version="1.0" encoding="UTF-8" standalone="no"?>
<svg id="Capa_1" style="enable-background:new 0 0 97.75 97.75" xmlns="http://www.w3.org/2000/svg" xml:space="preserve" height="512px" viewBox="0 0 97.75 97.75" width="512px" version="1.1" y="0px" x="0px" xmlns:xlink="http://www.w3.org/1999/xlink" class="">
	<path data-original="#000000" fill="#fff" d="m48.875 0c-26.992 0-48.875 21.882-48.875 48.875s21.883 48.875 48.875 48.875 48.875-21.882 48.875-48.875-21.883-48.875-48.875-48.875zm24.792 54.161c2.278 2.225 4.688 4.319 6.733 6.774 0.906 1.086 1.76 2.209 2.41 3.472 0.928 1.801 0.09 3.776-1.522 3.883l-10.013-0.002c-2.586 0.214-4.644-0.829-6.379-2.597-1.385-1.409-2.67-2.914-4.004-4.371-0.545-0.598-1.119-1.161-1.803-1.604-1.365-0.888-2.551-0.616-3.333 0.81-0.797 1.451-0.979 3.059-1.055 4.674-0.109 2.361-0.821 2.978-3.19 3.089-5.062 0.237-9.865-0.531-14.329-3.083-3.938-2.251-6.986-5.428-9.642-9.025-5.172-7.012-9.133-14.708-12.692-22.625-0.801-1.783-0.215-2.737 1.752-2.774 3.268-0.063 6.536-0.055 9.804-0.003 1.33 0.021 2.21 0.782 2.721 2.037 1.766 4.345 3.931 8.479 6.644 12.313 0.723 1.021 1.461 2.039 2.512 2.76 1.16 0.796 2.044 0.533 2.591-0.762 0.35-0.823 0.501-1.703 0.577-2.585 0.26-3.021 0.291-6.041-0.159-9.05-0.28-1.883-1.339-3.099-3.216-3.455-0.956-0.181-0.816-0.535-0.351-1.081 0.807-0.944 1.563-1.528 3.074-1.528l11.313-0.002c1.783 0.35 2.183 1.15 2.425 2.946l0.01 12.572c-0.021 0.695 0.349 2.755 1.597 3.21 1 0.33 1.66-0.472 2.258-1.105 2.713-2.879 4.646-6.277 6.377-9.794 0.764-1.551 1.423-3.156 2.063-4.764 0.476-1.189 1.216-1.774 2.558-1.754l10.894 0.013c0.321 0 0.647 0.003 0.965 0.058 1.836 0.314 2.339 1.104 1.771 2.895-0.894 2.814-2.631 5.158-4.329 7.508-1.82 2.516-3.761 4.944-5.563 7.471-1.656 2.31-1.525 3.473 0.531 5.479z" data-old_color="#ffffff" class="active-path"/>
 </svg>
