<?xml version="1.0" encoding="utf-8"?><svg xmlns="http://www.w3.org/2000/svg" xmlns:xlink="http://www.w3.org/1999/xlink"><symbol viewBox="0 0 8 66" id="arrow" xmlns="http://www.w3.org/2000/svg"><path d="M4.354.646a.5.5 0 00-.708 0L.464 3.828a.5.5 0 10.708.708L4 1.707l2.828 2.829a.5.5 0 10.708-.708L4.354.646zM4.5 66V1h-1v65h1z"/></symbol><symbol viewBox="0 0 86 91" id="brush" xmlns="http://www.w3.org/2000/svg"><path d="M27.4 23.997a.814.814 0 00.239-.648c-.304-4.093-2.587-17.58-19.154-19.278a2.094 2.094 0 01-.332-.061c-.135-.037-3.338-.935-5.746-3.511A.838.838 0 00.983.88a34.556 34.556 0 00-.87 7.675c0 3.186.456 6.194 1.353 8.94 2.41 7.396 7.922 12.62 16.379 15.52a.835.835 0 00.865-.203l8.69-8.817zm2.914 18.741l6.78-6.882a.835.835 0 00-.008-1.181l-6.717-6.618a.837.837 0 00-1.183.008l-6.78 6.879a.835.835 0 00-.24.586c-.02.278.09.439.247.595l6.72 6.62a.838.838 0 001.181-.007zm53.977 46.388c.996-1.013 1.566-2.46 1.566-3.97 0-1.544-.594-3.017-1.63-4.035l-43.01-42.375a.833.833 0 00-1.183.009l-6.777 6.88a.834.834 0 00.008 1.18l43.006 42.37a5.62 5.62 0 004.021 1.626 5.64 5.64 0 004-1.685z"/></symbol><symbol viewBox="0 0 32 32" id="check" xmlns="http://www.w3.org/2000/svg"><path d="M3 25h8a1 1 0 001-1v-1.595a7.986 7.986 0 002.979.575c1.8 0 3.505-.596 4.902-1.685l1.463 1.463a.998.998 0 00-.106 1.288l3.536 4.949a.982.982 0 00.106.126c.585.585 1.353.877 2.121.877s1.536-.292 2.121-.877a3.002 3.002 0 000-4.242.982.982 0 00-.126-.106l-4.949-3.536a1 1 0 00-1.288.106l-1.463-1.463a7.933 7.933 0 001.685-4.902 7.94 7.94 0 00-2.344-5.656C18.305 6.991 14.882 6.404 12 7.556V3a1 1 0 00-1-1H3a1 1 0 00-1 1v8a1 1 0 001 1h4.556a8.017 8.017 0 00-.572 3H3a1 1 0 00-1 1v8a1 1 0 001 1zm24.754 1.344A.989.989 0 0128 27a.993.993 0 01-.293.707c-.363.36-.983.38-1.363.047l-2.987-4.181.217-.217 4.18 2.988zM10 18.319A5.901 5.901 0 019.35 17H10v1.319zM4 10V4h6v4.722c-.234.186-.461.384-.678.6s-.414.444-.6.678H4zm5.799 2H11a1 1 0 001-1V9.799a5.993 5.993 0 012.979-.817c1.537 0 3.073.585 4.243 1.755a5.96 5.96 0 011.758 4.242c0 1.604-.624 3.109-1.758 4.243s-2.64 1.758-4.243 1.758A5.958 5.958 0 0112 20.184V16a1 1 0 00-1-1H8.984a5.996 5.996 0 01.815-3zM4 17h3.249a7.942 7.942 0 002.073 3.636c.215.215.443.413.678.601V23H4v-6z"/><path d="M9.207 5.355a.999.999 0 00-1.414 0L6.625 6.523l-.418-.418a.999.999 0 10-1.414 1.414l1.125 1.125a.994.994 0 001.414.001L9.207 6.77a1 1 0 000-1.415z"/></symbol><symbol viewBox="0 0 24 24" id="gear" xmlns="http://www.w3.org/2000/svg"><path class="dcls-1" d="M22.393 8.859l-.971-.194a9.99 9.99 0 00-.4-.971l.548-.821a2.008 2.008 0 00-.25-2.524L19.65 2.68a2.006 2.006 0 00-2.523-.25l-.821.548a9.99 9.99 0 00-.971-.4l-.194-.97A2 2 0 0013.18 0h-2.36a2 2 0 00-1.961 1.607l-.194.971a9.99 9.99 0 00-.971.4l-.821-.548a2.007 2.007 0 00-2.524.25L2.68 4.35a2.007 2.007 0 00-.25 2.523l.548.821a9.99 9.99 0 00-.4.971l-.97.194A2 2 0 000 10.82v2.36a2 2 0 001.607 1.961l.971.194a9.99 9.99 0 00.4.971l-.548.821a2.008 2.008 0 00.25 2.524l1.67 1.669a2.009 2.009 0 002.523.25l.821-.548a9.99 9.99 0 00.971.4l.194.97A2 2 0 0010.82 24h2.36a2 2 0 001.961-1.607l.194-.971a9.99 9.99 0 00.971-.4l.821.548a2.007 2.007 0 002.524-.25l1.669-1.67a2.007 2.007 0 00.25-2.523l-.548-.821a9.99 9.99 0 00.4-.971l.97-.194A2 2 0 0024 13.18v-2.36a2 2 0 00-1.607-1.961zM22 13.18l-1.548.31a1 1 0 00-.765.706 8 8 0 01-.7 1.689 1 1 0 00.041 1.041l.874 1.311-1.67 1.669-1.31-.874a1 1 0 00-1.041-.041 8 8 0 01-1.689.7 1 1 0 00-.706.765L13.18 22h-2.36l-.31-1.548a1 1 0 00-.706-.765 8 8 0 01-1.689-.7 1 1 0 00-1.041.041l-1.311.874-1.669-1.67.874-1.31a1 1 0 00.041-1.041 8 8 0 01-.7-1.689 1 1 0 00-.765-.706L2 13.18v-2.36l1.548-.31a1 1 0 00.765-.71 8 8 0 01.7-1.689 1 1 0 00-.041-1.041l-.878-1.307 1.67-1.669 1.31.874a1 1 0 001.041.041 8 8 0 011.689-.7 1 1 0 00.706-.765L10.82 2h2.36l.31 1.548a1 1 0 00.706.765 8 8 0 011.689.7 1 1 0 001.041-.041l1.311-.874 1.669 1.67-.874 1.31a1 1 0 00-.041 1.041 8 8 0 01.7 1.689 1 1 0 00.765.706L22 10.82z"/><path class="dcls-1" d="M13 7a1 1 0 00-1-1 6.006 6.006 0 00-6 6 1 1 0 002 0 4 4 0 014-4 1 1 0 001-1zm4 4a1 1 0 00-1 1 4 4 0 01-4 4 1 1 0 000 2 6.006 6.006 0 006-6 1 1 0 00-1-1z"/></symbol><symbol viewBox="0 0 32 32" id="github" xmlns="http://www.w3.org/2000/svg"><path clip-rule="evenodd" d="M16.003 0C7.17 0 .008 7.162.008 15.997c0 7.067 4.582 13.063 10.94 15.179.8.146 1.052-.328 1.052-.752 0-.38.008-1.442 0-2.777-4.449.967-5.371-2.107-5.371-2.107-.727-1.848-1.775-2.34-1.775-2.34-1.452-.992.109-.973.109-.973 1.605.113 2.451 1.649 2.451 1.649 1.427 2.443 3.743 1.737 4.654 1.329.146-1.034.56-1.739 1.017-2.139-3.552-.404-7.286-1.776-7.286-7.906 0-1.747.623-3.174 1.646-4.292-.165-.404-.715-2.031.157-4.234 0 0 1.343-.43 4.398 1.641a15.31 15.31 0 014.005-.538c1.359.006 2.727.183 4.005.538 3.055-2.07 4.396-1.641 4.396-1.641.872 2.203.323 3.83.159 4.234 1.023 1.118 1.644 2.545 1.644 4.292 0 6.146-3.74 7.498-7.304 7.893C19.479 23.548 20 24.508 20 26v4.428c0 .428.258.901 1.07.746C27.422 29.055 32 23.062 32 15.997 32 7.162 24.838 0 16.003 0z" fill-rule="evenodd"/></symbol><symbol viewBox="0 0 24 24" id="globe" xmlns="http://www.w3.org/2000/svg"><path d="M3.441 9.955a4.926 4.926 0 006.233 7.571l4.256 4.257a.773.773 0 001.169-1.007l-.075-.087-4.218-4.218a4.927 4.927 0 00-7.365-6.516zm8.585-7.957c-4.756 0-8.736 3.319-9.751 7.767a5.912 5.912 0 012.235-1.74A8.525 8.525 0 018.906 4.09l-.107.174c-.538.893-.971 2.011-1.275 3.28.499.05.99.164 1.465.34.632-2.628 1.823-4.385 3.037-4.385l.115.005c1.266.116 2.488 2.118 3.056 4.996h-4.998a5.955 5.955 0 011.55 1.499l3.674.001a18.974 18.974 0 01-.136 5h-2.645a5.895 5.895 0 01-.299.842l-.129.272-.122.229.158.157h2.715a10.956 10.956 0 01-.732 1.985l1.105 1.107c.492-.858.892-1.908 1.18-3.09l2.722-.002a8.537 8.537 0 01-3.734 3.26l.225.223.125.14c.22.296.344.625.378.953A10.002 10.002 0 0022.027 12c0-5.524-4.478-10.002-10.001-10.002zm-2.712 9.05a3.38 3.38 0 11-4.78 4.78 3.38 3.38 0 014.78-4.78zM16.932 10l3.358-.001.008.03c.15.633.23 1.292.23 1.97a8.48 8.48 0 01-.545 3l-3.174.002c.143-.95.218-1.958.218-3.001 0-.684-.032-1.353-.095-2zm-1.787-5.911l.023.008A8.53 8.53 0 0119.776 8.5h-3.049c-.313-1.753-.86-3.278-1.582-4.41z"/></symbol><symbol viewBox="0 0 512 512" id="heart" xmlns="http://www.w3.org/2000/svg"><path d="M365.4 59.628c60.56 0 109.6 49.03 109.6 109.47 0 109.47-109.6 171.8-219.06 281.271C146.47 340.898 37 278.568 37 169.099c0-60.44 49.04-109.47 109.47-109.47 54.73 0 82.1 27.37 109.47 82.1 27.36-54.73 54.73-82.101 109.46-82.101z"/></symbol><symbol viewBox="0 0 512 512" fill-rule="evenodd" clip-rule="evenodd" stroke-linejoin="round" stroke-miterlimit="2" id="instagram" xmlns="http://www.w3.org/2000/svg"><path d="M256 0c141.29 0 256 114.71 256 256 0 141.29-114.71 256-256 256C114.71 512 0 397.29 0 256 0 114.71 114.71 0 256 0zm0 96c-43.453 0-48.902.184-65.968.963-17.03.777-28.661 3.482-38.839 7.437-10.521 4.089-19.444 9.56-28.339 18.455-8.895 8.895-14.366 17.818-18.455 28.339-3.955 10.177-6.659 21.808-7.437 38.838C96.184 207.098 96 212.547 96 256s.184 48.902.962 65.968c.778 17.03 3.482 28.661 7.437 38.838 4.089 10.521 9.56 19.444 18.455 28.34 8.895 8.895 17.818 14.366 28.339 18.455 10.178 3.954 21.809 6.659 38.839 7.436 17.066.779 22.515.963 65.968.963s48.902-.184 65.968-.963c17.03-.777 28.661-3.482 38.838-7.436 10.521-4.089 19.444-9.56 28.34-18.455 8.895-8.896 14.366-17.819 18.455-28.34 3.954-10.177 6.659-21.808 7.436-38.838.779-17.066.963-22.515.963-65.968s-.184-48.902-.963-65.968c-.777-17.03-3.482-28.661-7.436-38.838-4.089-10.521-9.56-19.444-18.455-28.339-8.896-8.895-17.819-14.366-28.34-18.455-10.177-3.955-21.808-6.66-38.838-7.437C304.902 96.184 299.453 96 256 96zm0 28.829c42.722 0 47.782.163 64.654.933 15.6.712 24.071 3.318 29.709 5.509 7.469 2.902 12.799 6.37 18.397 11.969 5.6 5.598 9.067 10.929 11.969 18.397 2.191 5.638 4.798 14.109 5.509 29.709.77 16.872.933 21.932.933 64.654 0 42.722-.163 47.782-.933 64.654-.711 15.6-3.318 24.071-5.509 29.709-2.902 7.469-6.369 12.799-11.969 18.397-5.598 5.6-10.928 9.067-18.397 11.969-5.638 2.191-14.109 4.798-29.709 5.509-16.869.77-21.929.933-64.654.933-42.725 0-47.784-.163-64.654-.933-15.6-.711-24.071-3.318-29.709-5.509-7.469-2.902-12.799-6.369-18.398-11.969-5.599-5.598-9.066-10.928-11.968-18.397-2.191-5.638-4.798-14.109-5.51-29.709-.77-16.872-.932-21.932-.932-64.654 0-42.722.162-47.782.932-64.654.712-15.6 3.319-24.071 5.51-29.709 2.902-7.468 6.369-12.799 11.968-18.397 5.599-5.599 10.929-9.067 18.398-11.969 5.638-2.191 14.109-4.797 29.709-5.509 16.872-.77 21.932-.933 64.654-.933zm0 49.009c-45.377 0-82.162 36.785-82.162 82.162 0 45.377 36.785 82.162 82.162 82.162 45.377 0 82.162-36.785 82.162-82.162 0-45.377-36.785-82.162-82.162-82.162zm0 135.495c-29.455 0-53.333-23.878-53.333-53.333s23.878-53.333 53.333-53.333 53.333 23.878 53.333 53.333-23.878 53.333-53.333 53.333zm104.609-138.741c0 10.604-8.597 19.199-19.201 19.199-10.603 0-19.199-8.595-19.199-19.199 0-10.604 8.596-19.2 19.199-19.2 10.604 0 19.201 8.596 19.201 19.2z"/></symbol><symbol viewBox="0 0 540 128" id="logo" xmlns="http://www.w3.org/2000/svg"><path d="M159.176 33.38h14.904c8.403 0 14.536 1.81 18.4 5.428 3.925 3.557 5.888 8.464 5.888 14.72 0 7.237-2.116 12.788-6.348 16.652-4.232 3.864-10.519 5.796-18.86 5.796h-3.588V101h-10.396V33.38zm14.26 33.488c5.397 0 9.169-1.196 11.316-3.588 2.147-2.392 3.22-5.275 3.22-8.648 0-3.619-1.043-6.563-3.128-8.832-2.085-2.27-5.581-3.404-10.488-3.404h-4.784v24.472h3.864zm52.557 35.052c-3.803 0-7.329-.889-10.58-2.668-3.189-1.84-5.765-4.416-7.728-7.728-1.901-3.373-2.852-7.299-2.852-11.776 0-4.416.828-8.28 2.484-11.592 1.717-3.312 4.14-5.888 7.268-7.728 3.128-1.84 6.808-2.76 11.04-2.76 2.453 0 4.753.43 6.9 1.288 2.147.859 3.956 1.932 5.428 3.22 1.472 1.227 2.453 2.453 2.944 3.68l.184-7.084h9.476V101h-9.384l-.184-7.452c-1.043 2.208-2.944 4.17-5.704 5.888-2.76 1.656-5.857 2.484-9.292 2.484zm1.656-8.28c3.496 0 6.44-1.196 8.832-3.588 2.392-2.453 3.588-5.643 3.588-9.568v-.644c0-2.637-.552-4.999-1.656-7.084-1.104-2.085-2.607-3.71-4.508-4.876-1.901-1.165-3.987-1.748-6.256-1.748-3.925 0-6.961 1.288-9.108 3.864-2.147 2.515-3.22 5.796-3.22 9.844 0 4.11 1.043 7.452 3.128 10.028 2.147 2.515 5.213 3.772 9.2 3.772zm35.994-34.868h9.936v8.28c.981-2.821 2.576-5.09 4.784-6.808 2.208-1.717 4.722-2.576 7.544-2.576 1.962 0 3.312.184 4.048.552l-1.38 10.028c-.552-.368-1.748-.552-3.588-.552-2.883 0-5.52.92-7.912 2.76-2.331 1.84-3.496 4.784-3.496 8.832V101h-9.936V58.772zm47.874 43.148c-2.944 0-6.01-.368-9.2-1.104-3.128-.797-5.366-1.717-6.716-2.76l3.312-7.82c3.68 2.576 7.882 3.864 12.604 3.864 4.723 0 7.084-1.38 7.084-4.14 0-1.227-.49-2.177-1.472-2.852-.981-.675-2.729-1.472-5.244-2.392l-3.496-1.288c-3.68-1.472-6.593-3.22-8.74-5.244-2.146-2.085-3.22-4.815-3.22-8.188 0-3.864 1.503-6.87 4.508-9.016 3.067-2.208 7.146-3.312 12.236-3.312 2.515 0 4.968.276 7.36.828 2.454.552 4.324 1.257 5.612 2.116l-3.588 7.912c-.797-.797-2.085-1.472-3.864-2.024-1.717-.613-3.649-.92-5.796-.92-4.354 0-6.532 1.319-6.532 3.956 0 1.472.583 2.607 1.748 3.404 1.166.736 3.067 1.564 5.704 2.484.246.061 1.196.399 2.852 1.012 3.926 1.533 6.839 3.281 8.74 5.244 1.902 1.963 2.852 4.477 2.852 7.544 0 4.17-1.594 7.33-4.784 9.476-3.128 2.147-7.114 3.22-11.96 3.22zm47.026 0c-5.029 0-9.231-.981-12.604-2.944-3.373-2.024-5.857-4.692-7.452-8.004-1.595-3.373-2.392-7.053-2.392-11.04 0-4.477.92-8.403 2.76-11.776 1.901-3.373 4.508-5.95 7.82-7.728 3.312-1.84 7.053-2.76 11.224-2.76 6.501 0 11.316 1.81 14.444 5.428 3.189 3.557 4.784 8.587 4.784 15.088a50.1 50.1 0 01-.276 5.152h-30.36c.675 3.741 1.993 6.44 3.956 8.096 2.024 1.656 4.815 2.484 8.372 2.484 2.944 0 5.367-.245 7.268-.736 1.901-.49 3.649-1.165 5.244-2.024l3.036 7.084c-1.533.981-3.619 1.84-6.256 2.576s-5.827 1.104-9.568 1.104zm8.924-25.484c.061-3.803-.767-6.47-2.484-8.004-1.717-1.595-4.171-2.392-7.36-2.392-6.44 0-10.151 3.465-11.132 10.396h20.976zm20.905-43.056h9.844V101h-9.844V33.38zm24.525 25.392h10.304V101h-10.304V58.772zm5.06-7.912c-1.901 0-3.496-.644-4.784-1.932-1.288-1.288-1.932-2.883-1.932-4.784 0-1.717.644-3.19 1.932-4.416 1.288-1.227 2.883-1.84 4.784-1.84 1.84 0 3.404.613 4.692 1.84 1.288 1.227 1.932 2.699 1.932 4.416 0 1.901-.644 3.496-1.932 4.784-1.227 1.288-2.791 1.932-4.692 1.932zm37.677 51.06c-3.803 0-7.33-.889-10.58-2.668-3.19-1.84-5.766-4.416-7.728-7.728-1.902-3.373-2.852-7.299-2.852-11.776 0-4.416.828-8.28 2.484-11.592 1.717-3.312 4.14-5.888 7.268-7.728 3.128-1.84 6.808-2.76 11.04-2.76 2.453 0 4.753.43 6.9 1.288 2.146.859 3.956 1.932 5.428 3.22 1.472 1.227 2.453 2.453 2.944 3.68l.184-7.084h9.476V101h-9.384l-.184-7.452c-1.043 2.208-2.944 4.17-5.704 5.888-2.76 1.656-5.858 2.484-9.292 2.484zm1.656-8.28c3.496 0 6.44-1.196 8.832-3.588 2.392-2.453 3.588-5.643 3.588-9.568v-.644c0-2.637-.552-4.999-1.656-7.084-1.104-2.085-2.607-3.71-4.508-4.876-1.902-1.165-3.987-1.748-6.256-1.748-3.926 0-6.962 1.288-9.108 3.864-2.147 2.515-3.22 5.796-3.22 9.844 0 4.11 1.042 7.452 3.128 10.028 2.146 2.515 5.213 3.772 9.2 3.772zm36.269-34.868h9.752l.092 7.728c1.166-2.576 3.006-4.692 5.52-6.348 2.515-1.656 5.459-2.484 8.832-2.484 4.355 0 7.698.92 10.028 2.76 2.331 1.779 3.895 4.293 4.692 7.544.798 3.25 1.196 7.483 1.196 12.696V101h-9.936V80.944c0-5.336-.521-9.17-1.564-11.5-1.042-2.392-3.189-3.588-6.44-3.588-1.84 0-3.71.583-5.612 1.748-1.901 1.104-3.496 2.73-4.784 4.876-1.226 2.147-1.84 4.661-1.84 7.544V101h-9.936V58.772zM125.031 81.348c5.984-7.292 14.299-58.34-27.263-75.577-41.556-17.237-61.505 8.618-61.175 19.226-13.964 4.97-16.959 20.551-16.959 20.551S-.649 55.493.017 67.426C.681 79.359 15.31 80.022 15.31 80.022l4.436 6.078.883-6.078s21.858-10.056 22.858-1.262c1 8.783-19.193 11.87-19.193 11.87l-4.1-2.981 1.25 5.563s-4.464 1.4-2.47 5.702c3.99 6.629 17.29-2.323 17.29-2.323s-10.3 38.754 19.278 30.167c-18.29-9.281-1.666-23.538-1.666-23.538s3.66 37.126 39.897 14.586c-28.592 2.986-22.039-11.382-18.948-14.586 3.085-3.203 18.948-19.65 18.948-19.65s8.315 12.358-11.969 27.511c26.598 7.069 27.928-41.327 27.928-41.327s6.32 23.204-10.31 38.781c37.902-8.285 18.949-55.689 18.949-55.689s6.99 2.313 6.66 28.502zM24.933 44.222c-.639-2.402 1.191-4.311 3.101-4.64 1.91-.329 8.868 1.718 10.884 2.795 2.016 1.076-13.347 4.248-13.985 1.845z"/></symbol><symbol viewBox="0 0 24.438 24.438" id="parselian" xmlns="http://www.w3.org/2000/svg"><path d="M23.504 15.49c1.125-1.375 2.688-11-5.125-14.25-7.812-3.25-11.562 1.625-11.5 3.625-2.625.937-3.188 3.875-3.188 3.875S-.122 10.615.003 12.865s2.875 2.375 2.875 2.375l.834 1.146.166-1.146s4.109-1.896 4.297-.238c.188 1.656-3.608 2.238-3.608 2.238l-.771-.562.235 1.049s-.839.264-.464 1.075c.75 1.25 3.25-.438 3.25-.438s-1.936 7.307 3.624 5.688c-3.438-1.75-.313-4.438-.313-4.438s.688 7 7.5 2.75c-5.375.563-4.143-2.146-3.562-2.75l3.562-3.705s1.563 2.33-2.25 5.187c5 1.333 5.25-7.792 5.25-7.792s1.188 4.375-1.938 7.312c7.125-1.562 3.562-10.5 3.562-10.5s1.314.436 1.252 5.374zm-18.817-7c-.12-.453.224-.813.583-.875s1.667.324 2.046.527c.379.203-2.509.801-2.629.348z"/></symbol><symbol viewBox="0 0 22 17" id="quotes" xmlns="http://www.w3.org/2000/svg"><path d="M9.91.486c.583 0 1.116.216 1.599.648.482.457.723 1.079.723 1.866 0 1.447-.368 2.818-1.104 4.113A16.953 16.953 0 018.27 10.77a26.714 26.714 0 01-3.846 3.046 44.92 44.92 0 01-4.037 2.438l-.381-.914c1.726-1.041 3.123-2.082 4.19-3.123a15.583 15.583 0 002.665-3.428 2.344 2.344 0 01-.723-.19 1.368 1.368 0 01-.648-.42 1.615 1.615 0 01-.457-.723c-.127-.28-.19-.647-.19-1.104 0-.711.14-1.422.419-2.133a6.693 6.693 0 011.142-1.866A6.453 6.453 0 018.043.98 3.876 3.876 0 019.909.486zm9.368 0c.584 0 1.117.216 1.6.648.482.457.724 1.079.724 1.866 0 1.447-.369 2.818-1.105 4.113a16.953 16.953 0 01-2.856 3.657 26.71 26.71 0 01-3.847 3.046 44.903 44.903 0 01-4.037 2.438l-.381-.914c1.726-1.041 3.123-2.082 4.19-3.123a15.582 15.582 0 002.665-3.428 2.344 2.344 0 01-.723-.19 1.367 1.367 0 01-.648-.42 1.614 1.614 0 01-.457-.723c-.127-.28-.19-.647-.19-1.104 0-.711.14-1.422.419-2.133.28-.686.66-1.308 1.142-1.866A6.452 6.452 0 0117.412.98a3.876 3.876 0 011.866-.495z" fill-opacity=".5"/></symbol><symbol viewBox="0 0 48 48" id="search" xmlns="http://www.w3.org/2000/svg"><path d="M31 28h-1.59l-.55-.55C30.82 25.18 32 22.23 32 19c0-7.18-5.82-13-13-13S6 11.82 6 19s5.82 13 13 13c3.23 0 6.18-1.18 8.45-3.13l.55.55V31l10 9.98L40.98 38 31 28zm-12 0a9 9 0 11.001-18.001A9 9 0 0119 28z"/></symbol><symbol viewBox="0 0 48 48" id="select-arrow" xmlns="http://www.w3.org/2000/svg"><path d="M14.83 16.42L24 25.59l9.17-9.17L36 19.25l-12 12-12-12z"/></symbol><symbol viewBox="0 0 512 512" id="telegram" xmlns="http://www.w3.org/2000/svg"><path d="M256 0C114.615 0 0 114.615 0 256s114.615 256 256 256 256-114.615 256-256S397.385 0 256 0zm133.059 161.936L343.591 379a16.007 16.007 0 01-25.177 9.593l-66.136-48.861-40.068 37.8a5.429 5.429 0 01-7.74-.294l-.861-.946 6.962-67.375 125.484-114.651a3.358 3.358 0 00-4.061-5.317l-160.479 101.57-69.115-23.212a9.393 9.393 0 01-.32-17.694L372.5 147.744a12.441 12.441 0 0116.559 14.192z"/></symbol><symbol viewBox="0 0 512 512" fill-rule="evenodd" clip-rule="evenodd" stroke-linejoin="round" stroke-miterlimit="2" id="twitter" xmlns="http://www.w3.org/2000/svg"><path d="M256 0c141.29 0 256 114.71 256 256 0 141.29-114.71 256-256 256C114.71 512 0 397.29 0 256 0 114.71 114.71 0 256 0zm-46.848 391.04c113.536 0 175.616-94.08 175.616-175.616 0-2.688 0-5.376-.128-7.936a126.45 126.45 0 0030.848-32c-11.008 4.864-22.912 8.192-35.456 9.728 12.8-7.68 22.528-19.712 27.136-34.176A124.989 124.989 0 01368 166.016c-11.264-12.032-27.264-19.456-45.056-19.456-34.048 0-61.696 27.648-61.696 61.696 0 4.864.512 9.6 1.664 14.08-51.328-2.56-96.768-27.136-127.232-64.512a61.916 61.916 0 00-8.32 30.976 61.446 61.446 0 0027.52 51.328c-10.112-.256-19.584-3.072-27.904-7.68v.768c0 29.952 21.248 54.784 49.536 60.544a61.529 61.529 0 01-16.256 2.176 58.93 58.93 0 01-11.648-1.152c7.808 24.576 30.592 42.368 57.6 42.88-21.12 16.512-47.744 26.368-76.672 26.368-4.992 0-9.856-.256-14.72-.896 27.008 17.664 59.52 27.904 94.336 27.904z"/></symbol><symbol viewBox="0 0 96 96" id="vk" xmlns="http://www.w3.org/2000/svg"><path d="M48 0a48 48 0 1048 48A48 48 0 0048 0zm28 62.63c-.3 1.92-3.48 1.56-6.28 1.64a18.46 18.46 0 01-6.25-.55c-1.89-.74-6.91-7.35-8.2-7.1-2.93.6-1.87 6.69-2.71 7.1-1.29.6-5.29.44-6.86.27-8.23-1.37-13-6.85-17.44-13.93-5.51-8.61-8.77-15-7.37-15.85s5.75-.63 10.06-.55c1.32.05 5 9.4 6 11 3.89 6.22 5.1 1.62 5.18 1.07 1.16-11.23-1.59-10.73-3.2-10.96 1.18-3.62 9.57-3 9.57-3a16.34 16.34 0 013.81 1.4c.41.25.88 1.18.85 4.06-.16 4.42-.61 10.37 1.34 10.37 1.48.06 3.81-3.45 5.73-7.07 1.67-3.21 3-6.33 3.54-6.55a38.21 38.21 0 016-.3c2.63 0 5.29 0 6 .55 1.4 1.21-1.07 5-3.32 8.23-1.81 2.63-5.37 6.06-5.15 7.92.28 2.57 9.44 8.05 8.7 12.25z" data-name="Layer 2"/></symbol></svg>