<?xml version="1.0" encoding="utf-8"?><svg xmlns="http://www.w3.org/2000/svg" xmlns:xlink="http://www.w3.org/1999/xlink"><symbol viewBox="0 0 8 66" id="arrow" xmlns="http://www.w3.org/2000/svg"><path d="M4.354.646a.5.5 0 00-.708 0L.464 3.828a.5.5 0 10.708.708L4 1.707l2.828 2.829a.5.5 0 10.708-.708L4.354.646zM4.5 66V1h-1v65h1z"/></symbol><symbol viewBox="0 0 32 32" id="github" xmlns="http://www.w3.org/2000/svg"><path clip-rule="evenodd" d="M16.003 0C7.17 0 .008 7.162.008 15.997c0 7.067 4.582 13.063 10.94 15.179.8.146 1.052-.328 1.052-.752 0-.38.008-1.442 0-2.777-4.449.967-5.371-2.107-5.371-2.107-.727-1.848-1.775-2.34-1.775-2.34-1.452-.992.109-.973.109-.973 1.605.113 2.451 1.649 2.451 1.649 1.427 2.443 3.743 1.737 4.654 1.329.146-1.034.56-1.739 1.017-2.139-3.552-.404-7.286-1.776-7.286-7.906 0-1.747.623-3.174 1.646-4.292-.165-.404-.715-2.031.157-4.234 0 0 1.343-.43 4.398 1.641a15.31 15.31 0 014.005-.538c1.359.006 2.727.183 4.005.538 3.055-2.07 4.396-1.641 4.396-1.641.872 2.203.323 3.83.159 4.234 1.023 1.118 1.644 2.545 1.644 4.292 0 6.146-3.74 7.498-7.304 7.893C19.479 23.548 20 24.508 20 26v4.428c0 .428.258.901 1.07.746C27.422 29.055 32 23.062 32 15.997 32 7.162 24.838 0 16.003 0z" fill-rule="evenodd"/></symbol><symbol viewBox="0 0 512 512" fill-rule="evenodd" clip-rule="evenodd" stroke-linejoin="round" stroke-miterlimit="2" id="instagram" xmlns="http://www.w3.org/2000/svg"><path d="M256 0c141.29 0 256 114.71 256 256 0 141.29-114.71 256-256 256C114.71 512 0 397.29 0 256 0 114.71 114.71 0 256 0zm0 96c-43.453 0-48.902.184-65.968.963-17.03.777-28.661 3.482-38.839 7.437-10.521 4.089-19.444 9.56-28.339 18.455-8.895 8.895-14.366 17.818-18.455 28.339-3.955 10.177-6.659 21.808-7.437 38.838C96.184 207.098 96 212.547 96 256s.184 48.902.962 65.968c.778 17.03 3.482 28.661 7.437 38.838 4.089 10.521 9.56 19.444 18.455 28.34 8.895 8.895 17.818 14.366 28.339 18.455 10.178 3.954 21.809 6.659 38.839 7.436 17.066.779 22.515.963 65.968.963s48.902-.184 65.968-.963c17.03-.777 28.661-3.482 38.838-7.436 10.521-4.089 19.444-9.56 28.34-18.455 8.895-8.896 14.366-17.819 18.455-28.34 3.954-10.177 6.659-21.808 7.436-38.838.779-17.066.963-22.515.963-65.968s-.184-48.902-.963-65.968c-.777-17.03-3.482-28.661-7.436-38.838-4.089-10.521-9.56-19.444-18.455-28.339-8.896-8.895-17.819-14.366-28.34-18.455-10.177-3.955-21.808-6.66-38.838-7.437C304.902 96.184 299.453 96 256 96zm0 28.829c42.722 0 47.782.163 64.654.933 15.6.712 24.071 3.318 29.709 5.509 7.469 2.902 12.799 6.37 18.397 11.969 5.6 5.598 9.067 10.929 11.969 18.397 2.191 5.638 4.798 14.109 5.509 29.709.77 16.872.933 21.932.933 64.654 0 42.722-.163 47.782-.933 64.654-.711 15.6-3.318 24.071-5.509 29.709-2.902 7.469-6.369 12.799-11.969 18.397-5.598 5.6-10.928 9.067-18.397 11.969-5.638 2.191-14.109 4.798-29.709 5.509-16.869.77-21.929.933-64.654.933-42.725 0-47.784-.163-64.654-.933-15.6-.711-24.071-3.318-29.709-5.509-7.469-2.902-12.799-6.369-18.398-11.969-5.599-5.598-9.066-10.928-11.968-18.397-2.191-5.638-4.798-14.109-5.51-29.709-.77-16.872-.932-21.932-.932-64.654 0-42.722.162-47.782.932-64.654.712-15.6 3.319-24.071 5.51-29.709 2.902-7.468 6.369-12.799 11.968-18.397 5.599-5.599 10.929-9.067 18.398-11.969 5.638-2.191 14.109-4.797 29.709-5.509 16.872-.77 21.932-.933 64.654-.933zm0 49.009c-45.377 0-82.162 36.785-82.162 82.162 0 45.377 36.785 82.162 82.162 82.162 45.377 0 82.162-36.785 82.162-82.162 0-45.377-36.785-82.162-82.162-82.162zm0 135.495c-29.455 0-53.333-23.878-53.333-53.333s23.878-53.333 53.333-53.333 53.333 23.878 53.333 53.333-23.878 53.333-53.333 53.333zm104.609-138.741c0 10.604-8.597 19.199-19.201 19.199-10.603 0-19.199-8.595-19.199-19.199 0-10.604 8.596-19.2 19.199-19.2 10.604 0 19.201 8.596 19.201 19.2z"/></symbol><symbol viewBox="0 0 22 17" id="quotes" xmlns="http://www.w3.org/2000/svg"><path d="M9.91.486c.583 0 1.116.216 1.599.648.482.457.723 1.079.723 1.866 0 1.447-.368 2.818-1.104 4.113A16.953 16.953 0 018.27 10.77a26.714 26.714 0 01-3.846 3.046 44.92 44.92 0 01-4.037 2.438l-.381-.914c1.726-1.041 3.123-2.082 4.19-3.123a15.583 15.583 0 002.665-3.428 2.344 2.344 0 01-.723-.19 1.368 1.368 0 01-.648-.42 1.615 1.615 0 01-.457-.723c-.127-.28-.19-.647-.19-1.104 0-.711.14-1.422.419-2.133a6.693 6.693 0 011.142-1.866A6.453 6.453 0 018.043.98 3.876 3.876 0 019.909.486zm9.368 0c.584 0 1.117.216 1.6.648.482.457.724 1.079.724 1.866 0 1.447-.369 2.818-1.105 4.113a16.953 16.953 0 01-2.856 3.657 26.71 26.71 0 01-3.847 3.046 44.903 44.903 0 01-4.037 2.438l-.381-.914c1.726-1.041 3.123-2.082 4.19-3.123a15.582 15.582 0 002.665-3.428 2.344 2.344 0 01-.723-.19 1.367 1.367 0 01-.648-.42 1.614 1.614 0 01-.457-.723c-.127-.28-.19-.647-.19-1.104 0-.711.14-1.422.419-2.133.28-.686.66-1.308 1.142-1.866A6.452 6.452 0 0117.412.98a3.876 3.876 0 011.866-.495z" fill-opacity=".5"/></symbol><symbol viewBox="0 0 512 512" id="telegram" xmlns="http://www.w3.org/2000/svg"><path d="M256 0C114.615 0 0 114.615 0 256s114.615 256 256 256 256-114.615 256-256S397.385 0 256 0zm133.059 161.936L343.591 379a16.007 16.007 0 01-25.177 9.593l-66.136-48.861-40.068 37.8a5.429 5.429 0 01-7.74-.294l-.861-.946 6.962-67.375 125.484-114.651a3.358 3.358 0 00-4.061-5.317l-160.479 101.57-69.115-23.212a9.393 9.393 0 01-.32-17.694L372.5 147.744a12.441 12.441 0 0116.559 14.192z"/></symbol><symbol viewBox="0 0 512 512" fill-rule="evenodd" clip-rule="evenodd" stroke-linejoin="round" stroke-miterlimit="2" id="twitter" xmlns="http://www.w3.org/2000/svg"><path d="M256 0c141.29 0 256 114.71 256 256 0 141.29-114.71 256-256 256C114.71 512 0 397.29 0 256 0 114.71 114.71 0 256 0zm-46.848 391.04c113.536 0 175.616-94.08 175.616-175.616 0-2.688 0-5.376-.128-7.936a126.45 126.45 0 0030.848-32c-11.008 4.864-22.912 8.192-35.456 9.728 12.8-7.68 22.528-19.712 27.136-34.176A124.989 124.989 0 01368 166.016c-11.264-12.032-27.264-19.456-45.056-19.456-34.048 0-61.696 27.648-61.696 61.696 0 4.864.512 9.6 1.664 14.08-51.328-2.56-96.768-27.136-127.232-64.512a61.916 61.916 0 00-8.32 30.976 61.446 61.446 0 0027.52 51.328c-10.112-.256-19.584-3.072-27.904-7.68v.768c0 29.952 21.248 54.784 49.536 60.544a61.529 61.529 0 01-16.256 2.176 58.93 58.93 0 01-11.648-1.152c7.808 24.576 30.592 42.368 57.6 42.88-21.12 16.512-47.744 26.368-76.672 26.368-4.992 0-9.856-.256-14.72-.896 27.008 17.664 59.52 27.904 94.336 27.904z"/></symbol><symbol viewBox="0 0 96 96" id="vk" xmlns="http://www.w3.org/2000/svg"><path d="M48 0a48 48 0 1048 48A48 48 0 0048 0zm28 62.63c-.3 1.92-3.48 1.56-6.28 1.64a18.46 18.46 0 01-6.25-.55c-1.89-.74-6.91-7.35-8.2-7.1-2.93.6-1.87 6.69-2.71 7.1-1.29.6-5.29.44-6.86.27-8.23-1.37-13-6.85-17.44-13.93-5.51-8.61-8.77-15-7.37-15.85s5.75-.63 10.06-.55c1.32.05 5 9.4 6 11 3.89 6.22 5.1 1.62 5.18 1.07 1.16-11.23-1.59-10.73-3.2-10.96 1.18-3.62 9.57-3 9.57-3a16.34 16.34 0 013.81 1.4c.41.25.88 1.18.85 4.06-.16 4.42-.61 10.37 1.34 10.37 1.48.06 3.81-3.45 5.73-7.07 1.67-3.21 3-6.33 3.54-6.55a38.21 38.21 0 016-.3c2.63 0 5.29 0 6 .55 1.4 1.21-1.07 5-3.32 8.23-1.81 2.63-5.37 6.06-5.15 7.92.28 2.57 9.44 8.05 8.7 12.25z" data-name="Layer 2"/></symbol></svg>