<svg width="25" height="25" viewBox="0 0 25 25" fill="none" xmlns="http://www.w3.org/2000/svg">
<g clip-path="url(#clip0)">
<path d="M22.3694 6.57806C21.8516 6.82856 21.6349 7.45163 21.8854 7.96916C22.5698 9.38288 22.9167 10.9067 22.9167 12.5C22.9167 18.2437 18.2437 22.9167 12.5 22.9167C6.75634 22.9167 2.08333 18.2437 2.08333 12.5C2.08333 6.75634 6.75634 2.08333 12.5 2.08333C14.8801 2.08333 17.116 2.86051 18.9667 4.3307C19.4155 4.68903 20.0719 4.614 20.4302 4.16361C20.7886 3.71348 20.7136 3.05786 20.2629 2.70004C18.072 0.958761 15.315 0 12.5 0C5.60786 0 0 5.60786 0 12.5C0 19.3921 5.60786 25 12.5 25C19.3921 25 25 19.3921 25 12.5C25 10.5901 24.5829 8.75982 23.7605 7.06202C23.5105 6.54322 22.8854 6.32706 22.3694 6.57806Z" fill="black"/>
<path d="M12.5 4.1665C11.925 4.1665 11.4584 4.63317 11.4584 5.20817V12.4998C11.4584 13.0748 11.925 13.5415 12.5 13.5415H17.7084C18.2834 13.5415 18.75 13.0748 18.75 12.4998C18.75 11.9248 18.2834 11.4582 17.7084 11.4582H13.5417V5.20817C13.5417 4.63317 13.075 4.1665 12.5 4.1665Z" fill="black"/>
</g>
<defs>
<clipPath id="clip0">
<rect width="25" height="25" fill="white"/>
</clipPath>
</defs>
</svg>
