<svg width="20" height="20" viewBox="0 0 20 20" xmlns="http://www.w3.org/2000/svg">
<g clip-path="url(#clip0)">
<path d="M11.8323 9.99995L19.6199 2.21211C20.1267 1.70554 20.1267 0.886492 19.6199 0.379925C19.1134 -0.126642 18.2943 -0.126642 17.7877 0.379925L9.9999 8.16777L2.21229 0.379925C1.70548 -0.126642 0.886671 -0.126642 0.380103 0.379925C-0.126701 0.886492 -0.126701 1.70554 0.380103 2.21211L8.16772 9.99995L0.380103 17.7878C-0.126701 18.2944 -0.126701 19.1134 0.380103 19.62C0.632557 19.8727 0.964495 19.9996 1.2962 19.9996C1.6279 19.9996 1.9596 19.8727 2.21229 19.62L9.9999 11.8321L17.7877 19.62C18.0404 19.8727 18.3721 19.9996 18.7038 19.9996C19.0355 19.9996 19.3672 19.8727 19.6199 19.62C20.1267 19.1134 20.1267 18.2944 19.6199 17.7878L11.8323 9.99995Z" />
</g>
<defs>
<clipPath id="clip0">
<rect width="20" height="20" />
</clipPath>
</defs>
</svg>
