<svg width="25" height="25" viewBox="0 0 25 25" xmlns="http://www.w3.org/2000/svg">
<g clip-path="url(#clip0)">
<path d="M25 12.5C25 5.60728 19.3927 -2.45102e-07 12.5 -5.46392e-07C5.60728 -8.47683e-07 1.66225e-06 5.60727 1.36096e-06 12.5C1.05967e-06 19.3927 5.60728 25 12.5 25C19.3927 25 25 19.3927 25 12.5ZM11.7635 16.3615L6.55523 11.1531C6.3521 10.95 6.25 10.6833 6.25 10.4166C6.25 10.15 6.3521 9.8833 6.55523 9.68018C6.9625 9.2729 7.62085 9.2729 8.02813 9.68018L12.5 14.1521L16.9719 9.68023C17.3792 9.27295 18.0375 9.27295 18.4448 9.68023C18.8521 10.0875 18.8521 10.7459 18.4448 11.1531L13.2364 16.3615C12.8292 16.7688 12.1708 16.7688 11.7635 16.3615Z"/>
</g>
<defs>
<clipPath id="clip0">
<rect width="25" height="25" transform="translate(25) rotate(90)"/>
</clipPath>
</defs>
</svg>
