<svg width="65" height="65" viewBox="0 0 65 65" fill="none" xmlns="http://www.w3.org/2000/svg">
<path d="M61.6612 26.0194L56.1514 24.6669C55.8912 23.9531 55.5913 23.2385 55.2538 22.5288L58.1235 17.7458C58.5384 17.0542 58.4295 16.1688 57.8591 15.5985L50.4013 8.14066C49.8311 7.57031 48.9456 7.46133 48.2539 7.87629L43.4711 10.7461C42.7612 10.4086 42.0468 10.1086 41.3329 9.84832L39.9805 4.33875C39.7876 3.55277 39.0829 3 38.2734 3H27.7266C26.9171 3 26.2124 3.55277 26.0195 4.33875L24.6671 9.84832C23.9532 10.1086 23.2388 10.4086 22.5289 10.7461L17.7461 7.87629C17.0545 7.46133 16.1691 7.57031 15.5987 8.14066L8.1409 15.5985C7.57055 16.1688 7.46156 17.0542 7.87652 17.7458L10.7462 22.5288C10.4087 23.2385 10.1088 23.9531 9.84856 24.6669L4.33875 26.0194C3.55277 26.2124 3 26.9171 3 27.7266V38.2734C3 39.0829 3.55277 39.7876 4.33875 39.9806L9.84856 41.3331C10.1088 42.0469 10.4087 42.7615 10.7462 43.4712L7.87652 48.2542C7.46156 48.9458 7.57055 49.8312 8.1409 50.4015L15.5987 57.8593C16.1691 58.4297 17.0544 58.5387 17.7461 58.1237L22.5289 55.2539C23.2388 55.5914 23.9532 55.8914 24.6671 56.1517L26.0195 61.6612C26.2173 62.4642 26.9413 63 27.7266 63H38.2734C39.0776 63 39.7873 62.4457 39.9805 61.6612L41.3329 56.1517C42.0468 55.8914 42.7612 55.5914 43.4711 55.2539L48.2539 58.1237C48.9455 58.5388 49.8309 58.4298 50.4013 57.8593L57.8591 50.4015C58.4295 49.8312 58.5384 48.9458 58.1235 48.2542L55.2538 43.4712C55.5913 42.7615 55.8912 42.0469 56.1514 41.3331L61.6612 39.9806C62.4472 39.7876 63 39.0829 63 38.2734V27.7266C63 26.9171 62.4472 26.2124 61.6612 26.0194ZM26.7516 34.4626L32.025 37.9782C32.6155 38.3719 33.3846 38.3719 33.9751 37.9782L39.2486 34.4626C39.7376 34.1366 40.0314 33.5878 40.0314 33V22.9C43.3009 25.1681 45.3048 28.8997 45.3048 33C45.3048 39.7848 39.7849 45.3047 33.0001 45.3047C26.2153 45.3047 20.6954 39.7848 20.6954 33C20.6954 28.8998 22.6993 25.1681 25.9689 22.9V33C25.9688 33.5877 26.2625 34.1366 26.7516 34.4626ZM33 48.8203C34.208 48.8203 35.3845 48.6837 36.5156 48.426V59.4844H29.4844V48.426C30.6155 48.6837 31.792 48.8203 33 48.8203ZM59.4844 36.895L54.3787 38.1482C53.7826 38.2945 53.306 38.7412 53.1214 39.3267C52.765 40.4572 52.2844 41.6038 51.6932 42.7343C51.4093 43.277 51.4284 43.9282 51.7436 44.4533L54.403 48.8859L48.8862 54.4028L44.4537 51.7432C43.9283 51.4281 43.2769 51.4092 42.7345 51.6929C41.8382 52.1618 40.932 52.5597 40.0315 52.8825V47.1689C45.2361 44.5757 48.8205 39.1989 48.8205 32.9999C48.8205 29.7927 47.8617 26.7018 46.0479 24.0614C44.2785 21.4859 41.8188 19.5055 38.935 18.3347C38.3931 18.1147 37.7771 18.1786 37.292 18.5053C36.8067 18.8319 36.5159 19.3786 36.5159 19.9635V32.0592L33.0002 34.403L29.4846 32.0592V19.9635C29.4846 19.3786 29.1938 18.832 28.7085 18.5053C28.2234 18.1786 27.6074 18.1147 27.0655 18.3347C24.1816 19.5055 21.7219 21.4859 19.9526 24.0614C18.1385 26.7019 17.1797 29.7928 17.1797 33C17.1797 39.199 20.7641 44.5758 25.9688 47.169V52.8826C25.0683 52.5598 24.1621 52.1618 23.2657 51.693C22.723 51.4093 22.0718 51.4282 21.5466 51.7433L17.1141 54.4029L11.5972 48.8861L14.2567 44.4534C14.5717 43.9283 14.5909 43.277 14.3071 42.7344C13.7157 41.6039 13.2353 40.4573 12.8788 39.3268C12.6942 38.7414 12.2175 38.2945 11.6215 38.1483L6.51562 36.895V29.1052L11.6213 27.852C12.2174 27.7056 12.694 27.2589 12.8786 26.6734C13.235 25.5429 13.7156 24.3963 14.3068 23.2658C14.5907 22.7231 14.5716 22.0719 14.2564 21.5468L11.597 17.1142L17.1138 11.5973L21.5463 14.2569C22.0717 14.5721 22.7231 14.5909 23.2655 14.3072C24.396 13.7159 25.5425 13.2354 26.673 12.8789C27.2585 12.6943 27.7054 12.2176 27.8517 11.6215L29.1052 6.51562H36.895L38.1482 11.6213C38.2945 12.2175 38.7414 12.6941 39.3268 12.8787C40.4573 13.2352 41.6039 13.7156 42.7344 14.307C43.277 14.5907 43.9283 14.5718 44.4536 14.2567L48.8861 11.5971L54.4029 17.1139L51.7434 21.5466C51.4284 22.0717 51.4092 22.723 51.693 23.2656C52.2844 24.3961 52.7648 25.5427 53.1213 26.6732C53.3059 27.2586 53.7826 27.7055 54.3786 27.8517L59.4844 29.105V36.895Z" fill="#26CF41"/>
</svg>
