<svg width="65" height="65" viewBox="0 0 65 65" fill="none" xmlns="http://www.w3.org/2000/svg">
<path d="M34.5312 19.2969H46.7188V21.3281H34.5312V19.2969Z" fill="#26CF41"/>
<path d="M34.5312 23.3594H46.7188V25.3906H34.5312V23.3594Z" fill="#26CF41"/>
<path d="M24.375 34.5312C24.375 33.9925 24.161 33.4759 23.7801 33.0949C23.3991 32.714 22.8825 32.5 22.3438 32.5H20.3125C19.7738 32.5 19.2571 32.714 18.8762 33.0949C18.4953 33.4759 18.2812 33.9925 18.2812 34.5312V36.5625C18.2812 37.1012 18.4953 37.6179 18.8762 37.9988C19.2571 38.3797 19.7738 38.5938 20.3125 38.5938H22.3438C22.8825 38.5938 23.3991 38.3797 23.7801 37.9988C24.161 37.6179 24.375 37.1012 24.375 36.5625V34.5312ZM20.3125 36.5625V34.5312H22.3438V36.5625H20.3125Z" fill="#26CF41"/>
<path d="M24.375 42.6562C24.375 42.1175 24.161 41.6009 23.7801 41.2199C23.3991 40.839 22.8825 40.625 22.3438 40.625H20.3125C19.7738 40.625 19.2571 40.839 18.8762 41.2199C18.4953 41.6009 18.2812 42.1175 18.2812 42.6562V44.6875C18.2812 45.2262 18.4953 45.7429 18.8762 46.1238C19.2571 46.5047 19.7738 46.7188 20.3125 46.7188H22.3438C22.8825 46.7188 23.3991 46.5047 23.7801 46.1238C24.161 45.7429 24.375 45.2262 24.375 44.6875V42.6562ZM20.3125 44.6875V42.6562H22.3438V44.6875H20.3125Z" fill="#26CF41"/>
<path d="M22.3438 48.75H20.3125C19.7738 48.75 19.2571 48.964 18.8762 49.3449C18.4953 49.7259 18.2812 50.2425 18.2812 50.7812V52.8125C18.2812 53.3512 18.4953 53.8679 18.8762 54.2488C19.2571 54.6297 19.7738 54.8438 20.3125 54.8438H22.3438C22.8825 54.8438 23.3991 54.6297 23.7801 54.2488C24.161 53.8679 24.375 53.3512 24.375 52.8125V50.7812C24.375 50.2425 24.161 49.7259 23.7801 49.3449C23.3991 48.964 22.8825 48.75 22.3438 48.75ZM20.3125 52.8125V50.7812H22.3438V52.8125H20.3125Z" fill="#26CF41"/>
<path d="M26.4062 34.5312H40.625V36.5625H26.4062V34.5312Z" fill="#26CF41"/>
<path d="M26.4062 42.6562H40.625V44.6875H26.4062V42.6562Z" fill="#26CF41"/>
<path d="M26.4062 50.7812H38.5938V52.8125H26.4062V50.7812Z" fill="#26CF41"/>
<path d="M16.25 20.3125V24.375H18.2812V23.3594H19.3984C19.5294 23.9951 19.7819 24.5996 20.1419 25.1398L19.3466 25.935L18.6286 25.2159L17.1925 26.652L20.0647 29.5252L21.5008 28.0891L20.7827 27.3711L21.578 26.5759C22.1182 26.9365 22.7231 27.1893 23.3594 27.3203V28.4375H22.3438V30.4688H26.4062V28.4375H25.3906V27.3203C26.0264 27.1895 26.631 26.9371 27.171 26.5769L27.9662 27.3721L27.2482 28.0902L28.6843 29.5263L31.5565 26.653L30.1204 25.217L29.4023 25.936L28.6071 25.1408C28.9676 24.6004 29.2204 23.9956 29.3516 23.3594H30.4688V24.375H32.5V20.3125H30.4688V21.3281H29.3516C29.2206 20.6924 28.9681 20.0879 28.6081 19.5477L29.4034 18.7525L30.1214 19.4716L31.5575 18.0355L28.6853 15.1623L27.2492 16.5984L27.9673 17.3164L27.172 18.1116C26.6318 17.751 26.0269 17.4982 25.3906 17.3672V16.25H26.4062V14.2188H22.3438V16.25H23.3594V17.3672C22.7236 17.498 22.119 17.7504 21.579 18.1106L20.7838 17.3154L21.5018 16.5973L20.0657 15.1613L17.1935 18.0345L18.6296 19.4705L19.3477 18.7515L20.1429 19.5467C19.7824 20.0871 19.5296 20.6919 19.3984 21.3281H18.2812V20.3125H16.25ZM24.375 19.2969C24.9776 19.2969 25.5667 19.4756 26.0678 19.8104C26.5688 20.1452 26.9593 20.621 27.1899 21.1778C27.4206 21.7345 27.4809 22.3471 27.3633 22.9382C27.2458 23.5292 26.9556 24.0721 26.5295 24.4982C26.1034 24.9243 25.5605 25.2145 24.9694 25.3321C24.3784 25.4496 23.7658 25.3893 23.209 25.1587C22.6523 24.9281 22.1764 24.5376 21.8416 24.0365C21.5068 23.5354 21.3281 22.9464 21.3281 22.3438C21.3281 21.5357 21.6491 20.7607 22.2205 20.1893C22.7919 19.6179 23.5669 19.2969 24.375 19.2969Z" fill="#26CF41"/>
<path d="M52.8125 4.0625H41.4578C41.247 3.47065 40.859 2.95813 40.3465 2.59467C39.834 2.23122 39.222 2.03449 38.5938 2.03125H26.4062C25.5989 2.03366 24.8253 2.35544 24.2544 2.92632C23.6836 3.4972 23.3618 4.27079 23.3594 5.07812V8.125H14.2188C13.6805 8.12661 13.1648 8.34113 12.7842 8.72171C12.4036 9.1023 12.1891 9.61802 12.1875 10.1562V29.4531H14.2188V10.1562H23.3594C23.361 10.6945 23.5755 11.2102 23.9561 11.5908C24.3367 11.9714 24.8524 12.1859 25.3906 12.1875H39.6094C40.1476 12.1859 40.6633 11.9714 41.0439 11.5908C41.4245 11.2102 41.639 10.6945 41.6406 10.1562H48.75V48.75H42.6562C42.118 48.7516 41.6023 48.9661 41.2217 49.3467C40.8411 49.7273 40.6266 50.243 40.625 50.7812V56.875H14.2188V31.4844H12.1875V56.875C12.1891 57.4132 12.4036 57.9289 12.7842 58.3095C13.1648 58.6901 13.6805 58.9046 14.2188 58.9062H41.6406C41.9099 58.9042 42.1681 58.7988 42.3617 58.6117L50.4867 50.4867C50.6738 50.2931 50.7792 50.0349 50.7812 49.7656V10.1562C50.7796 9.61802 50.5651 9.1023 50.1845 8.72171C49.8039 8.34113 49.2882 8.12661 48.75 8.125H41.6406V6.09375H52.8125V60.9375H10.1562V6.09375H21.3281V4.0625H10.1562C9.61802 4.06411 9.1023 4.27863 8.72172 4.65922C8.34113 5.0398 8.12661 5.55552 8.125 6.09375V60.9375C8.12661 61.4757 8.34113 61.9914 8.72172 62.372C9.1023 62.7526 9.61802 62.9671 10.1562 62.9688H52.8125C53.3507 62.9671 53.8664 62.7526 54.247 62.372C54.6276 61.9914 54.8421 61.4757 54.8438 60.9375V6.09375C54.8421 5.55552 54.6276 5.0398 54.247 4.65922C53.8664 4.27863 53.3507 4.06411 52.8125 4.0625ZM39.6094 10.1562H25.3906V5.07812C25.3906 4.80876 25.4976 4.55044 25.6881 4.35997C25.8786 4.1695 26.1369 4.0625 26.4062 4.0625H38.5938C38.8631 4.0625 39.1214 4.1695 39.3119 4.35997C39.5024 4.55044 39.6094 4.80876 39.6094 5.07812V10.1562ZM42.6562 55.443V50.7812H47.318L42.6562 55.443Z" fill="#26CF41"/>
<path d="M42.6562 34.5312H44.6875V36.5625H42.6562V34.5312Z" fill="#26CF41"/>
<path d="M42.6562 42.6562H44.6875V44.6875H42.6562V42.6562Z" fill="#26CF41"/>
</svg>
