<svg width="212" height="66" viewBox="0 0 212 66" fill="none" xmlns="http://www.w3.org/2000/svg">
<path d="M62.9287 29.5085H73.1929V33.3918H58.0947V9.93085H62.9287V29.5085ZM85.7773 33.3918C85.5625 32.9728 85.4067 32.4518 85.3101 31.8288C84.1821 33.0856 82.7158 33.7141 80.9111 33.7141C79.2031 33.7141 77.7852 33.2199 76.6572 32.2316C75.54 31.2433 74.9814 29.9973 74.9814 28.4933C74.9814 26.6457 75.6636 25.2277 77.0278 24.2394C78.4028 23.2512 80.3848 22.7516 82.9736 22.7409H85.1167V21.7419C85.1167 20.9362 84.9072 20.2917 84.4883 19.8083C84.0801 19.3249 83.4302 19.0832 82.5386 19.0832C81.7544 19.0832 81.1367 19.2712 80.6855 19.6472C80.2451 20.0231 80.0249 20.5388 80.0249 21.194H75.3682C75.3682 20.1843 75.6797 19.2497 76.3027 18.3903C76.9258 17.5309 77.8066 16.8596 78.9453 16.3762C80.084 15.882 81.3623 15.6349 82.7803 15.6349C84.9287 15.6349 86.6313 16.1774 87.8882 17.2624C89.1558 18.3366 89.7896 19.8513 89.7896 21.8063V29.3635C89.8003 31.0178 90.0312 32.2692 90.4824 33.1179V33.3918H85.7773ZM81.9263 30.153C82.6138 30.153 83.2476 30.0026 83.8276 29.7018C84.4077 29.3903 84.8374 28.9767 85.1167 28.4611V25.4641H83.3765C81.0454 25.4641 79.8047 26.2697 79.6543 27.881L79.6382 28.155C79.6382 28.735 79.8423 29.2131 80.2505 29.5891C80.6587 29.965 81.2173 30.153 81.9263 30.153ZM109.061 24.8356C109.061 27.5212 108.449 29.675 107.224 31.2971C106.01 32.9084 104.367 33.7141 102.293 33.7141C100.532 33.7141 99.1084 33.1017 98.0234 31.8771V40.0949H93.3667V15.9572H97.6851L97.8462 17.6652C98.9741 16.3117 100.446 15.6349 102.261 15.6349C104.41 15.6349 106.08 16.4299 107.272 18.0197C108.465 19.6096 109.061 21.801 109.061 24.5939V24.8356ZM104.404 24.4973C104.404 22.8752 104.114 21.6237 103.534 20.7429C102.965 19.862 102.132 19.4216 101.037 19.4216C99.5757 19.4216 98.5713 19.9802 98.0234 21.0974V28.2355C98.5928 29.3849 99.6079 29.9597 101.069 29.9597C103.292 29.9597 104.404 28.1389 104.404 24.4973ZM117.537 11.6711V15.9572H120.518V19.3732H117.537V28.0744C117.537 28.7189 117.66 29.1808 117.907 29.4601C118.154 29.7394 118.627 29.8791 119.325 29.8791C119.841 29.8791 120.297 29.8415 120.695 29.7663V33.2951C119.782 33.5744 118.842 33.7141 117.875 33.7141C114.609 33.7141 112.944 32.0651 112.88 28.7673V19.3732H110.334V15.9572H112.88V11.6711H117.537ZM121.903 24.5134C121.903 22.7839 122.236 21.2424 122.902 19.8889C123.568 18.5353 124.524 17.488 125.771 16.7468C127.027 16.0056 128.483 15.6349 130.137 15.6349C132.49 15.6349 134.407 16.3547 135.89 17.7941C137.383 19.2336 138.215 21.1887 138.387 23.6594L138.419 24.8517C138.419 27.5266 137.673 29.675 136.18 31.2971C134.687 32.9084 132.683 33.7141 130.169 33.7141C127.656 33.7141 125.647 32.9084 124.143 31.2971C122.65 29.6857 121.903 27.4943 121.903 24.7228V24.5134ZM126.56 24.8517C126.56 26.506 126.872 27.7736 127.495 28.6545C128.118 29.5246 129.009 29.9597 130.169 29.9597C131.297 29.9597 132.178 29.53 132.812 28.6706C133.446 27.8005 133.763 26.4147 133.763 24.5134C133.763 22.8913 133.446 21.6345 132.812 20.7429C132.178 19.8513 131.287 19.4055 130.137 19.4055C128.999 19.4055 128.118 19.8513 127.495 20.7429C126.872 21.6237 126.56 22.9933 126.56 24.8517ZM156.982 24.8356C156.982 27.5212 156.37 29.675 155.145 31.2971C153.931 32.9084 152.288 33.7141 150.214 33.7141C148.453 33.7141 147.029 33.1017 145.944 31.8771V40.0949H141.288V15.9572H145.606L145.767 17.6652C146.895 16.3117 148.367 15.6349 150.182 15.6349C152.331 15.6349 154.001 16.4299 155.193 18.0197C156.386 19.6096 156.982 21.801 156.982 24.5939V24.8356ZM152.325 24.4973C152.325 22.8752 152.035 21.6237 151.455 20.7429C150.886 19.862 150.053 19.4216 148.958 19.4216C147.497 19.4216 146.492 19.9802 145.944 21.0974V28.2355C146.514 29.3849 147.529 29.9597 148.99 29.9597C151.213 29.9597 152.325 28.1389 152.325 24.4973Z" fill="black"/>
<path d="M182.521 23.8044H173.24V33.3918H168.406V9.93085H183.682V13.8464H173.24V19.905H182.521V23.8044ZM191.094 33.3918H186.421V15.9572H191.094V33.3918ZM186.147 11.4455C186.147 10.7473 186.378 10.1725 186.84 9.72137C187.312 9.2702 187.952 9.04462 188.757 9.04462C189.552 9.04462 190.186 9.2702 190.659 9.72137C191.131 10.1725 191.368 10.7473 191.368 11.4455C191.368 12.1545 191.126 12.7346 190.643 13.1857C190.17 13.6369 189.542 13.8625 188.757 13.8625C187.973 13.8625 187.339 13.6369 186.856 13.1857C186.383 12.7346 186.147 12.1545 186.147 11.4455ZM201.583 21.1618L204.516 15.9572H209.495L204.532 24.4973L209.705 33.3918H204.709L201.6 27.9133L198.506 33.3918H193.495L198.667 24.4973L193.72 15.9572H198.715L201.583 21.1618Z" fill="#26CF41"/>
<path d="M3.22583 35.8506V11.9797C3.22583 10.9108 4.09239 10.0442 5.1613 10.0442H34.8387C35.9076 10.0442 36.7742 10.9108 36.7742 11.9797V35.8506" fill="#6F6571"/>
<path d="M34.8386 33.2701H33.5482L32.7863 32.5526H7.42182L6.45158 33.2701H5.16127C4.80494 33.2701 4.51611 32.9812 4.51611 32.6249V11.9798C4.51611 11.6234 4.80494 11.3346 5.16127 11.3346H34.8387C35.195 11.3346 35.4838 11.6234 35.4838 11.9798V32.6249C35.4838 32.9812 35.1949 33.2701 34.8386 33.2701V33.2701Z" fill="#C3DDFF"/>
<path d="M32.9032 31.9797H7.09683C6.38417 31.9797 5.80652 31.402 5.80652 30.6894V13.9152C5.80652 13.2025 6.38425 12.6249 7.09683 12.6249H32.9033C33.616 12.6249 34.1936 13.2026 34.1936 13.9152V30.6894C34.1935 31.4021 33.6159 31.9797 32.9032 31.9797Z" fill="#DBEAFF"/>
<path d="M14.7295 14.903L12.7241 17.2426C12.4234 17.5933 12.2582 18.0401 12.2582 18.5022V19.2704C12.2582 19.7623 12.7866 20.0733 13.2167 19.8344L15.9961 18.2902L14.7295 14.903Z" fill="#FF9900"/>
<path d="M15.9961 18.2902L18.0646 17.1411L16.1291 13.2701L14.7295 14.903C15.0283 16.0762 15.4519 17.2105 15.9961 18.2902Z" fill="#DA8B14"/>
<path d="M23.871 13.27L27.276 17.2425C27.5767 17.5933 27.7419 18.0401 27.7419 18.5021V19.2703C27.7419 19.7623 27.2135 20.0732 26.7834 19.8343L21.9354 17.141L23.871 13.27Z" fill="#FF9900"/>
<path d="M0.64502 35.2055V36.615H38.7096L39.9999 35.8506V35.2055C39.9999 34.8491 39.711 34.5603 39.3547 34.5603H1.29018C0.933848 34.5603 0.64502 34.8492 0.64502 35.2055V35.2055Z" fill="#DAD8DB"/>
<path d="M23.4127 4.88293L17.7798 3.88965C16.7966 5.92723 16.24 8.2373 16.24 10.6894C16.24 13.8044 17.1418 16.6874 18.6718 19.0765L22.8237 17.7862C23.9002 15.6773 24.516 13.2626 24.516 10.6894C24.516 8.62769 24.1225 6.66637 23.4127 4.88293V4.88293Z" fill="#26CF41"/>
<path d="M19.6141 17.7861C19.0937 17.7861 18.6321 17.4703 18.4218 16.9942C17.5766 15.0804 17.0968 12.9479 17.0968 10.6894C17.0968 8.62536 17.4942 6.66489 18.2083 4.88271L17.8125 4.48615L16.5871 4.88294C15.8774 6.6663 15.4839 8.62763 15.4839 10.6893C15.4839 13.8043 16.3857 16.6873 17.9157 19.0765L19.8828 19.8703L22.0843 19.0765C22.3494 18.6624 22.5978 18.2285 22.8238 17.7861H19.6141Z" fill="#21B038"/>
<path d="M21.7997 21.6571H18.2005C17.7954 21.6571 17.4904 21.288 17.567 20.8901L17.9158 19.0764H22.0845L22.4333 20.8901C22.5097 21.288 22.2048 21.6571 21.7997 21.6571V21.6571Z" fill="#C8C5C9"/>
<path d="M21.7188 10.0265C21.7188 10.8115 21.4682 11.5051 20.7965 11.8087C20.5536 11.9186 20.284 11.9797 20.0001 11.9797C18.9311 11.9797 18.0646 11.1131 18.0646 10.0442C18.0646 9.76129 18.1253 9.49262 18.2343 9.25043C18.5374 8.5773 19.214 8.32074 20.0001 8.32074C21.069 8.32082 21.7188 8.95762 21.7188 10.0265Z" fill="#C3DDFF"/>
<path d="M1.29031 34.5603H0.645156C0.288828 34.5603 0 34.8491 0 35.2055V35.8506C0 36.5632 0.577734 37.1409 1.29031 37.1409H38.7097C39.4223 37.1409 40 36.5632 40 35.8506H2.58063C1.86805 35.8506 1.29031 35.273 1.29031 34.5603V34.5603Z" fill="#C8C5C9"/>
<path d="M29.0323 28.7539C28.5144 28.7539 28.019 28.8454 27.5558 29.0058C27.1219 27.7368 25.9322 26.8185 24.5162 26.8185C23.7265 26.8185 23.0126 27.1134 22.4519 27.5845C22.5281 27.341 22.5807 27.0871 22.5807 26.8185C22.5807 25.3932 21.4253 24.2379 20.0001 24.2379C18.5748 24.2379 17.4194 25.3932 17.4194 26.8185C17.4194 27.0871 17.472 27.341 17.5482 27.5845C16.9875 27.1134 16.2736 26.8185 15.484 26.8185C14.0679 26.8185 12.8783 27.7368 12.4443 29.0058C11.9811 28.8454 11.4856 28.7539 10.9679 28.7539C8.47374 28.7539 6.45178 30.7759 6.45178 33.27H33.5486C33.5483 30.7758 31.5264 28.7539 29.0323 28.7539V28.7539Z" fill="white"/>
<path d="M20.8164 0.593689C20.8164 0.593689 18.3399 1.45884 18.2084 4.88267L23.4128 4.88291C22.7803 3.29392 21.8965 1.84541 20.8164 0.593689V0.593689Z" fill="#FF9900"/>
<path d="M20.8165 0.593633C20.7013 0.460039 20.5846 0.329805 20.465 0.200742C20.2168 -0.0669141 19.7833 -0.0669141 19.5352 0.200742C18.2947 1.53863 17.287 3.12481 16.5872 4.88293L18.2084 4.8827C18.843 3.30074 19.7393 1.84223 20.8165 0.593633V0.593633Z" fill="#DA8B14"/>
<path d="M20 8.10876C19.2147 8.10876 18.5379 8.57845 18.2344 9.25048C18.4771 9.14087 18.7486 9.0765 19.0323 9.0765C20.1012 9.0765 20.9677 9.94306 20.9677 11.012C20.9677 11.2956 20.9062 11.566 20.7965 11.8088C21.4685 11.5052 21.9355 10.8295 21.9355 10.0442C21.9355 8.97525 21.0689 8.10876 20 8.10876V8.10876Z" fill="#A4CCFF"/>
<path d="M4.39453 55.548H2.77344V60.3918H1.5918V49.8254H2.77344V54.5129H4.375L8.25195 49.8254H9.72656L5.39062 54.9523L10.2051 60.3918H8.66211L4.39453 55.548ZM11.0352 54.9523C11.0352 53.9367 11.2305 53.022 11.6211 52.2082C12.0182 51.3944 12.5749 50.7629 13.291 50.3137C14.0137 49.8579 14.8307 49.6301 15.7422 49.6301C17.1484 49.6301 18.2878 50.1249 19.1602 51.1144C20.0326 52.0975 20.4688 53.4029 20.4688 55.0305V55.2746C20.4688 56.2967 20.2702 57.218 19.873 58.0383C19.4824 58.8521 18.929 59.4803 18.2129 59.923C17.4967 60.3657 16.6797 60.5871 15.7617 60.5871C14.362 60.5871 13.2227 60.0956 12.3438 59.1125C11.4714 58.1229 11.0352 56.8143 11.0352 55.1867V54.9523ZM12.207 55.2746C12.207 56.5376 12.5326 57.576 13.1836 58.3898C13.8411 59.1971 14.7005 59.6008 15.7617 59.6008C16.8164 59.6008 17.6693 59.1971 18.3203 58.3898C18.9779 57.576 19.3066 56.5051 19.3066 55.1769V54.9523C19.3066 54.145 19.1569 53.4061 18.8574 52.7355C18.5579 52.065 18.138 51.5474 17.5977 51.1828C17.0573 50.8117 16.4388 50.6262 15.7422 50.6262C14.7005 50.6262 13.8509 51.0363 13.1934 51.8566C12.5358 52.6704 12.207 53.7381 12.207 55.0598V55.2746ZM28.7402 58.8098L32.9395 49.8254H34.3848V60.3918H33.2129V51.7199L29.1504 60.3918H28.3203L24.1797 51.5246V60.3918H23.0176V49.8254H24.5508L28.7402 58.8098ZM45.6348 60.3918H44.4629V50.8312H38.7695V60.3918H37.5977V49.8254H45.6348V60.3918ZM50.0586 53.6633H53.1055C53.8867 53.6633 54.5703 53.8065 55.1562 54.093C55.7487 54.3729 56.1947 54.7635 56.4941 55.2648C56.8001 55.7661 56.9531 56.3488 56.9531 57.0129C56.9531 58.035 56.6016 58.8553 55.8984 59.4738C55.2018 60.0858 54.2578 60.3918 53.0664 60.3918H48.8965V49.8254H50.0586V53.6633ZM50.0586 54.6594V59.4055H53.0859C53.9258 59.4055 54.5833 59.1939 55.0586 58.7707C55.5404 58.3475 55.7812 57.7681 55.7812 57.0324C55.7812 56.3293 55.5469 55.7629 55.0781 55.3332C54.6159 54.897 53.9811 54.6724 53.1738 54.6594H50.0586ZM60.7617 54.6398H63.7793C63.8118 53.6763 64.0332 52.8104 64.4434 52.0422C64.8535 51.2674 65.4102 50.6717 66.1133 50.2551C66.8164 49.8384 67.6042 49.6301 68.4766 49.6301C69.8763 49.6301 71.0124 50.1249 71.8848 51.1144C72.7637 52.104 73.2031 53.4126 73.2031 55.0402V55.2746C73.2031 56.2902 73.0046 57.2082 72.6074 58.0285C72.2103 58.8488 71.6536 59.4803 70.9375 59.923C70.2214 60.3657 69.4076 60.5871 68.4961 60.5871C67.1484 60.5871 66.0417 60.1314 65.1758 59.2199C64.3099 58.3019 63.8444 57.1073 63.7793 55.6359H60.7617V60.3918H59.5996V49.8254H60.7617V54.6398ZM64.9316 55.2746C64.9316 56.5376 65.2572 57.576 65.9082 58.3898C66.5658 59.1971 67.4284 59.6008 68.4961 59.6008C69.5443 59.6008 70.3939 59.1971 71.0449 58.3898C71.7025 57.576 72.0312 56.5051 72.0312 55.1769V54.9523C72.0312 53.7023 71.7025 52.6704 71.0449 51.8566C70.3874 51.0363 69.5312 50.6262 68.4766 50.6262C67.4284 50.6262 66.5755 51.0363 65.918 51.8566C65.2604 52.6704 64.9316 53.7381 64.9316 55.0598V55.2746ZM83.3301 50.8215H79.4824V60.3918H78.3105V50.8215H74.6094V49.8254H83.3301V50.8215ZM88.5645 60.5871C87.666 60.5871 86.8522 60.3657 86.123 59.923C85.4004 59.4803 84.8372 58.8651 84.4336 58.0773C84.0299 57.2831 83.8281 56.3944 83.8281 55.4113V54.9914C83.8281 53.9758 84.0234 53.0611 84.4141 52.2473C84.8112 51.4335 85.3613 50.7954 86.0645 50.3332C86.7676 49.8644 87.5293 49.6301 88.3496 49.6301C89.6322 49.6301 90.6478 50.0695 91.3965 50.9484C92.1517 51.8208 92.5293 53.0155 92.5293 54.5324V55.1867H84.9902V55.4113C84.9902 56.6092 85.332 57.6086 86.0156 58.4094C86.7057 59.2036 87.5716 59.6008 88.6133 59.6008C89.2383 59.6008 89.7884 59.4868 90.2637 59.259C90.7454 59.0311 91.1816 58.6665 91.5723 58.1652L92.3047 58.7219C91.4453 59.9654 90.1986 60.5871 88.5645 60.5871ZM88.3496 50.6262C87.4707 50.6262 86.7285 50.9484 86.123 51.593C85.5241 52.2375 85.1595 53.1034 85.0293 54.1906H91.3672V54.0637C91.3346 53.048 91.0449 52.2212 90.498 51.5832C89.9512 50.9452 89.235 50.6262 88.3496 50.6262ZM103.301 55.216C103.301 56.8631 102.936 58.1717 102.207 59.1418C101.478 60.1053 100.501 60.5871 99.2773 60.5871C97.832 60.5871 96.7253 60.0793 95.957 59.0637V64.4543H94.7949V49.8254H95.8789L95.9375 51.3195C96.6992 50.1932 97.8027 49.6301 99.248 49.6301C100.511 49.6301 101.501 50.1086 102.217 51.0656C102.939 52.0226 103.301 53.3508 103.301 55.05V55.216ZM102.129 55.0109C102.129 53.6633 101.852 52.5988 101.299 51.8176C100.745 51.0363 99.974 50.6457 98.9844 50.6457C98.2682 50.6457 97.653 50.8182 97.1387 51.1633C96.6243 51.5083 96.2305 52.0096 95.957 52.6672V57.7355C96.237 58.341 96.6374 58.8032 97.1582 59.1223C97.679 59.4413 98.2943 59.6008 99.0039 59.6008C99.987 59.6008 100.752 59.2101 101.299 58.4289C101.852 57.6411 102.129 56.5018 102.129 55.0109ZM114.014 60.3918H112.842V55.548H107.148V60.3918H105.977V49.8254H107.148V54.5617H112.842V49.8254H114.014V60.3918ZM118.438 53.6633H121.484C122.266 53.6633 122.949 53.8065 123.535 54.093C124.128 54.3729 124.574 54.7635 124.873 55.2648C125.179 55.7661 125.332 56.3488 125.332 57.0129C125.332 58.035 124.98 58.8553 124.277 59.4738C123.581 60.0858 122.637 60.3918 121.445 60.3918H117.275V49.8254H118.438V53.6633ZM118.438 54.6594V59.4055H121.465C122.305 59.4055 122.962 59.1939 123.438 58.7707C123.919 58.3475 124.16 57.7681 124.16 57.0324C124.16 56.3293 123.926 55.7629 123.457 55.3332C122.995 54.897 122.36 54.6724 121.553 54.6594H118.438ZM128.916 60.3918H127.744V49.8254H128.916V60.3918ZM139.111 49.8254H140.283V60.3918H139.111V51.7101L133.408 60.3918H132.246V49.8254H133.408V58.5168L139.111 49.8254ZM139.053 46.0168C139.053 46.7655 138.796 47.371 138.281 47.8332C137.773 48.2954 137.09 48.5266 136.23 48.5266C135.384 48.5266 134.701 48.2987 134.18 47.843C133.665 47.3807 133.408 46.772 133.408 46.0168H134.404C134.404 46.5571 134.564 46.9706 134.883 47.257C135.208 47.5435 135.658 47.6867 136.23 47.6867C136.803 47.6867 137.249 47.537 137.568 47.2375C137.894 46.938 138.057 46.5311 138.057 46.0168H139.053ZM152.188 59.6008C153.001 59.6008 153.682 59.3729 154.229 58.9172C154.782 58.4549 155.081 57.8592 155.127 57.1301H156.25C156.217 57.7746 156.016 58.3638 155.645 58.8976C155.273 59.425 154.779 59.8384 154.16 60.1379C153.548 60.4374 152.891 60.5871 152.188 60.5871C150.801 60.5871 149.701 60.1053 148.887 59.1418C148.079 58.1782 147.676 56.8827 147.676 55.2551V54.9035C147.676 53.8618 147.858 52.9406 148.223 52.1398C148.587 51.3391 149.108 50.7206 149.785 50.2844C150.469 49.8482 151.266 49.6301 152.178 49.6301C153.337 49.6301 154.29 49.9751 155.039 50.6652C155.794 51.3553 156.198 52.2635 156.25 53.3898H155.127C155.075 52.563 154.775 51.8957 154.229 51.3879C153.688 50.8801 153.005 50.6262 152.178 50.6262C151.123 50.6262 150.303 51.007 149.717 51.7687C149.137 52.5305 148.848 53.5982 148.848 54.9719V55.3137C148.848 56.6613 149.137 57.7127 149.717 58.468C150.303 59.2232 151.126 59.6008 152.188 59.6008ZM162.686 60.5871C161.787 60.5871 160.973 60.3657 160.244 59.923C159.521 59.4803 158.958 58.8651 158.555 58.0773C158.151 57.2831 157.949 56.3944 157.949 55.4113V54.9914C157.949 53.9758 158.145 53.0611 158.535 52.2473C158.932 51.4335 159.482 50.7954 160.186 50.3332C160.889 49.8644 161.65 49.6301 162.471 49.6301C163.753 49.6301 164.769 50.0695 165.518 50.9484C166.273 51.8208 166.65 53.0155 166.65 54.5324V55.1867H159.111V55.4113C159.111 56.6092 159.453 57.6086 160.137 58.4094C160.827 59.2036 161.693 59.6008 162.734 59.6008C163.359 59.6008 163.91 59.4868 164.385 59.259C164.867 59.0311 165.303 58.6665 165.693 58.1652L166.426 58.7219C165.566 59.9654 164.32 60.5871 162.686 60.5871ZM162.471 50.6262C161.592 50.6262 160.85 50.9484 160.244 51.593C159.645 52.2375 159.281 53.1034 159.15 54.1906H165.488V54.0637C165.456 53.048 165.166 52.2212 164.619 51.5832C164.072 50.9452 163.356 50.6262 162.471 50.6262ZM177.422 55.216C177.422 56.8631 177.057 58.1717 176.328 59.1418C175.599 60.1053 174.622 60.5871 173.398 60.5871C171.953 60.5871 170.846 60.0793 170.078 59.0637V64.4543H168.916V49.8254H170L170.059 51.3195C170.82 50.1932 171.924 49.6301 173.369 49.6301C174.632 49.6301 175.622 50.1086 176.338 51.0656C177.061 52.0226 177.422 53.3508 177.422 55.05V55.216ZM176.25 55.0109C176.25 53.6633 175.973 52.5988 175.42 51.8176C174.867 51.0363 174.095 50.6457 173.105 50.6457C172.389 50.6457 171.774 50.8182 171.26 51.1633C170.745 51.5083 170.352 52.0096 170.078 52.6672V57.7355C170.358 58.341 170.758 58.8032 171.279 59.1223C171.8 59.4413 172.415 59.6008 173.125 59.6008C174.108 59.6008 174.873 59.2101 175.42 58.4289C175.973 57.6411 176.25 56.5018 176.25 55.0109ZM180.146 60.3918V49.8254H184.023C185.365 49.8254 186.393 50.0663 187.109 50.548C187.826 51.0233 188.184 51.7232 188.184 52.6476C188.184 53.175 188.024 53.647 187.705 54.0637C187.386 54.4738 186.921 54.7733 186.309 54.9621C186.999 55.0923 187.552 55.3885 187.969 55.8508C188.392 56.313 188.604 56.8501 188.604 57.4621C188.604 58.3931 188.258 59.1157 187.568 59.6301C186.885 60.1379 185.915 60.3918 184.658 60.3918H180.146ZM181.309 55.5285V59.4152H184.697C185.576 59.4152 186.253 59.246 186.729 58.9074C187.204 58.5689 187.441 58.0806 187.441 57.4426C187.441 56.8566 187.204 56.3911 186.729 56.0461C186.253 55.701 185.576 55.5285 184.697 55.5285H181.309ZM181.309 54.5519H184.268C186.104 54.5259 187.021 53.9009 187.021 52.6769C187.021 52.0324 186.768 51.5637 186.26 51.2707C185.758 50.9712 185.013 50.8215 184.023 50.8215H181.309V54.5519ZM198.154 49.8254H199.326V60.3918H198.154V51.7101L192.451 60.3918H191.289V49.8254H192.451V58.5168L198.154 49.8254ZM206.367 59.6008C207.181 59.6008 207.861 59.3729 208.408 58.9172C208.962 58.4549 209.261 57.8592 209.307 57.1301H210.43C210.397 57.7746 210.195 58.3638 209.824 58.8976C209.453 59.425 208.958 59.8384 208.34 60.1379C207.728 60.4374 207.07 60.5871 206.367 60.5871C204.98 60.5871 203.88 60.1053 203.066 59.1418C202.259 58.1782 201.855 56.8827 201.855 55.2551V54.9035C201.855 53.8618 202.038 52.9406 202.402 52.1398C202.767 51.3391 203.288 50.7206 203.965 50.2844C204.648 49.8482 205.446 49.6301 206.357 49.6301C207.516 49.6301 208.47 49.9751 209.219 50.6652C209.974 51.3553 210.378 52.2635 210.43 53.3898H209.307C209.255 52.563 208.955 51.8957 208.408 51.3879C207.868 50.8801 207.184 50.6262 206.357 50.6262C205.303 50.6262 204.482 51.007 203.896 51.7687C203.317 52.5305 203.027 53.5982 203.027 54.9719V55.3137C203.027 56.6613 203.317 57.7127 203.896 58.468C204.482 59.2232 205.306 59.6008 206.367 59.6008Z" fill="black"/>
</svg>
