<svg width="230" height="76" viewBox="0 0 230 76" fill="none" xmlns="http://www.w3.org/2000/svg">
<g filter="url(#filter0_d)">
<path d="M71.9287 30.5085H82.1929V34.3918H67.0947V10.9308H71.9287V30.5085ZM94.7773 34.3918C94.5625 33.9728 94.4067 33.4518 94.3101 32.8288C93.1821 34.0856 91.7158 34.7141 89.9111 34.7141C88.2031 34.7141 86.7852 34.2199 85.6572 33.2316C84.54 32.2433 83.9814 30.9973 83.9814 29.4933C83.9814 27.6457 84.6636 26.2277 86.0278 25.2394C87.4028 24.2512 89.3848 23.7516 91.9736 23.7409H94.1167V22.7419C94.1167 21.9362 93.9072 21.2917 93.4883 20.8083C93.0801 20.3249 92.4302 20.0832 91.5386 20.0832C90.7544 20.0832 90.1367 20.2712 89.6855 20.6472C89.2451 21.0231 89.0249 21.5388 89.0249 22.194H84.3682C84.3682 21.1843 84.6797 20.2497 85.3027 19.3903C85.9258 18.5309 86.8066 17.8596 87.9453 17.3762C89.084 16.882 90.3623 16.6349 91.7803 16.6349C93.9287 16.6349 95.6313 17.1774 96.8882 18.2624C98.1558 19.3366 98.7896 20.8513 98.7896 22.8063V30.3635C98.8003 32.0178 99.0312 33.2692 99.4824 34.1179V34.3918H94.7773ZM90.9263 31.153C91.6138 31.153 92.2476 31.0026 92.8276 30.7018C93.4077 30.3903 93.8374 29.9767 94.1167 29.4611V26.4641H92.3765C90.0454 26.4641 88.8047 27.2697 88.6543 28.881L88.6382 29.155C88.6382 29.735 88.8423 30.2131 89.2505 30.5891C89.6587 30.965 90.2173 31.153 90.9263 31.153ZM118.061 25.8356C118.061 28.5212 117.449 30.675 116.224 32.2971C115.01 33.9084 113.367 34.7141 111.293 34.7141C109.532 34.7141 108.108 34.1017 107.023 32.8771V41.0949H102.367V16.9572H106.685L106.846 18.6652C107.974 17.3117 109.446 16.6349 111.261 16.6349C113.41 16.6349 115.08 17.4299 116.272 19.0197C117.465 20.6096 118.061 22.801 118.061 25.5939V25.8356ZM113.404 25.4973C113.404 23.8752 113.114 22.6237 112.534 21.7429C111.965 20.862 111.132 20.4216 110.037 20.4216C108.576 20.4216 107.571 20.9802 107.023 22.0974V29.2355C107.593 30.3849 108.608 30.9597 110.069 30.9597C112.292 30.9597 113.404 29.1389 113.404 25.4973ZM126.537 12.6711V16.9572H129.518V20.3732H126.537V29.0744C126.537 29.7189 126.66 30.1808 126.907 30.4601C127.154 30.7394 127.627 30.8791 128.325 30.8791C128.841 30.8791 129.297 30.8415 129.695 30.7663V34.2951C128.782 34.5744 127.842 34.7141 126.875 34.7141C123.609 34.7141 121.944 33.0651 121.88 29.7673V20.3732H119.334V16.9572H121.88V12.6711H126.537ZM130.903 25.5134C130.903 23.7839 131.236 22.2424 131.902 20.8889C132.568 19.5353 133.524 18.488 134.771 17.7468C136.027 17.0056 137.483 16.6349 139.137 16.6349C141.49 16.6349 143.407 17.3547 144.89 18.7941C146.383 20.2336 147.215 22.1887 147.387 24.6594L147.419 25.8517C147.419 28.5266 146.673 30.675 145.18 32.2971C143.687 33.9084 141.683 34.7141 139.169 34.7141C136.656 34.7141 134.647 33.9084 133.143 32.2971C131.65 30.6857 130.903 28.4943 130.903 25.7228V25.5134ZM135.56 25.8517C135.56 27.506 135.872 28.7736 136.495 29.6545C137.118 30.5246 138.009 30.9597 139.169 30.9597C140.297 30.9597 141.178 30.53 141.812 29.6706C142.446 28.8005 142.763 27.4147 142.763 25.5134C142.763 23.8913 142.446 22.6345 141.812 21.7429C141.178 20.8513 140.287 20.4055 139.137 20.4055C137.999 20.4055 137.118 20.8513 136.495 21.7429C135.872 22.6237 135.56 23.9933 135.56 25.8517ZM165.982 25.8356C165.982 28.5212 165.37 30.675 164.145 32.2971C162.931 33.9084 161.288 34.7141 159.214 34.7141C157.453 34.7141 156.029 34.1017 154.944 32.8771V41.0949H150.288V16.9572H154.606L154.767 18.6652C155.895 17.3117 157.367 16.6349 159.182 16.6349C161.331 16.6349 163.001 17.4299 164.193 19.0197C165.386 20.6096 165.982 22.801 165.982 25.5939V25.8356ZM161.325 25.4973C161.325 23.8752 161.035 22.6237 160.455 21.7429C159.886 20.862 159.053 20.4216 157.958 20.4216C156.497 20.4216 155.492 20.9802 154.944 22.0974V29.2355C155.514 30.3849 156.529 30.9597 157.99 30.9597C160.213 30.9597 161.325 29.1389 161.325 25.4973Z" fill="white"/>
<path d="M191.521 24.8044H182.24V34.3918H177.406V10.9308H192.682V14.8464H182.24V20.905H191.521V24.8044ZM200.094 34.3918H195.421V16.9572H200.094V34.3918ZM195.147 12.4455C195.147 11.7473 195.378 11.1725 195.84 10.7214C196.312 10.2702 196.952 10.0446 197.757 10.0446C198.552 10.0446 199.186 10.2702 199.659 10.7214C200.131 11.1725 200.368 11.7473 200.368 12.4455C200.368 13.1545 200.126 13.7346 199.643 14.1857C199.17 14.6369 198.542 14.8625 197.757 14.8625C196.973 14.8625 196.339 14.6369 195.856 14.1857C195.383 13.7346 195.147 13.1545 195.147 12.4455ZM210.583 22.1618L213.516 16.9572H218.495L213.532 25.4973L218.705 34.3918H213.709L210.6 28.9133L207.506 34.3918H202.495L207.667 25.4973L202.72 16.9572H207.715L210.583 22.1618Z" fill="#26CF41"/>
</g>
<path d="M12.2258 36.8506V12.9797C12.2258 11.9108 13.0924 11.0442 14.1613 11.0442H43.8387C44.9076 11.0442 45.7742 11.9108 45.7742 12.9797V36.8506" fill="#6F6571"/>
<path d="M43.8386 34.2701H42.5482L41.7863 33.5526H16.4218L15.4516 34.2701H14.1613C13.8049 34.2701 13.5161 33.9812 13.5161 33.6249V12.9798C13.5161 12.6234 13.8049 12.3346 14.1613 12.3346H43.8387C44.195 12.3346 44.4838 12.6234 44.4838 12.9798V33.6249C44.4838 33.9812 44.1949 34.2701 43.8386 34.2701V34.2701Z" fill="#C3DDFF"/>
<path d="M41.9032 32.9797H16.0968C15.3842 32.9797 14.8065 32.402 14.8065 31.6894V14.9152C14.8065 14.2025 15.3843 13.6249 16.0968 13.6249H41.9033C42.616 13.6249 43.1936 14.2026 43.1936 14.9152V31.6894C43.1935 32.4021 42.6159 32.9797 41.9032 32.9797Z" fill="#DBEAFF"/>
<path d="M23.7295 15.903L21.7241 18.2426C21.4234 18.5933 21.2582 19.0401 21.2582 19.5022V20.2704C21.2582 20.7623 21.7866 21.0733 22.2167 20.8344L24.9961 19.2902L23.7295 15.903Z" fill="#FF9900"/>
<path d="M24.9961 19.2902L27.0646 18.1411L25.1291 14.2701L23.7295 15.903C24.0283 17.0762 24.4519 18.2105 24.9961 19.2902Z" fill="#DA8B14"/>
<path d="M32.871 14.27L36.276 18.2425C36.5767 18.5933 36.7419 19.0401 36.7419 19.5021V20.2703C36.7419 20.7623 36.2135 21.0732 35.7834 20.8343L30.9354 18.141L32.871 14.27Z" fill="#FF9900"/>
<path d="M9.64502 36.2055V37.615H47.7096L48.9999 36.8506V36.2055C48.9999 35.8492 48.711 35.5603 48.3547 35.5603H10.2902C9.93385 35.5603 9.64502 35.8492 9.64502 36.2055V36.2055Z" fill="#DAD8DB"/>
<path d="M32.4127 5.88293L26.7798 4.88965C25.7966 6.92723 25.24 9.2373 25.24 11.6894C25.24 14.8044 26.1418 17.6874 27.6718 20.0765L31.8237 18.7862C32.9002 16.6773 33.516 14.2626 33.516 11.6894C33.516 9.62769 33.1225 7.66637 32.4127 5.88293V5.88293Z" fill="#26CF41"/>
<path d="M28.6141 18.7861C28.0937 18.7861 27.6321 18.4703 27.4218 17.9942C26.5766 16.0804 26.0968 13.9479 26.0968 11.6894C26.0968 9.62536 26.4942 7.66489 27.2083 5.88271L26.8125 5.48615L25.5871 5.88294C24.8774 7.6663 24.4839 9.62763 24.4839 11.6893C24.4839 14.8043 25.3857 17.6873 26.9157 20.0765L28.8828 20.8703L31.0843 20.0765C31.3494 19.6624 31.5978 19.2285 31.8238 18.7861H28.6141Z" fill="#21B038"/>
<path d="M30.7997 22.6571H27.2005C26.7954 22.6571 26.4904 22.288 26.567 21.8901L26.9158 20.0764H31.0845L31.4333 21.8901C31.5097 22.288 31.2048 22.6571 30.7997 22.6571V22.6571Z" fill="#C8C5C9"/>
<path d="M30.7188 11.0265C30.7188 11.8115 30.4682 12.5051 29.7965 12.8087C29.5536 12.9186 29.284 12.9797 29.0001 12.9797C27.9311 12.9797 27.0646 12.1131 27.0646 11.0442C27.0646 10.7613 27.1253 10.4926 27.2343 10.2504C27.5374 9.5773 28.214 9.32074 29.0001 9.32074C30.069 9.32082 30.7188 9.95762 30.7188 11.0265Z" fill="#C3DDFF"/>
<path d="M10.2903 35.5603H9.64516C9.28883 35.5603 9 35.8492 9 36.2055V36.8506C9 37.5632 9.57773 38.141 10.2903 38.141H47.7097C48.4223 38.141 49 37.5632 49 36.8506H11.5806C10.868 36.8506 10.2903 36.273 10.2903 35.5603V35.5603Z" fill="#C8C5C9"/>
<path d="M38.0323 29.7539C37.5144 29.7539 37.019 29.8454 36.5558 30.0058C36.1219 28.7368 34.9322 27.8185 33.5162 27.8185C32.7265 27.8185 32.0126 28.1134 31.4519 28.5845C31.5281 28.341 31.5807 28.0871 31.5807 27.8185C31.5807 26.3932 30.4253 25.2379 29.0001 25.2379C27.5748 25.2379 26.4194 26.3932 26.4194 27.8185C26.4194 28.0871 26.472 28.341 26.5482 28.5845C25.9875 28.1134 25.2736 27.8185 24.484 27.8185C23.0679 27.8185 21.8783 28.7368 21.4443 30.0058C20.9811 29.8454 20.4856 29.7539 19.9679 29.7539C17.4737 29.7539 15.4518 31.7759 15.4518 34.27H42.5486C42.5483 31.7758 40.5264 29.7539 38.0323 29.7539V29.7539Z" fill="white"/>
<path d="M29.8164 1.59369C29.8164 1.59369 27.3399 2.45884 27.2084 5.88267L32.4128 5.88291C31.7803 4.29392 30.8965 2.84541 29.8164 1.59369V1.59369Z" fill="#FF9900"/>
<path d="M29.8165 1.59363C29.7013 1.46004 29.5846 1.3298 29.465 1.20074C29.2168 0.933086 28.7833 0.933086 28.5352 1.20074C27.2947 2.53863 26.287 4.12481 25.5872 5.88293L27.2084 5.8827C27.843 4.30074 28.7393 2.84223 29.8165 1.59363V1.59363Z" fill="#DA8B14"/>
<path d="M29 9.10876C28.2147 9.10876 27.5379 9.57845 27.2344 10.2505C27.4771 10.1409 27.7486 10.0765 28.0323 10.0765C29.1012 10.0765 29.9677 10.9431 29.9677 12.012C29.9677 12.2956 29.9062 12.566 29.7965 12.8088C30.4685 12.5052 30.9355 11.8295 30.9355 11.0442C30.9355 9.97525 30.0689 9.10876 29 9.10876V9.10876Z" fill="#A4CCFF"/>
<g filter="url(#filter1_d)">
<path d="M13.3945 56.548H11.7734V61.3918H10.5918V50.8254H11.7734V55.5129H13.375L17.252 50.8254H18.7266L14.3906 55.9523L19.2051 61.3918H17.6621L13.3945 56.548ZM20.0352 55.9523C20.0352 54.9367 20.2305 54.022 20.6211 53.2082C21.0182 52.3944 21.5749 51.7629 22.291 51.3137C23.0137 50.8579 23.8307 50.6301 24.7422 50.6301C26.1484 50.6301 27.2878 51.1249 28.1602 52.1144C29.0326 53.0975 29.4688 54.4029 29.4688 56.0305V56.2746C29.4688 57.2967 29.2702 58.218 28.873 59.0383C28.4824 59.8521 27.929 60.4803 27.2129 60.923C26.4967 61.3657 25.6797 61.5871 24.7617 61.5871C23.362 61.5871 22.2227 61.0956 21.3438 60.1125C20.4714 59.1229 20.0352 57.8143 20.0352 56.1867V55.9523ZM21.207 56.2746C21.207 57.5376 21.5326 58.576 22.1836 59.3898C22.8411 60.1971 23.7005 60.6008 24.7617 60.6008C25.8164 60.6008 26.6693 60.1971 27.3203 59.3898C27.9779 58.576 28.3066 57.5051 28.3066 56.1769V55.9523C28.3066 55.145 28.1569 54.4061 27.8574 53.7355C27.5579 53.065 27.138 52.5474 26.5977 52.1828C26.0573 51.8117 25.4388 51.6262 24.7422 51.6262C23.7005 51.6262 22.8509 52.0363 22.1934 52.8566C21.5358 53.6704 21.207 54.7381 21.207 56.0598V56.2746ZM37.7402 59.8098L41.9395 50.8254H43.3848V61.3918H42.2129V52.7199L38.1504 61.3918H37.3203L33.1797 52.5246V61.3918H32.0176V50.8254H33.5508L37.7402 59.8098ZM54.6348 61.3918H53.4629V51.8312H47.7695V61.3918H46.5977V50.8254H54.6348V61.3918ZM59.0586 54.6633H62.1055C62.8867 54.6633 63.5703 54.8065 64.1562 55.093C64.7487 55.3729 65.1947 55.7635 65.4941 56.2648C65.8001 56.7661 65.9531 57.3488 65.9531 58.0129C65.9531 59.035 65.6016 59.8553 64.8984 60.4738C64.2018 61.0858 63.2578 61.3918 62.0664 61.3918H57.8965V50.8254H59.0586V54.6633ZM59.0586 55.6594V60.4055H62.0859C62.9258 60.4055 63.5833 60.1939 64.0586 59.7707C64.5404 59.3475 64.7812 58.7681 64.7812 58.0324C64.7812 57.3293 64.5469 56.7629 64.0781 56.3332C63.6159 55.897 62.9811 55.6724 62.1738 55.6594H59.0586ZM69.7617 55.6398H72.7793C72.8118 54.6763 73.0332 53.8104 73.4434 53.0422C73.8535 52.2674 74.4102 51.6717 75.1133 51.2551C75.8164 50.8384 76.6042 50.6301 77.4766 50.6301C78.8763 50.6301 80.0124 51.1249 80.8848 52.1144C81.7637 53.104 82.2031 54.4126 82.2031 56.0402V56.2746C82.2031 57.2902 82.0046 58.2082 81.6074 59.0285C81.2103 59.8488 80.6536 60.4803 79.9375 60.923C79.2214 61.3657 78.4076 61.5871 77.4961 61.5871C76.1484 61.5871 75.0417 61.1314 74.1758 60.2199C73.3099 59.3019 72.8444 58.1073 72.7793 56.6359H69.7617V61.3918H68.5996V50.8254H69.7617V55.6398ZM73.9316 56.2746C73.9316 57.5376 74.2572 58.576 74.9082 59.3898C75.5658 60.1971 76.4284 60.6008 77.4961 60.6008C78.5443 60.6008 79.3939 60.1971 80.0449 59.3898C80.7025 58.576 81.0312 57.5051 81.0312 56.1769V55.9523C81.0312 54.7023 80.7025 53.6704 80.0449 52.8566C79.3874 52.0363 78.5312 51.6262 77.4766 51.6262C76.4284 51.6262 75.5755 52.0363 74.918 52.8566C74.2604 53.6704 73.9316 54.7381 73.9316 56.0598V56.2746ZM92.3301 51.8215H88.4824V61.3918H87.3105V51.8215H83.6094V50.8254H92.3301V51.8215ZM97.5645 61.5871C96.666 61.5871 95.8522 61.3657 95.123 60.923C94.4004 60.4803 93.8372 59.8651 93.4336 59.0773C93.0299 58.2831 92.8281 57.3944 92.8281 56.4113V55.9914C92.8281 54.9758 93.0234 54.0611 93.4141 53.2473C93.8112 52.4335 94.3613 51.7954 95.0645 51.3332C95.7676 50.8644 96.5293 50.6301 97.3496 50.6301C98.6322 50.6301 99.6478 51.0695 100.396 51.9484C101.152 52.8208 101.529 54.0155 101.529 55.5324V56.1867H93.9902V56.4113C93.9902 57.6092 94.332 58.6086 95.0156 59.4094C95.7057 60.2036 96.5716 60.6008 97.6133 60.6008C98.2383 60.6008 98.7884 60.4868 99.2637 60.259C99.7454 60.0311 100.182 59.6665 100.572 59.1652L101.305 59.7219C100.445 60.9654 99.1986 61.5871 97.5645 61.5871ZM97.3496 51.6262C96.4707 51.6262 95.7285 51.9484 95.123 52.593C94.5241 53.2375 94.1595 54.1034 94.0293 55.1906H100.367V55.0637C100.335 54.048 100.045 53.2212 99.498 52.5832C98.9512 51.9452 98.235 51.6262 97.3496 51.6262ZM112.301 56.216C112.301 57.8631 111.936 59.1717 111.207 60.1418C110.478 61.1053 109.501 61.5871 108.277 61.5871C106.832 61.5871 105.725 61.0793 104.957 60.0637V65.4543H103.795V50.8254H104.879L104.938 52.3195C105.699 51.1932 106.803 50.6301 108.248 50.6301C109.511 50.6301 110.501 51.1086 111.217 52.0656C111.939 53.0226 112.301 54.3508 112.301 56.05V56.216ZM111.129 56.0109C111.129 54.6633 110.852 53.5988 110.299 52.8176C109.745 52.0363 108.974 51.6457 107.984 51.6457C107.268 51.6457 106.653 51.8182 106.139 52.1633C105.624 52.5083 105.23 53.0096 104.957 53.6672V58.7355C105.237 59.341 105.637 59.8032 106.158 60.1223C106.679 60.4413 107.294 60.6008 108.004 60.6008C108.987 60.6008 109.752 60.2101 110.299 59.4289C110.852 58.6411 111.129 57.5018 111.129 56.0109ZM123.014 61.3918H121.842V56.548H116.148V61.3918H114.977V50.8254H116.148V55.5617H121.842V50.8254H123.014V61.3918ZM127.438 54.6633H130.484C131.266 54.6633 131.949 54.8065 132.535 55.093C133.128 55.3729 133.574 55.7635 133.873 56.2648C134.179 56.7661 134.332 57.3488 134.332 58.0129C134.332 59.035 133.98 59.8553 133.277 60.4738C132.581 61.0858 131.637 61.3918 130.445 61.3918H126.275V50.8254H127.438V54.6633ZM127.438 55.6594V60.4055H130.465C131.305 60.4055 131.962 60.1939 132.438 59.7707C132.919 59.3475 133.16 58.7681 133.16 58.0324C133.16 57.3293 132.926 56.7629 132.457 56.3332C131.995 55.897 131.36 55.6724 130.553 55.6594H127.438ZM137.916 61.3918H136.744V50.8254H137.916V61.3918ZM148.111 50.8254H149.283V61.3918H148.111V52.7101L142.408 61.3918H141.246V50.8254H142.408V59.5168L148.111 50.8254ZM148.053 47.0168C148.053 47.7655 147.796 48.371 147.281 48.8332C146.773 49.2954 146.09 49.5266 145.23 49.5266C144.384 49.5266 143.701 49.2987 143.18 48.843C142.665 48.3807 142.408 47.772 142.408 47.0168H143.404C143.404 47.5571 143.564 47.9706 143.883 48.257C144.208 48.5435 144.658 48.6867 145.23 48.6867C145.803 48.6867 146.249 48.537 146.568 48.2375C146.894 47.938 147.057 47.5311 147.057 47.0168H148.053ZM161.188 60.6008C162.001 60.6008 162.682 60.3729 163.229 59.9172C163.782 59.4549 164.081 58.8592 164.127 58.1301H165.25C165.217 58.7746 165.016 59.3638 164.645 59.8976C164.273 60.425 163.779 60.8384 163.16 61.1379C162.548 61.4374 161.891 61.5871 161.188 61.5871C159.801 61.5871 158.701 61.1053 157.887 60.1418C157.079 59.1782 156.676 57.8827 156.676 56.2551V55.9035C156.676 54.8618 156.858 53.9406 157.223 53.1398C157.587 52.3391 158.108 51.7206 158.785 51.2844C159.469 50.8482 160.266 50.6301 161.178 50.6301C162.337 50.6301 163.29 50.9751 164.039 51.6652C164.794 52.3553 165.198 53.2635 165.25 54.3898H164.127C164.075 53.563 163.775 52.8957 163.229 52.3879C162.688 51.8801 162.005 51.6262 161.178 51.6262C160.123 51.6262 159.303 52.007 158.717 52.7687C158.137 53.5305 157.848 54.5982 157.848 55.9719V56.3137C157.848 57.6613 158.137 58.7127 158.717 59.468C159.303 60.2232 160.126 60.6008 161.188 60.6008ZM171.686 61.5871C170.787 61.5871 169.973 61.3657 169.244 60.923C168.521 60.4803 167.958 59.8651 167.555 59.0773C167.151 58.2831 166.949 57.3944 166.949 56.4113V55.9914C166.949 54.9758 167.145 54.0611 167.535 53.2473C167.932 52.4335 168.482 51.7954 169.186 51.3332C169.889 50.8644 170.65 50.6301 171.471 50.6301C172.753 50.6301 173.769 51.0695 174.518 51.9484C175.273 52.8208 175.65 54.0155 175.65 55.5324V56.1867H168.111V56.4113C168.111 57.6092 168.453 58.6086 169.137 59.4094C169.827 60.2036 170.693 60.6008 171.734 60.6008C172.359 60.6008 172.91 60.4868 173.385 60.259C173.867 60.0311 174.303 59.6665 174.693 59.1652L175.426 59.7219C174.566 60.9654 173.32 61.5871 171.686 61.5871ZM171.471 51.6262C170.592 51.6262 169.85 51.9484 169.244 52.593C168.645 53.2375 168.281 54.1034 168.15 55.1906H174.488V55.0637C174.456 54.048 174.166 53.2212 173.619 52.5832C173.072 51.9452 172.356 51.6262 171.471 51.6262ZM186.422 56.216C186.422 57.8631 186.057 59.1717 185.328 60.1418C184.599 61.1053 183.622 61.5871 182.398 61.5871C180.953 61.5871 179.846 61.0793 179.078 60.0637V65.4543H177.916V50.8254H179L179.059 52.3195C179.82 51.1932 180.924 50.6301 182.369 50.6301C183.632 50.6301 184.622 51.1086 185.338 52.0656C186.061 53.0226 186.422 54.3508 186.422 56.05V56.216ZM185.25 56.0109C185.25 54.6633 184.973 53.5988 184.42 52.8176C183.867 52.0363 183.095 51.6457 182.105 51.6457C181.389 51.6457 180.774 51.8182 180.26 52.1633C179.745 52.5083 179.352 53.0096 179.078 53.6672V58.7355C179.358 59.341 179.758 59.8032 180.279 60.1223C180.8 60.4413 181.415 60.6008 182.125 60.6008C183.108 60.6008 183.873 60.2101 184.42 59.4289C184.973 58.6411 185.25 57.5018 185.25 56.0109ZM189.146 61.3918V50.8254H193.023C194.365 50.8254 195.393 51.0663 196.109 51.548C196.826 52.0233 197.184 52.7232 197.184 53.6476C197.184 54.175 197.024 54.647 196.705 55.0637C196.386 55.4738 195.921 55.7733 195.309 55.9621C195.999 56.0923 196.552 56.3885 196.969 56.8508C197.392 57.313 197.604 57.8501 197.604 58.4621C197.604 59.3931 197.258 60.1157 196.568 60.6301C195.885 61.1379 194.915 61.3918 193.658 61.3918H189.146ZM190.309 56.5285V60.4152H193.697C194.576 60.4152 195.253 60.246 195.729 59.9074C196.204 59.5689 196.441 59.0806 196.441 58.4426C196.441 57.8566 196.204 57.3911 195.729 57.0461C195.253 56.701 194.576 56.5285 193.697 56.5285H190.309ZM190.309 55.5519H193.268C195.104 55.5259 196.021 54.9009 196.021 53.6769C196.021 53.0324 195.768 52.5637 195.26 52.2707C194.758 51.9712 194.013 51.8215 193.023 51.8215H190.309V55.5519ZM207.154 50.8254H208.326V61.3918H207.154V52.7101L201.451 61.3918H200.289V50.8254H201.451V59.5168L207.154 50.8254ZM215.367 60.6008C216.181 60.6008 216.861 60.3729 217.408 59.9172C217.962 59.4549 218.261 58.8592 218.307 58.1301H219.43C219.397 58.7746 219.195 59.3638 218.824 59.8976C218.453 60.425 217.958 60.8384 217.34 61.1379C216.728 61.4374 216.07 61.5871 215.367 61.5871C213.98 61.5871 212.88 61.1053 212.066 60.1418C211.259 59.1782 210.855 57.8827 210.855 56.2551V55.9035C210.855 54.8618 211.038 53.9406 211.402 53.1398C211.767 52.3391 212.288 51.7206 212.965 51.2844C213.648 50.8482 214.446 50.6301 215.357 50.6301C216.516 50.6301 217.47 50.9751 218.219 51.6652C218.974 52.3553 219.378 53.2635 219.43 54.3898H218.307C218.255 53.563 217.955 52.8957 217.408 52.3879C216.868 51.8801 216.184 51.6262 215.357 51.6262C214.303 51.6262 213.482 52.007 212.896 52.7687C212.317 53.5305 212.027 54.5982 212.027 55.9719V56.3137C212.027 57.6613 212.317 58.7127 212.896 59.468C213.482 60.2232 214.306 60.6008 215.367 60.6008Z" fill="white"/>
</g>
<defs>
<filter id="filter0_d" x="57.0947" y="0.0446167" width="171.61" height="51.0503" filterUnits="userSpaceOnUse" color-interpolation-filters="sRGB">
<feFlood flood-opacity="0" result="BackgroundImageFix"/>
<feColorMatrix in="SourceAlpha" type="matrix" values="0 0 0 0 0 0 0 0 0 0 0 0 0 0 0 0 0 0 127 0"/>
<feOffset/>
<feGaussianBlur stdDeviation="5"/>
<feColorMatrix type="matrix" values="0 0 0 0 0 0 0 0 0 0 0 0 0 0 0 0 0 0 0.15 0"/>
<feBlend mode="normal" in2="BackgroundImageFix" result="effect1_dropShadow"/>
<feBlend mode="normal" in="SourceGraphic" in2="effect1_dropShadow" result="shape"/>
</filter>
<filter id="filter1_d" x="0.591797" y="37.0168" width="228.838" height="38.4375" filterUnits="userSpaceOnUse" color-interpolation-filters="sRGB">
<feFlood flood-opacity="0" result="BackgroundImageFix"/>
<feColorMatrix in="SourceAlpha" type="matrix" values="0 0 0 0 0 0 0 0 0 0 0 0 0 0 0 0 0 0 127 0"/>
<feOffset/>
<feGaussianBlur stdDeviation="5"/>
<feColorMatrix type="matrix" values="0 0 0 0 0 0 0 0 0 0 0 0 0 0 0 0 0 0 0.15 0"/>
<feBlend mode="normal" in2="BackgroundImageFix" result="effect1_dropShadow"/>
<feBlend mode="normal" in="SourceGraphic" in2="effect1_dropShadow" result="shape"/>
</filter>
</defs>
</svg>
