<svg width="149" height="149" viewBox="0 0 149 149" fill="none" xmlns="http://www.w3.org/2000/svg">
<path d="M74.5 0C43.6849 0 18.625 25.0599 18.625 55.875C18.625 94.6057 69.0615 145.489 71.2034 147.64C72.116 148.544 73.308 149 74.5 149C75.692 149 76.884 148.544 77.7966 147.64C79.9385 145.489 130.375 94.6057 130.375 55.875C130.375 25.0599 105.315 0 74.5 0Z" fill="#26CF41"/>
<path d="M74.5 83.8125C89.9295 83.8125 102.438 71.3045 102.438 55.875C102.438 40.4455 89.9295 27.9375 74.5 27.9375C59.0705 27.9375 46.5625 40.4455 46.5625 55.875C46.5625 71.3045 59.0705 83.8125 74.5 83.8125Z" fill="#FAFAFA"/>
</svg>
