<svg width="25" height="25" viewBox="0 0 25 25" fill="none" xmlns="http://www.w3.org/2000/svg">
<path d="M12.288 0.769043C7.79591 0.769043 4.14124 4.42371 4.14124 8.9158C4.14124 14.5619 12.296 24.2065 12.296 24.2065C12.296 24.2065 20.4348 14.2842 20.4348 8.9158C20.4348 4.42371 16.7802 0.769043 12.288 0.769043ZM14.746 11.3012C14.0683 11.9788 13.1782 12.3177 12.288 12.3177C11.3979 12.3177 10.5076 11.9788 9.83009 11.3012C8.47468 9.94592 8.47468 7.74064 9.83009 6.38523C10.4864 5.72863 11.3595 5.36699 12.288 5.36699C13.2165 5.36699 14.0894 5.72877 14.746 6.38523C16.1015 7.74064 16.1015 9.94592 14.746 11.3012Z" fill="black"/>
</svg>
