<?xml version="1.0" encoding="iso-8859-1"?>
<!-- Generator: Adobe Illustrator 19.0.0, SVG Export Plug-In . SVG Version: 6.00 Build 0)  -->
<svg version="1.1" id="Capa_1" xmlns="http://www.w3.org/2000/svg" xmlns:xlink="http://www.w3.org/1999/xlink" x="0px" y="0px"
	 viewBox="0 0 330.38 330.38" style="enable-background:new 0 0 330.38 330.38;" xml:space="preserve">
<g>
	<g>
		<path d="M311.231,97.338c-6.865-4.463-14.883-6.826-23.071-6.8h-0.32c-8.099,0.008-16.02,2.37-22.8,6.8V8.219c0-4.418-3.582-8-8-8
			H148.32c-4.418-0.024-8.019,3.538-8.043,7.956c-0.017,3.15,1.816,6.017,4.683,7.324c13.111,5.965,18.903,21.428,12.939,34.539
			s-21.428,18.903-34.539,12.939c-13.111-5.965-18.903-21.428-12.939-34.539c2.609-5.734,7.205-10.33,12.939-12.939
			c4.021-1.832,5.795-6.576,3.964-10.597c-1.306-2.867-4.173-4.7-7.323-4.683H8c-4.418,0-8,3.582-8,8v110
			c-0.024,4.418,3.538,8.019,7.956,8.043c3.15,0.017,6.017-1.816,7.323-4.683c6.075-13.06,21.587-18.722,34.647-12.647
			c13.06,6.075,18.722,21.587,12.647,34.647s-21.587,18.722-34.647,12.647c-5.574-2.593-10.054-7.072-12.647-12.647
			c-1.832-4.021-6.576-5.795-10.597-3.964c-2.867,1.306-4.7,4.173-4.683,7.323v110.08c0,4.418,3.582,8,8,8h90.96
			c-12.735,19.44-7.299,45.524,12.142,58.258c19.44,12.735,45.524,7.299,58.258-12.142c9.173-14.004,9.173-32.113,0-46.117h88
			c4.418,0,8-3.582,8-8v-89.12c19.485,12.667,45.549,7.14,58.216-12.345C336.243,136.069,330.716,110.005,311.231,97.338z
			 M311.72,143.659c-4.285,9.136-13.469,14.968-23.559,14.96l-0.32,0.08c-10.102-0.076-19.257-5.961-23.52-15.12
			c-1.832-4.021-6.576-5.795-10.597-3.964c-2.867,1.306-4.7,4.173-4.683,7.324v102.08H148.32c-4.418-0.024-8.019,3.538-8.043,7.956
			c-0.017,3.15,1.816,6.017,4.683,7.324c13.111,5.965,18.903,21.428,12.939,34.539s-21.428,18.903-34.539,12.939
			s-18.903-21.428-12.939-34.539c2.609-5.734,7.205-10.33,12.939-12.939c4.021-1.832,5.795-6.576,3.964-10.597
			c-1.306-2.867-4.173-4.7-7.323-4.683H16v-81.12c19.485,12.667,45.549,7.14,58.216-12.344s7.14-45.549-12.344-58.216
			c-13.946-9.067-31.925-9.067-45.871,0v-81.12h82.96c-12.735,19.44-7.299,45.524,12.142,58.258
			c19.44,12.735,45.524,7.299,58.258-12.142c9.173-14.004,9.173-32.113,0-46.117h80v102c-0.024,4.418,3.538,8.019,7.956,8.043
			c3.15,0.017,6.017-1.816,7.323-4.683c6.097-13.001,21.579-18.597,34.58-12.5C312.22,115.176,317.817,130.658,311.72,143.659z"/>
	</g>
</g>
<g>
</g>
<g>
</g>
<g>
</g>
<g>
</g>
<g>
</g>
<g>
</g>
<g>
</g>
<g>
</g>
<g>
</g>
<g>
</g>
<g>
</g>
<g>
</g>
<g>
</g>
<g>
</g>
<g>
</g>
</svg>
