<svg width="32" height="32" viewBox="0 0 32 32" fill="none" xmlns="http://www.w3.org/2000/svg">
<g clip-path="url(#clip0)">
<path d="M13.5386 4.30762C13.2055 4.30762 12.917 4.42967 12.6733 4.6731L6.26944 11.077H1.23101C0.897462 11.077 0.60904 11.1991 0.365478 11.4424C0.121848 11.6859 0 11.9746 0 12.3079V19.6922C0 20.0255 0.121848 20.3141 0.365478 20.5576C0.609242 20.8012 0.897731 20.9231 1.23101 20.9231H6.26917L12.673 27.3273C12.9167 27.5704 13.2052 27.6926 13.5384 27.6926C13.8719 27.6926 14.1604 27.5705 14.4039 27.3273C14.6475 27.0838 14.7694 26.7951 14.7694 26.4619V5.53863C14.7694 5.20535 14.6475 4.91666 14.4042 4.6731C14.1604 4.42967 13.8722 4.30762 13.5386 4.30762Z" fill="white"/>
<path d="M21.3362 18.7209C21.8814 17.8812 22.1536 16.9743 22.1536 16C22.1536 15.0257 21.8814 14.1146 21.3362 13.2683C20.7911 12.4222 20.0705 11.8262 19.1727 11.4799C19.0446 11.416 18.8841 11.3838 18.6918 11.3838C18.3588 11.3838 18.07 11.5025 17.8265 11.7396C17.5833 11.9767 17.4609 12.2685 17.4609 12.6145C17.4609 12.8838 17.5379 13.1114 17.6921 13.2973C17.8459 13.4834 18.0317 13.6437 18.25 13.7782C18.4675 13.9128 18.6856 14.0603 18.9039 14.2205C19.122 14.3808 19.3077 14.6084 19.4614 14.9032C19.6147 15.1982 19.6922 15.5635 19.6922 15.9995C19.6922 16.4354 19.6152 16.8008 19.4614 17.0958C19.3077 17.3909 19.122 17.6182 18.9039 17.7788C18.6856 17.9391 18.4675 18.0866 18.25 18.2212C18.0317 18.3553 17.8459 18.516 17.6921 18.7016C17.5384 18.8878 17.4609 19.1153 17.4609 19.3846C17.4609 19.731 17.5833 20.0224 17.8265 20.2595C18.0699 20.4967 18.3587 20.6157 18.6918 20.6157C18.8841 20.6157 19.0445 20.5834 19.1727 20.5198C20.0705 20.1602 20.7913 19.5606 21.3362 18.7209Z" fill="white"/>
<path d="M25.4425 21.4326C26.5323 19.7726 27.0774 17.9617 27.0774 16C27.0774 14.0383 26.5323 12.2277 25.4425 10.5666C24.3529 8.90662 22.9099 7.69837 21.1154 6.94182C20.949 6.87783 20.7822 6.8457 20.6159 6.8457C20.2826 6.8457 19.9938 6.96755 19.7501 7.21118C19.5067 7.45474 19.3848 7.74316 19.3848 8.07651C19.3848 8.57657 19.6349 8.95478 20.1351 9.21141C20.8529 9.58308 21.3399 9.86511 21.5962 10.0573C22.5452 10.7498 23.2853 11.6182 23.8174 12.6631C24.3494 13.7081 24.6154 14.8203 24.6154 15.9998C24.6154 17.1793 24.3494 18.2914 23.8174 19.3363C23.2854 20.3815 22.5447 21.2498 21.5962 21.942C21.3399 22.1344 20.8529 22.4164 20.1351 22.7882C19.6349 23.0447 19.3848 23.423 19.3848 23.9229C19.3848 24.2562 19.5067 24.5451 19.7501 24.7883C19.9937 25.0322 20.2884 25.1542 20.6346 25.1542C20.7885 25.1542 20.949 25.1216 21.1154 25.058C22.9099 24.3013 24.3529 23.093 25.4425 21.4326Z" fill="white"/>
<path d="M29.5576 7.87544C27.9296 5.40762 25.7626 3.59006 23.0574 2.42338C22.891 2.35939 22.7241 2.32739 22.5579 2.32739C22.2246 2.32739 21.9358 2.44938 21.6925 2.69274C21.4486 2.93623 21.3267 3.22499 21.3267 3.55827C21.3267 4.01973 21.5768 4.39814 22.077 4.69296C22.1669 4.74388 22.3105 4.81117 22.5094 4.89476C22.7081 4.97775 22.8522 5.04504 22.9423 5.09636C23.532 5.41665 24.0578 5.74373 24.5197 6.07708C26.0963 7.24356 27.3273 8.69874 28.2119 10.4424C29.0966 12.1859 29.5387 14.0384 29.5387 16.0001C29.5387 17.9622 29.0966 19.8143 28.2119 21.5579C27.3275 23.3017 26.0963 24.7571 24.5197 25.9232C24.0578 26.2565 23.532 26.5834 22.9423 26.9041C22.8522 26.955 22.7081 27.0221 22.5094 27.1055C22.3105 27.1884 22.1669 27.2557 22.077 27.3074C21.5768 27.602 21.3267 27.9805 21.3267 28.442C21.3267 28.7753 21.4486 29.0639 21.6925 29.3074C21.9357 29.551 22.2245 29.6729 22.5579 29.6729C22.7241 29.6729 22.891 29.6408 23.0574 29.5765C25.7626 28.4102 27.9296 26.5926 29.5576 24.1247C31.1859 21.6568 31.9999 18.9484 31.9999 15.9997C31.9999 13.0511 31.1861 10.343 29.5576 7.87544Z" fill="white"/>
</g>
<defs>
<clipPath id="clip0">
<rect width="32" height="32" fill="white"/>
</clipPath>
</defs>
</svg>
