<?xml version="1.0" encoding="iso-8859-1"?><svg viewBox="0 0 512 512" xmlns="http://www.w3.org/2000/svg" xmlns:xlink="http://www.w3.org/1999/xlink"><style>:root>svg{display:none}:root>svg:target{display:block}</style><svg viewBox="0 0 511.995 511.995" id="close" xmlns="http://www.w3.org/2000/svg"><path d="M437.126 74.939c-99.826-99.826-262.307-99.826-362.133 0C26.637 123.314 0 187.617 0 256.005s26.637 132.691 74.993 181.047c49.923 49.923 115.495 74.874 181.066 74.874s131.144-24.951 181.066-74.874c99.826-99.826 99.826-262.268.001-362.113zM409.08 409.006c-84.375 84.375-221.667 84.375-306.042 0-40.858-40.858-63.37-95.204-63.37-153.001s22.512-112.143 63.37-153.021c84.375-84.375 221.667-84.355 306.042 0 84.355 84.375 84.355 221.667 0 306.022z"/><path d="M341.525 310.827l-56.151-56.071 56.151-56.071c7.735-7.735 7.735-20.29.02-28.046-7.755-7.775-20.31-7.755-28.065-.02l-56.19 56.111-56.19-56.111c-7.755-7.735-20.31-7.755-28.065.02-7.735 7.755-7.735 20.31.02 28.046l56.151 56.071-56.151 56.071c-7.755 7.735-7.755 20.29-.02 28.046 3.868 3.887 8.965 5.811 14.043 5.811s10.155-1.944 14.023-5.792l56.19-56.111 56.19 56.111c3.868 3.868 8.945 5.792 14.023 5.792a19.828 19.828 0 0014.043-5.811c7.733-7.756 7.733-20.311-.022-28.046z"/></svg><svg viewBox="0 0 512.001 512.001" id="cross" xmlns="http://www.w3.org/2000/svg"><path d="M512.001 84.853L427.148 0 256.001 171.147 84.853 0 0 84.853 171.148 256 0 427.148l84.853 84.853 171.148-171.147 171.147 171.147 84.853-84.853L340.853 256z"/></svg><svg fill="none" viewBox="0 0 18 18" id="posts-card-icon" xmlns="http://www.w3.org/2000/svg"><path stroke="#fff" d="M9.5.5h8v8h-8zM8 3.5H0M.5 3v15M0 17.5h15M14.5 17v-7"/></svg><svg viewBox="0 0 490 490" id="triangle" xmlns="http://www.w3.org/2000/svg"><path d="M245 456.701L490 33.299H0z"/></svg></svg>