<!DOCTYPE svg PUBLIC "-//W3C//DTD SVG 20010904//EN" "http://www.w3.org/TR/2001/REC-SVG-20010904/DTD/svg10.dtd">
<svg version="1.0" xmlns="http://www.w3.org/2000/svg" width="10px" height="47px" viewBox="0 0 100 470" preserveAspectRatio="xMidYMid meet">
<g id="layer101" fill="#ff9d00" stroke="none">
 <path d="M0 235 l0 -235 50 0 50 0 0 235 0 235 -50 0 -50 0 0 -235z"/>
 </g>
<g id="layer102" fill="#fea312" stroke="none">
 <path d="M0 235 l0 -235 50 0 50 0 0 235 0 235 -50 0 -50 0 0 -235z"/>
 </g>
<g id="layer103" fill="#fdb035" stroke="none">
 <path d="M4 457 c-2 -7 -3 -111 -2 -232 l3 -220 47 -3 48 -3 0 235 0 236 -46 0 c-27 0 -47 -5 -50 -13z m83 -254 c-4 -3 -7 0 -7 7 0 7 3 10 7 7 3 -4 3 -10 0 -14z"/>
 </g>
<g id="layer104" fill="#fbbc59" stroke="none">
 <path d="M6 454 c-8 -20 -8 -418 0 -438 4 -11 19 -16 51 -16 l44 0 -3 118 c-2 64 -7 126 -12 137 -6 16 -6 17 3 5 8 -11 11 14 11 98 l0 112 -44 0 c-31 0 -46 -5 -50 -16z m11 -21 c-4 -3 -7 0 -7 7 0 7 3 10 7 7 3 -4 3 -10 0 -14z m23 -48 c0 -5 -5 -3 -10 5 -5 8 -10 20 -10 25 0 6 5 3 10 -5 5 -8 10 -19 10 -25z m20 -50 c0 -5 -5 -3 -10 5 -5 8 -10 20 -10 25 0 6 5 3 10 -5 5 -8 10 -19 10 -25z m20 -50 c0 -5 -5 -3 -10 5 -5 8 -10 20 -10 25 0 6 5 3 10 -5 5 -8 10 -19 10 -25z m7 -82 c-4 -3 -7 0 -7 7 0 7 3 10 7 7 3 -4 3 -10 0 -14z m-16 -40 c-12 -20 -14 -14 -5 12 4 9 9 14 11 11 3 -2 0 -13 -6 -23z m-20 -50 c-12 -20 -14 -14 -5 12 4 9 9 14 11 11 3 -2 0 -13 -6 -23z m-20 -50 c-12 -20 -14 -14 -5 12 4 9 9 14 11 11 3 -2 0 -13 -6 -23z m-14 -40 c-4 -3 -7 0 -7 7 0 7 3 10 7 7 3 -4 3 -10 0 -14z"/>
 </g>
<g id="layer105" fill="#fac46c" stroke="none">
 <path d="M6 454 c-8 -20 -8 -418 0 -438 4 -11 19 -16 50 -16 l43 0 0 235 0 235 -43 0 c-31 0 -46 -5 -50 -16z m48 -103 c20 -52 35 -96 33 -98 -4 -3 -77 180 -77 194 0 15 10 -6 44 -96z m-3 -237 c-22 -55 -40 -95 -40 -89 -1 14 72 196 76 191 2 -2 -14 -48 -36 -102z"/>
 </g>
<g id="layer106" fill="#f8d296" stroke="none">
 <path d="M6 454 c-8 -20 -8 -418 0 -438 4 -11 19 -16 50 -16 l43 0 0 235 0 235 -43 0 c-31 0 -46 -5 -50 -16z m49 -102 c21 -51 35 -95 33 -97 -5 -5 -78 173 -78 189 0 18 8 0 45 -92z m-1 -236 c-20 -53 -39 -94 -42 -92 -2 3 13 48 34 100 20 53 39 94 42 92 2 -3 -13 -48 -34 -100z"/>
 </g>
<g id="layer107" fill="#f7dcaf" stroke="none">
 <path d="M30 420 c11 -27 29 -74 41 -102 11 -29 23 -55 25 -57 2 -2 4 44 4 102 l0 107 -45 0 -45 0 20 -50z"/>
 <path d="M0 235 c0 -115 2 -206 4 -204 11 11 78 187 78 204 0 17 -67 193 -78 204 -2 2 -4 -89 -4 -204z"/>
 <path d="M54 111 l-41 -106 39 -3 c22 -2 42 -1 44 1 3 2 3 52 2 109 l-3 105 -41 -106z"/>
 </g>
<g id="layer108" fill="#f5e7ce" stroke="none">
 <path d="M30 420 c11 -27 29 -74 41 -102 11 -29 23 -55 25 -57 2 -2 4 44 4 102 l0 107 -45 0 -45 0 20 -50z"/>
 <path d="M0 235 c0 -115 2 -206 4 -204 3 2 22 50 44 105 l39 101 -39 99 c-22 54 -42 101 -44 103 -2 2 -4 -89 -4 -204z"/>
 <path d="M54 110 l-42 -105 40 -3 c22 -2 42 -1 44 1 3 2 3 51 2 108 l-3 104 -41 -105z"/>
 </g>
<g id="layer109" fill="#f4f4f4" stroke="none">
 <path d="M49 377 c21 -51 40 -99 44 -107 3 -8 6 33 6 93 l1 107 -44 0 -45 0 38 -93z"/>
 <path d="M1 235 l0 -210 39 95 c21 52 39 104 39 115 0 11 -18 63 -39 115 l-39 95 0 -210z"/>
 <path d="M53 105 l-41 -105 44 0 44 0 0 105 c0 58 -1 105 -2 105 -2 0 -22 -47 -45 -105z"/>
 </g>

</svg>