<!DOCTYPE svg PUBLIC "-//W3C//DTD SVG 20010904//EN" "http://www.w3.org/TR/2001/REC-SVG-20010904/DTD/svg10.dtd">
<svg version="1.0" xmlns="http://www.w3.org/2000/svg" width="10px" height="47px" viewBox="0 0 100 470" preserveAspectRatio="xMidYMid meet">
<g id="layer101" fill="#fea311" stroke="none">
 <path d="M0 235 l0 -235 50 0 50 0 0 235 0 235 -50 0 -50 0 0 -235z"/>
 </g>
<g id="layer102" fill="#fdb035" stroke="none">
 <path d="M0 235 l0 -236 48 3 47 3 0 230 0 230 -47 3 -48 3 0 -236z m17 -32 c-4 -3 -7 0 -7 7 0 7 3 10 7 7 3 -4 3 -10 0 -14z"/>
 </g>
<g id="layer103" fill="#fbbc59" stroke="none">
 <path d="M0 358 c0 -84 3 -109 11 -98 9 12 9 11 3 -5 -5 -11 -10 -73 -12 -137 l-3 -118 44 0 c32 0 47 5 51 16 8 20 8 418 0 438 -4 11 -19 16 -50 16 l-44 0 0 -112z m87 75 c-4 -3 -7 0 -7 7 0 7 3 10 7 7 3 -4 3 -10 0 -14z m-16 -40 c-12 -20 -14 -14 -5 12 4 9 9 14 11 11 3 -2 0 -13 -6 -23z m-20 -50 c-12 -20 -14 -14 -5 12 4 9 9 14 11 11 3 -2 0 -13 -6 -23z m-20 -50 c-12 -20 -14 -14 -5 12 4 9 9 14 11 11 3 -2 0 -13 -6 -23z m-14 -90 c-4 -3 -7 0 -7 7 0 7 3 10 7 7 3 -4 3 -10 0 -14z m23 -48 c0 -5 -5 -3 -10 5 -5 8 -10 20 -10 25 0 6 5 3 10 -5 5 -8 10 -19 10 -25z m20 -50 c0 -5 -5 -3 -10 5 -5 8 -10 20 -10 25 0 6 5 3 10 -5 5 -8 10 -19 10 -25z m20 -50 c0 -5 -5 -3 -10 5 -5 8 -10 20 -10 25 0 6 5 3 10 -5 5 -8 10 -19 10 -25z m7 -32 c-4 -3 -7 0 -7 7 0 7 3 10 7 7 3 -4 3 -10 0 -14z"/>
 </g>
<g id="layer104" fill="#fac36a" stroke="none">
 <path d="M1 235 l0 -235 43 0 c31 0 46 5 50 16 8 20 8 418 0 438 -4 11 -19 16 -50 16 l-43 0 0 -235z m53 111 c-20 -53 -39 -95 -41 -93 -2 2 13 47 33 101 20 53 39 95 41 93 2 -2 -13 -47 -33 -101z m1 -225 c20 -51 34 -95 32 -97 -2 -2 -18 35 -37 84 -43 113 -44 118 -37 112 3 -3 22 -48 42 -99z"/>
 </g>
<g id="layer105" fill="#f8d397" stroke="none">
 <path d="M1 235 l0 -235 43 0 c31 0 46 5 50 16 8 20 8 418 0 438 -4 11 -19 16 -50 16 l-43 0 0 -235z m53 111 c-20 -53 -39 -94 -42 -92 -2 3 13 48 34 100 20 53 39 94 42 92 2 -3 -13 -48 -34 -100z m1 -224 c21 -51 35 -95 33 -97 -5 -5 -78 173 -78 189 0 18 8 0 45 -92z"/>
 </g>
<g id="layer106" fill="#f7dcaf" stroke="none">
 <path d="M0 363 c0 -58 2 -104 4 -102 2 2 14 28 25 57 12 28 30 75 41 102 l20 50 -45 0 -45 0 0 -107z"/>
 <path d="M56 345 c-22 -54 -39 -104 -39 -110 0 -6 17 -56 39 -110 l39 -99 3 107 c1 60 1 154 0 210 l-3 101 -39 -99z"/>
 <path d="M0 113 l0 -113 45 0 45 0 -21 53 c-12 28 -32 79 -45 112 l-23 60 -1 -112z"/>
 </g>
<g id="layer107" fill="#f6e7ce" stroke="none">
 <path d="M0 363 c0 -58 2 -104 4 -102 2 2 14 28 25 57 12 28 30 75 41 102 l20 50 -45 0 -45 0 0 -107z"/>
 <path d="M53 338 l-40 -102 39 -100 c22 -55 41 -103 44 -105 2 -2 4 89 4 202 0 114 -2 207 -3 207 -2 0 -22 -46 -44 -102z"/>
 <path d="M0 107 l0 -107 45 0 45 0 -20 50 c-11 28 -29 74 -41 103 -11 28 -23 54 -25 56 -2 2 -4 -44 -4 -102z"/>
 </g>
<g id="layer108" fill="#f4f4f4" stroke="none">
 <path d="M1 363 c0 -60 3 -101 6 -93 4 8 23 56 44 107 l38 93 -45 0 -44 0 1 -107z"/>
 <path d="M57 343 c-21 -54 -37 -105 -37 -113 1 -8 19 -58 40 -110 l39 -95 0 208 c1 114 0 207 -2 207 -1 0 -19 -44 -40 -97z"/>
 <path d="M1 108 l-1 -108 44 0 45 0 -38 93 c-21 51 -40 99 -44 107 -3 8 -6 -33 -6 -92z"/>
 </g>

</svg>