<?xml version="1.0" encoding="utf-8"?><svg viewBox="0 0 512 512" xmlns="http://www.w3.org/2000/svg" xmlns:xlink="http://www.w3.org/1999/xlink"><style>:root>svg{display:none}:root>svg:target{display:block}</style><svg fill="none" viewBox="0 0 20 20" id="bookmark" xmlns="http://www.w3.org/2000/svg"><path d="M18.203.661a1.49 1.49 0 00-.694-.542A1.464 1.464 0 0016.927 0H3.073c-.202 0-.396.04-.581.119a1.49 1.49 0 00-.694.542c-.172.247-.258.52-.258.82v17.038c0 .3.086.573.258.82.172.247.403.428.694.542.185.08.379.119.581.119.415 0 .78-.145 1.098-.436L10 13.959l5.829 5.605c.308.282.674.423 1.097.423.22 0 .414-.035.581-.106a1.49 1.49 0 00.694-.542c.172-.247.258-.52.258-.82V1.481c0-.3-.086-.573-.258-.82zM16.768 18.11l-5.591-5.367L10 11.619l-1.176 1.124-5.592 5.367V1.692h13.536V18.11z" fill="#000" fill-opacity=".5"/></svg><svg viewBox="0 0 22 22" id="call" xmlns="http://www.w3.org/2000/svg"><g clip-path="url(#bclip0)"><path d="M18.956 15.312c-1.33-1.137-2.678-1.825-3.99-.69l-.785.686c-.573.498-1.64 2.824-5.762-1.918-4.122-4.737-1.67-5.474-1.095-5.968l.788-.687c1.306-1.137.813-2.57-.129-4.044L7.415 1.8C6.47.328 5.44-.638 4.13.498l-.708.618c-.579.422-2.196 1.792-2.588 4.395-.473 3.123 1.017 6.7 4.43 10.624 3.408 3.926 6.745 5.898 9.906 5.864 2.627-.028 4.214-1.438 4.71-1.95l.71-.62c1.306-1.134.495-2.29-.835-3.43l-.8-.687z"/></g><defs><clipPath id="bclip0"><path d="M0 0h22v22H0z"/></clipPath></defs></svg><svg fill="none" viewBox="0 0 20 20" id="chat" xmlns="http://www.w3.org/2000/svg"><path fill="#fff" d="M0 0h20v20H0z"/><path d="M11.875 3.75h-7.5a.625.625 0 000 1.25h7.5a.625.625 0 000-1.25zM9.375 6.25h-5a.625.625 0 000 1.25h5a.625.625 0 000-1.25z" fill="#000" fill-opacity=".5"/><path d="M13.75 0H2.5A2.503 2.503 0 000 2.5V15a.624.624 0 001.025.48l3.576-2.98h9.149c1.379 0 2.5-1.121 2.5-2.5V2.5c0-1.379-1.121-2.5-2.5-2.5zM15 10c0 .689-.56 1.25-1.25 1.25H4.375a.625.625 0 00-.4.145L1.25 13.666V2.5c0-.689.56-1.25 1.25-1.25h11.25c.69 0 1.25.561 1.25 1.25V10z" fill="#000" fill-opacity=".5"/><path d="M17.5 5a.625.625 0 000 1.25c.69 0 1.25.561 1.25 1.25v10.574l-2.11-1.688a.63.63 0 00-.39-.136H7.5c-.69 0-1.25-.561-1.25-1.25v-.625a.625.625 0 00-1.25 0V15c0 1.379 1.121 2.5 2.5 2.5h8.53l2.954 2.364a.63.63 0 00.662.075.627.627 0 00.354-.564V7.5C20 6.121 18.879 5 17.5 5z" fill="#000" fill-opacity=".5"/></svg><svg fill="none" viewBox="0 0 22 22" id="clock" xmlns="http://www.w3.org/2000/svg"><path d="M14.92 12.943l-3.068-2.3V5.955a.851.851 0 10-1.704 0v5.112a.85.85 0 00.34.682l3.409 2.556c.153.115.332.17.51.17a.85.85 0 00.512-1.534z" fill="#EA0016"/><path d="M11 0C4.934 0 0 4.934 0 11s4.934 11 11 11 11-4.934 11-11S17.066 0 11 0zm0 20.296c-5.125 0-9.296-4.17-9.296-9.296 0-5.125 4.17-9.296 9.296-9.296 5.126 0 9.296 4.17 9.296 9.296 0 5.125-4.17 9.296-9.296 9.296z" fill="#EA0016"/></svg><svg fill="none" viewBox="0 0 19 19" id="map-placeholder" xmlns="http://www.w3.org/2000/svg"><path d="M9.5 0C5.548 0 2.333 3.215 2.333 7.167c0 5.689 6.398 11.405 6.67 11.646a.751.751 0 001.008-.015c.272-.254 6.656-6.284 6.656-11.631C16.667 3.216 13.451 0 9.5 0zm0 10.584a3.417 3.417 0 110-6.834 3.417 3.417 0 010 6.834z" fill="#EA0016"/></svg><svg fill="none" viewBox="0 0 19 19" id="placeholder" xmlns="http://www.w3.org/2000/svg"><path d="M9.5 0C5.548 0 2.333 3.215 2.333 7.167c0 5.689 6.398 11.405 6.67 11.646a.751.751 0 001.008-.015c.272-.254 6.656-6.284 6.656-11.631C16.667 3.216 13.451 0 9.5 0zm0 10.584a3.417 3.417 0 110-6.834 3.417 3.417 0 010 6.834z" fill="#000" fill-opacity=".4"/></svg><svg fill="none" viewBox="0 0 42 42" id="popup-close" xmlns="http://www.w3.org/2000/svg"><path fill="red" d="M0 0h42v42H0z"/><g clip-path="url(#gclip0)"><path d="M23.058 20.514l6.619-6.62a1.1 1.1 0 10-1.557-1.557l-6.62 6.62-6.62-6.62a1.1 1.1 0 10-1.557 1.557l6.62 6.62-6.62 6.62a1.1 1.1 0 00.779 1.88c.282 0 .564-.108.778-.323l6.62-6.62 6.62 6.62a1.098 1.098 0 001.557 0 1.1 1.1 0 000-1.557l-6.62-6.62z" fill="#fff"/></g><defs><clipPath id="gclip0"><path fill="#fff" transform="translate(13 12)" d="M0 0h17v17H0z"/></clipPath></defs></svg><svg viewBox="0 0 20 20" id="search" xmlns="http://www.w3.org/2000/svg"><g clip-path="url(#hclip0)"><path d="M12.639 12.907a5.552 5.552 0 005.545-5.545 5.552 5.552 0 00-5.546-5.546 5.552 5.552 0 00-5.545 5.546 5.551 5.551 0 005.546 5.545zm0-10.31a4.77 4.77 0 014.763 4.765 4.77 4.77 0 01-4.764 4.764 4.77 4.77 0 01-4.763-4.764 4.77 4.77 0 014.764-4.764z"/><path d="M12.58 14.84c4.092 0 7.42-3.33 7.42-7.42C20 3.328 16.672 0 12.58 0 8.49 0 5.16 3.328 5.16 7.42c0 1.552.48 2.995 1.3 4.188L5.245 12.82l-.166-.165a.39.39 0 00-.552 0L.583 16.6A1.979 1.979 0 000 18.01c0 .532.207 1.032.583 1.408.376.376.877.583 1.408.583.532 0 1.033-.207 1.409-.583l3.944-3.945a.39.39 0 000-.552l-.165-.165 1.213-1.214a7.377 7.377 0 004.188 1.298zm0-14.059A6.646 6.646 0 0119.22 7.42a6.646 6.646 0 01-6.639 6.638A6.646 6.646 0 015.942 7.42 6.646 6.646 0 0112.58.78zM2.847 18.864a1.203 1.203 0 01-.856.355 1.212 1.212 0 01-.856-2.066l3.669-3.669.165.166 1.546 1.546-3.668 3.668zm3.78-4.662l-.829-.828 1.14-1.141c.255.297.532.574.83.828l-1.142 1.141z"/><path d="M11.301 6.335a.39.39 0 00.39-.39.948.948 0 011.057-.941.947.947 0 01.351 1.767 1.636 1.636 0 00-.851 1.418v.557a.39.39 0 10.78 0V8.19c0-.298.174-.58.453-.736a1.73 1.73 0 00.874-1.704 1.733 1.733 0 00-1.521-1.522 1.73 1.73 0 00-1.923 1.717c0 .216.174.39.39.39zM12.638 9.878a.393.393 0 00-.39.391.392.392 0 00.39.39.392.392 0 00.39-.39.393.393 0 00-.39-.39z"/></g><defs><clipPath id="hclip0"><path fill="#fff" d="M0 0h20v20H0z"/></clipPath></defs></svg><svg viewBox="0 0 512 512" id="stopwatch" xmlns="http://www.w3.org/2000/svg"><path d="M479.451 112.98l-53.74-53.74c-7.811-7.811-20.474-7.811-28.284 0s-7.811 20.474 0 28.284l12.728 12.728-26.102 26.102c-33.978-28.346-75.292-45.458-119.362-49.441V40h18c11.046 0 20-8.954 20-20s-8.954-20-20-20h-76c-11.046 0-20 8.954-20 20s8.954 20 20 20h18v36.913c-109.724 9.916-198 102.055-198 217.087 0 120.482 97.501 218 218 218 120.482 0 218-97.501 218-218 0-51.511-17.756-100.286-50.354-139.362l26.102-26.102 12.728 12.728c7.81 7.81 20.473 7.811 28.284 0 7.81-7.81 7.81-20.473 0-28.284zM244.691 472c-98.149 0-178-79.851-178-178s79.851-178 178-178 178 79.851 178 178-79.85 178-178 178zm103.923-178c0 11.046-8.954 20-20 20h-83.922c-11.046 0-20-8.954-20-20V176.325c0-11.046 8.954-20 20-20s20 8.954 20 20V274h63.922c11.046 0 20 8.954 20 20z"/></svg><svg fill="none" viewBox="0 0 20 20" id="telephone" xmlns="http://www.w3.org/2000/svg"><g clip-path="url(#jclip0)" fill="#000" fill-opacity=".5"><path d="M19.234 4.084c-.768-1.056-2.112-2.01-3.785-2.684A14.945 14.945 0 0010.01.356a14.925 14.925 0 00-5.444 1.028c-1.676.67-3.023 1.618-3.793 2.672C.032 5.068-.181 6.158.155 7.21A1.653 1.653 0 001.74 8.352l2.498.002h.003c.498 0 .966-.218 1.284-.598a1.642 1.642 0 00.349-1.392l-.132-.511c.728-.347 2.377-1.018 4.26-1.008 1.883.01 3.531.68 4.26 1.028l-.134.508a1.642 1.642 0 00.344 1.394 1.67 1.67 0 001.286.602l2.498.003h.002c.728 0 1.365-.457 1.585-1.138.34-1.051.13-2.143-.608-3.158z"/><path d="M15.649 10.93l-1.863-1.956a.597.597 0 00-.432-.185H12.15v-.814a.597.597 0 00-1.194 0v.814H9.045v-.814a.597.597 0 00-1.194 0v.814H6.647a.597.597 0 00-.432.185L4.352 10.93a8.176 8.176 0 00-2.265 5.663v2.455c0 .33.268.597.597.597h14.633c.33 0 .596-.268.596-.597v-2.455a8.176 8.176 0 00-2.264-5.663zM10 17.463a3.127 3.127 0 01-3.123-3.123A3.127 3.127 0 0110 11.216a3.127 3.127 0 013.124 3.124A3.127 3.127 0 0110 17.463z"/><path d="M10 12.41c-1.064 0-1.93.865-1.93 1.93 0 1.064.866 1.93 1.93 1.93s1.93-.866 1.93-1.93c0-1.065-.866-1.93-1.93-1.93z"/></g><defs><clipPath id="jclip0"><path fill="#fff" d="M0 0h20v20H0z"/></clipPath></defs></svg><svg fill="none" viewBox="0 0 30 22" id="truck" xmlns="http://www.w3.org/2000/svg"><path d="M28.982 9.858l-2.043-.884-1.735-3.376a2.732 2.732 0 00-2.458-1.493h-2.987V3.26c0-1.527-1.22-2.773-2.746-2.773H2.733C1.206.488 0 1.74 0 3.26v12.927a1.684 1.684 0 001.661 1.707h.382c0 .067-.007.094-.007.134a3.47 3.47 0 006.94.027v-.033c0-.047 0-.067-.007-.134h11.54v.134a3.47 3.47 0 006.939.026v-.033-.134h.864A1.69 1.69 0 0030 16.194v-4.782a1.68 1.68 0 00-1.018-1.554zM5.512 20.18a2.127 2.127 0 01-2.13-2.13c0-1.178.952-2.13 2.13-2.13 1.18 0 2.13.952 2.13 2.13 0 1.173-.957 2.13-2.13 2.13zm12.907-3.61H8.654a3.441 3.441 0 00-3.142-2.002 3.423 3.423 0 00-3.14 2.002h-.684c-.208 0-.348-.16-.348-.368v-3.45h17.08v3.818zm0-13.302v8.145H1.34V3.267c0-.783.61-1.433 1.394-1.433h14.28a1.42 1.42 0 011.406 1.427v.006zm1.34 2.184h2.987a1.414 1.414 0 011.273.757l1.34 2.592h-5.6V5.45zm4.226 14.728a2.127 2.127 0 01-2.13-2.13c0-1.178.951-2.13 2.13-2.13a2.131 2.131 0 010 4.26zm4.682-3.978c0 .207-.14.368-.348.368h-1.193a3.467 3.467 0 00-6.282 0h-1.085v-6.43h6.564l2.13.938a.394.394 0 01.214.362V16.2z" fill="#000"/></svg><svg viewBox="0 0 20 20" id="user" xmlns="http://www.w3.org/2000/svg"><path d="M10 0a5.28 5.28 0 00-5.273 5.273A5.28 5.28 0 0010 10.547a5.28 5.28 0 005.273-5.274A5.28 5.28 0 0010 0zM16.561 13.992a7.518 7.518 0 00-5.39-2.273H8.829a7.518 7.518 0 00-5.39 2.273 7.685 7.685 0 00-2.227 5.422c0 .324.262.586.586.586h16.406a.586.586 0 00.586-.586 7.685 7.685 0 00-2.228-5.422z"/></svg><svg viewBox="0 0 50 51" id="warranty" xmlns="http://www.w3.org/2000/svg"><path d="M47.964 20.379L37.5 15.895v-8.86a.781.781 0 00-.229-.553l-3.906-3.906a.781.781 0 00-.553-.23H3.907a2.344 2.344 0 00-2.344 2.345v42.187a2.344 2.344 0 002.344 2.344h31.25a2.344 2.344 0 002.344-2.344v-1.942l4.067-2.902a16.437 16.437 0 006.87-13.353v-7.584a.782.782 0 00-.473-.718zM35.938 7.358v.458H32.03V3.909h.458l3.449 3.449zm-.782 40.301H3.906a.781.781 0 01-.781-.78V4.69a.781.781 0 01.781-.782H30.47v4.688a.781.781 0 00.781.781h4.688v6.517l-10.465 4.484a.781.781 0 00-.473.718v7.584a16.437 16.437 0 006.87 13.353l4.067 2.902v1.942a.781.781 0 01-.78.781zm11.719-18.978a14.873 14.873 0 01-6.216 12.08l-3.94 2.813-3.94-2.812a14.874 14.874 0 01-6.217-12.08v-7.07l10.157-4.353 10.156 4.353v7.07z"/><path d="M36.428 19.59l-7.812 3.125a.782.782 0 00-.491.726v4.93a13.217 13.217 0 004.984 10.37l3.121 2.5a.781.781 0 00.977 0l3.121-2.5a13.217 13.217 0 004.984-10.37v-4.93a.78.78 0 00-.49-.726l-7.813-3.125a.787.787 0 00-.58 0zm7.322 4.38v4.4a11.659 11.659 0 01-4.398 9.15l-2.633 2.108-2.634-2.11a11.659 11.659 0 01-4.398-9.148v-4.4l7.032-2.813 7.031 2.813zM5.469 16.41h21.875a.781.781 0 00.781-.782V6.253a.781.781 0 00-.781-.781H5.469a.781.781 0 00-.782.781v9.375a.781.781 0 00.782.781zm.781-9.376h20.313v7.813H6.25V7.034zM22.656 35.16H5.47a.781.781 0 00-.782.78v9.376a.781.781 0 00.782.78h17.187a.781.781 0 00.782-.78V35.94a.782.782 0 00-.782-.782zm-.781 9.374H6.25v-7.812h15.625v7.812zM4.688 20.316h18.75v1.562H4.688v-1.562zM4.688 25.003h18.75v1.563H4.688v-1.563zM4.688 29.69h18.75v1.563H4.688v-1.562z"/></svg><svg viewBox="0 0 57 51" id="washing-machine" xmlns="http://www.w3.org/2000/svg"><g clip-path="url(#nclip0)"><path d="M50.2.784H13.8a.732.732 0 00-.733.733v45.501c0 .405.328.733.732.733h.785v2.3c0 .405.327.733.732.733h33.368a.732.732 0 00.732-.732V47.75h.785a.732.732 0 00.732-.733V33.447c0-.405-.328-22.098-.732-22.098-.405 0-.733 21.693-.733 22.098v6.78H21c-.405 0 .5.369.5.773s-.905.691-.5.691h28.468v4.595H47.9v-.648a2.388 2.388 0 00-2.386-2.386h-2.76a2.388 2.388 0 00-2.386 2.386v.648H14.532V41.69h7.05a.732.732 0 100-1.465h-7.05V11.35H31.92a.732.732 0 100-1.464h-5.255V2.249h22.802v7.636H31.5c-.405 0 0 .328 0 .732 0 .404-.405.732 0 .732h17.968v18.985c0 .405.328 15.304.733 15.304.404 0 .732-14.9.732-15.304V1.517a.733.733 0 00-.732-.733zm-8.367 44.854c0-.508.413-.92.92-.92h2.761c.508 0 .92.412.92.92v.648h-4.601v-.648zm6.119 2.113v1.568H16.048v-1.568h31.904zM14.532 2.249H25.2v7.636H14.53V2.249z"/><path d="M35.033 8.316h12.134a.732.732 0 00.733-.732V4.55a.732.732 0 00-.733-.732H35.033a.732.732 0 00-.732.732v3.033c0 .405.328.733.732.733zm.733-3.034h10.669v1.569h-10.67V5.282zM28.234 6.067c0 1.24 1.01 2.249 2.25 2.249s2.248-1.01 2.248-2.25-1.009-2.248-2.249-2.248a2.252 2.252 0 00-2.249 2.249zm3.033 0a.785.785 0 01-1.568 0 .785.785 0 011.568 0zM32.002 38.654c7.095 0 12.868-5.773 12.868-12.868 0-7.096-5.773-12.868-12.868-12.868-7.096 0-12.869 5.773-12.869 12.868 0 7.095 5.773 12.868 12.869 12.868zm0-24.271c6.287 0 11.403 5.115 11.403 11.403s-5.116 11.403-11.403 11.403c-6.288 0-11.404-5.115-11.404-11.403s5.116-11.403 11.404-11.403z"/><path d="M26.965 22.328A.732.732 0 0028 22.262a5.337 5.337 0 014.003-1.809.732.732 0 100-1.465c-1.952 0-3.811.84-5.102 2.306a.732.732 0 00.065 1.034zM16.833 3.818a.732.732 0 100 1.464.732.732 0 000-1.464zM19.866 3.818a.733.733 0 100 1.466.733.733 0 000-1.466zM22.9 3.818A.733.733 0 1022.9 5.28a.733.733 0 00-.002-1.462zM16.833 6.851a.732.732 0 10-.002 1.464.732.732 0 00.002-1.464zM19.87 6.852a.733.733 0 10-.008 1.465.733.733 0 00.008-1.465zM22.9 6.851a.733.733 0 10.001 1.464.733.733 0 00-.002-1.464zM22.115 13.65a.732.732 0 00-.732-.732h-4.55a.732.732 0 000 1.465h4.55a.732.732 0 00.732-.733z"/><path d="M22.17 25.786c0 5.42 4.411 9.83 9.832 9.83a9.774 9.774 0 004.35-1.015l.044-.021a9.824 9.824 0 005.437-8.794c0-5.475-4.438-9.79-9.754-9.83h-.077c-5.405 0-9.831 4.393-9.831 9.83zm1.466.02c.56.108.929.335 1.364.604.678.417 1.445.89 2.92.89 1.476 0 2.244-.473 2.921-.89.61-.376 1.092-.673 2.153-.673 1.06 0 1.542.297 2.152.673.584.36 1.236.76 2.35.864a6.71 6.71 0 001.55 3.022 8.358 8.358 0 01-7.044 3.857c-4.607 0-8.356-3.743-8.366-8.347zm16.732-.02a8.324 8.324 0 01-.589 3.083 5.281 5.281 0 01-.98-3.085c0-1.125.343-2.19.98-3.083.38.955.589 1.996.589 3.085zm-8.366-8.366a6.386 6.386 0 01.142.001 8.367 8.367 0 016.9 3.854 6.728 6.728 0 00-1.71 4.502c-.591-.104-.97-.338-1.42-.614-.677-.418-1.444-.89-2.92-.89s-2.244.472-2.92.89c-.61.375-1.092.672-2.153.672-1.06 0-1.542-.297-2.152-.672-.521-.321-1.097-.676-2.008-.822.686-3.927 4.12-6.921 8.24-6.921z"/></g><rect x="7" y="15.784" width="23" height="23" rx="11.5" fill="#fff"/><g clip-path="url(#nclip1)"><path d="M.687 41.783l7.82-7.82a11.613 11.613 0 01-1.944-6.46c0-6.462 5.256-11.719 11.718-11.719S30 21.041 30 27.503s-5.257 11.719-11.719 11.719c-2.317 0-4.54-.672-6.46-1.946l-2.16 2.162-.002.001-5.658 5.658a2.328 2.328 0 01-1.657.687 2.328 2.328 0 01-1.657-.686A2.327 2.327 0 010 43.44c0-.626.244-1.214.687-1.657zm11.41-5.741a10.456 10.456 0 006.184 2.008c5.816 0 10.547-4.731 10.547-10.547 0-5.816-4.731-10.547-10.547-10.547-5.815 0-10.547 4.731-10.547 10.547 0 2.237.695 4.375 2.008 6.184.658.905 1.45 1.697 2.355 2.355zm-1.229.53a11.759 11.759 0 01-1.657-1.656L7.55 36.578c.506.597 1.06 1.152 1.657 1.657l1.662-1.662zM1.515 44.27c.222.221.516.343.829.343.313 0 .607-.122.828-.343l5.203-5.203a15.401 15.401 0 01-1.657-1.657l-5.203 5.203a1.163 1.163 0 00-.343.828c0 .313.122.608.343.829z"/><path d="M18.281 18.128c5.17 0 9.375 4.206 9.375 9.375 0 5.17-4.205 9.375-9.375 9.375s-9.375-4.206-9.375-9.375c0-5.17 4.206-9.375 9.375-9.375zm0 17.578c4.524 0 8.203-3.68 8.203-8.203s-3.68-8.203-8.203-8.203-8.203 3.68-8.203 8.203 3.68 8.203 8.203 8.203z"/><path d="M11.715 24.988a7.032 7.032 0 012.54-3.247 6.981 6.981 0 014.026-1.27.586.586 0 010 1.173 5.9 5.9 0 00-5.472 3.764.586.586 0 11-1.094-.42z"/></g><defs><clipPath id="nclip0"><path fill="#fff" transform="translate(7 .784)" d="M0 0h50v50H0z"/></clipPath><clipPath id="nclip1"><path fill="#fff" transform="matrix(-1 0 0 1 30 15.784)" d="M0 0h30v30H0z"/></clipPath></defs></svg><svg viewBox="0 0 50 51" id="wrench" xmlns="http://www.w3.org/2000/svg"><g clip-path="url(#oclip0)"><path d="M45.612 34.377a8.725 8.725 0 00-6.117-1.006l-7.59-7.587 7.596-7.592a8.807 8.807 0 009.318-4.227 8.724 8.724 0 00.878-6.666 8.728 8.728 0 00-4.095-5.334C41.406-.457 36.02.985 33.597 5.18a8.716 8.716 0 00-1.007 6.115L25 18.882l-.616-.616a.976.976 0 10-1.38 1.382l.615.615-4.143 4.14-7.284-7.28 4.139-4.145 6.672 6.672c.382.381.35-.269.731-.65s1.647.266 1.266-.115l-7.596-7.596a8.797 8.797 0 00-4.229-9.314 8.786 8.786 0 00-8.252-.285c-.873.426-1.328.976-1.351 1.637-.023.647.37 1.209 1.165 1.668L7.36 6.508c.446.258.446.383.446.609v1.122c0 .7-.07.82-.676 1.17l-.972.561c-.19.11-.305.176-.751-.082L2.784 8.375c-.796-.459-1.478-.517-2.028-.174-.56.35-.81 1.02-.742 1.988a8.78 8.78 0 004.374 7.002 8.725 8.725 0 006.117 1.007l7.59 7.586-7.595 7.593a8.803 8.803 0 00-9.319 4.226 8.725 8.725 0 00-.878 6.666 8.728 8.728 0 004.095 5.335 8.795 8.795 0 0012.004-3.215 8.715 8.715 0 001.008-6.116L25 32.686l7.596 7.593a8.797 8.797 0 004.228 9.314 8.78 8.78 0 008.253.286c.873-.426 1.328-.977 1.35-1.637.023-.648-.369-1.21-1.165-1.669l-2.621-1.513c-.446-.257-.446-.382-.446-.608v-1.123c0-.7.07-.82.675-1.17l.973-.56c.19-.11.304-.177.751.081l2.622 1.513c.795.46 1.478.518 2.028.174.56-.35.81-1.019.742-1.988a8.778 8.778 0 00-4.374-7.002zM5.364 15.5a6.828 6.828 0 01-3.393-5.338l2.458 1.419c.611.352 1.556.744 2.704.082l.973-.561c1.204-.696 1.652-1.471 1.652-2.862V7.117c0-1.326-.812-1.948-1.423-2.3L5.877 3.398a6.835 6.835 0 019.57 7.701l-5.133 5.14a6.786 6.786 0 01-4.95-.74zm29.925-9.342c1.884-3.263 6.073-4.384 9.337-2.5a6.788 6.788 0 013.184 4.148 6.784 6.784 0 01-.682 5.183 6.85 6.85 0 01-7.437 3.247l-5.142-5.131a6.778 6.778 0 01.74-4.947zM14.71 45.411c-1.884 3.263-6.073 4.385-9.337 2.501a6.787 6.787 0 01-3.184-4.148 6.785 6.785 0 01.682-5.184 6.85 6.85 0 015.925-3.418c.502 0 1.009.056 1.512.171l5.143 5.132a6.78 6.78 0 01-.74 4.946zm1.624-6.824l-4.146-4.137 21.477-21.468 4.146 4.137-21.477 21.468zm10.046-7.282l4.143-4.14 7.284 7.281-4.139 4.144-7.288-7.285zm19.19 8.684c-.611-.353-1.556-.745-2.704-.082l-.972.56c-1.205.696-1.653 1.472-1.653 2.862v1.123c0 1.325.812 1.947 1.423 2.3l2.458 1.418a6.835 6.835 0 01-9.57-7.701l5.133-5.14a6.787 6.787 0 014.95.74 6.829 6.829 0 013.393 5.338l-2.458-1.418z"/><path d="M37.79 12.11l2.93 1.69a.975.975 0 00.976 0l2.93-1.69a.976.976 0 00.488-.847v-3.38a.976.976 0 00-.488-.846l-2.93-1.691a.976.976 0 00-.976 0l-2.93 1.69a.976.976 0 00-.488.846v3.381c0 .35.186.672.489.846zm1.465-3.664l1.953-1.127 1.953 1.127V10.7l-1.953 1.127-1.953-1.127V8.446zM12.21 39.46l-2.93-1.691a.977.977 0 00-.976 0l-2.93 1.69a.976.976 0 00-.488.846v3.381c0 .349.186.672.488.846l2.93 1.69a.975.975 0 00.976 0l2.93-1.69a.977.977 0 00.488-.846v-3.38a.977.977 0 00-.489-.847zm-1.465 3.662L8.792 44.25l-1.953-1.127V40.87l1.953-1.127 1.953 1.127v2.253z"/></g><defs><clipPath id="oclip0"><path fill="#fff" transform="translate(0 .784)" d="M0 0h50v50H0z"/></clipPath></defs></svg></svg>