<?xml version="1.0" encoding="utf-8"?><svg viewBox="0 0 1896 1134" xmlns="http://www.w3.org/2000/svg" xmlns:xlink="http://www.w3.org/1999/xlink"><style>:root>svg{display:none}:root>svg:target{display:block}</style><svg fill="none" viewBox="0 0 24 24" id="arrow" xmlns="http://www.w3.org/2000/svg"><path d="M6 9l6 6 6-6" stroke="#5101A6" stroke-width="2" stroke-linecap="round"/></svg><svg fill="none" viewBox="0 0 190 40" id="logo" xmlns="http://www.w3.org/2000/svg"><path fill-rule="evenodd" clip-rule="evenodd" d="M10.18 17.334c1.89 0 3.404-.53 4.539-1.59 1.155-1.06 1.733-2.525 1.733-4.396 0-1.87-.578-3.336-1.733-4.396-1.135-1.06-2.648-1.59-4.539-1.59H6.24v11.972h3.94zM0 .437h10.432c2.417 0 4.56.446 6.43 1.34 1.87.894 3.32 2.162 4.35 3.804 1.03 1.642 1.544 3.564 1.544 5.767 0 2.204-.515 4.126-1.545 5.768-1.03 1.642-2.48 2.91-4.349 3.803-1.87.894-4.013 1.341-6.43 1.341H0V.437zM27.3 22.26h6.24V.437H27.3V22.26zM54.617 13.233h4.921v9.027c-1.534 0-3.89-.014-5.516 0-1.816.015-2.11 0-3.748 0-2.312 0-4.394-.042-6.243-.998-1.849-.977-3.299-2.328-4.35-4.053-1.05-1.725-1.575-3.678-1.575-5.86 0-2.183.525-4.137 1.576-5.862 1.05-1.725 2.51-3.066 4.38-4.022C45.933.49 48.045 0 50.399 0c2.059 0 3.908.343 5.547 1.029 1.639.686 3.004 1.673 4.097 2.962l-3.971 3.554c-1.492-1.622-3.278-2.432-5.358-2.432-1.891 0-3.414.571-4.57 1.715-1.156 1.122-1.733 2.629-1.733 4.52 0 1.206.262 2.286.787 3.242a5.76 5.76 0 002.206 2.214c.946.52 2.028.78 3.247.78h3.967v-4.35zM64.755 22.26h6.24V.437h-6.24V22.26zM96.615 22.26l-.063-11.567-5.673 9.416h-2.773l-5.642-9.104V22.26h-5.768V.437h5.137l7.754 12.595L97.15.437h5.137l.064 21.823h-5.737zM120.982 13.468l-2.837-6.983-2.836 6.983h5.673zm1.828 4.552h-9.33l-1.733 4.24h-6.367L115.119.437h6.146l9.771 21.823h-6.493l-1.733-4.24zM137.654 5.331h-6.776V.437h19.761V5.33h-6.745v16.93h-6.24V5.33zM155.414 22.26h6.24V.437h-6.24V22.26zM181.881 22.26l-4.57-6.765-4.507 6.765h-7.123l8.037-11.036L166.027.437h7.029l4.412 6.297 4.35-6.297h6.745l-7.691 10.537 8.195 11.286h-7.186zM123.91 36.318l-.633-1.747-.25-.782h-.025l-.233.766-.65 1.763h1.791zm.266.716h-2.314l-.525 1.425h-.915l2.072-5.435h1.066l2.073 5.435h-.94l-.517-1.425zM138.152 35.65v2.809h-.657l-.025-.692c-.161.247-.383.439-.666.576-.283.132-.622.198-1.016.198-.51 0-.957-.113-1.34-.337a2.285 2.285 0 01-.891-.964c-.211-.423-.317-.922-.317-1.499 0-.57.109-1.065.325-1.482.217-.423.522-.747.916-.972.394-.23.852-.346 1.374-.346.566 0 1.032.105 1.399.313.366.209.655.533.865.972l-.815.387a1.267 1.267 0 00-.533-.675c-.25-.154-.55-.23-.9-.23-.521 0-.934.178-1.24.534-.306.357-.458.857-.458 1.5 0 .652.144 1.158.433 1.514.294.352.722.527 1.282.527.439 0 .794-.106 1.066-.32.272-.215.408-.525.408-.931v-.157h-1.682v-.724h2.472zM150.806 37.701v.758h-4.096v-5.435h3.979v.757H147.6v1.565h2.415v.741H147.6v1.614h3.206zM163.642 38.459h-1.058l-2.122-3.426-.533-1.005h-.009l.034.922v3.509h-.816v-5.435h1.049l2.114 3.417.542 1.013h.008l-.033-.922v-3.508h.824v5.435zM176.958 37.018a2.111 2.111 0 01-.857 1.128c-.4.263-.871.395-1.415.395-.528 0-.985-.112-1.374-.337a2.26 2.26 0 01-.899-.972c-.211-.423-.317-.92-.317-1.49 0-.572.106-1.069.317-1.491a2.26 2.26 0 01.899-.972c.389-.225.843-.338 1.365-.338.55 0 1.011.113 1.383.338.377.225.649.557.815.996l-.84.371c-.112-.324-.272-.56-.483-.708-.211-.154-.486-.23-.825-.23-.516 0-.93.18-1.24.543-.305.357-.458.854-.458 1.49 0 .643.147 1.142.441 1.5.294.356.702.535 1.224.535.355 0 .652-.089.891-.264.244-.176.419-.434.525-.774l.848.28zM187.265 36.375v2.084h-.89v-2.084l-1.957-3.351h.991l.982 1.745.433.816.433-.816.974-1.745h.999l-1.965 3.351zM35.242 37.71c.577 0 1.021-.171 1.331-.511.311-.346.467-.832.467-1.458s-.156-1.109-.467-1.45c-.31-.345-.755-.518-1.331-.518h-1.05v3.936h1.05zm0-4.684c.865 0 1.537.236 2.014.708.478.472.716 1.142.716 2.01 0 .867-.238 1.537-.716 2.01-.477.47-1.149.707-2.014.707h-1.94v-5.435h1.94zM46.43 38.459h.89v-5.435h-.89v5.435zM60.69 35.65v2.809h-.657l-.025-.692c-.161.247-.383.439-.666.576-.283.132-.622.198-1.016.198-.51 0-.957-.113-1.34-.337a2.284 2.284 0 01-.891-.964c-.21-.423-.317-.922-.317-1.499 0-.57.109-1.065.325-1.482.217-.423.522-.747.916-.972.394-.23.852-.346 1.373-.346.567 0 1.033.105 1.4.313.366.209.654.533.865.972l-.816.387a1.262 1.262 0 00-.532-.675c-.25-.154-.55-.23-.9-.23-.522 0-.935.178-1.24.534-.305.357-.458.857-.458 1.5 0 .652.144 1.158.433 1.514.294.352.721.527 1.282.527.438 0 .794-.106 1.066-.32.272-.215.408-.525.408-.931v-.157h-1.682v-.724h2.472zM69.247 38.459h.89v-5.435h-.89v5.435zM82.991 33.781H81.11v4.678h-.891V33.78h-1.882v-.757h4.654v.757zM93.285 36.318l-.633-1.747-.25-.782h-.024l-.234.766-.649 1.763h1.79zm.267.716h-2.315l-.525 1.425h-.915l2.072-5.435h1.066l2.073 5.435h-.94l-.516-1.425zM107.04 37.701v.758h-3.921v-5.435h.891V37.7h3.03z" fill="#F2F2F2"/><path fill-rule="evenodd" clip-rule="evenodd" d="M0 31.177h3.759l3.972 4.47L3.759 40H0l3.684-4.361L0 31.176z" fill="#5101A6"/><path fill-rule="evenodd" clip-rule="evenodd" d="M7.433 31.176h3.759l3.972 4.47L11.192 40H7.433l3.685-4.362-3.685-4.462z" fill="#5101A6"/><path fill-rule="evenodd" clip-rule="evenodd" d="M15.164 31.176h3.759l3.972 4.47L18.923 40h-3.759l3.684-4.362-3.684-4.462z" fill="#5101A6"/></svg><svg viewBox="0 0 512 512" id="phone-call" xmlns="http://www.w3.org/2000/svg"><path d="M436.992 74.953c-99.989-99.959-262.08-99.935-362.039.055s-99.935 262.08.055 362.039 262.08 99.935 362.039-.055a256 256 0 00-.055-362.039zm-49.289 281.652l-.034.034v-.085l-12.971 12.885a68.267 68.267 0 01-64.427 18.432 226.834 226.834 0 01-65.877-29.525 304.371 304.371 0 01-51.968-41.899 306.71 306.71 0 01-38.827-47.104 238.907 238.907 0 01-29.184-59.051 68.265 68.265 0 0117.067-69.717l15.189-15.189c4.223-4.242 11.085-4.257 15.326-.034l.034.034 47.957 47.957c4.242 4.223 4.257 11.085.034 15.326l-.034.034-28.16 28.16c-8.08 7.992-9.096 20.692-2.389 29.867a329.334 329.334 0 0033.707 39.339 327.314 327.314 0 0044.373 37.291c9.167 6.394 21.595 5.316 29.525-2.56l27.221-27.648c4.223-4.242 11.085-4.257 15.326-.034l.034.034 48.043 48.128c4.243 4.222 4.258 11.083.035 15.325z"/></svg><svg fill="none" viewBox="0 0 24 24" id="play-icon" xmlns="http://www.w3.org/2000/svg"><path d="M12 22c5.523 0 10-4.477 10-10S17.523 2 12 2 2 6.477 2 12s4.477 10 10 10z" stroke="#fff" stroke-width="2" stroke-linecap="round"/><path d="M10 8l6 4-6 4V8z" stroke="#fff" stroke-width="2" stroke-linecap="round"/></svg><svg fill="none" viewBox="0 0 1896 1134" id="promo-schevrones" xmlns="http://www.w3.org/2000/svg"><g opacity=".05" filter="url(#efilter0_d)"><path d="M452 92h433.755L1302 571.212 885.755 1038H452l386.083-467.608L452 92z" fill="#fff"/></g><g opacity=".05" filter="url(#efilter1_d)"><path d="M214 92h433.755L1064 571.212 647.755 1038H214l386.083-467.608L214 92z" fill="#fff"/></g><g opacity=".05" filter="url(#efilter2_d)"><path d="M1046 92h433.76L1896 571.212 1479.76 1038H1046l386.08-467.608L1046 92z" fill="#fff"/></g><defs><filter id="efilter0_d" x="238" y="0" width="1064" height="1134" filterUnits="userSpaceOnUse" color-interpolation-filters="sRGB"><feFlood flood-opacity="0" result="BackgroundImageFix"/><feColorMatrix in="SourceAlpha" values="0 0 0 0 0 0 0 0 0 0 0 0 0 0 0 0 0 0 127 0" result="hardAlpha"/><feOffset dx="-120" dy="2"/><feGaussianBlur stdDeviation="47"/><feColorMatrix values="0 0 0 0 0 0 0 0 0 0 0 0 0 0 0 0 0 0 0.135134 0"/><feBlend in2="BackgroundImageFix" result="effect1_dropShadow"/><feBlend in="SourceGraphic" in2="effect1_dropShadow" result="shape"/></filter><filter id="efilter1_d" x="0" y="0" width="1064" height="1134" filterUnits="userSpaceOnUse" color-interpolation-filters="sRGB"><feFlood flood-opacity="0" result="BackgroundImageFix"/><feColorMatrix in="SourceAlpha" values="0 0 0 0 0 0 0 0 0 0 0 0 0 0 0 0 0 0 127 0" result="hardAlpha"/><feOffset dx="-120" dy="2"/><feGaussianBlur stdDeviation="47"/><feColorMatrix values="0 0 0 0 0 0 0 0 0 0 0 0 0 0 0 0 0 0 0.135134 0"/><feBlend in2="BackgroundImageFix" result="effect1_dropShadow"/><feBlend in="SourceGraphic" in2="effect1_dropShadow" result="shape"/></filter><filter id="efilter2_d" x="832" y="0" width="1064" height="1134" filterUnits="userSpaceOnUse" color-interpolation-filters="sRGB"><feFlood flood-opacity="0" result="BackgroundImageFix"/><feColorMatrix in="SourceAlpha" values="0 0 0 0 0 0 0 0 0 0 0 0 0 0 0 0 0 0 127 0" result="hardAlpha"/><feOffset dx="-120" dy="2"/><feGaussianBlur stdDeviation="47"/><feColorMatrix values="0 0 0 0 0 0 0 0 0 0 0 0 0 0 0 0 0 0 0.135134 0"/><feBlend in2="BackgroundImageFix" result="effect1_dropShadow"/><feBlend in="SourceGraphic" in2="effect1_dropShadow" result="shape"/></filter></defs></svg><svg viewBox="0 0 24 24" id="ticket" xmlns="http://www.w3.org/2000/svg"><path d="M21.5 22h-19A2.503 2.503 0 010 19.5v-2a.5.5 0 01.5-.5H1c1.103 0 2-.897 2-2s-.897-2-2-2H.5a.5.5 0 01-.5-.5v-2C0 9.122 1.122 8 2.5 8h19c1.378 0 2.5 1.122 2.5 2.5v2a.5.5 0 01-.5.5H23a2.002 2.002 0 00-1.414 3.414c.377.378.879.586 1.413.586h.5a.5.5 0 01.5.5v2A2.502 2.502 0 0121.5 22zM1 18v1.5c0 .827.673 1.5 1.5 1.5h19c.827 0 1.5-.673 1.5-1.5V18h-.001a2.979 2.979 0 01-2.12-.878A2.982 2.982 0 0120 15c0-1.654 1.346-3 3-3v-1.5c0-.827-.673-1.5-1.5-1.5h-19C1.673 9 1 9.673 1 10.5V12c1.654 0 3 1.346 3 3s-1.346 3-3 3z"/><path d="M8.5 10a.5.5 0 01-.5-.5v-1a.5.5 0 011 0v1a.5.5 0 01-.5.5zM8.5 18.461a.5.5 0 01-.5-.5V16.27a.5.5 0 011 0v1.692a.5.5 0 01-.5.499zm0-4.23a.5.5 0 01-.5-.5v-1.692a.5.5 0 011 0v1.692a.5.5 0 01-.5.5zM8.5 22a.5.5 0 01-.5-.5v-1a.5.5 0 011 0v1a.5.5 0 01-.5.5z"/><path d="M2.5 9a.498.498 0 01-.175-.968l15.9-5.937c.773-.29 1.681.144 1.945.923l1.803 5.321a.5.5 0 01-.947.321l-1.803-5.321a.511.511 0 00-.649-.308l-15.9 5.937A.482.482 0 012.5 9z"/></svg></svg>