<svg width="28" height="14" viewBox="0 0 28 14"  xmlns="http://www.w3.org/2000/svg">
<path d="M1.09373 8.09376L24.2571 8.09376L20.42 11.9123C19.9918 12.3384 19.9902 13.0309 20.4163 13.459C20.8424 13.8872 21.535 13.8888 21.9631 13.4628L27.6782 7.77526C27.6786 7.77493 27.6789 7.77455 27.6792 7.77422C28.1062 7.34809 28.1076 6.65334 27.6793 6.2258C27.6789 6.22547 27.6786 6.22509 27.6783 6.22476L21.9632 0.537263C21.5352 0.111247 20.8426 0.112724 20.4164 0.540982C19.9903 0.969129 19.9919 1.66164 20.4201 2.08776L24.2571 5.90626L1.09373 5.90626C0.489653 5.90626 -1.84278e-05 6.39593 -1.84807e-05 7.00001C-1.85335e-05 7.60408 0.489653 8.09376 1.09373 8.09376Z"/>
</svg>
