<svg width="51" height="51" viewBox="0 0 51 51" fill="none" xmlns="http://www.w3.org/2000/svg">
<path d="M4.58203 33.7676H0V48.709H4.58203H9.06445V33.7676H4.58203Z" fill="#9999FF"/>
<path d="M4.58203 33.7676H9.06445V48.709H4.58203V33.7676Z" fill="#6680FF"/>
<path d="M18.0293 27.791H13.5469V48.709H18.0293H22.5117V27.791H18.0293Z" fill="#9999FF"/>
<path d="M18.0293 27.791H22.5117V48.709H18.0293V27.791Z" fill="#6680FF"/>
<path d="M31.4766 21.8145H26.9941V48.709H31.4766H35.959V21.8145H31.4766Z" fill="#9999FF"/>
<path d="M31.4766 21.8145H35.959V48.709H31.4766V21.8145Z" fill="#6680FF"/>
<path d="M44.9238 15.8379H40.4414V48.709H44.9238H49.4062V15.8379H44.9238Z" fill="#9999FF"/>
<path d="M44.9238 15.8379H49.4062V48.709H44.9238V15.8379Z" fill="#6680FF"/>
<path d="M48.0116 2.29102V4.70226C45.1085 2.12945 40.7771 1.6076 37.2691 3.55645C34.4705 5.11335 32.7971 7.89912 32.553 10.902C32.2098 10.7251 31.8362 10.6341 31.4764 10.5015C29.0267 9.59926 26.2635 9.67107 23.8218 11.0272C21.0235 12.5839 19.3505 15.3689 19.1059 18.3713C16.4269 16.991 13.1765 16.9417 10.3745 18.4979C6.35896 20.7318 4.5891 25.4842 6.16641 29.7987L8.9738 28.7715C7.9028 25.8459 9.10369 22.6242 11.8264 21.1096C14.552 19.5979 17.9226 20.2838 19.8399 22.735L22.4211 21.3008C21.3501 18.3752 22.551 15.1535 25.2737 13.6389C27.2739 12.5308 29.6124 12.6126 31.4765 13.6962C32.1553 14.0908 32.7751 14.6092 33.2873 15.2643L35.8684 13.8301C34.7974 10.9045 35.9983 7.68277 38.721 6.16821C41.0628 4.86701 43.9746 5.20041 45.9377 6.87295H43.5292V9.86123H50.9999V2.29102H48.0116Z" fill="#FF6C6C"/>
<path d="M33.2873 15.2644L35.8685 13.8302C34.7975 10.9046 35.9984 7.68287 38.7211 6.16831C41.0629 4.86711 43.9747 5.20051 45.9378 6.87305H43.5293V9.86133H51V2.29102H48.0117V4.70226C45.1086 2.12945 40.7772 1.6076 37.2692 3.55645C34.4706 5.11335 32.7972 7.89912 32.5531 10.902C32.2099 10.7251 31.8363 10.6341 31.4764 10.5015V13.6963C32.1554 14.0909 32.7751 14.6093 33.2873 15.2644V15.2644Z" fill="#E63950"/>
</svg>
