<svg width="55" height="55" viewBox="0 0 55 55" fill="none" xmlns="http://www.w3.org/2000/svg">
<path d="M44.4219 27.5L54.2188 17.7031L37.2969 0.78125L10.5781 27.5" fill="#78B75B"/>
<path d="M18.5938 27.5001C18.5938 25.221 19.463 22.9419 21.2024 21.2025C24.6803 17.7246 30.3197 17.7246 33.7976 21.2025C35.537 22.9419 36.4062 25.221 36.4062 27.5001" fill="#669E4F"/>
<path d="M33.5803 28.7593C33.5803 27.8081 33.2098 26.9131 32.5365 26.2397C31.1917 24.894 28.844 24.894 27.5 26.2397L24.9804 23.7202C25.676 23.0264 26.8044 23.0273 27.5 23.7211L28.7585 22.4608C27.3709 21.0732 25.1105 21.0723 23.7211 22.4608L23.0914 21.8312L21.8312 23.0914L22.4617 23.722C21.7884 24.3944 21.4188 25.2886 21.4188 26.2406C21.4179 27.1918 21.7893 28.0869 22.4626 28.7602C23.1351 29.4326 24.0301 29.8031 24.9813 29.8031C25.9325 29.8031 26.8267 29.4326 27.4991 28.7602L30.0187 31.2798C29.3231 31.9736 28.1947 31.9727 27.4991 31.2789L26.2407 32.5391C26.9345 33.2329 27.8474 33.5803 28.7594 33.5803C29.6714 33.5803 30.5834 33.2329 31.2781 32.5391L31.9077 33.1688L33.168 31.9086L32.5374 31.278C33.2098 30.6047 33.5803 29.7105 33.5803 28.7593ZM26.2389 27.5C25.5674 28.1724 24.3926 28.1724 23.7211 27.5C23.3844 27.1633 23.1983 26.7162 23.1992 26.2406C23.1992 25.765 23.3844 25.318 23.7202 24.9813L26.2389 27.5ZM28.7594 27.4991C29.4309 26.8267 30.6056 26.8267 31.2772 27.4991C31.6138 27.8357 31.7991 28.2828 31.7991 28.7584C31.7991 29.234 31.6138 29.6811 31.2781 30.0178L28.7594 27.4991Z" fill="#78B75B"/>
<path d="M41.9477 25.6475L40.6875 24.3873L47.6148 17.46L37.5382 7.38433L30.6109 14.3116L29.3507 13.0514L36.9077 5.49442C37.2559 5.14708 37.8197 5.14619 38.1679 5.49442L49.5047 16.8303C49.6721 16.9977 49.7647 17.224 49.7647 17.46C49.7647 17.6969 49.6721 17.9231 49.5047 18.0905L41.9477 25.6475Z" fill="#669E4F"/>
<path d="M38.1897 21.8544L39.449 20.5933L40.7102 21.8526L39.4508 23.1138L38.1897 21.8544Z" fill="#96CC7F"/>
<path d="M40.6829 19.3599L41.9424 18.1004L43.2026 19.3606L41.943 20.6201L40.6829 19.3599Z" fill="#96CC7F"/>
<path d="M31.8914 15.5702L33.1525 14.3108L34.4112 15.5713L33.1501 16.8307L31.8914 15.5702Z" fill="#96CC7F"/>
<path d="M34.3867 13.0605L35.6463 11.801L36.9064 13.0612L35.6469 14.3207L34.3867 13.0605Z" fill="#96CC7F"/>
<path d="M0.78125 27.5H54.2188V50.6562H0.78125V27.5Z" fill="#96CC7F"/>
<path d="M27.5 47.9844C32.4188 47.9844 36.4062 43.9969 36.4062 39.0781C36.4062 34.1593 32.4188 30.1719 27.5 30.1719C22.5812 30.1719 18.5938 34.1593 18.5938 39.0781C18.5938 43.9969 22.5812 47.9844 27.5 47.9844Z" fill="#78B75B"/>
<path d="M14.1406 50.6562L17.7031 54.2188L21.2656 50.6562" fill="#78B75B"/>
<path d="M28.3907 38.1875H28.3889V34.625H28.3907C29.3721 34.625 30.1701 35.4239 30.1701 36.4063H31.9514C31.9514 34.4415 30.3536 32.8438 28.3907 32.8438H28.3889V31.9531H26.6085V32.8438C24.6438 32.8438 23.046 34.4415 23.046 36.4063C23.046 38.3701 24.6438 39.9679 26.6085 39.9679V43.5304C25.6253 43.5304 24.8273 42.7315 24.8273 41.7491L23.046 41.75C23.046 43.7138 24.6438 45.3116 26.6085 45.3116V46.2022H28.3889V45.3116H28.3907C30.3536 45.3116 31.9514 43.7138 31.9514 41.7491C31.9514 39.7844 30.3536 38.1875 28.3907 38.1875ZM24.8273 36.4063C24.8273 35.4239 25.6253 34.625 26.6085 34.625V38.1875C25.6262 38.1875 24.8273 37.3877 24.8273 36.4063ZM28.3907 43.5304H28.3889V39.9679H28.3907C29.3721 39.9679 30.1701 40.7668 30.1701 41.75C30.1701 42.7315 29.3721 43.5304 28.3907 43.5304Z" fill="#669E4F"/>
<path d="M50.6545 47.9835H39.9679V46.2022H49.7639V31.9531H39.9679V30.1719H50.6545C51.147 30.1719 51.5451 30.57 51.5451 31.0625V47.0938C51.5451 47.5854 51.147 47.9835 50.6545 47.9835Z" fill="#669E4F"/>
<path d="M15.0304 47.9844H4.34375C3.85123 47.9844 3.45312 47.5854 3.45312 47.0938V31.0625C3.45312 30.57 3.85123 30.1719 4.34286 30.1719H15.0304L15.0312 31.9531H5.23438V46.2031H15.0304V47.9844Z" fill="#669E4F"/>
<path d="M39.9679 42.6406H41.7483V44.4219H39.9679V42.6406Z" fill="#78B75B"/>
<path d="M43.5304 42.6406H45.3108V44.4219H43.5304V42.6406Z" fill="#78B75B"/>
<path d="M39.9679 33.7344H41.7483V35.5156H39.9679V33.7344Z" fill="#78B75B"/>
<path d="M43.5304 33.7344H45.3108V35.5156H43.5304V33.7344Z" fill="#78B75B"/>
<path d="M9.6875 33.7344H11.4679V35.5156H9.6875V33.7344Z" fill="#78B75B"/>
<path d="M13.25 33.7344H15.0304V35.5156H13.25V33.7344Z" fill="#78B75B"/>
<path d="M9.6875 42.6406H11.4679V44.4219H9.6875V42.6406Z" fill="#78B75B"/>
<path d="M13.25 42.6406H15.0304V44.4219H13.25V42.6406Z" fill="#78B75B"/>
</svg>
