<svg width="70" height="70" viewBox="0 0 70 70" fill="none" xmlns="http://www.w3.org/2000/svg">
<rect width="70" height="70" rx="35" fill="#00B2FF"/>
<g clip-path="url(#clip0)">
<path d="M49.1364 42.4894L44.8004 38.1515C44.2181 37.5722 43.4383 37.253 42.6051 37.253C41.738 37.253 40.9193 37.5944 40.3002 38.2138L38.6124 39.9013C37.3008 39.1723 35.5576 38.1696 33.7478 36.3598C31.9401 34.5515 30.9373 32.8134 30.2046 31.4948L31.8941 29.8066C33.1501 28.5479 33.1758 26.5286 31.9515 25.3054L27.6164 20.9701C27.0357 20.3878 26.2559 20.0671 25.4206 20.0671C24.5728 20.0671 23.7709 20.3935 23.1554 20.9876C22.7831 21.2875 20.9147 22.9368 20.2183 26.3383C19.2434 31.0994 21.4835 35.6802 27.9504 42.1497C35.1744 49.3715 41.3416 49.9329 43.0597 49.9329C43.4174 49.9329 43.6332 49.9108 43.6908 49.9041C47.0599 49.5092 48.2662 48.0129 49.1469 46.9204C50.2882 45.5045 50.2843 43.6415 49.1364 42.4894ZM47.6976 45.752C46.8697 46.7788 46.0879 47.7486 43.4742 48.055C43.4728 48.0551 43.3299 48.0711 43.0597 48.0711C41.5225 48.0711 35.9847 47.5492 29.2667 40.8333C23.3031 34.8672 21.2099 30.7758 22.0421 26.7116C22.6494 23.7448 24.2619 22.4837 24.3246 22.4358L24.3802 22.3947L24.429 22.3458C24.6982 22.0769 25.0503 21.9287 25.4205 21.9287C25.7575 21.9287 26.0693 22.0551 26.2991 22.2856L30.6353 26.6219C31.1342 27.1203 31.1076 27.959 30.5768 28.4909L28.6662 30.3999L28.6348 30.4328C28.1369 30.9812 28.1955 31.7224 28.4697 32.205C29.2612 33.6332 30.3452 35.5892 32.4312 37.6758C34.5102 39.7548 36.4634 40.838 37.8876 41.628C38.0302 41.708 38.3246 41.8423 38.693 41.8423C39.1282 41.8423 39.5277 41.6581 39.8234 41.3224L41.6165 39.5298C41.8842 39.262 42.2351 39.1145 42.6049 39.1145C42.9427 39.1145 43.256 39.2412 43.4854 39.4693L47.8185 43.8043C48.3689 44.3567 48.1417 45.2012 47.6976 45.752Z" fill="white"/>
<path d="M38.1749 24.628C39.7742 24.8121 41.6574 25.7808 42.9724 27.096C44.2997 28.4233 45.2709 30.3256 45.4462 31.9423C45.498 32.4192 45.9013 32.7727 46.3704 32.7727C46.4039 32.7727 46.438 32.7708 46.472 32.7672C46.983 32.7118 47.3524 32.2526 47.2969 31.7415C47.0751 29.6979 45.9224 27.4134 44.2888 25.7797C42.6705 24.1613 40.4094 23.0114 38.3877 22.7787C37.8773 22.7195 37.4155 23.0864 37.3567 23.597C37.2978 24.1075 37.6641 24.5692 38.1749 24.628Z" fill="white"/>
<path d="M37.3054 28.5274C38.1704 28.627 39.3675 29.2686 40.1517 30.0529C40.9426 30.8439 41.5855 32.0525 41.6802 32.9268C41.732 33.4038 42.1353 33.7573 42.6044 33.7573C42.6379 33.7573 42.6718 33.7554 42.7058 33.7518C43.2169 33.6964 43.5863 33.2372 43.5309 32.7261C43.369 31.2334 42.378 29.6467 41.4679 28.7365C40.5659 27.8344 38.9947 26.8481 37.5182 26.6779C37.007 26.6185 36.5458 26.9855 36.487 27.496C36.4283 28.0067 36.7947 28.4685 37.3054 28.5274Z" fill="white"/>
</g>
<defs>
<clipPath id="clip0">
<rect width="30" height="30" fill="white" transform="translate(20 20)"/>
</clipPath>
</defs>
</svg>
