<svg width="58" height="58" viewBox="0 0 58 58" fill="none" xmlns="http://www.w3.org/2000/svg">
<path d="M29 57.1504C44.547 57.1504 57.1504 44.547 57.1504 29C57.1504 13.453 44.547 0.849609 29 0.849609C13.453 0.849609 0.849609 13.453 0.849609 29C0.849609 44.547 13.453 57.1504 29 57.1504Z" fill="#EAB14D"/>
<path d="M29 0.849609C28.4975 0.849609 27.9981 0.863316 27.5021 0.889371C42.3528 1.66807 54.1547 13.9555 54.1547 29C54.1547 44.0445 42.3528 56.332 27.5022 57.1106C27.9982 57.1367 28.4975 57.1504 29.0001 57.1504C44.5472 57.1504 57.1505 44.5471 57.1505 29C57.1505 13.4529 44.5471 0.849609 29 0.849609V0.849609Z" fill="#E49542"/>
<path d="M29 50.9361C41.115 50.9361 50.9361 41.1149 50.9361 29C50.9361 16.885 41.115 7.06384 29 7.06384C16.885 7.06384 7.0639 16.885 7.0639 29C7.0639 41.1149 16.885 50.9361 29 50.9361Z" fill="#F4FBFF"/>
<path d="M29 7.06384C28.3925 7.06384 27.7911 7.08967 27.1961 7.13816C38.4671 8.05573 47.3283 17.4925 47.3283 29C47.3283 40.5074 38.4671 49.9442 27.1961 50.8618C27.7912 50.9103 28.3926 50.9361 29 50.9361C41.115 50.9361 50.9361 41.1149 50.9361 29C50.9361 16.885 41.115 7.06384 29 7.06384V7.06384Z" fill="#DAF1F4"/>
<path d="M29 31.2677C30.2524 31.2677 31.2676 30.2524 31.2676 29C31.2676 27.7476 30.2524 26.7324 29 26.7324C27.7476 26.7324 26.7323 27.7476 26.7323 29C26.7323 30.2524 27.7476 31.2677 29 31.2677Z" fill="#365E7D"/>
<path d="M29 13.8154C29.4692 13.8154 29.8496 13.435 29.8496 12.9658V11.7188C29.8496 11.2496 29.4692 10.8692 29 10.8692C28.5308 10.8692 28.1504 11.2496 28.1504 11.7188V12.9658C28.1504 13.435 28.5308 13.8154 29 13.8154Z" fill="black"/>
<path d="M41.7744 16.1987C41.4426 15.8669 40.9046 15.8668 40.5729 16.1987L39.6912 17.0804C39.3592 17.4122 39.3592 17.9502 39.691 18.282C39.857 18.4478 40.0744 18.5308 40.2919 18.5308C40.5093 18.5308 40.7268 18.4479 40.8926 18.2821L41.7744 17.4003C42.1061 17.0685 42.1061 16.5305 41.7744 16.1987Z" fill="black"/>
<path d="M44.9418 28.1506C44.4725 28.1506 44.0922 28.531 44.0922 29.0002C44.0922 29.4694 44.4725 29.8498 44.9418 29.8498H46.1888C46.6582 29.8498 47.0384 29.4695 47.0384 29.0002C47.0384 28.5309 46.6582 28.1506 46.1888 28.1506H44.9418Z" fill="black"/>
<path d="M40.8271 39.691C40.4952 39.3593 39.9574 39.3593 39.6256 39.691C39.2938 40.0229 39.2938 40.5608 39.6256 40.8926L40.5072 41.7743C40.6732 41.9401 40.8907 42.023 41.1081 42.023C41.3255 42.023 41.543 41.9401 41.7089 41.7743C42.0407 41.4424 42.0407 40.9045 41.7089 40.5727L40.8271 39.691Z" fill="black"/>
<path d="M28.0579 44.942V46.189C28.0579 46.6583 28.4383 47.0386 28.9075 47.0386C29.3767 47.0386 29.7571 46.6583 29.7571 46.189V44.942C29.7571 44.4726 29.3768 44.0923 28.9075 44.0923C28.4381 44.0923 28.0579 44.4726 28.0579 44.942Z" fill="black"/>
<path d="M17.015 39.6255L16.1332 40.5072C15.8014 40.839 15.8014 41.377 16.1332 41.7087C16.299 41.8746 16.5165 41.9575 16.7339 41.9575C16.9513 41.9575 17.1688 41.8746 17.3347 41.7088L18.2164 40.8271C18.5482 40.4953 18.5482 39.9573 18.2164 39.6257C17.8847 39.2939 17.3468 39.294 17.015 39.6255Z" fill="black"/>
<path d="M11.7187 28.0579C11.2495 28.0579 10.8691 28.4383 10.8691 28.9075C10.8691 29.3769 11.2495 29.7571 11.7187 29.7571H12.9657C13.4349 29.7571 13.8153 29.3769 13.8153 28.9075C13.8153 28.4383 13.4349 28.0579 12.9657 28.0579H11.7187Z" fill="black"/>
<path d="M18.282 17.015L17.4002 16.1333C17.0683 15.8015 16.5306 15.8016 16.1986 16.1333C15.8668 16.4651 15.8669 17.003 16.1986 17.3348L17.0804 18.2165C17.2464 18.3825 17.4638 18.4654 17.6812 18.4654C17.8985 18.4654 18.116 18.3825 18.282 18.2165C18.6138 17.8847 18.6137 17.3468 18.282 17.015Z" fill="black"/>
<path d="M31.2767 31.126L37.3284 34.2379C37.7482 34.4538 38.2591 34.2857 38.4726 33.8708C38.6872 33.4535 38.5227 32.9414 38.1055 32.7267L32.0559 29.6159C32.096 29.4166 32.1173 29.2107 32.1173 28.9999C32.1173 27.5756 31.1567 26.3722 29.8497 26.0013V17.3413C29.8497 16.8721 29.4693 16.4917 29.0001 16.4917C28.5309 16.4917 28.1505 16.8721 28.1505 17.3413V26.0013C27.1137 26.2955 26.2957 27.1135 26.0015 28.1503H21.7844C21.3152 28.1503 20.9348 28.5307 20.9348 28.9999C20.9348 29.4691 21.3152 29.8495 21.7844 29.8495H26.0015C26.3724 31.1565 27.5758 32.1171 29.0001 32.1171C29.8977 32.1173 30.7075 31.7354 31.2767 31.126V31.126ZM29 30.418C28.2181 30.418 27.5819 29.782 27.5819 29C27.5819 28.2181 28.218 27.5819 29 27.5819C29.7819 27.5819 30.4179 28.218 30.4179 29C30.418 29.782 29.7819 30.418 29 30.418Z" fill="black"/>
<path d="M50.9361 28.1488C51.404 28.113 51.7543 27.7047 51.7185 27.2367C51.2813 21.5282 48.7242 16.229 44.5181 12.3152C40.29 8.38096 34.779 6.21423 29 6.21423C16.436 6.21423 6.21429 16.4358 6.21429 29C6.21429 41.5641 16.436 51.7857 29 51.7857C40.8828 51.7857 50.8094 42.6319 51.7184 30.7634C51.754 30.2956 51.404 29.8873 50.936 29.8514C50.4701 29.8164 50.0599 30.1657 50.024 30.6337C49.1849 41.5923 40.0192 50.0865 29 50.0865C17.3728 50.0865 7.91351 40.6272 7.91351 29C7.91351 17.3728 17.3728 7.91345 29 7.91345C34.3478 7.91345 39.4478 9.91853 43.3606 13.5593C47.2531 17.1813 49.6197 22.0848 50.024 27.3666C50.0599 27.8342 50.4666 28.1854 50.9361 28.1488V28.1488Z" fill="black"/>
<path d="M49.5061 8.49394C44.0288 3.01645 36.7463 0 29 0C23.433 0 18.0249 1.58186 13.3603 4.57475C12.9654 4.82816 12.8506 5.35367 13.104 5.74868C13.3574 6.14347 13.8828 6.25822 14.2779 6.00493C18.6682 3.18807 23.759 1.69922 29 1.69922C36.2923 1.69922 43.1481 4.53895 48.3046 9.6954C53.461 14.8519 56.3008 21.7076 56.3008 29C56.3008 44.0883 44.0904 56.3008 29 56.3008C26.3035 56.3008 23.6367 55.907 21.0735 55.1307C20.6243 54.9945 20.15 55.2483 20.0141 55.6976C19.878 56.1466 20.1318 56.6208 20.5808 56.757C23.304 57.5818 26.1366 58 29 58C45.0275 58 58 45.0296 58 29C58 21.2538 54.9834 13.9713 49.5061 8.49394Z" fill="black"/>
<path d="M17.9841 53.9852C8.09145 49.6169 1.69922 39.8096 1.69922 29C1.69922 20.8315 5.31414 13.1584 11.617 7.94788C11.9786 7.64893 12.0294 7.11345 11.7304 6.75174C11.4316 6.39026 10.8961 6.3394 10.5342 6.63823C3.83967 12.1726 0 20.3231 0 29C0 40.4821 6.78974 50.8996 17.2976 55.5397C17.4092 55.589 17.5257 55.6123 17.6404 55.6123C17.9666 55.6123 18.2777 55.4234 18.4181 55.1056C18.6076 54.6764 18.4133 54.1748 17.9841 53.9852V53.9852Z" fill="black"/>
</svg>
