<svg width="56" height="56" viewBox="0 0 56 56" fill="none" xmlns="http://www.w3.org/2000/svg">
<path d="M25.3978 36.8878L28.286 38.7902C29.9662 39.8969 32.0298 40.2577 33.9858 39.7867L49.1054 54.9063L54.9057 39.5754L45.552 30.2217C45.552 28.4877 45.3425 26.7753 44.9372 25.1184L25.3978 36.8878Z" fill="#FFBF9E"/>
<path d="M47.448 18.8978C46.4235 17.8733 44.7626 17.8733 43.7382 18.8978C44.7626 17.8733 44.7626 16.2124 43.7382 15.188C42.7137 14.1636 41.0528 14.1636 40.0284 15.188C41.0529 14.1636 41.0529 12.5026 40.0284 11.4782C39.004 10.4537 37.343 10.4537 36.3186 11.4782C37.343 10.4537 37.343 8.79274 36.3186 7.76835C35.2941 6.74396 33.6331 6.74396 32.6088 7.76835L28.0651 12.312L14.1938 28.2471L1.12042 41.3204L6.30535 54.8505L23.2148 37.941C24.1651 36.9908 25.454 36.4569 26.7979 36.4569C31.1523 36.4569 35.3285 34.727 38.4077 31.6479L47.448 22.6076C48.4725 21.5832 48.4725 19.9222 47.448 18.8978V18.8978Z" fill="#FFD4BE"/>
<path d="M10.2319 32.2091L19.5894 41.5666L23.2149 37.9411C23.3276 37.8283 23.4456 37.7218 23.5675 37.6208L14.1938 28.2471L10.2319 32.2091Z" fill="#91DEF5"/>
<path d="M35.83 41.6384L46.3939 31.0744L50.3553 35.0358L39.7913 45.5998L35.83 41.6384Z" fill="#F6838D"/>
<path d="M17.9037 24.5372L13.9648 20.5984C12.9403 19.5739 12.9403 17.9129 13.9648 16.8885C14.9893 15.8641 16.6503 15.8641 17.6747 16.8885L21.6135 20.8274C22.638 21.8519 22.638 23.5128 21.6135 24.5372C20.589 25.5617 18.9281 25.5617 17.9037 24.5372V24.5372Z" fill="#FFBF9E"/>
<path d="M21.6135 20.8274L17.6747 16.8886C16.6502 15.8641 16.6502 14.2032 17.6747 13.1788C18.6992 12.1543 20.3601 12.1543 21.3845 13.1788L25.3233 17.1176C26.3478 18.1421 26.3478 19.803 25.3233 20.8274C24.299 21.8518 22.6379 21.8518 21.6135 20.8274Z" fill="#FFBF9E"/>
<path d="M25.3233 17.1176L21.3845 13.1788C20.36 12.1543 20.36 10.4933 21.3845 9.46893C22.409 8.44444 24.0699 8.44444 25.0943 9.46893L29.0331 13.4078C30.0576 14.4323 30.0576 16.0932 29.0331 17.1176C28.0087 18.142 26.3478 18.142 25.3233 17.1176V17.1176Z" fill="#FFBF9E"/>
<path d="M14.1938 28.247L11.8723 25.9255C10.8478 24.901 10.8478 23.24 11.8723 22.2156C12.8967 21.1911 14.5577 21.1911 15.5821 22.2156L17.9036 24.5372C18.9281 25.5617 18.9281 27.2226 17.9036 28.247C16.8792 29.2715 15.2183 29.2715 14.1938 28.247Z" fill="#FFBF9E"/>
<path d="M47.5761 30.6991C47.5715 28.826 47.1301 26.9852 46.2885 25.3141L48.2215 23.381C49.6707 21.9318 49.6707 19.5736 48.2215 18.1243C47.4987 17.4015 46.5498 17.0394 45.6002 17.0376C45.5989 16.0467 45.2125 15.1154 44.5117 14.4145C43.7884 13.6913 42.8388 13.3291 41.8886 13.3278C41.8873 12.3777 41.5251 11.428 40.8018 10.7047C40.1014 10.0044 39.1706 9.61797 38.1805 9.61622C38.1786 8.62607 37.7923 7.69531 37.092 6.99489C36.3899 6.29282 35.4564 5.90619 34.4636 5.90619C33.4709 5.90619 32.5374 6.29282 31.8354 6.99489L28.0012 10.8291L25.8678 8.69552C25.1657 7.99346 24.2324 7.60683 23.2395 7.60683C22.2466 7.60683 21.3132 7.99346 20.6112 8.69552C19.9104 9.39638 19.5241 10.3277 19.5227 11.3186C18.5732 11.3204 17.6242 11.6825 16.9013 12.4053C16.2009 13.1058 15.8146 14.0364 15.8127 15.0267C14.8226 15.0285 13.8918 15.4148 13.1914 16.1153C11.9946 17.312 11.7873 19.1282 12.567 20.5409C12.03 20.7165 11.525 21.0163 11.0989 21.4424C9.64967 22.8917 9.64967 25.2498 11.0989 26.6991L12.647 28.2472L0.347181 40.5471C-0.0799198 40.9742 -0.0799198 41.6667 0.347181 42.0939C0.560786 42.3074 0.840672 42.4143 1.12056 42.4143C1.40044 42.4143 1.68044 42.3074 1.89393 42.0939L10.2319 33.756L18.0425 41.5666L5.532 54.0771C5.1049 54.5042 5.1049 55.1968 5.532 55.624C5.74561 55.8375 6.02549 55.9444 6.30538 55.9444C6.58526 55.9444 6.86526 55.8375 7.07875 55.624L23.9882 38.7145C24.2997 38.403 24.6543 38.1506 25.038 37.9607L27.6844 39.7038C29.4347 40.8566 31.5687 41.307 33.6261 40.9738L48.332 55.6798C48.5456 55.8933 48.8255 56.0001 49.1054 56.0001C49.3853 56.0001 49.6653 55.8933 49.8788 55.6798C50.3059 55.2527 50.3059 54.5601 49.8788 54.1329L41.3461 45.6003L42.3776 44.5688C42.8047 44.1417 42.8047 43.4492 42.3776 43.022C41.9505 42.595 41.258 42.595 40.8308 43.022L39.7993 44.0535L37.3842 41.6384L46.4029 32.6196L48.8181 35.0348L47.7889 36.064C47.3618 36.4912 47.3618 37.1836 47.7889 37.6109C48.0025 37.8243 48.2824 37.9312 48.5622 37.9312C48.8421 37.9312 49.1221 37.8243 49.3356 37.6109L50.3648 36.5817L54.1322 40.349C54.3458 40.5625 54.6257 40.6694 54.9055 40.6694C55.1854 40.6694 55.4654 40.5625 55.6789 40.349C56.106 39.9219 56.106 39.2293 55.6789 38.8021L47.5761 30.6991ZM33.3822 8.54164C33.671 8.25278 34.0551 8.09365 34.4636 8.09365C34.8721 8.09365 35.2563 8.25278 35.5451 8.54164C35.8341 8.83049 35.9931 9.21461 35.9931 9.62311C35.9931 10.0317 35.834 10.4158 35.5451 10.7047L33.1417 13.1082C32.7146 13.5353 32.7146 14.2278 33.1417 14.655C33.5688 15.0822 34.2613 15.0821 34.6885 14.655L37.092 12.2516C37.3808 11.9626 37.765 11.8036 38.1736 11.8036C38.5821 11.8036 38.9662 11.9627 39.255 12.2516C39.8515 12.848 39.8515 13.8182 39.255 14.4146L35.5849 18.0847C35.1578 18.5118 35.1578 19.2044 35.5849 19.6316C35.7985 19.8452 36.0784 19.952 36.3583 19.952C36.6382 19.952 36.9182 19.8452 37.1317 19.6316L40.8018 15.9615C41.0907 15.6725 41.4748 15.5135 41.8833 15.5135C42.2919 15.5135 42.676 15.6726 42.9649 15.9615C43.2537 16.2503 43.4129 16.6345 43.4129 17.043C43.4129 17.4515 43.2537 17.8356 42.9649 18.1244L39.2948 21.7946C38.8677 22.2217 38.8677 22.9142 39.2948 23.3414C39.5084 23.555 39.7882 23.6618 40.0681 23.6618C40.348 23.6618 40.628 23.555 40.8415 23.3414L44.5115 19.6713C45.1078 19.0749 46.0783 19.075 46.6746 19.6713C47.271 20.2677 47.271 21.2381 46.6746 21.8344L37.6343 30.8747C34.7398 33.7692 30.8914 35.3633 26.7978 35.3633C25.6893 35.3633 24.626 35.6553 23.6939 36.2007L17.3633 29.8701C17.8504 29.6861 18.2976 29.3999 18.6769 29.0206C19.3777 28.3197 19.764 27.3884 19.7655 26.3975C20.7149 26.3958 21.664 26.0335 22.3868 25.3107C23.1096 24.5878 23.4718 23.6389 23.4735 22.6893C24.4644 22.688 25.3959 22.3016 26.0966 21.6007C26.8195 20.8779 27.1816 19.929 27.1833 18.9794C28.1743 18.9781 29.1056 18.5917 29.8063 17.8909C30.5084 17.1889 30.895 16.2555 30.895 15.2626C30.895 14.2697 30.5084 13.3363 29.8063 12.6343L29.5477 12.3756L33.3822 8.54164ZM22.158 10.2423C22.4468 9.95342 22.831 9.79428 23.2395 9.79428C23.648 9.79428 24.0321 9.95342 24.3209 10.2423L28.2599 14.1811C28.5488 14.47 28.7079 14.8541 28.7079 15.2626C28.7079 15.6711 28.5488 16.0552 28.2599 16.3442C27.9711 16.633 27.5869 16.7922 27.1784 16.7922C26.77 16.7922 26.3861 16.6331 26.0973 16.3445C26.0972 16.3444 26.0971 16.3443 26.0969 16.3441L22.158 12.4052C21.8691 12.1164 21.71 11.7323 21.71 11.3238C21.71 10.9152 21.869 10.5312 22.158 10.2423V10.2423ZM18.4481 13.9521C18.7463 13.6538 19.1379 13.5049 19.5297 13.5049C19.9213 13.5049 20.3131 13.6539 20.6111 13.9521L24.55 17.8909C25.1464 18.4873 25.1463 19.4577 24.55 20.0541C24.2611 20.343 23.877 20.5021 23.4685 20.5021C23.0601 20.5021 22.6762 20.3431 22.3873 20.0544C22.3872 20.0543 22.3871 20.0542 22.387 20.054L18.4482 16.1152C18.1592 15.8263 18.0002 15.4422 18.0002 15.0336C18.0001 14.6251 18.1592 14.2411 18.4481 13.9521V13.9521ZM14.7382 17.662C15.0271 17.3731 15.4112 17.214 15.8197 17.214C16.2283 17.214 16.6125 17.3732 16.9013 17.662L20.8402 21.6009C21.4366 22.1973 21.4366 23.1676 20.8402 23.7639C20.2437 24.3602 19.2734 24.3603 18.677 23.7639L14.7381 19.8251C14.1418 19.2288 14.1418 18.2583 14.7382 17.662V17.662ZM12.6456 22.9891C12.9439 22.6909 13.3355 22.5419 13.7272 22.5419C14.1183 22.5419 14.5097 22.6908 14.8076 22.9881L17.1302 25.3108C17.4191 25.5996 17.5782 25.9838 17.5782 26.3923C17.5782 26.8008 17.4191 27.1849 17.1302 27.4738C16.8414 27.7628 16.4573 27.9218 16.0486 27.9218C15.6405 27.9218 15.2566 27.7629 14.9677 27.4744L14.9672 27.4738L12.6456 25.1523C12.0493 24.5558 12.0493 23.5854 12.6456 22.9891V22.9891ZM11.7787 32.2091L14.1939 29.794L22.0046 37.6046L19.5895 40.0198L11.7787 32.2091ZM34.7593 39.0133C34.4899 38.7441 34.0999 38.6337 33.7298 38.7235C32.0744 39.1219 30.3096 38.8135 28.8877 37.877L28.2953 37.4867C32.4083 37.1407 36.2291 35.3736 39.1812 32.4214L44.6396 26.9632C45.1091 28.0979 45.3624 29.3108 45.3857 30.5436L35.8377 40.0918L34.7593 39.0133Z" fill="black"/>
<path d="M44.3086 39.5443C44.1052 39.7477 43.9882 40.0288 43.9882 40.3176C43.9882 40.6052 44.1052 40.8874 44.3086 41.0907C44.5121 41.2942 44.7943 41.4113 45.0819 41.4113C45.3707 41.4113 45.6518 41.2943 45.8552 41.0907C46.0586 40.8874 46.1757 40.6052 46.1757 40.3176C46.1757 40.0287 46.0586 39.7477 45.8552 39.5443C45.6518 39.3408 45.3696 39.2238 45.0819 39.2238C44.7943 39.2238 44.5121 39.3408 44.3086 39.5443Z" fill="black"/>
<path d="M7.3896 8.93576C7.60321 9.14937 7.88309 9.25612 8.16298 9.25612C8.44286 9.25612 8.72286 9.14937 8.93635 8.93576C9.36346 8.50866 9.36346 7.81611 8.93635 7.3889L3.78806 2.24061C3.36096 1.81351 2.66841 1.81351 2.2412 2.24061C1.81399 2.66771 1.8141 3.36026 2.2412 3.78747L7.3896 8.93576Z" fill="black"/>
<path d="M13.344 5.96257C13.9481 5.96257 14.4378 5.47291 14.4378 4.86884V1.09373C14.4378 0.489662 13.9481 0 13.344 0C12.74 0 12.2503 0.489662 12.2503 1.09373V4.86884C12.2503 5.47291 12.74 5.96257 13.344 5.96257Z" fill="black"/>
<path d="M1.09428 14.4372H4.86939C5.47346 14.4372 5.96312 13.9476 5.96312 13.3435C5.96312 12.7394 5.47346 12.2498 4.86939 12.2498H1.09428C0.490212 12.2498 0.000549316 12.7394 0.000549316 13.3435C0.000549316 13.9476 0.490212 14.4372 1.09428 14.4372V14.4372Z" fill="black"/>
<path d="M47.837 9.25616C48.1169 9.25616 48.3969 9.14941 48.6104 8.9358L53.7587 3.78752C54.1858 3.36041 54.1858 2.66787 53.7587 2.24065C53.3316 1.81344 52.6391 1.81355 52.2119 2.24065L47.0636 7.38894C46.6364 7.81605 46.6364 8.50859 47.0636 8.9358C47.2773 9.14941 47.5572 9.25616 47.837 9.25616Z" fill="black"/>
<path d="M42.656 5.96257C43.2601 5.96257 43.7497 5.47291 43.7497 4.86884V1.09373C43.7497 0.489662 43.2601 0 42.656 0C42.0519 0 41.5623 0.489662 41.5623 1.09373V4.86884C41.5623 5.47291 42.0519 5.96257 42.656 5.96257Z" fill="black"/>
<path d="M50.037 13.3435C50.037 13.9476 50.5266 14.4372 51.1307 14.4372H54.9058C55.5099 14.4372 55.9996 13.9476 55.9996 13.3435C55.9996 12.7394 55.5099 12.2498 54.9058 12.2498H51.1307C50.5266 12.2498 50.037 12.7394 50.037 13.3435V13.3435Z" fill="black"/>
</svg>
