<svg width="175" height="213" viewBox="0 0 175 213" fill="none" xmlns="http://www.w3.org/2000/svg">
<path d="M57.7923 212.519C26.1631 212.337 0 147.771 0 114.889C0 61.1764 40.2935 49.4173 55.8224 49.4173C62.8206 49.4173 70.2932 52.1655 76.8842 54.5975C81.4932 56.2939 86.2599 58.0451 88.911 58.0451C90.4978 58.0451 94.2373 56.5554 97.5388 55.2483C104.58 52.4453 113.341 48.9615 123.544 48.9615C123.562 48.9615 123.586 48.9615 123.604 48.9615C131.223 48.9615 154.322 50.6335 168.209 71.4886L171.462 76.3769L166.78 79.9096C160.092 84.9561 147.889 94.1617 147.889 112.396C147.889 133.993 161.709 142.299 168.349 146.294C171.28 148.057 174.313 149.875 174.313 153.851C174.313 156.448 153.592 212.197 123.501 212.197C116.138 212.197 110.933 209.984 106.343 208.032C101.697 206.056 97.6903 204.354 91.069 204.354C87.7127 204.354 83.4685 205.941 78.9753 207.625C72.8351 209.917 65.8851 212.519 57.999 212.519H57.7923Z" fill="white"/>
<path d="M126.731 0C127.515 28.2567 107.307 47.86 87.1226 46.6305C83.7966 24.0807 107.304 0 126.731 0Z" fill="white"/>
</svg>
