<svg width="768" height="213" viewBox="0 0 768 213" fill="none" xmlns="http://www.w3.org/2000/svg">
<path d="M57.7923 212.519C26.1631 212.337 0 147.771 0 114.889C0 61.1764 40.2935 49.4173 55.8224 49.4173C62.8206 49.4173 70.2932 52.1655 76.8842 54.5975C81.4932 56.2939 86.2599 58.0451 88.911 58.0451C90.4978 58.0451 94.2373 56.5554 97.5388 55.2483C104.58 52.4453 113.341 48.9615 123.544 48.9615C123.562 48.9615 123.586 48.9615 123.604 48.9615C131.223 48.9615 154.322 50.6335 168.209 71.4886L171.462 76.3769L166.78 79.9096C160.092 84.9561 147.889 94.1617 147.889 112.396C147.889 133.993 161.709 142.299 168.349 146.294C171.28 148.057 174.313 149.875 174.313 153.851C174.313 156.448 153.592 212.197 123.501 212.197C116.138 212.197 110.933 209.984 106.343 208.032C101.697 206.056 97.6903 204.354 91.069 204.354C87.7127 204.354 83.4685 205.941 78.9753 207.625C72.8351 209.917 65.8851 212.519 57.999 212.519H57.7923Z" fill="white"/>
<path d="M126.731 0C127.515 28.2567 107.307 47.86 87.1226 46.6305C83.7966 24.0807 107.304 0 126.731 0Z" fill="white"/>
<path d="M260.262 86.3359C259.746 91.7969 257.73 96.0625 254.215 99.1328C250.699 102.18 246.023 103.703 240.188 103.703C236.109 103.703 232.512 102.742 229.395 100.82C226.301 98.875 223.91 96.1211 222.223 92.5586C220.535 88.9961 219.656 84.8594 219.586 80.1484V75.3672C219.586 70.5391 220.441 66.2852 222.152 62.6055C223.863 58.9258 226.312 56.0898 229.5 54.0977C232.711 52.1055 236.414 51.1094 240.609 51.1094C246.258 51.1094 250.805 52.6445 254.25 55.7148C257.695 58.7852 259.699 63.1211 260.262 68.7227H251.402C250.98 65.043 249.902 62.3945 248.168 60.7773C246.457 59.1367 243.938 58.3164 240.609 58.3164C236.742 58.3164 233.766 59.7344 231.68 62.5703C229.617 65.3828 228.562 69.5195 228.516 74.9805V79.5156C228.516 85.0469 229.5 89.2656 231.469 92.1719C233.461 95.0781 236.367 96.5312 240.188 96.5312C243.68 96.5312 246.305 95.7461 248.062 94.1758C249.82 92.6055 250.934 89.9922 251.402 86.3359H260.262ZM284.168 103.703C278.754 103.703 274.359 102.004 270.984 98.6055C267.633 95.1836 265.957 90.6367 265.957 84.9648V83.9102C265.957 80.1133 266.684 76.7266 268.137 73.75C269.613 70.75 271.676 68.418 274.324 66.7539C276.973 65.0898 279.926 64.2578 283.184 64.2578C288.363 64.2578 292.359 65.9102 295.172 69.2148C298.008 72.5195 299.426 77.1953 299.426 83.2422V86.6875H274.57C274.828 89.8281 275.871 92.3125 277.699 94.1406C279.551 95.9688 281.871 96.8828 284.66 96.8828C288.574 96.8828 291.762 95.3008 294.223 92.1367L298.828 96.5312C297.305 98.8047 295.266 100.574 292.711 101.84C290.18 103.082 287.332 103.703 284.168 103.703ZM283.148 71.1133C280.805 71.1133 278.906 71.9336 277.453 73.5742C276.023 75.2148 275.109 77.5 274.711 80.4297H290.988V79.7969C290.801 76.9375 290.039 74.7812 288.703 73.3281C287.367 71.8516 285.516 71.1133 283.148 71.1133ZM335.602 71.7461H323.262V103H314.719V71.7461H302.52V64.9609H335.602V71.7461ZM350.508 77.0547H358.875C361.992 77.0547 364.711 77.5938 367.031 78.6719C369.352 79.75 371.109 81.2617 372.305 83.207C373.523 85.1523 374.133 87.4141 374.133 89.9922C374.133 93.9062 372.75 97.0469 369.984 99.4141C367.219 101.781 363.539 102.977 358.945 103H341.965V64.9609H350.508V77.0547ZM350.508 83.9102V96.1797H358.84C360.926 96.1797 362.566 95.6641 363.762 94.6328C364.98 93.5781 365.59 92.0898 365.59 90.168C365.59 88.2461 364.992 86.7344 363.797 85.6328C362.625 84.5078 361.031 83.9336 359.016 83.9102H350.508ZM414.527 96.8828C416.66 96.8828 418.43 96.2617 419.836 95.0195C421.242 93.7773 421.992 92.2422 422.086 90.4141H430.137C430.043 92.7812 429.305 94.9961 427.922 97.0586C426.539 99.0977 424.664 100.715 422.297 101.91C419.93 103.105 417.375 103.703 414.633 103.703C409.312 103.703 405.094 101.98 401.977 98.5352C398.859 95.0898 397.301 90.332 397.301 84.2617V83.3828C397.301 77.5938 398.848 72.9648 401.941 69.4961C405.035 66.0039 409.254 64.2578 414.598 64.2578C419.121 64.2578 422.801 65.582 425.637 68.2305C428.496 70.8555 429.996 74.3125 430.137 78.6016H422.086C421.992 76.4219 421.242 74.6289 419.836 73.2227C418.453 71.8164 416.684 71.1133 414.527 71.1133C411.762 71.1133 409.629 72.1211 408.129 74.1367C406.629 76.1289 405.867 79.1641 405.844 83.2422V84.6133C405.844 88.7383 406.582 91.8203 408.059 93.8594C409.559 95.875 411.715 96.8828 414.527 96.8828ZM453.34 103.703C447.926 103.703 443.531 102.004 440.156 98.6055C436.805 95.1836 435.129 90.6367 435.129 84.9648V83.9102C435.129 80.1133 435.855 76.7266 437.309 73.75C438.785 70.75 440.848 68.418 443.496 66.7539C446.145 65.0898 449.098 64.2578 452.355 64.2578C457.535 64.2578 461.531 65.9102 464.344 69.2148C467.18 72.5195 468.598 77.1953 468.598 83.2422V86.6875H443.742C444 89.8281 445.043 92.3125 446.871 94.1406C448.723 95.9688 451.043 96.8828 453.832 96.8828C457.746 96.8828 460.934 95.3008 463.395 92.1367L468 96.5312C466.477 98.8047 464.438 100.574 461.883 101.84C459.352 103.082 456.504 103.703 453.34 103.703ZM452.32 71.1133C449.977 71.1133 448.078 71.9336 446.625 73.5742C445.195 75.2148 444.281 77.5 443.883 80.4297H460.16V79.7969C459.973 76.9375 459.211 74.7812 457.875 73.3281C456.539 71.8516 454.688 71.1133 452.32 71.1133ZM508.57 84.3672C508.57 90.25 507.234 94.9492 504.562 98.4648C501.891 101.957 498.305 103.703 493.805 103.703C489.633 103.703 486.293 102.332 483.785 99.5898V117.625H475.242V64.9609H483.117L483.469 68.8281C485.977 65.7812 489.387 64.2578 493.699 64.2578C498.34 64.2578 501.973 65.9922 504.598 69.4609C507.246 72.9062 508.57 77.6992 508.57 83.8398V84.3672ZM500.062 83.6289C500.062 79.832 499.301 76.8203 497.777 74.5938C496.277 72.3672 494.121 71.2539 491.309 71.2539C487.816 71.2539 485.309 72.6953 483.785 75.5781V92.4531C485.332 95.4062 487.863 96.8828 491.379 96.8828C494.098 96.8828 496.219 95.793 497.742 93.6133C499.289 91.4102 500.062 88.082 500.062 83.6289ZM516.48 103V64.9609H531.914C537.117 64.9609 541.078 65.875 543.797 67.7031C546.516 69.5078 547.875 72.1094 547.875 75.5078C547.875 77.2656 547.324 78.8477 546.223 80.2539C545.145 81.6367 543.539 82.7031 541.406 83.4531C543.891 83.9688 545.859 85.0117 547.312 86.582C548.766 88.1523 549.492 90.0039 549.492 92.1367C549.492 95.6758 548.18 98.3711 545.555 100.223C542.953 102.074 539.203 103 534.305 103H516.48ZM525.023 86.793V96.25H534.375C538.758 96.25 540.949 94.6797 540.949 91.5391C540.949 88.375 538.723 86.793 534.27 86.793H525.023ZM525.023 80.6758H532.055C536.906 80.6758 539.332 79.2461 539.332 76.3867C539.332 73.3867 537.035 71.8398 532.441 71.7461H525.023V80.6758ZM580.641 64.9609H589.148V103H580.641V77.6172L565.734 103H557.227V64.9609H565.734V90.3438L580.641 64.9609ZM613.863 96.8828C615.996 96.8828 617.766 96.2617 619.172 95.0195C620.578 93.7773 621.328 92.2422 621.422 90.4141H629.473C629.379 92.7812 628.641 94.9961 627.258 97.0586C625.875 99.0977 624 100.715 621.633 101.91C619.266 103.105 616.711 103.703 613.969 103.703C608.648 103.703 604.43 101.98 601.312 98.5352C598.195 95.0898 596.637 90.332 596.637 84.2617V83.3828C596.637 77.5938 598.184 72.9648 601.277 69.4961C604.371 66.0039 608.59 64.2578 613.934 64.2578C618.457 64.2578 622.137 65.582 624.973 68.2305C627.832 70.8555 629.332 74.3125 629.473 78.6016H621.422C621.328 76.4219 620.578 74.6289 619.172 73.2227C617.789 71.8164 616.02 71.1133 613.863 71.1133C611.098 71.1133 608.965 72.1211 607.465 74.1367C605.965 76.1289 605.203 79.1641 605.18 83.2422V84.6133C605.18 88.7383 605.918 91.8203 607.395 93.8594C608.895 95.875 611.051 96.8828 613.863 96.8828ZM668.145 103H659.602V87.6367H644.801V103H636.258V64.9609H644.801V80.8164H659.602V64.9609H668.145V103ZM686.461 77.0547H694.828C697.945 77.0547 700.664 77.5938 702.984 78.6719C705.305 79.75 707.062 81.2617 708.258 83.207C709.477 85.1523 710.086 87.4141 710.086 89.9922C710.086 93.9062 708.703 97.0469 705.938 99.4141C703.172 101.781 699.492 102.977 694.898 103H677.918V64.9609H686.461V77.0547ZM724.957 103H716.414V64.9609H724.957V103ZM686.461 83.9102V96.1797H694.793C696.879 96.1797 698.52 95.6641 699.715 94.6328C700.934 93.5781 701.543 92.0898 701.543 90.168C701.543 88.2461 700.945 86.7344 699.75 85.6328C698.578 84.5078 696.984 83.9336 694.969 83.9102H686.461ZM748.863 77.4766L756.105 64.9609H765.598L753.961 83.6992L765.984 103H756.562L748.969 89.9922L741.41 103H731.918L743.941 83.6992L732.34 64.9609H741.762L748.863 77.4766ZM220.711 148.961H229.254V180.18H244.09V148.961H252.633V180.18H257.801L257.098 198.285H249.328V187H220.711V148.961ZM280.582 187.703C275.168 187.703 270.773 186.004 267.398 182.605C264.047 179.184 262.371 174.637 262.371 168.965V167.91C262.371 164.113 263.098 160.727 264.551 157.75C266.027 154.75 268.09 152.418 270.738 150.754C273.387 149.09 276.34 148.258 279.598 148.258C284.777 148.258 288.773 149.91 291.586 153.215C294.422 156.52 295.84 161.195 295.84 167.242V170.688H270.984C271.242 173.828 272.285 176.312 274.113 178.141C275.965 179.969 278.285 180.883 281.074 180.883C284.988 180.883 288.176 179.301 290.637 176.137L295.242 180.531C293.719 182.805 291.68 184.574 289.125 185.84C286.594 187.082 283.746 187.703 280.582 187.703ZM279.562 155.113C277.219 155.113 275.32 155.934 273.867 157.574C272.438 159.215 271.523 161.5 271.125 164.43H287.402V163.797C287.215 160.938 286.453 158.781 285.117 157.328C283.781 155.852 281.93 155.113 279.562 155.113ZM334.723 187H326.18V171.637H311.379V187H302.836V148.961H311.379V164.816H326.18V148.961H334.723V187ZM373.781 155.746H361.441V187H352.898V155.746H340.699V148.961H373.781V155.746ZM412.805 168.367C412.805 174.25 411.469 178.949 408.797 182.465C406.125 185.957 402.539 187.703 398.039 187.703C393.867 187.703 390.527 186.332 388.02 183.59V201.625H379.477V148.961H387.352L387.703 152.828C390.211 149.781 393.621 148.258 397.934 148.258C402.574 148.258 406.207 149.992 408.832 153.461C411.48 156.906 412.805 161.699 412.805 167.84V168.367ZM404.297 167.629C404.297 163.832 403.535 160.82 402.012 158.594C400.512 156.367 398.355 155.254 395.543 155.254C392.051 155.254 389.543 156.695 388.02 159.578V176.453C389.566 179.406 392.098 180.883 395.613 180.883C398.332 180.883 400.453 179.793 401.977 177.613C403.523 175.41 404.297 172.082 404.297 167.629ZM418.465 167.629C418.465 163.902 419.203 160.551 420.68 157.574C422.156 154.574 424.23 152.277 426.902 150.684C429.574 149.066 432.645 148.258 436.113 148.258C441.246 148.258 445.406 149.91 448.594 153.215C451.805 156.52 453.539 160.902 453.797 166.363L453.832 168.367C453.832 172.117 453.105 175.469 451.652 178.422C450.223 181.375 448.16 183.66 445.465 185.277C442.793 186.895 439.699 187.703 436.184 187.703C430.816 187.703 426.516 185.922 423.281 182.359C420.07 178.773 418.465 174.004 418.465 168.051V167.629ZM427.008 168.367C427.008 172.281 427.816 175.352 429.434 177.578C431.051 179.781 433.301 180.883 436.184 180.883C439.066 180.883 441.305 179.758 442.898 177.508C444.516 175.258 445.324 171.965 445.324 167.629C445.324 163.785 444.492 160.738 442.828 158.488C441.188 156.238 438.949 155.113 436.113 155.113C433.324 155.113 431.109 156.227 429.469 158.453C427.828 160.656 427.008 163.961 427.008 168.367ZM461.707 187V148.961H477.141C482.344 148.961 486.305 149.875 489.023 151.703C491.742 153.508 493.102 156.109 493.102 159.508C493.102 161.266 492.551 162.848 491.449 164.254C490.371 165.637 488.766 166.703 486.633 167.453C489.117 167.969 491.086 169.012 492.539 170.582C493.992 172.152 494.719 174.004 494.719 176.137C494.719 179.676 493.406 182.371 490.781 184.223C488.18 186.074 484.43 187 479.531 187H461.707ZM470.25 170.793V180.25H479.602C483.984 180.25 486.176 178.68 486.176 175.539C486.176 172.375 483.949 170.793 479.496 170.793H470.25ZM470.25 164.676H477.281C482.133 164.676 484.559 163.246 484.559 160.387C484.559 157.387 482.262 155.84 477.668 155.746H470.25V164.676ZM549.527 175.082H529.699L525.551 187H516.305L535.641 135.812H543.621L562.992 187H553.711L549.527 175.082ZM532.195 167.91H547.031L539.613 146.676L532.195 167.91ZM599.625 168.367C599.625 174.25 598.289 178.949 595.617 182.465C592.945 185.957 589.359 187.703 584.859 187.703C580.688 187.703 577.348 186.332 574.84 183.59V201.625H566.297V148.961H574.172L574.523 152.828C577.031 149.781 580.441 148.258 584.754 148.258C589.395 148.258 593.027 149.992 595.652 153.461C598.301 156.906 599.625 161.699 599.625 167.84V168.367ZM591.117 167.629C591.117 163.832 590.355 160.82 588.832 158.594C587.332 156.367 585.176 155.254 582.363 155.254C578.871 155.254 576.363 156.695 574.84 159.578V176.453C576.387 179.406 578.918 180.883 582.434 180.883C585.152 180.883 587.273 179.793 588.797 177.613C590.344 175.41 591.117 172.082 591.117 167.629ZM640.195 168.367C640.195 174.25 638.859 178.949 636.188 182.465C633.516 185.957 629.93 187.703 625.43 187.703C621.258 187.703 617.918 186.332 615.41 183.59V201.625H606.867V148.961H614.742L615.094 152.828C617.602 149.781 621.012 148.258 625.324 148.258C629.965 148.258 633.598 149.992 636.223 153.461C638.871 156.906 640.195 161.699 640.195 167.84V168.367ZM631.688 167.629C631.688 163.832 630.926 160.82 629.402 158.594C627.902 156.367 625.746 155.254 622.934 155.254C619.441 155.254 616.934 156.695 615.41 159.578V176.453C616.957 179.406 619.488 180.883 623.004 180.883C625.723 180.883 627.844 179.793 629.367 177.613C630.914 175.41 631.688 172.082 631.688 167.629ZM656.543 187H648V133H656.543V187ZM682.629 187.703C677.215 187.703 672.82 186.004 669.445 182.605C666.094 179.184 664.418 174.637 664.418 168.965V167.91C664.418 164.113 665.145 160.727 666.598 157.75C668.074 154.75 670.137 152.418 672.785 150.754C675.434 149.09 678.387 148.258 681.645 148.258C686.824 148.258 690.82 149.91 693.633 153.215C696.469 156.52 697.887 161.195 697.887 167.242V170.688H673.031C673.289 173.828 674.332 176.312 676.16 178.141C678.012 179.969 680.332 180.883 683.121 180.883C687.035 180.883 690.223 179.301 692.684 176.137L697.289 180.531C695.766 182.805 693.727 184.574 691.172 185.84C688.641 187.082 685.793 187.703 682.629 187.703ZM681.609 155.113C679.266 155.113 677.367 155.934 675.914 157.574C674.484 159.215 673.57 161.5 673.172 164.43H689.449V163.797C689.262 160.938 688.5 158.781 687.164 157.328C685.828 155.852 683.977 155.113 681.609 155.113Z" fill="white"/>
</svg>
