<svg width="48" height="48" viewBox="0 0 48 48" fill="none" xmlns="http://www.w3.org/2000/svg">
<path d="M35.6151 39.7145H38.9772C39.2464 39.7145 39.4647 39.5046 39.4647 39.2458V34.3807H35.6151V39.7145Z" fill="#01D0FB"/>
<path d="M38.9772 0.703552H8.83756C8.56838 0.703552 8.3501 0.913456 8.3501 1.1723V4.66097H31.3583C31.6275 4.66097 31.8458 4.87088 31.8458 5.12972V8.28568H35.1277C35.3969 8.28568 35.6152 8.49559 35.6152 8.75443V13.4715H39.4648V1.1723C39.4647 0.913456 39.2464 0.703552 38.9772 0.703552Z" fill="#01D0FB"/>
<path d="M12.0161 4.66069V1.17226C12.0161 0.913441 12.2344 0.703552 12.5035 0.703552H8.83756C8.56838 0.703552 8.3501 0.913441 8.3501 1.17226V4.66069H12.0161Z" fill="#01C0FA"/>
<path d="M31.7485 34.3807V38.1843C31.7485 38.2844 31.7079 38.3786 31.6342 38.4495L26.4149 43.4685C26.3413 43.5393 26.2433 43.5783 26.1391 43.5783H4.50073V46.8281C4.50073 47.0869 4.71902 47.2968 4.98819 47.2968H35.1278C35.397 47.2968 35.6153 47.0869 35.6153 46.8281V34.3807H31.7485Z" fill="#DBF1D0"/>
<path d="M35.1279 8.28546H31.8459V13.4713H35.6154V8.75421C35.6154 8.49537 35.3972 8.28546 35.1279 8.28546V8.28546Z" fill="#DBF1D0"/>
<path d="M8.19235 46.8281V43.6719H4.50073V46.8281C4.50073 47.0869 4.71902 47.2968 4.98819 47.2968H8.67981C8.41064 47.2968 8.19235 47.0869 8.19235 46.8281Z" fill="#C1E9AF"/>
<path d="M23.5839 34.3807C23.3007 34.3807 23.0711 34.1599 23.0711 33.8876V13.9645C23.0711 13.6921 23.3007 13.4713 23.5839 13.4713H31.8458V5.12957C31.8458 4.87073 31.6275 4.66083 31.3584 4.66083H1.21866C0.949485 4.66083 0.731201 4.87073 0.731201 5.12957V43.2031C0.731201 43.4619 0.949485 43.6718 1.21866 43.6718H26.1389C26.2682 43.6718 26.3922 43.6224 26.4837 43.5346L31.703 38.5157C31.7944 38.4277 31.8457 38.3086 31.8457 38.1842V34.3806H23.5839V34.3807Z" fill="#FFF3DE"/>
<path d="M4.36844 43.2031V5.12957C4.36844 4.87073 4.58672 4.66083 4.8559 4.66083H1.21866C0.949486 4.66083 0.731201 4.87073 0.731201 5.12957V43.2031C0.731201 43.4619 0.949486 43.6718 1.21866 43.6718H4.8559C4.58672 43.6718 4.36844 43.462 4.36844 43.2031Z" fill="#FFE5C2"/>
<path d="M26.6335 38.3784C26.472 38.3784 26.3411 38.5043 26.3411 38.6596V43.6287C26.3935 43.6057 26.4424 43.5748 26.4838 43.5349L31.7031 38.5156C31.7446 38.4757 31.7766 38.4287 31.8006 38.3784H26.6335Z" fill="#01D0FB"/>
<path d="M46.5661 16.6061H23.8102L23.0712 16.7047V33.8876C23.0712 34.16 23.3008 34.3808 23.584 34.3808H46.756C47.0392 34.3808 47.2688 34.16 47.2688 33.8876V16.7047L46.5661 16.6061Z" fill="#DFF6FD"/>
<path d="M26.6521 33.8876V16.7047L27.3911 16.6061H23.8102L23.0712 16.7047V33.8876C23.0712 34.16 23.3008 34.3808 23.584 34.3808H27.1649C26.8817 34.3809 26.6521 34.1601 26.6521 33.8876Z" fill="#C8EFFE"/>
<path d="M46.756 13.4713H23.584C23.3008 13.4713 23.0712 13.6921 23.0712 13.9644V16.7048H47.2689V13.9644C47.2689 13.6921 47.0393 13.4713 46.756 13.4713V13.4713Z" fill="#FB2B3A"/>
<path d="M27.1649 13.4713H23.584C23.3008 13.4713 23.0712 13.6921 23.0712 13.9644V16.7048H26.652V13.9644C26.652 13.6921 26.8816 13.4713 27.1649 13.4713Z" fill="#E41F2D"/>
<path d="M28.0244 21.8179C28.744 21.8179 29.3274 21.2569 29.3274 20.5649C29.3274 19.8729 28.744 19.312 28.0244 19.312C27.3048 19.312 26.7214 19.8729 26.7214 20.5649C26.7214 21.2569 27.3048 21.8179 28.0244 21.8179Z" fill="white"/>
<path d="M28.0244 26.6485C28.744 26.6485 29.3274 26.0874 29.3274 25.3952C29.3274 24.703 28.744 24.1418 28.0244 24.1418C27.3048 24.1418 26.7214 24.703 26.7214 25.3952C26.7214 26.0874 27.3048 26.6485 28.0244 26.6485Z" fill="white"/>
<path d="M28.0244 31.4776C28.744 31.4776 29.3274 30.9167 29.3274 30.2248C29.3274 29.5329 28.744 28.972 28.0244 28.972C27.3048 28.972 26.7214 29.5329 26.7214 30.2248C26.7214 30.9167 27.3048 31.4776 28.0244 31.4776Z" fill="white"/>
<path d="M20.506 10.4008H12.0712C11.6673 10.4008 11.34 10.7157 11.34 11.1042C11.34 11.4926 11.6673 11.8075 12.0712 11.8075H20.506C20.9098 11.8075 21.2372 11.4926 21.2372 11.1042C21.2372 10.7157 20.9098 10.4008 20.506 10.4008Z" fill="black"/>
<path d="M7.91161 36.9848H20.8361C21.2399 36.9848 21.5673 36.6699 21.5673 36.2814C21.5673 35.8929 21.2399 35.5779 20.8361 35.5779H7.91161C7.5078 35.5779 7.18042 35.8929 7.18042 36.2814C7.18042 36.6699 7.5077 36.9848 7.91161 36.9848Z" fill="black"/>
<path d="M47.2688 26.9531C47.6726 26.9531 48 26.6383 48 26.25V13.9644C48 13.3048 47.442 12.7682 46.756 12.7682H40.196V8.15625C40.196 7.76794 39.8686 7.45312 39.4648 7.45312C39.061 7.45312 38.7336 7.76794 38.7336 8.15625V12.7681H36.3464V8.75409C36.3464 8.10787 35.7998 7.58222 35.1277 7.58222H32.577V5.12934C32.577 4.48313 32.0303 3.95747 31.3583 3.95747H9.08138V1.40625H38.7336V4.875C38.7336 5.26331 39.061 5.57812 39.4648 5.57812C39.8686 5.57812 40.196 5.26331 40.196 4.875V1.17188C40.196 0.525656 39.6493 0 38.9773 0H8.83765C8.16564 0 7.619 0.525656 7.619 1.17188V3.95747H1.21865C0.546638 3.95747 0 4.48313 0 5.12934V43.2034C0 43.8496 0.546638 44.3752 1.21865 44.3752H3.76943V46.8281C3.76943 47.4743 4.31607 48 4.98808 48H35.1277C35.7998 48 36.3464 47.4743 36.3464 46.8281V40.4178H38.9773C39.6493 40.4178 40.196 39.8921 40.196 39.2459V35.0839H46.756C47.442 35.0839 48 34.5472 48 33.8876V29.5312C48 29.1429 47.6726 28.8281 47.2688 28.8281C46.865 28.8281 46.5376 29.1429 46.5376 29.5312V33.6777H23.8023V17.4079H46.5376V26.25C46.5376 26.6383 46.865 26.9531 47.2688 26.9531ZM34.884 8.98847V12.7681H32.577V8.98847H34.884ZM38.7336 39.0115H36.3464V35.0839H38.7336V39.0115ZM23.5839 12.7681C22.8979 12.7681 22.3399 13.3047 22.3399 13.9643V15.6944H7.91157C7.50776 15.6944 7.18038 16.0092 7.18038 16.3975C7.18038 16.7858 7.50776 17.1007 7.91157 17.1007H22.3399V19.1429H7.91157C7.50776 19.1429 7.18038 19.4577 7.18038 19.846C7.18038 20.2343 7.50776 20.5492 7.91157 20.5492H22.3399V25.2326H7.91157C7.50776 25.2326 7.18038 25.5474 7.18038 25.9358C7.18038 26.3241 7.50776 26.6389 7.91157 26.6389H22.3399V28.6811H7.91157C7.50776 28.6811 7.18038 28.9959 7.18038 29.3843C7.18038 29.7726 7.50776 30.0874 7.91157 30.0874H22.3399V32.1296H7.91157C7.50776 32.1296 7.18038 32.4444 7.18038 32.8328C7.18038 33.2211 7.50776 33.5359 7.91157 33.5359H22.3399V33.8876C22.3399 34.5472 22.8979 35.0839 23.5839 35.0839H31.1147V37.6754H26.6335C26.069 37.6754 25.6098 38.117 25.6098 38.6598V42.969H13.4709C13.067 42.969 12.7397 43.2838 12.7397 43.6721C12.7397 44.0604 13.067 44.3752 13.4709 44.3752H26.139C26.4645 44.3752 26.7705 44.2534 27.0007 44.032L32.2202 39.0128C32.4503 38.7915 32.5771 38.4972 32.5771 38.1844V35.0839H34.8841V46.5938H5.23181V44.3752H10.0586C10.4625 44.3752 10.7898 44.0604 10.7898 43.6721C10.7898 43.2838 10.4625 42.969 10.0586 42.969H1.46238V5.36372H31.1146V12.7681H23.5839ZM30.0807 39.0817L27.0722 41.9747V39.0817H30.0807ZM23.8023 16.0016V14.1743H46.5376V16.0016H23.8023Z" fill="black"/>
<path d="M28.0244 18.6088C26.9027 18.6088 25.9902 19.4862 25.9902 20.5648C25.9902 21.6434 26.9027 22.5209 28.0244 22.5209C29.146 22.5209 30.0585 21.6434 30.0585 20.5648C30.0585 19.4862 29.146 18.6088 28.0244 18.6088ZM28.0244 21.1147C27.7091 21.1147 27.4526 20.8681 27.4526 20.5649C27.4526 20.2617 27.7091 20.0151 28.0244 20.0151C28.3397 20.0151 28.5962 20.2617 28.5962 20.5649C28.5962 20.8681 28.3397 21.1147 28.0244 21.1147Z" fill="black"/>
<path d="M43.6184 19.8617H31.5972C31.1933 19.8617 30.866 20.1766 30.866 20.565C30.866 20.9535 31.1933 21.2684 31.5972 21.2684H43.6184C44.0222 21.2684 44.3496 20.9535 44.3496 20.565C44.3496 20.1766 44.0222 19.8617 43.6184 19.8617Z" fill="black"/>
<path d="M28.0244 23.4388C26.9027 23.4388 25.9902 24.3163 25.9902 25.3949C25.9902 26.4735 26.9027 27.3509 28.0244 27.3509C29.146 27.3509 30.0585 26.4735 30.0585 25.3949C30.0585 24.3163 29.146 23.4388 28.0244 23.4388V23.4388ZM28.0244 25.9448C27.7091 25.9448 27.4526 25.6982 27.4526 25.395C27.4526 25.0918 27.7091 24.8452 28.0244 24.8452C28.3397 24.8452 28.5962 25.0918 28.5962 25.395C28.5962 25.6982 28.3397 25.9448 28.0244 25.9448Z" fill="black"/>
<path d="M43.6184 24.6917H31.5972C31.1933 24.6917 30.866 25.0067 30.866 25.3952C30.866 25.7836 31.1933 26.0986 31.5972 26.0986H43.6184C44.0222 26.0986 44.3496 25.7836 44.3496 25.3952C44.3496 25.0067 44.0222 24.6917 43.6184 24.6917Z" fill="black"/>
<path d="M28.0244 28.2689C26.9027 28.2689 25.9902 29.1464 25.9902 30.225C25.9902 31.3035 26.9027 32.181 28.0244 32.181C29.146 32.181 30.0585 31.3035 30.0585 30.225C30.0585 29.1464 29.146 28.2689 28.0244 28.2689ZM28.0244 30.7748C27.7091 30.7748 27.4526 30.5281 27.4526 30.225C27.4526 29.9218 27.7091 29.6751 28.0244 29.6751C28.3397 29.6751 28.5962 29.9218 28.5962 30.225C28.5962 30.5281 28.3397 30.7748 28.0244 30.7748Z" fill="black"/>
<path d="M43.6184 29.5218H31.5972C31.1933 29.5218 30.866 29.8367 30.866 30.2251C30.866 30.6136 31.1933 30.9285 31.5972 30.9285H43.6184C44.0222 30.9285 44.3496 30.6136 44.3496 30.2251C44.3496 29.8367 44.0222 29.5218 43.6184 29.5218Z" fill="black"/>
</svg>
