<svg width="70" height="70" viewBox="0 0 70 70" fill="none" xmlns="http://www.w3.org/2000/svg">
<rect width="70" height="70" rx="35" fill="#00B2FF"/>
<path d="M34.5 17C27.3707 17 21.5708 22.7999 21.5708 29.9292C21.5708 32.2762 22.6234 34.8004 22.6675 34.9069C23.0075 35.7138 23.6783 36.9672 24.162 37.7019L33.0268 51.1337C33.3896 51.6844 33.9265 52 34.5 52C35.0734 52 35.6104 51.6844 35.9731 51.1345L44.8387 37.7019C45.3232 36.9672 45.9932 35.7138 46.3332 34.9069C46.3773 34.8012 47.4291 32.2769 47.4291 29.9292C47.4291 22.7999 41.6293 17 34.5 17ZM44.9308 34.3167C44.6273 35.04 44.0029 36.2059 43.5686 36.8645L34.703 50.2971C34.5281 50.5626 34.4726 50.5626 34.2977 50.2971L25.4321 36.8645C24.9978 36.2059 24.3734 35.0392 24.0699 34.3159C24.057 34.2848 23.0919 31.9613 23.0919 29.9292C23.0919 23.6387 28.2095 18.5211 34.5 18.5211C40.7904 18.5211 45.908 23.6387 45.908 29.9292C45.908 31.9644 44.9406 34.2939 44.9308 34.3167Z" fill="white"/>
<path d="M34.5 23.085C30.7255 23.085 27.6552 26.156 27.6552 29.9298C27.6552 33.7036 30.7255 36.7747 34.5 36.7747C38.2746 36.7747 41.3449 33.7036 41.3449 29.9298C41.3449 26.156 38.2746 23.085 34.5 23.085ZM34.5 35.2536C31.5651 35.2536 29.1762 32.8655 29.1762 29.9298C29.1762 26.9941 31.5651 24.606 34.5 24.606C37.4349 24.606 39.8238 26.9941 39.8238 29.9298C39.8238 32.8655 37.4349 35.2536 34.5 35.2536Z" fill="white"/>
</svg>
