<svg width="62" height="62" viewBox="0 0 62 62" fill="none" xmlns="http://www.w3.org/2000/svg">
<path d="M16.4395 30.5144C16.1734 26.771 13.3972 23.7195 9.64453 23.7195C5.89183 23.7195 3.11564 26.771 2.84959 30.5144C2.69108 32.7462 2.84959 36.3387 1.87891 38.28C1.87891 38.28 2.84959 40.2214 6.42949 41.1948L12.8792 41.1921C16.4395 40.2214 17.4101 38.28 17.4101 38.28C16.4395 36.3387 16.598 32.7462 16.4395 30.5144Z" fill="#694B4B"/>
<path d="M8.67384 30.5144C4.93301 28.644 5.70293 24.9793 8.36808 23.8452C5.27631 24.4484 3.08439 27.2101 2.84959 30.5144C2.69108 32.7462 2.84959 36.3386 1.87891 38.28C1.87891 38.28 2.84959 40.2214 6.42949 41.1947L9.49534 41.1935L8.67384 30.5144Z" fill="#5A4146"/>
<path d="M16.771 43.5287L13.6297 41.9581C12.9719 41.6292 12.5565 40.9569 12.5565 40.2215L12.5566 37.3092H6.73245V40.2215C6.73245 40.9568 6.31698 41.629 5.65932 41.9579L2.5179 43.5286C1.53135 44.0219 0.908203 45.0301 0.908203 46.1332V52.8404H18.3808V46.1333C18.3808 45.0304 17.7577 44.022 16.771 43.5287Z" fill="#E6AF78"/>
<path d="M18.3808 46.1334C18.3808 45.0304 17.7575 44.0221 16.771 43.5287L13.6297 41.9581C13.4489 41.8678 13.2915 41.7473 13.151 41.611L12.037 42.851C10.7212 44.3155 8.56799 44.3153 7.25218 42.851L6.138 41.6108C5.99741 41.7472 5.83999 41.8677 5.65944 41.958L2.5179 43.5287C1.53147 44.0219 0.908325 45.0303 0.908325 46.1332V52.8406H18.3809L18.3808 46.1334Z" fill="#D5DCED"/>
<path d="M9.64456 39.2507C7.41994 39.2507 5.48656 38.0034 4.5057 36.17C3.83896 34.9238 4.27369 33.3603 5.42928 32.5464C5.65101 32.3902 5.88012 32.2121 6.10547 32.011C6.79958 31.3916 7.20609 30.7384 7.4352 30.2597C7.63149 29.8497 8.08378 29.6182 8.52432 29.7304C11.9516 30.6037 14.2824 32.3888 15.1224 33.1118C15.3455 33.304 15.474 33.5869 15.4514 33.8805C15.2197 36.885 12.7085 39.2507 9.64456 39.2507Z" fill="#F0C087"/>
<path d="M15.1212 33.1109C14.2807 32.3874 11.9517 30.6047 8.528 29.7313C8.08528 29.6183 7.63105 29.8513 7.43355 30.2633C7.25978 30.6255 6.97267 31.0871 6.54654 31.5581C6.54642 31.5592 6.54618 31.5603 6.54605 31.5614C6.41382 31.7113 6.27299 31.8615 6.10552 32.011C5.88936 32.2038 5.67188 32.3783 5.45682 32.527C4.08688 33.4747 3.88114 35.213 4.72069 36.5334C5.60395 37.9225 7.06288 38.9093 8.76146 39.169C7.59933 38.3784 6.73242 37.3065 6.73242 35.3681V34.6181C6.95293 34.4553 7.17489 34.2929 7.39807 34.0938C7.93754 33.6124 8.4086 33.0556 8.78629 32.4561C11.4009 33.272 13.1735 34.6309 13.8455 35.2088C14.0294 35.3701 14.2873 35.598 14.8215 36.099C15.1641 35.5585 15.4032 34.5061 15.4513 33.8794C15.4739 33.586 15.344 33.3027 15.1212 33.1109Z" fill="#E6AF78"/>
<path d="M1.49999 44.3835C1.12605 44.8797 0.908203 45.4886 0.908203 46.1333V52.8405H4.79107V47.9494C4.79107 47.3597 4.52297 46.8018 4.06245 46.4334L1.49999 44.3835Z" fill="#C7CFE2"/>
<path d="M17.7891 44.3835C18.1631 44.8797 18.3809 45.4886 18.3809 46.1333V52.8405H14.498V47.9494C14.498 47.3597 14.7661 46.8018 15.2267 46.4334L17.7891 44.3835Z" fill="#C7CFE2"/>
<path d="M44.5898 27.6023V28.2836C44.5898 29.1183 44.7244 29.9474 44.9884 30.7392L46.5312 35.3679H49.4433V24.6902H47.5019C45.8937 24.6901 44.5898 25.9939 44.5898 27.6023Z" fill="#5A4146"/>
<path d="M57.9556 29.3574L56.2383 35.368L48.4726 28.573C47.4005 28.573 46.5312 27.7038 46.5312 26.6317C46.5312 25.0233 47.8351 23.7196 49.4433 23.7196H58.1796V27.7574C58.1797 28.2984 58.1043 28.837 57.9556 29.3574Z" fill="#694B4B"/>
<path d="M54.2973 38.2799H48.4727V44.1045H54.2973V38.2799Z" fill="#E6AF78"/>
<path d="M58.9796 41.9728L54.2966 40.6348L51.3847 44.1042L48.4727 40.6348L43.7898 41.9728C42.5397 42.33 41.6777 43.4727 41.6777 44.7728V52.8405H61.0917V44.773C61.0917 43.4727 60.2298 42.33 58.9796 41.9728Z" fill="#D5DCED"/>
<path d="M51.3848 39.2508C48.1682 39.2508 45.5605 36.6431 45.5605 33.4265C45.5605 32.1835 46.0544 30.9913 46.9333 30.1123L47.8893 29.1563C48.262 28.7835 48.7717 28.5692 49.2985 28.5858C52.4015 28.6836 55.1481 29.3484 56.6496 30.8148C57.0171 31.1737 57.2089 31.6759 57.2089 32.1895V33.4264C57.209 36.6431 54.6014 39.2508 51.3848 39.2508Z" fill="#F0C087"/>
<path d="M48.4726 33.4265C48.4726 32.3067 49.413 31.4167 50.5305 31.4879C52.4901 31.6128 55.398 31.9404 57.1819 32.7986C57.1237 32.389 56.9477 31.1061 56.6495 30.8147C55.1481 29.3484 52.4015 28.6836 49.2985 28.5857H49.2983C48.7716 28.5691 48.2619 28.7836 47.8892 29.1562L46.9331 30.1122C46.0541 30.9913 45.5604 32.1833 45.5604 33.4265C45.5604 36.0825 47.3401 38.3189 49.7709 39.0192C48.9618 38.0209 48.4725 36.7539 48.4725 35.3678V33.4265H48.4726Z" fill="#E6AF78"/>
<path d="M57.2089 47.6653C57.2089 46.8929 57.5157 46.1522 58.0618 45.6061L60.5606 43.1073C60.8946 43.5847 61.0917 44.1594 61.0917 44.7728V52.8405H57.2089V47.6653Z" fill="#C7CFE2"/>
<path d="M44.946 42.2041L36.8242 39.2507L31 41.1921L25.1757 39.2507L17.054 42.2041C15.5195 42.7621 14.498 44.2204 14.498 45.8531V52.8405H47.5019V45.8531C47.5019 44.2204 46.4805 42.7621 44.946 42.2041Z" fill="#FF507D"/>
<path d="M46.4572 43.2077C47.1127 43.9113 47.502 44.8482 47.502 45.8532V52.8407H41.6777V49.5955C41.6777 48.5657 42.0868 47.5781 42.8149 46.85L46.4572 43.2077Z" fill="#D23C69"/>
<path d="M41.6776 19.2321V11.1003C41.6776 10.0281 40.8084 9.15894 39.7363 9.15894H28.0878C23.799 9.15894 20.3221 12.6358 20.3221 16.9246V19.2321C20.3221 20.2755 20.4903 21.3119 20.8203 22.3017L21.1434 23.2711C21.2423 23.568 21.2928 23.879 21.2928 24.192V24.6902H40.7069V24.192C40.7069 23.879 40.7574 23.568 40.8564 23.2711L41.1795 22.3017C41.5094 21.312 41.6776 20.2755 41.6776 19.2321Z" fill="#5A4146"/>
<path d="M25.1758 13.1025C25.1758 15.2803 26.9413 17.046 29.1193 17.046H29.6653L29.929 24.6903H40.7071V24.1921C40.7071 23.8791 40.7576 23.5682 40.8566 23.2712L41.1796 22.3018C41.5096 21.312 41.6778 20.2756 41.6778 19.2322V11.1003C41.6778 10.028 40.8086 9.15894 39.7365 9.15894H29.1194C26.9413 9.15894 25.1758 10.9245 25.1758 13.1025Z" fill="#694B4B"/>
<path d="M36.8234 32.4553H25.1754V41.191H36.8234V32.4553Z" fill="#E6AF78"/>
<path d="M25.1758 36.849C26.9193 37.7585 28.8975 38.2801 31 38.2801C33.1026 38.2801 35.0808 37.7585 36.8243 36.849V32.4558H25.1758V36.849Z" fill="#D29B6E"/>
<path d="M31 41.1921L27.9041 44.288C27.488 44.7041 26.8002 44.6572 26.4444 44.1885L23.2344 39.9588L24.074 38.1893C24.3218 37.6672 24.9681 37.4759 25.4602 37.7791L31 41.1921Z" fill="#D23C69"/>
<path d="M31 41.1921L34.0959 44.288C34.512 44.7041 35.1998 44.6572 35.5555 44.1885L38.7656 39.9588L37.926 38.1893C37.6782 37.6672 37.0319 37.4759 36.5398 37.7791L31 41.1921Z" fill="#D23C69"/>
<path d="M31 35.368C25.6389 35.368 21.293 31.022 21.293 25.661V24.6903L22.9084 23.6134C23.7185 23.0733 24.2052 22.164 24.2052 21.1903V17.8954C24.2052 17.8954 31.9709 14.9832 37.795 19.8369C37.795 19.8369 37.795 20.4978 37.795 21.1898C37.795 22.1635 38.2816 23.0732 39.0918 23.6134L40.7071 24.6903V25.661C40.707 31.0219 36.361 35.368 31 35.368Z" fill="#F0C087"/>
<path d="M15.5428 43.2077C14.8874 43.9113 14.498 44.8482 14.498 45.8532V52.8407H20.3223V49.5955C20.3223 48.5657 19.9132 47.5781 19.1851 46.85L15.5428 43.2077Z" fill="#D23C69"/>
<path d="M28.8246 20.2285C30.9354 19.9638 34.6302 19.8118 37.7949 21.1897C37.7949 20.8005 37.7949 19.8367 37.7949 19.8367C31.9707 14.9831 24.205 17.8952 24.205 17.8952V21.1902C24.205 22.1639 23.7185 23.0731 22.9082 23.6133L21.293 24.6902V25.6609C21.293 30.624 25.0201 34.7099 29.8269 35.2902H29.8272C28.1521 33.546 27.1172 31.1822 27.1172 28.573V22.1568C27.1171 21.173 27.8486 20.3509 28.8246 20.2285Z" fill="#E6AF78"/>
<path d="M53.8882 30.3554C54.0186 30.4207 54.1571 30.4515 54.2936 30.4515C54.6267 30.4515 54.9475 30.2674 55.1066 29.9493C55.331 29.5006 55.1491 28.9551 54.7005 28.7307C52.5908 27.676 48.6352 27.6638 48.4679 27.6638C47.9663 27.6638 47.5597 28.0704 47.5597 28.572C47.5597 29.0735 47.9663 29.4802 48.4679 29.4802C49.4886 29.4803 52.4521 29.6375 53.8882 30.3554Z" fill="black"/>
<path d="M59.2284 41.6612L55.4775 40.5895C55.3156 40.5433 55.2025 40.3934 55.2025 40.2249V38.9729C55.5077 38.7615 55.7988 38.5249 56.0709 38.2608C57.3896 36.9811 58.1158 35.2646 58.1158 33.4273V31.6997L58.4785 30.9745C58.8765 30.1783 59.0868 29.2869 59.0868 28.3969V23.7166C59.0868 23.215 58.6802 22.8084 58.1786 22.8084H49.4389C46.261 22.8084 43.6754 25.394 43.6754 28.572V28.6261C43.6754 29.3662 43.8503 30.1074 44.1813 30.7693L44.6464 31.6996V33.183C44.6464 35.5339 45.8049 37.6432 47.5597 38.9125L47.5599 40.2247C47.5599 40.427 47.5599 40.5108 46.81 40.7252L44.9798 41.248L39.6854 39.3229C39.7045 39.0731 39.6202 38.819 39.4379 38.6276L37.7461 36.8502V33.8664C37.925 33.719 38.1013 33.5677 38.2722 33.4076C40.4064 31.4071 41.6305 28.5827 41.6305 25.6587V23.2758C42.2749 21.8734 42.6015 20.3894 42.6015 18.8611V9.15057C42.6015 8.649 42.1949 8.24237 41.6933 8.24237H28.0982C23.3138 8.24237 19.4215 12.1348 19.4215 16.9191V18.8613C19.4215 20.3896 19.7481 21.8737 20.3926 23.276V25.3263C20.3926 28.7213 21.9021 31.7798 24.2769 33.7963V36.8503L22.5851 38.6277C22.4028 38.8191 22.3185 39.0732 22.3376 39.323L16.7497 41.3549C16.3448 41.5021 15.9685 41.7015 15.6269 41.9431L14.7495 41.5044C17.3615 40.3675 18.1889 38.7684 18.2286 38.689C18.3565 38.4333 18.3565 38.1323 18.2286 37.8767C17.5739 36.5672 17.4945 34.167 17.4308 32.2384C17.4096 31.5964 17.3895 30.9898 17.3512 30.4498C17.0415 26.0935 13.7299 22.8084 9.64778 22.8084C5.56571 22.8084 2.25392 26.0934 1.9444 30.4498C1.90602 30.99 1.88591 31.5965 1.86472 32.2387C1.80103 34.1671 1.72159 36.567 1.06696 37.8766C0.939082 38.1322 0.939082 38.4332 1.06696 38.6889C1.10668 38.7683 1.93241 40.3641 4.54961 41.5023L2.11236 42.7209C0.809391 43.3728 0 44.6824 0 46.1391V52.8488C0 53.3504 0.406633 53.757 0.908203 53.757C1.40977 53.757 1.81641 53.3504 1.81641 52.8488V46.1391C1.81641 45.3748 2.24108 44.6876 2.92466 44.3457L5.95963 42.8283L7.01532 43.8316C7.75351 44.5331 8.70046 44.8836 9.64778 44.8836C10.5949 44.8836 11.5423 44.5328 12.2802 43.8316L13.3358 42.8284L14.3254 43.3232C13.8594 44.0688 13.595 44.9431 13.595 45.8589V52.8491C13.595 53.3506 14.0016 53.7573 14.5032 53.7573C15.0047 53.7573 15.4114 53.3506 15.4114 52.8491V45.8589C15.4114 44.6122 16.1986 43.4882 17.3704 43.062L23.2619 40.9198L25.7144 44.5987C26.0279 45.069 26.5303 45.3707 27.0928 45.4264C27.1555 45.4326 27.2179 45.4356 27.2801 45.4356C27.7764 45.4356 28.2517 45.2403 28.6069 44.8851L30.1032 43.3889V52.8492C30.1032 53.3508 30.5098 53.7574 31.0114 53.7574C31.513 53.7574 31.9196 53.3508 31.9196 52.8492V43.3889L33.4158 44.8851C33.771 45.2404 34.2463 45.4357 34.7426 45.4357C34.8048 45.4357 34.8673 45.4327 34.9299 45.4265C35.4925 45.3708 35.9949 45.0692 36.3084 44.5988L38.761 40.92L44.6524 43.0623C45.8241 43.4884 46.6114 44.6124 46.6114 45.8592V52.8493C46.6114 53.3509 47.018 53.7575 47.5196 53.7575C48.0212 53.7575 48.4278 53.3509 48.4278 52.8493V45.8592C48.4278 44.5964 47.9261 43.4121 47.0845 42.5362L47.3089 42.4722C47.5352 42.4075 47.844 42.319 48.154 42.167L50.4728 44.4859V52.8493C50.4728 53.3509 50.8795 53.7575 51.381 53.7575C51.8826 53.7575 52.2893 53.3509 52.2893 52.8493V44.4859L54.592 42.1831C54.7144 42.2454 54.843 42.2979 54.9784 42.3366L58.7294 43.4082C59.5855 43.6528 60.1836 44.4456 60.1836 45.3362V52.8493C60.1836 53.3509 60.5902 53.7575 61.0918 53.7575C61.5934 53.7575 62 53.3509 62 52.8493V45.3362C62 43.6386 60.8603 42.1275 59.2284 41.6612ZM13.4691 40.0601L13.4693 38.9769C14.5258 38.2495 15.3658 37.2263 15.867 36.0163C15.9759 36.7983 16.1366 37.5392 16.3841 38.1861C16.0224 38.6267 15.1663 39.4491 13.4691 40.0601ZM3.75633 30.5786C3.87234 28.9467 4.52443 27.443 5.59247 26.3442C6.67009 25.2355 8.11038 24.6249 9.64802 24.6249C11.1857 24.6249 12.6258 25.2355 13.7036 26.3442C14.7716 27.443 15.4237 28.9467 15.5397 30.5786C15.5756 31.0844 15.5952 31.6741 15.6158 32.2985C15.6176 32.3521 15.6194 32.4065 15.6212 32.4605C14.6331 30.9381 13.1071 29.8162 11.1353 29.1826C9.31368 28.5974 7.74697 28.6336 7.68086 28.6353C7.44303 28.6419 7.21731 28.7415 7.05226 28.9127L5.41362 30.6121C5.06547 30.9732 5.07589 31.5482 5.43699 31.8963C5.79809 32.2445 6.37304 32.234 6.72119 31.873L8.0847 30.459C9.25895 30.5164 13.0367 30.9557 14.5059 34.1909C14.1362 36.5752 12.0871 38.3457 9.64827 38.3457C6.93625 38.3457 4.73004 36.1393 4.73004 33.4274C4.73004 32.9259 4.32341 32.5192 3.82184 32.5192C3.77098 32.5192 3.72133 32.5245 3.67277 32.5326C3.67544 32.4545 3.67798 32.3762 3.68064 32.2989C3.70087 31.6744 3.72036 31.0845 3.75633 30.5786ZM2.9117 38.1858C3.1597 37.5375 3.32051 36.7949 3.42937 36.0111C3.93022 37.212 4.76904 38.2372 5.82643 38.9686V40.0571C4.1276 39.4458 3.27546 38.6308 2.9117 38.1858ZM8.26671 42.5149L7.42208 41.7123C7.56461 41.4453 7.64295 41.1426 7.64295 40.8254V39.8574C8.27652 40.0554 8.95004 40.1622 9.64802 40.1622C10.3452 40.1622 11.0183 40.0549 11.653 39.858L11.6529 40.8253C11.6529 41.1426 11.7311 41.4454 11.8737 41.7126L11.0292 42.5151C10.2546 43.2511 9.0411 43.2509 8.26671 42.5149ZM22.209 25.3262V23.0728C22.209 22.9361 22.1781 22.8011 22.1186 22.678C21.5342 21.4677 21.2379 20.1837 21.2379 18.8613V16.9191C21.2379 13.1363 24.3155 10.0588 28.0982 10.0588H40.7851V18.8613C40.7851 20.1837 40.4888 21.4677 39.9044 22.678C39.8449 22.8011 39.814 22.9361 39.814 23.0728V25.6588C39.814 28.1183 38.8253 30.3996 37.03 32.0825C36.8058 32.2924 36.5732 32.4893 36.3327 32.6728C36.3274 32.6764 36.3223 32.6804 36.3171 32.6842C34.6352 33.9611 32.5752 34.5817 30.4238 34.4423C25.8173 34.1441 22.209 30.1398 22.209 25.3262ZM30.3063 36.2549C30.5457 36.2704 30.7836 36.278 31.0208 36.278C32.7574 36.278 34.4288 35.8629 35.9297 35.0749V36.7339L31.0115 40.0957L26.0933 36.7339V35.0386C27.3659 35.7265 28.7908 36.1568 30.3063 36.2549ZM27.3226 43.6005C27.3163 43.6068 27.3017 43.6217 27.272 43.6186C27.2425 43.6157 27.2308 43.5984 27.2259 43.5908L24.4014 39.354L25.3103 38.399L29.5952 41.3278L27.3226 43.6005ZM34.7971 43.591C34.7922 43.5985 34.7805 43.6158 34.751 43.6187C34.7213 43.6225 34.7068 43.6068 34.7004 43.6007L32.4278 41.3281L36.7127 38.3991L37.6218 39.3541L34.7971 43.591ZM46.4628 33.1832V31.4853C46.4628 31.3443 46.43 31.2053 46.3669 31.0792L45.8059 29.9571C45.6004 29.546 45.4918 29.0859 45.4918 28.6262V28.5721C45.4918 26.3955 47.2625 24.6249 49.4389 24.6249H57.2704V28.397C57.2704 29.0066 57.1263 29.617 56.8538 30.1623L56.3953 31.0792C56.3322 31.2054 56.2994 31.3443 56.2994 31.4853V33.4274C56.2994 34.7692 55.769 36.0227 54.8059 36.9573C53.8434 37.8915 52.5718 38.3848 51.2292 38.3434C48.601 38.2645 46.4628 35.9496 46.4628 33.1832ZM51.1746 40.1589C51.2446 40.1611 51.314 40.1621 51.3837 40.1621C52.073 40.1621 52.7458 40.0579 53.3861 39.8592V40.2249C53.3861 40.4061 53.4089 40.5836 53.4517 40.7542L51.381 42.8248L49.32 40.7639C49.356 40.6006 49.3763 40.4217 49.3762 40.2244L49.3761 39.8412C49.948 40.0289 50.5508 40.1403 51.1746 40.1589Z" fill="black"/>
<path d="M57.2074 46.1143C56.7058 46.1143 56.2992 46.5209 56.2992 47.0225V52.8489C56.2992 53.3505 56.7058 53.7571 57.2074 53.7571C57.709 53.7571 58.1156 53.3505 58.1156 52.8489V47.0225C58.1156 46.5209 57.709 46.1143 57.2074 46.1143Z" fill="black"/>
<path d="M4.79248 47.3147C4.29091 47.3147 3.88428 47.7213 3.88428 48.2229V52.8488C3.88428 53.3504 4.29091 53.757 4.79248 53.757C5.29405 53.757 5.70068 53.3504 5.70068 52.8488V48.2229C5.70068 47.7213 5.29405 47.3147 4.79248 47.3147Z" fill="black"/>
<path d="M25.1222 18.7112C25.1222 18.6803 25.1425 18.6539 25.1697 18.6498C26.3403 18.4733 28.6632 18.2011 31.07 18.3616C33.9021 18.5501 35.9534 19.2611 37.1669 20.4747C37.5216 20.8293 38.0967 20.8293 38.4512 20.4747C38.8059 20.12 38.8059 19.5449 38.4512 19.1903C35.0163 15.7554 27.8295 16.4121 24.8988 16.8538C23.9757 16.993 23.3058 17.7741 23.3058 18.7113V20.8035C23.3058 21.3051 23.7124 21.7117 24.214 21.7117C24.7156 21.7117 25.1222 21.3051 25.1222 20.8035V18.7112Z" fill="black"/>
<path d="M20.3297 48.0564C19.8281 48.0564 19.4215 48.463 19.4215 48.9646V52.8489C19.4215 53.3505 19.8281 53.7571 20.3297 53.7571C20.8313 53.7571 21.2379 53.3505 21.2379 52.8489V48.9646C21.2379 48.463 20.8313 48.0564 20.3297 48.0564Z" fill="black"/>
<path d="M41.6932 48.0564C41.1917 48.0564 40.785 48.463 40.785 48.9646V52.8489C40.785 53.3505 41.1917 53.7571 41.6932 53.7571C42.1948 53.7571 42.6014 53.3505 42.6014 52.8489V48.9646C42.6014 48.463 42.1948 48.0564 41.6932 48.0564Z" fill="black"/>
</svg>
