<?xml version="1.0" encoding="utf-8"?><!DOCTYPE svg PUBLIC "-//W3C//DTD SVG 1.1//EN" "http://www.w3.org/Graphics/SVG/1.1/DTD/svg11.dtd"><svg viewBox="0 0 1197 1143" xmlns="http://www.w3.org/2000/svg" xmlns:xlink="http://www.w3.org/1999/xlink"><style>:root>svg{display:none}:root>svg:target{display:block}</style><svg fill="none" viewBox="0 0 40 40" id="24-hours" xmlns="http://www.w3.org/2000/svg"><g clip-path="url(#aaclip0)" fill="#898989"><path d="M34.145 33.035a.784.784 0 00-1.108.002.781.781 0 001.105 1.105l.005-.005a.778.778 0 00-.002-1.102z"/><path d="M39.96 18.744a19.978 19.978 0 00-5.818-12.878A19.87 19.87 0 0020 .008c-5.092 0-9.894 1.89-13.603 5.338l-.85-.777a.78.78 0 00-1.309.576v5.84c0 .431.35.78.782.78h5.84a.781.781 0 00.568-1.316l-1.375-1.46c5.82-5.26 14.836-5.086 20.444.522 5.788 5.788 5.788 15.206 0 20.994A14.747 14.747 0 0120 34.853a14.747 14.747 0 01-10.497-4.348 14.747 14.747 0 01-4.348-10.497.781.781 0 00-.78-.781H.78a.781.781 0 00-.781.781A19.87 19.87 0 005.858 34.15a19.985 19.985 0 0014.14 5.858c4.312 0 8.518-1.389 11.972-3.974a.781.781 0 00-.937-1.251c-7.28 5.451-17.628 4.704-24.07-1.738A18.304 18.304 0 011.579 20.79H3.61A16.288 16.288 0 008.4 31.61c6.397 6.398 16.805 6.398 23.203 0 6.396-6.397 6.396-16.805 0-23.202-6.398-6.398-16.806-6.398-23.203 0a.781.781 0 00-.017 1.088l.668.708H5.8V6.92l.083.075a.781.781 0 001.08-.024A18.317 18.317 0 0120 1.57c4.925 0 9.555 1.917 13.037 5.4 6.503 6.503 7.206 16.91 1.634 24.208a.781.781 0 101.242.948 19.98 19.98 0 004.047-13.383z"/><path d="M14.171 22.578h-2.364c.103-.094.207-.192.311-.292 1.479-1.424 2.197-2.63 2.197-3.688 0-1.638-1.1-2.739-2.738-2.739a2.742 2.742 0 00-2.74 2.739.781.781 0 001.563 0c0-.648.528-1.176 1.177-1.176 1.176 0 1.176.885 1.176 1.176 0 1.088-2.097 3.067-3.586 4.124a.781.781 0 00.452 1.419h4.552a.781.781 0 000-1.563z"/><path d="M19.899 20.117h-.534v-.221a.781.781 0 00-1.562 0v.221h-1.078l1.758-3.09a.781.781 0 00-1.358-.773l-2.422 4.258a.781.781 0 00.679 1.168h2.421v1.68a.781.781 0 001.563 0v-1.68h.533a.781.781 0 000-1.563zM24.809 15.911a.781.781 0 00-1.01.449l-2.585 6.719a.781.781 0 001.459.56l2.585-6.718a.781.781 0 00-.45-1.01zM31.022 16.195a.781.781 0 00-.641-.335H27.1a.781.781 0 000 1.562h2.157l-2.108 5.665a.781.781 0 001.464.545l2.5-6.719a.781.781 0 00-.09-.718z"/></g><defs><clipPath id="aaclip0"><path fill="#fff" d="M0 0h40v40H0z"/></clipPath></defs></svg><svg viewBox="0 0 430.08 430.08" id="apple-watch-icon" xmlns="http://www.w3.org/2000/svg"><path d="M276.477 75.093h-150.18c-26.351 0-47.79 21.46-47.79 47.84v184.214c0 26.38 21.439 47.84 47.79 47.84h150.18c26.351 0 47.79-21.46 47.79-47.84V122.933c0-26.38-21.439-47.84-47.79-47.84zm34.136 232.054c0 18.854-15.314 34.186-34.137 34.186h-150.18c-18.823 0-34.137-15.333-34.137-34.186V122.933c0-18.854 15.314-34.186 34.137-34.186h150.18c18.823 0 34.137 15.333 34.137 34.186v184.214z"/><path d="M290.024 80.7l-9.992-54.967C277.405 11.3 263.871 0 249.214 0H153.56c-14.653 0-28.191 11.3-30.817 25.733L112.751 80.7a6.822 6.822 0 001.476 5.593 6.819 6.819 0 005.24 2.454h163.84a6.832 6.832 0 006.717-8.047zm-162.377-5.607l8.528-46.92c1.434-7.873 9.393-14.52 17.384-14.52h95.654c7.991 0 15.951 6.654 17.384 14.52l8.53 46.92h-147.48zM288.546 343.788a6.819 6.819 0 00-5.24-2.454h-163.84a6.832 6.832 0 00-6.717 8.047l9.993 54.967c2.627 14.433 16.164 25.733 30.817 25.733h95.654c14.657 0 28.191-11.3 30.817-25.733l9.992-54.967a6.817 6.817 0 00-1.476-5.593zm-21.948 58.118c-1.434 7.868-9.393 14.52-17.384 14.52H153.56c-7.991 0-15.951-6.647-17.384-14.52l-8.53-46.92h147.48l-8.528 46.92zM332.107 143.36H317.44a6.825 6.825 0 00-6.827 6.827v61.44a6.826 6.826 0 006.827 6.827h14.667c10.733 0 19.466-8.733 19.466-19.466v-36.161c0-10.734-8.733-19.467-19.466-19.467zm5.813 55.627a5.817 5.817 0 01-5.813 5.813h-7.84v-47.787h7.84a5.817 5.817 0 015.813 5.813v36.161zM131.12 104.4a6.825 6.825 0 00-9.653 0L104.4 121.467a6.825 6.825 0 004.826 11.653 6.803 6.803 0 004.826-2l17.067-17.067a6.824 6.824 0 00.001-9.653zM158.426 104.4a6.825 6.825 0 00-9.653 0l-37.547 37.547a6.825 6.825 0 004.826 11.653 6.803 6.803 0 004.826-2l37.547-37.547a6.824 6.824 0 00.001-9.653z"/></svg><svg fill="none" viewBox="0 0 27 27" id="battery" xmlns="http://www.w3.org/2000/svg"><g clip-path="url(#acclip0)"><path d="M23.906 17.156v1.125a2.25 2.25 0 01-2.25 2.25H3.094a2.25 2.25 0 01-2.25-2.25V7.594a2.25 2.25 0 012.25-2.25h18.562a2.25 2.25 0 012.25 2.25v1.125h1.125c.621 0 1.125.504 1.125 1.125v6.187c0 .621-.504 1.125-1.125 1.125h-1.125z" fill="#FAFAFA"/><path d="M21.656 21.375H3.094A3.097 3.097 0 010 18.281V7.594A3.097 3.097 0 013.094 4.5h18.562a3.097 3.097 0 013.094 3.094v.281h.271c1.086 0 1.969.883 1.969 1.969v6.187A1.971 1.971 0 0125.02 18h-.271v.281a3.097 3.097 0 01-3.094 3.094zM3.094 6.187c-.775 0-1.406.632-1.406 1.407V18.28c0 .775.63 1.407 1.406 1.407h18.562c.775 0 1.407-.632 1.407-1.407v-1.125c0-.465.378-.843.843-.843h1.115a.281.281 0 00.281-.282V9.844a.281.281 0 00-.28-.281h-1.116a.844.844 0 01-.843-.844V7.594c0-.775-.632-1.407-1.407-1.407H3.094z" fill="#000"/><path d="M11.25 18.843a.84.84 0 01-.696-1.32l2.75-4.023-3.466-.003a.844.844 0 01-.664-1.364l3.742-4.78a.844.844 0 011.329 1.04l-2.674 3.42 3.32.001a.763.763 0 01.482.144h.001l.001.002c.002 0 .003 0 .004.002l.004.002.003.001a.846.846 0 01.216 1.159l-.002.002v.001l-.002.002-3.652 5.343a.835.835 0 01-.696.371z" fill="#000"/></g><defs><clipPath id="acclip0"><path fill="#fff" d="M0 0h27v27H0z"/></clipPath></defs></svg><svg viewBox="0 0 556.292 556.292" id="broken-phone" xmlns="http://www.w3.org/2000/svg"><path d="M169.031 513.834c1.616 19.221 18.571 33.546 37.791 31.92l99.957-8.443c5.26-.44 7.421-3.701 4.82-7.268-2.602-3.567-8.979-6.102-14.239-5.661l-91.685 7.745c-11.695.967-22.022-7.735-23.007-19.44L145.192 68.834c-.995-11.695 7.726-22.022 19.431-23.007l88.683-7.488c5.259-.439 11.274-4.025 13.426-7.994 2.152-3.968-.373-6.828-5.642-6.388L163.456 32.2c-19.221 1.626-33.526 18.58-31.9 37.782l37.475 443.852zM458.201 499.94l11.322-445.288c.487-19.278-14.794-35.353-34.071-35.84l-66.804-1.702c-5.278-.134-11.647 2.764-14.22 6.474-2.572 3.71-.373 6.828 4.905 6.961l75.773 1.941c11.743.277 21.047 10.088 20.741 21.831l-11.322 445.268c-.296 11.753-10.098 21.066-21.831 20.751l-73.469-1.865c-5.278-.134-7.774 2.869-5.584 6.704 2.199 3.834 8.252 7.057 13.53 7.19l65.169 1.664c19.289.48 35.373-14.821 35.861-34.089zM336.337 485.587c-3.586-3.873-5.814-.985-2.812 3.356l1.3 1.894c3.003 4.351 5.461 7.487 5.499 7.009a6.94 6.94 0 00.01-.88l-.144-2.333a14.582 14.582 0 00-3.853-9.046z"/><path d="M298.564 491.869c4.035-.344 6.254-2.065 4.953-3.844-1.3-1.788-4.705-3.031-7.593-2.793l-5.24.44c-8.061.669-14.066 7.784-13.387 15.854l.201 2.333c.679 8.052 7.793 14.066 15.854 13.368l20.12-1.683c5.259-.439 8.473-2.247 7.172-4.035s-6.627-2.878-11.887-2.429l-15.979 1.357c-4.304.354-8.109-2.859-8.473-7.152l-.201-2.334c-.363-4.293 2.85-8.108 7.144-8.462.011-.008 3.281-.285 7.316-.62zM345.574 48.877s-2.257-.058-5.05-.134c-2.792-.077-6.091 1.377-7.382 3.232-1.281 1.855.938 3.442 4.963 3.538l7.296.182a3.41 3.41 0 10.173-6.818zM160.788 92.931l32.905 389.653a3.422 3.422 0 003.691 3.117l79.646-6.722c5.259-.44 11.254-4.725 13.377-9.554l23.916-54.305c2.133-4.829 1.741-12.479-.87-17.069l-44.57-78.451c-2.611-4.59-3.242-12.335-1.425-17.289l28.295-76.873c1.826-4.954 1.492-12.852-.746-17.633l-54.21-116.04c-2.237-4.781-8.31-8.3-13.579-7.86l-63.323 5.346a3.393 3.393 0 00-3.107 3.68zm100.578 227.282l44.438 78.23c2.61 4.59 2.993 12.23.86 17.06l-20.98 47.469c-2.133 4.829-8.128 9.104-13.397 9.553l-62.548 5.278c-5.259.439-9.887-3.462-10.337-8.721l-30.715-363.796c-.44-5.259 3.462-9.888 8.721-10.328l44.781-3.768c5.259-.44 11.36 3.07 13.626 7.841l51.732 109.146c2.267 4.771 2.621 12.661.794 17.614l-28.391 77.151c-1.825 4.935-1.184 12.681 1.416 17.271z"/><path d="M337.551 417.941l-13.77 37.017c-1.836 4.953-2.438 10.519-1.349 12.44 1.1 1.923 6.264 3.586 11.552 3.72l94.248 2.391a3.406 3.406 0 003.509-3.327l9.945-390.925a3.41 3.41 0 00-3.337-3.49l-109.912-2.802c-5.278-.134-10.806.669-12.345 1.788-1.54 1.128-1.76 6.196-.497 11.322l27.377 110.848c1.263 5.125.277 13.062-2.209 17.719l-46.407 86.885c-2.485 4.657-2.543 12.24-.124 16.936l42.276 82.027c2.42 4.686 2.888 12.508 1.043 17.451zM330.169 79.84l95.041 2.429c5.279.134 9.448 4.523 9.314 9.802l-9.285 364.972c-.134 5.278-4.523 9.447-9.802 9.313l-77.896-1.998c-5.278-.135-8.09-4.266-6.272-9.229l13.789-37.638c1.816-4.963 1.329-12.785-1.09-17.48l-42.009-81.501c-2.419-4.695-2.362-12.278.125-16.936l45.957-86.024c2.486-4.657 3.462-12.584 2.18-17.71L322.93 88.867c-1.282-5.116 1.961-9.16 7.239-9.027zM100.793 77.229c.239.039.478.058.717.058a4.563 4.563 0 004.494-3.844c.077-.468 7.822-47.181 39.503-52.068a4.588 4.588 0 003.815-5.211c-.383-2.486-2.697-4.169-5.202-3.806-38.173 5.881-46.761 57.471-47.105 59.67-.401 2.467 1.292 4.81 3.778 5.201zM484.096 497.826c-1.453-1.31-5.029-1.367-6.396.058a4.551 4.551 0 00-1.272 3.252c0 .276.421 29.175-12.498 41.108-4.179 3.845-9.285 5.394-15.539 4.781-2.543-.258-4.733 1.588-4.981 4.093a4.549 4.549 0 004.083 4.982c1.195.114 2.381.191 3.538.191 7.401 0 13.817-2.486 19.115-7.363 15.931-14.735 15.434-46.637 15.405-47.984a4.311 4.311 0 00-1.455-3.118zM85.55 44.784a4.56 4.56 0 00-4.561-4.552H54.788a4.565 4.565 0 00-4.561 4.552 4.555 4.555 0 004.561 4.562h26.211a4.552 4.552 0 004.551-4.562zM89.528 27.38c.564.22 1.147.334 1.721.334 1.798 0 3.5-1.08 4.217-2.84a4.551 4.551 0 00-2.496-5.938L47.396.347a4.535 4.535 0 00-5.948 2.505 4.55 4.55 0 002.496 5.938l45.584 18.59zM512.765 79.056l-29.634-15.835a4.572 4.572 0 00-6.168 1.884c-1.187 2.209-.354 4.973 1.864 6.168l29.625 15.835a4.456 4.456 0 002.142.545c1.626 0 3.203-.88 4.026-2.41a4.569 4.569 0 00-1.855-6.187zM477.871 51.937a4.553 4.553 0 003.117 1.233 4.572 4.572 0 003.338-1.454l29.624-31.748a4.561 4.561 0 00-.22-6.445 4.589 4.589 0 00-6.445.22L477.66 45.511c-1.721 1.836-1.625 4.724.211 6.426zM127.491 262.092l-17.384 29.625c-1.272 2.189-.545 4.973 1.625 6.234a4.499 4.499 0 002.305.631 4.55 4.55 0 003.939-2.256l17.385-29.625c1.272-2.19.545-4.973-1.625-6.235-2.19-1.272-4.973-.564-6.245 1.626zM506.157 510.717c-1.674 7.698-3.596 12.938-5.374 16.505-2.362 4.724-7.603 7.631-8.692 9.161a4.526 4.526 0 00-.813 3.213 4.552 4.552 0 004.523 3.997c.191 0 .383 0 .573-.038 2.057-.259 12.623-2.955 18.705-30.887a4.553 4.553 0 00-3.491-5.432 4.532 4.532 0 00-5.431 3.481z"/></svg><svg fill="none" viewBox="0 0 256 480" id="broken-screen" xmlns="http://www.w3.org/2000/svg"><rect x="4" y="4" width="246" height="471" rx="36" fill="#fff"/><path d="M40 0A40.048 40.048 0 000 40v400a40.046 40.046 0 0040 40h176a40.046 40.046 0 0040-40V40a40.048 40.048 0 00-40-40H40zm48 16h80v16H88V16zm152 424c0 6.365-2.529 12.47-7.029 16.971A24.005 24.005 0 01216 464H40a24.003 24.003 0 01-24-24v-40h224v40zm0-400v308.688l-18.344-18.344a7.999 7.999 0 00-11.312 0L192 348.688l-26.344-26.344-11.312 11.312 32 32a7.999 7.999 0 0011.312 0L216 347.312l24 24V384H16V83.312l18.344 18.344a7.999 7.999 0 0011.312 0L64 83.312l26.344 26.344 11.312-11.312-32-32a8 8 0 00-11.312 0L40 84.688l-24-24V40a24 24 0 0124-24h32v24a8 8 0 008 8h96a8 8 0 008-8V16h32a24.002 24.002 0 0124 24z" fill="#000"/><path d="M128 448c8.837 0 16-7.163 16-16s-7.163-16-16-16-16 7.163-16 16 7.163 16 16 16zM128 120a95.997 95.997 0 00-88.692 59.262 96.002 96.002 0 0069.963 130.893 95.995 95.995 0 0098.55-40.82A95.998 95.998 0 00224 216a96.106 96.106 0 00-96-96zm0 176a80.005 80.005 0 01-73.91-49.385A80 80 0 11208 216a80.087 80.087 0 01-80 80z" fill="#000"/><path d="M85.656 221.656L96 211.312l10.344 10.344 11.312-11.312L107.312 200l10.344-10.344-11.312-11.312L96 188.688l-10.344-10.344-11.312 11.312L84.688 200l-10.344 10.344 11.312 11.312zM170.344 178.344L160 188.688l-10.344-10.344-11.312 11.312L148.688 200l-10.344 10.344 11.312 11.312L160 211.312l10.344 10.344 11.312-11.312L171.312 200l10.344-10.344-11.312-11.312zM128 232c-37.336 0-47.2 28.264-47.592 29.472l15.2 5.056C95.656 266.344 102.064 248 128 248c25.496 0 32.168 17.84 32.408 18.528l15.2-5.056C175.2 260.264 165.336 232 128 232z" fill="#000"/></svg><svg viewBox="0 0 40 40" id="call" xmlns="http://www.w3.org/2000/svg"><g clip-path="url(#afclip0)"><path d="M30.41 26.46c-1.306-1.29-2.938-1.29-4.236 0-.99.983-1.981 1.965-2.955 2.964-.266.275-.491.333-.816.15-.64-.35-1.323-.633-1.94-1.016-2.87-1.806-5.276-4.128-7.407-6.742-1.057-1.298-1.998-2.688-2.655-4.253-.134-.316-.109-.524.15-.783.99-.957 1.956-1.939 2.93-2.921 1.356-1.365 1.356-2.963-.009-4.337-.774-.782-1.548-1.548-2.322-2.33-.8-.8-1.59-1.607-2.397-2.398-1.307-1.273-2.939-1.273-4.237.009-.999.982-1.956 1.99-2.972 2.955-.94.89-1.415 1.98-1.515 3.254-.158 2.073.35 4.029 1.066 5.935 1.465 3.945 3.695 7.45 6.4 10.663 3.655 4.344 8.016 7.782 13.119 10.263 2.297 1.115 4.677 1.972 7.266 2.114 1.781.1 3.33-.35 4.57-1.74.849-.949 1.806-1.815 2.705-2.722 1.332-1.348 1.34-2.98.017-4.311-1.582-1.59-3.172-3.172-4.761-4.753zM28.82 19.827l3.072-.525a13.728 13.728 0 00-3.837-7.407 13.654 13.654 0 00-7.824-3.904l-.433 3.088a10.593 10.593 0 016.06 3.021 10.592 10.592 0 012.963 5.727zM33.623 6.476C30.078 2.93 25.591.69 20.64 0l-.433 3.088c4.278.6 8.157 2.539 11.22 5.594a19.62 19.62 0 015.502 10.612l3.071-.524a22.814 22.814 0 00-6.376-12.294z"/></g><defs><clipPath id="afclip0"><path d="M0 0h40v40H0z"/></clipPath></defs></svg><svg viewBox="0 0 306 306" id="chat" xmlns="http://www.w3.org/2000/svg"><g clip-path="url(#agclip0)"><path d="M44.553 287.711H22.87l15.331-15.332c8.267-8.266 13.429-19.018 14.817-30.681C17.619 218.466 0 184.812 0 149.529c0-65.091 59.825-131.24 153.518-131.24C252.776 18.29 306 79.16 306 143.828c0 65.094-53.786 125.922-152.482 125.922-17.289 0-35.33-2.308-51.437-6.543-15.247 15.639-35.906 24.505-57.528 24.505z"/></g><defs><clipPath id="agclip0"><path d="M0 0h306v306H0z"/></clipPath></defs></svg><svg viewBox="0 0 20 20" id="check" xmlns="http://www.w3.org/2000/svg"><g clip-path="url(#ahclip0)"><path d="M19.127 1.302c-.903-.486-1.91.451-2.5 1.006-1.353 1.32-2.499 2.847-3.783 4.235-1.423 1.528-2.742 3.055-4.2 4.548-.833.833-1.736 1.735-2.291 2.777-1.25-1.216-2.326-2.534-3.714-3.61-1.007-.764-2.673-1.32-2.638.52.069 2.395 2.186 4.964 3.748 6.595.66.695 1.528 1.424 2.534 1.458 1.215.07 2.465-1.388 3.194-2.187 1.284-1.388 2.325-2.95 3.506-4.373 1.527-1.875 3.089-3.714 4.582-5.624.937-1.18 3.887-4.096 1.562-5.345zm-17.6 9.337c-.034 0-.069 0-.138.035a1.688 1.688 0 01-.382-.139c.104-.07.278-.035.52.104z"/></g><defs><clipPath id="ahclip0"><path d="M0 0h20v20H0z"/></clipPath></defs></svg><svg viewBox="0 0 12 12" id="close" xmlns="http://www.w3.org/2000/svg"><path d="M11.498 2.344L7.892 5.95l3.606 3.606a1.373 1.373 0 01-1.942 1.942L5.95 7.892l-3.606 3.606c-.268.268-.62.402-.971.402s-.703-.133-.97-.402a1.373 1.373 0 010-1.942L4.007 5.95.402 2.344A1.373 1.373 0 012.344.402L5.95 4.008 9.556.402a1.373 1.373 0 011.942 1.942z"/></svg><svg fill="none" viewBox="0 0 35 35" id="cup" xmlns="http://www.w3.org/2000/svg"><g clip-path="url(#ajclip0)"><path d="M23.242 31.026l-3.225.231-3.148 3.233H4.743l10.811-8.313 3.183-5.305a1.57 1.57 0 012.484-.277l5.973 4.576c.902.692.958 2.032.116 2.796l-2.51 2.28a3.145 3.145 0 01-1.558.779z" fill="#FED9A8"/><path d="M27.193 25.17l-1.46-1.118a1.82 1.82 0 01-.542 1.796l-2.51 2.28a3.142 3.142 0 01-1.558.779l-3.225.232-5.212 5.35h4.182l3.149-3.232 3.225-.231a3.144 3.144 0 001.558-.78l2.51-2.279a1.823 1.823 0 00-.117-2.796z" fill="#F4C28C"/><path d="M22.648 22.567l.602.648a1.106 1.106 0 01-.933-.343l-.548-.59a.957.957 0 01.879.285z" fill="#E8D06B"/><path d="M30.412 28.115l-3.83 3.22-10.094-13.807 1.987-1.671 11.937 12.258z" fill="#F7BC14"/><path d="M4.336 11.879l3.3 3.922c2.339 2.782 6.025 4.149 9.928 3.682l2.315-.276.67-2.233c1.128-3.766.413-7.632-1.927-10.413l-3.299-3.923-10.987 9.24z" fill="#FED130"/><path d="M18.622 6.56l-3.299-3.922-2.357 1.982 3.479 4.118c2.34 2.782 3.054 6.647 1.926 10.413l-.073.245 1.581-.19.67-2.232c1.128-3.766.413-7.632-1.927-10.414z" fill="#F7BC14"/><path d="M16.362 3.053l-11.795 9.92a.406.406 0 01-.572-.05l-.747-.887a.406.406 0 01.05-.573l11.794-9.92a.406.406 0 01.573.05l.746.887a.406.406 0 01-.05.573z" fill="#FFB125"/><path d="M16.411 2.48l-.746-.887a.406.406 0 00-.573-.05L13.01 3.297l1.27 1.51 2.083-1.753a.407.407 0 00.05-.573z" fill="#FF901D"/><path d="M12.706 10.552l2.11.926a.09.09 0 00.084-.006l1.959-1.215a.09.09 0 01.136.085l-.227 2.294a.09.09 0 00.031.077l1.76 1.488a.09.09 0 01-.038.156l-2.252.493a.09.09 0 00-.064.053l-.87 2.134a.09.09 0 01-.161.012l-1.164-1.99a.09.09 0 00-.071-.044l-2.299-.169a.09.09 0 01-.06-.149l1.532-1.722a.09.09 0 00.02-.08l-.55-2.239a.09.09 0 01.124-.104z" fill="#fff"/><path d="M33.279 27.838l-7.193 6.05a.668.668 0 01-.999-.162L23.9 31.793a.668.668 0 01.139-.86l6.68-5.62a.668.668 0 01.872.011l1.701 1.503c.306.27.3.749-.012 1.011z" fill="#FFB125"/><path d="M33.291 26.827l-1.701-1.503a.668.668 0 00-.872-.01l-1.95 1.639 2.714 2.396 1.797-1.51a.668.668 0 00.012-1.012z" fill="#FF901D"/><path d="M26.003 27.861a1.296 1.296 0 001.832.068l1.622-1.508a1.296 1.296 0 10-1.764-1.899L26.07 26.03a1.296 1.296 0 00-.067 1.831z" fill="#F4C28C"/><path d="M26.07 26.03l1.623-1.508a1.296 1.296 0 012.162 1.156 1.296 1.296 0 00-1.722.038l-1.623 1.507a1.29 1.29 0 00-.397.744 1.294 1.294 0 01-.043-1.938z" fill="#FED9A8"/><path d="M24.703 25.522a1.316 1.316 0 001.86.069l1.593-1.481a1.316 1.316 0 00-1.79-1.928l-1.595 1.48a1.316 1.316 0 00-.069 1.86z" fill="#F4C28C"/><path d="M24.771 23.663l1.594-1.481a1.316 1.316 0 012.197 1.16 1.316 1.316 0 00-1.759.03l-1.594 1.48a1.31 1.31 0 00-.405.768 1.316 1.316 0 01-.033-1.957z" fill="#FED9A8"/><path d="M22.903 23.61a1.316 1.316 0 001.86.069l1.594-1.48a1.316 1.316 0 00-1.79-1.929l-1.595 1.481a1.316 1.316 0 00-.069 1.86z" fill="#F4C28C"/><path d="M22.972 21.751l1.594-1.48a1.316 1.316 0 011.954.182 1.31 1.31 0 00-.802.349l-1.594 1.48a1.316 1.316 0 00-.163 1.745 1.316 1.316 0 01-.988-2.276z" fill="#FED9A8"/><path d="M21.17 21.627a1.316 1.316 0 001.86.069l1.594-1.481a1.316 1.316 0 00-1.79-1.928l-1.595 1.48a1.316 1.316 0 00-.068 1.86z" fill="#F4C28C"/><path d="M21.24 19.768l1.593-1.481a1.316 1.316 0 012.197 1.158 1.316 1.316 0 00-1.76.03l-1.593 1.48a1.31 1.31 0 00-.406.77 1.316 1.316 0 01-.032-1.957z" fill="#FED9A8"/><path d="M24.216 22.634l-.295.274c-.465.432-1.183.416-1.604-.037l-.744-.8a.978.978 0 00-1.387-.027c.224 3.466-4.632 4.133-4.632 4.133l2.064-5.077c.128-.378.348-.721.64-.997l1.466-1.38c.713-.67 1.82-.649 2.47.048l2.102 2.259c.422.453.386 1.171-.08 1.604z" fill="#FED9A8"/><path d="M17.503 10.393a.596.596 0 00-.28-.569.597.597 0 00-.633 0l-1.771 1.097-1.909-.836a.596.596 0 00-.627.09.596.596 0 00-.196.603l.497 2.023-1.386 1.557a.597.597 0 00-.107.624.597.597 0 00.512.373l2.078.153 1.052 1.799a.596.596 0 00.56.295.597.597 0 00.514-.372l.787-1.929 2.036-.445a.597.597 0 00.454-.442.597.597 0 00-.195-.603l-1.592-1.345.206-2.073zm.076 3.648l-1.419.31a.6.6 0 00-.427.36l-.55 1.344-.733-1.254a.6.6 0 00-.474-.295l-1.449-.106.966-1.085a.6.6 0 00.134-.542l-.346-1.411 1.33.583a.6.6 0 00.558-.04l1.234-.765-.143 1.445a.6.6 0 00.21.518l1.11.938z" fill="#000"/><path d="M33.629 26.444l-1.701-1.502a1.185 1.185 0 00-1.538-.019l-.077.064a1.797 1.797 0 00-1.317-1.273 1.827 1.827 0 00-1.668-2.393h-.044a1.82 1.82 0 00-1.737-1.91 1.821 1.821 0 00-1.75-1.985 1.813 1.813 0 00-1.311.487l-.242.225a2.199 2.199 0 00-1.388-.412l.181-.606c.326-1.086.528-3.056.522-2.95l.053.025a1.934 1.934 0 001.674-.051c.568-.301.972-.93 1.004-1.567.03-.605-.254-1.14-.802-1.505a.51.51 0 00-.566.85c.244.162.361.365.349.604a.916.916 0 01-.463.716.909.909 0 01-.78.02.767.767 0 01-.443-.535c-.234-.937.303-1.867.925-2.944 1.126-1.951 2.527-4.379-.406-7.846L20.889.501a1.406 1.406 0 00-.965-.496 1.406 1.406 0 00-1.033.332 3.134 3.134 0 00-1.088 2.696l.06.613a.995.995 0 01-.323.835l.658.782c.49-.429.745-1.068.681-1.717l-.06-.614a2.113 2.113 0 01.733-1.817.392.392 0 01.557.046l1.215 1.435c2.47 2.92 1.417 4.744.302 6.676-.175.303-.35.608-.51.917a10.827 10.827 0 00-2.103-3.957l-2.336-2.777.013-.011a.91.91 0 00.323-.623.91.91 0 00-.211-.669l-.747-.887a.91.91 0 00-.622-.324.911.911 0 00-.67.212L2.97 11.073a.918.918 0 00-.111 1.291l.746.888a.91.91 0 00.703.327.91.91 0 00.589-.216l.013-.01.877 1.042a.996.996 0 01-.871.173l-.594-.163a3.134 3.134 0 00-2.84.619c-.291.243-.47.585-.502.962-.033.377.083.745.326 1.035l1.211 1.439c2.923 3.475 5.552 2.503 7.665 1.722.953-.352 1.8-.665 2.56-.555.142.04.284.077.427.111l.07.03c.298.13.411.358.454.526a.91.91 0 01-.152.765.917.917 0 01-.784.336c-.237-.028-.417-.178-.536-.446a.51.51 0 00-.933.415c.268.602.747.973 1.348 1.044a1.7 1.7 0 00.2.012c.574 0 1.162-.282 1.514-.738a1.926 1.926 0 00.332-1.64l-.011-.04a12.622 12.622 0 002.955-.012l.045-.005a2.95 2.95 0 00-.53.937l-2.007 4.935-10.7 8.228a.51.51 0 00.31.915h12.125a.51.51 0 00.366-.154l.675-.694a.51.51 0 10-.73-.712l-.526.54H6.244l9.621-7.398.02-.018.014-.011a.491.491 0 00.046-.047l.008-.01a.495.495 0 00.035-.05l.006-.01a.505.505 0 00.031-.063l.002-.004 2.064-5.076a1.932 1.932 0 01.517-.818l1.466-1.38c.252-.237.576-.361.916-.35.32.01.615.143.83.374l2.103 2.259a.591.591 0 01.157.427.65.65 0 01-.211.455l-.296.274a.638.638 0 01-.72.111l-.018-.009a.58.58 0 01-.144-.112l-.744-.8a1.452 1.452 0 00-1.023-.465 1.506 1.506 0 00-1.088.413.517.517 0 00-.16.405v.002c.003.038.005.077.006.115v.114l-.001.08-.001.03-.006.09-.001.012a2.46 2.46 0 01-.52 1.321.51.51 0 10.808.623c.177-.23.322-.471.436-.724l4.34 5.937-.103.087a.507.507 0 00-.18.107c-.36.332-.802.555-1.278.648l-3.196.23a.51.51 0 00-.329.152l-.816.838a.51.51 0 00.731.712l.68-.698 3.032-.218.018-.002c.013.182.067.364.168.527l1.189 1.934a1.177 1.177 0 001.762.284l7.192-6.049a1.177 1.177 0 00.022-1.785zM9.827 19.225c-2.093.774-4.069 1.504-6.53-1.422l-1.21-1.44a.392.392 0 01.048-.556 2.114 2.114 0 011.916-.417l.594.163a2.017 2.017 0 001.8-.375l.8.952a10.828 10.828 0 003.547 2.755c-.323.103-.646.222-.965.34zm10.232-2.398l-.385 1.286c-.105.07-.205.15-.3.239l-.488.46-1.382.165c-3.716.444-7.26-.866-9.478-3.504L5.69 12.695l.912-.767a.51.51 0 10-.657-.78l-1.302 1.095-.325.272-.612-.728L15.34 2.001l.613.728-.324.273h-.001L7.786 9.6a.51.51 0 00.657.781l7.453-6.268 2.336 2.777c2.219 2.638 2.902 6.353 1.827 9.938zm8.545 7.86a.786.786 0 01.635 1.205l-2.224 1.87a.787.787 0 01-.597-1.358l.322-.3c.059-.043.116-.09.17-.14l1.244-1.155a.787.787 0 01.45-.123zm-1.831-2.182a.799.799 0 01.518-.164.806.806 0 01.518 1.395l-.294.273a1.842 1.842 0 00-.17.14L26.1 25.305a.8.8 0 01-1.023-.131.806.806 0 01-.018-1.076c.017-.015.035-.03.051-.046l1.595-1.48.068-.068zm-2.705-2.47l-1.098-1.178.21-.196a.806.806 0 011.097 1.18l-.21.194zm.2 3.247l.296-.274c.33-.306.52-.72.536-1.166a1.605 1.605 0 00-.34-1.055l.153-.143a.797.797 0 01.578-.215.807.807 0 01.578 1.333l-.051.046-1.594 1.48a1.812 1.812 0 00-.069.068.795.795 0 01-.41.16c.113-.064.223-.14.323-.234zm-3.567-.856l.003-.116a.51.51 0 01.186-.03c.12.004.23.053.31.139l.744.8c.076.082.159.154.247.216a1.814 1.814 0 001.61 1.104c.014.002.028.002.043.002a1.82 1.82 0 001.397 1.862 1.808 1.808 0 00.83 2.152l-.55.463-4.82-6.592zm12.25 5.022l-7.193 6.049c-.048.04-.1.04-.127.035a.155.155 0 01-.109-.073l-1.189-1.934a.156.156 0 01.033-.202l6.68-5.619a.157.157 0 01.206.003l1.701 1.502a.156.156 0 01.053.12.155.155 0 01-.056.119z" fill="#000"/></g><defs><clipPath id="ajclip0"><path fill="#fff" d="M0 0h35v35H0z"/></clipPath></defs></svg><svg viewBox="0 0 512 512" id="delivery" xmlns="http://www.w3.org/2000/svg"><path d="M386.689 304.403c-35.587 0-64.538 28.951-64.538 64.538s28.951 64.538 64.538 64.538c35.593 0 64.538-28.951 64.538-64.538s-28.951-64.538-64.538-64.538zm0 96.807c-17.796 0-32.269-14.473-32.269-32.269s14.473-32.269 32.269-32.269 32.269 14.473 32.269 32.269c0 17.797-14.473 32.269-32.269 32.269zM166.185 304.403c-35.587 0-64.538 28.951-64.538 64.538s28.951 64.538 64.538 64.538 64.538-28.951 64.538-64.538-28.951-64.538-64.538-64.538zm0 96.807c-17.796 0-32.269-14.473-32.269-32.269s14.473-32.269 32.269-32.269c17.791 0 32.269 14.473 32.269 32.269 0 17.797-14.473 32.269-32.269 32.269zM430.15 119.675a16.143 16.143 0 00-14.419-8.885h-84.975v32.269h75.025l43.934 87.384 28.838-14.5-48.403-96.268z"/><path d="M216.202 353.345h122.084v32.269H216.202zM117.781 353.345H61.849c-8.912 0-16.134 7.223-16.134 16.134 0 8.912 7.223 16.134 16.134 16.134h55.933c8.912 0 16.134-7.223 16.134-16.134 0-8.912-7.223-16.134-16.135-16.134zM508.612 254.709l-31.736-40.874a16.112 16.112 0 00-12.741-6.239H346.891V94.655c0-8.912-7.223-16.134-16.134-16.134H61.849c-8.912 0-16.134 7.223-16.134 16.134s7.223 16.134 16.134 16.134h252.773V223.73c0 8.912 7.223 16.134 16.134 16.134h125.478l23.497 30.268v83.211h-44.639c-8.912 0-16.134 7.223-16.134 16.134 0 8.912 7.223 16.134 16.134 16.134h60.773c8.912 0 16.134-7.223 16.135-16.134V264.605c0-3.582-1.194-7.067-3.388-9.896zM116.706 271.597H42.487c-8.912 0-16.134 7.223-16.134 16.134 0 8.912 7.223 16.134 16.134 16.134h74.218c8.912 0 16.134-7.223 16.134-16.134.001-8.911-7.222-16.134-16.133-16.134zM153.815 208.134H16.134C7.223 208.134 0 215.357 0 224.269s7.223 16.134 16.134 16.134h137.681c8.912 0 16.134-7.223 16.134-16.134s-7.222-16.135-16.134-16.135z"/><path d="M180.168 144.672H42.487c-8.912 0-16.134 7.223-16.134 16.134 0 8.912 7.223 16.134 16.134 16.134h137.681c8.912 0 16.134-7.223 16.134-16.134.001-8.911-7.222-16.134-16.134-16.134z"/></svg><svg fill="none" viewBox="0 0 295 295" id="drop" xmlns="http://www.w3.org/2000/svg"><g clip-path="url(#alclip0)"><path d="M124.721 40.398C134.545 25.332 139.457 17.8 146.5 17.8c7.043 0 11.955 7.532 21.779 22.598l61.558 94.4c11.558 17.724 17.337 26.587 13.649 33.394C239.798 175 229.218 175 208.058 175H84.942c-21.16 0-31.74 0-35.428-6.808-3.688-6.807 2.091-15.67 13.65-33.394l61.557-94.4z" fill="#fff"/><rect x="52" y="117" width="190" height="158" rx="60" fill="#fff"/><path d="M174.432 32.465c-6.8-10-12.8-19.2-18.4-27.6-.8-1.2-2-2.4-3.2-3.2-4.8-3.2-11.2-1.6-14.4 3.2-5.2 8.4-11.2 17.2-18.4 27.6-31.6 46.4-78.8 116.4-78.8 156.4 0 29.2 12 55.6 31.2 74.8 19.2 18.8 45.6 30.8 74.8 30.8 29.2 0 55.6-12 74.8-31.2 19.2-19.2 31.2-45.6 31.2-74.8 0-40-47.2-109.6-78.8-156zm33.2 216.4c-15.6 15.6-36.8 24.8-60.4 24.8s-44.8-9.6-60.4-24.8c-15.6-15.6-24.8-36.8-24.8-60.4 0-33.6 45.2-100.4 75.2-144.8 3.6-5.2 6.8-10.4 10-14.8 3.2 4.4 6.4 9.6 10 14.8 30 44.8 75.2 111.2 75.2 144.8 0 23.6-9.6 44.8-24.8 60.4z" fill="#000"/><path d="M209.232 181.265c-5.6-.4-10.4 4-10.8 9.6-.4 8.8-3.2 17.2-7.6 24.4-4.4 7.2-10.8 13.6-18.4 17.6-4.8 2.8-6.8 9.2-4 14 3.2 5.6 9.6 7.2 14.4 4.4 10.8-6 19.6-14.8 25.6-24.8 6.4-10 10-22 10.4-34.4.4-5.6-4-10.4-9.6-10.8z" fill="#000"/></g><defs><clipPath id="alclip0"><path fill="#fff" d="M0 0h294.465v294.465H0z"/></clipPath></defs></svg><svg viewBox="0 0 40 40" id="gear" xmlns="http://www.w3.org/2000/svg"><g clip-path="url(#amclip0)"><path d="M39.874 17.78c-.063-.563-.719-.986-1.286-.986-1.832 0-3.459-1.076-4.14-2.74a4.455 4.455 0 011.118-4.946c.43-.393.482-1.051.122-1.508a19.8 19.8 0 00-3.169-3.2 1.114 1.114 0 00-1.52.123c-1.192 1.32-3.333 1.81-4.988 1.12a4.442 4.442 0 01-2.701-4.342 1.11 1.11 0 00-.982-1.168 19.959 19.959 0 00-4.5-.012c-.579.064-1.009.563-.99 1.145A4.45 4.45 0 0114.1 5.533c-1.634.667-3.76.18-4.95-1.128a1.115 1.115 0 00-1.51-.127 19.882 19.882 0 00-3.235 3.2 1.113 1.113 0 00.119 1.519 4.432 4.432 0 011.118 4.99c-.69 1.645-2.397 2.704-4.351 2.704-.634-.02-1.086.405-1.156.982a20.049 20.049 0 00-.008 4.548c.063.564.738.984 1.311.984 1.742-.045 3.414 1.033 4.116 2.74a4.45 4.45 0 01-1.119 4.946 1.11 1.11 0 00-.121 1.507 19.874 19.874 0 003.163 3.2c.459.37 1.125.318 1.523-.12 1.196-1.323 3.337-1.813 4.985-1.121a4.436 4.436 0 012.707 4.34 1.11 1.11 0 00.981 1.169 19.829 19.829 0 004.5.012c.58-.064 1.009-.564.99-1.145a4.445 4.445 0 012.736-4.265c1.646-.673 3.763-.18 4.953 1.126.396.43 1.05.483 1.51.127a19.908 19.908 0 003.235-3.2 1.11 1.11 0 00-.12-1.52 4.431 4.431 0 01-1.12-4.988c.68-1.623 2.324-2.712 4.092-2.712l.247.007c.574.047 1.101-.395 1.17-.981a19.96 19.96 0 00.01-4.548zM20 31.53c-6.368 0-11.53-5.162-11.53-11.53 0-6.368 5.162-11.53 11.53-11.53 6.368 0 11.53 5.162 11.53 11.53 0 2.161-.596 4.183-1.63 5.912l-5.05-5.05a7.05 7.05 0 00.56-2.76 7.021 7.021 0 00-2.072-4.998 7.022 7.022 0 00-4.997-2.07c-.63 0-1.257.084-1.864.25a.8.8 0 00-.554.557.781.781 0 00.222.764s2.493 2.512 3.327 3.346c.087.087.087.296.075.37l-.008.055c-.084.917-.246 2.018-.38 2.44l-.053.052-.056.057c-.428.137-1.546.301-2.477.384v-.005l-.042.011a.533.533 0 01-.423-.16c-.868-.869-3.263-3.246-3.263-3.246a.814.814 0 00-.582-.26c-.342 0-.649.248-.745.603a7.092 7.092 0 001.824 6.848 7.023 7.023 0 004.999 2.07c.964 0 1.898-.192 2.76-.558l5.104 5.104A11.472 11.472 0 0120 31.53z"/></g><defs><clipPath id="amclip0"><path d="M0 0h40v40H0z"/></clipPath></defs></svg><svg viewBox="0 0 40 40" id="guarantee" xmlns="http://www.w3.org/2000/svg"><g clip-path="url(#anclip0)"><path d="M20 7.358A12.643 12.643 0 1032.642 20 12.656 12.656 0 0020 7.358zm0 23.879A11.235 11.235 0 1131.235 20 11.248 11.248 0 0120 31.235v.002z"/><path d="M38.248 22.937C39.068 22.113 40 21.18 40 20s-.931-2.113-1.752-2.935c-.553-.553-1.124-1.125-1.255-1.617-.142-.529.072-1.335.277-2.114.306-1.156.621-2.351.053-3.334-.578-.999-1.782-1.323-2.947-1.637-.769-.208-1.564-.422-1.94-.798-.374-.375-.589-1.17-.796-1.94C31.326 4.46 31 3.258 30.003 2.68c-.983-.57-2.18-.253-3.337.052-.779.205-1.585.418-2.114.277-.492-.131-1.063-.702-1.617-1.255C22.113.931 21.18 0 20 0c-1.18 0-2.113.931-2.935 1.752-.553.553-1.125 1.124-1.617 1.255-.529.14-1.335-.072-2.114-.277-1.157-.306-2.352-.622-3.335-.053C9 3.255 8.676 4.46 8.362 5.624c-.207.769-.422 1.565-.797 1.94-.375.374-1.17.589-1.94.796C4.46 8.674 3.257 9 2.68 9.997c-.568.983-.253 2.179.052 3.335.206.779.42 1.585.278 2.114-.135.494-.704 1.064-1.256 1.62C.93 17.888 0 18.821 0 20.001s.931 2.113 1.753 2.937c.552.553 1.123 1.125 1.254 1.617.142.529-.072 1.335-.277 2.115-.305 1.155-.621 2.35-.052 3.333.577.999 1.781 1.323 2.946 1.637.769.208 1.564.422 1.939.798.375.375.59 1.17.797 1.94.314 1.165.639 2.367 1.637 2.945.983.57 2.18.254 3.335-.052.779-.206 1.584-.419 2.114-.277.492.131 1.064.702 1.618 1.255.823.821 1.756 1.752 2.934 1.752 1.18 0 2.114-.931 2.937-1.752.554-.553 1.126-1.124 1.617-1.255.529-.142 1.336.072 2.114.277 1.157.306 2.351.622 3.335.053.998-.578 1.323-1.782 1.637-2.947.207-.769.422-1.564.797-1.94.375-.375 1.17-.589 1.94-.796 1.166-.314 2.368-.639 2.946-1.637.569-.983.253-2.179-.052-3.336-.206-.78-.42-1.586-.278-2.115.135-.494.704-1.064 1.257-1.617zm-2.338 4.09c.232.88.473 1.79.195 2.271-.287.495-1.206.744-2.095.983-.948.256-1.928.52-2.568 1.16-.641.641-.906 1.621-1.161 2.569-.241.889-.488 1.81-.983 2.095-.482.278-1.39.037-2.27-.195-.957-.253-1.947-.513-2.837-.276-.856.228-1.564.934-2.248 1.617-.661.66-1.345 1.342-1.943 1.342-.598 0-1.282-.684-1.942-1.342-.684-.683-1.393-1.389-2.249-1.617a2.93 2.93 0 00-.76-.094 8.393 8.393 0 00-2.076.37c-.88.232-1.791.472-2.271.195-.496-.287-.744-1.206-.983-2.095-.256-.948-.52-1.928-1.16-2.568-.641-.641-1.622-.906-2.569-1.161-.889-.241-1.81-.488-2.095-.983-.278-.482-.037-1.39.195-2.27.253-.957.515-1.947.276-2.837-.229-.856-.934-1.564-1.617-2.248-.66-.661-1.342-1.345-1.342-1.943 0-.598.683-1.282 1.342-1.943.683-.683 1.388-1.392 1.617-2.248.239-.89-.023-1.88-.276-2.837-.232-.88-.472-1.79-.195-2.27.287-.495 1.207-.744 2.095-.983.948-.256 1.93-.52 2.568-1.16.64-.641.906-1.621 1.161-2.569.241-.889.488-1.81.983-2.095.48-.278 1.39-.037 2.27.195.958.253 1.948.514 2.837.276.856-.228 1.564-.934 2.249-1.617.66-.66 1.344-1.342 1.942-1.342.598 0 1.282.683 1.943 1.342.683.683 1.392 1.389 2.248 1.617.89.238 1.88-.023 2.836-.276.88-.232 1.79-.473 2.271-.195.495.287.744 1.207.983 2.095.256.948.52 1.93 1.16 2.568.641.64 1.621.906 2.57 1.161.888.241 1.808.488 2.094.983.278.482.037 1.39-.195 2.27-.253.957-.514 1.947-.276 2.837.228.856.934 1.564 1.617 2.248.66.661 1.342 1.345 1.342 1.943 0 .598-.684 1.282-1.342 1.943-.683.683-1.389 1.392-1.617 2.248-.237.89.023 1.88.276 2.836z"/><path d="M25.496 14.32a2.296 2.296 0 00-1.634.677L18.758 20.1l-2.62-2.62a2.31 2.31 0 00-3.784.741 2.312 2.312 0 00.515 2.527l4.255 4.255a2.312 2.312 0 003.269 0l6.737-6.737a2.311 2.311 0 00-1.634-3.946zm.64 2.95l-6.74 6.738a.927.927 0 01-1.278 0l-4.254-4.254a.905.905 0 011.28-1.28l3.117 3.118a.701.701 0 00.994 0l5.602-5.6a.925.925 0 011.279 0 .905.905 0 010 1.278z"/></g><defs><clipPath id="anclip0"><path d="M0 0h40v40H0z"/></clipPath></defs></svg><svg viewBox="0 0 512 512" id="imac-icon" xmlns="http://www.w3.org/2000/svg"><path d="M195.71 433.916c-.867 7.143-4.782 14.592-10.737 18.631l-9.792 6.642h161.637l-9.792-6.642c-5.955-4.039-9.871-11.488-10.737-18.632l-4.757-40.244H200.467l-4.757 40.245z" fill="#ccc"/><path d="M227.304 438.768l4.757-45.097h-31.594l-4.757 40.245c-.867 7.143-4.782 14.592-10.737 18.631l-9.791 6.642h41.945c5.636-4.614 9.338-12.673 10.177-20.421z" fill="#bababa"/><path d="M482.88 394.701H29.12c-16.016 0-29.12-13.104-29.12-29.12V53.659c0-16.016 13.104-29.12 29.12-29.12h453.76c16.016 0 29.12 13.104 29.12 29.12v311.922c0 16.016-13.104 29.12-29.12 29.12z" fill="#efefef"/><path d="M29.436 365.581V53.659c0-16.016 13.104-29.12 29.12-29.12H29.12C13.104 24.539 0 37.643 0 53.659v311.923c0 16.016 13.104 29.12 29.12 29.12h29.436c-16.016-.001-29.12-13.105-29.12-29.121z" fill="#ddd"/><path d="M482.88 24.539H29.12C13.104 24.539 0 37.643 0 53.659V335.89h512V53.659c0-16.016-13.104-29.12-29.12-29.12z" fill="#666"/><path d="M0 53.659V335.89h29.435V53.659c0-16.016 13.104-29.12 29.12-29.12-30.348.05-34.415-1.026-42.641 3.196C6.491 32.571 0 42.391 0 53.659z" fill="#535454"/><path d="M477.595 306.5H34.405a4.97 4.97 0 01-4.969-4.969V58.737a4.969 4.969 0 014.969-4.969h443.19a4.97 4.97 0 014.969 4.969V301.53a4.969 4.969 0 01-4.969 4.97z" fill="#a4d9f4"/><path d="M60.343 301.53V58.737a4.969 4.969 0 014.969-4.969H34.405a4.97 4.97 0 00-4.969 4.969V301.53a4.97 4.97 0 004.969 4.969h30.907a4.968 4.968 0 01-4.969-4.969z" fill="#7cc9e8"/><path d="M351.277 458.158H160.723c-8.083 0-14.695 6.613-14.695 14.695s6.613 14.695 14.695 14.695h190.554c8.082 0 14.695-6.613 14.695-14.695s-6.613-14.695-14.695-14.695z" fill="#efefef"/><path d="M203.621 472.854c0-8.082 6.613-14.695 14.695-14.695h-57.594c-8.083 0-14.695 6.613-14.695 14.695s6.613 14.695 14.695 14.695h57.594c-8.082 0-14.695-6.613-14.695-14.695z" fill="#ddd"/><circle cx="256" cy="365.26" r="7.782" fill="#ccc"/><path d="M29.436 58.737v24.26h453.129v-24.26a4.97 4.97 0 00-4.97-4.969H34.405a4.969 4.969 0 00-4.969 4.969z" fill="#70b5e8"/><g fill="#52a5d8"><path d="M29.436 82.997h30.907v-24.26a4.969 4.969 0 014.969-4.969H34.405c-2.478 0-4.516 1.82-4.891 4.192-.157.991-.039-.858-.078 25.037zM145.86 283.763h-20.676a3.457 3.457 0 01-3.446-3.446v-20.676a3.457 3.457 0 013.446-3.446h20.676a3.457 3.457 0 013.446 3.446v20.676a3.457 3.457 0 01-3.446 3.446z"/></g><path d="M242.243 283.763h-20.676a3.457 3.457 0 01-3.446-3.446v-20.676a3.457 3.457 0 013.446-3.446h20.676a3.457 3.457 0 013.446 3.446v20.676a3.457 3.457 0 01-3.446 3.446z" fill="#898989"/><path d="M338.625 283.763h-20.676a3.457 3.457 0 01-3.446-3.446v-20.676a3.457 3.457 0 013.446-3.446h20.676a3.457 3.457 0 013.446 3.446v20.676a3.457 3.457 0 01-3.446 3.446z" fill="#52a5d8"/><path d="M194.051 283.763h-20.676a3.457 3.457 0 01-3.446-3.446v-20.676a3.457 3.457 0 013.446-3.446h20.676a3.457 3.457 0 013.446 3.446v20.676a3.456 3.456 0 01-3.446 3.446z" fill="#f94a46"/><path d="M290.434 283.763h-20.676a3.457 3.457 0 01-3.446-3.446v-20.676a3.457 3.457 0 013.446-3.446h20.676a3.457 3.457 0 013.446 3.446v20.676a3.457 3.457 0 01-3.446 3.446z" fill="#ffb70d"/><path d="M386.816 283.763H366.14a3.457 3.457 0 01-3.446-3.446v-20.676a3.457 3.457 0 013.446-3.446h20.676a3.457 3.457 0 013.446 3.446v20.676a3.456 3.456 0 01-3.446 3.446z" fill="#92b620"/></svg><svg viewBox="0 0 512 512" id="ipad-icon" xmlns="http://www.w3.org/2000/svg"><path d="M30.905 0C13.907 0 0 13.907 0 30.905v450.19C0 498.093 13.907 512 30.905 512h143.7V0h-143.7z" fill="#efefef"/><path d="M29.982 481.095V30.905C29.982 13.907 43.889 0 60.887 0H30.905C13.907 0 0 13.907 0 30.905v450.19C0 498.093 13.907 512 30.905 512h29.982c-16.998 0-30.905-13.907-30.905-30.905z" fill="#ddd"/><path d="M481.095 512H174.606c-16.998 0-30.905-13.907-30.905-30.905V30.905C143.701 13.907 157.608 0 174.606 0h306.489C498.093 0 512 13.907 512 30.905v450.19C512 498.093 498.093 512 481.095 512z" fill="#535454"/><path d="M170.844 481.095V30.905C170.844 13.907 184.751 0 201.749 0h-27.143c-16.998 0-30.905 13.907-30.905 30.905v450.19c0 16.998 13.907 30.905 30.905 30.905h27.143c-16.998 0-30.905-13.907-30.905-30.905z" fill="#444443"/><path d="M477.58 45.239H178.121a7.277 7.277 0 00-7.277 7.277v385.299a7.277 7.277 0 007.277 7.277H477.58a7.277 7.277 0 007.277-7.277V52.516a7.278 7.278 0 00-7.277-7.277z" fill="#a4d9f4"/><path d="M201.749 437.815V52.516a7.277 7.277 0 017.277-7.277h-30.905a7.277 7.277 0 00-7.277 7.277v385.299a7.277 7.277 0 007.277 7.277h30.905a7.278 7.278 0 01-7.277-7.277z" fill="#7cc9e8"/><g fill="#666"><path d="M327.85 501.007c-12.214 0-22.15-9.936-22.15-22.15s9.937-22.15 22.15-22.15 22.15 9.936 22.15 22.15-9.936 22.15-22.15 22.15zm0-28.847a6.705 6.705 0 00-6.697 6.697 6.705 6.705 0 006.697 6.697 6.705 6.705 0 006.697-6.697 6.705 6.705 0 00-6.697-6.697z"/><circle cx="44.41" cy="45.24" r="14.423"/></g><path d="M44.406 45.239c-2.668-4.621-2.476-10.098.006-14.412a14.343 14.343 0 00-7.218 1.921c-6.899 3.983-9.262 12.804-5.279 19.703s12.804 9.262 19.703 5.279a14.337 14.337 0 005.273-5.291c-4.978-.007-9.818-2.579-12.485-7.2z" fill="#535454"/><path d="M327.847 31.215c-.505 0-1.01-.051-1.504-.155a7.39 7.39 0 01-1.453-.443 6.924 6.924 0 01-1.329-.711 7.477 7.477 0 01-1.175-.958 7.03 7.03 0 01-.958-1.174 7.915 7.915 0 01-.711-1.329 8.031 8.031 0 01-.443-1.443 7.553 7.553 0 010-3.029 7.838 7.838 0 011.154-2.771c.278-.433.598-.824.958-1.174.361-.361.752-.68 1.175-.969a8.238 8.238 0 011.329-.711 8.238 8.238 0 011.453-.433c2.504-.515 5.182.31 6.975 2.113.35.35.68.741.958 1.174.278.413.515.865.711 1.329.196.464.34.958.443 1.442.093.505.144 1.01.144 1.515s-.051 1.009-.144 1.514a8.031 8.031 0 01-.443 1.443 7.876 7.876 0 01-1.669 2.503 7.779 7.779 0 01-5.471 2.267z" fill="#666"/><path d="M477.58 45.239H178.121a7.277 7.277 0 00-7.277 7.277v20.718h314.013V52.516a7.278 7.278 0 00-7.277-7.277z" fill="#70b5e8"/><path d="M209.026 45.239h-30.905a7.277 7.277 0 00-7.277 7.277v20.718h30.905V52.516a7.277 7.277 0 017.277-7.277z" fill="#52a5d8"/><path d="M239.329 417.812h-20.676a3.457 3.457 0 01-3.446-3.446V393.69a3.457 3.457 0 013.446-3.446h20.676a3.457 3.457 0 013.446 3.446v20.676a3.456 3.456 0 01-3.446 3.446z" fill="#92b620"/><g fill="#70b5e8"><path d="M305.235 417.812h-20.676a3.457 3.457 0 01-3.446-3.446V393.69a3.457 3.457 0 013.446-3.446h20.676a3.457 3.457 0 013.446 3.446v20.676a3.455 3.455 0 01-3.446 3.446zM371.141 417.812h-20.676a3.457 3.457 0 01-3.446-3.446V393.69a3.457 3.457 0 013.446-3.446h20.676a3.457 3.457 0 013.446 3.446v20.676a3.455 3.455 0 01-3.446 3.446z"/></g><path d="M437.048 417.812h-20.676a3.457 3.457 0 01-3.446-3.446V393.69a3.457 3.457 0 013.446-3.446h20.676a3.457 3.457 0 013.446 3.446v20.676a3.456 3.456 0 01-3.446 3.446z" fill="#ffb70d"/><path d="M239.329 309.454h-20.676a3.457 3.457 0 01-3.446-3.446v-20.676a3.457 3.457 0 013.446-3.446h20.676a3.457 3.457 0 013.446 3.446v20.676a3.456 3.456 0 01-3.446 3.446z" fill="#898989"/><path d="M305.235 309.454h-20.676a3.457 3.457 0 01-3.446-3.446v-20.676a3.457 3.457 0 013.446-3.446h20.676a3.457 3.457 0 013.446 3.446v20.676a3.455 3.455 0 01-3.446 3.446z" fill="#f94a46"/><path d="M371.141 309.454h-20.676a3.457 3.457 0 01-3.446-3.446v-20.676a3.457 3.457 0 013.446-3.446h20.676a3.457 3.457 0 013.446 3.446v20.676a3.455 3.455 0 01-3.446 3.446z" fill="#70b5e8"/><path d="M437.048 309.454h-20.676a3.457 3.457 0 01-3.446-3.446v-20.676a3.457 3.457 0 013.446-3.446h20.676a3.457 3.457 0 013.446 3.446v20.676a3.456 3.456 0 01-3.446 3.446z" fill="#ffb70d"/><path d="M239.329 253.886h-20.676a3.457 3.457 0 01-3.446-3.446v-20.676a3.457 3.457 0 013.446-3.446h20.676a3.457 3.457 0 013.446 3.446v20.676a3.457 3.457 0 01-3.446 3.446z" fill="#efefef"/><path d="M305.235 253.886h-20.676a3.457 3.457 0 01-3.446-3.446v-20.676a3.457 3.457 0 013.446-3.446h20.676a3.457 3.457 0 013.446 3.446v20.676a3.456 3.456 0 01-3.446 3.446z" fill="#ffb70d"/><path d="M371.141 253.886h-20.676a3.457 3.457 0 01-3.446-3.446v-20.676a3.457 3.457 0 013.446-3.446h20.676a3.457 3.457 0 013.446 3.446v20.676a3.456 3.456 0 01-3.446 3.446z" fill="#70b5e8"/><path d="M437.048 253.886h-20.676a3.457 3.457 0 01-3.446-3.446v-20.676a3.457 3.457 0 013.446-3.446h20.676a3.457 3.457 0 013.446 3.446v20.676a3.457 3.457 0 01-3.446 3.446z" fill="#efefef"/><path d="M239.329 198.317h-20.676a3.457 3.457 0 01-3.446-3.446v-20.676a3.457 3.457 0 013.446-3.446h20.676a3.457 3.457 0 013.446 3.446v20.676a3.457 3.457 0 01-3.446 3.446z" fill="#dda36f"/><path d="M305.235 198.317h-20.676a3.457 3.457 0 01-3.446-3.446v-20.676a3.457 3.457 0 013.446-3.446h20.676a3.457 3.457 0 013.446 3.446v20.676a3.456 3.456 0 01-3.446 3.446z" fill="#70b5e8"/><path d="M371.141 198.317h-20.676a3.457 3.457 0 01-3.446-3.446v-20.676a3.457 3.457 0 013.446-3.446h20.676a3.457 3.457 0 013.446 3.446v20.676a3.456 3.456 0 01-3.446 3.446z" fill="#f9d698"/><path d="M437.048 198.317h-20.676a3.457 3.457 0 01-3.446-3.446v-20.676a3.457 3.457 0 013.446-3.446h20.676a3.457 3.457 0 013.446 3.446v20.676a3.457 3.457 0 01-3.446 3.446z" fill="#70b5e8"/><path d="M239.329 142.749h-20.676a3.457 3.457 0 01-3.446-3.446v-20.676a3.457 3.457 0 013.446-3.446h20.676a3.457 3.457 0 013.446 3.446v20.676a3.457 3.457 0 01-3.446 3.446z" fill="#92b620"/><path d="M305.235 142.749h-20.676a3.457 3.457 0 01-3.446-3.446v-20.676a3.457 3.457 0 013.446-3.446h20.676a3.457 3.457 0 013.446 3.446v20.676a3.456 3.456 0 01-3.446 3.446z" fill="#f94a46"/><path d="M371.141 142.749h-20.676a3.457 3.457 0 01-3.446-3.446v-20.676a3.457 3.457 0 013.446-3.446h20.676a3.457 3.457 0 013.446 3.446v20.676a3.456 3.456 0 01-3.446 3.446z" fill="#ffb70d"/><path d="M437.048 142.749h-20.676a3.457 3.457 0 01-3.446-3.446v-20.676a3.457 3.457 0 013.446-3.446h20.676a3.457 3.457 0 013.446 3.446v20.676a3.457 3.457 0 01-3.446 3.446z" fill="#efefef"/></svg><svg fill="none" viewBox="0 0 34 34" id="iphone-icon" xmlns="http://www.w3.org/2000/svg"><path d="M6.455 0a3.184 3.184 0 00-3.18 3.18v27.64A3.184 3.184 0 006.455 34h9.15V0h-9.15z" fill="#EFEFEF"/><path d="M5.17 30.82V3.18A3.184 3.184 0 018.35 0H6.455a3.184 3.184 0 00-3.18 3.18v27.64A3.184 3.184 0 006.455 34H8.35a3.184 3.184 0 01-3.18-3.18z" fill="#DDD"/><path d="M6.777 1.774c-.884 0-1.607.724-1.607 1.608v3.763c0 .884.723 1.608 1.607 1.608.885 0 1.608-.724 1.608-1.608V3.382c0-.884-.723-1.608-1.608-1.608z" fill="#535454"/><path d="M6.777 7.145V3.382c0-.592.325-1.111.804-1.39-1.068-.622-2.411.16-2.411 1.39v3.763c0 1.23 1.343 2.012 2.411 1.39a1.611 1.611 0 01-.804-1.39z" fill="#444443"/><path d="M27.544 0H15.605a3.184 3.184 0 00-3.18 3.18v27.64a3.184 3.184 0 003.18 3.18h11.94a3.184 3.184 0 003.18-3.18V3.18A3.184 3.184 0 0027.545 0z" fill="#535454"/><path d="M14.187 30.82V3.18A3.184 3.184 0 0117.367 0h-1.762a3.184 3.184 0 00-3.18 3.18v27.64a3.184 3.184 0 003.18 3.18h1.762a3.184 3.184 0 01-3.18-3.18z" fill="#444443"/><path d="M28.963 30.82c0 .783-.635 1.418-1.419 1.418H15.605a1.418 1.418 0 01-1.418-1.418V3.18c0-.783.635-1.418 1.418-1.418h1.488a.53.53 0 01.53.53v.337c0 .452.37.821.822.821h6.26c.451 0 .82-.37.82-.82v-.487c0-.21.171-.381.381-.381h1.639c.783 0 1.418.635 1.418 1.418v27.64z" fill="#A4D9F4"/><path d="M15.879 30.82V3.18c0-.74.568-1.348 1.292-1.412-.082-.012.006-.003-1.566-.006-.783 0-1.418.635-1.418 1.418v27.64c0 .783.635 1.418 1.418 1.418h1.692a1.418 1.418 0 01-1.418-1.418z" fill="#7CC9E8"/><path d="M23.64 2.275h-2.68a.513.513 0 110-1.026h2.68a.513.513 0 110 1.026zM19.062 2.189a.514.514 0 11.385.076c-.033.006-.28-.006-.385-.076zM6.493 3.877a.513.513 0 01-.142-.711c.271-.413.94-.23.94.284a.512.512 0 01-.413.503.654.654 0 01-.385-.076z" fill="#666"/><path d="M6.493 5.69a.513.513 0 11.647-.064c-.122.122-.437.203-.647.064z" fill="#F9D698"/><path d="M6.493 7.502a.513.513 0 11.647-.063c-.133.133-.42.22-.647.063z" fill="#666"/><path d="M17.488 7.581h-1.372a.23.23 0 01-.23-.229V5.98a.23.23 0 01.23-.229h1.372a.23.23 0 01.23.23v1.372a.23.23 0 01-.23.23z" fill="#70B5E8"/><path d="M20.721 7.581h-1.373a.23.23 0 01-.229-.229V5.98a.23.23 0 01.229-.229h1.373a.23.23 0 01.229.23v1.372a.23.23 0 01-.229.23z" fill="#EFEFEF"/><path d="M23.953 7.581H22.58a.23.23 0 01-.228-.229V5.98a.23.23 0 01.228-.229h1.373a.23.23 0 01.23.23v1.372a.23.23 0 01-.23.23z" fill="#92B620"/><path d="M27.186 7.581h-1.373a.23.23 0 01-.23-.229V5.98a.23.23 0 01.23-.229h1.373a.23.23 0 01.229.23v1.372a.23.23 0 01-.23.23z" fill="#898989"/><path d="M17.488 10.845h-1.372a.23.23 0 01-.23-.229V9.244a.23.23 0 01.23-.228h1.372a.23.23 0 01.23.228v1.373a.23.23 0 01-.23.23z" fill="#92B620"/><path d="M20.721 10.845h-1.373a.23.23 0 01-.229-.229V9.244a.23.23 0 01.229-.228h1.373a.23.23 0 01.229.228v1.373a.23.23 0 01-.229.23z" fill="#898989"/><path d="M23.953 10.845H22.58a.23.23 0 01-.228-.229V9.244a.23.23 0 01.228-.228h1.373a.23.23 0 01.23.228v1.373a.23.23 0 01-.23.23z" fill="#70B5E8"/><path d="M27.186 10.845h-1.373a.23.23 0 01-.23-.229V9.244a.23.23 0 01.23-.228h1.373a.23.23 0 01.229.228v1.373a.23.23 0 01-.23.23z" fill="#F94A46"/><path d="M17.488 14.152h-1.372a.23.23 0 01-.23-.229V12.55a.23.23 0 01.23-.229h1.372a.23.23 0 01.23.23v1.372a.23.23 0 01-.23.23z" fill="#DDA36F"/><path d="M20.721 14.152h-1.373a.23.23 0 01-.229-.229V12.55a.23.23 0 01.229-.229h1.373a.23.23 0 01.229.23v1.372a.23.23 0 01-.229.23z" fill="#F9D698"/><path d="M23.953 14.152H22.58a.23.23 0 01-.228-.229V12.55a.23.23 0 01.228-.229h1.373a.23.23 0 01.23.23v1.372a.23.23 0 01-.23.23z" fill="#898989"/><path d="M27.186 14.152h-1.373a.23.23 0 01-.23-.229V12.55a.23.23 0 01.23-.229h1.373a.23.23 0 01.229.23v1.372a.23.23 0 01-.23.23z" fill="#F9D698"/><path d="M17.488 17.416h-1.372a.23.23 0 01-.23-.229v-1.373a.23.23 0 01.23-.228h1.372a.23.23 0 01.23.229v1.373a.23.23 0 01-.23.228zM20.721 17.416h-1.373a.23.23 0 01-.229-.229v-1.373a.23.23 0 01.229-.228h1.373a.23.23 0 01.229.229v1.373a.23.23 0 01-.229.228z" fill="#70B5E8"/><path d="M23.953 17.416H22.58a.23.23 0 01-.228-.229v-1.373a.23.23 0 01.228-.228h1.373a.23.23 0 01.23.229v1.373a.23.23 0 01-.23.228z" fill="#F94A46"/><path d="M17.488 20.68h-1.372a.23.23 0 01-.23-.228v-1.373a.23.23 0 01.23-.23h1.372a.23.23 0 01.23.23v1.373a.23.23 0 01-.23.228z" fill="#EFEFEF"/><path d="M20.721 20.68h-1.373a.23.23 0 01-.229-.228v-1.373a.23.23 0 01.229-.23h1.373a.23.23 0 01.229.23v1.373a.23.23 0 01-.229.228z" fill="#92B620"/><path d="M23.953 20.68H22.58a.23.23 0 01-.228-.228v-1.373a.23.23 0 01.228-.23h1.373a.23.23 0 01.23.23v1.373a.23.23 0 01-.23.228z" fill="#898989"/><path d="M27.186 17.416h-1.373a.23.23 0 01-.23-.229v-1.373a.23.23 0 01.23-.228h1.373a.23.23 0 01.229.229v1.373a.23.23 0 01-.23.228z" fill="#FFB70D"/><path d="M17.489 30.752h-1.373a.23.23 0 01-.23-.229v-1.372a.23.23 0 01.23-.23h1.373a.23.23 0 01.228.23v1.372a.23.23 0 01-.228.23z" fill="#92B620"/><path d="M20.721 30.752h-1.373a.23.23 0 01-.229-.229v-1.372a.23.23 0 01.229-.23h1.373a.23.23 0 01.229.23v1.372a.23.23 0 01-.229.23z" fill="#70B5E8"/><path d="M23.953 30.752H22.58a.23.23 0 01-.228-.229v-1.372a.23.23 0 01.228-.23h1.373a.23.23 0 01.23.23v1.372a.23.23 0 01-.23.23z" fill="#92B620"/><path d="M27.186 30.752h-1.373a.23.23 0 01-.23-.229v-1.372a.23.23 0 01.23-.23h1.373a.23.23 0 01.229.23v1.372a.23.23 0 01-.23.23z" fill="#EFEFEF"/></svg><svg fill="none" viewBox="0 0 121 44" id="logo" xmlns="http://www.w3.org/2000/svg"><path d="M14.857 24.612a95.91 95.91 0 00-.644-2.17 95.608 95.608 0 00-.698-2.18l-8.648.376a90.394 90.394 0 00-1.471 4.114l-2.439-.333a108.26 108.26 0 013.352-7.992A155.438 155.438 0 018.24 8.639l3.008.053a97.36 97.36 0 013.373 7.606 106.02 106.02 0 012.772 7.95l-2.536.364zM9.52 10.422a92.684 92.684 0 00-2.052 4.146 104.93 104.93 0 00-1.848 4.2l7.262-.311a74.1 74.1 0 00-1.569-4.05 92.478 92.478 0 00-1.793-3.985zm12.353 2.31l-.021 1.568a4.85 4.85 0 011.278-.924c.444-.222.852-.39 1.224-.505a6.485 6.485 0 011.279-.247c.487 0 .97.072 1.45.215.48.136.935.333 1.364.59.43.251.827.556 1.193.914.365.358.676.759.934 1.203.258.437.455.91.591 1.418a5.14 5.14 0 01.183 1.6 6.806 6.806 0 01-.935 3.245c-.265.45-.576.859-.934 1.224a6.023 6.023 0 01-1.15.924c-.4.25-.82.44-1.257.57-.43.135-.86.203-1.289.203a6.236 6.236 0 01-1.332-.193 7.885 7.885 0 01-1.3-.473 5.634 5.634 0 01-1.396-.902l-.065 7.283-1.998.043-.182-17.66 2.363-.097zm7.058 6.037a3.928 3.928 0 00-.204-1.504 3.57 3.57 0 00-.72-1.279 3.5 3.5 0 00-1.139-.87 3.208 3.208 0 00-1.46-.311c-.445.007-.864.09-1.258.247a3.886 3.886 0 00-1.848 1.493 4.1 4.1 0 00-.483 1.053l-.021 2.04c.107.473.276.889.505 1.247.229.358.497.659.805.902.316.236.656.42 1.02.548.366.122.735.186 1.107.193.502.015.97-.075 1.408-.268.444-.194.83-.462 1.16-.806.33-.344.59-.745.784-1.203.2-.458.315-.953.344-1.482zm7.186-6.038l-.021 1.569a4.85 4.85 0 011.278-.924c.444-.222.852-.39 1.225-.505a6.482 6.482 0 011.278-.247c.487 0 .97.072 1.45.215.48.136.935.333 1.364.59.43.251.828.556 1.193.914.365.358.677.759.934 1.203.258.437.455.91.591 1.418a5.14 5.14 0 01.183 1.6 6.806 6.806 0 01-.935 3.245 6.288 6.288 0 01-2.084 2.148c-.4.25-.82.44-1.257.57-.43.135-.859.203-1.289.203a6.236 6.236 0 01-1.332-.193 7.892 7.892 0 01-1.3-.473 5.637 5.637 0 01-1.396-.902l-.064 7.283-1.998.043-.183-17.66 2.363-.097zm7.058 6.038a3.927 3.927 0 00-.204-1.504 3.567 3.567 0 00-.72-1.279 3.5 3.5 0 00-1.139-.87 3.207 3.207 0 00-1.46-.311c-.445.007-.864.09-1.257.247a3.888 3.888 0 00-1.848 1.493 4.102 4.102 0 00-.483 1.053l-.022 2.04c.107.473.276.889.505 1.247.23.358.498.659.806.902a3.8 3.8 0 001.02.548c.365.122.734.186 1.106.193.502.015.97-.075 1.408-.268.444-.194.83-.462 1.16-.806.33-.344.59-.745.784-1.203.2-.458.315-.953.344-1.482zm9.056 5.757a3.618 3.618 0 01-1.354-.257 3.955 3.955 0 01-1.031-.634 4.397 4.397 0 01-.763-.903 7.259 7.259 0 01-.526-1.02c-.344-.817-.559-1.74-.645-2.772l.29-13.62h2.245a647.375 647.375 0 01-.107 3.512c-.029 1.06-.054 2.027-.075 2.9-.022.867-.043 1.644-.065 2.332a1015.849 1015.849 0 00-.107 4.726c.014.666.11 1.26.29 1.783.072.222.165.44.28.655.12.215.264.409.429.58.172.172.372.312.601.42.237.1.509.153.817.16l-.28 2.138zm7.09-1.514c.379 0 .755-.058 1.127-.172a3.863 3.863 0 001.031-.516c.316-.229.588-.512.817-.848.236-.337.408-.727.515-1.171l2.074.419a6.437 6.437 0 01-.849 1.772c-.365.53-.791.985-1.278 1.364a5.69 5.69 0 01-1.611.881 5.376 5.376 0 01-1.827.312c-.945 0-1.783-.143-2.513-.43a5.096 5.096 0 01-1.848-1.214 5.262 5.262 0 01-1.15-1.89c-.257-.738-.386-1.562-.386-2.471 0-.895.15-1.73.451-2.503a6.431 6.431 0 011.257-2.03 5.852 5.852 0 011.869-1.354 5.485 5.485 0 012.32-.494c.745 0 1.447.147 2.106.44a5.542 5.542 0 011.75 1.204c.51.508.928 1.11 1.258 1.804.329.695.537 1.447.623 2.256l-9.303 1.386c.05.508.175.967.376 1.375.2.4.455.741.763 1.02.315.28.676.494 1.085.645.415.143.863.215 1.342.215zm2.964-6.027l-.064-.204c-.272-.709-.648-1.264-1.128-1.665-.473-.4-1.064-.601-1.773-.601-.3 0-.63.053-.988.16a3.18 3.18 0 00-1.042.527c-.337.25-.64.587-.913 1.01-.265.415-.451.934-.559 1.558l6.467-.785z" fill="#989898"/><path d="M81.92 18.21l-6.38.311.086 5.479-2.063.086-.247-15.308 11.666-.182-.075 2.052-9.474.15.086 5.607 6.359-.258.043 2.063zm7.832-8.53c0 .208-.043.405-.129.591-.079.187-.19.348-.333.484a1.527 1.527 0 01-1.085.44 1.5 1.5 0 01-.59-.118 1.675 1.675 0 01-.484-.322 1.505 1.505 0 01-.322-.484 1.5 1.5 0 01-.119-.59 1.527 1.527 0 01.924-1.418c.186-.086.383-.13.591-.13.215 0 .415.044.602.13.186.078.347.19.483.333.143.136.254.297.333.483.086.186.129.387.129.602zm-.505 3.782a706.778 706.778 0 01-.064 2.825 629.436 629.436 0 01-.086 4.222 346.08 346.08 0 01-.022 1.45c-.021.988-.032 1.765-.032 2.331h-2.202l.053-2.76.054-3.363c.029-1.325.054-2.865.075-4.62l2.224-.085zm7.498 3.588L100 12.914l2.03.795-3.92 5.006 4.135 5.07-1.976.806-3.46-4.2-3.233 4.157-2.266-.612 4.114-5.243-4.243-5.188 2.245-.527 3.32 4.072z" fill="#A4DF59"/><path d="M5.777 36.42c0 .622-.211 1.098-.633 1.43-.422.33-1.02.496-1.793.496h-.993V41H1.91v-6.425h1.573c1.53 0 2.294.615 2.294 1.846zm-3.42 1.539h.884c.724 0 1.247-.119 1.57-.356.321-.24.482-.628.482-1.165 0-.495-.152-.86-.457-1.098-.304-.24-.776-.36-1.415-.36H2.358v2.979zm6.637 3.129c-.695 0-1.237-.214-1.626-.642-.387-.427-.58-1.027-.58-1.797 0-.762.187-1.371.562-1.828.375-.46.88-.69 1.516-.69.563 0 1.007.196 1.332.589.325.392.487.925.487 1.6v.35h-3.44c.005.657.158 1.158.457 1.504.301.346.732.518 1.292.518.272 0 .51-.019.716-.057.208-.038.47-.12.787-.246v.396a3.4 3.4 0 01-.747.237c-.229.044-.481.066-.756.066zm-.128-4.57c-.46 0-.829.152-1.107.457-.279.301-.441.738-.488 1.31h2.953c0-.554-.12-.987-.36-1.297-.24-.314-.573-.47-.998-.47zm5.361 4.016l.273-.769 1.376-3.542h.601V41h-.413v-4.25a23.09 23.09 0 01-.206.567c-.07.194-.548 1.421-1.433 3.683h-.386l-1.323-3.357a6.553 6.553 0 01-.158-.427c-.047-.15-.1-.31-.159-.483V41h-.395v-4.777h.576l1.38 3.516c.108.284.197.55.267.795zm7.8-1.929c0 .78-.188 1.389-.566 1.828-.378.437-.9.655-1.564.655-.42 0-.789-.101-1.108-.303a1.94 1.94 0 01-.734-.87c-.17-.378-.255-.815-.255-1.31 0-.78.19-1.386.567-1.82.378-.436.897-.654 1.556-.654.656 0 1.17.221 1.542.663.375.44.563 1.043.563 1.811zm-3.77 0c0 .656.144 1.169.431 1.538.29.366.699.55 1.226.55s.935-.184 1.222-.55c.29-.37.435-.882.435-1.538 0-.66-.147-1.17-.44-1.534-.29-.363-.698-.545-1.226-.545-.527 0-.934.182-1.221.545-.285.36-.427.872-.427 1.534zm5.529-2.382v2.096h3.032v-2.096h.43V41h-.43v-2.303h-3.032V41h-.435v-4.777h.435zm8.099.378h-1.591V41h-.43v-4.399h-1.631v-.378h3.652v.378zm6.354 0h-1.59V41h-.431v-4.399h-1.63v-.378h3.651v.378zm2.914 4.487c-.694 0-1.236-.214-1.626-.642-.387-.427-.58-1.027-.58-1.797 0-.762.187-1.371.562-1.828.375-.46.88-.69 1.516-.69.563 0 1.007.196 1.332.589.325.392.488.925.488 1.6v.35h-3.441c.006.657.158 1.158.457 1.504.302.346.732.518 1.292.518.272 0 .511-.019.716-.057.208-.038.47-.12.787-.246v.396c-.27.117-.519.196-.747.237-.229.044-.48.066-.756.066zm-.128-4.57c-.46 0-.829.152-1.107.457-.278.301-.44.738-.488 1.31h2.953c0-.554-.12-.987-.36-1.297-.24-.314-.573-.47-.998-.47zm4.311 2.026l-1.665-2.32h.5l1.425 2.012 1.41-2.013h.48l-1.64 2.32L47.604 41h-.505l-1.503-2.131L44.084 41h-.479l1.731-2.456zm3.745-2.32v2.095h3.032v-2.096h.43V41h-.43v-2.303H49.08V41h-.436v-4.777h.436zm5.48 0v3.453l-.027.901 2.835-4.355h.58V41h-.418v-3.432l.018-.923L54.714 41h-.566v-4.777h.412zm7.584 0h.541l-2.14 2.31L62.84 41h-.585l-2.258-2.421V41h-.444v-4.777h.444v2.32l2.148-2.32zm1.952 0v3.453l-.027.901 2.835-4.355h.58V41h-.418v-3.432l.018-.923L64.251 41h-.567v-4.777h.413zm10.533 2.508h-2.61L71.124 41h-.497l2.584-6.451h.286L76.027 41h-.505l-.892-2.268zm-2.447-.404h2.298l-.875-2.316a11.246 11.246 0 01-.263-.756c-.08.282-.166.536-.26.765l-.9 2.307zm6.692 2.76c-.735 0-1.271-.276-1.608-.826h-.03l.013.369c.011.217.017.454.017.712v1.82h-.435v-6.94h.37l.083.681h.026c.328-.515.853-.773 1.573-.773.645 0 1.135.212 1.472.637.34.422.51 1.037.51 1.846 0 .785-.178 1.394-.536 1.828-.354.43-.84.646-1.454.646zm-.008-.387c.489 0 .867-.181 1.133-.545.27-.363.405-.871.405-1.525 0-1.403-.507-2.105-1.52-2.105-.557 0-.966.154-1.227.462-.26.304-.39.803-.39 1.494v.14c0 .748.124 1.28.373 1.6.252.32.66.48 1.226.48zm5.37.387c-.736 0-1.272-.276-1.609-.826h-.03l.013.369c.012.217.017.454.017.712v1.82h-.435v-6.94h.37l.083.681h.026c.329-.515.853-.773 1.574-.773.644 0 1.135.212 1.472.637.34.422.51 1.037.51 1.846 0 .785-.18 1.394-.537 1.828-.354.43-.839.646-1.454.646zm-.009-.387c.49 0 .867-.181 1.134-.545.27-.363.404-.871.404-1.525 0-1.403-.507-2.105-1.52-2.105-.557 0-.966.154-1.227.462-.26.304-.39.803-.39 1.494v.14c0 .748.124 1.28.373 1.6.252.32.66.48 1.226.48zM87.99 41h-.435v-6.838h.435V41zm3.533.088c-.694 0-1.236-.214-1.626-.642-.387-.427-.58-1.027-.58-1.797 0-.762.187-1.371.562-1.828.375-.46.88-.69 1.516-.69.563 0 1.007.196 1.332.589.325.392.488.925.488 1.6v.35h-3.441c.006.657.158 1.158.457 1.504.302.346.732.518 1.292.518.272 0 .511-.019.716-.057.208-.038.47-.12.787-.246v.396c-.27.117-.519.196-.747.237-.229.044-.48.066-.756.066zm-.127-4.57c-.46 0-.83.152-1.108.457-.278.301-.44.738-.488 1.31h2.953c0-.554-.12-.987-.36-1.297-.24-.314-.573-.47-.998-.47zm9.14.856c0 .302-.075.54-.224.712-.149.17-.393.289-.73.356v.031c.384.044.661.155.831.334.173.176.259.43.259.76 0 .46-.152.815-.457 1.064-.301.246-.744.369-1.327.369h-2.017v-4.777h2.026c.545 0 .954.098 1.226.295.275.196.413.481.413.856zm-.325 2.185c0-.586-.45-.88-1.35-.88h-1.555v1.908h1.617c.859 0 1.288-.343 1.288-1.028zm-.136-2.15c0-.278-.1-.475-.3-.593-.198-.12-.497-.18-.896-.18h-1.573v1.635h1.52c.446 0 .765-.069.959-.206.193-.138.29-.356.29-.655zm7.084-2.522c-.806 0-1.44.258-1.903.774-.463.515-.694 1.221-.694 2.118 0 .917.218 1.629.654 2.136.437.506 1.061.76 1.872.76.539 0 1.035-.069 1.486-.207v.396c-.425.15-.955.224-1.591.224-.902 0-1.613-.292-2.131-.875-.519-.583-.778-1.397-.778-2.443 0-.653.123-1.229.369-1.727a2.69 2.69 0 011.068-1.151c.466-.273 1.006-.41 1.621-.41.627 0 1.188.118 1.683.352l-.18.405a3.257 3.257 0 00-1.476-.352zM114.612 41h-.448v-6.003h-3.709V41h-.449v-6.425h4.606V41zm1.45-2.87c0-2.074.584-3.256 1.753-3.546.411-.103.803-.189 1.178-.26l1.002-.193.079.378-.527.101c-.87.164-1.444.29-1.723.378-.395.114-.706.389-.931.822-.223.434-.351 1.027-.383 1.78h.027c.313-.372.618-.637.914-.796.296-.16.6-.241.914-.241.586 0 1.034.189 1.344.567.311.378.466.915.466 1.612 0 .742-.178 1.32-.536 1.736-.357.413-.86.62-1.507.62-.656 0-1.166-.257-1.529-.77-.361-.512-.541-1.241-.541-2.188zm2.105 2.562c.501 0 .883-.167 1.147-.5.267-.335.4-.815.4-1.442 0-.595-.119-1.043-.356-1.345-.234-.304-.58-.457-1.037-.457-.34 0-.67.107-.989.321a2.907 2.907 0 00-.831.879c0 .524.065.984.194 1.38.132.395.322.688.571.879.249.19.549.285.901.285z" fill="#000"/></svg><svg viewBox="0 0 504.123 504.123" id="macbook-icon" xmlns="http://www.w3.org/2000/svg"><path d="M504.123 382.03v7.877c0 12.997-10.634 23.631-23.631 23.631H23.631C10.634 413.537 0 402.904 0 389.907v-7.877h504.123z" fill="#e4e7e7"/><path d="M216.615 374.153h70.892c6.695 0 11.815 5.12 11.815 11.815s-5.12 11.815-11.815 11.815h-70.892c-6.695 0-11.815-5.12-11.815-11.815 0-6.301 5.12-11.815 11.815-11.815z" fill="#c8cbcb"/><path d="M63.015 90.584h378.092c8.665 0 15.754 7.089 15.754 15.754V382.03h-409.6V106.337c.001-8.664 7.09-15.753 15.754-15.753z" fill="#36434f"/><path d="M70.892 114.214H433.23v244.185H70.892V114.214z" fill="#465765"/><path d="M157.538 326.891h189.046c12.997 0 23.631 10.634 23.631 23.631v7.877H133.908v-7.877c0-12.997 10.634-23.631 23.63-23.631z" fill="#7e8a94"/><path d="M181.169 311.137c8.665 0 15.754 7.089 15.754 15.754s-7.089 15.754-15.754 15.754-15.754-7.089-15.754-15.754 7.09-15.754 15.754-15.754z" fill="#e4e7e7"/><path d="M228.431 311.137c8.665 0 15.754 7.089 15.754 15.754s-7.089 15.754-15.754 15.754-15.754-7.089-15.754-15.754 7.089-15.754 15.754-15.754z" fill="#efc75e"/><path d="M275.692 311.137c8.665 0 15.754 7.089 15.754 15.754s-7.089 15.754-15.754 15.754-15.754-7.089-15.754-15.754 7.09-15.754 15.754-15.754zm47.262 0c8.665 0 15.754 7.089 15.754 15.754s-7.089 15.754-15.754 15.754-15.754-7.089-15.754-15.754 7.089-15.754 15.754-15.754z" fill="#e4e7e7"/></svg><svg viewBox="0 0 504 504" id="mastercard" xmlns="http://www.w3.org/2000/svg"><path d="M504 252c0 83.2-67.2 151.2-151.2 151.2-83.2 0-151.2-68-151.2-151.2 0-83.2 67.2-151.2 150.4-151.2 84.8 0 152 68 152 151.2z" fill="#ffb600"/><path d="M352.8 100.8c83.2 0 151.2 68 151.2 151.2 0 83.2-67.2 151.2-151.2 151.2-83.2 0-151.2-68-151.2-151.2" fill="#f7981d"/><path d="M352.8 100.8c83.2 0 151.2 68 151.2 151.2 0 83.2-67.2 151.2-151.2 151.2" fill="#ff8500"/><path d="M149.6 100.8C67.2 101.6 0 168.8 0 252s67.2 151.2 151.2 151.2c39.2 0 74.4-15.2 101.6-39.2 5.6-4.8 10.4-10.4 15.2-16h-31.2c-4-4.8-8-10.4-11.2-15.2h53.6c3.2-4.8 6.4-10.4 8.8-16h-71.2c-2.4-4.8-4.8-10.4-6.4-16h83.2c4.8-15.2 8-31.2 8-48 0-11.2-1.6-21.6-3.2-32h-92.8c.8-5.6 2.4-10.4 4-16h83.2c-1.6-5.6-4-11.2-6.4-16H216c2.4-5.6 5.6-10.4 8.8-16h53.6c-3.2-5.6-7.2-11.2-12-16h-29.6c4.8-5.6 9.6-10.4 15.2-15.2-26.4-24.8-62.4-39.2-101.6-39.2 0-1.6 0-1.6-.8-1.6z" fill="#ff5050"/><path d="M0 252c0 83.2 67.2 151.2 151.2 151.2 39.2 0 74.4-15.2 101.6-39.2 5.6-4.8 10.4-10.4 15.2-16h-31.2c-4-4.8-8-10.4-11.2-15.2h53.6c3.2-4.8 6.4-10.4 8.8-16h-71.2c-2.4-4.8-4.8-10.4-6.4-16h83.2c4.8-15.2 8-31.2 8-48 0-11.2-1.6-21.6-3.2-32h-92.8c.8-5.6 2.4-10.4 4-16h83.2c-1.6-5.6-4-11.2-6.4-16H216c2.4-5.6 5.6-10.4 8.8-16h53.6c-3.2-5.6-7.2-11.2-12-16h-29.6c4.8-5.6 9.6-10.4 15.2-15.2-26.4-24.8-62.4-39.2-101.6-39.2h-.8" fill="#e52836"/><path d="M151.2 403.2c39.2 0 74.4-15.2 101.6-39.2 5.6-4.8 10.4-10.4 15.2-16h-31.2c-4-4.8-8-10.4-11.2-15.2h53.6c3.2-4.8 6.4-10.4 8.8-16h-71.2c-2.4-4.8-4.8-10.4-6.4-16h83.2c4.8-15.2 8-31.2 8-48 0-11.2-1.6-21.6-3.2-32h-92.8c.8-5.6 2.4-10.4 4-16h83.2c-1.6-5.6-4-11.2-6.4-16H216c2.4-5.6 5.6-10.4 8.8-16h53.6c-3.2-5.6-7.2-11.2-12-16h-29.6c4.8-5.6 9.6-10.4 15.2-15.2-26.4-24.8-62.4-39.2-101.6-39.2h-.8" fill="#cb2026"/><g fill="#fff"><path d="M204.8 290.4l2.4-13.6c-.8 0-2.4.8-4 .8-5.6 0-6.4-3.2-5.6-4.8l4.8-28h8.8l2.4-15.2h-8l1.6-9.6h-16s-9.6 52.8-9.6 59.2c0 9.6 5.6 13.6 12.8 13.6 4.8 0 8.8-1.6 10.4-2.4zM210.4 264.8c0 22.4 15.2 28 28 28 12 0 16.8-2.4 16.8-2.4l3.2-15.2s-8.8 4-16.8 4c-17.6 0-14.4-12.8-14.4-12.8H260s2.4-10.4 2.4-14.4c0-10.4-5.6-23.2-23.2-23.2-16.8-1.6-28.8 16-28.8 36zm28-23.2c8.8 0 7.2 10.4 7.2 11.2H228c0-.8 1.6-11.2 10.4-11.2zM340 290.4l3.2-17.6s-8 4-13.6 4c-11.2 0-16-8.8-16-18.4 0-19.2 9.6-29.6 20.8-29.6 8 0 14.4 4.8 14.4 4.8l2.4-16.8s-9.6-4-18.4-4c-18.4 0-36.8 16-36.8 46.4 0 20 9.6 33.6 28.8 33.6 6.4 0 15.2-2.4 15.2-2.4zM116.8 227.2c-11.2 0-19.2 3.2-19.2 3.2L95.2 244s7.2-3.2 17.6-3.2c5.6 0 10.4.8 10.4 5.6 0 3.2-.8 4-.8 4h-7.2c-13.6 0-28.8 5.6-28.8 24 0 14.4 9.6 17.6 15.2 17.6 11.2 0 16-7.2 16.8-7.2l-.8 6.4H132l6.4-44c0-19.2-16-20-21.6-20zm3.2 36c0 2.4-1.6 15.2-11.2 15.2-4.8 0-6.4-4-6.4-6.4 0-4 2.4-9.6 14.4-9.6 2.4.8 3.2.8 3.2.8zM153.6 292c4 0 24 .8 24-20.8 0-20-19.2-16-19.2-24 0-4 3.2-5.6 8.8-5.6 2.4 0 11.2.8 11.2.8l2.4-14.4s-5.6-1.6-15.2-1.6c-12 0-24 4.8-24 20.8 0 18.4 20 16.8 20 24 0 4.8-5.6 5.6-9.6 5.6-7.2 0-14.4-2.4-14.4-2.4l-2.4 14.4c.8 1.6 4.8 3.2 18.4 3.2zM472.8 214.4l-3.2 21.6s-6.4-8-15.2-8c-14.4 0-27.2 17.6-27.2 38.4 0 12.8 6.4 26.4 20 26.4 9.6 0 15.2-6.4 15.2-6.4l-.8 5.6h16l12-76.8-16.8-.8zm-7.2 42.4c0 8.8-4 20-12.8 20-5.6 0-8.8-4.8-8.8-12.8 0-12.8 5.6-20.8 12.8-20.8 5.6 0 8.8 4 8.8 13.6zM29.6 291.2l9.6-57.6 1.6 57.6H52l20.8-57.6-8.8 57.6h16.8l12.8-76.8H67.2l-16 47.2-.8-47.2H27.2l-12.8 76.8h15.2zM277.6 291.2c4.8-26.4 5.6-48 16.8-44 1.6-10.4 4-14.4 5.6-18.4h-3.2c-7.2 0-12.8 9.6-12.8 9.6l1.6-8.8h-15.2L260 292h17.6v-.8zM376.8 227.2c-11.2 0-19.2 3.2-19.2 3.2l-2.4 13.6s7.2-3.2 17.6-3.2c5.6 0 10.4.8 10.4 5.6 0 3.2-.8 4-.8 4h-7.2c-13.6 0-28.8 5.6-28.8 24 0 14.4 9.6 17.6 15.2 17.6 11.2 0 16-7.2 16.8-7.2l-.8 6.4H392l6.4-44c.8-19.2-16-20-21.6-20zm4 36c0 2.4-1.6 15.2-11.2 15.2-4.8 0-6.4-4-6.4-6.4 0-4 2.4-9.6 14.4-9.6 2.4.8 2.4.8 3.2.8zM412 291.2c4.8-26.4 5.6-48 16.8-44 1.6-10.4 4-14.4 5.6-18.4h-3.2c-7.2 0-12.8 9.6-12.8 9.6l1.6-8.8h-15.2L394.4 292H412v-.8z"/></g><g fill="#dce5e5"><path d="M180 279.2c0 9.6 5.6 13.6 12.8 13.6 5.6 0 10.4-1.6 12-2.4l2.4-13.6c-.8 0-2.4.8-4 .8-5.6 0-6.4-3.2-5.6-4.8l4.8-28h8.8l2.4-15.2h-8l1.6-9.6M218.4 264.8c0 22.4 7.2 28 20 28 12 0 16.8-2.4 16.8-2.4l3.2-15.2s-8.8 4-16.8 4c-17.6 0-14.4-12.8-14.4-12.8H260s2.4-10.4 2.4-14.4c0-10.4-5.6-23.2-23.2-23.2-16.8-1.6-20.8 16-20.8 36zm20-23.2c8.8 0 10.4 10.4 10.4 11.2H228c0-.8 1.6-11.2 10.4-11.2zM340 290.4l3.2-17.6s-8 4-13.6 4c-11.2 0-16-8.8-16-18.4 0-19.2 9.6-29.6 20.8-29.6 8 0 14.4 4.8 14.4 4.8l2.4-16.8s-9.6-4-18.4-4c-18.4 0-28.8 16-28.8 46.4 0 20 1.6 33.6 20.8 33.6 6.4 0 15.2-2.4 15.2-2.4zM95.2 244.8s7.2-3.2 17.6-3.2c5.6 0 10.4.8 10.4 5.6 0 3.2-.8 4-.8 4h-7.2c-13.6 0-28.8 5.6-28.8 24 0 14.4 9.6 17.6 15.2 17.6 11.2 0 16-7.2 16.8-7.2l-.8 6.4H132l6.4-44c0-18.4-16-19.2-22.4-19.2m12 34.4c0 2.4-9.6 15.2-19.2 15.2-4.8 0-6.4-4-6.4-6.4 0-4 2.4-9.6 14.4-9.6 2.4.8 11.2.8 11.2.8zM136 290.4s4.8 1.6 18.4 1.6c4 0 24 .8 24-20.8 0-20-19.2-16-19.2-24 0-4 3.2-5.6 8.8-5.6 2.4 0 11.2.8 11.2.8l2.4-14.4s-5.6-1.6-15.2-1.6c-12 0-16 4.8-16 20.8 0 18.4 12 16.8 12 24 0 4.8-5.6 5.6-9.6 5.6M469.6 236s-6.4-8-15.2-8c-14.4 0-19.2 17.6-19.2 38.4 0 12.8-1.6 26.4 12 26.4 9.6 0 15.2-6.4 15.2-6.4l-.8 5.6h16l12-76.8m-20.8 41.6c0 8.8-7.2 20-16 20-5.6 0-8.8-4.8-8.8-12.8 0-12.8 5.6-20.8 12.8-20.8 5.6 0 12 4 12 13.6zM29.6 291.2l9.6-57.6 1.6 57.6H52l20.8-57.6-8.8 57.6h16.8l12.8-76.8h-20l-22.4 47.2-.8-47.2h-8.8l-27.2 76.8h15.2zM260.8 291.2h16.8c4.8-26.4 5.6-48 16.8-44 1.6-10.4 4-14.4 5.6-18.4h-3.2c-7.2 0-12.8 9.6-12.8 9.6l1.6-8.8M355.2 244.8s7.2-3.2 17.6-3.2c5.6 0 10.4.8 10.4 5.6 0 3.2-.8 4-.8 4h-7.2c-13.6 0-28.8 5.6-28.8 24 0 14.4 9.6 17.6 15.2 17.6 11.2 0 16-7.2 16.8-7.2l-.8 6.4H392l6.4-44c0-18.4-16-19.2-22.4-19.2m12 34.4c0 2.4-9.6 15.2-19.2 15.2-4.8 0-6.4-4-6.4-6.4 0-4 2.4-9.6 14.4-9.6 3.2.8 11.2.8 11.2.8zM395.2 291.2H412c4.8-26.4 5.6-48 16.8-44 1.6-10.4 4-14.4 5.6-18.4h-3.2c-7.2 0-12.8 9.6-12.8 9.6l1.6-8.8"/></g></svg><svg fill="none" viewBox="0 0 256 480" id="outline" xmlns="http://www.w3.org/2000/svg"><rect width="256" height="480" rx="40" fill="#fff"/><path d="M40 0A40.048 40.048 0 000 40v400a40.046 40.046 0 0040 40h176a40.046 40.046 0 0040-40V40a40.048 40.048 0 00-40-40H40zm48 16h80v16H88V16zm152 424c0 6.365-2.529 12.47-7.029 16.971A24.005 24.005 0 01216 464H40a24.003 24.003 0 01-24-24v-40h224v40zm0-400v308.688l-18.344-18.344a7.999 7.999 0 00-11.312 0L192 348.688l-26.344-26.344-11.312 11.312 32 32a7.999 7.999 0 0011.312 0L216 347.312l24 24V384H16V83.312l18.344 18.344a7.999 7.999 0 0011.312 0L64 83.312l26.344 26.344 11.312-11.312-32-32a8 8 0 00-11.312 0L40 84.688l-24-24V40a24 24 0 0124-24h32v24a8 8 0 008 8h96a8 8 0 008-8V16h32a24.002 24.002 0 0124 24z" fill="#000"/><path d="M128 448c8.837 0 16-7.163 16-16s-7.163-16-16-16-16 7.163-16 16 7.163 16 16 16zM128 120a95.997 95.997 0 00-88.692 59.262 96.002 96.002 0 0069.963 130.893 95.995 95.995 0 0098.55-40.82A95.998 95.998 0 00224 216a96.106 96.106 0 00-96-96zm0 176a80.005 80.005 0 01-73.91-49.385A80 80 0 11208 216a80.087 80.087 0 01-80 80z" fill="#000"/><path d="M85.656 221.656L96 211.312l10.344 10.344 11.312-11.312L107.312 200l10.344-10.344-11.312-11.312L96 188.688l-10.344-10.344-11.312 11.312L84.688 200l-10.344 10.344 11.312 11.312zM170.344 178.344L160 188.688l-10.344-10.344-11.312 11.312L148.688 200l-10.344 10.344 11.312 11.312L160 211.312l10.344 10.344 11.312-11.312L171.312 200l10.344-10.344-11.312-11.312zM128 232c-37.336 0-47.2 28.264-47.592 29.472l15.2 5.056C95.656 266.344 102.064 248 128 248c25.496 0 32.168 17.84 32.408 18.528l15.2-5.056C175.2 260.264 165.336 232 128 232z" fill="#000"/></svg><svg fill="none" viewBox="0 0 23 31" id="placeholder" xmlns="http://www.w3.org/2000/svg"><path d="M11.5 0C5.159 0 0 5.097 0 11.361c0 2.878 1.835 6.944 5.456 12.086a81.251 81.251 0 005.358 6.789L11.5 31l.686-.764c.11-.122 2.712-3.03 5.358-6.79C21.164 18.307 23 14.24 23 11.362 23 5.097 17.841 0 11.5 0zm1.034 8.5c-3.743 0-1.012 5.697-1.012 2s-3.681 0 .061 0c0-3.697 3.743 0 0 0 0 3.697 4.694-2 .95-2z" fill="#A4DF59"/><path d="M13.625 4c-.747.052-1.62.53-2.127 1.151-.464.565-.846 1.403-.697 2.218.816.025 1.658-.464 2.146-1.097.457-.589.803-1.421.678-2.272z" fill="#fff"/><path d="M16.574 8.697c-.717-.899-1.724-1.42-2.675-1.42-1.255 0-1.786.601-2.659.601-.9 0-1.583-.6-2.669-.6-1.066 0-2.202.652-2.922 1.767-1.012 1.57-.84 4.521.801 7.035.588.9 1.372 1.911 2.397 1.92.913.009 1.17-.585 2.406-.592 1.237-.007 1.471.6 2.382.59 1.026-.008 1.853-1.129 2.44-2.028.421-.645.578-.97.904-1.698-2.374-.903-2.754-4.28-.405-5.575z" fill="#fff"/></svg><svg fill="none" viewBox="0 0 384 384" id="power-button" xmlns="http://www.w3.org/2000/svg"><g clip-path="url(#awclip0)"><rect y="-1" width="383" height="379" rx="189.5" fill="#fff"/><path d="M192 0C86.128 0 0 86.128 0 192s86.128 192 192 192 192-86.128 192-192S297.872 0 192 0zm0 352c-88.224 0-160-71.776-160-160S103.776 32 192 32s160 71.776 160 160-71.776 160-160 160z" fill="#000"/><path d="M248.816 114.696c-7.136-5.224-17.144-3.672-22.36 3.448-5.224 7.128-3.672 17.144 3.448 22.36C246.248 152.48 256 171.728 256 192c0 35.288-28.712 64-64 64s-64-28.712-64-64c0-20.272 9.752-39.52 26.096-51.496 7.128-5.224 8.672-15.232 3.448-22.36s-15.224-8.672-22.36-3.448C110.648 132.664 96 161.568 96 192c0 52.936 43.064 96 96 96s96-43.064 96-96c0-30.432-14.648-59.336-39.184-77.304z" fill="#000"/><path d="M192 72c-8.832 0-16 7.168-16 16v112c0 8.832 7.168 16 16 16s16-7.168 16-16V88c0-8.832-7.168-16-16-16z" fill="#000"/></g><defs><clipPath id="awclip0"><path fill="#fff" d="M0 0h384v384H0z"/></clipPath></defs></svg><svg fill="none" viewBox="0 0 10 14" id="pricelist-arrow" xmlns="http://www.w3.org/2000/svg"><path d="M5 11.85a.698.698 0 01-.495-.205l-4.3-4.3a.7.7 0 11.99-.99L5 10.16l3.805-3.805a.7.7 0 01.99.99l-4.3 4.3A.698.698 0 015 11.85z" fill="#000"/><path d="M5 7.85a.698.698 0 01-.495-.205l-4.3-4.3a.7.7 0 11.99-.99L5 6.16l3.805-3.805a.7.7 0 01.99.99l-4.3 4.3A.698.698 0 015 7.85z" fill="#000"/></svg><svg fill="none" viewBox="0 0 346 1059" id="pricelist-collage_left" xmlns="http://www.w3.org/2000/svg"><rect x="-114.15" width="826" height="669" rx="45" transform="rotate(56.188 -114.15 0)" fill="#E5E5E5" fill-opacity=".41"/></svg><svg fill="none" viewBox="0 0 214 390" id="pricelist-collage_right" xmlns="http://www.w3.org/2000/svg"><circle cx="195" cy="195" r="176" stroke="#F47B61" stroke-opacity=".1" stroke-width="38"/></svg><svg fill="none" viewBox="0 0 371 336" id="promo-collage_left" xmlns="http://www.w3.org/2000/svg"><circle cx="-30" cy="-65" r="379" stroke="#F47B61" stroke-opacity=".34" stroke-width="44"/><path fill="#C4C4C4" d="M8.68 21.91l4.222 4.222-4.222 4.222-4.221-4.222zM65.356 21.911l4.222 4.222-4.222 4.221-4.221-4.221zM27.572 21.911l4.222 4.221-4.222 4.222-4.221-4.222zM84.247 21.91l4.222 4.222-4.222 4.222-4.221-4.222zM46.464 21.911l4.222 4.222-4.222 4.221-4.221-4.221zM103.14 21.911l4.22 4.222-4.22 4.22-4.222-4.22zM8.68 57.734l4.221 4.221-4.221 4.222-4.221-4.222zM65.356 57.734l4.221 4.222-4.221 4.221-4.222-4.221zM27.572 57.734l4.221 4.221-4.221 4.222-4.221-4.222zM84.247 57.734l4.221 4.221-4.221 4.222-4.221-4.222zM46.464 57.734l4.221 4.221-4.221 4.222-4.222-4.222zM103.139 57.734l4.221 4.221-4.221 4.222-4.221-4.222zM8.68 93.556l4.222 4.221L8.68 102 4.46 97.777zM65.356 93.556l4.222 4.222-4.222 4.221-4.221-4.221zM27.572 93.556l4.222 4.222-4.222 4.22-4.221-4.22zM84.247 93.556l4.222 4.221L84.247 102l-4.221-4.222zM46.464 93.556l4.222 4.222-4.222 4.221-4.221-4.221zM103.14 93.556l4.22 4.222-4.22 4.221-4.222-4.221zM8.68 4l4.222 4.221-4.222 4.222L4.46 8.22zM65.356 4l4.221 4.222-4.221 4.221-4.222-4.221zM27.572 4l4.221 4.221-4.221 4.222-4.221-4.222zM84.247 4L88.47 8.22l-4.222 4.222-4.221-4.222zM46.464 4l4.221 4.221-4.221 4.222-4.221-4.222zM103.139 4l4.221 4.221-4.221 4.222-4.221-4.222zM8.68 39.823l4.221 4.221-4.221 4.221-4.222-4.221zM65.356 39.823l4.221 4.222-4.221 4.221-4.222-4.221zM27.572 39.823l4.221 4.221-4.221 4.222-4.222-4.222zM84.247 39.823l4.221 4.221-4.221 4.222-4.222-4.222zM46.464 39.823l4.221 4.221-4.221 4.222-4.222-4.222zM103.139 39.823l4.221 4.221-4.221 4.222-4.222-4.222zM8.68 75.645l4.222 4.221-4.222 4.222-4.221-4.222zM65.356 75.645l4.221 4.222-4.221 4.221-4.221-4.221zM27.572 75.645l4.222 4.221-4.222 4.222-4.221-4.222zM84.247 75.645l4.222 4.221-4.222 4.222-4.221-4.222zM46.464 75.645l4.222 4.222-4.222 4.221-4.221-4.221zM103.14 75.645l4.22 4.221-4.22 4.222-4.222-4.222z"/></svg><svg fill="none" viewBox="0 0 1197 1143" id="promo-collage_right" xmlns="http://www.w3.org/2000/svg"><rect y="370.224" width="942" height="840" rx="62" transform="rotate(-23.142 0 370.224)" fill="url(#bbpaint0_linear)" fill-opacity=".72"/><rect x="410" y="1071" width="10" height="10" rx="5" fill="#fff"/><rect x="425" y="1066.37" width="85" height="9.292" rx="4.646" transform="rotate(-23.114 425 1066.37)" fill="#fff"/><path d="M387.729 1107.64a1.997 1.997 0 011.054-2.62l281.991-120.373a2 2 0 111.571 3.679L390.354 1108.7a2.003 2.003 0 01-2.625-1.06z" fill="#fff"/><defs><linearGradient id="bbpaint0_linear" x1="24.034" y1="1170.39" x2="960.366" y2="859.641" gradientUnits="userSpaceOnUse"><stop stop-color="#E069A9"/><stop offset="1" stop-color="#F47B61"/></linearGradient></defs></svg><svg viewBox="0 0 122 168" id="question" xmlns="http://www.w3.org/2000/svg"><path d="M74.97 125.728H43.69c-1.389 0-2.606.524-3.649 1.565-1.043 1.043-1.564 2.259-1.564 3.649v31.283c0 1.39.523 2.607 1.564 3.649 1.043 1.04 2.259 1.564 3.649 1.564h31.28c1.39 0 2.61-.522 3.648-1.564 1.046-1.042 1.568-2.259 1.568-3.649v-31.283c0-1.39-.52-2.606-1.568-3.649-1.038-1.044-2.258-1.565-3.647-1.565zM116.03 32.086c-3.564-6.563-8.168-12.1-13.817-16.62C96.567 10.95 90.22 7.341 83.183 4.65 76.145 1.957 69.151.609 62.198.609 35.785.61 15.628 12.166 1.725 35.28c-.695 1.13-.935 2.346-.718 3.65.219 1.301.892 2.388 2.021 3.257l21.376 16.293c1.13.694 2.216 1.041 3.259 1.041 1.565 0 2.91-.696 4.041-2.086 6.255-7.819 10.905-12.815 13.946-14.988 3.737-2.52 8.427-3.779 14.075-3.779 5.3 0 9.97 1.39 14.011 4.17 4.04 2.78 6.059 5.995 6.059 9.645 0 4.082-1.084 7.385-3.257 9.905-2.172 2.52-5.823 4.951-10.95 7.298-6.776 3.04-12.991 7.755-18.637 14.142-5.649 6.387-8.471 13.186-8.471 20.398v5.864c0 1.653.453 3.281 1.367 4.889.913 1.609 2.02 2.412 3.325 2.412h31.28c1.39 0 2.606-.672 3.65-2.024 1.04-1.343 1.564-2.755 1.564-4.23 0-2.172 1.194-5.086 3.582-8.733 2.39-3.65 5.365-6.476 8.93-8.475 3.387-1.911 6.035-3.452 7.948-4.626 1.916-1.172 4.412-3.066 7.498-5.67 3.084-2.608 5.474-5.193 7.166-7.756 1.695-2.563 3.217-5.887 4.563-9.972 1.35-4.083 2.022-8.472 2.022-13.163-.001-7.212-1.784-14.098-5.344-20.655z"/></svg><svg viewBox="0 0 274 274" id="quote" xmlns="http://www.w3.org/2000/svg"><g clip-path="url(#bdclip0)"><path d="M14.05 257.927h85.43c7.755 0 14.05-6.295 14.05-14.051v-85.429c0-7.756-6.295-14.05-14.05-14.05H58.591c.534-22.369 5.732-40.27 15.568-53.73 7.756-10.623 19.502-19.419 35.211-26.36 7.222-3.175 10.342-11.718 6.969-18.856l-10.116-21.357c-3.26-6.857-11.325-9.864-18.294-6.857-18.604 8.037-34.313 18.21-47.127 30.575-15.624 15.09-26.33 32.12-32.12 51.116C2.894 117.925 0 143.835 0 176.713v67.163c0 7.756 6.295 14.051 14.05 14.051zM244.202 17.293c-18.378 8.01-34.003 18.182-46.901 30.519-15.765 15.09-26.528 32.064-32.317 50.92-5.789 18.856-8.683 44.85-8.683 77.981v67.163c0 7.756 6.294 14.051 14.051 14.051h85.428c7.756 0 14.051-6.295 14.051-14.051v-85.429c0-7.756-6.295-14.05-14.051-14.05h-40.887c.534-22.37 5.732-40.27 15.568-53.73 7.756-10.623 19.502-19.419 35.211-26.36 7.222-3.175 10.342-11.718 6.969-18.856L262.553 24.15c-3.26-6.857-11.382-9.892-18.351-6.857z"/></g><defs><clipPath id="bdclip0"><path d="M0 0h274v274H0z"/></clipPath></defs></svg><svg viewBox="0 0 310.42 310.42" id="search" xmlns="http://www.w3.org/2000/svg"><path d="M273.587 214.965c49.11-49.111 49.109-129.021 0-178.132-49.111-49.111-129.02-49.111-178.13 0C53.793 78.497 47.483 140.462 76.51 188.85c0 0 2.085 3.498-.731 6.312l-64.263 64.263c-12.791 12.79-15.836 30.675-4.493 42.02l1.953 1.951c11.343 11.345 29.229 8.301 42.019-4.49l64.128-64.128c2.951-2.951 6.448-.866 6.448-.866 48.387 29.026 110.352 22.717 152.016-18.947zM118.711 191.71c-36.288-36.288-36.287-95.332.001-131.62 36.288-36.287 95.332-36.288 131.619 0 36.288 36.287 36.288 95.332 0 131.62-36.288 36.286-95.331 36.286-131.62 0z"/><path d="M126.75 118.424c-1.689 0-3.406-.332-5.061-1.031-6.611-2.798-9.704-10.426-6.906-17.038 17.586-41.559 65.703-61.062 107.261-43.476 6.611 2.798 9.704 10.426 6.906 17.038-2.799 6.612-10.425 9.703-17.039 6.906-28.354-11.998-61.186 1.309-73.183 29.663-2.099 4.959-6.913 7.938-11.978 7.938z"/></svg><svg viewBox="0 0 30 27" id="slider-arrow" xmlns="http://www.w3.org/2000/svg"><path d="M22.379 26.568l.99-.884c.308-.278.479-.649.479-1.044 0-.396-.17-.767-.48-1.045l-11.21-10.089 11.223-10.1c.309-.278.479-.65.479-1.045 0-.395-.17-.766-.48-1.044l-.983-.885c-.64-.576-1.68-.576-2.32 0L6.667 12.458c-.31.278-.527.648-.527 1.047v.005c0 .396.218.766.527 1.044L20.04 26.568c.31.279.733.432 1.172.432.44 0 .858-.153 1.167-.432z"/></svg><svg fill="none" viewBox="0 0 512 512" id="smartphone" xmlns="http://www.w3.org/2000/svg"><rect x="106" y="15" width="297" height="485" rx="10" fill="#fff"/><path d="M206 40c-5.52 0-10 4.48-10 10s4.48 10 10 10 10-4.48 10-10-4.48-10-10-10z" fill="#000"/><path d="M126 0c-16.543 0-30 13.457-30 30v452c0 16.543 13.457 30 30 30h260c16.543 0 30-13.457 30-30V30c0-16.543-13.457-30-30-30H126zm270 412H282.699l22.113-41.277a9.988 9.988 0 00-.238-9.868L283.66 326l20.914-34.855c2.84-4.735 1.309-10.879-3.429-13.719-4.735-2.844-10.879-1.309-13.719 3.429L272 306.562 247.66 266l56.914-94.855a10 10 0 00.18-9.981L270.949 100H396v312zM248.102 100l36.359 65.797-18.906 31.508-17.903-26.852c-3.062-4.594-9.273-5.836-13.871-2.773-4.593 3.062-5.836 9.273-2.769 13.867l23.156 34.734-26.742 44.574a9.987 9.987 0 000 10.29c3.375 5.628 48.871 81.453 57.082 95.136L260.012 412H116V100h132.102zM386 492H126c-5.516 0-10-4.484-10-10v-50h280v50c0 5.516-4.484 10-10 10zm10-462v50H116V30c0-5.516 4.484-10 10-10h260c5.516 0 10 4.484 10 10z" fill="#000"/><path d="M286 452h-60c-5.523 0-10 4.477-10 10s4.477 10 10 10h60c5.523 0 10-4.477 10-10s-4.477-10-10-10zM306 40h-60c-5.523 0-10 4.477-10 10s4.477 10 10 10h60c5.523 0 10-4.477 10-10s-4.477-10-10-10z" fill="#000"/></svg><svg viewBox="0 0 504 504" id="visa" xmlns="http://www.w3.org/2000/svg"><path fill="#3c58bf" d="M184.8 324.4l25.6-144h40l-24.8 144z"/><path fill="#293688" d="M184.8 324.4l32.8-144h32.8l-24.8 144z"/><path d="M370.4 182c-8-3.2-20.8-6.4-36.8-6.4-40 0-68.8 20-68.8 48.8 0 21.6 20 32.8 36 40s20.8 12 20.8 18.4c0 9.6-12.8 14.4-24 14.4-16 0-24.8-2.4-38.4-8l-5.6-2.4-5.6 32.8c9.6 4 27.2 8 45.6 8 42.4 0 70.4-20 70.4-50.4 0-16.8-10.4-29.6-34.4-40-14.4-7.2-23.2-11.2-23.2-18.4 0-6.4 7.2-12.8 23.2-12.8 13.6 0 23.2 2.4 30.4 5.6l4 1.6 6.4-31.2z" fill="#3c58bf"/><path d="M370.4 182c-8-3.2-20.8-6.4-36.8-6.4-40 0-61.6 20-61.6 48.8 0 21.6 12.8 32.8 28.8 40s20.8 12 20.8 18.4c0 9.6-12.8 14.4-24 14.4-16 0-24.8-2.4-38.4-8l-5.6-2.4-5.6 32.8c9.6 4 27.2 8 45.6 8 42.4 0 70.4-20 70.4-50.4 0-16.8-10.4-29.6-34.4-40-14.4-7.2-23.2-11.2-23.2-18.4 0-6.4 7.2-12.8 23.2-12.8 13.6 0 23.2 2.4 30.4 5.6l4 1.6 6.4-31.2z" fill="#293688"/><path d="M439.2 180.4c-9.6 0-16.8.8-20.8 10.4l-60 133.6h43.2l8-24h51.2l4.8 24H504l-33.6-144h-31.2zm-18.4 96c2.4-7.2 16-42.4 16-42.4s3.2-8.8 5.6-14.4l2.4 13.6s8 36 9.6 44h-33.6v-.8z" fill="#3c58bf"/><path d="M448.8 180.4c-9.6 0-16.8.8-20.8 10.4l-69.6 133.6h43.2l8-24h51.2l4.8 24H504l-33.6-144h-21.6zm-28 96c3.2-8 16-42.4 16-42.4s3.2-8.8 5.6-14.4l2.4 13.6s8 36 9.6 44h-33.6v-.8z" fill="#293688"/><path d="M111.2 281.2l-4-20.8c-7.2-24-30.4-50.4-56-63.2l36 128h43.2l64.8-144H152l-40.8 100z" fill="#3c58bf"/><path d="M111.2 281.2l-4-20.8c-7.2-24-30.4-50.4-56-63.2l36 128h43.2l64.8-144H160l-48.8 100z" fill="#293688"/><path d="M0 180.4l7.2 1.6c51.2 12 86.4 42.4 100 78.4l-14.4-68c-2.4-9.6-9.6-12-18.4-12H0z" fill="#ffbc00"/><path d="M0 180.4c51.2 12 93.6 43.2 107.2 79.2l-13.6-56.8c-2.4-9.6-10.4-15.2-19.2-15.2L0 180.4z" fill="#f7981d"/><path d="M0 180.4c51.2 12 93.6 43.2 107.2 79.2l-9.6-31.2c-2.4-9.6-5.6-19.2-16.8-23.2L0 180.4z" fill="#ed7c00"/><g fill="#051244"><path d="M151.2 276.4L124 249.2l-12.8 30.4-3.2-20c-7.2-24-30.4-50.4-56-63.2l36 128h43.2l20-48zM225.6 324.4l-34.4-35.2-6.4 35.2zM317.6 274.8c3.2 3.2 4.8 5.6 4 8.8 0 9.6-12.8 14.4-24 14.4-16 0-24.8-2.4-38.4-8l-5.6-2.4-5.6 32.8c9.6 4 27.2 8 45.6 8 25.6 0 46.4-7.2 58.4-20l-34.4-33.6zM364 324.4h37.6l8-24h51.2l4.8 24H504L490.4 266l-48-46.4 2.4 12.8s8 36 9.6 44h-33.6c3.2-8 16-42.4 16-42.4s3.2-8.8 5.6-14.4"/></g></svg><svg viewBox="0 0 64 64" id="warehouse" xmlns="http://www.w3.org/2000/svg"><path d="M62.732 14.373C54.812 5.874 43.611 1 32 1S9.187 5.874 1.268 14.373a.999.999 0 00-.269.682L1 62a1 1 0 001 1h60a1 1 0 001-1l.001-46.945a.999.999 0 00-.269-.682zm-3.129-.318H4.396C11.802 7.003 21.732 3 32 3s20.198 4.003 27.603 11.055zM11 24v-3c0-.551.449-1 1-1h40c.551 0 1 .449 1 1v3zm40 2v2H13v-2zM36 49H25V38a1 1 0 00-1-1H13v-3h38v27H37V50a1 1 0 00-1-1zm-7 2h2v2h-2zm-12 0h2v2h-2zm-4-2V39h2v3a1 1 0 001 1h4a1 1 0 001-1v-3h2v10zm38-17H13v-2h38zm-34 7h2v2h-2zm-4 12h2v3a1 1 0 001 1h4a1 1 0 001-1v-3h2v10H13zm12 10V51h2v3a1 1 0 001 1h4a1 1 0 001-1v-3h2v10zm28 0V26h1a1 1 0 001-1v-4c0-1.654-1.346-3-3-3H12c-1.654 0-3 1.346-3 3v4a1 1 0 001 1h1v35H3l-.001-44.946h58.002v17.945H56a1 1 0 00-1 1v10a1 1 0 001 1h5v15h-8zm8-20v3h-4v-8h4.001v3h-2v2z"/><path d="M22 10h20v2H22zM22 6h20v2H22zM15 57h6v2h-6zM15 45h6v2h-6zM27 57h6v2h-6zM6 35h2v2H6zM6 39h2v2H6zM6 43h2v2H6z"/></svg></svg>