<svg width="20" height="20" viewBox="0 0 20 20" fill="none" xmlns="http://www.w3.org/2000/svg">
<path d="M18.2025 0.661108C18.0306 0.414194 17.7991 0.233626 17.5085 0.119082C17.3234 0.0398637 17.1295 0.000185197 16.9267 0.000185197V0H3.07333C2.87068 0 2.67692 0.0396785 2.49181 0.118897C2.20105 0.233348 1.96965 0.414147 1.79783 0.660922C1.62606 0.907698 1.54004 1.18077 1.54004 1.48047V18.5195C1.54004 18.8193 1.62606 19.0923 1.79783 19.3393C1.96965 19.586 2.20105 19.7667 2.49181 19.8811C2.67673 19.9604 2.87068 20 3.07333 20C3.48767 20 3.8532 19.8545 4.17053 19.5639L10.0001 13.9588L15.8296 19.564C16.1381 19.8456 16.5038 19.9866 16.9267 19.9866C17.1471 19.9866 17.341 19.9516 17.5084 19.8811C17.799 19.7667 18.0305 19.5859 18.2024 19.3389C18.3742 19.0922 18.46 18.8192 18.46 18.5194V1.48065C18.4601 1.18096 18.374 0.907883 18.2025 0.661108ZM16.7681 18.1095L11.1766 12.7427L10.0001 11.6193L8.82366 12.7427L3.23219 18.1095V1.69219H16.7681V18.1095V18.1095Z" fill="black" fill-opacity="0.5"/>
</svg>
