<svg width="22" height="22" viewBox="0 0 22 22"  xmlns="http://www.w3.org/2000/svg">
<g clip-path="url(#clip0)">
<path d="M18.9556 15.312C17.6266 14.1753 16.2778 13.4867 14.9651 14.6217L14.1813 15.3077C13.6078 15.8056 12.5415 18.1323 8.41877 13.3897C4.29694 8.65316 6.74978 7.91568 7.32414 7.42202L8.11228 6.73519C9.41811 5.59763 8.92531 4.16559 7.98349 2.69148L7.41514 1.79861C6.46904 0.327933 5.43879 -0.63792 4.12952 0.497924L3.42209 1.11607C2.84344 1.53761 1.22595 2.90784 0.833602 5.51092C0.361406 8.63428 1.85097 12.2109 5.26365 16.1353C8.67204 20.0614 12.0092 22.0335 15.1703 21.9991C17.7974 21.9708 19.384 20.5611 19.8802 20.0485L20.5902 19.4295C21.8961 18.2945 21.0848 17.1389 19.7549 15.9997L18.9556 15.312Z" />
</g>
<defs>
<clipPath id="clip0">
<rect width="22" height="22"/>
</clipPath>
</defs>
</svg>
