<svg width="19" height="19" viewBox="0 0 19 19" fill="none" xmlns="http://www.w3.org/2000/svg">
<path
        d="M9.50001 0C5.54801 0 2.33301 3.215 2.33301 7.1665C2.33301 12.856 8.73101 18.5715 9.00351 18.8125C9.14601 18.9375 9.32301 19 9.50001 19C9.68401 19 9.86801 18.9325 10.0115 18.798C10.283 18.544 16.667 12.514 16.667 7.167C16.667 3.2155 13.451 0 9.50001 0ZM9.50001 10.584C7.61251 10.584 6.08301 9.0535 6.08301 7.1675C6.08301 5.2815 7.61251 3.751 9.50001 3.751C11.3865 3.751 12.916 5.281 12.916 7.1675C12.916 9.054 11.3865 10.584 9.50001 10.584Z" fill="#EA0016"/>
</svg>
