<svg width="42" height="42" viewBox="0 0 42 42" fill="none" xmlns="http://www.w3.org/2000/svg">
<rect width="42" height="42" fill="#FF0000"/>
<g clip-path="url(#clip0)">
<path d="M23.0575 20.5139L29.677 13.8942C30.1077 13.4636 30.1077 12.7674 29.677 12.3369C29.2464 11.9063 28.5502 11.9063 28.1196 12.3369L21.4999 18.9565L14.8804 12.3369C14.4497 11.9063 13.7537 11.9063 13.3231 12.3369C12.8923 12.7674 12.8923 13.4636 13.3231 13.8942L19.9426 20.5139L13.3231 27.1335C12.8923 27.5641 12.8923 28.2603 13.3231 28.6909C13.5377 28.9057 13.8198 29.0136 14.1018 29.0136C14.3837 29.0136 14.6657 28.9057 14.8804 28.6909L21.4999 22.0712L28.1196 28.6909C28.3344 28.9057 28.6163 29.0136 28.8983 29.0136C29.1802 29.0136 29.4622 28.9057 29.677 28.6909C30.1077 28.2603 30.1077 27.5641 29.677 27.1335L23.0575 20.5139Z" fill="white"/>
</g>
<defs>
<clipPath id="clip0">
<rect width="17" height="17" fill="white" transform="translate(13 12)"/>
</clipPath>
</defs>
</svg>
