<svg width="20" height="20" viewBox="0 0 20 20" xmlns="http://www.w3.org/2000/svg">
<g clip-path="url(#clip0)">
<path d="M12.6385 12.9068C15.696 12.9068 18.1837 10.4193 18.1837 7.3616C18.1837 4.30405 15.696 1.81641 12.6385 1.81641C9.5809 1.81641 7.09326 4.30405 7.09326 7.3616C7.09326 10.4193 9.5809 12.9068 12.6385 12.9068V12.9068ZM12.6385 2.59766C15.2653 2.59766 17.4024 4.7348 17.4024 7.3616C17.4024 9.9884 15.2653 12.1255 12.6385 12.1255C10.0117 12.1255 7.87451 9.98856 7.87451 7.3616C7.87451 4.7348 10.0117 2.59766 12.6385 2.59766V2.59766Z" />
<path d="M12.5804 14.8392C16.6716 14.8392 20 11.5108 20 7.41959C20 3.3284 16.6716 0 12.5804 0C8.48923 0 5.16083 3.3284 5.16083 7.41959C5.16083 8.97232 5.64056 10.4147 6.4592 11.6075L5.24551 12.8212L5.08026 12.6559C4.92767 12.5034 4.68033 12.5034 4.52774 12.6559L0.583344 16.6003C0.207214 16.9765 0 17.4767 0 18.0086C0 18.5405 0.207214 19.0405 0.583344 19.4167C0.959473 19.7928 1.4595 20 1.99142 20C2.52335 20 3.02353 19.7928 3.39966 19.4167L7.34421 15.4723C7.41745 15.399 7.4585 15.2997 7.4585 15.1961C7.4585 15.0925 7.41745 14.993 7.34421 14.9197L7.1788 14.7545L8.39249 13.5408C9.58527 14.3594 11.0278 14.8392 12.5804 14.8392V14.8392ZM12.5804 0.78125C16.2408 0.78125 19.2188 3.75916 19.2188 7.41959C19.2188 11.08 16.2408 14.0579 12.5804 14.0579C8.92014 14.0579 5.94208 11.08 5.94208 7.41959C5.94208 3.75916 8.92014 0.78125 12.5804 0.78125V0.78125ZM2.84729 18.8643C2.61856 19.0929 2.31476 19.2188 1.99142 19.2188C1.66809 19.2188 1.36429 19.0929 1.13571 18.8643C0.663757 18.3925 0.663757 17.6247 1.13571 17.1527L4.80392 13.4845L4.96918 13.6496C4.96918 13.6497 4.96933 13.6497 4.96933 13.6499L6.5155 15.1961L2.84729 18.8643ZM6.62643 14.202L5.79803 13.3736L6.93878 12.2328C7.19284 12.5301 7.46994 12.8072 7.76718 13.0612L6.62643 14.202Z"/>
<path d="M11.301 6.33478C11.5168 6.33478 11.6917 6.15992 11.6917 5.94416C11.6917 5.6753 11.8067 5.41819 12.0071 5.23874C12.2103 5.0567 12.4732 4.97324 12.7477 5.0036C13.1814 5.05152 13.531 5.4011 13.5789 5.83475C13.621 6.21714 13.4328 6.58472 13.0993 6.77118C12.5741 7.06492 12.2477 7.60813 12.2477 8.18873V8.74613C12.2477 8.96189 12.4226 9.13676 12.6383 9.13676C12.8539 9.13676 13.0289 8.96189 13.0289 8.74613V8.18873C13.0289 7.89072 13.202 7.60889 13.4806 7.4531C14.0888 7.11298 14.4321 6.44404 14.3554 5.749C14.2677 4.95478 13.6275 4.31482 12.8335 4.22708C12.3427 4.17291 11.8513 4.32947 11.4858 4.65677C11.1202 4.98422 10.9104 5.45343 10.9104 5.94416C10.9104 6.15992 11.0853 6.33478 11.301 6.33478Z" />
<path d="M12.6382 9.87842C12.5355 9.87842 12.4348 9.92023 12.3622 9.99286C12.2895 10.0655 12.2476 10.1664 12.2476 10.269C12.2476 10.3722 12.2894 10.4726 12.3622 10.5452C12.4348 10.6182 12.5355 10.6597 12.6382 10.6597C12.741 10.6597 12.8417 10.6182 12.9144 10.5452C12.987 10.4726 13.0288 10.3717 13.0288 10.269C13.0288 10.1664 12.9872 10.0655 12.9144 9.99286C12.8417 9.92023 12.741 9.87842 12.6382 9.87842Z" />
</g>
<defs>
<clipPath id="clip0">
<rect width="20" height="20" fill="white"/>
</clipPath>
</defs>
</svg>
