<svg width="30" height="22" viewBox="0 0 30 22" fill="none" xmlns="http://www.w3.org/2000/svg">
<path d="M28.9817 9.85806L26.9388 8.97394L25.2041 5.59824C24.7353 4.67395 23.7842 4.09793 22.746 4.10463H19.7588V3.26071C19.7588 1.7336 18.5398 0.487808 17.0127 0.487808H2.73289C1.20579 0.487808 0.000178215 1.7403 0.000178215 3.26071V16.1875C-0.0132174 17.1185 0.730241 17.882 1.66124 17.8954C1.66794 17.8954 1.67464 17.8954 1.68803 17.8954H2.04302C2.04302 17.9624 2.03632 17.9892 2.03632 18.0294C2.02962 19.945 3.57682 21.5056 5.4924 21.5123C7.40798 21.519 8.96857 19.9718 8.97527 18.0562C8.97527 18.0428 8.97527 18.0361 8.97527 18.0227C8.97527 17.9758 8.97527 17.9557 8.96857 17.8887H20.5089C20.5089 17.9557 20.5089 17.9825 20.5089 18.0227C20.5022 19.9383 22.0494 21.4989 23.965 21.5056C25.8806 21.5123 27.4412 19.9651 27.4479 18.0495C27.4479 18.0361 27.4479 18.0294 27.4479 18.016C27.4479 17.9691 27.4479 17.949 27.4479 17.882H28.3119C29.2429 17.882 29.9997 17.1252 29.9997 16.1942C29.9997 16.1875 29.9997 16.1808 29.9997 16.1674V11.412C30.0131 10.7556 29.6113 10.1327 28.9817 9.85806ZM5.51249 20.1794C4.33367 20.1794 3.38258 19.2283 3.38258 18.0495C3.38258 16.8707 4.33367 15.9196 5.51249 15.9196C6.69131 15.9196 7.6424 16.8707 7.6424 18.0495C7.6424 19.2216 6.68461 20.1794 5.51249 20.1794ZM18.4192 16.5693H8.65377C8.09115 15.3436 6.85875 14.5599 5.51249 14.5666C4.15953 14.5599 2.93383 15.3369 2.37121 16.5693H1.68803C1.4804 16.5693 1.33974 16.4085 1.33974 16.2009V12.7515H18.4192V16.5693ZM18.4192 3.2674V11.412H1.33974V3.2674C1.33974 2.48376 1.94925 1.83407 2.73289 1.83407H17.0127C17.7963 1.84077 18.4259 2.48376 18.4192 3.26071V3.2674ZM19.7588 5.45089H22.746C23.2751 5.44419 23.7708 5.7322 24.0186 6.20775L25.3582 8.7998H19.7588V5.45089V5.45089ZM23.9851 20.1794C22.8063 20.1794 21.8552 19.2283 21.8552 18.0495C21.8552 16.8707 22.8063 15.9196 23.9851 15.9196C25.1639 15.9196 26.115 16.8707 26.115 18.0495C26.115 19.2216 25.1639 20.1794 23.9851 20.1794ZM28.6669 16.2009C28.6669 16.4085 28.5262 16.5693 28.3186 16.5693H27.1264C26.3159 14.8345 24.253 14.0844 22.5183 14.8948C21.7815 15.2364 21.1854 15.8325 20.8438 16.5693H19.7588V10.1394H26.3226L28.4526 11.0771C28.5865 11.144 28.6736 11.2914 28.6669 11.4387V16.2009Z" fill="black"/>
</svg>
