<svg width="50" height="51" viewBox="0 0 50 51" xmlns="http://www.w3.org/2000/svg">
<path d="M47.9641 20.379L37.5 15.8946V7.03442C37.5 6.82724 37.4176 6.62856 37.2711 6.48208L33.3648 2.57583C33.2184 2.42931 33.0197 2.34697 32.8125 2.34692H3.90625C3.28465 2.34692 2.68851 2.59385 2.24897 3.03339C1.80943 3.47293 1.5625 4.06907 1.5625 4.69067V46.8782C1.5625 47.4998 1.80943 48.0959 2.24897 48.5355C2.68851 48.975 3.28465 49.2219 3.90625 49.2219H35.1562C35.7779 49.2219 36.374 48.975 36.8135 48.5355C37.2531 48.0959 37.5 47.4998 37.5 46.8782V44.936L41.5672 42.0344C43.6907 40.5145 45.4216 38.5104 46.6163 36.1883C47.8111 33.8661 48.4354 31.2928 48.4375 28.6813V21.0969C48.4375 20.9441 48.3926 20.7946 48.3085 20.6669C48.2243 20.5393 48.1046 20.4392 47.9641 20.379V20.379ZM35.9375 7.35786V7.81567H32.0312V3.90942H32.4891L35.9375 7.35786ZM35.1562 47.6594H3.90625C3.69905 47.6594 3.50034 47.5771 3.35382 47.4306C3.20731 47.2841 3.125 47.0854 3.125 46.8782V4.69067C3.125 4.48347 3.20731 4.28476 3.35382 4.13825C3.50034 3.99173 3.69905 3.90942 3.90625 3.90942H30.4688V8.59692C30.4688 8.80412 30.5511 9.00284 30.6976 9.14935C30.8441 9.29586 31.0428 9.37817 31.25 9.37817H35.9375V15.8946L25.4734 20.379C25.3329 20.4392 25.2132 20.5393 25.129 20.6669C25.0449 20.7946 25 20.9441 25 21.0969V28.6813C25.0021 31.2928 25.6264 33.8661 26.8212 36.1883C28.0159 38.5104 29.7468 40.5145 31.8703 42.0344L35.9375 44.936V46.8782C35.9375 47.0854 35.8552 47.2841 35.7087 47.4306C35.5622 47.5771 35.3635 47.6594 35.1562 47.6594ZM46.875 28.6813C46.8727 31.0436 46.3077 33.3714 45.2268 35.4719C44.1459 37.5724 42.5802 39.3852 40.6594 40.7602L36.7188 43.5743L32.7781 40.7618C30.8571 39.3866 29.2912 37.5735 28.2103 35.4727C27.1294 33.3719 26.5646 31.0439 26.5625 28.6813V21.6118L36.7188 17.2594L46.875 21.6118V28.6813Z" />
<path d="M36.4282 19.5899L28.6157 22.7149C28.4707 22.773 28.3465 22.8732 28.259 23.0025C28.1716 23.1319 28.1249 23.2845 28.125 23.4407V28.3703C28.1204 30.3629 28.5663 32.3308 29.4295 34.1267C30.2926 35.9227 31.5506 37.5002 33.1094 38.7414L36.2305 41.2414C36.3691 41.3524 36.5413 41.4128 36.7188 41.4128C36.8963 41.4128 37.0685 41.3524 37.2071 41.2414L40.3282 38.7414C41.887 37.5002 43.145 35.9227 44.0081 34.1267C44.8712 32.3308 45.3172 30.3629 45.3125 28.3703V23.4407C45.3127 23.2845 45.266 23.1319 45.1785 23.0025C45.0911 22.8732 44.9669 22.773 44.8219 22.7149L37.0094 19.5899C36.8228 19.5157 36.6148 19.5157 36.4282 19.5899V19.5899ZM43.75 23.9696V28.3703C43.7543 30.1284 43.3609 31.8646 42.5994 33.4491C41.8378 35.0336 40.7278 36.4254 39.3524 37.5203L36.7188 39.6281L34.0852 37.5188C32.71 36.424 31.6001 35.0325 30.8386 33.4482C30.077 31.864 29.6835 30.1281 29.6875 28.3703V23.9696L36.7188 21.1571L43.75 23.9696Z" />
<path d="M5.46875 16.4094H27.3438C27.551 16.4094 27.7497 16.3271 27.8962 16.1806C28.0427 16.0341 28.125 15.8354 28.125 15.6282V6.25317C28.125 6.04597 28.0427 5.84726 27.8962 5.70075C27.7497 5.55423 27.551 5.47192 27.3438 5.47192H5.46875C5.26155 5.47192 5.06284 5.55423 4.91632 5.70075C4.76981 5.84726 4.6875 6.04597 4.6875 6.25317V15.6282C4.6875 15.8354 4.76981 16.0341 4.91632 16.1806C5.06284 16.3271 5.26155 16.4094 5.46875 16.4094ZM6.25 7.03442H26.5625V14.8469H6.25V7.03442Z"/>
<path d="M22.6562 35.1594H5.46875C5.26155 35.1594 5.06284 35.2417 4.91632 35.3882C4.76981 35.5348 4.6875 35.7335 4.6875 35.9407V45.3157C4.6875 45.5229 4.76981 45.7216 4.91632 45.8681C5.06284 46.0146 5.26155 46.0969 5.46875 46.0969H22.6562C22.8635 46.0969 23.0622 46.0146 23.2087 45.8681C23.3552 45.7216 23.4375 45.5229 23.4375 45.3157V35.9407C23.4375 35.7335 23.3552 35.5348 23.2087 35.3882C23.0622 35.2417 22.8635 35.1594 22.6562 35.1594ZM21.875 44.5344H6.25V36.7219H21.875V44.5344Z" />
<path d="M4.6875 20.3157H23.4375V21.8782H4.6875V20.3157Z" />
<path d="M4.6875 25.0032H23.4375V26.5657H4.6875V25.0032Z" />
<path d="M4.6875 29.6907H23.4375V31.2532H4.6875V29.6907Z" />
</svg>
