<svg width="57" height="51" viewBox="0 0 57 51"  xmlns="http://www.w3.org/2000/svg">
<g clip-path="url(#clip0)">
<path d="M50.2006 0.78418H13.7993C13.3947 0.78418 13.0669 1.11211 13.0669 1.51661V47.0183C13.0669 47.4228 13.3947 47.7508 13.7993 47.7508H14.5835V50.0518C14.5835 50.4562 14.9113 50.7842 15.3159 50.7842H48.684C49.0886 50.7842 49.4164 50.4562 49.4164 50.0518V47.7508H50.2006C50.6052 47.7508 50.933 47.4228 50.933 47.0183V33.447C50.933 33.0425 50.6052 11.3494 50.2006 11.3494C49.796 11.3494 49.4682 33.0425 49.4682 33.447V40.2263H21C20.5954 40.2263 21.5 40.5955 21.5 41C21.5 41.4045 20.5954 41.6911 21 41.6911H49.4682V46.2858H47.8997V45.6378C47.8997 44.3225 46.8296 43.2524 45.5141 43.2524H42.7534C41.4379 43.2524 40.3678 44.3225 40.3678 45.6378V46.2858H14.5317V41.6911H21.5819C21.9865 41.6911 22.3143 41.3632 22.3143 40.9587C22.3143 40.5542 21.9865 40.2263 21.5819 40.2263H14.5317V11.3494H31.9207C32.3253 11.3494 32.6531 11.0215 32.6531 10.617C32.6531 10.2125 32.3253 9.88454 31.9207 9.88454H26.6655V2.24903H49.4682V9.88454H31.5C31.0954 9.88454 31.5 10.2125 31.5 10.617C31.5 11.0215 31.0954 11.3494 31.5 11.3494H49.4683V30.3343C49.4683 30.7388 49.7961 45.6379 50.2007 45.6379C50.6053 45.6379 50.9331 30.7388 50.9331 30.3343V1.51661C50.933 1.11211 50.6052 0.78418 50.2006 0.78418ZM41.8327 45.6379C41.8327 45.1303 42.2457 44.7173 42.7535 44.7173H45.5142C46.0218 44.7173 46.4349 45.1303 46.4349 45.6379V46.2859H41.8328L41.8327 45.6379ZM47.9515 47.7508V49.3193H16.0484V47.7508H47.9515ZM14.5317 2.24903H25.2007V9.88454H14.5317V2.24903Z" />
<path d="M35.0335 8.31596H47.1672C47.5718 8.31596 47.8997 7.98802 47.8997 7.58353V4.55001C47.8997 4.14551 47.5718 3.81758 47.1672 3.81758H35.0335C34.6289 3.81758 34.301 4.14551 34.301 4.55001V7.58343C34.301 7.98802 34.6289 8.31596 35.0335 8.31596V8.31596ZM35.7659 5.28244H46.4348V6.851H35.7659V5.28244Z" />
<path d="M28.2341 6.0667C28.2341 7.30694 29.2431 8.31583 30.4833 8.31583C31.7234 8.31583 32.7324 7.30684 32.7324 6.0667C32.7324 4.82657 31.7234 3.81758 30.4833 3.81758C29.2431 3.81758 28.2341 4.82657 28.2341 6.0667V6.0667ZM31.2675 6.0667C31.2675 6.49913 30.9157 6.85098 30.4833 6.85098C30.0508 6.85098 29.699 6.49913 29.699 6.0667C29.699 5.63428 30.0508 5.28243 30.4833 5.28243C30.9157 5.28243 31.2675 5.63428 31.2675 6.0667Z" />
<path d="M32.0016 38.654C39.0971 38.654 44.8698 32.8814 44.8698 25.7859C44.8698 18.6905 39.0972 12.9178 32.0016 12.9178C24.9061 12.9178 19.1335 18.6905 19.1335 25.7859C19.1335 32.8814 24.9061 38.654 32.0016 38.654V38.654ZM32.0016 14.3827C38.2895 14.3827 43.4049 19.4982 43.4049 25.7859C43.4049 32.0737 38.2895 37.1891 32.0016 37.1891C25.7139 37.1891 20.5984 32.0737 20.5984 25.7859C20.5984 19.4982 25.7139 14.3827 32.0016 14.3827V14.3827Z" />
<path d="M26.9653 22.3277C27.2699 22.596 27.7327 22.5647 27.999 22.2623C29.0119 21.1127 30.4708 20.4533 32.0017 20.4533C32.4063 20.4533 32.7341 20.1254 32.7341 19.7209C32.7341 19.3164 32.4063 18.9885 32.0017 18.9885C30.0503 18.9885 28.1908 19.8287 26.8999 21.294C26.6325 21.5974 26.6617 22.0602 26.9653 22.3277Z" />
<path d="M16.8327 3.81799C16.4286 3.81799 16.1003 4.14524 16.1003 4.54973C16.1003 4.95276 16.4257 5.28215 16.8328 5.28215C17.2367 5.28215 17.5652 4.95374 17.5652 4.54973C17.5653 4.14211 17.2322 3.81799 16.8327 3.81799V3.81799Z" />
<path d="M19.866 3.81799C19.4647 3.81799 19.1335 4.14358 19.1335 4.54973C19.1335 4.96194 19.471 5.28313 19.866 5.28313C20.2641 5.28313 20.5984 4.95989 20.5984 4.54973C20.5984 4.14495 20.2695 3.81799 19.866 3.81799V3.81799Z" />
<path d="M22.8995 3.81799C22.4984 3.81799 22.167 4.14534 22.167 4.54973C22.167 4.95374 22.4955 5.28215 22.8994 5.28215C23.3017 5.28215 23.6318 4.95881 23.6318 4.54973C23.6318 4.14856 23.3071 3.81799 22.8995 3.81799V3.81799Z" />
<path d="M16.8327 6.8512C16.4277 6.8512 16.1003 7.17854 16.1003 7.58381C16.1003 7.99377 16.4374 8.31624 16.8328 8.31624C17.2249 8.31624 17.5652 7.9969 17.5652 7.58381C17.5653 7.19036 17.2466 6.8512 16.8327 6.8512Z" />
<path d="M19.8701 6.85156C19.4593 6.85156 19.1335 7.18037 19.1335 7.58379C19.1335 7.99072 19.4664 8.31621 19.866 8.31621C20.258 8.31621 20.5984 7.99824 20.5984 7.58379C20.5984 7.16875 20.2586 6.85156 19.8701 6.85156Z" />
<path d="M22.8995 6.85123C22.4989 6.85123 22.167 7.1775 22.167 7.58384C22.167 7.98375 22.4915 8.31627 22.8994 8.31627C23.2962 8.31627 23.6318 7.99556 23.6318 7.58384C23.6318 7.18414 23.3103 6.85123 22.8995 6.85123Z" />
<path d="M22.1151 13.6503C22.1151 13.2458 21.7873 12.9178 21.3827 12.9178H16.8325C16.4279 12.9178 16.1001 13.2458 16.1001 13.6503C16.1001 14.0548 16.4279 14.3827 16.8325 14.3827H21.3827C21.7873 14.3827 22.1151 14.0548 22.1151 13.6503Z" />
<path d="M22.1709 25.7861C22.1709 31.2068 26.581 35.6169 32.0018 35.6169C33.5173 35.6169 34.9989 35.2715 36.3521 34.6011C36.3523 34.601 36.3523 34.6009 36.3525 34.6009C36.3669 34.5937 36.3813 34.5866 36.3955 34.5795C39.7175 32.9189 41.8329 29.5282 41.8329 25.7862C41.8329 20.3106 37.395 15.9967 32.0786 15.9555C32.0531 15.9553 32.0275 15.9552 32.0019 15.9552C26.5973 15.9551 22.1709 20.3494 22.1709 25.7861V25.7861ZM23.6358 25.8056C24.1962 25.9142 24.565 26.1412 25.0005 26.4096C25.6778 26.8268 26.4452 27.2997 27.9208 27.2997C29.3965 27.2997 30.1642 26.8269 30.8415 26.4097C31.4513 26.034 31.9331 25.7372 32.9938 25.7372C34.0546 25.7372 34.5363 26.034 35.1462 26.4097C35.7303 26.7695 36.3815 27.1706 37.4962 27.2743C37.7441 28.3935 38.2718 29.4268 39.0456 30.2956C38.2416 31.547 37.1135 32.5714 35.7807 33.249C34.6438 33.8249 33.3546 34.1522 32.0016 34.1522C27.3953 34.1521 23.6464 30.4097 23.6358 25.8056V25.8056ZM40.3679 25.7861C40.3679 26.8742 40.159 27.9147 39.7793 28.8692C39.1421 27.9755 38.7995 26.9101 38.7995 25.7842C38.7995 24.6589 39.1418 23.5939 39.7783 22.7006C40.1586 23.6558 40.3679 24.6969 40.3679 25.7861V25.7861ZM32.0018 17.42C32.0224 17.42 32.0431 17.4201 32.0637 17.4203C32.0692 17.4203 32.0748 17.4204 32.0802 17.4205C32.0961 17.4206 32.112 17.4208 32.1278 17.421C32.1331 17.4211 32.1384 17.4212 32.1435 17.4212C35.0427 17.4719 37.5792 18.9953 39.0444 21.2745C37.9393 22.5159 37.3363 24.0933 37.3346 25.7769C36.7427 25.6727 36.3633 25.439 35.9146 25.1625C35.2372 24.7453 34.4696 24.2725 32.9939 24.2725C31.5182 24.2725 30.7505 24.7453 30.0733 25.1625C29.4634 25.5382 28.9817 25.835 27.9209 25.835C26.8604 25.835 26.3787 25.5382 25.769 25.1626C25.248 24.8416 24.6723 24.4869 23.7608 24.341C24.4473 20.4141 27.8815 17.42 32.0018 17.42V17.42Z" />
</g>
<rect x="7" y="15.7842" width="23" height="23" rx="11.5" fill="white"/>
<g clip-path="url(#clip1)">
<path d="M0.68666 41.7833L8.50775 33.9622C7.23363 32.0431 6.5625 29.8206 6.5625 27.5029C6.5625 21.0412 11.8195 15.7842 18.2812 15.7842C24.743 15.7842 30 21.0412 30 27.5029C30 33.9646 24.743 39.2217 18.2812 39.2217C15.9635 39.2217 13.7411 38.5505 11.8219 37.2765L9.66012 39.4383C9.65982 39.4386 9.65953 39.4389 9.65918 39.4392L4.0009 45.0975C3.55805 45.5403 2.96959 45.7842 2.34375 45.7842C1.71791 45.7842 1.12945 45.5403 0.686835 45.0977C0.243925 44.6551 0 44.0666 0 43.4404C0 42.8142 0.243925 42.2257 0.68666 41.7833ZM12.0975 36.0416C12.0975 36.0417 12.0976 36.0417 12.0976 36.0417C13.9062 37.3554 16.0444 38.0498 18.2812 38.0498C24.0968 38.0498 28.8281 33.3185 28.8281 27.5029C28.8281 21.6874 24.0968 16.9561 18.2812 16.9561C12.4657 16.9561 7.73438 21.6874 7.73438 27.5029C7.73438 29.7397 8.42877 31.8779 9.7425 33.6866C10.3997 34.5921 11.1921 35.3844 12.0975 36.0416ZM10.8682 36.5728C10.2618 36.0767 9.7074 35.5224 9.21135 34.916L7.54898 36.5783C8.05453 37.175 8.60918 37.7297 9.20584 38.2352L10.8682 36.5728ZM1.51529 44.2689C1.73678 44.4904 2.03098 44.6123 2.34375 44.6123C2.65652 44.6123 2.95072 44.4904 3.17221 44.2689L8.37504 39.0661C7.78166 38.5568 7.22736 38.0026 6.71818 37.4092L1.51518 42.6122C1.29381 42.8333 1.17188 43.1274 1.17188 43.4404C1.17188 43.7534 1.29381 44.0475 1.51529 44.2689Z" />
<path d="M18.2812 18.1279C23.4507 18.1279 27.6562 22.3335 27.6562 27.5029C27.6562 32.6724 23.4507 36.8779 18.2812 36.8779C13.1118 36.8779 8.90625 32.6724 8.90625 27.5029C8.90625 22.3335 13.1118 18.1279 18.2812 18.1279ZM18.2812 35.7061C22.8045 35.7061 26.4844 32.0261 26.4844 27.5029C26.4844 22.9797 22.8045 19.2998 18.2812 19.2998C13.758 19.2998 10.0781 22.9797 10.0781 27.5029C10.0781 32.0261 13.758 35.7061 18.2812 35.7061Z" />
<path d="M11.7149 24.9877C12.2195 23.6745 13.098 22.5517 14.2556 21.7408C15.4407 20.9105 16.8328 20.4717 18.2812 20.4717C18.6048 20.4717 18.8672 20.7341 18.8672 21.0576C18.8672 21.3812 18.6048 21.6436 18.2812 21.6436C15.8731 21.6436 13.674 23.1563 12.8088 25.408C12.7193 25.641 12.4973 25.784 12.2617 25.784C12.1919 25.784 12.1208 25.7714 12.0517 25.7448C11.7497 25.6287 11.5989 25.2898 11.7149 24.9877Z" />
</g>
<defs>
<clipPath id="clip0">
<rect width="50" height="50" fill="white" transform="translate(7 0.78418)"/>
</clipPath>
<clipPath id="clip1">
<rect width="30" height="30" fill="white" transform="matrix(-1 0 0 1 30 15.7842)"/>
</clipPath>
</defs>
</svg>
