<svg width="50" height="51" viewBox="0 0 50 51"  xmlns="http://www.w3.org/2000/svg">
<g clip-path="url(#clip0)">
<path d="M45.6123 34.3775C43.7433 33.2989 41.5916 32.9485 39.4948 33.3708L31.9049 25.7842L39.5006 18.1918C40.0675 18.3043 40.6369 18.359 41.2016 18.3589C44.2835 18.3588 47.2229 16.7283 48.8189 13.9651C49.9927 11.9329 50.3045 9.56546 49.6969 7.29878C49.0892 5.03221 47.635 3.13786 45.602 1.96464C41.4057 -0.456904 36.0204 0.985436 33.5975 5.18024C32.5184 7.04842 32.1679 9.19938 32.5903 11.2953L25 18.8822L24.3838 18.2663C24.0023 17.885 23.384 17.8852 23.0029 18.2666C22.6217 18.648 22.6218 19.2663 23.0032 19.6475L23.6188 20.2628L19.4764 24.4036L12.1921 17.1223L16.331 12.9781L23.0032 19.6501C23.3846 20.0313 23.353 19.3813 23.7343 19C24.1155 18.6186 25.3814 19.2663 25 18.8851L17.404 11.2895C18.1306 7.6299 16.4464 3.86269 13.1755 1.97499C10.6416 0.512728 7.55653 0.406 4.92329 1.68986C4.04974 2.1157 3.595 2.66633 3.57196 3.32652C3.5493 3.9745 3.94145 4.53597 4.73737 4.9953L7.35889 6.50814C7.80524 6.76573 7.80524 6.89052 7.80524 7.11687V8.23912C7.80524 8.93896 7.73571 9.05916 7.12933 9.40912L6.15706 9.9702C5.96713 10.08 5.8524 10.1462 5.40557 9.88828L2.78414 8.37544C1.98823 7.91601 1.30587 7.85752 0.756119 8.20114C0.196018 8.5512 -0.0535674 9.22008 0.0141994 10.1892C0.218769 13.111 1.85377 15.7285 4.3878 17.1909C6.25666 18.2695 8.40869 18.6198 10.5052 18.1975L18.0951 25.7843L10.4995 33.3766C6.83863 32.6499 3.06976 34.3336 1.18127 37.6031C0.00746191 39.6354 -0.304324 42.0028 0.303234 44.2695C0.910889 46.5361 2.36504 48.4304 4.39795 49.6036C5.77848 50.4003 7.28693 50.7789 8.77702 50.7787C11.8163 50.7785 14.7767 49.203 16.4024 46.3882C17.4815 44.5201 17.8321 42.3691 17.4097 40.2732L24.9998 32.6861L32.5958 40.2789C31.8692 43.9386 33.5535 47.7058 36.8243 49.5934C38.1817 50.3768 39.6968 50.7711 41.2164 50.7711C42.5334 50.771 43.8539 50.4746 45.0765 49.8786C45.95 49.4528 46.4048 48.902 46.4278 48.2419C46.4504 47.5939 46.0584 47.0325 45.2624 46.5731L42.641 45.0603C42.1947 44.8026 42.1946 44.6779 42.1946 44.4516V43.3293C42.1946 42.6295 42.2641 42.5092 42.8705 42.1592L43.8427 41.5982C44.0328 41.4885 44.1474 41.4223 44.5941 41.6801L47.2156 43.1929C48.0114 43.6524 48.6939 43.7109 49.2438 43.3672C49.8038 43.0172 50.0535 42.3482 49.9856 41.3791C49.7814 38.4574 48.1464 35.8399 45.6123 34.3775ZM5.36397 15.4994C3.42441 14.3801 2.16204 12.3903 1.97084 10.1609L4.42949 11.5798C5.04017 11.9323 5.9851 12.3244 7.13323 11.6617L8.1056 11.1007C9.31027 10.4054 9.75817 9.6299 9.75827 8.23922V7.11687C9.75827 5.79131 8.94614 5.1693 8.33517 4.8167L5.8773 3.39829C7.90484 2.44926 10.2597 2.5471 12.1994 3.66642C14.8002 5.16735 16.1108 8.19518 15.4472 11.0994L10.3139 16.2392C8.62313 16.6299 6.87486 16.3713 5.36397 15.4994ZM35.2887 6.157C37.1733 2.89443 41.3617 1.77257 44.626 3.65627C46.207 4.56868 47.3379 6.04197 47.8104 7.80459C48.2829 9.56712 48.0405 11.4081 47.1278 12.9884C45.8861 15.138 43.6004 16.4063 41.2031 16.4061C40.7012 16.4061 40.1942 16.35 39.691 16.2352L34.5486 11.1038C34.1581 9.41401 34.4166 7.66681 35.2887 6.157ZM14.7115 45.4115C12.827 48.674 8.63836 49.7958 5.37422 47.9121C3.79313 46.9997 2.66218 45.5264 2.18967 43.7638C1.71716 42.0013 1.95971 40.1602 2.87242 38.5799C4.11399 36.4303 6.39981 35.1622 8.79694 35.1622C9.29894 35.1622 9.80602 35.2182 10.3092 35.3331L15.4517 40.4645C15.842 42.1545 15.5836 43.9016 14.7115 45.4115ZM16.3346 38.5866L12.1886 34.4496L33.6656 12.9816L37.8115 17.1187L16.3346 38.5866ZM26.3813 31.3055L30.5237 27.1648L37.808 34.446L33.6691 38.5903L26.3813 31.3055ZM45.5707 39.9887C44.9599 39.6361 44.0151 39.2441 42.867 39.9066L41.8946 40.4677C40.6899 41.163 40.242 41.9386 40.242 43.329V44.4516C40.2422 45.7771 41.0542 46.3991 41.6652 46.7518L44.1229 48.17C42.0955 49.1192 39.7404 49.0213 37.8007 47.9019C35.2 46.4009 33.8894 43.3731 34.553 40.4688L39.6861 35.3291C41.3772 34.9386 43.1254 35.197 44.6362 36.0689C46.5758 37.1883 47.8381 39.178 48.0293 41.4075L45.5707 39.9887Z" />
<path d="M37.7907 12.1091L40.7201 13.7996C40.871 13.8868 41.0396 13.9304 41.2081 13.9304C41.3767 13.9304 41.5452 13.8868 41.6962 13.7996L44.6255 12.1091C44.9278 11.9347 45.1139 11.6122 45.1139 11.2634V7.88223C45.1139 7.53334 44.9278 7.21091 44.6255 7.03651L41.6962 5.34596C41.3943 5.17166 41.0221 5.17156 40.7201 5.34596L37.7907 7.03651C37.4884 7.21091 37.3022 7.53334 37.3022 7.88223V11.2634C37.3022 11.6122 37.4884 11.9346 37.7907 12.1091V12.1091ZM39.2552 8.44605L41.2081 7.31901L43.161 8.44605V10.6993L41.2081 11.8264L39.2552 10.6993V8.44605Z" />
<path d="M12.2093 39.4594L9.27989 37.7688C8.97777 37.5945 8.60584 37.5945 8.30372 37.7688L5.37432 39.4594C5.0721 39.6338 4.88599 39.9562 4.88599 40.3051V43.6861C4.88599 44.035 5.0722 44.3575 5.37432 44.5319L8.30372 46.2224C8.45478 46.3096 8.62322 46.3532 8.79186 46.3532C8.96049 46.3532 9.12893 46.3096 9.27999 46.2224L12.2094 44.5319C12.5116 44.3575 12.6977 44.035 12.6977 43.6861V40.3051C12.6976 39.9562 12.5114 39.6338 12.2093 39.4594V39.4594ZM10.7447 43.1222L8.79176 44.2493L6.83882 43.1222V40.8689L8.79176 39.7419L10.7447 40.8689V43.1222Z" />
</g>
<defs>
<clipPath id="clip0">
<rect width="50" height="50" fill="white" transform="translate(0 0.78418)"/>
</clipPath>
</defs>
</svg>
