<?xml version="1.0" encoding="iso-8859-1"?>
<!-- Generator: Adobe Illustrator 19.0.0, SVG Export Plug-In . SVG Version: 6.00 Build 0)  -->
<svg version="1.1" id="Capa_1" xmlns="http://www.w3.org/2000/svg" xmlns:xlink="http://www.w3.org/1999/xlink" x="0px" y="0px"
	 viewBox="0 0 512 512" style="enable-background:new 0 0 512 512;" xml:space="preserve">
<path style="fill:#303C42;" d="M469.333,106.667V85.333C469.333,73.573,459.771,64,448,64h-64c-11.771,0-21.333,9.573-21.333,21.333
	v21.333h-6.25l-8.833-8.833c-7.938-7.948-18.938-12.5-30.167-12.5H194.583c-11.229,0-22.229,4.552-30.167,12.5l-8.833,8.833h-6.25
	V85.333C149.333,73.573,139.771,64,128,64H64c-11.771,0-21.333,9.573-21.333,21.333v21.333C19.146,106.667,0,125.802,0,149.333v256
	C0,428.865,19.146,448,42.667,448h426.667C492.854,448,512,428.865,512,405.333v-256C512,125.802,492.854,106.667,469.333,106.667z"
	/>
<path style="fill:#818181;" d="M490.667,405.333c0,11.76-9.563,21.333-21.333,21.333H42.667c-11.771,0-21.333-9.573-21.333-21.333
	v-256c0-11.76,9.563-21.333,21.333-21.333H160c2.833,0,5.542-1.125,7.542-3.125l11.958-11.958c3.979-3.969,9.479-6.25,15.083-6.25
	h122.833c5.604,0,11.104,2.281,15.083,6.25l11.958,11.958c2,2,4.708,3.125,7.542,3.125h117.333c11.771,0,21.333,9.573,21.333,21.333
	V405.333z"/>
<path style="opacity:0.1;fill:#010101;enable-background:new    ;" d="M469.333,405.333H42.667c-11.771,0-21.333-8.297-21.333-18.49
	v18.49c0,11.76,9.563,21.333,21.333,21.333h426.667c11.771,0,21.333-9.573,21.333-21.333v-18.49
	C490.667,397.036,481.104,405.333,469.333,405.333z"/>
<path style="opacity:0.2;fill:#FFFFFF;enable-background:new    ;" d="M469.333,128H352c-2.833,0-5.542-1.125-7.542-3.125
	L332.5,112.917c-3.979-3.969-9.479-6.25-15.083-6.25H194.583c-5.604,0-11.104,2.281-15.083,6.25l-11.958,11.958
	c-2,2-4.708,3.125-7.542,3.125H42.667c-11.771,0-21.333,9.573-21.333,21.333v15.645c0-10.193,9.563-18.49,21.333-18.49H160
	c2.833,0,5.542-0.975,7.542-2.708l11.958-10.363c3.979-3.44,9.479-5.417,15.083-5.417h122.833c5.604,0,11.104,1.977,15.083,5.417
	l11.958,10.363c2,1.733,4.708,2.708,7.542,2.708h117.333c11.771,0,21.333,8.297,21.333,18.49v-15.645
	C490.667,137.573,481.104,128,469.333,128z"/>
<path style="fill:#303C42;" d="M437.333,192h-10.667v-10.667c0-5.896-4.771-10.667-10.667-10.667
	c-5.896,0-10.667,4.771-10.667,10.667V192h-10.667c-5.896,0-10.667,4.771-10.667,10.667s4.771,10.667,10.667,10.667h10.667V224
	c0,5.896,4.771,10.667,10.667,10.667c5.896,0,10.667-4.771,10.667-10.667v-10.667h10.667c5.896,0,10.667-4.771,10.667-10.667
	S443.229,192,437.333,192z"/>
<rect x="384" y="85.333" style="fill:#EF4438;" width="64" height="21.333"/>
<rect x="384" y="85.333" style="opacity:0.2;fill:#FFFFFF;enable-background:new    ;" width="64" height="10.667"/>
<rect x="64" y="85.333" style="fill:#3D82C4;" width="64" height="21.333"/>
<rect x="64" y="85.333" style="opacity:0.2;fill:#FFFFFF;enable-background:new    ;" width="64" height="10.667"/>
<path style="fill:#303C42;" d="M117.333,192H74.667C68.771,192,64,196.771,64,202.667s4.771,10.667,10.667,10.667h42.667
	c5.896,0,10.667-4.771,10.667-10.667S123.229,192,117.333,192z"/>
<linearGradient id="SVGID_1_" gradientUnits="userSpaceOnUse" x1="-46.7537" y1="639.8191" x2="-22.1047" y2="628.3246" gradientTransform="matrix(21.3333 0 0 -21.3333 996.3334 13791.667)">
	<stop  offset="0" style="stop-color:#FFFFFF;stop-opacity:0.2"/>
	<stop  offset="1" style="stop-color:#FFFFFF;stop-opacity:0"/>
</linearGradient>
<path style="fill:url(#SVGID_1_);" d="M469.333,106.667V85.333C469.333,73.573,459.771,64,448,64h-64
	c-11.771,0-21.333,9.573-21.333,21.333v21.333h-6.25l-8.833-8.833c-7.938-7.948-18.938-12.5-30.167-12.5H194.583
	c-11.229,0-22.229,4.552-30.167,12.5l-8.833,8.833h-6.25V85.333C149.333,73.573,139.771,64,128,64H64
	c-11.771,0-21.333,9.573-21.333,21.333v21.333C19.146,106.667,0,125.802,0,149.333v256C0,428.865,19.146,448,42.667,448h426.667
	C492.854,448,512,428.865,512,405.333v-256C512,125.802,492.854,106.667,469.333,106.667z"/>
<g>
</g>
<g>
</g>
<g>
</g>
<g>
</g>
<g>
</g>
<g>
</g>
<g>
</g>
<g>
</g>
<g>
</g>
<g>
</g>
<g>
</g>
<g>
</g>
<g>
</g>
<g>
</g>
<g>
</g>
</svg>
