<?xml version="1.0" encoding="iso-8859-1"?>
<!-- Generator: Adobe Illustrator 19.0.0, SVG Export Plug-In . SVG Version: 6.00 Build 0)  -->
<svg version="1.1" id="Capa_1" xmlns="http://www.w3.org/2000/svg" xmlns:xlink="http://www.w3.org/1999/xlink" x="0px" y="0px"
	 viewBox="0 0 511.999 511.999" style="enable-background:new 0 0 511.999 511.999;" xml:space="preserve">
<circle style="fill:#4A5370;" cx="255.999" cy="255.999" r="255.999"/>
<path style="fill:#43C970;" d="M439.466,434.52c-3.375,3.469-6.844,6.834-10.407,10.104c-0.052,0.052-0.104,0.094-0.157,0.146
	c-4.086,3.762-8.296,7.377-12.633,10.857c-6.029,4.859-12.298,9.446-18.766,13.74c-0.637,0.428-1.275,0.846-1.923,1.264
	c-40.145,26.164-88.085,41.367-139.577,41.367c-0.93,0-1.87-0.01-2.8-0.021h-0.627c-5.016-0.063-9.989-0.272-14.932-0.637
	c-4.702-0.324-9.362-0.784-13.991-1.369c-1.275-0.157-2.55-0.324-3.814-0.512c-4.19-0.585-8.349-1.285-12.466-2.079
	c-2.466-0.47-4.921-0.982-7.367-1.526c-0.115-0.021-0.219-0.052-0.334-0.073h-0.01c-3.323-0.742-6.614-1.557-9.885-2.435
	l-2.32-0.627c-3.072-0.846-6.113-1.755-9.132-2.727c-0.972-0.303-1.933-0.616-2.905-0.94c-1.034-0.334-2.058-0.679-3.082-1.045
	c-1.473-0.502-2.947-1.024-4.409-1.567c-1.557-0.575-3.103-1.16-4.65-1.755L20.777,154.843L0.913,107.488l71.659-30.051L257.237,0
	h0.01l12.706,30.292l8.861,21.138l4.723,11.254l7.147,17.053l2.017,4.817l7.21,17.178l67.741,161.551l1.735,4.138l34.199,81.544
	l3.365,8.014v0.01l19.801,47.208L439.466,434.52z"/>
<path style="fill:#3AB760;" d="M416.27,455.627c-6.029,4.859-12.298,9.446-18.766,13.74c-0.637,0.428-1.275,0.846-1.923,1.264
	c-40.145,26.164-88.085,41.367-139.577,41.367c-0.93,0-1.87-0.01-2.8-0.021h-0.627c-5.016-0.063-9.989-0.272-14.932-0.637
	c-4.702-0.324-9.362-0.784-13.991-1.369c-1.275-0.157-2.55-0.324-3.814-0.512c-4.19-0.585-8.349-1.285-12.466-2.079
	c-2.466-0.47-4.921-0.982-7.367-1.526l-32.078-76.486L58.351,168.061c4.169-1.839,7.952-4.19,11.306-6.949
	c2.048-1.693,3.939-3.532,5.653-5.517c7.126-8.14,11.337-18.495,11.933-29.299c0.387-7.105-0.784-14.399-3.72-21.41l70.301-29.477
	l28.724-12.048l14.106-5.914c0.564,1.348,1.191,2.664,1.86,3.939c3.176,6.019,7.481,11.118,12.528,15.161
	c3.835,3.072,8.087,5.517,12.612,7.293c1.923,0.763,3.897,1.4,5.914,1.912c1.599,0.408,3.218,0.721,4.859,0.951
	c8.359,1.243,17.147,0.293,25.506-3.156c0.084-0.031,0.167-0.073,0.251-0.104l0.031,0.073l20.229,48.253l50.583,120.602l1.975,4.702
	l5.684,13.563l27.805,66.278c0,0.01,0,0.01,0,0.01l22.549,53.781l13.897,33.123L416.27,455.627z"/>
<circle style="fill:#53D37A;" cx="240.451" cy="319.331" r="83.522"/>
<path style="fill:#43C970;" d="M452.956,419.526c-1.755,2.121-3.542,4.2-5.381,6.259c-2.623,2.978-5.339,5.893-8.108,8.735
	c-3.375,3.469-6.844,6.834-10.407,10.104c-0.052,0.052-0.104,0.094-0.157,0.146c-4.086,3.762-8.296,7.377-12.633,10.857
	c-6.029,4.859-12.298,9.446-18.766,13.74c-0.637,0.428-1.275,0.846-1.923,1.264c-40.145,26.164-88.085,41.367-139.577,41.367
	c-0.93,0-1.87-0.01-2.8-0.021h-0.627c-5.016-0.063-9.989-0.272-14.932-0.637c-4.702-0.324-9.362-0.784-13.991-1.369
	c-1.275-0.157-2.55-0.324-3.814-0.512c-4.19-0.585-8.349-1.285-12.466-2.079c-2.466-0.47-4.921-0.982-7.367-1.526
	c-0.115-0.021-0.219-0.052-0.334-0.073h-0.01c-3.323-0.742-6.614-1.557-9.885-2.435l-2.32-0.627l-19.529-73.352L87.243,126.297
	l-11.776-44.23l194.486-51.775l65.954-17.565l8.161-2.173l1.473,5.548l6.98,26.196l5.423,20.386l7.868,29.539l1.849,6.928
	l50.301,188.959l23.468,88.158l0.324,1.212L452.956,419.526z"/>
<path style="fill:#3AB760;" d="M429.059,444.624c-0.052,0.052-0.104,0.094-0.157,0.146c-4.086,3.762-8.296,7.377-12.633,10.857
	c-6.029,4.859-12.298,9.446-18.766,13.74c-0.637,0.428-1.275,0.846-1.923,1.264c-40.145,26.164-88.085,41.367-139.577,41.367
	c-0.93,0-1.87-0.01-2.8-0.021h-0.627c-5.016-0.063-9.989-0.272-14.932-0.637c-4.702-0.324-9.362-0.784-13.991-1.369
	c-1.275-0.157-2.55-0.324-3.814-0.512l-22.831-85.744L186.1,382.766l-24.346-91.428v-0.01l-37.648-141.416
	c4.378-1.254,8.443-3.062,12.142-5.339c2.257-1.4,4.389-2.967,6.353-4.692c8.171-7.095,13.761-16.781,15.82-27.408
	c1.358-6.98,1.191-14.367-0.763-21.713l53.384-14.211l12.612-3.354l39.476-10.512l13.072-3.479c0.313,1.181,0.669,2.341,1.076,3.48
	c2.309,6.666,5.966,12.539,10.564,17.408c1.526,1.599,3.145,3.093,4.859,4.462c3.709,2.978,7.837,5.402,12.246,7.178
	c0.418,0.167,0.846,0.334,1.275,0.491c9.091,3.385,19.289,4.086,29.372,1.4l46.832,175.898l1.609,6.039l19.55,73.404l2.738,10.261
	v0.01l13.834,51.984L429.059,444.624z"/>
<circle style="fill:#53D37A;" cx="283.856" cy="324.607" r="83.522"/>
<path style="fill:#43C970;" d="M473.123,391.679c-0.355,0.564-0.711,1.128-1.066,1.682c-5.82,9.132-12.204,17.868-19.101,26.164
	c-1.755,2.121-3.542,4.2-5.381,6.259c-2.623,2.978-5.339,5.893-8.108,8.735c-3.375,3.469-6.844,6.834-10.407,10.104
	c-0.052,0.052-0.104,0.094-0.157,0.146c-4.086,3.762-8.296,7.377-12.633,10.857c-6.029,4.859-12.298,9.446-18.766,13.74
	c-0.637,0.428-1.275,0.846-1.923,1.264c-40.145,26.164-88.085,41.367-139.577,41.367c-0.93,0-1.87-0.01-2.8-0.021h-0.627
	c-5.016-0.063-9.989-0.272-14.932-0.637c-4.702-0.324-9.362-0.784-13.991-1.369c-1.275-0.157-2.55-0.324-3.814-0.512
	c-4.19-0.585-8.349-1.285-12.466-2.079l-10.365-83.665l-4.462-35.955l-15.255-123.11l-18.871-152.179l-4.598-37.062l-1.034-8.359
	l29.759-3.688l15.966-1.975l80.3-9.958l73.707-9.132l37.24-4.618l38.881-4.817l3.699,29.821l1.087,8.767l7.158,57.741l31.472,253.91
	L473.123,391.679z"/>
<path style="fill:#3AB760;" d="M447.575,425.785c-2.623,2.978-5.339,5.893-8.108,8.735c-3.375,3.469-6.844,6.834-10.407,10.104
	c-0.052,0.052-0.104,0.094-0.157,0.146c-4.086,3.762-8.296,7.377-12.633,10.857c-6.029,4.859-12.298,9.446-18.766,13.74
	c-0.637,0.428-1.275,0.846-1.923,1.264c-40.145,26.164-88.085,41.367-139.577,41.367c-0.93,0-1.87-0.01-2.8-0.021h-0.627
	c-5.016-0.063-9.989-0.272-14.932-0.637l-13.646-110.122l-0.345-2.748l-2.288-18.442l-11.64-93.884l-5.224-42.203l-12.779-103.048
	c4.503-0.637,8.777-1.881,12.758-3.626c2.424-1.076,4.744-2.341,6.928-3.783c4.744-3.093,8.882-6.99,12.246-11.473
	c3.072-4.075,5.507-8.641,7.168-13.521c2.288-6.729,3.135-14.075,2.205-21.608l1.4-0.178l25.506-3.156l0.282-0.031l27.627-3.427
	l2.842-0.355l64.083-7.941c0.94,7.544,3.553,14.461,7.44,20.428c1.599,2.487,3.427,4.796,5.454,6.928
	c3.26,3.459,7.022,6.416,11.149,8.788c8.798,5.047,19.257,7.398,30.103,6.05l23.688,191.07l8.829,71.21l0.199,1.578L447.575,425.785
	z"/>
<g>
	<circle style="fill:#53D37A;" cx="326.143" cy="335.756" r="83.522"/>
	<path style="fill:#53D37A;" d="M501.606,62.683v265.748c-6.635,22.528-16.279,43.771-28.484,63.248
		c-0.355,0.564-0.711,1.128-1.066,1.682c-5.82,9.132-12.204,17.868-19.101,26.164c-1.755,2.121-3.542,4.2-5.381,6.259
		c-2.623,2.978-5.339,5.893-8.108,8.735c-3.375,3.469-6.844,6.834-10.407,10.104c-0.052,0.052-0.104,0.094-0.157,0.146
		c-4.086,3.762-8.296,7.377-12.633,10.857c-6.029,4.859-12.298,9.446-18.766,13.74c-0.637,0.428-1.275,0.846-1.923,1.264
		c-40.145,26.164-88.085,41.367-139.577,41.367c-0.93,0-1.87-0.01-2.8-0.021h-0.627c-5.016-0.063-9.989-0.272-14.932-0.637
		c-4.702-0.324-9.362-0.784-13.991-1.369V62.683H501.606z"/>
</g>
<path style="fill:#43C970;" d="M472.057,140.768v252.593c-5.82,9.132-12.204,17.868-19.101,26.164
	c-1.755,2.121-3.542,4.2-5.381,6.259c-2.623,2.978-5.339,5.893-8.108,8.735c-3.375,3.469-6.844,6.834-10.407,10.104
	c-0.052,0.052-0.104,0.094-0.157,0.146c-4.086,3.762-8.296,7.377-12.633,10.857c-6.029,4.859-12.298,9.446-18.766,13.74
	c-0.637,0.428-1.275,0.846-1.923,1.264c-40.145,26.164-88.085,41.367-139.577,41.367c-0.93,0-1.87-0.01-2.8-0.021V376.466
	l-0.01-81.387V140.747c4.556-0.073,8.955-0.784,13.113-2.038c2.539-0.763,4.995-1.735,7.346-2.894
	c2.382-1.16,4.65-2.518,6.792-4.044c6.604-4.702,11.974-11.013,15.548-18.369c1.776-3.657,3.103-7.575,3.918-11.671
	c0.596-3.082,0.92-6.259,0.92-9.509h122.681c0,14.806,6.635,28.066,17.074,36.968c0.752,0.648,1.536,1.275,2.33,1.87
	C451.033,137.153,461.127,140.768,472.057,140.768z"/>
<circle style="fill:#53D37A;" cx="362.631" cy="350.667" r="83.522"/>
<g>
</g>
<g>
</g>
<g>
</g>
<g>
</g>
<g>
</g>
<g>
</g>
<g>
</g>
<g>
</g>
<g>
</g>
<g>
</g>
<g>
</g>
<g>
</g>
<g>
</g>
<g>
</g>
<g>
</g>
</svg>
