<?xml version="1.0"?>
<svg xmlns="http://www.w3.org/2000/svg" xmlns:xlink="http://www.w3.org/1999/xlink" xmlns:svgjs="http://svgjs.com/svgjs" version="1.1" width="512" height="512" x="0" y="0" viewBox="0 0 512 512" style="enable-background:new 0 0 512 512" xml:space="preserve" class=""><g><g xmlns="http://www.w3.org/2000/svg" id="_31" data-name="31"><path d="m123.63 361.19h37.43a0 0 0 0 1 0 0v38.2a10.59 10.59 0 0 1 -10.6 10.61h-16.23a10.59 10.59 0 0 1 -10.59-10.59v-38.2a0 0 0 0 1 -.01-.02z" fill="#979797" data-original="#7063ce" style="" class=""/><path d="m366.16 445a5 5 0 0 1 -5 5h-183.8a40.06 40.06 0 0 1 -40-40h10a30 30 0 0 0 30 30h183.8a5 5 0 0 1 5 5z" fill="#979797" data-original="#7063ce" style="" class=""/><rect fill="#5e5e5e" height="222.38" rx="17.19" width="129.6" x="106.44" y="138.81" data-original="#57409b" style="" class=""/><circle cx="128.9" cy="158.81" fill="#33db92" r="10" data-original="#33db92" style=""/><path d="m181.43 90h37.43a0 0 0 0 1 0 0v38.2a10.59 10.59 0 0 1 -10.59 10.59h-16.27a10.59 10.59 0 0 1 -10.59-10.59v-38.2a0 0 0 0 1 .02 0z" fill="#979797" transform="matrix(-1 0 0 -1 400.28 228.83)" data-original="#7063ce" style="" class=""/><path d="m361.7 262.94h-10v-187.15a18.68 18.68 0 0 0 -18.65-18.65h-109.26a18.68 18.68 0 0 0 -18.65 18.65v14.21h-10v-14.21a28.68 28.68 0 0 1 28.65-28.65h109.26a28.68 28.68 0 0 1 28.65 28.65z" fill="#979797" data-original="#7063ce" style="" class=""/><path d="m354.14 359.24h35a5 5 0 0 1 5 5 5 5 0 0 1 -5 5h-35a0 0 0 0 1 0 0v-10a0 0 0 0 1 0 0z" fill="#efefef" transform="matrix(0 1 -1 0 738.4 -9.93)" data-original="#908dff" style="" class=""/><path d="m319.22 359.24h35a5 5 0 0 1 5 5 5 5 0 0 1 -5 5h-35a0 0 0 0 1 0 0v-10a0 0 0 0 1 0 0z" fill="#efefef" transform="matrix(0 1 -1 0 703.48 25)" data-original="#908dff" style="" class=""/><path d="m346.4 262.94h20.6a20.34 20.34 0 0 1 20.34 20.34v40.94a0 0 0 0 1 0 0h-61.28a0 0 0 0 1 0 0v-40.95a20.34 20.34 0 0 1 20.34-20.33z" fill="#5e5e5e" data-original="#57409b" style="" class=""/><rect fill="#979797" height="20" rx="10" width="92.5" x="310.45" y="324.22" data-original="#7063ce" style="" class=""/></g><g xmlns="http://www.w3.org/2000/svg" id="Line" fill="#211915"><path d="m150.46 412.48h-16.23a13.11 13.11 0 0 1 -13.1-13.09v-38.2a2.5 2.5 0 0 1 5 0v38.2a8.1 8.1 0 0 0 8.1 8.09h16.23a8.1 8.1 0 0 0 8.1-8.09v-38.2a2.5 2.5 0 0 1 5 0v38.2a13.11 13.11 0 0 1 -13.1 13.09z" fill="#211915" data-original="#211915" style="" class=""/><path d="m361.16 452.49h-183.8a42.57 42.57 0 0 1 -42.52-42.49 2.5 2.5 0 0 1 5 0 37.56 37.56 0 0 0 37.52 37.51h183.8a2.5 2.5 0 1 0 0-5h-82.74a2.5 2.5 0 0 1 0-5h82.74a7.5 7.5 0 1 1 0 15z" fill="#211915" data-original="#211915" style="" class=""/><path d="m200.14 442.49h-22.78a32.55 32.55 0 0 1 -32.52-32.49 2.5 2.5 0 0 1 5 0 27.55 27.55 0 0 0 27.52 27.51h22.78a2.5 2.5 0 0 1 0 5z" fill="#211915" data-original="#211915" style="" class=""/><path d="m218.85 363.69h-95.22a19.72 19.72 0 0 1 -19.69-19.69v-94a2.5 2.5 0 0 1 5 0v94a14.71 14.71 0 0 0 14.69 14.69h95.22a14.71 14.71 0 0 0 14.69-14.69v-188a14.71 14.71 0 0 0 -14.69-14.69h-95.22a14.71 14.71 0 0 0 -14.69 14.69v30.11a2.5 2.5 0 0 1 -5 0v-30.11a19.72 19.72 0 0 1 19.69-19.69h95.22a19.71 19.71 0 0 1 19.69 19.69v188a19.71 19.71 0 0 1 -19.69 19.69z" fill="#211915" data-original="#211915" style="" class=""/><path d="m128.9 171.31a12.5 12.5 0 1 1 12.5-12.5 12.51 12.51 0 0 1 -12.5 12.5zm0-20a7.5 7.5 0 1 0 7.5 7.5 7.52 7.52 0 0 0 -7.5-7.5z" fill="#211915" data-original="#211915" style="" class=""/><path d="m218.85 141.31a2.5 2.5 0 0 1 -2.5-2.5v-38.2a8.1 8.1 0 0 0 -8.09-8.09h-16.26a8.1 8.1 0 0 0 -8.09 8.09v38.2a2.5 2.5 0 0 1 -5 0v-38.2a13.1 13.1 0 0 1 13.09-13.09h16.24a13.1 13.1 0 0 1 13.09 13.09v38.2a2.5 2.5 0 0 1 -2.48 2.5z" fill="#211915" data-original="#211915" style="" class=""/><path d="m351.7 265.44a2.5 2.5 0 0 1 -2.5-2.5v-187.15a16.16 16.16 0 0 0 -16.15-16.15h-109.26a16.17 16.17 0 0 0 -16.15 16.15v14.21a2.5 2.5 0 0 1 -5 0v-14.21a21.18 21.18 0 0 1 21.15-21.15h109.26a21.18 21.18 0 0 1 21.15 21.15v187.15a2.5 2.5 0 0 1 -2.5 2.5z" fill="#211915" data-original="#211915" style="" class=""/><path d="m361.7 265.44a2.5 2.5 0 0 1 -2.5-2.5v-90.26a2.5 2.5 0 0 1 5 0v90.26a2.5 2.5 0 0 1 -2.5 2.5z" fill="#211915" data-original="#211915" style="" class=""/><path d="m361.7 105.57a2.5 2.5 0 0 1 -2.5-2.5v-27.28a26.18 26.18 0 0 0 -26.15-26.15h-109.26a26.18 26.18 0 0 0 -26.15 26.15v14.21a2.5 2.5 0 0 1 -5 0v-14.21a31.18 31.18 0 0 1 31.15-31.15h109.26a31.18 31.18 0 0 1 31.15 31.15v27.28a2.5 2.5 0 0 1 -2.5 2.5z" fill="#211915" data-original="#211915" style="" class=""/><path d="m374.16 386.75a7.51 7.51 0 0 1 -7.5-7.5v-35a2.5 2.5 0 0 1 5 0v35a2.5 2.5 0 0 0 5 0v-35a2.5 2.5 0 0 1 5 0v35a7.5 7.5 0 0 1 -7.5 7.5z" fill="#211915" data-original="#211915" style="" class=""/><path d="m339.24 386.75a7.5 7.5 0 0 1 -7.5-7.5v-35a2.5 2.5 0 0 1 5 0v35a2.5 2.5 0 0 0 5 0v-35a2.5 2.5 0 0 1 5 0v35a7.5 7.5 0 0 1 -7.5 7.5z" fill="#211915" data-original="#211915" style="" class=""/><path d="m326.06 326.72a2.5 2.5 0 0 1 -2.5-2.5v-41a22.86 22.86 0 0 1 22.84-22.83h20.6a22.66 22.66 0 0 1 16.15 6.69 2.5 2.5 0 0 1 -3.53 3.53 17.72 17.72 0 0 0 -12.62-5.17h-20.6a17.85 17.85 0 0 0 -17.84 17.83v41a2.5 2.5 0 0 1 -2.5 2.45z" fill="#211915" data-original="#211915" style="" class=""/><path d="m387.34 326.72a2.5 2.5 0 0 1 -2.5-2.5v-22.55a2.5 2.5 0 0 1 5 0v22.55a2.5 2.5 0 0 1 -2.5 2.5z" fill="#211915" data-original="#211915" style="" class=""/><path d="m393 346.72h-72.5a12.5 12.5 0 0 1 0-25h72.5a12.5 12.5 0 1 1 0 25zm-72.5-20a7.5 7.5 0 0 0 0 15h72.5a7.5 7.5 0 1 0 0-15z" fill="#211915" data-original="#211915" style="" class=""/></g></g></svg>
