<svg height="512pt" viewBox="-73 0 511 512" width="512pt" xmlns="http://www.w3.org/2000/svg"><path d="m141.550781 0c-65.144531 0-115.128906 58.84375-103.957031 123.554688 1.414062 8.1875 9.199219 13.640624 17.332031 12.230468 8.164063-1.410156 13.640625-9.167968 12.230469-17.332031-7.988281-46.289063 27.71875-88.453125 74.394531-88.453125 46.535157 0 82.308594 41.964844 74.429688 88.269531-1.390625 8.167969 4.105469 15.914063 12.269531 17.304688 8.167969 1.394531 15.914062-4.105469 17.304688-12.273438 10.964843-64.449219-38.78125-123.300781-104.003907-123.300781zm0 0"/><path d="m301.171875 240.632812c-11.324219-22.21875-38.207031-30.773437-60-20-10.273437-20.15625-33.742187-29.484374-54.839844-22.160156v-91.851562c0-24.484375-19.675781-44.941406-43.867187-45.605469-25.347656-.71875-46.351563 19.582031-46.351563 44.984375v231.082031l-17.621093-18.453125c-16.914063-17.707031-45.234376-18.953125-63.136719-2.769531-18.890625 17.074219-19.832031 46.148437-2.4375 64.421875l101.273437 108.019531c14.125 15.058594 34.066406 23.699219 54.714844 23.699219h122.144531c41.355469 0 75-33.644531 75-75v-156c0-33.332031-35.160156-55.0625-64.878906-40.367188zm0 0"/></svg>