<?xml version="1.0"?>
<svg xmlns="http://www.w3.org/2000/svg" xmlns:xlink="http://www.w3.org/1999/xlink" xmlns:svgjs="http://svgjs.com/svgjs" version="1.1" width="512" height="512" x="0" y="0" viewBox="0 0 24 24" style="enable-background:new 0 0 512 512" xml:space="preserve" class=""><g><g xmlns="http://www.w3.org/2000/svg" id="color_1_"><path d="m21.25 2h-18.5c-1.52 0-2.75 1.23-2.75 2.75v14.5c0 1.52 1.23 2.75 2.75 2.75h18.5c1.52 0 2.75-1.23 2.75-2.75v-14.5c0-1.52-1.23-2.75-2.75-2.75z" fill="#585858" data-original="#eceff1" style="" class=""/><path d="m12 2h-9.25c-1.52 0-2.75 1.23-2.75 2.75v14.5c0 1.52 1.23 2.75 2.75 2.75h9.25z" fill="#585858" data-original="#cdd0d2" style="" class=""/><path d="m7.5 7h-1.5c-.551 0-1 .448-1 1v1.5c0 .553-.448 1-1 1s-1-.447-1-1v-1.5c0-1.654 1.346-3 3-3h1.5c.552 0 1 .447 1 1s-.448 1-1 1z" fill="#dfdfdf" data-original="#00bcd4" style="" class=""/><path d="m21 16c0 1.654-1.346 3-3 3h-1.5c-.552 0-1-.447-1-1s.448-1 1-1h1.5c.551 0 1-.448 1-1v-1.5c0-.553.448-1 1-1s1 .447 1 1z" fill="#dfdfdf" data-original="#00bcd4" style="" class=""/><g fill="#00a4b9"><path d="m3.675 6.106c-.422.516-.675 1.176-.675 1.894v1.5c0 .553.448 1 1 1s1-.447 1-1v-1.5c0-.296.129-.561.333-.745z" fill="#cdcdcd" data-original="#00a4b9" style="" class=""/><path d="m18.801 16.598c-.182.244-.473.402-.801.402h-1.5c-.552 0-1 .447-1 1s.448 1 1 1h1.5c1.007 0 1.9-.499 2.444-1.263z" fill="#cdcdcd" data-original="#00a4b9" style="" class=""/></g></g></g></svg>
