<svg id="Capa_1" enable-background="new 0 0 512 512" height="512" viewBox="0 0 512 512" width="512" xmlns="http://www.w3.org/2000/svg"><g><path d="m242.583 222.708c-3.699-7.398-.711-16.391 6.672-20.106.717-.366 55.745-28.981 55.745-82.602 0-25.332 3.027-56.831 26.629-75.713 17.124-13.699 41.568-19.287 84.371-19.287 8.284 0 15 6.716 15 15s-6.716 15-15 15c-34.398 0-54.639 3.921-65.629 12.713-7.157 5.725-15.371 16.842-15.371 52.287 0 72.438-69.34 107.94-72.292 109.417-7.41 3.705-16.42.7-20.125-6.709z" fill="#313a6b"/><path d="m512 231v226c0 16.54-13.46 30-30 30h-452c-16.54 0-30-13.46-30-30v-226c0-16.54 13.46-30 30-30h452c16.54 0 30 13.46 30 30z" fill="#667197"/><path d="m512 231v226c0 16.54-13.46 30-30 30h-226v-286h226c16.54 0 30 13.46 30 30z" fill="#4d5788"/><path d="m96 423h-16c-8.284 0-15-6.716-15-15s6.716-15 15-15h16c8.284 0 15 6.716 15 15s-6.716 15-15 15z" fill="#f1f6ff"/><path d="m136 359h-16c-8.284 0-15-6.716-15-15s6.716-15 15-15h16c8.284 0 15 6.716 15 15s-6.716 15-15 15z" fill="#9cd6f4"/><path d="m216 359h-16c-8.284 0-15-6.716-15-15s6.716-15 15-15h16c8.284 0 15 6.716 15 15s-6.716 15-15 15z" fill="#f1f6ff"/><g fill="#dfe5f2"><path d="m296 359h-16c-8.284 0-15-6.716-15-15s6.716-15 15-15h16c8.284 0 15 6.716 15 15s-6.716 15-15 15z"/><path d="m376 359h-16c-8.284 0-15-6.716-15-15s6.716-15 15-15h16c8.284 0 15 6.716 15 15s-6.716 15-15 15z"/><path d="m416 295h-16c-8.284 0-15-6.716-15-15s6.716-15 15-15h16c8.284 0 15 6.716 15 15s-6.716 15-15 15z"/><path d="m336 295h-16c-8.284 0-15-6.716-15-15s6.716-15 15-15h16c8.284 0 15 6.716 15 15s-6.716 15-15 15z"/></g><path d="m271 280c0 8.28-6.72 15-15 15h-16c-8.28 0-15-6.72-15-15s6.72-15 15-15h16c8.28 0 15 6.72 15 15z" fill="#f1f6ff"/><path d="m256 295v-30c8.28 0 15 6.72 15 15s-6.72 15-15 15z" fill="#dfe5f2"/><path d="m176 295h-16c-8.284 0-15-6.716-15-15s6.716-15 15-15h16c8.284 0 15 6.716 15 15s-6.716 15-15 15z" fill="#f1f6ff"/><path d="m96 295h-16c-8.284 0-15-6.716-15-15s6.716-15 15-15h16c8.284 0 15 6.716 15 15s-6.716 15-15 15z" fill="#f1f6ff"/><path d="m432 423h-16c-8.284 0-15-6.716-15-15s6.716-15 15-15h16c8.284 0 15 6.716 15 15s-6.716 15-15 15z" fill="#dfe5f2"/><path d="m367 408c0 8.28-6.72 15-15 15h-192c-8.28 0-15-6.72-15-15s6.72-15 15-15h192c8.28 0 15 6.72 15 15z" fill="#f1f6ff"/><path d="m367 408c0 8.28-6.72 15-15 15h-96v-30h96c8.28 0 15 6.72 15 15z" fill="#dfe5f2"/></g></svg>