<svg width="40" height="40" viewBox="0 0 40 40" fill="none" xmlns="http://www.w3.org/2000/svg">
<g clip-path="url(#clip0)">
<path d="M23.3333 15.1499L38.0167 18.0666C39.2 18.3166 40 19.3166 40 20.4999V37.4999C40 38.8832 38.8833 39.9999 37.5 39.9999H22.5C22.9667 39.9999 23.3333 39.6332 23.3333 39.1666V38.3332H37.5C37.95 38.3332 38.3333 37.9666 38.3333 37.4999V20.4999C38.3333 20.1166 38.0667 19.7666 37.6833 19.6832L23.3333 16.8499V15.1499Z" fill="#EFC337"/>
<path d="M32.5002 23.3333C32.9668 23.3333 33.3335 23.6999 33.3335 24.1666C33.3335 24.6332 32.9668 24.9999 32.5002 24.9999H29.1668C28.7002 24.9999 28.3335 24.6332 28.3335 24.1666C28.3335 23.6999 28.7002 23.3333 29.1668 23.3333H32.5002Z" fill="#EFC337"/>
<path d="M32.5002 28.3333C32.9668 28.3333 33.3335 28.6999 33.3335 29.1666C33.3335 29.6332 32.9668 29.9999 32.5002 29.9999H29.1668C28.7002 29.9999 28.3335 29.6332 28.3335 29.1666C28.3335 28.6999 28.7002 28.3333 29.1668 28.3333H32.5002Z" fill="#EFC337"/>
<path d="M32.5002 33.3333C32.9668 33.3333 33.3335 33.6999 33.3335 34.1666C33.3335 34.6332 32.9668 34.9999 32.5002 34.9999H29.1668C28.7002 34.9999 28.3335 34.6332 28.3335 34.1666C28.3335 33.6999 28.7002 33.3333 29.1668 33.3333H32.5002Z" fill="#EFC337"/>
<path d="M23.3332 39.1667C23.3332 39.6333 22.9665 40 22.4998 40C22.0332 40 21.6665 39.6333 21.6665 39.1667V38.3333V15.8333C21.6665 15.5833 21.7832 15.35 21.9665 15.1833C22.1665 15.0333 22.4165 14.9667 22.6665 15.0167L23.3332 15.15V16.85V38.3333V39.1667Z" fill="#EFC337"/>
<path d="M21.6668 38.3333V39.1666C21.6668 39.6333 22.0335 39.9999 22.5002 39.9999H15.8335C16.3002 39.9999 16.6668 39.6333 16.6668 39.1666V38.3333H21.6668Z" fill="#EFC337"/>
<path d="M17.5002 8.33325C17.9668 8.33325 18.3335 8.69992 18.3335 9.16659C18.3335 9.63326 17.9668 9.99992 17.5002 9.99992H14.1668C13.7002 9.99992 13.3335 9.63326 13.3335 9.16659C13.3335 8.69992 13.7002 8.33325 14.1668 8.33325H17.5002Z" fill="#EFC337"/>
<path d="M18.3335 14.1666C18.3335 14.6333 17.9668 14.9999 17.5002 14.9999H14.1668C13.7002 14.9999 13.3335 14.6333 13.3335 14.1666C13.3335 13.6999 13.7002 13.3333 14.1668 13.3333H17.5002C17.9668 13.3333 18.3335 13.6999 18.3335 14.1666Z" fill="#EFC337"/>
<path d="M17.5002 18.3333C17.9668 18.3333 18.3335 18.6999 18.3335 19.1666C18.3335 19.6332 17.9668 19.9999 17.5002 19.9999H14.1668C13.7002 19.9999 13.3335 19.6332 13.3335 19.1666C13.3335 18.6999 13.7002 18.3333 14.1668 18.3333H17.5002Z" fill="#EFC337"/>
<path d="M17.5002 23.3333C17.9668 23.3333 18.3335 23.6999 18.3335 24.1666C18.3335 24.6332 17.9668 24.9999 17.5002 24.9999H14.1668C13.7002 24.9999 13.3335 24.6332 13.3335 24.1666C13.3335 23.6999 13.7002 23.3333 14.1668 23.3333H17.5002Z" fill="#EFC337"/>
<path d="M10 24.1666C10 24.6332 9.63333 24.9999 9.16667 24.9999H5.83333C5.36667 24.9999 5 24.6332 5 24.1666C5 23.6999 5.36667 23.3333 5.83333 23.3333H9.16667C9.63333 23.3333 10 23.6999 10 24.1666Z" fill="#EFC337"/>
<path d="M9.16667 8.33325C9.63333 8.33325 10 8.69992 10 9.16659C10 9.63326 9.63333 9.99992 9.16667 9.99992H5.83333C5.36667 9.99992 5 9.63326 5 9.16659C5 8.69992 5.36667 8.33325 5.83333 8.33325H9.16667Z" fill="#EFC337"/>
<path d="M9.16667 13.3333C9.63333 13.3333 10 13.6999 10 14.1666C10 14.6333 9.63333 14.9999 9.16667 14.9999H5.83333C5.36667 14.9999 5 14.6333 5 14.1666C5 13.6999 5.36667 13.3333 5.83333 13.3333H9.16667Z" fill="#EFC337"/>
<path d="M9.16667 18.3333C9.63333 18.3333 10 18.6999 10 19.1666C10 19.6332 9.63333 19.9999 9.16667 19.9999H5.83333C5.36667 19.9999 5 19.6332 5 19.1666C5 18.6999 5.36667 18.3333 5.83333 18.3333H9.16667Z" fill="#EFC337"/>
<path d="M14.9998 30.8333C14.9998 30.3666 14.6165 29.9999 14.1665 29.9999H9.1665C8.69984 29.9999 8.33317 30.3666 8.33317 30.8333V38.3333H6.6665V30.8333C6.6665 29.4499 7.78317 28.3333 9.1665 28.3333H14.1665C15.5498 28.3333 16.6665 29.4499 16.6665 30.8333V38.3333H14.9998V30.8333Z" fill="#EFC337"/>
<path d="M8.33317 38.3333H14.9998H16.6665V39.1666C16.6665 39.6333 16.2998 39.9999 15.8332 39.9999H7.49984C7.03317 39.9999 6.6665 39.6333 6.6665 39.1666V38.3333H8.33317Z" fill="#EFC337"/>
<path d="M2.91667 0.33323L21.2333 3.11656C22.45 3.31656 23.3333 4.3499 23.3333 5.58323V15.1499L22.6667 15.0166C22.4167 14.9666 22.1667 15.0332 21.9667 15.1832C21.7833 15.3499 21.6667 15.5832 21.6667 15.8332V5.58323C21.6667 5.16656 21.3667 4.81656 20.9667 4.7499L2.65 1.98323C2.6 1.96656 2.55 1.96656 2.5 1.96656C2.3 1.96656 2.11667 2.03323 1.96667 2.16656C1.76667 2.33323 1.66667 2.5499 1.66667 2.7999V37.4999C1.66667 37.9666 2.05 38.3332 2.5 38.3332H6.66667V39.1666C6.66667 39.6332 7.03333 39.9999 7.5 39.9999H2.5C1.11667 39.9999 0 38.8832 0 37.4999V2.7999C0 2.06656 0.316667 1.36656 0.883333 0.899896C1.45 0.416563 2.18333 0.216563 2.91667 0.33323Z" fill="#EFC337"/>
</g>
<defs>
<clipPath id="clip0">
<rect width="40" height="40" fill="white"/>
</clipPath>
</defs>
</svg>
