<svg width="182" height="182" viewBox="0 0 182 182" fill="none" xmlns="http://www.w3.org/2000/svg">
<g clip-path="url(#clip0)">
<path d="M123.812 42.252H129.248C129.248 38.436 135.296 37.788 135.296 32.028C135.296 27.78 131.552 25.368 126.152 25.368C121.292 25.368 117.908 27.24 115.964 30.192L120.32 32.748C121.472 31.092 123.236 30.084 125.54 30.084C127.88 30.084 129.428 31.2 129.428 32.964C129.428 36.096 123.812 37.212 123.812 42.252ZM126.548 51.288C128.564 51.288 130.004 49.812 130.004 48.012C130.004 46.176 128.564 44.808 126.548 44.808C124.532 44.808 123.092 46.176 123.092 48.012C123.092 49.812 124.532 51.288 126.548 51.288Z" fill="black"/>
<path d="M44 125.517L54.6667 136L74 117" stroke="black" stroke-width="5"/>
<g clip-path="url(#clip1)">
<path d="M4.94576 182.382C4.94576 182.382 5.93488 182.382 7.3856 181.464L30.4653 165.86C32.6414 164.578 34.3164 164.024 37.8508 164.024H96.9349C104.32 164.024 110.783 157.599 110.783 150.255V104.36C110.783 97.0165 104.32 90.5911 96.9349 90.5911H13.8479C4.94576 90.5911 9.91821e-05 95.3389 9.91821e-05 104.36V177.793C9.91821e-05 179.629 0.131981 182.382 1.97836 182.382C3.25341 182.382 4.94576 182.382 4.94576 182.382ZM96.9349 96.3281C101.881 96.3281 104.848 99.2955 104.848 104.36V150.255C104.848 155.676 100.891 158.643 96.9349 158.643H37.8508C32.6414 158.643 29.674 159.632 25.7175 162.6L5.93488 176.448V104.36C5.93488 99.2955 8.90228 96.3281 13.8479 96.3281C13.8479 96.3281 91.9892 96.3281 96.9349 96.3281Z" fill="black"/>
<path d="M177.054 92.1737C177.054 92.1737 176.065 92.1737 174.614 91.2557L151.535 75.6512C149.359 74.3693 147.684 73.8154 144.149 73.8154H85.0651C77.6796 73.8154 71.2173 67.39 71.2173 60.0467V14.151C71.2173 6.80772 77.6796 0.382324 85.0651 0.382324H168.152C177.054 0.382324 182 5.1302 182 14.151V87.5841C182 89.4199 181.868 92.1737 180.022 92.1737C178.747 92.1737 177.054 92.1737 177.054 92.1737ZM85.0651 6.11933C80.1195 6.11933 77.1521 9.08672 77.1521 14.151V60.0467C77.1521 65.4672 81.1086 68.4345 85.0651 68.4345H144.149C149.359 68.4345 152.326 69.4237 156.283 72.3911L176.065 86.2389V14.151C176.065 9.08672 173.098 6.11933 168.152 6.11933C168.152 6.11933 90.0108 6.11933 85.0651 6.11933Z" fill="black"/>
</g>
</g>
<defs>
<clipPath id="clip0">
<rect width="182" height="182" fill="white"/>
</clipPath>
<clipPath id="clip1">
<rect width="182" height="182" fill="white" transform="translate(0 0.382324)"/>
</clipPath>
</defs>
</svg>
