<svg width="187" height="184" viewBox="0 0 187 184" fill="none" xmlns="http://www.w3.org/2000/svg">
<g clip-path="url(#clip0)">
<path d="M21.875 99.5254H49.2188C49.2322 99.5254 49.2601 99.5271 49.3123 99.556C49.3697 99.5879 49.4607 99.6565 49.5613 99.7887C49.7678 100.06 49.9531 100.522 49.9531 101.114V180.069C49.9531 180.662 49.7678 181.124 49.5613 181.395C49.4607 181.527 49.3697 181.596 49.3123 181.628C49.2601 181.657 49.2322 181.658 49.2188 181.658H21.875C21.8616 181.658 21.8337 181.657 21.7815 181.628C21.724 181.596 21.6331 181.527 21.5324 181.395C21.326 181.124 21.1406 180.662 21.1406 180.069V101.114C21.1406 100.522 21.326 100.06 21.5324 99.7887C21.6331 99.6565 21.724 99.5879 21.7815 99.556C21.8337 99.5271 21.8616 99.5254 21.875 99.5254Z" stroke="black" stroke-width="4"/>
<path d="M73.8281 81.2715H101.172C101.185 81.2715 101.213 81.2731 101.265 81.302C101.322 81.3339 101.413 81.4026 101.514 81.535C101.721 81.8065 101.906 82.2695 101.906 82.8633V179.842C101.906 180.436 101.721 180.899 101.514 181.17C101.413 181.303 101.322 181.371 101.265 181.403C101.213 181.432 101.185 181.434 101.172 181.434H73.8281C73.815 181.434 73.7873 181.432 73.7352 181.403C73.6778 181.371 73.5868 181.303 73.486 181.17C73.2793 180.899 73.0938 180.436 73.0938 179.842V82.8633C73.0938 82.2695 73.2793 81.8065 73.486 81.535C73.5868 81.4026 73.6778 81.3339 73.7352 81.302C73.7873 81.2731 73.815 81.2715 73.8281 81.2715Z" stroke="black" stroke-width="4"/>
<path d="M126.047 43.3535C126.047 43.0866 126.104 42.8878 126.161 42.7617H152.746C152.802 42.8878 152.859 43.0866 152.859 43.3535V179.842C152.859 180.109 152.802 180.308 152.746 180.434H126.161C126.104 180.308 126.047 180.109 126.047 179.842V43.3535Z" fill="black" stroke="black" stroke-width="6"/>
<path d="M172.266 184.382H2.73438C1.22432 184.382 0 183.487 0 182.382C0 181.278 1.22432 180.382 2.73438 180.382H172.266C173.776 180.382 175 181.278 175 182.382C175 183.487 173.776 184.382 172.266 184.382Z" fill="black"/>
<path d="M4 12.1167L4.00001 181.648C4.00001 183.158 3.10451 184.382 2 184.382C0.895502 184.382 -5.35166e-08 183.158 -1.19523e-07 181.648L-7.52997e-06 12.1167C-7.59598e-06 10.6066 0.895494 9.38232 2 9.38232C3.1045 9.38232 4 10.6066 4 12.1167Z" fill="black"/>
</g>
<rect width="5.21884" height="21.2847" rx="2.60942" transform="matrix(0.47789 -0.87842 0.855032 0.518575 92 29.6968)" fill="black"/>
<rect width="5.08409" height="21.8502" rx="2.54205" transform="matrix(0.841689 -0.539962 0.498766 0.866737 109.525 10.6755)" fill="black"/>
<rect x="137.065" width="5.0072" height="22.1602" rx="2.5036" fill="black"/>
<rect width="5.08409" height="21.8502" rx="2.54205" transform="matrix(-0.841689 -0.539962 -0.498766 0.866737 169.768 10.6755)" fill="black"/>
<rect width="5.21884" height="21.2847" rx="2.60942" transform="matrix(-0.47789 -0.87842 -0.855032 0.518575 186.549 29.6968)" fill="black"/>
<defs>
<clipPath id="clip0">
<rect width="175" height="175" fill="white" transform="translate(0 9)"/>
</clipPath>
</defs>
</svg>
