<svg width="33" height="34" viewBox="0 0 33 34" fill="none" xmlns="http://www.w3.org/2000/svg">
<g clip-path="url(#clip0)">
<path d="M29.7668 3.36816H3.07935C1.38129 3.36816 0 4.74946 0 6.44751V24.9235C0 26.6215 1.38129 28.0028 3.07935 28.0028H29.7668C31.4649 28.0028 32.8462 26.6215 32.8462 24.9235V6.44751C32.8462 4.74946 31.4649 3.36816 29.7668 3.36816ZM29.7668 5.42104C29.9063 5.42104 30.0389 5.44998 30.1602 5.50051L16.4231 17.4066L2.68586 5.50051C2.80715 5.45004 2.93982 5.42104 3.07928 5.42104H29.7668ZM29.7668 25.9499H3.07935C2.51301 25.9499 2.05288 25.4898 2.05288 24.9234V7.66939L15.7505 19.5406C15.944 19.708 16.1835 19.7912 16.4231 19.7912C16.6626 19.7912 16.9022 19.7081 17.0957 19.5406L30.7933 7.66939V24.9235C30.7932 25.4898 30.3332 25.9499 29.7668 25.9499Z" fill="#EFC337"/>
</g>
<defs>
<clipPath id="clip0">
<rect width="32.8462" height="32.8462" fill="white" transform="translate(0 0.382324)"/>
</clipPath>
</defs>
</svg>
