<svg width="36" height="35" viewBox="0 0 36 35" fill="none" xmlns="http://www.w3.org/2000/svg">
<g clip-path="url(#clip0)">
<path d="M28.4298 21.6981C27.6933 20.9646 26.805 20.5724 25.8635 20.5724C24.9296 20.5724 24.0337 20.9573 23.2668 21.6909L20.8676 23.9786C20.6701 23.8769 20.4727 23.7825 20.2829 23.6881C20.0096 23.5573 19.7514 23.4339 19.5313 23.3031C17.2838 21.9378 15.2414 20.1585 13.2825 17.8563C12.3334 16.7088 11.6957 15.7429 11.2325 14.7624C11.8551 14.2177 12.4321 13.6513 12.994 13.1066C13.2066 12.9032 13.4192 12.6926 13.6318 12.4892C15.2262 10.9641 15.2262 8.98871 13.6318 7.46358L11.559 5.48092C11.3236 5.25578 11.0806 5.02338 10.8529 4.79098C10.3973 4.3407 9.91898 3.8759 9.42546 3.44015C8.68897 2.74295 7.80822 2.37256 6.88192 2.37256C5.95562 2.37256 5.05969 2.74295 4.30043 3.44015C4.29283 3.44741 4.29283 3.44741 4.28524 3.45467L1.70375 5.94572C0.731889 6.87532 0.177627 8.00827 0.0561449 9.32279C-0.126078 11.4434 0.526888 13.4189 1.028 14.7116C2.25801 17.8853 4.09543 20.8266 6.83637 23.9786C10.1619 27.7769 14.1633 30.7763 18.734 32.8897C20.4803 33.6813 22.8113 34.6181 25.4155 34.7779C25.575 34.7852 25.742 34.7924 25.8939 34.7924C27.6478 34.7924 29.1207 34.1897 30.2748 32.9913C30.2824 32.9768 30.2976 32.9696 30.3052 32.955C30.7 32.4975 31.1556 32.0835 31.6339 31.6405C31.9604 31.3428 32.2945 31.0305 32.621 30.7036C33.3726 29.9556 33.7674 29.0841 33.7674 28.1908C33.7674 27.2903 33.365 26.426 32.5982 25.6998L28.4298 21.6981ZM31.148 29.3456C31.1404 29.3456 31.1404 29.3528 31.148 29.3456C30.8519 29.6506 30.5482 29.9266 30.2217 30.2316C29.7282 30.6819 29.227 31.1539 28.7563 31.6841C27.9894 32.4684 27.0859 32.8388 25.9015 32.8388C25.7876 32.8388 25.6661 32.8388 25.5522 32.8316C23.2972 32.6936 21.2016 31.8511 19.63 31.1321C15.3325 29.1422 11.559 26.3171 8.42323 22.7367C5.83414 19.7518 4.10302 16.992 2.95653 14.0289C2.25042 12.2205 1.99227 10.8116 2.10616 9.48257C2.18208 8.63285 2.52375 7.92839 3.15394 7.3256L5.74303 4.84908C6.11507 4.515 6.50988 4.33344 6.89711 4.33344C7.37544 4.33344 7.76267 4.60941 8.00563 4.84182C8.01323 4.84908 8.02082 4.85634 8.02841 4.8636C8.49156 5.27757 8.93193 5.70606 9.39508 6.16359C9.63046 6.39599 9.87342 6.6284 10.1164 6.86806L12.1892 8.85073C12.994 9.62055 12.994 10.3323 12.1892 11.1021C11.969 11.3127 11.7564 11.5233 11.5362 11.7267C10.8984 12.3513 10.291 12.9323 9.63046 13.4987C9.61527 13.5133 9.60009 13.5205 9.59249 13.5351C8.93953 14.1596 9.06101 14.7697 9.19768 15.1836C9.20527 15.2054 9.21286 15.2272 9.22045 15.249C9.75953 16.4982 10.5188 17.6747 11.6729 19.0764L11.6805 19.0836C13.776 21.5529 15.9855 23.4774 18.4227 24.9517C18.734 25.1406 19.0529 25.2931 19.3566 25.4383C19.63 25.569 19.8881 25.6925 20.1083 25.8232C20.1387 25.8378 20.169 25.8595 20.1994 25.8741C20.4576 25.9975 20.7005 26.0556 20.9511 26.0556C21.5813 26.0556 21.9761 25.678 22.1052 25.5545L24.7018 23.0707C24.96 22.8238 25.37 22.5261 25.8483 22.5261C26.3191 22.5261 26.7063 22.8093 26.9417 23.0562C26.9493 23.0635 26.9493 23.0635 26.9568 23.0707L31.1404 27.0724C31.9224 27.8132 31.9224 28.5757 31.148 29.3456Z" fill="#EFC337"/>
<path d="M19.4414 8.56752C21.4306 8.88707 23.2377 9.78762 24.6803 11.1675C26.1229 12.5474 27.0568 14.2759 27.3985 16.1786C27.482 16.658 27.9148 16.992 28.4083 16.992C28.469 16.992 28.5222 16.9848 28.5829 16.9775C29.1448 16.8904 29.5168 16.382 29.4257 15.8446C29.0157 13.5423 27.8768 11.4435 26.1381 9.78036C24.3994 8.11724 22.2051 7.02786 19.7982 6.63568C19.2364 6.54853 18.7125 6.9044 18.6138 7.43456C18.5151 7.96473 18.8795 8.48036 19.4414 8.56752Z" fill="#EFC337"/>
<path d="M35.9327 15.5614C35.2569 11.7704 33.3891 8.32068 30.5191 5.57545C27.6491 2.83022 24.0426 1.04364 20.0792 0.397272C19.525 0.302859 19.0011 0.665985 18.9024 1.19615C18.8113 1.73358 19.1833 2.23469 19.7452 2.3291C23.2833 2.90284 26.5102 4.50786 29.0765 6.95533C31.6428 9.41006 33.3132 12.4966 33.913 15.881C33.9965 16.3603 34.4293 16.6944 34.9228 16.6944C34.9836 16.6944 35.0367 16.6871 35.0975 16.6798C35.6517 16.6 36.0314 16.0916 35.9327 15.5614Z" fill="#EFC337"/>
</g>
<defs>
<clipPath id="clip0">
<rect width="35.9744" height="34.4103" fill="white" transform="translate(0 0.382324)"/>
</clipPath>
</defs>
</svg>
