<svg width="147" height="149" viewBox="0 0 147 149" fill="none" xmlns="http://www.w3.org/2000/svg">
<path d="M63.9685 18.1098V82.047V84.047H65.9685H129.906C129.532 95.9987 125.814 107.621 119.156 117.586C112.127 128.105 102.137 136.304 90.4481 141.146C78.7594 145.988 65.8975 147.255 53.4888 144.786C41.0802 142.318 29.6821 136.226 20.7359 127.279C11.7898 118.333 5.69737 106.935 3.22914 94.5266C0.760899 82.1179 2.02769 69.256 6.86931 57.5673C11.7109 45.8786 19.9099 35.8881 30.4295 28.8591C40.394 22.201 52.0168 18.4835 63.9685 18.1098Z" stroke="black" stroke-width="4"/>
<path d="M144.654 65.8271C144.654 57.5765 143.029 49.4068 139.872 41.7842C136.714 34.1617 132.087 27.2357 126.253 21.4016C120.419 15.5676 113.493 10.9398 105.87 7.78243C98.2475 4.62507 90.0777 3 81.8271 3L81.8271 65.8271H144.654Z" fill="#050505"/>
<path d="M147 69.3525C146.938 52.4644 141.087 36.1981 130.529 23.5321C118.022 8.57497 100.065 0 81.1796 0C78.8576 0 77 1.96373 77 4.4184V69.5816C77 72.0363 78.8576 74 81.1796 74H142.82C145.142 74 147 72.0363 147 69.5816C147 69.5161 147 69.4507 147 69.3525ZM85.3591 65.1959V9.03317C100.282 10.1787 114.276 17.4772 124.245 29.4233C132.604 39.4056 137.557 51.9735 138.486 65.1959H85.3591Z" fill="black"/>
</svg>
